<?xml version="1.0" encoding="utf-8"?>
<!-- Generator: Adobe Illustrator 18.0.0, SVG Export Plug-In . SVG Version: 6.00 Build 0)  -->
<!DOCTYPE svg PUBLIC "-//W3C//DTD SVG 1.1//EN" "http://www.w3.org/Graphics/SVG/1.1/DTD/svg11.dtd">
<svg version="1.1" id="Layer_1" xmlns="http://www.w3.org/2000/svg" xmlns:xlink="http://www.w3.org/1999/xlink" x="0px" y="0px"
	 viewBox="0 0 800 800" enable-background="new 0 0 800 800" xml:space="preserve">
<g>
	<path id="path22_100_" fill="#5C913B" d="M45.3,128.6c-21,47.2-32.7,99.2-32.7,154c0,214.8,179.1,388.9,400,388.9
		c172.1,0,318.5-105.9,374.9-254.3L45.3,128.6z"/>
	<path id="path26_81_" fill="#FFE8B6" d="M86.6,144.6C67.6,186.9,57,233.5,57,282.5c0,190.9,159.2,345.7,355.6,345.7
		c153.5,0,283.8-94.7,333.6-227.1L86.6,144.6z"/>
	<path id="path30_71_" fill="#DD2E44" d="M127.9,160.7c-16.9,37.3-26.5,78.4-26.5,121.8c0,167.1,139.3,302.5,311.1,302.5
		c134.7,0,249.1-83.4,292.4-199.9L127.9,160.7z"/>
	<path id="path34_51_" d="M210.7,299.8c-6.8,10.2-16.5,15.7-21.6,12.3c-5.1-3.4-3.7-14.4,3.1-24.7c6.8-10.2,16.5-15.7,21.6-12.3
		C218.9,278.5,217.5,289.6,210.7,299.8"/>
	<path id="path38_46_" d="M344,322c-6.8,10.2-16.5,15.7-21.6,12.3c-5.1-3.4-3.7-14.4,3.1-24.7c6.8-10.2,16.5-15.7,21.6-12.3
		C352.2,300.8,350.9,311.8,344,322"/>
	<path id="path42_47_" d="M457,426c1.1,12.2-2.9,22.6-9,23.1c-6.1,0.6-12-8.9-13.1-21.1c-1.1-12.2,2.9-22.6,9-23.1
		C450.1,404.3,455.9,413.7,457,426"/>
	<path id="path46_42_" d="M257,381.5c1.1,12.2-2.9,22.6-9,23.1c-6.1,0.6-12-8.9-13.1-21.1c-1.1-12.2,2.9-22.6,9-23.1
		C250,359.8,255.9,369.3,257,381.5"/>
	<path id="path50_28_" d="M343.7,500.3c-7.4,9.8-17.3,14.7-22.2,11c-4.9-3.7-2.9-14.6,4.5-24.4c7.4-9.8,17.4-14.7,22.2-11
		C353.1,479.6,351.1,490.5,343.7,500.3"/>
	<path id="path54_26_" d="M522.3,510.4c6,10.7,6.6,21.8,1.3,24.8c-5.4,3-14.6-3.2-20.6-13.9c-6.1-10.7-6.6-21.7-1.3-24.8
		C507,493.5,516.2,499.7,522.3,510.4"/>
	<path id="path58_30_" d="M366.3,398.7c6.7,10.3,8,21.3,2.9,24.6c-5.1,3.4-14.7-2.2-21.5-12.5c-6.7-10.3-8-21.3-2.9-24.6
		C350,382.8,359.6,388.4,366.3,398.7"/>
	<path id="path62_28_" d="M565.9,433.7c-7.4,9.8-17.3,14.7-22.2,11s-2.9-14.6,4.6-24.4c7.4-9.8,17.3-14.7,22.2-11
		C575.4,412.9,573.4,423.9,565.9,433.7"/>
</g>
</svg>
