<?xml version="1.0" encoding="utf-8"?>
<!-- Generator: Adobe Illustrator 21.0.0, SVG Export Plug-In . SVG Version: 6.00 Build 0)  -->
<svg version="1.1" id="Layer_1" xmlns="http://www.w3.org/2000/svg" xmlns:xlink="http://www.w3.org/1999/xlink" x="0px" y="0px"
	 viewBox="0 0 639 246" enable-background="new 0 0 639 246" xml:space="preserve">
<g>
	<circle fill="none" cx="466.6" cy="145.5" r="20.2"/>
	<path fill="none" d="M308.8,125.4c-9.2,0-16.9,5.5-19.4,14.5h38.8C325.8,130.9,318,125.4,308.8,125.4z"/>
	<path fill="white" d="M515.5,90.6c-4,0-7.2,3.2-7.2,7.2c0,4.1,3.2,7.3,7.2,7.3s7.2-3.2,7.2-7.3C522.7,93.9,519.5,90.6,515.5,90.6z"/>
	<path fill="white" d="M515.3,113.9c-3.5,0-5.9,2.6-5.9,6.2v56.6c0,7.6-2.1,12.8-8.9,14.4c-3,0.7-4.8,2.9-4.8,5.8c0,3.7,2.6,5.8,5.9,5.8
		c1.4,0,2.8-0.2,4.1-0.7c10-3.1,15.7-11.4,15.7-25.2v-56.6C521.4,116.6,518.9,113.9,515.3,113.9z"/>
	<path fill="white" d="M545.5,90.6c-4,0-7.2,3.2-7.2,7.2c0,4.1,3.2,7.3,7.2,7.3s7.2-3.2,7.2-7.3C552.7,93.9,549.5,90.6,545.5,90.6z"/>
	<path fill="white" d="M545,113.9c-3.6,0-6.6,2.5-6.6,6.1v51c0,3.6,3,6.1,6.6,6.1s6.4-2.5,6.4-6.1v-51C551.4,116.4,548.6,113.9,545,113.9z"/>
	<path fill="white" d="M466.6,113.9c-17.5,0-31.6,14.2-31.6,31.6s14.2,31.6,31.6,31.6s31.6-14.2,31.6-31.6S484.1,113.9,466.6,113.9z M466.6,165.8
		c-11.2,0-20.2-9.1-20.2-20.2c0-11.2,9.1-20.2,20.2-20.2s20.2,9.1,20.2,20.2C486.9,156.7,477.8,165.8,466.6,165.8z"/>
	<path fill="white" d="M340.3,144.5c-0.5-17-14.8-30.6-31.9-30.6c-17.4,0-32,14.1-32,31.6c0,0,0,0,0,0c0,0,0,0,0,0c0,0,0,0,0,0
		c0,17,13.8,30.9,30.7,31.6c1.4,0.1,3.1,0,4.1,0c4.8-0.3,11.8-1.7,16.4-4c2.3-1.1,3.3-3,3.3-5.2c0-3.1-2.4-5.6-5.6-5.6
		c-1.2,0-2.4,0.4-4.2,1.1c-3.1,1.2-6.8,2.5-11.9,2.5l-0.2-0.3c-9.2,0-16.9-6.7-19.4-14.7h45.3c3.1,0,5.7-2.4,5.7-5.5
		C340.4,145,340.4,144.8,340.3,144.5L340.3,144.5z M289.4,139.9c2.5-9,10.2-14.5,19.4-14.5c9.2,0,16.9,5.5,19.4,14.5H289.4z"/>
	<path fill="white" d="M200.8,148.4c3.5-16.3-4.5-32.5-19.2-37.5c-12.4-4.2-26,1-34.2,11.9c-6,5.8-9.7,13.8-9.7,22.8c0,17.5,14.2,31.6,31.6,31.6
		C185.9,177.2,199.4,164.5,200.8,148.4z M183.5,160c-3.1-2.2-8.1-3.6-13.8-3.6c-5.9,0-11.1,1.5-14.2,3.9c-3.9-3.7-6.4-8.9-6.4-14.7
		c0-11.2,9.1-20.2,20.2-20.2c11.2,0,20.2,9.1,20.2,20.2C189.6,151.2,187.3,156.3,183.5,160z"/>
	<path fill="white" d="M128.6,162.3c-1,0-1.9,0.2-2.8,0.5c-0.9,0.3-1.8,0.7-2.9,1.2c-1.8,0.8-4,1.5-6.5,1.8c-0.4,0-0.8,0.1-1.2,0.1
		c-3.2,0-6.1-0.7-8.8-2c-6.8-3.3-11.4-10.2-11.4-18.2c0-8.2,4.8-15.2,11.8-18.4c2.4-1.1,5.1-1.8,8-1.8c3.2,0.1,5.9,0.8,8.1,1.7
		c1.2,0.5,2.1,1,3,1.3c0.9,0.4,1.8,0.6,3,0.6c3.2,0,5.5-2.4,5.5-5.6c0-1.6-0.7-3.1-1.8-4.2c-0.4-0.4-0.8-0.7-1.3-1
		c-1.3-0.7-2.7-1.3-4.2-1.9c-3.7-1.5-7.7-2.3-11.8-2.3c-0.1,0-0.2,0-0.3,0c-6.8,0.1-13,2.3-18.1,5.9c-8,5.7-13.2,15.1-13.2,25.7
		c0,10.7,5.3,20.1,13.4,25.8c0,0,0,0.1,0.1,0.1c5,3.5,10.9,5.8,17.4,5.8c0.2,0,0.5-0.1,0.7-0.1c4,0,7.8-0.8,11.3-2.1
		c0,0,0.1,0,0.1-0.1c0,0,0.1-0.1,0.1-0.1c1.6-0.5,3-1.2,4.4-1.9c0.6-0.3,1.1-0.8,1.5-1.2c0,0,0,0,0,0c1-1.1,1.6-2.4,1.6-3.9
		C134.3,164.6,131.9,162.3,128.6,162.3z"/>
	<path fill="white" d="M114.5,177.3C114.5,177.3,114.5,177.3,114.5,177.3C114.5,177.3,114.5,177.3,114.5,177.3
		C114.5,177.3,114.5,177.3,114.5,177.3z"/>
	<path fill="white" d="M263.4,90.6c-3.4,0-6,2.8-6,6.2V119c-8-8.3-19.8-11.8-30.7-8.1c-13.1,4.4-20.8,17.9-19.8,32.3c-0.1,0.8,0,1.5,0,2.3
		c0,17.5,14.2,31.5,31.6,31.5c7.5,0,14.4-3.1,19.8-7.1c0,0,0,0,0,0c6-5,10-11.7,11.3-19.6c0,0-0.1-2.8-0.1-2.8V96.8
		C269.4,93.4,266.8,90.6,263.4,90.6z M257.7,151.8c-1.2,3.2-3,6-5.3,8.3c-3.1-2.2-8.2-3.7-13.9-3.7c-5.8,0-10.9,1.5-14,3.7
		c-3.8-3.7-6.2-8.8-6.2-14.6c0-11.2,9-20.2,20.2-20.2c9,0,16.2,5.9,19.2,14c1,2,1,4,1,6.2S258.7,149.8,257.7,151.8z"/>
	<path fill="white" d="M403.6,113.9c-5.3,0-11.5,1.9-16.2,5c-4.8-3.2-11.3-5-16.7-5c-14.5,0-23.3,8.5-23.3,22.8v34.2c0,3.7,2.8,6.2,6.4,6.2
		c3.6,0,6.6-2.5,6.6-6.2v-34.7c0-7.2,4.6-10.9,10.6-10.9c2.5,0,4.8,0.6,7,1.5c0.8,0.7,3.4,3.3,3.4,5.9v38.2c0,3.7,2.7,6,6.3,6
		c0,0,0,0,0,0c0,0,0,0,0,0c0,0-0.2,0.2-0.2,0.2c3.6,0,5.9-2.5,5.9-6.2v-38.2c0-2.7,2.8-5.2,3.6-5.9c2.2-0.9,4.4-1.5,6.9-1.5
		c6,0,10.5,3.7,10.5,10.9v34.7c0,3.7,2.5,6.2,6.1,6.2c3.6,0,5.9-2.5,5.9-6.2v-34.2C426.4,122.4,418.2,113.9,403.6,113.9z"/>
	<path fill="white" d="M203.5,179.8c-12.5,0-22.7,4.8-22.7,10.6c0,2.1,1.3,4,3.5,5.6l17.6,17.4c-0.3,0.3-0.6,0.7-0.7,1.2c-0.9,3.9-2.7,6.6-5.3,8
		c-2.3,1.2-4.7,1.1-5.4,0.8c-1.3-0.5-2.7,0.2-3.2,1.5c-0.5,1.3,0.2,2.7,1.5,3.2c0.9,0.3,2,0.5,3.2,0.5c1.9,0,4.2-0.4,6.3-1.6
		c1.9-1,4.1-2.8,5.9-6.1c2.6,3.4,7.1,7.3,14.1,7.3c1.4,0,2.5-1.1,2.5-2.5s-1.1-2.5-2.5-2.5c-8.7,0-12.1-8.7-12.3-9
		c-0.1-0.3-0.3-0.8-0.6-1.1l18.4-18.3h-0.2c1.6-1,2.6-2.9,2.6-4.7C226.1,184.3,216,179.8,203.5,179.8z"/>
	<path fill="none" d="M169.4,125.3c-11.2,0-20.2,9.1-20.2,20.2c0,5.8,2.5,11,6.4,14.7c3.1-2.3,8.3-3.9,14.2-3.9
		c5.7,0,10.7,1.4,13.8,3.6c3.8-3.7,6.1-8.8,6.1-14.5C189.6,134.4,180.5,125.3,169.4,125.3z M169.4,151.5c-4.2,0-7.7-3.4-7.7-7.7
		s3.4-7.7,7.7-7.7c1.4,0,2.8,0.4,4,1.1c-1.2,0.5-2.1,1.5-2.1,2.7c0,1.6,1.6,3,3.6,3c0.8,0,1.5-0.2,2.1-0.6c0.1,0.5,0.1,1,0.1,1.5
		C177,148.1,173.6,151.5,169.4,151.5z"/>
	<path fill="none" d="M238.4,125.3c-11.2,0-20.2,9.1-20.2,20.2c0,5.7,2.4,10.9,6.2,14.6c3.1-2.3,8.2-3.7,14-3.7
		c5.7,0,10.8,1.4,13.9,3.7c2.3-2.3,4.2-5.1,5.3-8.3c1-2,1-4,1-6.2s0-4.3-1-6.2C254.7,131.2,247.4,125.3,238.4,125.3z M238.4,151.5
		c-4.2,0-7.7-3.4-7.7-7.7s3.4-7.7,7.7-7.7c1.4,0,2.7,0.4,3.8,1c-1.4,0.4-2.5,1.5-2.5,2.8c0,1.6,1.6,3,3.6,3c1,0,1.9-0.3,2.6-0.9
		c0.1,0.6,0.2,1.2,0.2,1.8C246.1,148.1,242.7,151.5,238.4,151.5z"/>
	<path fill="white" d="M179.5,142.2c-3.7,0-6.7-2.5-6.7-5.5c0-2.2,1.6-4.1,3.9-5c-2.2-1.3-4.7-2.1-7.4-2.1c-7.9,0-14.3,6.4-14.3,14.3
		c0,7.9,6.4,14.3,14.3,14.3s14.3-6.4,14.3-14.3c0-0.9-0.1-1.8-0.3-2.7C182.3,141.8,181,142.2,179.5,142.2z"/>
	<path fill="white" d="M247.6,142.2c-3.7,0-6.7-2.5-6.7-5.5c0-2.4,1.9-4.5,4.6-5.2c-2.1-1.2-4.5-1.9-7-1.9c-7.9,0-14.3,6.4-14.3,14.3
		c0,7.9,6.4,14.3,14.3,14.3s14.3-6.4,14.3-14.3c0-1.1-0.1-2.3-0.4-3.3C251.1,141.5,249.4,142.2,247.6,142.2z"/>
	<path fill="white" d="M129.7,70.3c4.3-9.2,27.6-32.7,48.7-37.4c0,0-34.7-33-62.8-7c-28.1,26-1.1,66.5-1.1,66.5S125.4,79.5,129.7,70.3z"/>
	<path fill="white" d="M278.6,70.3c4.3,9.2,15.2,22.1,15.2,22.1s27-40.5-1.1-66.5c-28.1-26-62.8,7-62.8,7C251,37.6,274.2,61.1,278.6,70.3z"/>
	<path fill="white" d="M72.5,119.8c0-3.2-2.6-5.9-5.8-5.9c-1.2,0-2.4,0.4-3.5,1.1l-39.1,24.5c-2.2,1.4-3.4,3.6-3.4,6c0,2.5,1.2,4.8,3.4,6.1
		l39.1,24.5c1.1,0.7,2.3,1.1,3.4,1.1c3.4,0,5.9-2.6,5.9-5.9c0-1.9-1-3.8-2.8-4.9l-33.2-20.9l33-20.5
		C71.5,123.8,72.5,121.9,72.5,119.8z"/>
	<path fill="white" d="M615.9,139.5L576.8,115c-1.1-0.7-2.3-1.1-3.5-1.1c-3.1,0-5.8,2.6-5.8,5.9c0,2,1,4,3,5.2l33,20.5l-33.2,20.9
		c-1.8,1.1-2.8,3-2.8,4.9c0,3.2,2.5,5.9,5.9,5.9c1.1,0,2.3-0.4,3.4-1.1l39.1-24.5c2.2-1.3,3.4-3.6,3.4-6.1
		C619.3,143.1,618.1,140.9,615.9,139.5z"/>
</g>
</svg>
