<?xml version="1.0" encoding="utf-8"?>
<!-- Generator: Adobe Illustrator 18.0.0, SVG Export Plug-In . SVG Version: 6.00 Build 0)  -->
<!DOCTYPE svg PUBLIC "-//W3C//DTD SVG 1.1//EN" "http://www.w3.org/Graphics/SVG/1.1/DTD/svg11.dtd">
<svg version="1.1" id="Layer_1" xmlns="http://www.w3.org/2000/svg" xmlns:xlink="http://www.w3.org/1999/xlink" x="0px" y="0px"
	 viewBox="0 0 413 62" enable-background="new 0 0 413 62" xml:space="preserve">
<g>
	<path fill="#005189" d="M84.6,59.7h-8.1c-1.7,0-2.7-1-2.7-2.7V42.7L59.5,7.5c-0.8-1.9,0.1-3.1,2.1-3.1h9.1c1.6,0,2.6,0.8,3.1,2.2
		l6.9,19.5l6.9-19.5C88,5.1,89,4.3,90.5,4.3h9.1c2,0,2.9,1.2,2.1,3.1L87.3,42.7V57C87.3,58.7,86.3,59.7,84.6,59.7z"/>
	<path fill="#005189" d="M116.7,59.7h-8.1c-1.7,0-2.7-1-2.7-2.7V7c0-1.7,1-2.7,2.7-2.7H125c9.4,0,19.9,2.1,19.9,17.5v1.4
		c0,15.3-10.6,17.5-19.9,17.5h-5.6V57C119.4,58.7,118.4,59.7,116.7,59.7z M131.3,22.8v-0.6c0-5.3-3.1-6.2-5.7-6.2h-6.2V29h6.2
		C128.2,29,131.3,28,131.3,22.8z"/>
	<path fill="#005189" d="M190.4,7v50c0,1.7-1,2.7-2.7,2.7h-8.1c-1.7,0-2.7-1-2.7-2.7V37.3h-13.5V57c0,1.7-1,2.7-2.7,2.7h-8.1
		c-1.7,0-2.7-1-2.7-2.7V7c0-1.7,1-2.7,2.7-2.7h8.1c1.7,0,2.7,1,2.7,2.7v18.6h13.5V7c0-1.7,1-2.7,2.7-2.7h8.1
		C189.4,4.3,190.4,5.3,190.4,7z"/>
	<g>
		<path fill="#5C9040" d="M52.4,48.3L35.8,31.5l16.8-16.6l2.1-2l2.3-2.3c-1.3-1.3-2.6-2.5-4.1-3.5c-13.5-9.4-32-6.1-41.3,7.4
			c-9.4,13.5-6.1,32,7.4,41.3c11.9,8.3,27.8,6.6,37.8-3.2l-2.3-2.3L52.4,48.3z"/>
		<path fill="#FFE7B4" d="M35.8,31.5l16.8-16.6l2.1-2c-1.1-1.1-2.3-2.2-3.7-3.1c-12-8.3-28.5-5.4-36.8,6.6
			c-8.3,12-5.4,28.5,6.6,36.8c10.6,7.4,24.7,5.9,33.6-2.8l-2-2.1L35.8,31.5z"/>
		<g>
			<g>
				<path fill="#DD2F45" d="M52.6,14.9c-1-1-2.1-1.9-3.3-2.8C38.7,4.7,24,7.3,16.5,18c-7.4,10.7-4.8,25.4,5.9,32.8
					c9.5,6.6,22,5.3,30-2.5L35.8,31.5L52.6,14.9z"/>
			</g>
			<g>
				<g id="watermelon_c_2_" transform="matrix(1.25,0,0,-1.25,0,47.5)">
					<g id="g12_5_">
						<g>
							<g id="g14_5_">
								<g id="g32_1_" transform="translate(10.916,22.7227)">
									<path id="path34_1_" d="M7.2-3.7C6.5-4,5.8-4,5.7-3.6C5.5-3.3,6-2.8,6.7-2.5S8-2.3,8.2-2.6C8.3-3,7.8-3.5,7.2-3.7"/>
								</g>
								<g id="g36_1_" transform="translate(16.916,21.7227)">
									<path id="path38_1_" d="M7-8.4C6.3-8.7,5.6-8.6,5.5-8.3C5.4-8,5.8-7.5,6.5-7.2S7.8-7,8-7.3C8.1-7.7,7.7-8.2,7-8.4"/>
								</g>
								<g id="g40_2_" transform="translate(21.998,17.0449)">
									<path id="path42_2_" d="M3.9-12.8c-0.4-0.6-0.9-1-1.2-0.8c-0.3,0.2-0.3,0.8,0.1,1.5c0.4,0.6,0.9,1,1.2,0.8
										C4.3-11.5,4.3-12.1,3.9-12.8"/>
								</g>
								<g id="g44_1_" transform="translate(12.998,19.0449)">
									<path id="path46_1_" d="M4.6-5.7c-0.4-0.6-0.9-1-1.2-0.8C3-6.3,3-5.7,3.4-5s0.9,1,1.2,0.8C5-4.4,4.9-5.1,4.6-5.7"/>
								</g>
								<g id="g48_1_" transform="translate(16.8994,13.6992)">
									<path id="path50_1_" d="M0.8-9.2C0.1-9.4-0.5-9.3-0.6-9c-0.1,0.4,0.4,0.8,1.1,1c0.7,0.2,1.4,0.1,1.5-0.2
										C2-8.5,1.6-9,0.8-9.2"/>
								</g>
								<g id="g52_2_" transform="translate(24.9355,13.2451)">
									<path id="path54_2_" d="M1.3-15.4c-0.1-0.7-0.4-1.3-0.8-1.3c-0.4,0-0.6,0.7-0.5,1.4C0-14.5,0.4-14,0.7-14
										C1.1-14,1.3-14.6,1.3-15.4"/>
								</g>
								<g id="g56_1_" transform="translate(17.918,18.2734)">
									<path id="path58_1_" d="M4.4-9.5c0-0.7-0.3-1.3-0.7-1.3c-0.4,0-0.7,0.6-0.6,1.4c0,0.7,0.3,1.3,0.7,1.3
										C4.2-8.2,4.5-8.8,4.4-9.5"/>
								</g>
								<g id="g60_3_" transform="translate(26.8994,16.6992)">
									<path id="path62_2_" d="M4.1-16.5c-0.7-0.2-1.4-0.1-1.5,0.2c-0.1,0.4,0.4,0.8,1.1,1c0.7,0.2,1.4,0.1,1.5-0.2
										C5.3-15.8,4.8-16.3,4.1-16.5"/>
								</g>
							</g>
						</g>
					</g>
				</g>
				<g id="watermelon_c_1_" transform="matrix(1.25,0,0,-1.25,0,47.5)">
					<g id="g12_4_">
						<g>
							<g id="g14_4_">
								<g id="g40_1_" transform="translate(21.998,17.0449)">
									<path id="path42_1_" d="M9,3c0.4,0.6,0.9,1,1.2,0.8c0.3-0.2,0.3-0.8-0.1-1.5c-0.4-0.6-0.9-1-1.2-0.8C8.6,1.7,8.6,2.4,9,3"
										/>
								</g>
								<g id="g52_1_" transform="translate(24.9355,13.2451)">
									<path id="path54_1_" d="M5.7,13.3c0.1,0.7,0.4,1.3,0.8,1.3c0.4,0,0.6-0.7,0.5-1.4c-0.1-0.7-0.4-1.3-0.8-1.3
										C5.9,11.9,5.7,12.5,5.7,13.3"/>
								</g>
								<g id="g60_2_" transform="translate(26.8994,16.6992)">
									<path id="path62_1_" d="M-1,7.5c0.7,0.2,1.4,0.1,1.5-0.2c0.1-0.4-0.4-0.8-1.1-1C-1.3,6-2,6.1-2.1,6.5
										C-2.2,6.8-1.7,7.3-1,7.5"/>
								</g>
							</g>
						</g>
					</g>
				</g>
			</g>
		</g>
	</g>
	<g id="g10_1_" transform="matrix(1.25,0,0,-1.25,0,47.5)">
		<g id="g12_3_">
			<g>
				<g id="g14_3_">
					<g id="g20_3_" transform="translate(25,31)">
						<path id="path22_3_" fill="#CBD5DC" d="M296.7-1.5c0-4.3-3.4-7.9-7.5-7.9s-7.5,3.5-7.5,7.9s3.4,7.9,7.5,7.9
							S296.7,2.8,296.7-1.5"/>
					</g>
					<path id="path24_1_" fill="#CBD5DC" d="M323-5.9h-17.6v27.5H323V-5.9z"/>
				</g>
			</g>
		</g>
		<g id="g26_1_">
			<g>
				<defs>
					<rect id="SVGID_1_" x="303.2" y="-9.3" width="22" height="34.4"/>
				</defs>
				<clipPath id="SVGID_2_">
					<use xlink:href="#SVGID_1_"  overflow="visible"/>
				</clipPath>
				<g id="g28_3_" clip-path="url(#SVGID_2_)">
					<g id="g34_1_" transform="translate(34.1914,15.4902)">
						<path id="path36_1_" fill="#DD2F45" d="M299.1-6.3L269.7,8.6l2.2,4.7l29.4-14.9L299.1-6.3z"/>
					</g>
					<g id="g38_1_" transform="translate(27.1758,1.1094)">
						<path id="path40_1_" fill="#DD2F45" d="M297.3-10.8L267.9,4.1l2.2,4.7l29.4-14.9L297.3-10.8z"/>
					</g>
					<g id="g42_1_" transform="translate(32.4375,11.8945)">
						<path id="path44_1_" fill="#FFFFFF" d="M298.7-7.4L269.3,7.5l2.2,4.7l29.4-14.9L298.7-7.4z"/>
					</g>
					<g id="g46_1_" transform="translate(28.9297,4.7051)">
						<path id="path48_1_" fill="#FFFFFF" d="M297.8-9.7L268.4,5.3l2.2,4.7L300-5L297.8-9.7z"/>
					</g>
					<g id="g50_1_" transform="translate(25.4219,-2.4854)">
						<path id="path52_1_" fill="#FFFFFF" d="M296.9-11.9L267.5,3l2.2,4.7l29.4-14.9L296.9-11.9z"/>
					</g>
					<g id="g54_1_" transform="translate(30.6836,8.2998)">
						<path id="path56_1_" fill="#5FA8DC" d="M298.2-8.6L268.8,6.4l2.2,4.7l29.4-14.9L298.2-8.6z"/>
					</g>
				</g>
			</g>
		</g>
		<g id="g58_1_">
			<g>
				<g id="g60_1_">
					<g id="g66_1_" transform="translate(28,26)">
						<path id="path68_1_" fill="#98A9B4" d="M297.5-3.1c0-1.4-1.1-2.6-2.5-2.6h-17.6c-1.4,0-2.5,1.2-2.5,2.6s1.1,2.6,2.5,2.6H295
							C296.4-0.4,297.5-1.6,297.5-3.1"/>
					</g>
					<g id="g70_1_" transform="translate(28,3)">
						<path id="path72_1_" fill="#98A9B4" d="M297.5-10.2c0-1.4-1.1-2.6-2.5-2.6h-17.6c-1.4,0-2.5,1.2-2.5,2.6s1.1,2.6,2.5,2.6H295
							C296.4-7.6,297.5-8.8,297.5-10.2"/>
					</g>
				</g>
			</g>
		</g>
	</g>
	<g id="g12_2_">
		<g>
			<g id="g14_2_">
				<g id="g20_2_" transform="translate(3.9995,17.5)">
					<path id="path22_2_" fill="#F28F20" d="M284.6,16.1c0-14.4,11.7-26.1,26.1-26.1s26.1,11.7,26.1,26.1
						c0,14.4-11.7,26.1-26.1,26.1S284.6,30.5,284.6,16.1"/>
				</g>
				<g id="g24_2_" transform="translate(12.4136,29.4146)">
					<path id="path26_2_" fill="#652213" d="M289.5-14.7c-0.4-0.4-1.3-0.3-2.1,0.2c-5.2-4.3-13.7-5.8-14-5.8
						c-0.9-0.1-1.7,0.4-1.8,1.3c-0.1,0.9,0.4,1.7,1.3,1.8c0.1,0,7.8,1.3,12.3,5c-0.4,0.8-0.5,1.6-0.1,2c0.6,0.6,2.1,0.1,3.3-1.1
						S290.1-14,289.5-14.7"/>
				</g>
				<g id="g28_2_" transform="translate(22,36.0005)">
					<path id="path30_2_" fill="#5C9040" d="M295-31.6c0,0-4.9,6.8-11.1,8.3c-4.7,1.1-11,1.3-11.6-0.2c-0.6-1.5,2.5-6.2,7.8-8.5
						S295-31.6,295-31.6"/>
				</g>
			</g>
		</g>
	</g>
	<path fill="#005189" d="M255.5,57V7.1c0-1.7,1-2.7,2.7-2.7h8.1c1.7,0,2.7,1,2.7,2.7v41h16.8c1.7,0,2.7,1,2.7,2.7V57
		c0,1.7-1,2.7-2.7,2.7h-27.6C256.5,59.7,255.5,58.7,255.5,57z"/>
	<path fill="#005189" d="M371.6,7.1v35.7c0,11.3-5.1,17.9-17.1,17.9c-12,0-16.5-5-17.1-17.4c-0.1-1.8,0.9-2.8,2.6-2.8h7.4
		c1.7,0,2.6,0.9,2.7,2.8c0.3,3.8,1.2,5.7,4,5.7c3.3,0,4-3,4-7.8V7.1c0-1.7,1-2.7,2.7-2.7h8.1C370.6,4.4,371.6,5.4,371.6,7.1z"/>
	<g id="g12_1_">
		<g>
			<g id="g14_1_">
				<g id="g20_1_" transform="translate(3.9995,17.5)">
					<path id="path22_1_" fill="#F28F20" d="M192.9,16.1C192.9,1.7,204.6-10,219-10S245,1.7,245,16.1c0,14.4-11.7,26.1-26.1,26.1
						S192.9,30.5,192.9,16.1"/>
				</g>
				<g id="g24_1_" transform="translate(12.4136,29.4146)">
					<path id="path26_1_" fill="#652213" d="M197.8-14.7c-0.4-0.4-1.3-0.3-2.1,0.2c-5.2-4.3-13.7-5.8-14-5.8
						c-0.9-0.1-1.7,0.4-1.8,1.3s0.4,1.7,1.3,1.8c0.1,0,7.8,1.3,12.3,5c-0.4,0.8-0.5,1.6-0.1,2c0.6,0.6,2.1,0.1,3.3-1.1
						C197.9-12.5,198.4-14,197.8-14.7"/>
				</g>
				<g id="g28_1_" transform="translate(22,36.0005)">
					<path id="path30_1_" fill="#5C9040" d="M203.4-31.6c0,0-4.9,6.8-11.1,8.3c-4.7,1.1-11,1.3-11.6-0.2c-0.6-1.5,2.5-6.2,7.8-8.5
						S203.4-31.6,203.4-31.6"/>
				</g>
			</g>
		</g>
	</g>
</g>
</svg>
