<?xml version="1.0" encoding="utf-8"?>
<!-- Generator: Adobe Illustrator 18.0.0, SVG Export Plug-In . SVG Version: 6.00 Build 0)  -->
<!DOCTYPE svg PUBLIC "-//W3C//DTD SVG 1.1//EN" "http://www.w3.org/Graphics/SVG/1.1/DTD/svg11.dtd">
<svg version="1.1" id="Layer_1" xmlns="http://www.w3.org/2000/svg" xmlns:xlink="http://www.w3.org/1999/xlink" x="0px" y="0px"
	 viewBox="0 0 413 62" enable-background="new 0 0 413 62" xml:space="preserve">
<g id="h_letters">
	<path fill="#005189" d="M69.8,34.8L82.5,54h-8.7L62.6,35.8h-4.8V54h-7.4V9.7h12.3C74.1,9.7,80,13.9,80,22.5
		C80,29.1,75.6,33,69.8,34.8 M63.1,15.2h-5.3v15.1h5.5c5.7,0,8.8-2.2,8.8-7.8C72.2,17.4,69.2,15.2,63.1,15.2"/>
	<path fill="#005189" d="M147.2,38.2h-5.4V54h-7.4V9.7h12.2c11.2,0,17.8,4.5,17.8,13.9C164.5,34,157.3,38.2,147.2,38.2 M147.2,15.3
		h-5.4v17.3h5.4c5.6,0,9.4-2.2,9.4-8.9C156.7,17.6,152.9,15.3,147.2,15.3"/>
	<polygon fill="#005189" points="193,54 185.6,54 185.6,15.7 172.3,15.7 172.3,9.7 206.6,9.7 205.8,15.7 193,15.7 	"/>
	<polygon fill="#005189" points="264.9,9.7 272.3,9.7 272.3,47.8 292.2,47.8 291.4,54 264.9,54 	"/>
	<path fill="#005189" d="M370.7,37.9c0,8.5-4.6,16-16.2,16c-4.8,0-9-1.5-12.6-4.1l3-4.7c3.5,2.3,6.4,2.9,9.3,2.9c5.5,0,9-3.7,9-10.3
		V14.6H350V8.9h20.7L370.7,37.9L370.7,37.9z"/>
	<polygon fill="#005189" points="109.8,54 102.4,54 102.4,37.1 87.5,9.7 95.7,9.7 106.2,30.7 116.8,9.7 124.6,9.7 109.8,37.1 	"/>
</g>
<g id="h_emoji">
	<g>
		<path fill="#5C913B" d="M39.1,44.2L26.6,31.5l12.8-12.6l1.5-1.5l1.8-1.7c-1-1-2-1.9-3.2-2.7C29.3,5.8,15.2,8.3,8.1,18.5
			C0.9,28.8,3.5,42.8,13.7,50c9.1,6.3,21.1,5,28.7-2.4l-1.7-1.8L39.1,44.2z"/>
		<path fill="#FFE8B6" d="M26.6,31.5l12.8-12.6l1.5-1.5c-0.9-0.9-1.8-1.7-2.8-2.4c-9.1-6.3-21.6-4.1-28,5s-4.1,21.6,5,28
			c8.1,5.6,18.8,4.5,25.6-2.2l-1.5-1.5L26.6,31.5z"/>
		<path fill="#DD2E44" d="M39.3,18.9c-0.8-0.8-1.6-1.5-2.5-2.1c-8.1-5.7-19.3-3.7-24.9,4.4c-5.7,8.2-3.7,19.3,4.4,25
			c7.2,5,16.8,4,22.8-1.9L26.6,31.5L39.3,18.9z"/>
		<path d="M16.5,25.6c-0.6,0.3-1.3,0.2-1.4-0.1c-0.1-0.3,0.3-0.8,1-1c0.6-0.3,1.3-0.2,1.4,0.1C17.6,24.8,17.1,25.3,16.5,25.6"/>
		<path d="M22,31c-0.6,0.3-1.3,0.2-1.4-0.1c-0.1-0.3,0.3-0.8,1-1c0.6-0.3,1.3-0.2,1.4,0.1C23.1,30.2,22.7,30.7,22,31"/>
		<path d="M23.9,39.5c-0.4,0.6-0.9,1-1.2,0.8c-0.3-0.2-0.3-0.8,0.1-1.4c0.4-0.6,0.9-1,1.2-0.8C24.3,38.3,24.2,38.9,23.9,39.5"/>
		<path d="M16,30.9c-0.4,0.6-0.9,1-1.2,0.8c-0.3-0.2-0.3-0.8,0.1-1.4c0.4-0.6,0.9-1,1.2-0.8C16.4,29.7,16.4,30.3,16,30.9"/>
		<path d="M16.2,39.3c-0.7,0.2-1.3,0.1-1.4-0.2c-0.1-0.3,0.4-0.8,1-1c0.7-0.2,1.3-0.1,1.4,0.2C17.3,38.7,16.9,39.1,16.2,39.3"/>
		<path d="M24.2,45.6c0,0.7-0.4,1.2-0.7,1.2c-0.4,0-0.6-0.6-0.5-1.3c0-0.7,0.4-1.2,0.7-1.2C24.1,44.3,24.3,44.9,24.2,45.6"/>
		<path d="M20.6,35.3c0,0.7-0.3,1.3-0.7,1.3s-0.6-0.6-0.6-1.3c0-0.7,0.3-1.3,0.7-1.3C20.3,34,20.6,34.6,20.6,35.3"/>
		<path d="M28.8,43.5c-0.7,0.2-1.3,0.1-1.4-0.2c-0.1-0.3,0.4-0.8,1-1c0.7-0.2,1.3-0.1,1.4,0.2C29.9,42.8,29.5,43.2,28.8,43.5"/>
		<path d="M28.7,24.5c0.4-0.6,0.9-1,1.2-0.8c0.3,0.2,0.3,0.8-0.1,1.4c-0.4,0.6-0.9,1-1.2,0.8C28.4,25.7,28.4,25.1,28.7,24.5"/>
		<path d="M28.5,18.4c0-0.7,0.4-1.2,0.7-1.2c0.4,0,0.6,0.6,0.5,1.3c0,0.7-0.4,1.2-0.7,1.2C28.6,19.7,28.4,19.1,28.5,18.4"/>
		<path d="M23.9,20.6c0.7-0.2,1.3-0.1,1.4,0.2c0.1,0.3-0.4,0.8-1,1c-0.7,0.2-1.3,0.1-1.4-0.2S23.2,20.8,23.9,20.6"/>
	</g>
	<g>
		<path fill="#F4900C" d="M214.1,33.1c0-11.5,9.3-20.8,20.8-20.8c11.5,0,20.8,9.3,20.8,20.8s-9.3,20.8-20.8,20.8
			C223.4,53.9,214.1,44.6,214.1,33.1"/>
		<path fill="#662113" d="M224.7,18.1c-0.3-0.3-1-0.2-1.7,0.1c-4.2-3.4-10.9-4.6-11.2-4.7c-0.7-0.1-1.3,0.4-1.5,1
			c-0.1,0.7,0.4,1.3,1,1.5c0,0,6.2,1.1,9.8,4c-0.4,0.7-0.4,1.3-0.1,1.6c0.5,0.5,1.7,0.1,2.7-0.9C224.8,19.8,225.2,18.6,224.7,18.1"
			/>
		<path fill="#5C913B" d="M236.8,9.8c0,0-3.9,5.4-8.8,6.6c-3.8,0.9-8.7,1-9.2-0.1c-0.5-1.2,2-4.9,6.3-6.8
			C229.2,7.7,236.8,9.8,236.8,9.8"/>
	</g>
	<g>
		<path fill="#F4900C" d="M297,33.1c0-11.5,9.3-20.8,20.8-20.8c11.5,0,20.8,9.3,20.8,20.8s-9.3,20.8-20.8,20.8
			C306.3,53.9,297,44.6,297,33.1"/>
		<path fill="#662113" d="M307.6,18.1c-0.3-0.3-1-0.2-1.7,0.1c-4.2-3.4-10.9-4.6-11.2-4.7c-0.7-0.1-1.3,0.4-1.5,1
			c-0.1,0.7,0.4,1.3,1,1.5c0,0,6.2,1.1,9.8,4c-0.4,0.7-0.4,1.3-0.1,1.6c0.5,0.5,1.7,0.1,2.7-0.9C307.7,19.8,308.1,18.6,307.6,18.1"
			/>
		<path fill="#5C913B" d="M319.7,9.8c0,0-3.9,5.4-8.8,6.6c-3.8,0.9-8.7,1-9.2-0.1c-0.5-1.2,2-4.9,6.3-6.8
			C312.2,7.7,319.7,9.8,319.7,9.8"/>
	</g>
	<polygon fill="#DD2E44" points="401.5,25.2 401.5,30.8 387.4,23.9 398.8,23.9 	"/>
	<polygon fill="#DD2E44" points="401.5,47.6 401.5,50.3 395.6,50.3 384,44.6 384,39 	"/>
	<rect x="384" y="23.9" fill="none" width="17.5" height="26.3"/>
	<polygon fill="#FFFFFF" points="401.5,30.8 401.5,36.4 384,27.9 384,23.9 387.4,23.9 	"/>
	<polygon fill="#FFFFFF" points="401.5,23.9 401.5,25.2 398.9,23.9 	"/>
	<polygon fill="#FFFFFF" points="395.5,50.3 384.1,50.3 384,50.2 384,44.6 	"/>
	<polygon fill="#FFFFFF" points="401.5,42 401.5,47.6 384,39 384,33.4 	"/>
	<polygon fill="#55ACEE" points="401.5,36.4 401.5,42 384,33.5 384,27.9 	"/>
	<g>
		<path fill="#CCD6DD" d="M400.3,16.4c0,4.2-3.4,7.5-7.5,7.5c-4.2,0-7.5-3.4-7.5-7.5s3.4-7.5,7.5-7.5
			C396.9,8.9,400.3,12.2,400.3,16.4"/>
		<path fill="#99AAB5" d="M404,22.7c0,1.4-1.1,2.5-2.5,2.5H384c-1.4,0-2.5-1.1-2.5-2.5c0-1.4,1.1-2.5,2.5-2.5h17.5
			C402.9,20.2,404,21.3,404,22.7"/>
		<path fill="#99AAB5" d="M404,51.5c0,1.4-1.1,2.5-2.5,2.5H384c-1.4,0-2.5-1.1-2.5-2.5c0-1.4,1.1-2.5,2.5-2.5h17.5
			C402.9,49,404,50.1,404,51.5"/>
	</g>
</g>
<g id="h_hidden" opacity="0">
	<path display="inline" fill="#005189" d="M41.4,12.4l-3.8,4.6c-2.7-2.2-5.7-3.3-9.2-3.3c-6.6,0-12.2,4.6-12.2,17.1
		c0,12.2,5.3,17,12.2,17c4.7,0,7.6-1.9,10-3.8l3.6,4.6c-3,2.9-7.4,5.3-13.9,5.3c-11.3,0-19.8-8-19.8-23C8.4,16,17.2,8,28,8
		C34,8,37.8,9.6,41.4,12.4z"/>
	<path display="inline" fill="#005189" d="M232.5,53.9c-11.1,0-16.8-9-16.8-22.9c0-13.7,5.7-23.1,16.8-23.1c11.1,0,16.8,9.1,16.8,23
		C249.3,44.6,243.6,53.9,232.5,53.9z M232.5,13.8c-6.5,0-9.2,5.8-9.2,17.3c0,11.4,2.8,17.1,9.2,17.1c6.5,0,9.2-5.8,9.2-17.2
		S239,13.8,232.5,13.8z"/>
	<path display="inline" fill="#005189" d="M315.1,53.9c-11.1,0-16.8-9-16.8-22.9C298.3,17.4,304,8,315.1,8c11.1,0,16.8,9.1,16.8,23
		C331.9,44.6,326.2,53.9,315.1,53.9z M315.1,13.8c-6.5,0-9.2,5.8-9.2,17.3c0,11.4,2.8,17.1,9.2,17.1c6.5,0,9.2-5.8,9.2-17.2
		S321.6,13.8,315.1,13.8z"/>
	<path display="inline" fill="#005189" d="M409,14.5h-9.6v32.9h9.6v5.7h-26.7v-5.7h9.6V14.5h-9.6V8.9H409V14.5z"/>
</g>
</svg>
