<?xml version="1.0" encoding="utf-8"?>
<!-- Generator: Adobe Illustrator 18.0.0, SVG Export Plug-In . SVG Version: 6.00 Build 0)  -->
<!DOCTYPE svg PUBLIC "-//W3C//DTD SVG 1.1//EN" "http://www.w3.org/Graphics/SVG/1.1/DTD/svg11.dtd">
<svg version="1.1" id="Layer_1" xmlns="http://www.w3.org/2000/svg" xmlns:xlink="http://www.w3.org/1999/xlink" x="0px" y="0px"
	 viewBox="0 0 882.3 99.8" enable-background="new 0 0 882.3 99.8" xml:space="preserve">
<g>
	<g>
		<path fill="#B3B3B3" d="M145.2,57.4L173,99.8h-19.1l-24.6-40.2h-10.6v40.2h-16.4V2.1h27.2c25.1,0,38.1,9.3,38.1,28.3
			C167.5,44.8,157.8,53.5,145.2,57.4 M130.4,14.3h-11.8v33.3h12.2c12.5,0,19.5-4.8,19.5-17.1C150.3,19,143.8,14.3,130.4,14.3"/>
		<path fill="#B3B3B3" d="M315.9,65H304v34.8h-16.3V2.1h27c24.6,0,39.2,9.9,39.2,30.7C353.9,55.7,338.2,65,315.9,65 M315.9,14.5H304
			v38.1h12c12.3,0,20.8-4.8,20.8-19.7C336.8,19.6,328.5,14.5,315.9,14.5"/>
		<polygon fill="#B3B3B3" points="416.9,99.8 400.5,99.8 400.5,15.4 371.1,15.4 371.1,2.1 446.8,2.1 445.1,15.4 416.9,15.4 		"/>
		<polygon fill="#B3B3B3" points="575.5,2.1 591.8,2.1 591.8,86.1 635.7,86.1 633.9,99.8 575.5,99.8 		"/>
		<path fill="#B3B3B3" d="M808.9,64.4c0,18.8-10.2,35.4-35.7,35.4c-10.6,0-19.8-3.2-27.8-9.1l6.7-10.3c7.8,5,14.2,6.5,20.5,6.5
			c12.2,0,19.8-8.2,19.8-22.8V12.9h-29.3V0.3h45.7V64.4z"/>
		<polygon fill="#B3B3B3" points="233.3,99.8 216.9,99.8 216.9,62.6 184.2,2.1 202.3,2.1 225.4,48.4 248.7,2.1 266,2.1 233.3,62.5 
					"/>
		<path fill="#5C913B" d="M77.4,78.2L49.7,50.1l28.2-27.8l3.4-3.4l3.9-3.8C83,13,80.8,11,78.2,9.2C55.7-6.5,24.6-0.9,8.9,21.6
			C-6.8,44.2-1.2,75.2,21.3,90.9c20,13.9,46.6,11.1,63.3-5.4l-3.8-3.9L77.4,78.2z"/>
		<path fill="#FFE8B6" d="M49.7,50.1l28.2-27.8l3.4-3.4c-1.9-1.9-3.9-3.7-6.2-5.2c-20.1-14-47.7-9.1-61.7,11
			c-14,20.1-9,47.7,11,61.7c17.8,12.4,41.5,9.9,56.4-4.8l-3.4-3.4L49.7,50.1z"/>
		<path fill="#DD2E44" d="M77.9,22.3c-1.7-1.7-3.5-3.3-5.5-4.7c-17.9-12.5-42.5-8.1-55,9.8C4.9,45.4,9.3,70,27.2,82.5
			c15.9,11,37,8.8,50.2-4.2L49.7,50.1L77.9,22.3z"/>
		<path d="M27.5,37.1c-1.4,0.6-2.8,0.4-3.1-0.3c-0.3-0.7,0.7-1.8,2.1-2.3c1.4-0.6,2.8-0.4,3.1,0.3C29.9,35.5,28.9,36.6,27.5,37.1"/>
		<path d="M39.7,49c-1.4,0.6-2.8,0.4-3.1-0.3c-0.3-0.7,0.7-1.8,2.1-2.3c1.4-0.6,2.8-0.4,3.1,0.3C42.1,47.4,41.1,48.5,39.7,49"/>
		<path d="M43.9,67.9c-0.8,1.3-1.9,2.1-2.6,1.7c-0.7-0.4-0.6-1.8,0.2-3.1c0.8-1.4,1.9-2.1,2.6-1.7C44.7,65.2,44.6,66.6,43.9,67.9"/>
		<path d="M26.4,48.9c-0.8,1.3-1.9,2.1-2.6,1.7c-0.7-0.4-0.6-1.8,0.2-3.1c0.8-1.3,1.9-2.1,2.6-1.7C27.2,46.2,27.2,47.6,26.4,48.9"/>
		<path d="M26.8,67.4c-1.5,0.5-2.9,0.3-3.1-0.5c-0.2-0.7,0.8-1.7,2.2-2.2c1.5-0.5,2.9-0.3,3.1,0.5C29.3,66,28.3,67,26.8,67.4"/>
		<path d="M44.6,81.4c-0.1,1.5-0.9,2.7-1.6,2.7c-0.8-0.1-1.3-1.4-1.1-2.9c0.1-1.5,0.9-2.7,1.6-2.7C44.2,78.5,44.7,79.8,44.6,81.4"/>
		<path d="M36.5,58.6c0,1.6-0.7,2.8-1.5,2.8c-0.8,0-1.4-1.3-1.3-2.8c0-1.5,0.7-2.8,1.5-2.8C35.9,55.7,36.5,57,36.5,58.6"/>
		<path d="M54.6,76.6c-1.5,0.5-2.9,0.3-3.1-0.5c-0.2-0.7,0.8-1.7,2.2-2.2c1.5-0.5,2.9-0.3,3.1,0.5C57.1,75.1,56.1,76.1,54.6,76.6"/>
		<path d="M54.5,34.8c0.8-1.3,1.9-2.1,2.6-1.7c0.7,0.4,0.6,1.8-0.2,3.1c-0.8,1.4-1.9,2.1-2.6,1.7C53.7,37.5,53.8,36.1,54.5,34.8"/>
		<path d="M53.9,21.4c0.1-1.5,0.9-2.7,1.6-2.7c0.8,0.1,1.3,1.4,1.1,2.9c-0.1,1.5-0.9,2.7-1.6,2.7C54.2,24.2,53.7,22.9,53.9,21.4"/>
		<path d="M43.8,26.2c1.5-0.5,2.9-0.3,3.1,0.5c0.2,0.7-0.8,1.7-2.2,2.2c-1.5,0.5-2.9,0.3-3.1-0.5C41.4,27.6,42.4,26.6,43.8,26.2"/>
		<path fill="#F4900C" d="M463.4,53.7c0-25.3,20.5-45.8,45.8-45.8c25.3,0,45.8,20.5,45.8,45.8c0,25.3-20.5,45.8-45.8,45.8
			C483.9,99.5,463.4,79,463.4,53.7"/>
		<path fill="#662113" d="M486.8,20.6c-0.7-0.7-2.2-0.5-3.8,0.3c-9.2-7.6-24-10.1-24.7-10.3c-1.5-0.2-2.9,0.8-3.2,2.3
			c-0.3,1.5,0.8,2.9,2.3,3.2c0.1,0,13.7,2.4,21.7,8.8c-0.8,1.5-0.9,2.8-0.2,3.5c1.1,1.1,3.7,0.2,5.9-2
			C487,24.3,487.9,21.7,486.8,20.6"/>
		<path fill="#5C913B" d="M513.4,2.3c0,0-8.6,12-19.5,14.6c-8.3,2-19.3,2.2-20.4-0.3c-1.1-2.6,4.4-10.9,13.8-15
			C496.8-2.4,513.4,2.3,513.4,2.3"/>
		<path fill="#F4900C" d="M646.3,53.7c0-25.3,20.5-45.8,45.8-45.8c25.3,0,45.8,20.5,45.8,45.8c0,25.3-20.5,45.8-45.8,45.8
			C666.8,99.5,646.3,79,646.3,53.7"/>
		<path fill="#662113" d="M669.7,20.6c-0.7-0.7-2.2-0.5-3.8,0.3c-9.2-7.6-24-10.1-24.7-10.3c-1.5-0.2-2.9,0.8-3.2,2.3
			c-0.3,1.5,0.8,2.9,2.3,3.2c0.1,0,13.7,2.4,21.7,8.8c-0.8,1.5-0.9,2.8-0.2,3.5c1.1,1.1,3.7,0.2,5.9-2
			C669.9,24.3,670.7,21.7,669.7,20.6"/>
		<path fill="#5C913B" d="M696.3,2.3c0,0-8.6,12-19.5,14.6c-8.3,2-19.3,2.2-20.4-0.3c-1.1-2.6,4.4-10.9,13.8-15
			C679.7-2.4,696.3,2.3,696.3,2.3"/>
		<path fill="#CCD6DD" d="M874,16.9c0,9.2-7.4,16.6-16.6,16.6c-9.2,0-16.6-7.4-16.6-16.6c0-9.2,7.4-16.6,16.6-16.6
			C866.6,0.3,874,7.7,874,16.9"/>
		<rect x="838.1" y="33.5" fill="#CCD6DD" width="38.7" height="58.1"/>
	</g>
	<g>
		<defs>
			<rect id="SVGID_1_" x="838.1" y="33.5" width="38.7" height="58.1"/>
		</defs>
		<clipPath id="SVGID_2_">
			<use xlink:href="#SVGID_1_"  overflow="visible"/>
		</clipPath>
		<polygon clip-path="url(#SVGID_2_)" fill="#DD2E44" points="899.4,59.8 834.8,28.2 839.7,18.3 904.3,49.8 		"/>
		<polygon clip-path="url(#SVGID_2_)" fill="#DD2E44" points="880,99.5 815.4,68 820.3,58.1 884.9,89.6 		"/>
		<polygon clip-path="url(#SVGID_2_)" fill="#FFFFFF" points="894.6,69.7 830,38.2 834.8,28.2 899.4,59.8 		"/>
		<polygon clip-path="url(#SVGID_2_)" fill="#FFFFFF" points="884.9,89.6 820.3,58.1 825.1,48.1 889.7,79.6 		"/>
		
			<rect x="809.4" y="83.2" transform="matrix(0.8988 0.4385 -0.4385 0.8988 124.4915 -361.6438)" clip-path="url(#SVGID_2_)" fill="#FFFFFF" width="71.9" height="11.1"/>
		
			<rect x="823.9" y="53.4" transform="matrix(0.8988 0.4385 -0.4385 0.8988 112.8907 -371.0411)" clip-path="url(#SVGID_2_)" fill="#55ACEE" width="71.9" height="11.1"/>
	</g>
	<g>
		<path fill="#99AAB5" d="M882.3,30.7c0,3.1-2.5,5.5-5.5,5.5h-38.7c-3.1,0-5.5-2.5-5.5-5.5c0-3.1,2.5-5.5,5.5-5.5h38.7
			C879.8,25.2,882.3,27.7,882.3,30.7"/>
		<path fill="#99AAB5" d="M882.3,94.3c0,3.1-2.5,5.5-5.5,5.5h-38.7c-3.1,0-5.5-2.5-5.5-5.5c0-3.1,2.5-5.5,5.5-5.5h38.7
			C879.8,88.8,882.3,91.2,882.3,94.3"/>
	</g>
</g>
</svg>
