<?xml version="1.0" encoding="utf-8"?>
<!-- Generator: Adobe Illustrator 18.0.0, SVG Export Plug-In . SVG Version: 6.00 Build 0)  -->
<!DOCTYPE svg PUBLIC "-//W3C//DTD SVG 1.1//EN" "http://www.w3.org/Graphics/SVG/1.1/DTD/svg11.dtd">
<svg version="1.1" id="Layer_1" xmlns="http://www.w3.org/2000/svg" xmlns:xlink="http://www.w3.org/1999/xlink" x="0px" y="0px"
	 viewBox="0 0 400 400" enable-background="new 0 0 400 400" xml:space="preserve">
<g>
	<path class="help_button_balon" fill="#2A6797" d="M192.8,6C128.1,6,75.7,46.7,75.7,97.1c0,28.4,16.8,53.8,43,70.5c-3.4,15-11.3,37.3-30,59.7
		c37.4-6.2,61.4-24.4,76.3-41.7c9,1.7,18.3,2.7,27.9,2.7c64.7,0,117.1-40.8,117.1-91.1S257.4,6,192.8,6"/>
	<path class="help_button_point" fill="#BDDDF4" d="M153.8,97c0,7.2-5.8,13-13,13c-7.2,0-13-5.8-13-13s5.8-13,13-13C147.9,84,153.8,89.9,153.8,97"/>
	<path class="help_button_point" fill="#BDDDF4" d="M205.8,97c0,7.2-5.8,13-13,13s-13-5.8-13-13s5.8-13,13-13C200,84,205.8,89.9,205.8,97"/>
	<path class="help_button_point" fill="#BDDDF4" d="M257.9,97c0,7.2-5.8,13-13,13c-7.2,0-13-5.8-13-13s5.8-13,13-13C252,84,257.9,89.9,257.9,97"/>
</g>
<g enable-background="new    ">
	<path fill="#005189" d="M74.7,311.3v-64.5h8.9v26.9h27.1v-26.9h8.9v64.5h-8.9v-30.2H83.6v30.2H74.7z"/>
	<path fill="#005189" d="M134.3,286.7c0-7.8,2-14,5.9-18.7c3.9-4.7,9.3-7.1,16.2-7.1c6.9,0,12.3,2.3,16.1,6.9s5.8,10.9,5.8,18.8
		c0,7.8-1.9,14-5.8,18.8c-3.9,4.7-9.3,7.1-16.1,7.1c-6.9,0-12.3-2.3-16.2-6.9C136.2,300.9,134.3,294.6,134.3,286.7z M143.5,286.7
		c0,12.6,4.2,18.9,12.7,18.9s12.7-6.3,12.7-19c0-12.6-4.2-18.9-12.7-18.9C147.8,267.8,143.5,274.1,143.5,286.7z"/>
	<path fill="#005189" d="M184.6,262h8.6l8.9,43.3l9.7-43.3h9.7l9.3,43.3l8.9-43.3h8.1l-11.2,49.3H225l-8.4-40.4l-8.6,40.4h-11.9
		L184.6,262z"/>
	<path fill="#005189" d="M281.6,244.3c0-1.7,0.6-3.1,1.7-4.2c1.1-1.1,2.6-1.7,4.3-1.7c1.8,0,3.3,0.6,4.4,1.7
		c1.1,1.1,1.7,2.5,1.7,4.2c0,1.7-0.6,3.1-1.7,4.2c-1.1,1.1-2.6,1.6-4.4,1.6c-1.8,0-3.2-0.5-4.3-1.6
		C282.2,247.3,281.6,246,281.6,244.3z M283.4,311.3V262h8.6v49.3H283.4z"/>
	<path fill="#005189" d="M301.7,268.7V262h8.6v-11.1l8.6-1.1V262h11.7l-0.9,6.6h-10.8V298c0,2.5,0.5,4.4,1.4,5.5
		c0.9,1.2,2.4,1.8,4.5,1.8s4.3-0.7,6.6-2.1l3.2,5.9c-3.3,2.3-7,3.4-11,3.4c-4.2,0-7.5-1.2-9.8-3.6c-2.3-2.4-3.5-5.9-3.5-10.4v-29.7
		H301.7z"/>
	<path fill="#005189" d="M77.6,343h8.6l8.9,43.3l9.7-43.3h9.7l9.3,43.3l8.9-43.3h8.1l-11.2,49.3h-11.6l-8.4-40.4l-8.6,40.4H89.2
		L77.6,343z"/>
	<path fill="#005189" d="M147.3,367.7c0-7.8,2-14,5.9-18.7c3.9-4.7,9.3-7.1,16.2-7.1c6.9,0,12.3,2.3,16.1,6.9s5.8,10.9,5.8,18.8
		c0,7.8-1.9,14-5.8,18.8c-3.9,4.7-9.3,7.1-16.1,7.1c-6.9,0-12.3-2.3-16.2-6.9C149.2,381.9,147.3,375.6,147.3,367.7z M156.5,367.7
		c0,12.6,4.2,18.9,12.7,18.9s12.7-6.3,12.7-19c0-12.6-4.2-18.9-12.7-18.9C160.8,348.7,156.5,355,156.5,367.7z"/>
	<path fill="#005189" d="M205.5,392.3V343h7.4l0.9,10c1.3-3.7,3-6.5,5.3-8.3c2.3-1.9,4.9-2.8,7.9-2.8c1.7,0,3.3,0.2,4.8,0.5
		l-1.6,8.5c-1.6-0.4-3.1-0.6-4.3-0.6c-3,0-5.5,1.1-7.4,3.4c-1.9,2.2-3.4,5.7-4.4,10.5v28.1H205.5z"/>
	<path fill="#005189" d="M241.6,392.3v-69.1l8.6-1.1v70.2H241.6z M250.7,365.3l18.2-22.3h9.6l-18.2,21.8l20.2,27.5h-10.3
		L250.7,365.3z"/>
	<path fill="#005189" d="M282.9,387l4.6-5.2c4.1,3.2,8.8,4.8,13.9,4.8c3.2,0,5.8-0.7,7.7-2c1.9-1.3,2.8-3.2,2.8-5.5
		c0-2.4-0.8-4.3-2.4-5.5c-1.6-1.3-4.8-2.5-9.5-3.8c-5.2-1.4-9-3.2-11.4-5.5s-3.5-5.3-3.5-8.8c0-3.9,1.7-7.2,5.1-9.7
		c3.4-2.6,7.6-3.8,12.7-3.8c6.2,0,11.8,1.9,16.7,5.6l-3.6,5.4c-4.4-2.8-8.7-4.2-12.8-4.2c-2.8,0-5,0.6-6.6,1.7
		c-1.6,1.2-2.4,2.7-2.4,4.7c0,2,0.8,3.6,2.3,4.7c1.5,1.1,4.3,2.2,8.2,3.3c5.5,1.4,9.6,3.3,12.3,5.6c2.7,2.4,4.1,5.6,4.1,9.8
		c0,3.3-0.9,6.1-2.8,8.4s-4.2,4-7.1,5c-2.9,1-6,1.5-9.5,1.5C294.1,393.4,287.8,391.3,282.9,387z"/>
</g>
</svg>
