<?xml version="1.0" encoding="utf-8"?>
<!-- Generator: Adobe Illustrator 18.0.0, SVG Export Plug-In . SVG Version: 6.00 Build 0)  -->
<!DOCTYPE svg PUBLIC "-//W3C//DTD SVG 1.1//EN" "http://www.w3.org/Graphics/SVG/1.1/DTD/svg11.dtd" [
	<!ENTITY ns_extend "http://ns.adobe.com/Extensibility/1.0/">
	<!ENTITY ns_ai "http://ns.adobe.com/AdobeIllustrator/10.0/">
	<!ENTITY ns_graphs "http://ns.adobe.com/Graphs/1.0/">
	<!ENTITY ns_vars "http://ns.adobe.com/Variables/1.0/">
	<!ENTITY ns_imrep "http://ns.adobe.com/ImageReplacement/1.0/">
	<!ENTITY ns_sfw "http://ns.adobe.com/SaveForWeb/1.0/">
	<!ENTITY ns_custom "http://ns.adobe.com/GenericCustomNamespace/1.0/">
	<!ENTITY ns_adobe_xpath "http://ns.adobe.com/XPath/1.0/">
]>
<svg version="1.1" id="Layer_1" xmlns:x="&ns_extend;" xmlns:i="&ns_ai;" xmlns:graph="&ns_graphs;"
	 xmlns="http://www.w3.org/2000/svg" xmlns:xlink="http://www.w3.org/1999/xlink" x="0px" y="0px" viewBox="0 0 1917.3 595.9"
	 enable-background="new 0 0 1917.3 595.9" xml:space="preserve">
<metadata>
	<sfw  xmlns="&ns_sfw;">
		<slices></slices>
		<sliceSourceBounds  width="1917.3" height="595.9" y="-719.1" x="-363.3" bottomLeftOrigin="true"></sliceSourceBounds>
	</sfw>
</metadata>
<g>
	<g>
		<path fill="#FFCD34" d="M255.1,295.1c-1.9,1.9-4.9,3-9,3h-36.7c-7.1,0-12.3-2.6-15.3-9.4c-9.7-22.4-29.6-41.1-59.9-41.1
			c-46.4,0-74.1,38.2-74.1,80.1c0,41.9,32.2,79.3,74.1,79.3c28.8,0,48.3-14.2,58-29.9c4.9-7.9,9.7-9.7,16.8-9.7h37.8
			c10.1,0,13.8,6,10.5,15.3c-16.1,46.8-68.1,80.1-122.7,80.1C60.2,462.6,0,401.3,0,326.9s60.2-134.7,134.7-134.7
			c61.7,0,107.7,38.2,121.6,91.3C257.7,288.7,257.7,292.4,255.1,295.1z"/>
		<path fill="#FFCD34" d="M804.7,326.9c0,71.8-58.7,131.3-138,131.3h-85.3c-8.2,0-13.1-4.9-13.1-13.1l0.4-235.7
			c0-8.2,4.9-13.1,13.1-13.1h84.9C745.9,196.3,804.7,255,804.7,326.9z M628.5,251.3l-0.4,152.6h38.5c47.1,0,77.8-34.8,77.8-76.7
			s-30.7-75.9-77.8-75.9H628.5z"/>
		<path fill="#FFCD34" d="M1011.9,209.4v29.6c0,8.2-5.2,12.7-13.5,12.7H890v45.6h90.2c8.2,0,13.1,4.5,13.1,12.7v29.6
			c0,8.2-4.9,12.7-13.1,12.7H890v50.5h108.5c8.2,0,13.5,4.9,13.5,13.1v29.9c0,7.5-5.2,12.3-13.5,12.3H839.1
			c-8.2,0-12.7-4.9-12.7-12.3V209.4c0-8.2,4.5-12.7,12.7-12.7h159.4C1006.7,196.7,1011.9,201.2,1011.9,209.4z"/>
		<path fill="#FFCD34" d="M1324.3,209.4v236.4c0,7.5-4.5,12.3-12.3,12.3h-38.5c-8.2,0-12.7-4.9-12.7-12.3v-87.9l1.9-50.5
			l-42.6,139.5c-2.2,7.5-6.4,11.2-14.6,11.2h-49.4c-7.5,0-12-3.7-14.2-11.2l-42.3-139.5l1.5,50.5v87.9c0,7.5-4.5,12.3-12.7,12.3
			h-38.5c-7.9,0-12.3-4.9-12.3-12.3V209.4c0-8.2,4.5-12.7,12.3-12.7h74.8c7.1,0,12.3,3.7,14.2,10.8l42.6,155.6l41.9-155.6
			c1.9-7.1,6.7-10.8,14.2-10.8h74.4C1319.8,196.7,1324.3,201.2,1324.3,209.4z"/>
		<path fill="#FFCD34" d="M1821.1,209.4v155.2c0,67.3-31.8,98.4-93.5,98.4c-62.5,0-95.4-29.9-98.4-88.7c-0.4-8.2,4.1-12.7,12.7-12.7
			h38.5c7.9,0,12,4.1,12.7,12.7c1.5,17.6,5.6,33.3,32.2,33.3c28.1,0,31.4-20.2,31.4-43V209.4c0-8.2,5.2-12.7,13.1-12.7h38.2
			C1815.8,196.7,1821.1,201.2,1821.1,209.4z"/>
		<path fill="#FFCD34" d="M1900.8,458.2H1863c-8.2,0-12.7-4.9-12.7-12.3V209.4c0-8.2,4.5-12.7,12.7-12.7h37.8
			c8.2,0,12.7,4.5,12.7,12.7v236.4C1913.5,453.3,1909,458.2,1900.8,458.2z"/>
	</g>
	<g id="final_emoji_2" display="none">
		<g display="inline">
			<circle fill="#FFCD34" cx="410.8" cy="327.9" r="135.3"/>
		</g>
		<path display="inline" fill="#66481C" d="M410.8,356.1c-28.8,0-48-3.4-71.6-8c-5.4-1-15.9,0-15.9,15.9c0,31.8,36.6,71.6,87.5,71.6
			c51,0,87.5-39.8,87.5-71.6c0-15.9-10.5-17-15.9-15.9C458.7,352.8,439.6,356.1,410.8,356.1z"/>
		<path display="inline" fill="#66481C" d="M344.3,288.1c0,0,2.6-15.9,18.5-15.9c15.9,0,18.5,15.9,18.5,15.9V304
			c0,0-2.6,15.9-18.5,15.9c-15.9,0-18.5-15.9-18.5-15.9V288.1z"/>
		<path display="inline" fill="#66481C" d="M432.3,288.1c0,0,2.6-15.9,18.5-15.9c15.9,0,18.5,15.9,18.5,15.9V304
			c0,0-2.6,15.9-18.5,15.9c-15.9,0-18.5-15.9-18.5-15.9V288.1z"/>
		<path display="inline" fill="#FFFFFF" d="M339.1,364.1c0,0,23.9,8,71.6,8s71.6-8,71.6-8s-15.9,31.8-71.6,31.8
			S339.1,364.1,339.1,364.1z"/>
	</g>
	<g id="final_emoji_1" display="none">
		<g display="inline">
			<circle fill="#FFCD34" cx="1481.6" cy="327.9" r="135.3"/>
		</g>
		<path display="inline" fill="#66481C" d="M1481.6,356.1c-28.8,0-48-3.4-71.6-8c-5.4-1-15.9,0-15.9,15.9
			c0,31.8,36.6,71.6,87.5,71.6c51,0,87.5-39.8,87.5-71.6c0-15.9-10.5-17-15.9-15.9C1529.6,352.8,1510.5,356.1,1481.6,356.1z"/>
		<path display="inline" fill="#66481C" d="M1415.3,288.1c0,0,2.6-15.9,18.5-15.9c15.9,0,18.5,15.9,18.5,15.9V304
			c0,0-2.6,15.9-18.5,15.9c-15.9,0-18.5-15.9-18.5-15.9V288.1z"/>
		<path display="inline" fill="#66481C" d="M1503.3,288.1c0,0,2.6-15.9,18.5-15.9c15.9,0,18.5,15.9,18.5,15.9V304
			c0,0-2.6,15.9-18.5,15.9c-15.9,0-18.5-15.9-18.5-15.9V288.1z"/>
		<path display="inline" fill="#FFFFFF" d="M1410,364.1c0,0,23.9,8,71.6,8c47.7,0,71.6-8,71.6-8s-15.9,31.8-71.6,31.8
			C1425.9,395.9,1410,364.1,1410,364.1z"/>
	</g>
	<g>
		<g>
			<path fill="#2C6898" d="M25.8,37.8c1.5,2.4,2.2,4.5,3.1,9c6-5.9,13.4-9,21.5-9c7.3,0,13.3,2.4,18,7.2c1.3,1.2,2.5,2.8,3.5,4.3
				c8.1-8.3,15.3-11.5,25-11.5c6.9,0,13.4,2.1,17.4,5.5c5,4.3,6.6,9.5,6.6,21.6v62.8H98.4V69.4c0-10.6-1.3-12.6-7.3-12.6
				c-4.3,0-10.4,2.9-15.3,7.4v63.5H53.9V70.2c0-11-1.6-13.6-8-13.6c-4.3,0-10.2,2.2-15.1,6.7v64.3H8.1V66.1
				c0-12.8-0.9-18.3-3.3-22.6L25.8,37.8L25.8,37.8z"/>
			<path fill="#2C6898" d="M161.8,63.6c-1.6,4.7-2.4,10.9-2.4,19.7c0,10.2,1,17.8,2.9,22.2c2.1,4.8,7.3,7.2,11.7,7.2
				c10,0,14.3-9,14.3-29.8c0-11.9-1.6-19.7-4.6-23.7c-2.2-2.9-5.8-4.6-10-4.6C168.2,54.7,163.7,58.1,161.8,63.6L161.8,63.6z
				 M203.4,50.9c7.1,8.3,10.2,17.9,10.2,32.2c0,15.2-3.5,25.5-11.1,34.2c-6.7,7.6-15.5,12.3-29.1,12.3c-24,0-39.7-17.9-39.7-45.7
				c0-27.8,15.8-46.2,39.7-46.2C186,37.6,195.8,41.9,203.4,50.9L203.4,50.9z"/>
			<polygon fill="#2C6898" points="287.9,39.3 287.9,55.2 248.9,111.6 289.4,111.6 283.9,127.6 218.9,127.6 218.9,113.3 260.4,55.6 
				222.4,55.6 222.4,39.3 287.9,39.3 			"/>
			<path fill="#2C6898" d="M324.3,37.3v90.4h-23.1V40.9L324.3,37.3L324.3,37.3z M327,15c0,7.9-6.3,14.3-14.3,14.3
				c-7.7,0-14.1-6.3-14.1-14.3c0-7.9,6.6-14.3,14.5-14.3C320.8,0.7,327,7.1,327,15L327,15z"/>
			<path fill="#2C6898" d="M366.4,23v68.8c0,15.2,0.2,17.2,1.6,19.7c0.9,1.6,2.7,2.4,4.7,2.4c0.8,0,1.3,0,2.6-0.3l3.9,13.8
				c-3.9,1.5-8.8,2.4-13.8,2.4c-9.9,0-17.8-4.6-20.5-12c-1.7-4.5-2.1-7.3-2.1-19.8V31.9c0-11.5-0.3-18.6-1.2-26.6L365.2,0
				C366,4.8,366.4,10.5,366.4,23L366.4,23z"/>
			<path fill="#2C6898" d="M414.3,23v68.8c0,15.2,0.2,17.2,1.6,19.7c0.8,1.6,2.7,2.4,4.6,2.4c0.9,0,1.4,0,2.6-0.3l3.9,13.8
				c-3.9,1.5-8.8,2.4-13.8,2.4c-9.8,0-17.8-4.6-20.5-12c-1.8-4.5-2.1-7.3-2.1-19.8V31.9c0-11.5-0.3-18.6-1.2-26.6L413.1,0
				C414,4.8,414.3,10.5,414.3,23L414.3,23z"/>
			<path fill="#2C6898" d="M480.5,89c-16,0-21.6,2.9-21.6,13.5c0,6.9,4.4,11.5,10.2,11.5c4.3,0,8.6-2.2,12.1-6l0.4-19H480.5
				L480.5,89z M450.6,42.6c8.6-3.6,16-5.2,24.1-5.2c14.9,0,25,5.5,28.5,15.3c1.1,3.6,1.7,6.4,1.6,15.9l-0.6,29.6c0,0.5,0,1.1,0,1.6
				c0,9.5,1.6,13.1,8.3,18.1l-12.3,14.2c-5.4-2.3-10.2-6.2-12.5-10.7c-1.7,1.7-3.6,3.4-5.4,4.7c-4.3,3.1-10.5,4.8-17.8,4.8
				c-19.7,0-30.4-10-30.4-27.6c0-20.7,14.3-30.4,42.4-30.4c1.7,0,3.3,0,5.2,0.2v-3.6c0-9.8-1.9-13.1-10.4-13.1
				c-7.3,0-16,3.6-25.5,10l-9.8-16.6C440.9,46.9,444.3,45.2,450.6,42.6L450.6,42.6z"/>
		</g>
	</g>
	<g>
		<path fill="#2C6898" d="M54.9,524.1l15.9,66.5c0.6,2.5-0.6,4-3.1,4H55.9c-2.2,0-3.5-1.1-4-3.2l-2.4-11.7H34.3L32,591.4
			c-0.4,2.2-1.8,3.2-4,3.2H16.1c-2.5,0-3.7-1.4-3.1-4l15.9-66.5c0.5-2.2,1.9-3.1,4-3.1H51C53,521,54.5,521.9,54.9,524.1z
			 M46.4,564.2l-4.5-22.5l-4.5,22.5H46.4z"/>
		<path fill="#2C6898" d="M159.4,524.5v8.3c0,2.3-1.3,3.6-3.6,3.6h-24.7v12.8h20c2.3,0,3.6,1.3,3.6,3.6v8.3c0,2.3-1.3,3.6-3.6,3.6
			h-20V591c0,2.3-1.3,3.6-3.6,3.6h-10.8c-2.3,0-3.6-1.3-3.6-3.6v-66.4c0-2.3,1.3-3.6,3.6-3.6h39.1
			C158.1,521,159.4,522.3,159.4,524.5z"/>
		<path fill="#2C6898" d="M174,571.2v-46.6c0-2.3,1.3-3.6,3.6-3.6h10.8c2.3,0,3.6,1.3,3.6,3.6v46.2c0,5.9,1.6,9.7,9.4,9.7
			c7.8,0,9.4-3.9,9.4-9.7v-46.2c0-2.3,1.3-3.6,3.6-3.6h10.8c2.3,0,3.6,1.3,3.6,3.6v46.6c0,15.5-6,24.7-27.4,24.7
			C180.1,595.9,174,586.6,174,571.2z"/>
		<path fill="#2C6898" d="M298.3,594.6H286c-2,0-3.4-0.9-4.2-2.6l-19-37.9l0.5,14.2V591c0,2.3-1.3,3.6-3.6,3.6h-9.8
			c-2.3,0-3.6-1.3-3.6-3.6v-66.4c0-2.3,1.3-3.6,3.6-3.6h12.4c2,0,3.4,0.8,4.2,2.6l19,37.9l-0.5-14.2v-22.8c0-2.3,1.3-3.6,3.6-3.6
			h9.8c2.3,0,3.6,1.3,3.6,3.6V591C301.9,593.3,300.6,594.6,298.3,594.6z"/>
		<path fill="#2C6898" d="M377.5,591.4c-0.4,2.2-1.7,3.2-3.9,3.2h-16.1c-2.2,0-3.5-1-3.9-3.3l-10.6-66.4c-0.4-2.4,0.8-3.9,3.3-3.9
			h11.4c2.2,0,3.5,1.2,3.8,3.4l5.3,45.5l7.7-45.6c0.4-2.2,1.7-3.3,3.9-3.3H394c2.2,0,3.5,1.1,3.9,3.3l7.7,45.6l5.3-45.5
			c0.3-2.2,1.6-3.4,3.8-3.4H426c2.5,0,3.7,1.5,3.3,3.9l-10.6,66.4c-0.4,2.3-1.7,3.3-3.9,3.3h-16.2c-2.2,0-3.5-1-3.9-3.2l-8.6-49.8
			L377.5,591.4z"/>
		<path fill="#2C6898" d="M479.4,524.1l15.9,66.5c0.6,2.5-0.6,4-3.1,4h-11.8c-2.2,0-3.5-1.1-4-3.2l-2.4-11.7h-15.3l-2.3,11.7
			c-0.4,2.2-1.8,3.2-4,3.2h-11.9c-2.5,0-3.7-1.4-3.1-4l15.9-66.5c0.5-2.2,1.9-3.1,4-3.1h18.1C477.5,521,478.9,521.9,479.4,524.1z
			 M470.9,564.2l-4.5-22.5l-4.5,22.5H470.9z"/>
		<path fill="#2C6898" d="M533.5,594.6h-10.8c-2.3,0-3.6-1.3-3.6-3.6v-19.1l-19.2-46.8c-1-2.5,0.2-4.2,2.8-4.2h12.1
			c2.1,0,3.4,1,4.1,2.9l9.2,26l9.2-26c0.7-1.9,2-2.9,4.1-2.9h12.1c2.6,0,3.9,1.6,2.8,4.2L537,571.9V591
			C537,593.3,535.7,594.6,533.5,594.6z"/>
		<path fill="#2C6898" d="M624.8,594.6h-10.8c-2.3,0-3.6-1.3-3.6-3.6v-54.6h-12.9c-2.3,0-3.6-1.3-3.6-3.6v-8.3
			c0-2.3,1.3-3.6,3.6-3.6h43.8c2.3,0,3.6,1.3,3.6,3.6v8.3c0,2.3-1.3,3.6-3.6,3.6h-12.9V591C628.4,593.3,627.1,594.6,624.8,594.6z"/>
		<path fill="#2C6898" d="M656.3,559.7v-3.8c0-25.5,9.2-36.2,29-36.2s29,10.8,29,36.2v3.8c0,25.5-9.2,36.2-29,36.2
			S656.3,585.1,656.3,559.7z M696.1,559.7v-3.8c0-12.7-1.8-20.8-10.3-20.8h-0.9c-8.5,0-10.3,8-10.3,20.8v3.8
			c0,12.7,1.8,20.8,10.3,20.8h0.9C694.3,580.4,696.1,572.4,696.1,559.7z"/>
		<path fill="#2C6898" d="M758,591v-66.4c0-2.3,1.3-3.6,3.6-3.6h10.8c2.3,0,3.6,1.3,3.6,3.6v54.6h22.4c2.3,0,3.6,1.3,3.6,3.6v8.3
			c0,2.3-1.3,3.6-3.6,3.6h-36.7C759.3,594.6,758,593.3,758,591z"/>
		<path fill="#2C6898" d="M862.8,524.5v8.3c0,2.3-1.3,3.6-3.6,3.6h-24.7v12.8h20c2.3,0,3.6,1.3,3.6,3.6v8.3c0,2.3-1.3,3.6-3.6,3.6
			h-20v14.3h24.7c2.3,0,3.6,1.3,3.6,3.6v8.3c0,2.3-1.3,3.6-3.6,3.6h-39.1c-2.3,0-3.6-1.3-3.6-3.6v-66.4c0-2.3,1.3-3.6,3.6-3.6h39.1
			C861.4,521,862.8,522.3,862.8,524.5z"/>
		<path fill="#2C6898" d="M918.7,524.1l15.9,66.5c0.6,2.5-0.6,4-3.1,4h-11.8c-2.2,0-3.5-1.1-4-3.2l-2.4-11.7h-15.3l-2.3,11.7
			c-0.4,2.2-1.8,3.2-4,3.2h-11.9c-2.5,0-3.7-1.4-3.1-4l15.9-66.5c0.5-2.2,1.9-3.1,4-3.1h18.1C916.8,521,918.3,521.9,918.7,524.1z
			 M910.2,564.2l-4.5-22.5l-4.5,22.5H910.2z"/>
		<path fill="#2C6898" d="M963.9,594.6h-10.8c-2.3,0-3.6-1.3-3.6-3.6v-66.4c0-2.3,1.3-3.6,3.6-3.6H975c12.5,0,26.5,2.8,26.5,23.2
			v1.9c0,12-4.8,17.8-11.3,20.8l9.6,23.6c1,2.5-0.2,4.2-2.8,4.2h-11.8c-2.1,0-3.3-0.9-4.1-2.8l-8.6-22.5h-5V591
			C967.5,593.3,966.2,594.6,963.9,594.6z M983.4,545.5v-0.8c0-7-4.2-8.3-7.6-8.3h-8.2v17.4h8.2C979.2,553.8,983.4,552.5,983.4,545.5
			z"/>
		<path fill="#2C6898" d="M1070.1,594.6h-12.4c-2,0-3.4-0.9-4.2-2.6l-19-37.9l0.5,14.2V591c0,2.3-1.3,3.6-3.6,3.6h-9.8
			c-2.3,0-3.6-1.3-3.6-3.6v-66.4c0-2.3,1.3-3.6,3.6-3.6h12.4c2,0,3.4,0.8,4.2,2.6l19,37.9l-0.5-14.2v-22.8c0-2.3,1.3-3.6,3.6-3.6
			h9.8c2.3,0,3.6,1.3,3.6,3.6V591C1073.7,593.3,1072.4,594.6,1070.1,594.6z"/>
		<path fill="#2C6898" d="M1156.9,524.1l15.9,66.5c0.6,2.5-0.6,4-3.1,4h-11.8c-2.2,0-3.5-1.1-4-3.2l-2.4-11.7h-15.3l-2.3,11.7
			c-0.4,2.2-1.8,3.2-4,3.2h-11.9c-2.5,0-3.7-1.4-3.1-4l15.9-66.5c0.5-2.2,1.9-3.1,4-3.1h18.1C1155,521,1156.4,521.9,1156.9,524.1z
			 M1148.4,564.2l-4.5-22.5l-4.5,22.5H1148.4z"/>
		<path fill="#2C6898" d="M1236.8,541.9v1.9c0,6.2-2.5,10.2-6.1,12.7c4.7,2.5,8,7,8,14.4v1.9c0,19.2-13.8,21.7-25.5,21.7h-22.8
			c-2.3,0-3.6-1.3-3.6-3.6v-66.4c0-2.3,1.3-3.6,3.6-3.6h22.4C1224,521,1236.8,523.4,1236.8,541.9z M1204.7,549.3h7.7
			c2.6,0,6.2-0.8,6.2-5.9v-1.1c0-5.1-3.6-5.9-6.2-5.9h-7.7V549.3z M1204.7,579.1h9c2.9,0,6.9-1,6.9-6.8v-0.8c0-5.8-4-6.8-6.9-6.8h-9
			V579.1z"/>
		<path fill="#2C6898" d="M1252.7,559.7v-3.8c0-25.5,9.2-36.2,29-36.2s29,10.8,29,36.2v3.8c0,25.5-9.2,36.2-29,36.2
			S1252.7,585.1,1252.7,559.7z M1292.4,559.7v-3.8c0-12.7-1.8-20.8-10.3-20.8h-0.9c-8.5,0-10.3,8-10.3,20.8v3.8
			c0,12.7,1.8,20.8,10.3,20.8h0.9C1290.6,580.4,1292.4,572.4,1292.4,559.7z"/>
		<path fill="#2C6898" d="M1326.5,571.2v-46.6c0-2.3,1.3-3.6,3.6-3.6h10.8c2.3,0,3.6,1.3,3.6,3.6v46.2c0,5.9,1.6,9.7,9.4,9.7
			c7.8,0,9.4-3.9,9.4-9.7v-46.2c0-2.3,1.3-3.6,3.6-3.6h10.8c2.3,0,3.6,1.3,3.6,3.6v46.6c0,15.5-6,24.7-27.4,24.7
			C1332.5,595.9,1326.5,586.6,1326.5,571.2z"/>
		<path fill="#2C6898" d="M1426.2,594.6h-10.8c-2.3,0-3.6-1.3-3.6-3.6v-54.6H1399c-2.3,0-3.6-1.3-3.6-3.6v-8.3
			c0-2.3,1.3-3.6,3.6-3.6h43.8c2.3,0,3.6,1.3,3.6,3.6v8.3c0,2.3-1.3,3.6-3.6,3.6h-12.9V591C1429.8,593.3,1428.5,594.6,1426.2,594.6z
			"/>
		<path fill="#2C6898" d="M1515.2,580.4h0.9c5.1,0,7.6-3.1,8.2-7.8c0.4-2.3,1.5-3.5,3.8-3.5h10.8c2.4,0,3.7,1.3,3.6,3.7
			c-1,16.2-9.3,23.1-27.3,23.1c-19.8,0-28.5-10.8-28.5-36.2v-3.8c0-25.5,8.7-36.2,28.5-36.2c19.4,0,26.5,7.2,27.3,26
			c0.1,2.4-1.2,3.7-3.5,3.7h-10.9c-2.3,0-3.4-1.2-3.6-3.6c-0.5-6.5-2.4-10.6-8.4-10.6h-0.9c-9,0-10.3,8-10.3,20.8v3.8
			C1505,572.4,1506.3,580.4,1515.2,580.4z"/>
		<path fill="#2C6898" d="M1573.9,594.6h-10.8c-2.3,0-3.6-1.3-3.6-3.6v-66.4c0-2.3,1.3-3.6,3.6-3.6h10.8c2.3,0,3.6,1.3,3.6,3.6V591
			C1577.5,593.3,1576.2,594.6,1573.9,594.6z"/>
		<path fill="#2C6898" d="M1610.3,594.6h-10.8c-2.3,0-3.6-1.3-3.6-3.6v-66.4c0-2.3,1.3-3.6,3.6-3.6h21.8c12.5,0,26.5,2.8,26.5,23.2
			v1.9c0,20.4-14.1,23.2-26.5,23.2h-7.5V591C1613.9,593.3,1612.6,594.6,1610.3,594.6z M1629.7,545.5v-0.8c0-7-4.2-8.3-7.6-8.3h-8.2
			v17.4h8.2C1625.6,553.8,1629.7,552.5,1629.7,545.5z"/>
		<path fill="#2C6898" d="M1716.8,524.5V591c0,2.3-1.3,3.6-3.6,3.6h-10.8c-2.3,0-3.6-1.3-3.6-3.6v-26.2h-17.9V591
			c0,2.3-1.3,3.6-3.6,3.6h-10.8c-2.3,0-3.6-1.3-3.6-3.6v-66.4c0-2.3,1.3-3.6,3.6-3.6h10.8c2.3,0,3.6,1.3,3.6,3.6v24.7h17.9v-24.7
			c0-2.3,1.3-3.6,3.6-3.6h10.8C1715.4,521,1716.8,522.3,1716.8,524.5z"/>
		<path fill="#2C6898" d="M1780.9,524.5v8.3c0,2.3-1.3,3.6-3.6,3.6h-24.7v12.8h20c2.3,0,3.6,1.3,3.6,3.6v8.3c0,2.3-1.3,3.6-3.6,3.6
			h-20v14.3h24.7c2.3,0,3.6,1.3,3.6,3.6v8.3c0,2.3-1.3,3.6-3.6,3.6h-39.1c-2.3,0-3.6-1.3-3.6-3.6v-66.4c0-2.3,1.3-3.6,3.6-3.6h39.1
			C1779.6,521,1780.9,522.3,1780.9,524.5z"/>
		<path fill="#2C6898" d="M1812.3,594.6h-10.8c-2.3,0-3.6-1.3-3.6-3.6v-66.4c0-2.3,1.3-3.6,3.6-3.6h21.8c12.5,0,26.5,2.8,26.5,23.2
			v1.9c0,12-4.8,17.8-11.3,20.8l9.6,23.6c1,2.5-0.2,4.2-2.8,4.2h-11.8c-2.1,0-3.3-0.9-4.1-2.8l-8.6-22.5h-5V591
			C1815.9,593.3,1814.5,594.6,1812.3,594.6z M1831.7,545.5v-0.8c0-7-4.2-8.3-7.6-8.3h-8.2v17.4h8.2
			C1827.6,553.8,1831.7,552.5,1831.7,545.5z"/>
		<path fill="#2C6898" d="M1863.1,543.3v-1c0-13.7,9.2-22.7,26.9-22.7c18.4,0,25.9,7.2,26.8,24.1c0.1,2.4-1.1,3.7-3.5,3.7h-10.9
			c-2.3,0-3.4-1.2-3.7-3.6c-0.7-5.9-3.2-8.7-8.8-8.7h-0.9c-5.2,0-7.7,2.9-7.7,6.7v0.4c0,4.5,1.5,6.8,11.4,8.1
			c16,2.2,24.6,7.3,24.6,21.7v1c0,14.4-9.3,22.8-27.4,22.8c-18,0-26.2-7.3-27.3-23.1c-0.1-2.4,1.2-3.7,3.6-3.7h10.8
			c2.3,0,3.4,1.2,3.7,3.6c0.9,5.5,3.6,7.7,8.8,7.7h0.9c6.1,0,8.7-3.3,8.7-6.9v-0.4c0-4.2-2-6.8-11.9-8.1
			C1871.2,562.9,1863.1,557.8,1863.1,543.3z"/>
	</g>
</g>
<g id="animation1">
  <g id="start_o">
    <path id="final_O_2" fill="#FFCD34" d="M545.4,326.9c0,74.4-60.6,135.8-134.7,135.8c-74.4,0-134.7-61.3-134.7-135.8
      s60.2-134.7,134.7-134.7C484.8,192.2,545.4,252.4,545.4,326.9z M487.1,327.6c0-41.9-34.8-76.3-76.7-76.3s-76.3,34.4-76.3,76.3
      c0,41.9,34.4,75.9,76.3,75.9S487.1,369.5,487.1,327.6z"/>
  </g>
	
	<g>
		<path fill="#FFCD34" d="M548.6,326.7c0,74.9-60.7,135.5-135.5,135.5c-74.9,0-135.5-60.7-135.5-135.5
			c0-74.9,60.7-135.5,135.5-135.5C487.9,191.1,548.6,251.8,548.6,326.7"/>
		<path fill="#66471B" d="M490.7,308.7c-1.3-1.1-3.2-1.1-4.6-0.1c-0.1,0.1-9.5,6.8-27.9,6.8c-18.4,0-27.8-6.7-27.9-6.8
			c-1.4-1-3.3-1-4.6,0.1c-1.3,1.1-1.8,2.9-1.1,4.5c0.4,1,11.3,24.8,33.6,24.8c22.3,0,33.1-23.8,33.6-24.8
			C492.5,311.6,492.1,309.8,490.7,308.7z"/>
		<path fill="#66471B" d="M395.8,308.6c-0.1,0.1-9.5,6.8-27.9,6.8c-18.4,0-27.8-6.7-27.9-6.8c-1.4-1-3.3-1-4.6,0.1
			c-1.3,1.1-1.8,2.9-1.1,4.5c0.5,1,11.3,24.8,33.6,24.8c22.3,0,33.1-23.8,33.6-24.8c0.7-1.6,0.2-3.4-1.1-4.5
			C399,307.6,397.1,307.6,395.8,308.6z"/>
		<path fill="#66471B" d="M495.9,289c-2.3,0-4.6-1-6-3c-19.5-26-52.4-19.8-52.7-19.7c-4.1,0.8-8-1.8-8.9-5.9c-0.8-4.1,1.8-8,5.9-8.9
			c1.7-0.4,42.6-8.1,67.7,25.5c2.5,3.3,1.8,8-1.5,10.5C499.1,288.5,497.5,289,495.9,289z"/>
		<path fill="#66471B" d="M330.2,289c-1.6,0-3.2-0.5-4.5-1.5c-3.3-2.5-4-7.2-1.5-10.5c25.1-33.5,66-25.8,67.7-25.5
			c4.1,0.8,6.7,4.8,5.9,8.9c-0.8,4.1-4.8,6.7-8.8,5.9c-1.4-0.3-33.4-6.1-52.8,19.7C334.8,288,332.5,289,330.2,289z"/>
		<path fill="#66471B" d="M452.6,368.7c-1.4-0.8-3.3-0.6-4.5,0.4c-0.1,0.1-7.6,6.5-35.1,6.5c-27.4,0-35-6.4-35-6.4
			c-1.2-1.2-3-1.4-4.5-0.6c-1.5,0.8-2.2,2.6-1.8,4.2c0.1,0.3,8.6,33,41.3,33c32.7,0,41.2-32.6,41.3-33
			C454.8,371.2,454.1,369.5,452.6,368.7z"/>
	</g>
	<g>
		<path fill="#FFCD34" d="M548.6,326.7c0,74.9-60.7,135.5-135.5,135.5c-74.9,0-135.5-60.7-135.5-135.5
			c0-74.9,60.7-135.5,135.5-135.5C487.9,191.1,548.6,251.8,548.6,326.7"/>
		<path fill="#66471B" d="M413.1,355.7c-22.3,0-37.2-2.6-55.5-6.2c-4.2-0.8-12.3,0-12.3,12.3c0,24.7,28.3,55.5,67.8,55.5
			c39.5,0,67.8-30.8,67.8-55.5c0-12.3-8.1-13.1-12.3-12.3C450.2,353.1,435.4,355.7,413.1,355.7"/>
		<path fill="#E75B70" d="M402.9,215.8c-6.5-18.3-26.5-27.9-44.8-21.5c-11.1,3.9-19,12.9-22.1,23.4c-9-6.2-20.7-8.3-31.8-4.4
			c-18.3,6.5-27.9,26.5-21.5,44.9c0.9,2.6,2.1,5,3.6,7.2c14.7,27,57.1,45.9,82.8,46.2c19.9-16.3,41-57.7,35.5-87.9
			C404.4,221.1,403.8,218.4,402.9,215.8z"/>
		<path fill="#E75B70" d="M423.2,215.8c6.5-18.3,26.5-27.9,44.9-21.5c11.1,3.9,19,12.9,22.1,23.4c9-6.2,20.7-8.3,31.8-4.4
			c18.3,6.5,27.9,26.5,21.5,44.9c-0.9,2.6-2.1,5-3.6,7.2c-14.7,27-57.1,45.9-82.8,46.2c-19.9-16.3-41-57.7-35.5-87.9
			C421.8,221.1,422.3,218.4,423.2,215.8z"/>
	</g>
	<g>
		<path fill="#FFCD34" d="M548.6,326.7c0,74.9-60.7,135.5-135.5,135.5c-74.9,0-135.5-60.7-135.5-135.5
			c0-74.9,60.7-135.5,135.5-135.5C487.9,191.1,548.6,251.8,548.6,326.7"/>
		<path fill-rule="evenodd" clip-rule="evenodd" fill="#2A2F33" d="M286.9,274.1c1.8,1.8,10.8,7.2,12.6,12.6c1.8,5.4,5.4,36,16.3,45
			c11.2,9.3,53.3,5.8,61.4,1.8c18.1-9,20.3-34.1,23.5-46.8c1.8-7.2,12.6-7.2,12.6-7.2s10.8,0,12.6,7.2c3.2,12.7,5.4,37.9,23.5,46.8
			c8.1,4,50.2,7.5,61.4-1.8c10.8-9,14.4-39.6,16.2-45c1.8-5.4,10.8-10.8,12.6-12.6c1.8-1.8,1.8-9,0-10.8c-3.6-3.6-46.2-6.8-92-1.8
			c-9.1,1-12.6,3.6-34.3,3.6c-21.7,0-25.1-2.6-34.3-3.6c-45.8-5-88.4-1.8-92,1.8C285.1,265.1,285.1,272.3,286.9,274.1z"/>
		<path fill="#66471B" d="M483.4,369.1c-1.3-1.2-3.3-1.3-4.8-0.2c-0.3,0.2-29.5,21.8-65.5,21.8c-35.9,0-65.2-21.6-65.5-21.8
			c-1.4-1.1-3.4-1-4.8,0.2c-1.3,1.2-1.6,3.2-0.7,4.7c1,1.6,24.2,39.5,71,39.5s70-37.9,71-39.5C485,372.2,484.7,370.3,483.4,369.1z"
			/>
	</g>
	<g>
		<path fill="#FFCD34" d="M548.6,326.7c0,74.9-60.7,135.5-135.5,135.5c-74.9,0-135.5-60.7-135.5-135.5
			c0-74.9,60.7-135.5,135.5-135.5C487.9,191.1,548.6,251.8,548.6,326.7"/>
		<path fill="#66471B" d="M460.7,369c-1.2-1-2.8-1.2-4.1-0.5l-30.1,15.1c-14.1,7-50.7,7.1-51,7.1h0c-2.1,0-3.8,1.7-3.8,3.8
			c0,1.4,0.8,2.6,1.9,3.3v0c0,0,0,0,0,0c0,0,0,0,0,0c0,0,0,0,0,0c0.5,0.3,1.2,0.5,1.8,0.5c0,0,0,0,0.1,0h52.7
			c20,0,30.8-16.5,33.7-25.2C462.3,371.6,461.9,370,460.7,369z"/>
		<path fill="#66471B" d="M511,311.6c-2.3,0-4.6-1-6-3c-19.9-26.5-45.6-27.1-46.7-27.1c-4.1,0-7.5-3.4-7.5-7.6
			c0-4.1,3.4-7.5,7.5-7.5c1.4,0,34.2,0.4,58.7,33.1c2.5,3.3,1.8,8-1.5,10.5C514.1,311.1,512.6,311.6,511,311.6z"/>
		<path fill="#66471B" d="M315.2,311.6c-1.6,0-3.2-0.5-4.5-1.5c-3.3-2.5-4-7.2-1.5-10.5c24.6-32.8,57.4-33.1,58.7-33.1
			c4.2,0,7.5,3.4,7.5,7.5c0,4.1-3.4,7.5-7.5,7.5c-1.2,0-26.9,0.6-46.7,27.1C319.7,310.6,317.5,311.6,315.2,311.6z"/>
		<path fill="#66471B" d="M397.2,322.1c0.2-0.4,0.4-0.7,0.6-1.2c1-4-1.4-8.1-5.5-9.1c-1.4-0.3-33.6-8.1-58.7,8.6
			c-3.5,2.3-4.4,7-2.1,10.4c1.5,2.2,3.8,3.4,6.3,3.4c1.4,0,2.9-0.4,4.2-1.3c8.2-5.5,17.8-7.5,26.1-8c-0.1,0.6-0.2,1.1-0.2,1.7
			c0,8.3,6.7,15.1,15.1,15.1c8.3,0,15.1-6.7,15.1-15.1C398,325.1,397.7,323.6,397.2,322.1z"/>
		<path fill="#66471B" d="M487.6,322.1c0.2-0.4,0.4-0.7,0.6-1.1c1-4-1.4-8.1-5.5-9.1c-1.4-0.3-33.6-8.1-58.7,8.6
			c-3.5,2.3-4.4,7-2.1,10.4c1.4,2.2,3.8,3.4,6.3,3.4c1.4,0,2.9-0.4,4.2-1.3c8.2-5.5,17.8-7.5,26.1-8c-0.1,0.6-0.2,1.1-0.2,1.7
			c0,8.3,6.7,15.1,15.1,15.1s15.1-6.7,15.1-15.1C488.4,325.1,488.1,323.6,487.6,322.1z"/>
	</g>
	<g>
		<path fill="#FFCD34" d="M548.6,326.7c0,74.9-60.7,135.5-135.5,135.5c-74.9,0-135.5-60.7-135.5-135.5
			c0-74.9,60.7-135.5,135.5-135.5C487.9,191.1,548.6,251.8,548.6,326.7"/>
		<circle fill="#F27792" cx="330.2" cy="326.7" r="37.7"/>
		<circle fill="#F27792" cx="495.9" cy="326.7" r="37.7"/>
		<path fill="#66471B" d="M483.4,354c-1.3-1.2-3.3-1.3-4.8-0.2c-0.3,0.2-29.5,21.8-65.5,21.8c-35.9,0-65.2-21.6-65.5-21.8
			c-1.4-1.1-3.4-1-4.8,0.2c-1.3,1.2-1.6,3.2-0.7,4.7c1,1.6,24.2,39.5,71,39.5s70-37.9,71-39.5C485,357.2,484.7,355.2,483.4,354z"/>
		<path fill="#66471B" d="M337.8,304.1c-1.1,0-2.3-0.3-3.4-0.8c-3.7-1.9-5.2-6.4-3.4-10.1c0.4-0.8,9.9-19.2,36.9-19.2
			c26.9,0,36.5,18.4,36.9,19.2c1.9,3.7,0.4,8.2-3.4,10.1c-3.7,1.8-8.2,0.4-10.1-3.3c-0.3-0.6-6.3-11-23.4-11
			c-17.5,0-23.3,10.8-23.4,10.9C343.2,302.6,340.5,304.1,337.8,304.1z"/>
		<path fill="#66471B" d="M488.4,304.1c-2.8,0-5.4-1.5-6.7-4.2c-0.2-0.3-6.1-10.9-23.4-10.9s-23.2,10.5-23.4,11
			c-2,3.6-6.5,5-10.1,3.2c-3.7-1.9-5.1-6.3-3.3-10c0.4-0.8,9.9-19.2,36.9-19.2s36.5,18.4,36.9,19.2c1.9,3.7,0.4,8.2-3.4,10.1
			C490.7,303.8,489.5,304.1,488.4,304.1z"/>
	</g>
	<g>
		<path fill="#FFCD34" d="M548.6,326.7c0,74.9-60.7,135.5-135.5,135.5c-74.9,0-135.5-60.7-135.5-135.5
			c0-74.9,60.7-135.5,135.5-135.5C487.9,191.1,548.6,251.8,548.6,326.7"/>
		<circle fill="#F27792" cx="330.2" cy="349.3" r="37.7"/>
		<circle fill="#F27792" cx="495.9" cy="349.3" r="37.7"/>
		<path fill="#66471B" d="M491.5,324.6c-0.5-0.7-11.4-16.7-33.3-16.7c-21.8,0-32.8,16.1-33.3,16.7c-1,1.5-0.8,3.5,0.5,4.8
			c1.3,1.3,3.4,1.4,4.8,0.3c0.1-0.1,9.5-6.8,27.9-6.8c18.3,0,27.7,6.6,27.9,6.8c0.7,0.5,1.5,0.7,2.2,0.7c0.9,0,1.9-0.3,2.6-1
			C492.3,328.2,492.5,326.1,491.5,324.6z"/>
		<path fill="#66471B" d="M367.9,307.9c-21.8,0-32.8,16.1-33.3,16.7c-1,1.5-0.8,3.5,0.5,4.8c1.3,1.3,3.4,1.4,4.8,0.3
			c0.1-0.1,9.5-6.8,27.9-6.8c18.3,0,27.7,6.6,27.9,6.8c0.7,0.5,1.5,0.7,2.2,0.7c0.9,0,1.9-0.3,2.6-1c1.3-1.3,1.6-3.3,0.5-4.8
			C400.7,323.9,389.7,307.9,367.9,307.9z"/>
		<path fill="#66471B" d="M442.2,394.5c10.1-3.1,19.8-8.7,19.8-18.8c0-19.7-37-22.3-41.2-22.6c-2.1-0.3-3.8,1.5-4,3.5
			c-0.1,2.1,1.4,3.8,3.5,4c0.3,0,26.6,2.3,26.6,15.1s-26.4,15.1-26.6,15.1c-0.1,0-0.1,0-0.2,0.1c-0.9,0.1-1.7,0.5-2.3,1.2
			c0,0-0.1,0.1-0.1,0.2c-0.2,0.3-0.4,0.6-0.6,0.9c-0.1,0.2-0.1,0.4-0.2,0.6c0,0.2-0.1,0.3-0.1,0.5c0,0.1,0,0.2,0,0.2
			c0,0.1,0,0.2,0,0.2c0,0.2,0.1,0.3,0.1,0.5c0,0.2,0.1,0.4,0.2,0.7c0.1,0.2,0.2,0.4,0.4,0.7c0.1,0.2,0.2,0.4,0.4,0.5
			c0.2,0.2,0.4,0.3,0.6,0.5c0.2,0.1,0.3,0.2,0.5,0.3c0.2,0.1,0.5,0.2,0.8,0.2c0.2,0,0.3,0.1,0.5,0.1c0.3,0,26.6,2.3,26.6,15.1
			s-26.4,15.1-26.6,15.1c-2.1,0.1-3.6,1.9-3.5,4c0.1,2,1.8,3.5,3.8,3.5c0.1,0,0.1,0,0.2,0c4.2-0.2,41.2-2.9,41.2-22.6
			C462,403.2,452.3,397.6,442.2,394.5z"/>
		<path fill="#66471B" d="M511,311.6c-2.3,0-4.6-1-6-3c-19.9-26.5-45.6-27.1-46.7-27.1c-4.1,0-7.5-3.4-7.5-7.6
			c0-4.1,3.4-7.5,7.5-7.5c1.4,0,34.2,0.4,58.7,33.1c2.5,3.3,1.8,8-1.5,10.5C514.1,311.1,512.6,311.6,511,311.6z"/>
		<path fill="#66471B" d="M315.2,311.6c-1.6,0-3.2-0.5-4.5-1.5c-3.3-2.5-4-7.2-1.5-10.5c24.6-32.8,57.4-33.1,58.7-33.1
			c4.2,0,7.5,3.4,7.5,7.5c0,4.1-3.4,7.5-7.5,7.5c-1.2,0-26.9,0.6-46.7,27.1C319.7,310.6,317.5,311.6,315.2,311.6z"/>
	</g>
	<g id="final">
		<path fill="#FFCD34" d="M548.6,326.7c0,74.9-60.7,135.5-135.5,135.5c-74.9,0-135.5-60.7-135.5-135.5
			c0-74.9,60.7-135.5,135.5-135.5C487.9,191.1,548.6,251.8,548.6,326.7"/>
		<path fill="#66471B" d="M383,300.3c0,14.6-8.4,26.4-18.8,26.4s-18.8-11.8-18.8-26.4c0-14.6,8.4-26.4,18.8-26.4
			S383,285.8,383,300.3z"/>
		<path fill="#66471B" d="M480.9,300.3c0,14.6-8.4,26.4-18.8,26.4s-18.8-11.8-18.8-26.4c0-14.6,8.4-26.4,18.8-26.4
			S480.9,285.8,480.9,300.3z"/>
		<path fill="#66471B" d="M330.2,351.2c0,29.8,34.6,67.8,82.8,67.8s82.8-37.7,82.8-67.8C495.9,351.2,418.1,372,330.2,351.2z"/>
		<path fill="#E75B70" d="M367.9,364.3v52.4c0,22.6,15.1,45.2,45.2,45.2c30.1,0,45.2-22.6,45.2-45.2v-52.1
			C410.9,374.4,367.9,364.3,367.9,364.3z"/>
	</g>
	<g id="real_final_1">
		<g>
			<circle fill="#FFCD34" cx="410.8" cy="327.9" r="135.3"/>
		</g>
		<path fill="#66481C" d="M410.8,356.1c-28.8,0-48-3.4-71.6-8c-5.4-1-15.9,0-15.9,15.9c0,31.8,36.6,71.6,87.5,71.6
			c51,0,87.5-39.8,87.5-71.6c0-15.9-10.5-17-15.9-15.9C458.7,352.8,439.6,356.1,410.8,356.1z"/>
		<path fill="#66481C" d="M344.3,288.1c0,0,2.6-15.9,18.5-15.9c15.9,0,18.5,15.9,18.5,15.9V304c0,0-2.6,15.9-18.5,15.9
			c-15.9,0-18.5-15.9-18.5-15.9V288.1z"/>
		<path fill="#66481C" d="M432.3,288.1c0,0,2.6-15.9,18.5-15.9c15.9,0,18.5,15.9,18.5,15.9V304c0,0-2.6,15.9-18.5,15.9
			c-15.9,0-18.5-15.9-18.5-15.9V288.1z"/>
		<path fill="#FFFFFF" d="M339.1,364.1c0,0,23.9,8,71.6,8s71.6-8,71.6-8s-15.9,31.8-71.6,31.8S339.1,364.1,339.1,364.1z"/>
	</g>
</g>
<g id="animation2">
  <g id="start_o">
    <path id="final_O_1" fill="#FFCD34" d="M1615.7,326.9c0,74.4-60.6,135.8-134.7,135.8c-74.4,0-134.7-61.3-134.7-135.8
      s60.2-134.7,134.7-134.7C1555.1,192.2,1615.7,252.4,1615.7,326.9z M1557.3,327.6c0-41.9-34.8-76.3-76.7-76.3s-76.3,34.4-76.3,76.3
      c0,41.9,34.4,75.9,76.3,75.9S1557.3,369.5,1557.3,327.6z"/>
  </g>
	<g>
		<path fill="#FFCD34" d="M1616.6,327.4c0,74.9-60.7,135.5-135.5,135.5c-74.9,0-135.5-60.7-135.5-135.5
			c0-74.9,60.7-135.5,135.5-135.5C1555.9,191.9,1616.6,252.6,1616.6,327.4"/>
		<circle fill="#F27792" cx="1398.2" cy="327.4" r="37.7"/>
		<circle fill="#F27792" cx="1563.9" cy="327.4" r="37.7"/>
		<path fill="#66471B" d="M1551.3,354.7c-1.3-1.2-3.3-1.3-4.8-0.2c-0.3,0.2-29.5,21.8-65.5,21.8c-35.9,0-65.2-21.6-65.5-21.8
			c-1.4-1.1-3.4-1-4.8,0.2c-1.3,1.2-1.6,3.2-0.7,4.7c1,1.6,24.2,39.5,71,39.5c46.8,0,70-37.9,71-39.5
			C1553,357.9,1552.7,355.9,1551.3,354.7z"/>
		<path fill="#66471B" d="M1405.7,304.8c-1.1,0-2.3-0.3-3.4-0.8c-3.7-1.9-5.2-6.4-3.4-10.1c0.4-0.8,9.9-19.2,36.9-19.2
			c26.9,0,36.5,18.4,36.9,19.2c1.9,3.7,0.4,8.2-3.4,10.1c-3.7,1.8-8.2,0.4-10.1-3.3c-0.3-0.6-6.3-11-23.4-11
			c-17.5,0-23.3,10.8-23.4,10.9C1411.1,303.3,1408.5,304.8,1405.7,304.8z"/>
		<path fill="#66471B" d="M1556.3,304.8c-2.8,0-5.4-1.5-6.7-4.2c-0.2-0.3-6.1-10.9-23.4-10.9c-17.3,0-23.2,10.5-23.4,11
			c-2,3.6-6.5,5-10.1,3.2c-3.7-1.9-5.1-6.3-3.3-10c0.4-0.8,9.9-19.2,36.9-19.2c26.9,0,36.5,18.4,36.9,19.2c1.9,3.7,0.4,8.2-3.4,10.1
			C1558.6,304.6,1557.5,304.8,1556.3,304.8z"/>
	</g>
	<g>
		<path fill="#FFCD34" d="M1616.6,327.4c0,74.9-60.7,135.5-135.5,135.5c-74.9,0-135.5-60.7-135.5-135.5
			c0-74.9,60.7-135.5,135.5-135.5C1555.9,191.9,1616.6,252.6,1616.6,327.4"/>
		<path fill="#66471B" d="M1481,356.4c-22.3,0-37.2-2.6-55.5-6.2c-4.2-0.8-12.3,0-12.3,12.3c0,24.7,28.3,55.5,67.8,55.5
			c39.5,0,67.8-30.8,67.8-55.5c0-12.3-8.1-13.1-12.3-12.3C1518.2,353.8,1503.4,356.4,1481,356.4"/>
		<path fill="#E75B70" d="M1470.9,216.6c-6.5-18.3-26.5-27.9-44.8-21.5c-11.1,3.9-19,12.9-22.1,23.4c-9-6.2-20.7-8.3-31.8-4.4
			c-18.3,6.5-27.9,26.5-21.5,44.9c0.9,2.6,2.1,5,3.6,7.2c14.7,27,57.1,45.9,82.8,46.2c19.9-16.3,41-57.7,35.5-87.9
			C1472.3,221.8,1471.8,219.2,1470.9,216.6z"/>
		<path fill="#E75B70" d="M1491.2,216.6c6.5-18.3,26.5-27.9,44.9-21.5c11.1,3.9,19,12.9,22.1,23.4c9-6.2,20.7-8.3,31.8-4.4
			c18.3,6.5,27.9,26.5,21.5,44.9c-0.9,2.6-2.1,5-3.6,7.2c-14.7,27-57.1,45.9-82.8,46.2c-19.9-16.3-41-57.7-35.5-87.9
			C1489.7,221.8,1490.3,219.2,1491.2,216.6z"/>
	</g>
	<g>
		<path fill="#FFCD34" d="M1616.6,327.4c0,74.9-60.7,135.5-135.5,135.5c-74.9,0-135.5-60.7-135.5-135.5
			c0-74.9,60.7-135.5,135.5-135.5C1555.9,191.9,1616.6,252.6,1616.6,327.4"/>
		<path fill-rule="evenodd" clip-rule="evenodd" fill="#2A2F33" d="M1354.8,274.8c1.8,1.8,10.8,7.2,12.6,12.6
			c1.8,5.4,5.4,36,16.3,45c11.2,9.3,53.3,5.8,61.4,1.8c18.1-9,20.3-34.1,23.5-46.8c1.8-7.2,12.6-7.2,12.6-7.2s10.8,0,12.6,7.2
			c3.2,12.7,5.4,37.9,23.5,46.8c8.1,4,50.2,7.5,61.4-1.8c10.8-9,14.4-39.6,16.2-45c1.8-5.4,10.8-10.8,12.6-12.6
			c1.8-1.8,1.8-9,0-10.8c-3.6-3.6-46.2-6.8-92-1.8c-9.1,1-12.6,3.6-34.3,3.6c-21.7,0-25.1-2.6-34.3-3.6c-45.8-5-88.4-1.8-92,1.8
			C1353,265.8,1353,273,1354.8,274.8z"/>
		<path fill="#66471B" d="M1551.3,369.8c-1.3-1.2-3.3-1.3-4.8-0.2c-0.3,0.2-29.5,21.8-65.5,21.8c-35.9,0-65.2-21.6-65.5-21.8
			c-1.4-1.1-3.4-1-4.8,0.2c-1.3,1.2-1.6,3.2-0.7,4.7c1,1.6,24.2,39.5,71,39.5c46.8,0,70-37.9,71-39.5
			C1553,373,1552.7,371,1551.3,369.8z"/>
	</g>
	<g>
		<path fill="#FFCD34" d="M1616.6,327.4c0,74.9-60.7,135.5-135.5,135.5c-74.9,0-135.5-60.7-135.5-135.5
			c0-74.9,60.7-135.5,135.5-135.5C1555.9,191.9,1616.6,252.6,1616.6,327.4"/>
		<path fill="#66471B" d="M1528.7,369.8c-1.2-1-2.8-1.2-4.1-0.5l-30.1,15.1c-14.1,7-50.7,7.1-51,7.1h0c-2.1,0-3.8,1.7-3.8,3.8
			c0,1.4,0.8,2.6,1.9,3.3v0c0,0,0,0,0,0c0,0,0,0,0,0c0,0,0,0,0,0c0.5,0.3,1.2,0.5,1.8,0.5c0,0,0,0,0.1,0h52.7
			c20,0,30.8-16.5,33.7-25.2C1530.3,372.3,1529.8,370.8,1528.7,369.8z"/>
		<path fill="#66471B" d="M1578.9,312.4c-2.3,0-4.6-1-6-3c-19.9-26.5-45.6-27.1-46.7-27.1c-4.1,0-7.5-3.4-7.5-7.6
			c0-4.1,3.4-7.5,7.5-7.5c1.4,0,34.2,0.4,58.7,33.1c2.5,3.3,1.8,8-1.5,10.5C1582.1,311.9,1580.5,312.4,1578.9,312.4z"/>
		<path fill="#66471B" d="M1383.1,312.4c-1.6,0-3.2-0.5-4.5-1.5c-3.3-2.5-4-7.2-1.5-10.5c24.6-32.8,57.4-33.1,58.7-33.1
			c4.2,0,7.5,3.4,7.5,7.5c0,4.1-3.4,7.5-7.5,7.5c-1.2,0-26.9,0.6-46.7,27.1C1387.7,311.3,1385.4,312.4,1383.1,312.4z"/>
		<path fill="#66471B" d="M1465.2,322.9c0.2-0.4,0.4-0.7,0.6-1.2c1-4-1.4-8.1-5.5-9.1c-1.4-0.3-33.6-8.1-58.7,8.6
			c-3.5,2.3-4.4,7-2.1,10.4c1.5,2.2,3.8,3.4,6.3,3.4c1.4,0,2.9-0.4,4.2-1.3c8.2-5.5,17.8-7.5,26.1-8c-0.1,0.6-0.2,1.1-0.2,1.7
			c0,8.3,6.7,15.1,15.1,15.1c8.3,0,15.1-6.7,15.1-15.1C1466,325.8,1465.7,324.3,1465.2,322.9z"/>
		<path fill="#66471B" d="M1555.6,322.9c0.2-0.4,0.4-0.7,0.6-1.1c1-4-1.4-8.1-5.5-9.1c-1.4-0.3-33.6-8.1-58.7,8.6
			c-3.5,2.3-4.4,7-2.1,10.4c1.4,2.2,3.8,3.4,6.3,3.4c1.4,0,2.9-0.4,4.2-1.3c8.2-5.5,17.8-7.5,26.1-8c-0.1,0.6-0.2,1.1-0.2,1.7
			c0,8.3,6.7,15.1,15.1,15.1c8.3,0,15.1-6.7,15.1-15.1C1556.3,325.8,1556,324.3,1555.6,322.9z"/>
	</g>
	<g>
		<path fill="#FFCD34" d="M1616.6,327.4c0,74.9-60.7,135.5-135.5,135.5c-74.9,0-135.5-60.7-135.5-135.5
			c0-74.9,60.7-135.5,135.5-135.5C1555.9,191.9,1616.6,252.6,1616.6,327.4"/>
		<path fill="#66471B" d="M1558.7,309.4c-1.3-1.1-3.2-1.1-4.6-0.1c-0.1,0.1-9.5,6.8-27.9,6.8c-18.4,0-27.8-6.7-27.9-6.8
			c-1.4-1-3.3-1-4.6,0.1c-1.3,1.1-1.8,2.9-1.1,4.5c0.4,1,11.3,24.8,33.6,24.8c22.3,0,33.1-23.8,33.6-24.8
			C1560.5,312.3,1560,310.5,1558.7,309.4z"/>
		<path fill="#66471B" d="M1463.7,309.3c-0.1,0.1-9.5,6.8-27.9,6.8c-18.4,0-27.8-6.7-27.9-6.8c-1.4-1-3.3-1-4.6,0.1
			c-1.3,1.1-1.8,2.9-1.1,4.5c0.5,1,11.3,24.8,33.6,24.8c22.3,0,33.1-23.8,33.6-24.8c0.7-1.6,0.2-3.4-1.1-4.5
			C1467,308.4,1465.1,308.3,1463.7,309.3z"/>
		<path fill="#66471B" d="M1563.9,289.8c-2.3,0-4.6-1-6-3c-19.5-26-52.4-19.8-52.7-19.7c-4.1,0.8-8-1.8-8.9-5.9
			c-0.8-4.1,1.8-8,5.9-8.9c1.7-0.4,42.6-8.1,67.7,25.5c2.5,3.3,1.8,8-1.5,10.5C1567,289.3,1565.4,289.8,1563.9,289.8z"/>
		<path fill="#66471B" d="M1398.2,289.8c-1.6,0-3.2-0.5-4.5-1.5c-3.3-2.5-4-7.2-1.5-10.5c25.1-33.5,66-25.8,67.7-25.5
			c4.1,0.8,6.7,4.8,5.9,8.9c-0.8,4.1-4.8,6.7-8.8,5.9c-1.4-0.3-33.4-6.1-52.8,19.7C1402.7,288.7,1400.5,289.8,1398.2,289.8z"/>
		<path fill="#66471B" d="M1520.6,369.4c-1.4-0.8-3.3-0.6-4.5,0.4c-0.1,0.1-7.6,6.5-35.1,6.5c-27.4,0-35-6.4-35-6.4
			c-1.2-1.2-3-1.4-4.5-0.6c-1.5,0.8-2.2,2.6-1.8,4.2c0.1,0.3,8.6,33,41.3,33c32.7,0,41.2-32.6,41.3-33
			C1522.7,371.9,1522,370.3,1520.6,369.4z"/>
	</g>
	<g>
		<path fill="#FFCD34" d="M1616.6,327.4c0,74.9-60.7,135.5-135.5,135.5c-74.9,0-135.5-60.7-135.5-135.5
			c0-74.9,60.7-135.5,135.5-135.5C1555.9,191.9,1616.6,252.6,1616.6,327.4"/>
		<circle fill="#F27792" cx="1398.2" cy="350" r="37.7"/>
		<circle fill="#F27792" cx="1563.9" cy="350" r="37.7"/>
		<path fill="#66471B" d="M1559.5,325.3c-0.5-0.7-11.4-16.7-33.3-16.7c-21.8,0-32.8,16.1-33.3,16.7c-1,1.5-0.8,3.5,0.5,4.8
			c1.3,1.3,3.4,1.4,4.8,0.3c0.1-0.1,9.5-6.8,27.9-6.8c18.3,0,27.7,6.6,27.9,6.8c0.7,0.5,1.5,0.7,2.2,0.7c0.9,0,1.9-0.3,2.6-1
			C1560.3,328.9,1560.5,326.9,1559.5,325.3z"/>
		<path fill="#66471B" d="M1435.8,308.6c-21.8,0-32.8,16.1-33.3,16.7c-1,1.5-0.8,3.5,0.5,4.8c1.3,1.3,3.4,1.4,4.8,0.3
			c0.1-0.1,9.5-6.8,27.9-6.8c18.3,0,27.7,6.6,27.9,6.8c0.7,0.5,1.5,0.7,2.2,0.7c0.9,0,1.9-0.3,2.6-1c1.3-1.3,1.6-3.3,0.5-4.8
			C1468.6,324.6,1457.7,308.6,1435.8,308.6z"/>
		<path fill="#66471B" d="M1510.2,395.2c10.1-3.1,19.8-8.7,19.8-18.8c0-19.7-37-22.3-41.2-22.6c-2.1-0.3-3.8,1.5-4,3.5
			c-0.1,2.1,1.4,3.8,3.5,4c0.3,0,26.6,2.3,26.6,15.1s-26.4,15.1-26.6,15.1c-0.1,0-0.1,0-0.2,0.1c-0.9,0.1-1.7,0.5-2.3,1.2
			c0,0-0.1,0.1-0.1,0.2c-0.2,0.3-0.4,0.6-0.6,0.9c-0.1,0.2-0.1,0.4-0.2,0.6c0,0.2-0.1,0.3-0.1,0.5c0,0.1,0,0.2,0,0.2
			c0,0.1,0,0.2,0,0.2c0,0.2,0.1,0.3,0.1,0.5c0,0.2,0.1,0.4,0.2,0.7c0.1,0.2,0.2,0.4,0.4,0.7c0.1,0.2,0.2,0.4,0.4,0.5
			c0.2,0.2,0.4,0.3,0.6,0.5c0.2,0.1,0.3,0.2,0.5,0.3c0.2,0.1,0.5,0.2,0.8,0.2c0.2,0,0.3,0.1,0.5,0.1c0.3,0,26.6,2.3,26.6,15.1
			s-26.4,15.1-26.6,15.1c-2.1,0.1-3.6,1.9-3.5,4c0.1,2,1.8,3.5,3.8,3.5c0.1,0,0.1,0,0.2,0c4.2-0.2,41.2-2.9,41.2-22.6
			C1530,403.9,1520.2,398.3,1510.2,395.2z"/>
		<path fill="#66471B" d="M1578.9,312.4c-2.3,0-4.6-1-6-3c-19.9-26.5-45.6-27.1-46.7-27.1c-4.1,0-7.5-3.4-7.5-7.6
			c0-4.1,3.4-7.5,7.5-7.5c1.4,0,34.2,0.4,58.7,33.1c2.5,3.3,1.8,8-1.5,10.5C1582.1,311.9,1580.5,312.4,1578.9,312.4z"/>
		<path fill="#66471B" d="M1383.1,312.4c-1.6,0-3.2-0.5-4.5-1.5c-3.3-2.5-4-7.2-1.5-10.5c24.6-32.8,57.4-33.1,58.7-33.1
			c4.2,0,7.5,3.4,7.5,7.5c0,4.1-3.4,7.5-7.5,7.5c-1.2,0-26.9,0.6-46.7,27.1C1387.7,311.3,1385.4,312.4,1383.1,312.4z"/>
	</g>
	
	<g id="final">
		<path fill="#FFCD34" d="M1616.6,327.4c0,74.9-60.7,135.5-135.5,135.5c-74.9,0-135.5-60.7-135.5-135.5
			c0-74.9,60.7-135.5,135.5-135.5C1555.9,191.9,1616.6,252.6,1616.6,327.4"/>
		<path fill="#66471B" d="M1450.9,301.1c0,14.6-8.4,26.4-18.8,26.4c-10.4,0-18.8-11.8-18.8-26.4c0-14.6,8.4-26.4,18.8-26.4
			C1442.5,274.7,1450.9,286.5,1450.9,301.1z"/>
		<path fill="#66471B" d="M1548.8,301.1c0,14.6-8.4,26.4-18.8,26.4s-18.8-11.8-18.8-26.4c0-14.6,8.4-26.4,18.8-26.4
			S1548.8,286.5,1548.8,301.1z"/>
		<path fill="#66471B" d="M1398.2,352c0,29.8,34.6,67.8,82.8,67.8c48.2,0,82.8-37.7,82.8-67.8C1563.9,352,1486.1,372.7,1398.2,352z"
			/>
		<path fill="#E75B70" d="M1435.8,365.1v52.4c0,22.6,15.1,45.2,45.2,45.2s45.2-22.6,45.2-45.2v-52.1
			C1478.8,375.1,1435.8,365.1,1435.8,365.1z"/>
	</g>
	<g id="real_final_2">
		<g>
			<circle fill="#FFCD34" cx="1481.6" cy="327.9" r="135.3"/>
		</g>
		<path fill="#66481C" d="M1481.6,356.1c-28.8,0-48-3.4-71.6-8c-5.4-1-15.9,0-15.9,15.9c0,31.8,36.6,71.6,87.5,71.6
			c51,0,87.5-39.8,87.5-71.6c0-15.9-10.5-17-15.9-15.9C1529.6,352.8,1510.5,356.1,1481.6,356.1z"/>
		<path fill="#66481C" d="M1415.3,288.1c0,0,2.6-15.9,18.5-15.9c15.9,0,18.5,15.9,18.5,15.9V304c0,0-2.6,15.9-18.5,15.9
			c-15.9,0-18.5-15.9-18.5-15.9V288.1z"/>
		<path fill="#66481C" d="M1503.3,288.1c0,0,2.6-15.9,18.5-15.9c15.9,0,18.5,15.9,18.5,15.9V304c0,0-2.6,15.9-18.5,15.9
			c-15.9,0-18.5-15.9-18.5-15.9V288.1z"/>
		<path fill="#FFFFFF" d="M1410,364.1c0,0,23.9,8,71.6,8c47.7,0,71.6-8,71.6-8s-15.9,31.8-71.6,31.8
			C1425.9,395.9,1410,364.1,1410,364.1z"/>
	</g>
</g>
</svg>
