<?xml version="1.0" encoding="utf-8"?>
<!-- Generator: Adobe Illustrator 18.0.0, SVG Export Plug-In . SVG Version: 6.00 Build 0)  -->
<!DOCTYPE svg PUBLIC "-//W3C//DTD SVG 1.1//EN" "http://www.w3.org/Graphics/SVG/1.1/DTD/svg11.dtd">
<svg version="1.1" id="Layer_1" xmlns="http://www.w3.org/2000/svg" xmlns:xlink="http://www.w3.org/1999/xlink" x="0px" y="0px"
	 viewBox="0 0 932.5 236.4" enable-background="new 0 0 932.5 236.4" xml:space="preserve">
<g>
	<path d="M38.4,67.6c2.8,4.2,4.1,8,5.6,16c11-10.5,24.7-16,39.5-16c13.4,0,24.4,4.3,33,12.9c2.3,2.2,4.5,5,6.4,7.7
		c14.8-14.8,28.1-20.6,45.9-20.6c12.7,0,24.7,3.7,32,9.8c9.2,7.7,12.1,17,12.1,38.6v112.3h-41.2V124.1c0-18.9-2.3-22.6-13.3-22.6
		c-7.9,0-19,5.3-28.2,13.3v113.6H90.1V125.6c0-19.7-2.9-24.3-14.7-24.3c-7.8,0-18.7,3.9-27.8,12v115.1H6.1V118.2
		c0-22.8-1.6-32.7-6.1-40.4L38.4,67.6 M288.3,113.9c-2.9,8.4-4.5,19.5-4.5,35.2c0,18.2,1.9,31.8,5.4,39.8c3.8,8.6,13.4,13,21.5,13
		c18.4,0,26.2-16,26.2-53.4c0-21.3-2.9-35.2-8.5-42.3c-4.1-5.2-10.7-8.3-18.3-8.3C300,97.8,291.8,104,288.3,113.9z M364.7,91.1
		c13,14.8,18.7,32.1,18.7,57.7c0,27.2-6.4,45.7-20.4,61.1c-12.3,13.6-28.5,21.9-53.5,21.9c-44.1,0-72.9-32.1-72.9-81.8
		c0-49.7,29.1-82.7,72.9-82.7C332.7,67.3,350.7,75,364.7,91.1L364.7,91.1z M520,70.4v28.4l-71.6,100.9h74.4l-10.2,28.7H393.2v-25.6
		l76.3-103.4h-69.9v-29L520,70.4 M586.8,66.7v161.7h-42.4V73.2L586.8,66.7z M591.7,26.9c0,14.2-11.6,25.6-26.3,25.6
		c-14.2,0-25.9-11.3-25.9-25.6c0-14.2,12.1-25.6,26.6-25.6C580.4,1.3,591.7,12.7,591.7,26.9z M664.1,41.1v123.1
		c0,27.2,0.3,30.9,2.9,35.2c1.6,2.8,5,4.3,8.6,4.3c1.5,0,2.4,0,4.7-0.6l7.3,24.7c-7.3,2.8-16.1,4.3-25.3,4.3
		c-18.1,0-32.7-8.3-37.7-21.6c-3.2-8-3.9-13-3.9-35.5V57.1c0-20.7-0.6-33.3-2.1-47.5L661.9,0C663.4,8.6,664.1,18.8,664.1,41.1
		 M752.1,41.1v123.1c0,27.2,0.4,30.9,3,35.2c1.5,2.8,4.9,4.3,8.5,4.3c1.6,0,2.6,0,4.8-0.6l7.2,24.7c-7.2,2.8-16.1,4.3-25.3,4.3
		c-18.1,0-32.7-8.3-37.7-21.6c-3.2-8-3.8-13-3.8-35.5V57.1c0-20.7-0.6-33.3-2.3-47.5L749.8,0C751.6,8.6,752.1,18.8,752.1,41.1
		 M873.7,159.3c-29.4,0-39.6,5.2-39.6,24.1c0,12.3,8,20.6,18.8,20.6c7.9,0,15.9-4,22.1-10.8l0.7-33.9H873.7L873.7,159.3z
		 M818.7,76.3c15.8-6.5,29.4-9.2,44.3-9.2c27.3,0,46,9.8,52.3,27.5c2.1,6.5,3.1,11.4,2.9,28.4l-1,53v2.8c0,17,2.9,23.5,15.3,32.4
		L910,236.4c-9.9-4-18.7-11.2-22.9-19.2c-3.1,3.1-6.6,6.1-9.9,8.3c-7.9,5.6-19.3,8.7-32.6,8.7c-36.1,0-55.8-17.9-55.8-49.4
		c0-37.1,26.4-54.4,78-54.4c3.1,0,6,0,9.6,0.3v-6.4c0-17.6-3.5-23.5-19.1-23.5c-13.5,0-29.4,6.4-46.8,17.9l-18.1-29.6
		C800.9,83.9,807.3,80.9,818.7,76.3L818.7,76.3z"/>
</g>
</svg>
