<?xml version="1.0" encoding="utf-8"?>
<!-- Generator: Adobe Illustrator 16.0.0, SVG Export Plug-In . SVG Version: 6.00 Build 0)  -->
<!DOCTYPE svg PUBLIC "-//W3C//DTD SVG 1.1//EN" "http://www.w3.org/Graphics/SVG/1.1/DTD/svg11.dtd">
<svg version="1.1" xmlns="http://www.w3.org/2000/svg" xmlns:xlink="http://www.w3.org/1999/xlink" x="0px" y="0px" width="400px"
	 height="400px" viewBox="0 0 400 400" enable-background="new 0 0 400 400" xml:space="preserve">
<g id="back" display="none">
	<rect display="inline" fill="#313131" width="1200" height="400"/>
</g>
<g id="txts">
	<g id="text1">
		<g>
			<g>
				<rect x="39.342" y="269.939" fill="none" width="319.316" height="100.299"/>
				<text transform="matrix(1 0 0 1 60.4019 294.7881)"><tspan x="0" y="0" fill="#FFFFFF" font-family="'FiraMono-Medium'" font-size="33" letter-spacing="1">THIS IS NOT A</tspan><tspan x="32.175" y="39.6" fill="#FFFFFF" font-family="'FiraMono-Medium'" font-size="33" letter-spacing="1">WATERMELON</tspan></text>
			</g>
		</g>
	</g>
	<g id="text2">
		<g>
			<g>
				<rect x="440.842" y="269.089" fill="none" width="319.316" height="100.299"/>
				<text transform="matrix(1 0 0 1 461.9023 293.9375)"><tspan x="0" y="0" fill="#FFFFFF" font-family="'FiraMono-Medium'" font-size="33" letter-spacing="1">IT’S ACTUALLY</tspan><tspan x="53.624" y="39.6" fill="#FFFFFF" font-family="'FiraMono-Medium'" font-size="33" letter-spacing="1">A LETTER</tspan></text>
			</g>
		</g>
	</g>
	<g id="text3">
		<g>
			
				<text transform="matrix(1 0 0 1 948.2295 293.9395)" fill="#FFFFFF" font-family="'FiraMono-Medium'" font-size="33" letter-spacing="2">H</text>
			<g id="single_i_2">
				
					<text transform="matrix(1 0 0 1 970.1045 293.939)" fill="#FFFFFF" font-family="'FiraMono-Medium'" font-size="33" letter-spacing="2">I</text>
			</g>
			
				<text transform="matrix(1 0 0 1 990.9961 293.939)" fill="#FFFFFF" font-family="'FiraMono-Medium'" font-size="33" letter-spacing="2">S</text>
			<g id="single_i_3">
				
					<text transform="matrix(1 0 0 1 1034.1377 293.9395)" fill="#FFFFFF" font-family="'FiraMono-Medium'" font-size="33" letter-spacing="2">I</text>
			</g>
			
				<text transform="matrix(1 0 0 1 1055.0303 293.9395)" fill="#FFFFFF" font-family="'FiraMono-Medium'" font-size="33" letter-spacing="2">S</text>
			<g id="single_c_1">
				
					<text transform="matrix(1 0 0 1 894.3594 333.5)" fill="#FFFFFF" font-family="'FiraMono-Medium'" font-size="33" letter-spacing="2">C</text>
			</g>
			
				<text transform="matrix(1 0 0 1 915.9307 333.5)" fill="#FFFFFF" font-family="'FiraMono-Medium'" font-size="33" letter-spacing="2">R</text>
			
				<text transform="matrix(1 0 0 1 958.8086 333.5)" fill="#FFFFFF" font-family="'FiraMono-Medium'" font-size="33" letter-spacing="2">P</text>
			
				<text transform="matrix(1 0 0 1 980.3213 333.5)" fill="#FFFFFF" font-family="'FiraMono-Medium'" font-size="33" letter-spacing="2">T</text>
			<g id="single_o_1">
				
					<text transform="matrix(1 0 0 1 1001.6963 333.5)" fill="#FFFFFF" font-family="'FiraMono-Medium'" font-size="33" letter-spacing="2">O</text>
			</g>
			
				<text transform="matrix(1 0 0 1 1023.0713 333.5)" fill="#FFFFFF" font-family="'FiraMono-Medium'" font-size="33" letter-spacing="2">L</text>
			<g id="single_o_2">
				
					<text transform="matrix(1 0 0 1 1044.5928 333.5)" fill="#FFFFFF" font-family="'FiraMono-Medium'" font-size="33" letter-spacing="2">O</text>
			</g>
			
				<text transform="matrix(1 0 0 1 1066.0303 333.5)" fill="#FFFFFF" font-family="'FiraMono-Medium'" font-size="33" letter-spacing="2">J</text>
			<g id="single_i_1">
				
					<text transform="matrix(1 0 0 1 1087.5303 333.5)" fill="#FFFFFF" font-family="'FiraMono-Medium'" font-size="33" letter-spacing="2">I</text>
			</g>
			
				<text transform="matrix(1 0 0 1 926.7295 293.9385)" fill="#FFFFFF" font-family="'FiraMono-Medium'" font-size="33" letter-spacing="2">T</text>
			
				<text transform="matrix(1 0 0 1 937.4795 333.4995)" fill="#FFFFFF" font-family="'FiraMono-Medium'" font-size="33" letter-spacing="2">Y</text>
		</g>
	</g>
	<g id="text3_emoji">
		<g id="icon_i_3_1_" transform="matrix(1.25,0,0,-1.25,0,47.5)">
			<g id="g12_13_">
				<g>
					<defs>
						<rect id="SVGID_1_" x="772.1" y="-199.5" width="23" height="23"/>
					</defs>
					<clipPath id="SVGID_2_">
						<use xlink:href="#SVGID_1_"  overflow="visible"/>
					</clipPath>
					<g id="g14_13_" clip-path="url(#SVGID_2_)">
						<g id="g20_13_" transform="translate(25,31)">
							<path id="path22_13_" fill="#CCD6DD" d="M761.941-213.166c0-1.603-1.3-2.903-2.903-2.903c-1.603,0-2.903,1.3-2.903,2.903
								c0,1.603,1.3,2.903,2.903,2.903C760.641-210.262,761.941-211.562,761.941-213.166"/>
						</g>
						<path id="path24_7_" fill="#CCD6DD" d="M787.2-195.6h-6.4v11.2h6.4V-195.6z"/>
					</g>
				</g>
			</g>
			<g id="g26_7_">
				<g>
					<defs>
						<rect id="SVGID_3_" x="780" y="-197" width="8" height="14"/>
					</defs>
					<clipPath id="SVGID_4_">
						<use xlink:href="#SVGID_3_"  overflow="visible"/>
					</clipPath>
					<g id="g28_13_" clip-path="url(#SVGID_4_)">
						<g id="g34_7_" transform="translate(34.1914,15.4902)">
							<path id="path36_7_" fill="#DD2E44" d="M757.196-205.161l-11.306,5.516l0.848,1.74l11.307-5.516L757.196-205.161z"/>
						</g>
						<g id="g38_7_" transform="translate(27.1758,1.1094)">
							<path id="path40_7_" fill="#DD2E44" d="M760.818-197.738l-11.307,5.516l0.848,1.74l11.307-5.516L760.818-197.738z"/>
						</g>
						<g id="g42_7_" transform="translate(32.4375,11.8945)">
							<path id="path44_7_" fill="#FFFFFF" d="M758.102-203.305l-11.306,5.517l0.848,1.738l11.306-5.516L758.102-203.305z"/>
						</g>
						<g id="g46_7_" transform="translate(28.9297,4.7051)">
							<path id="path48_7_" fill="#FFFFFF" d="M759.913-199.593l-11.308,5.516l0.85,1.74l11.306-5.516L759.913-199.593z"/>
						</g>
						<g id="g50_7_" transform="translate(25.4219,-2.4854)">
							<path id="path52_7_" fill="#FFFFFF" d="M761.723-195.883l-11.307,5.516l0.849,1.739l11.307-5.516L761.723-195.883z"/>
						</g>
						<g id="g54_7_" transform="translate(30.6836,8.2998)">
							<path id="path56_7_" fill="#55ACEE" d="M759.007-201.449l-11.306,5.516l0.848,1.74l11.306-5.516L759.007-201.449z"/>
						</g>
					</g>
				</g>
			</g>
			<g id="g58_7_">
				<g>
					<defs>
						<rect id="SVGID_5_" x="772.1" y="-199.5" width="23" height="23"/>
					</defs>
					<clipPath id="SVGID_6_">
						<use xlink:href="#SVGID_5_"  overflow="visible"/>
					</clipPath>
					<g id="g60_9_" clip-path="url(#SVGID_6_)">
						<g id="g66_7_" transform="translate(28,26)">
							<path id="path68_7_" fill="#99AAB5" d="M760.392-210.4c0-0.534-0.434-0.8-0.968-0.8h-6.774c-0.534,0-0.967,0.266-0.967,0.8
								c0,0.534,0.433,0.8,0.967,0.8h6.774C759.959-209.6,760.392-209.866,760.392-210.4"/>
						</g>
						<g id="g70_7_" transform="translate(28,3)">
							<path id="path72_7_" fill="#99AAB5" d="M760.392-198.6c0-0.534-0.434-0.8-0.968-0.8h-6.774c-0.534,0-0.967,0.266-0.967,0.8
								s0.433,0.8,0.967,0.8h6.774C759.959-197.8,760.392-198.066,760.392-198.6"/>
						</g>
					</g>
				</g>
			</g>
		</g>
		<g id="icon_i_2_1_" transform="matrix(1.25,0,0,-1.25,0,47.5)">
			<g id="g12_12_">
				<g>
					<defs>
						<rect id="SVGID_7_" x="823.3" y="-199.5" width="23" height="23"/>
					</defs>
					<clipPath id="SVGID_8_">
						<use xlink:href="#SVGID_7_"  overflow="visible"/>
					</clipPath>
					<g id="g14_12_" clip-path="url(#SVGID_8_)">
						<g id="g20_12_" transform="translate(25,31)">
							<path id="path22_12_" fill="#CCD6DD" d="M813.141-213.166c0-1.603-1.3-2.903-2.903-2.903c-1.603,0-2.903,1.3-2.903,2.903
								c0,1.603,1.3,2.903,2.903,2.903C811.841-210.262,813.141-211.562,813.141-213.166"/>
						</g>
						<path id="path24_6_" fill="#CCD6DD" d="M838.4-195.6H832v11.2h6.4V-195.6z"/>
					</g>
				</g>
			</g>
			<g id="g26_6_">
				<g>
					<defs>
						<rect id="SVGID_9_" x="831.2" y="-197" width="8" height="14"/>
					</defs>
					<clipPath id="SVGID_10_">
						<use xlink:href="#SVGID_9_"  overflow="visible"/>
					</clipPath>
					<g id="g28_12_" clip-path="url(#SVGID_10_)">
						<g id="g34_6_" transform="translate(34.1914,15.4902)">
							<path id="path36_6_" fill="#DD2E44" d="M808.397-205.161l-11.307,5.516l0.848,1.74l11.307-5.516L808.397-205.161z"/>
						</g>
						<g id="g38_6_" transform="translate(27.1758,1.1094)">
							<path id="path40_6_" fill="#DD2E44" d="M812.017-197.738l-11.306,5.516l0.848,1.74l11.307-5.516L812.017-197.738z"/>
						</g>
						<g id="g42_6_" transform="translate(32.4375,11.8945)">
							<path id="path44_6_" fill="#FFFFFF" d="M809.302-203.305l-11.306,5.517l0.848,1.738l11.307-5.516L809.302-203.305z"/>
						</g>
						<g id="g46_6_" transform="translate(28.9297,4.7051)">
							<path id="path48_6_" fill="#FFFFFF" d="M811.112-199.593l-11.307,5.516l0.849,1.74l11.306-5.516L811.112-199.593z"/>
						</g>
						<g id="g50_6_" transform="translate(25.4219,-2.4854)">
							<path id="path52_6_" fill="#FFFFFF" d="M812.923-195.883l-11.306,5.516l0.848,1.739l11.306-5.516L812.923-195.883z"/>
						</g>
						<g id="g54_6_" transform="translate(30.6836,8.2998)">
							<path id="path56_6_" fill="#55ACEE" d="M810.207-201.449l-11.306,5.516l0.848,1.74l11.306-5.516L810.207-201.449z"/>
						</g>
					</g>
				</g>
			</g>
			<g id="g58_6_">
				<g>
					<defs>
						<rect id="SVGID_11_" x="823.3" y="-199.5" width="23" height="23"/>
					</defs>
					<clipPath id="SVGID_12_">
						<use xlink:href="#SVGID_11_"  overflow="visible"/>
					</clipPath>
					<g id="g60_8_" clip-path="url(#SVGID_12_)">
						<g id="g66_6_" transform="translate(28,26)">
							<path id="path68_6_" fill="#99AAB5" d="M811.592-210.4c0-0.534-0.434-0.8-0.968-0.8h-6.774c-0.534,0-0.967,0.266-0.967,0.8
								c0,0.534,0.433,0.8,0.967,0.8h6.774C811.159-209.6,811.592-209.866,811.592-210.4"/>
						</g>
						<g id="g70_6_" transform="translate(28,3)">
							<path id="path72_6_" fill="#99AAB5" d="M811.592-198.6c0-0.534-0.434-0.8-0.968-0.8h-6.774c-0.534,0-0.967,0.266-0.967,0.8
								s0.433,0.8,0.967,0.8h6.774C811.159-197.8,811.592-198.066,811.592-198.6"/>
						</g>
					</g>
				</g>
			</g>
		</g>
		<g id="icon_i_1_1_" transform="matrix(1.25,0,0,-1.25,0,47.5)">
			<g id="g12_11_">
				<g>
					<defs>
						<rect id="SVGID_13_" x="865.7" y="-231.5" width="23" height="23"/>
					</defs>
					<clipPath id="SVGID_14_">
						<use xlink:href="#SVGID_13_"  overflow="visible"/>
					</clipPath>
					<g id="g14_11_" clip-path="url(#SVGID_14_)">
						<g id="g20_11_" transform="translate(25,31)">
							<path id="path22_11_" fill="#CCD6DD" d="M855.541-245.166c0-1.603-1.3-2.903-2.903-2.903s-2.903,1.3-2.903,2.903
								c0,1.603,1.3,2.903,2.903,2.903S855.541-243.562,855.541-245.166"/>
						</g>
						<path id="path24_5_" fill="#CCD6DD" d="M880.8-227.6h-6.4v11.2h6.4V-227.6z"/>
					</g>
				</g>
			</g>
			<g id="g26_5_">
				<g>
					<defs>
						<rect id="SVGID_15_" x="873.6" y="-229" width="8" height="14"/>
					</defs>
					<clipPath id="SVGID_16_">
						<use xlink:href="#SVGID_15_"  overflow="visible"/>
					</clipPath>
					<g id="g28_11_" clip-path="url(#SVGID_16_)">
						<g id="g34_5_" transform="translate(34.1914,15.4902)">
							<path id="path36_5_" fill="#DD2E44" d="M850.797-237.161l-11.307,5.516l0.848,1.741l11.307-5.516L850.797-237.161z"/>
						</g>
						<g id="g38_5_" transform="translate(27.1758,1.1094)">
							<path id="path40_5_" fill="#DD2E44" d="M854.417-229.738l-11.306,5.516l0.848,1.74l11.307-5.516L854.417-229.738z"/>
						</g>
						<g id="g42_5_" transform="translate(32.4375,11.8945)">
							<path id="path44_5_" fill="#FFFFFF" d="M851.702-235.305l-11.306,5.517l0.848,1.738l11.307-5.516L851.702-235.305z"/>
						</g>
						<g id="g46_5_" transform="translate(28.9297,4.7051)">
							<path id="path48_5_" fill="#FFFFFF" d="M853.513-231.593l-11.307,5.515l0.849,1.741l11.306-5.516L853.513-231.593z"/>
						</g>
						<g id="g50_5_" transform="translate(25.4219,-2.4854)">
							<path id="path52_5_" fill="#FFFFFF" d="M855.323-227.883l-11.306,5.516l0.848,1.739l11.306-5.516L855.323-227.883z"/>
						</g>
						<g id="g54_5_" transform="translate(30.6836,8.2998)">
							<path id="path56_5_" fill="#55ACEE" d="M852.607-233.449l-11.306,5.516l0.848,1.74l11.306-5.516L852.607-233.449z"/>
						</g>
					</g>
				</g>
			</g>
			<g id="g58_5_">
				<g>
					<defs>
						<rect id="SVGID_17_" x="865.7" y="-231.5" width="23" height="23"/>
					</defs>
					<clipPath id="SVGID_18_">
						<use xlink:href="#SVGID_17_"  overflow="visible"/>
					</clipPath>
					<g id="g60_6_" clip-path="url(#SVGID_18_)">
						<g id="g66_5_" transform="translate(28,26)">
							<path id="path68_5_" fill="#99AAB5" d="M853.992-242.4c0-0.534-0.434-0.8-0.968-0.8h-6.774c-0.534,0-0.967,0.266-0.967,0.8
								c0,0.534,0.433,0.8,0.967,0.8h6.774C853.559-241.6,853.992-241.866,853.992-242.4"/>
						</g>
						<g id="g70_5_" transform="translate(28,3)">
							<path id="path72_5_" fill="#99AAB5" d="M853.992-230.6c0-0.534-0.434-0.8-0.968-0.8h-6.774c-0.534,0-0.967,0.266-0.967,0.8
								s0.433,0.8,0.967,0.8h6.774C853.559-229.8,853.992-230.066,853.992-230.6"/>
						</g>
					</g>
				</g>
			</g>
		</g>
		<g id="icon_c_1_1_" transform="matrix(1.25,0,0,-1.25,0,47.5)">
			<g id="g12_10_">
				<g>
					<defs>
						<rect id="SVGID_19_" x="712.1" y="-233.9" width="23" height="23"/>
					</defs>
					<clipPath id="SVGID_20_">
						<use xlink:href="#SVGID_19_"  overflow="visible"/>
					</clipPath>
					<g id="g14_10_" clip-path="url(#SVGID_20_)">
						<g id="g20_10_" transform="translate(3.4717,30.4277)">
							<path id="path22_10_" fill="#5C913B" d="M713.346-247.258c-0.456-1.03-0.713-2.165-0.713-3.359
								c0-4.684,3.906-8.482,8.724-8.482c3.755,0,6.946,2.311,8.176,5.545L713.346-247.258z"/>
						</g>
						<g id="g24_6_" transform="translate(5.3315,29.7046)">
							<path id="path26_6_" fill="#FFE8B6" d="M712.387-246.886c-0.412-0.922-0.645-1.937-0.645-3.008
								c0-4.163,3.473-7.539,7.755-7.539c3.347,0,6.19,2.065,7.277,4.952L712.387-246.886z"/>
						</g>
						<g id="g28_10_" transform="translate(7.1909,28.9814)">
							<path id="path30_6_" fill="#DD2E44" d="M711.429-246.513c-0.369-0.813-0.577-1.711-0.577-2.656
								c0-3.644,3.038-6.598,6.786-6.598c2.938,0,5.434,1.819,6.377,4.359L711.429-246.513z"/>
						</g>
						<g id="g32_1_" transform="translate(10.916,22.7227)">
							<path id="path34_1_" d="M709.511-243.288c-0.15-0.223-0.359-0.343-0.471-0.269c-0.112,0.075-0.082,0.315,0.067,0.538
								c0.149,0.223,0.359,0.343,0.471,0.268C709.689-242.825,709.659-243.065,709.511-243.288"/>
						</g>
						<g id="g36_1_" transform="translate(16.916,21.7227)">
							<path id="path38_1_" d="M706.418-242.773c-0.148-0.223-0.359-0.343-0.47-0.269c-0.112,0.074-0.082,0.315,0.067,0.538
								c0.148,0.223,0.359,0.344,0.47,0.269C706.596-242.309,706.567-242.55,706.418-242.773"/>
						</g>
						<g id="g40_1_" transform="translate(21.998,17.0449)">
							<path id="path42_1_" d="M703.8-240.362c0.024-0.267-0.064-0.493-0.197-0.505c-0.134-0.013-0.261,0.194-0.285,0.461
								c-0.025,0.267,0.064,0.492,0.197,0.504C703.648-239.889,703.775-240.095,703.8-240.362"/>
						</g>
						<g id="g44_1_" transform="translate(12.998,19.0449)">
							<path id="path46_1_" d="M708.437-241.393c0.024-0.267-0.064-0.493-0.197-0.505c-0.134-0.012-0.26,0.194-0.285,0.461
								c-0.023,0.267,0.064,0.492,0.197,0.504C708.286-240.919,708.413-241.125,708.437-241.393"/>
						</g>
						<g id="g48_1_" transform="translate(16.8994,13.6992)">
							<path id="path50_1_" d="M706.427-238.638c-0.162-0.214-0.378-0.321-0.485-0.241c-0.107,0.08-0.062,0.319,0.099,0.533
								c0.162,0.213,0.378,0.321,0.484,0.241C706.633-238.186,706.588-238.424,706.427-238.638"/>
						</g>
						<g id="g52_1_" transform="translate(24.9355,13.2451)">
							<path id="path54_1_" d="M702.286-238.404c0.131-0.233,0.145-0.474,0.028-0.541c-0.117-0.066-0.318,0.07-0.45,0.303
								c-0.133,0.232-0.145,0.473-0.028,0.54C701.953-238.035,702.154-238.171,702.286-238.404"/>
						</g>
						<g id="g56_1_" transform="translate(17.918,18.2734)">
							<path id="path58_1_" d="M705.902-240.995c0.147-0.224,0.175-0.464,0.062-0.537c-0.111-0.074-0.32,0.048-0.467,0.272
								c-0.147,0.224-0.175,0.465-0.064,0.538C705.546-240.648,705.755-240.77,705.902-240.995"/>
						</g>
						<g id="g60_5_" transform="translate(26.8994,16.6992)">
							<path id="path62_1_" d="M701.274-240.184c-0.162-0.213-0.378-0.321-0.486-0.241c-0.106,0.08-0.062,0.319,0.1,0.533
								c0.161,0.214,0.378,0.321,0.484,0.241C701.48-239.732,701.437-239.97,701.274-240.184"/>
						</g>
					</g>
				</g>
			</g>
		</g>
		<g id="icon_o_1_1_" transform="matrix(1.25,0,0,-1.25,0,47.5)">
			<g id="g12_9_">
				<g>
					<defs>
						<rect id="SVGID_21_" x="796.9" y="-231.5" width="23" height="23"/>
					</defs>
					<clipPath id="SVGID_22_">
						<use xlink:href="#SVGID_21_"  overflow="visible"/>
					</clipPath>
					<g id="g14_9_" clip-path="url(#SVGID_22_)">
						<g id="g20_9_" transform="translate(3.9995,17.5)">
							<path id="path22_9_" fill="#F4900C" d="M797.183-238.388c0,4.435,3.596,8.032,8.032,8.032c4.436,0,8.031-3.597,8.031-8.032
								c0-4.436-3.595-8.032-8.031-8.032C800.779-246.42,797.183-242.824,797.183-238.388"/>
						</g>
						<g id="g24_5_" transform="translate(12.4136,29.4146)">
							<path id="path26_5_" fill="#662113" d="M792.865-244.503c-0.13,0.13-0.388,0.095-0.66-0.059
								c-1.606,1.33-4.212,1.777-4.33,1.797c-0.266,0.044-0.516-0.134-0.559-0.399c-0.044-0.265,0.134-0.516,0.399-0.561
								c0.026-0.005,2.402-0.416,3.807-1.537c-0.134-0.256-0.158-0.495-0.034-0.618c0.19-0.19,0.652-0.036,1.033,0.345
								C792.901-245.155,793.055-244.693,792.865-244.503"/>
						</g>
						<g id="g28_9_" transform="translate(22,36.0005)">
							<path id="path30_5_" fill="#5C913B" d="M787.945-247.883c0,0-1.513-2.102-3.418-2.567c-1.45-0.353-3.377-0.388-3.57,0.06
								c-0.192,0.447,0.765,1.916,2.419,2.625C785.03-247.057,787.945-247.883,787.945-247.883"/>
						</g>
					</g>
				</g>
			</g>
		</g>
		<g id="icon_o_2_1_" transform="matrix(1.25,0,0,-1.25,0,47.5)">
			<g id="g12_7_">
				<g>
					<defs>
						<rect id="SVGID_23_" x="832.1" y="-231.5" width="23" height="23"/>
					</defs>
					<clipPath id="SVGID_24_">
						<use xlink:href="#SVGID_23_"  overflow="visible"/>
					</clipPath>
					<g id="g14_7_" clip-path="url(#SVGID_24_)">
						<g id="g20_7_" transform="translate(3.9995,17.5)">
							<path id="path22_7_" fill="#F4900C" d="M832.383-238.388c0,4.435,3.596,8.032,8.032,8.032s8.031-3.597,8.031-8.032
								c0-4.436-3.595-8.032-8.031-8.032S832.383-242.824,832.383-238.388"/>
						</g>
						<g id="g24_3_" transform="translate(12.4136,29.4146)">
							<path id="path26_3_" fill="#662113" d="M828.065-244.503c-0.13,0.13-0.388,0.095-0.66-0.059
								c-1.606,1.33-4.212,1.777-4.33,1.797c-0.266,0.044-0.516-0.134-0.56-0.399c-0.044-0.265,0.135-0.516,0.4-0.561
								c0.026-0.005,2.402-0.416,3.807-1.537c-0.134-0.256-0.158-0.495-0.034-0.618c0.19-0.19,0.652-0.036,1.033,0.345
								C828.101-245.155,828.255-244.693,828.065-244.503"/>
						</g>
						<g id="g28_7_" transform="translate(22,36.0005)">
							<path id="path30_3_" fill="#5C913B" d="M823.145-247.883c0,0-1.513-2.102-3.418-2.567c-1.45-0.353-3.377-0.388-3.57,0.06
								c-0.192,0.447,0.765,1.916,2.419,2.625C820.23-247.057,823.145-247.883,823.145-247.883"/>
						</g>
					</g>
				</g>
			</g>
		</g>
	</g>
</g>
<g id="icns">
	<g id="watermelon">
		<g id="watermelon_icon_1_">
			<g>
				<g>
					<path fill="#5C913B" d="M199.423,218.486c-41.832,0-75.864-34.032-75.864-75.864c0-7.48,1.098-14.85,3.237-21.94l-7.278-2.836
						c-2.478,8-3.749,16.327-3.749,24.776c0,46.126,37.526,83.653,83.653,83.653c32.253,0,61.792-18.739,75.597-47.827l-7.276-2.836
						C255.121,201.707,228.487,218.486,199.423,218.486z"/>
					<path fill="#DD2E44" d="M252.585,169.704l-110.634-43.116l-7.285-2.839c-1.776,6.106-2.684,12.443-2.684,18.874
						c0,37.188,30.254,67.442,67.442,67.442c25.618,0,49.115-14.66,60.452-37.52L252.585,169.704z"/>
					<path fill="#FFE8B6" d="M199.423,214.275c-39.573,0-71.653-32.08-71.653-71.653c0-7.092,1.041-13.938,2.96-20.407l-3.934-1.533
						c-2.139,7.09-3.237,14.46-3.237,21.94c0,41.832,34.032,75.864,75.864,75.864c29.064,0,55.698-16.779,68.321-42.874
						l-3.934-1.533C252.159,197.881,227.71,214.275,199.423,214.275z"/>
					<path fill="#FFE8B6" d="M199.423,214.275c28.287,0,52.736-16.395,64.387-40.196l-3.936-1.534
						c-11.337,22.859-34.834,37.52-60.452,37.52c-37.188,0-67.442-30.254-67.442-67.442c0-6.431,0.908-12.768,2.684-18.874
						l-3.935-1.534c-1.919,6.469-2.96,13.315-2.96,20.407C127.771,182.195,159.851,214.275,199.423,214.275z"/>
					<rect x="264.606" y="172.414" fill="#5C913B" width="0" height="0.002"/>
					<polygon fill="#5C913B" points="264.607,172.416 264.605,172.415 264.605,172.415 					"/>
					<line fill="#5C913B" x1="264.607" y1="172.416" x2="264.607" y2="172.416"/>
				</g>
				<g id="g32_2_" transform="translate(10.916,22.7227)">
					<path id="path34_2_" d="M146.457,129.686c-1.385,2.074-3.342,3.193-4.379,2.503c-1.037-0.694-0.758-2.931,0.626-5.005
						c1.385-2.075,3.342-3.193,4.379-2.499C148.121,125.374,147.841,127.611,146.457,129.686"/>
				</g>
				<g id="g36_2_" transform="translate(16.916,21.7227)">
					<path id="path38_2_" d="M167.514,135.195c-1.384,2.074-3.341,3.192-4.379,2.503c-1.037-0.694-0.757-2.932,0.627-5.006
						c1.385-2.074,3.342-3.192,4.379-2.498C169.178,130.884,168.898,133.121,167.514,135.195"/>
				</g>
				<g id="g40_2_" transform="translate(21.998,17.0449)">
					<path id="path42_2_" d="M185.35,160.968c0.226,2.485-0.595,4.582-1.83,4.694c-1.245,0.113-2.427-1.804-2.652-4.288
						c-0.229-2.485,0.596-4.582,1.831-4.69C183.943,156.563,185.124,158.479,185.35,160.968"/>
				</g>
				<g id="g44_2_" transform="translate(12.998,19.0449)">
					<path id="path46_2_" d="M153.764,149.949c0.226,2.484-0.595,4.581-1.831,4.694c-1.245,0.112-2.426-1.804-2.651-4.289
						c-0.226-2.484,0.595-4.581,1.831-4.689C152.356,145.543,153.538,147.46,153.764,149.949"/>
				</g>
				<g id="g48_2_" transform="translate(16.8994,13.6992)">
					<path id="path50_2_" d="M167.456,179.401c-1.502,1.989-3.518,2.99-4.51,2.241c-1.001-0.748-0.582-2.967,0.92-4.956
						c1.506-1.988,3.522-2.989,4.51-2.241C169.377,175.194,168.962,177.413,167.456,179.401"/>
				</g>
				<g id="g52_2_" transform="translate(24.9355,13.2451)">
					<path id="path54_2_" d="M195.659,181.903c1.227,2.169,1.349,4.415,0.271,5.028c-1.091,0.618-2.963-0.641-4.189-2.814
						c-1.235-2.164-1.348-4.41-0.266-5.027C192.562,178.467,194.429,179.73,195.659,181.903"/>
				</g>
				<g id="g56_2_" transform="translate(17.918,18.2734)">
					<path id="path58_2_" d="M171.031,154.199c1.367,2.088,1.633,4.32,0.591,5.001c-1.042,0.69-2.99-0.446-4.356-2.534
						c-1.367-2.083-1.628-4.32-0.591-5.001C167.716,150.976,169.665,152.107,171.031,154.199"/>
				</g>
				<g id="g60_7_" transform="translate(26.8994,16.6992)">
					<path id="path62_2_" d="M202.552,162.873c-1.502,1.988-3.518,2.989-4.514,2.241c-0.997-0.749-0.582-2.968,0.924-4.956
						c1.502-1.993,3.518-2.99,4.51-2.241C204.473,158.665,204.063,160.884,202.552,162.873"/>
				</g>
			</g>
			<circle fill="none" cx="199" cy="143.711" r="83"/>
		</g>
		<g id="lttr_c">
			<path id="letter_c_1_" fill="none" stroke="#FFFFFF" stroke-width="8.4216" stroke-miterlimit="10" d="M250.09,193.289
				c-27.982,27.981-73.351,27.981-101.333,0c-27.982-27.982-27.982-73.351,0-101.333c27.982-27.982,73.35-27.982,101.333,0"/>
		</g>
	</g>
	<g id="pole_1_">
		<g id="pole_icon" transform="matrix(1.25,0,0,-1.25,0,47.5)">
			<g id="g12_6_">
				<g>
					<defs>
						<rect id="SVGID_25_" x="395" y="-154.8" width="170" height="168"/>
					</defs>
					<clipPath id="SVGID_26_">
						<use xlink:href="#SVGID_25_"  overflow="visible"/>
					</clipPath>
					<g id="g14_6_" clip-path="url(#SVGID_26_)">
						<g id="g20_6_" transform="translate(25,31)">
							<path id="path22_6_" fill="#CCD6DD" d="M476.734-59.474c0-11.849-9.609-21.459-21.459-21.459
								c-11.848,0-21.458,9.61-21.458,21.459c0,11.848,9.609,21.458,21.458,21.458C467.124-38.016,476.734-47.626,476.734-59.474"/>
						</g>
						<path id="path24_4_" fill="#CCD6DD" d="M505.6-125.2h-50.4v76.8h50.4V-125.2z"/>
					</g>
				</g>
			</g>
			<g id="g26_4_">
				<g>
					<defs>
						<rect id="SVGID_27_" x="448.9" y="-134.8" width="63" height="96"/>
					</defs>
					<clipPath id="SVGID_28_">
						<use xlink:href="#SVGID_27_"  overflow="visible"/>
					</clipPath>
					<g id="g28_6_" clip-path="url(#SVGID_28_)">
						<g id="g34_4_" transform="translate(34.1914,15.4902)">
							<path id="path36_4_" fill="#DD2E44" d="M500.415-99.434l-83.573,40.768l6.277,12.861l83.57-40.771L500.415-99.434z"/>
						</g>
						<g id="g38_4_" transform="translate(27.1758,1.1094)">
							<path id="path40_4_" fill="#DD2E44" d="M482.34-136.485l-83.57,40.771l6.27,12.857l83.573-40.768L482.34-136.485z"/>
						</g>
						<g id="g42_4_" transform="translate(32.4375,11.8945)">
							<path id="path44_4_" fill="#FFFFFF" d="M495.896-108.698l-83.57,40.774l6.27,12.854l83.573-40.768L495.896-108.698z"/>
						</g>
						<g id="g46_4_" transform="translate(28.9297,4.7051)">
							<path id="path48_4_" fill="#FFFFFF" d="M486.859-127.221l-83.574,40.767l6.277,12.861l83.57-40.771L486.859-127.221z"/>
						</g>
						<g id="g50_4_" transform="translate(25.4219,-2.4854)">
							<path id="path52_4_" fill="#FFFFFF" d="M477.821-145.747l-83.57,40.771l6.273,12.857l83.57-40.771L477.821-145.747z"/>
						</g>
						<g id="g54_4_" transform="translate(30.6836,8.2998)">
							<path id="path56_4_" fill="#55ACEE" d="M491.377-117.959l-83.57,40.771l6.273,12.861l83.57-40.775L491.377-117.959z"/>
						</g>
					</g>
				</g>
			</g>
			<g id="g58_4_">
				<g>
					<defs>
						<rect id="SVGID_29_" x="395" y="-154.8" width="170" height="168"/>
					</defs>
					<clipPath id="SVGID_30_">
						<use xlink:href="#SVGID_29_"  overflow="visible"/>
					</clipPath>
					<g id="g60_4_" clip-path="url(#SVGID_30_)">
						<g id="g66_4_" transform="translate(28,26)">
							<path id="path68_4_" fill="#99AAB5" d="M484.463-72.4c0-3.948-3.205-7.6-7.153-7.6h-50.07c-3.948,0-7.153,3.652-7.153,7.6
								s3.205,7.6,7.153,7.6h50.07C481.259-64.8,484.463-68.452,484.463-72.4"/>
						</g>
						<g id="g70_4_" transform="translate(28,3)">
							<path id="path72_4_" fill="#99AAB5" d="M484.463-132.2c0-3.948-3.205-7.2-7.153-7.2h-50.07c-3.948,0-7.153,3.252-7.153,7.2
								c0,3.948,3.205,7.2,7.153,7.2h50.07C481.259-125,484.463-128.252,484.463-132.2"/>
						</g>
					</g>
				</g>
			</g>
		</g>
		<g id="lttr_i">
			
				<line id="letter_i" fill="none" stroke="#FFFFFF" stroke-width="9" stroke-miterlimit="10" x1="599.5" y1="67" x2="599.5" y2="218"/>
		</g>
	</g>
	<g id="orange">
		<g id="orange_icon_1_" transform="matrix(1.25,0,0,-1.25,0,47.5)">
			<g id="g12_8_">
				<g>
					<defs>
						<rect id="SVGID_31_" x="714.1" y="-155" width="171" height="170"/>
					</defs>
					<clipPath id="SVGID_32_">
						<use xlink:href="#SVGID_31_"  overflow="visible"/>
					</clipPath>
					<g id="g14_8_" clip-path="url(#SVGID_32_)">
						<g id="g20_8_" transform="translate(3.9995,17.5)">
							<path id="path22_8_" fill="#F4900C" d="M741.647-93.582c0,33.001,26.753,59.758,59.758,59.758
								c33.004,0,59.757-26.757,59.757-59.758c0-33.005-26.753-59.758-59.757-59.758C768.401-153.34,741.647-126.587,741.647-93.582
								"/>
						</g>
						<g id="g24_4_" transform="translate(12.4136,29.4146)">
							<path id="path26_4_" fill="#662113" d="M763.706-62.345c-0.966,0.967-2.887,0.713-4.907-0.435
								c-11.952,9.895-31.339,13.227-32.216,13.371c-1.977,0.326-3.835-1.004-4.164-2.973c-0.33-1.97,0.999-3.839,2.973-4.169
								c0.191-0.036,17.866-3.093,28.325-11.445c-0.996-1.901-1.173-3.676-0.254-4.592c1.412-1.416,4.853-0.268,7.682,2.561
								C763.974-67.199,765.122-63.758,763.706-62.345"/>
						</g>
						<g id="g28_8_" transform="translate(22,36.0005)">
							<path id="path30_4_" fill="#5C913B" d="M788.838-45.079c0,0-11.249-15.638-25.427-19.097
								c-10.789-2.633-25.128-2.886-26.558,0.442c-1.427,3.329,5.693,14.259,17.995,19.532
								C767.152-38.93,788.838-45.079,788.838-45.079"/>
						</g>
					</g>
				</g>
			</g>
		</g>
		<g id="lttr_o">
			<g id="letter_o_1_">
				<g>
					<path fill="#FFFFFF" d="M1006.424,76.063c36.701,0,66.559,29.858,66.559,66.56s-29.857,66.56-66.559,66.56
						s-66.559-29.858-66.559-66.56S969.723,76.063,1006.424,76.063 M1006.424,67.198c-41.656,0-75.424,33.769-75.424,75.424
						s33.768,75.424,75.424,75.424c41.655,0,75.424-33.769,75.424-75.424S1048.079,67.198,1006.424,67.198L1006.424,67.198z"/>
				</g>
			</g>
		</g>
	</g>
</g>
</svg>
