<?xml version="1.0" encoding="utf-8"?>
<!-- Generator: Adobe Illustrator 18.0.0, SVG Export Plug-In . SVG Version: 6.00 Build 0)  -->
<!DOCTYPE svg PUBLIC "-//W3C//DTD SVG 1.1//EN" "http://www.w3.org/Graphics/SVG/1.1/DTD/svg11.dtd">
<svg version="1.1" id="Layer_1" xmlns="http://www.w3.org/2000/svg" xmlns:xlink="http://www.w3.org/1999/xlink" x="0px" y="0px"
	 viewBox="0 0 400 400" enable-background="new 0 0 400 400" xml:space="preserve">
<polyline fill="#283344" points="87.5,400 87.5,0 312.5,0 312.5,400 "/>
<g id="back">
</g>
<g id="notes">
</g>
<g id="input">
</g>
<g id="landing_pages">
</g>
<g id="onboarding">
</g>
<g id="top">
	<g>
		<path fill="#F46060" d="M251.5,358.9H146.9c-6.6,0-12.1-5.4-12.1-12.1l0,0c0-6.6,5.4-12.1,12.1-12.1h104.6
			c6.6,0,12.1,5.4,12.1,12.1l0,0C263.6,353.4,258.2,358.9,251.5,358.9z"/>
	</g>
</g>
<g id="tap">
</g>
<g>
	<rect x="107" y="340.8" fill="none" width="186" height="33.4"/>
	<text transform="matrix(1 0 0 1 153.7152 352.3867)" fill="#FFFFFF" font-family="'FiraMono-Medium'" font-size="15.4286">Go for it!</text>
</g>
<g>
	<text transform="matrix(1 0 0 1 116.6869 182.4496)" fill="#FFFFFF" font-family="'FiraMono-Medium'" font-size="15.4286">THAT’S IT. NOW YOU</text>
	<text transform="matrix(1 0 0 1 130.5443 200.95)" fill="#FFFFFF" font-family="'FiraMono-Medium'" font-size="15.4286">KNOW THE BASICS</text>
	<text transform="matrix(1 0 0 1 139.83 219.4501)" fill="#FFFFFF" font-family="'FiraMono-Medium'" font-size="15.4286">OF HOW SIMPLE</text>
	<text transform="matrix(1 0 0 1 135.1873 238.0214)" fill="#FFFFFF" font-family="'FiraMono-Medium'" font-size="15.4286">CIPHERS WORK. </text>
	<text transform="matrix(1 0 0 1 130.5443 275.0214)" fill="#FFFFFF" font-family="'FiraMono-Medium'" font-size="15.4286">TRY IT YOURSELF</text>
	<text transform="matrix(1 0 0 1 135.1873 293.5214)" fill="#FFFFFF" font-family="'FiraMono-Medium'" font-size="15.4286">AND SHARE WITH</text>
	<text transform="matrix(1 0 0 1 139.83 312.0213)" fill="#FFFFFF" font-family="'FiraMono-Medium'" font-size="15.4286">YOUR FRIENDS.</text>
</g>
</svg>
