<?xml version="1.0" encoding="utf-8"?>
<!-- Generator: Adobe Illustrator 18.0.0, SVG Export Plug-In . SVG Version: 6.00 Build 0)  -->
<!DOCTYPE svg PUBLIC "-//W3C//DTD SVG 1.1//EN" "http://www.w3.org/Graphics/SVG/1.1/DTD/svg11.dtd">
<svg version="1.1" xmlns="http://www.w3.org/2000/svg" xmlns:xlink="http://www.w3.org/1999/xlink" x="0px" y="0px"
	 viewBox="0 0 315 560.1" enable-background="new 0 0 315 560.1" xml:space="preserve">
<g id="back">
</g>
<g id="notes">
</g>
<g id="input">
</g>
<g id="landing_pages">
</g>
<g id="onboarding">
	<g>
		<polyline fill="#283344" points="0.5,560.1 0.5,0.1 314.6,0.1 314.6,560.1 		"/>
		<g>
			<path fill="#FFFFFF" d="M38.7,310.9l-1,3.3h-2.4l4.4-13.8h2.9l4.4,13.8h-2.5l-1-3.3H38.7z M43.1,309.1l-2-6.9l-2,6.9H43.1z"/>
			<path fill="#FFFFFF" d="M66.9,314.5c-2.2,0-3.9-0.7-5.1-1.8l1.3-1.4c1,0.9,2.2,1.4,3.8,1.4c1.6,0,2.9-0.7,2.9-2.2
				c0-1.2-0.6-1.8-2.8-2.5c-2.9-0.9-4.5-2-4.5-4.1c0-2.3,2-3.7,4.7-3.7c2,0,3.4,0.6,4.6,1.7l-1.2,1.4c-1-0.8-2.1-1.2-3.3-1.2
				c-1.4,0-2.5,0.6-2.5,1.8c0,1.1,0.8,1.6,3.2,2.3c2.3,0.7,4.1,1.7,4.1,4.3C72.2,312.8,70.2,314.5,66.9,314.5z"/>
			<path fill="#FFFFFF" d="M84.4,302.2h-3v10.3h3v1.8H76v-1.8h3v-10.3h-3v-1.8h8.3V302.2z"/>
			<path fill="#FFFFFF" d="M98.7,314.3h-2.1l-0.3-6.7c-0.1-2-0.1-3.9,0-5l-2,9.3h-2l-2.2-9.3c0.1,1.1,0.1,3.1,0.1,5.1l-0.3,6.7h-2.1
				l0.8-13.8h2.8l2,9.2l1.9-9.2h2.8L98.7,314.3z"/>
			<path fill="#FFFFFF" d="M106.1,309.3h-1.7v4.9h-2.3v-13.8h3.8c3.5,0,5.5,1.4,5.5,4.3C111.5,308,109.3,309.3,106.1,309.3z
				 M106.1,302.2h-1.7v5.4h1.7c1.7,0,2.9-0.7,2.9-2.8C109.1,302.9,107.9,302.2,106.1,302.2z"/>
			<path fill="#FFFFFF" d="M115.6,300.4h2.3v11.9h6.2l-0.3,1.9h-8.2V300.4z"/>
			<path fill="#FFFFFF" d="M130.8,306.4h5v1.7h-5v4.4h6.1v1.8h-8.4v-13.8h8.3l-0.3,1.8h-5.7V306.4z"/>
			<path fill="#FFFFFF" d="M156.8,306.4h5v1.7h-5v4.4h6.1v1.8h-8.4v-13.8h8.3l-0.3,1.8h-5.7V306.4z"/>
			<path fill="#FFFFFF" d="M168.4,302.5c0.1,0.8,0.3,3.2,0.3,5.5v6.3h-2.1v-13.8h3l4.4,11.7c-0.1-0.8-0.3-3-0.3-5.5v-6.3h2.1v13.8
				h-3L168.4,302.5z"/>
			<path fill="#FFFFFF" d="M189.5,301.6l-1.2,1.4c-0.8-0.7-1.8-1-2.9-1c-2.1,0-3.8,1.4-3.8,5.3c0,3.8,1.6,5.3,3.8,5.3
				c1.5,0,2.4-0.6,3.1-1.2l1.1,1.4c-0.9,0.9-2.3,1.6-4.3,1.6c-3.5,0-6.2-2.5-6.2-7.2c0-4.6,2.8-7.2,6.1-7.2
				C187.2,300.2,188.4,300.7,189.5,301.6z"/>
			<path fill="#FFFFFF" d="M199,308.3l3.9,6h-2.7l-3.5-5.7h-1.5v5.7h-2.3v-13.8h3.8c3.5,0,5.4,1.3,5.4,4
				C202.1,306.5,200.8,307.7,199,308.3z M196.9,302.2h-1.7v4.7h1.7c1.8,0,2.8-0.7,2.8-2.4C199.7,302.8,198.8,302.2,196.9,302.2z"/>
			<path fill="#FFFFFF" d="M211.4,314.3H209V309l-4.6-8.5h2.6l3.3,6.5l3.3-6.5h2.4l-4.6,8.5V314.3z"/>
			<path fill="#FFFFFF" d="M223.1,309.3h-1.7v4.9h-2.3v-13.8h3.8c3.5,0,5.5,1.4,5.5,4.3C228.5,308,226.3,309.3,223.1,309.3z
				 M223.1,302.2h-1.7v5.4h1.7c1.7,0,2.9-0.7,2.9-2.8C226.1,302.9,224.9,302.2,223.1,302.2z"/>
			<path fill="#FFFFFF" d="M237.3,314.3H235v-11.9h-4.2v-1.9h10.7l-0.2,1.9h-4V314.3z"/>
			<path fill="#FFFFFF" d="M253.4,302.2h-3v10.3h3v1.8H245v-1.8h3v-10.3h-3v-1.8h8.3V302.2z"/>
			<path fill="#FFFFFF" d="M262.2,314.5c-3.5,0-5.2-2.8-5.2-7.1c0-4.3,1.8-7.2,5.2-7.2c3.5,0,5.2,2.8,5.2,7.2
				C267.4,311.6,265.7,314.5,262.2,314.5z M262.2,302c-2,0-2.9,1.8-2.9,5.4c0,3.6,0.9,5.3,2.9,5.3c2,0,2.9-1.8,2.9-5.4
				S264.2,302,262.2,302z"/>
			<path fill="#FFFFFF" d="M272.4,302.5c0.1,0.8,0.3,3.2,0.3,5.5v6.3h-2.1v-13.8h3l4.4,11.7c-0.1-0.8-0.3-3-0.3-5.5v-6.3h2.1v13.8
				h-3L272.4,302.5z"/>
			<path fill="#FFFFFF" d="M66.9,338.5c-2.2,0-3.9-0.7-5.1-1.8l1.3-1.4c1,0.9,2.2,1.4,3.8,1.4c1.6,0,2.9-0.7,2.9-2.2
				c0-1.2-0.6-1.8-2.8-2.5c-2.9-0.9-4.5-2-4.5-4.1c0-2.3,2-3.7,4.7-3.7c2,0,3.4,0.6,4.6,1.7l-1.2,1.4c-1-0.8-2.1-1.2-3.3-1.2
				c-1.4,0-2.5,0.6-2.5,1.8c0,1.1,0.8,1.6,3.2,2.3c2.3,0.7,4.1,1.7,4.1,4.3C72.2,336.8,70.2,338.5,66.9,338.5z"/>
			<path fill="#FFFFFF" d="M85.5,325.6l-1.2,1.4c-0.8-0.7-1.8-1-2.9-1c-2.1,0-3.8,1.4-3.8,5.3c0,3.8,1.6,5.3,3.8,5.3
				c1.5,0,2.4-0.6,3.1-1.2l1.1,1.4c-0.9,0.9-2.3,1.6-4.3,1.6c-3.5,0-6.2-2.5-6.2-7.2c0-4.6,2.8-7.2,6.1-7.2
				C83.2,324.2,84.4,324.7,85.5,325.6z"/>
			<path fill="#FFFFFF" d="M95,332.3l3.9,6h-2.7l-3.5-5.7h-1.5v5.7h-2.3v-13.8h3.8c3.5,0,5.4,1.3,5.4,4
				C98.1,330.5,96.8,331.7,95,332.3z M92.9,326.2h-1.7v4.7h1.7c1.8,0,2.8-0.7,2.8-2.4C95.7,326.8,94.8,326.2,92.9,326.2z"/>
			<path fill="#FFFFFF" d="M103.7,334.9l-1,3.3h-2.4l4.4-13.8h2.9l4.4,13.8h-2.5l-1-3.3H103.7z M108.1,333.1l-2-6.9l-2,6.9H108.1z"
				/>
			<path fill="#FFFFFF" d="M124.7,338.3h-2.1l-0.3-6.7c-0.1-2-0.1-3.9,0-5l-2,9.3h-2l-2.2-9.3c0.1,1.1,0.1,3.1,0.1,5.1l-0.3,6.7
				h-2.1l0.8-13.8h2.8l2,9.2l1.9-9.2h2.8L124.7,338.3z"/>
			<path fill="#FFFFFF" d="M131.9,338.3h-4v-13.8h3.8c2.6,0,5,0.8,5,3.5c0,1.7-1.2,2.7-2.6,3c1.5,0.3,3.2,1.1,3.2,3.3
				C137.2,337.4,134.6,338.3,131.9,338.3z M131.8,326.2h-1.7v4h1.8c1.5,0,2.3-0.6,2.3-2C134.3,326.7,133.4,326.2,131.8,326.2z
				 M132.1,331.9h-2v4.5h1.9c1.3,0,2.8-0.3,2.8-2.2C134.8,332.4,133.6,331.9,132.1,331.9z"/>
			<path fill="#FFFFFF" d="M141.6,324.4h2.3v11.9h6.2l-0.3,1.9h-8.2V324.4z"/>
			<path fill="#FFFFFF" d="M156.8,330.4h5v1.7h-5v4.4h6.1v1.8h-8.4v-13.8h8.3l-0.3,1.8h-5.7V330.4z"/>
			<path fill="#FFFFFF" d="M170.9,338.5c-2.2,0-3.9-0.7-5.1-1.8l1.3-1.4c1,0.9,2.2,1.4,3.8,1.4c1.6,0,2.9-0.7,2.9-2.2
				c0-1.2-0.6-1.8-2.8-2.5c-2.9-0.9-4.5-2-4.5-4.1c0-2.3,2-3.7,4.7-3.7c2,0,3.4,0.6,4.6,1.7l-1.2,1.4c-1-0.8-2.1-1.2-3.3-1.2
				c-1.4,0-2.5,0.6-2.5,1.8c0,1.1,0.8,1.6,3.2,2.3c2.3,0.7,4.1,1.7,4.1,4.3C176.2,336.8,174.2,338.5,170.9,338.5z"/>
			<path fill="#FFFFFF" d="M201.3,338.3h-2.7l-1.4-10.2l-1.4,10.2H193l-1.8-13.8h2.2l1.1,11.6l1.5-10h2.4l1.4,10l1.3-11.6h2.1
				L201.3,338.3z"/>
			<path fill="#FFFFFF" d="M210.2,338.5c-3.5,0-5.2-2.8-5.2-7.1c0-4.3,1.8-7.2,5.2-7.2c3.5,0,5.2,2.8,5.2,7.2
				C215.4,335.6,213.7,338.5,210.2,338.5z M210.2,326c-2,0-2.9,1.8-2.9,5.4c0,3.6,0.9,5.3,2.9,5.3c2,0,2.9-1.8,2.9-5.4
				S212.2,326,210.2,326z"/>
			<path fill="#FFFFFF" d="M225,332.3l3.9,6h-2.7l-3.5-5.7h-1.5v5.7h-2.3v-13.8h3.8c3.5,0,5.4,1.3,5.4,4
				C228.1,330.5,226.8,331.7,225,332.3z M222.9,326.2h-1.7v4.7h1.7c1.8,0,2.8-0.7,2.8-2.4C225.7,326.8,224.8,326.2,222.9,326.2z"/>
			<path fill="#FFFFFF" d="M235,338.3h-3.4v-13.8h3.2c3.4,0,6.6,1.1,6.6,6.8C241.4,337,238.1,338.3,235,338.3z M235.2,326.2h-1.3
				v10.3h1.3c1.9,0,3.7-1,3.7-5.2C239,326.9,237.1,326.2,235.2,326.2z"/>
			<path fill="#FFFFFF" d="M248.9,338.5c-2.2,0-3.9-0.7-5.1-1.8l1.3-1.4c1,0.9,2.2,1.4,3.8,1.4c1.6,0,2.9-0.7,2.9-2.2
				c0-1.2-0.6-1.8-2.8-2.5c-2.9-0.9-4.5-2-4.5-4.1c0-2.3,2-3.7,4.7-3.7c2,0,3.4,0.6,4.6,1.7l-1.2,1.4c-1-0.8-2.1-1.2-3.3-1.2
				c-1.4,0-2.5,0.6-2.5,1.8c0,1.1,0.8,1.6,3.2,2.3c2.3,0.7,4.1,1.7,4.1,4.3C254.2,336.8,252.2,338.5,248.9,338.5z"/>
			<path fill="#FFFFFF" d="M97.4,350.2h-3v10.3h3v1.8H89v-1.8h3v-10.3h-3v-1.8h8.3V350.2z"/>
			<path fill="#FFFFFF" d="M103.4,350.5c0.1,0.8,0.3,3.2,0.3,5.5v6.3h-2.1v-13.8h3l4.4,11.7c-0.1-0.8-0.3-3-0.3-5.5v-6.3h2.1v13.8
				h-3L103.4,350.5z"/>
			<path fill="#FFFFFF" d="M120.3,362.3H118v-11.9h-4.2v-1.9h10.7l-0.2,1.9h-4V362.3z"/>
			<path fill="#FFFFFF" d="M132.2,362.5c-3.5,0-5.2-2.8-5.2-7.1c0-4.3,1.8-7.2,5.2-7.2c3.5,0,5.2,2.8,5.2,7.2
				C137.4,359.6,135.7,362.5,132.2,362.5z M132.2,350c-2,0-2.9,1.8-2.9,5.4c0,3.6,0.9,5.3,2.9,5.3c2,0,2.9-1.8,2.9-5.4
				S134.2,350,132.2,350z"/>
			<path fill="#FFFFFF" d="M156.8,354.4h5v1.7h-5v4.4h6.1v1.8h-8.4v-13.8h8.3l-0.3,1.8h-5.7V354.4z"/>
			<path fill="#FFFFFF" d="M176.7,362.3h-2.1l-0.3-6.7c-0.1-2-0.1-3.9,0-5l-2,9.3h-2l-2.2-9.3c0.1,1.1,0.1,3.1,0.1,5.1l-0.3,6.7
				h-2.1l0.8-13.8h2.8l2,9.2l1.9-9.2h2.8L176.7,362.3z"/>
			<path fill="#FFFFFF" d="M184.2,362.5c-3.5,0-5.2-2.8-5.2-7.1c0-4.3,1.8-7.2,5.2-7.2c3.5,0,5.2,2.8,5.2,7.2
				C189.4,359.6,187.7,362.5,184.2,362.5z M184.2,350c-2,0-2.9,1.8-2.9,5.4c0,3.6,0.9,5.3,2.9,5.3c2,0,2.9-1.8,2.9-5.4
				S186.2,350,184.2,350z"/>
			<path fill="#FFFFFF" d="M201.4,357.5c0,2.7-1.4,5-5,5c-1.5,0-2.8-0.5-3.9-1.3l0.9-1.5c1.1,0.7,2,0.9,2.9,0.9
				c1.7,0,2.8-1.2,2.8-3.2v-7.2h-4.1v-1.8h6.5V357.5z"/>
			<path fill="#FFFFFF" d="M214.4,350.2h-3v10.3h3v1.8H206v-1.8h3v-10.3h-3v-1.8h8.3V350.2z"/>
			<path fill="#FFFFFF" d="M222.9,362.5c-2.2,0-3.9-0.7-5.1-1.8l1.3-1.4c1,0.9,2.2,1.4,3.8,1.4c1.6,0,2.9-0.7,2.9-2.2
				c0-1.2-0.6-1.8-2.8-2.5c-2.9-0.9-4.5-2-4.5-4.1c0-2.3,2-3.7,4.7-3.7c2,0,3.4,0.6,4.6,1.7l-1.2,1.4c-1-0.8-2.1-1.2-3.3-1.2
				c-1.4,0-2.5,0.6-2.5,1.8c0,1.1,0.8,1.6,3.2,2.3c2.3,0.7,4.1,1.7,4.1,4.3C228.2,360.8,226.2,362.5,222.9,362.5z"/>
			<path fill="#FFFFFF" d="M81.4,386.3H79V381l-4.6-8.5H77l3.3,6.5l3.3-6.5H86l-4.6,8.5V386.3z"/>
			<path fill="#FFFFFF" d="M93.2,386.5c-3.5,0-5.2-2.8-5.2-7.1c0-4.3,1.8-7.2,5.2-7.2c3.5,0,5.2,2.8,5.2,7.2
				C98.4,383.6,96.7,386.5,93.2,386.5z M93.2,374c-2,0-2.9,1.8-2.9,5.4c0,3.6,0.9,5.3,2.9,5.3c2,0,2.9-1.8,2.9-5.4
				S95.2,374,93.2,374z"/>
			<path fill="#FFFFFF" d="M111,381.7c0,2.8-1.8,4.8-4.8,4.8c-3.1,0-4.8-1.9-4.8-4.8v-9.3h2.3v8.8c0,2.3,0.7,3.4,2.4,3.4
				c1.7,0,2.5-1.1,2.5-3.4v-8.8h2.3V381.7z"/>
			<path fill="#FFFFFF" d="M137.5,373.6l-1.2,1.4c-0.8-0.7-1.8-1-2.9-1c-2.1,0-3.8,1.4-3.8,5.3c0,3.8,1.6,5.3,3.8,5.3
				c1.5,0,2.4-0.6,3.1-1.2l1.1,1.4c-0.9,0.9-2.3,1.6-4.3,1.6c-3.5,0-6.2-2.5-6.2-7.2c0-4.6,2.8-7.2,6.1-7.2
				C135.2,372.2,136.4,372.7,137.5,373.6z"/>
			<path fill="#FFFFFF" d="M142.7,382.9l-1,3.3h-2.4l4.4-13.8h2.9l4.4,13.8h-2.5l-1-3.3H142.7z M147.1,381.1l-2-6.9l-2,6.9H147.1z"
				/>
			<path fill="#FFFFFF" d="M155.4,374.5c0.1,0.8,0.3,3.2,0.3,5.5v6.3h-2.1v-13.8h3l4.4,11.7c-0.1-0.8-0.3-3-0.3-5.5v-6.3h2.1v13.8
				h-3L155.4,374.5z"/>
			<path fill="#FFFFFF" d="M183.9,386.5c-2.2,0-3.9-0.7-5.1-1.8l1.3-1.4c1,0.9,2.2,1.4,3.8,1.4c1.6,0,2.9-0.7,2.9-2.2
				c0-1.2-0.6-1.8-2.8-2.5c-2.9-0.9-4.5-2-4.5-4.1c0-2.3,2-3.7,4.7-3.7c2,0,3.4,0.6,4.6,1.7l-1.2,1.4c-1-0.8-2.1-1.2-3.3-1.2
				c-1.4,0-2.5,0.6-2.5,1.8c0,1.1,0.8,1.6,3.2,2.3c2.3,0.7,4.1,1.7,4.1,4.3C189.2,384.8,187.2,386.5,183.9,386.5z"/>
			<path fill="#FFFFFF" d="M199.5,380h-4.5v6.3h-2.3v-13.8h2.3v5.6h4.5v-5.6h2.3v13.8h-2.3V380z"/>
			<path fill="#FFFFFF" d="M207.7,382.9l-1,3.3h-2.4l4.4-13.8h2.9l4.4,13.8h-2.5l-1-3.3H207.7z M212.1,381.1l-2-6.9l-2,6.9H212.1z"
				/>
			<path fill="#FFFFFF" d="M225,380.3l3.9,6h-2.7l-3.5-5.7h-1.5v5.7h-2.3v-13.8h3.8c3.5,0,5.4,1.3,5.4,4
				C228.1,378.5,226.8,379.7,225,380.3z M222.9,374.2h-1.7v4.7h1.7c1.8,0,2.8-0.7,2.8-2.4C225.7,374.8,224.8,374.2,222.9,374.2z"/>
			<path fill="#FFFFFF" d="M234.8,378.4h5v1.7h-5v4.4h6.1v1.8h-8.4v-13.8h8.3l-0.3,1.8h-5.7V378.4z"/>
		</g>
		<g opacity="0.2">
			<circle fill="#FFFFFF" cx="118.2" cy="506.9" r="6.8"/>
		</g>
		<g opacity="0.2">
			<circle fill="#FFFFFF" cx="92.2" cy="506.9" r="6.8"/>
		</g>
		<g opacity="0.2">
			<circle fill="#FFFFFF" cx="144.8" cy="506.9" r="6.8"/>
		</g>
		<g opacity="0.2">
			<circle fill="#FFFFFF" cx="171.3" cy="506.9" r="6.8"/>
		</g>
		<g opacity="0.2">
			<circle fill="#FFFFFF" cx="197.6" cy="506.9" r="6.8"/>
		</g>
		<g opacity="0.2">
			<circle fill="#FFFFFF" cx="224.6" cy="506.9" r="6.8"/>
		</g>
		<g id="g10_110_" transform="matrix(1.25,0,0,-1.25,0,47.5)">
			<g id="g12_128_">
				<g id="g14_127_">
					<g id="g20_119_" transform="translate(36,19)">
						<path id="path22_119_" fill="#FFCC4D" d="M64-386.5c0-3-2.4-5.4-5.4-5.4s-5.4,2.4-5.4,5.4c0,3,2.4,5.4,5.4,5.4
							S64-383.5,64-386.5"/>
					</g>
					<g id="g24_109_" transform="translate(19,16)">
						<path id="path26_109_" fill="#664500" d="M75.6-384.5c-1.2,0-1.9,0.1-2.9,0.3c-0.2,0-0.6,0-0.6-0.6c0-1.3,1.5-2.9,3.5-2.9
							c2,0,3.5,1.6,3.5,2.9c0,0.6-0.4,0.7-0.6,0.6C77.5-384.3,76.7-384.5,75.6-384.5"/>
					</g>
					<g id="g28_79_" transform="translate(11,24)">
						<path id="path30_70_" fill="#664500" d="M81-389.9c0,0,0,0.6,0.6,0.6c0.6,0,0.6-0.6,0.6-0.6v-0.6c0,0,0-0.6-0.6-0.6
							c-0.6,0-0.6,0.6-0.6,0.6V-389.9z"/>
					</g>
					<g id="g32_56_" transform="translate(23,24)">
						<path id="path34_55_" fill="#664500" d="M72.9-389.9c0,0,0,0.6,0.6,0.6c0.6,0,0.6-0.6,0.6-0.6v-0.6c0,0,0-0.6-0.6-0.6
							c-0.6,0-0.6,0.6-0.6,0.6V-389.9z"/>
					</g>
					<g id="g36_50_" transform="translate(10,15)">
						<path id="path38_50_" fill="#FFFFFF" d="M81.7-383.8c0,0,1-0.3,2.9-0.3c1.9,0,2.9,0.3,2.9,0.3s-0.6-1.3-2.9-1.3
							S81.7-383.8,81.7-383.8"/>
					</g>
				</g>
			</g>
		</g>
		<rect x="0" y="0" fill="#FFFFFF" width="315" height="42"/>
		<g>
			<g>
				<path fill="#005189" d="M105.7,22.9l4.7,7.3h-3.3l-4.2-6.9h-1.8v6.9h-2.8V13.4h4.6c4.3,0,6.5,1.6,6.5,4.8
					C109.4,20.7,107.8,22.2,105.7,22.9z M103.1,15.5h-2v5.7h2.1c2.1,0,3.3-0.8,3.3-2.9C106.5,16.3,105.4,15.5,103.1,15.5z"/>
			</g>
			<g>
				<path fill="#005189" d="M134.8,24.2h-2v5.9H130V13.4h4.6c4.2,0,6.7,1.7,6.7,5.2C141.3,22.6,138.6,24.2,134.8,24.2z M134.8,15.5
					h-2V22h2.1c2.1,0,3.6-0.8,3.6-3.4C138.4,16.4,136.9,15.5,134.8,15.5z"/>
			</g>
			<g>
				<path fill="#005189" d="M152.1,30.1h-2.8V15.7h-5v-2.3h12.9l-0.3,2.3h-4.8V30.1z"/>
			</g>
			<g>
				<path fill="#005189" d="M179.1,13.4h2.8v14.3h7.5l-0.3,2.3h-10V13.4z"/>
			</g>
			<g>
				<path fill="#005189" d="M219,24.1c0,3.2-1.7,6-6.1,6c-1.8,0-3.4-0.6-4.7-1.5l1.1-1.8c1.3,0.8,2.4,1.1,3.5,1.1
					c2.1,0,3.4-1.4,3.4-3.9v-8.8h-5v-2.2h7.8V24.1z"/>
			</g>
			<g>
				<path fill="#005189" d="M120.7,30.1h-2.8v-6.4l-5.6-10.3h3.1l3.9,7.9l4-7.9h3l-5.6,10.3V30.1z"/>
			</g>
			<g>
				<path fill="#5C913B" d="M94.1,26.4l-4.7-4.8l4.8-4.7l0.6-0.6l0.7-0.7c-0.4-0.4-0.8-0.7-1.2-1c-3.9-2.7-9.2-1.7-11.8,2.1
					c-2.7,3.9-1.7,9.2,2.1,11.8c3.4,2.4,8,1.9,10.8-0.9L94.6,27L94.1,26.4z"/>
				<path fill="#FFE8B6" d="M89.3,21.6l4.8-4.7l0.6-0.6c-0.3-0.3-0.7-0.6-1.1-0.9c-3.4-2.4-8.2-1.5-10.5,1.9
					c-2.4,3.4-1.5,8.2,1.9,10.5c3,2.1,7.1,1.7,9.6-0.8l-0.6-0.6L89.3,21.6z"/>
				<g>
					<g>
						<path fill="#DD2E44" d="M94.1,16.9c-0.3-0.3-0.6-0.6-0.9-0.8c-3.1-2.1-7.3-1.4-9.4,1.7c-2.1,3.1-1.4,7.3,1.7,9.4
							c2.7,1.9,6.3,1.5,8.6-0.7l-4.7-4.8L94.1,16.9z"/>
					</g>
					<g>
						<g id="watermelon_c_2_" transform="matrix(1.25,0,0,-1.25,0,47.5)">
							<g id="g12_23_">
								<g>
									<g id="g14_23_">
										<g id="g32_4_" transform="translate(10.916,22.7227)">
											<path id="path34_7_" d="M57.5-0.3c-0.2-0.1-0.4-0.1-0.4,0c0,0.1,0.1,0.2,0.3,0.3c0.2,0.1,0.4,0.1,0.4,0
												C57.8,0,57.7-0.2,57.5-0.3"/>
										</g>
										<g id="g36_7_" transform="translate(16.916,21.7227)">
											<path id="path38_7_" d="M53.2-0.9c-0.2-0.1-0.4-0.1-0.4,0c0,0.1,0.1,0.2,0.3,0.3c0.2,0.1,0.4,0.1,0.4,0
												C53.5-0.7,53.4-0.8,53.2-0.9"/>
										</g>
										<g id="g40_5_" transform="translate(21.998,17.0449)">
											<path id="path42_5_" d="M48.7,1.2C48.6,1,48.4,0.9,48.3,1c-0.1,0.1-0.1,0.2,0,0.4c0.1,0.2,0.3,0.3,0.4,0.2
												C48.8,1.6,48.8,1.4,48.7,1.2"/>
										</g>
										<g id="g44_2_" transform="translate(12.998,19.0449)">
											<path id="path46_2_" d="M55.3,1.8c-0.1-0.2-0.3-0.3-0.4-0.2c-0.1,0.1-0.1,0.2,0,0.4c0.1,0.2,0.3,0.3,0.4,0.2
												C55.4,2.2,55.4,2,55.3,1.8"/>
										</g>
										<g id="g48_2_" transform="translate(16.8994,13.6992)">
											<path id="path50_2_" d="M51.4,4.6c-0.2-0.1-0.4,0-0.4,0.1c0,0.1,0.1,0.2,0.3,0.3c0.2,0.1,0.4,0,0.4-0.1
												C51.8,4.8,51.6,4.7,51.4,4.6"/>
										</g>
										<g id="g52_2_" transform="translate(24.9355,13.2451)">
											<path id="path54_2_" d="M45.8,3.2c0-0.2-0.1-0.4-0.2-0.4c-0.1,0-0.2,0.2-0.2,0.4c0,0.2,0.1,0.4,0.2,0.4
												C45.8,3.6,45.8,3.4,45.8,3.2"/>
										</g>
										<g id="g56_1_" transform="translate(17.918,18.2734)">
											<path id="path58_1_" d="M51.7,1.3c0-0.2-0.1-0.4-0.2-0.4c-0.1,0-0.2,0.2-0.2,0.4c0,0.2,0.1,0.4,0.2,0.4
												C51.7,1.7,51.7,1.5,51.7,1.3"/>
										</g>
										<g id="g60_3_" transform="translate(26.8994,16.6992)">
											<path id="path62_2_" d="M45.2,0.4c-0.2-0.1-0.4,0-0.4,0.1s0.1,0.2,0.3,0.3c0.2,0.1,0.4,0,0.4-0.1
												C45.6,0.6,45.4,0.4,45.2,0.4"/>
										</g>
									</g>
								</g>
							</g>
						</g>
						<g id="watermelon_c_1_" transform="matrix(1.25,0,0,-1.25,0,47.5)">
							<g id="g12_22_">
								<g>
									<g id="g14_22_">
										<g id="g40_4_" transform="translate(21.998,17.0449)">
											<path id="path42_4_" d="M50.1,5.7C50.2,5.9,50.4,6,50.5,6c0.1-0.1,0.1-0.2,0-0.4c-0.1-0.2-0.3-0.3-0.4-0.2
												C50,5.4,50,5.6,50.1,5.7"/>
										</g>
										<g id="g52_1_" transform="translate(24.9355,13.2451)">
											<path id="path54_1_" d="M47.1,11.4c0,0.2,0.1,0.4,0.2,0.4c0.1,0,0.2-0.2,0.2-0.4c0-0.2-0.1-0.4-0.2-0.4
												C47.1,11,47.1,11.2,47.1,11.4"/>
										</g>
										<g id="g60_2_" transform="translate(26.8994,16.6992)">
											<path id="path62_1_" d="M43.8,7.3c0.2,0.1,0.4,0,0.4-0.1c0-0.1-0.1-0.2-0.3-0.3c-0.2-0.1-0.4,0-0.4,0.1
												C43.4,7.1,43.6,7.2,43.8,7.3"/>
										</g>
									</g>
								</g>
							</g>
						</g>
					</g>
				</g>
			</g>
			<g id="g12_21_">
				<g>
					<g id="g14_21_">
						<g id="g20_28_" transform="translate(3.9995,17.5)">
							<path id="path22_28_" fill="#F4900C" d="M156,4.7c0-4.3,3.5-7.8,7.8-7.8s7.8,3.5,7.8,7.8c0,4.3-3.5,7.8-7.8,7.8
								S156,9.1,156,4.7"/>
						</g>
						<g id="g24_21_" transform="translate(12.4136,29.4146)">
							<path id="path26_21_" fill="#662113" d="M151.6-12.8c-0.1-0.1-0.4-0.1-0.6,0.1c-1.6-1.3-4.1-1.7-4.2-1.8
								c-0.3,0-0.5,0.1-0.5,0.4c0,0.3,0.1,0.5,0.4,0.5c0,0,2.3,0.4,3.7,1.5c-0.1,0.2-0.2,0.5,0,0.6c0.2,0.2,0.6,0,1-0.3
								S151.8-12.6,151.6-12.8"/>
						</g>
						<g id="g28_28_" transform="translate(22,36.0005)">
							<path id="path30_21_" fill="#5C913B" d="M146.5-22.5c0,0-1.5,2-3.3,2.5c-1.4,0.3-3.3,0.4-3.5-0.1c-0.2-0.4,0.7-1.9,2.4-2.6
								C143.7-23.3,146.5-22.5,146.5-22.5"/>
						</g>
					</g>
				</g>
			</g>
			<g id="orange_o_1_" transform="matrix(1.25,0,0,-1.25,0,47.5)">
				<g id="g12_15_">
					<g>
						<g id="g14_15_">
							<g id="g20_27_" transform="translate(3.9995,17.5)">
								<path id="path22_27_" fill="#F4900C" d="M149,2.7c0,3.5,2.8,6.3,6.3,6.3s6.3-2.8,6.3-6.3c0-3.5-2.8-6.3-6.3-6.3
									S149-0.8,149,2.7"/>
							</g>
							<g id="g24_20_" transform="translate(12.4136,29.4146)">
								<path id="path26_20_" fill="#662113" d="M143.8-4.7c-0.1,0.1-0.3,0.1-0.5,0c-1.3,1-3.3,1.4-3.4,1.4c-0.2,0-0.4-0.1-0.4-0.3
									c0-0.2,0.1-0.4,0.3-0.4c0,0,1.9-0.3,3-1.2c-0.1-0.2-0.1-0.4,0-0.5c0.1-0.1,0.5,0,0.8,0.3S143.9-4.8,143.8-4.7"/>
							</g>
							<g id="g28_27_" transform="translate(22,36.0005)">
								<path id="path30_20_" fill="#5C913B" d="M137.8-8.8c0,0-1.2-1.6-2.7-2c-1.1-0.3-2.6-0.3-2.8,0c-0.1,0.3,0.6,1.5,1.9,2
									C135.5-8.1,137.8-8.8,137.8-8.8"/>
							</g>
						</g>
					</g>
				</g>
			</g>
			<g id="g10_24_" transform="matrix(1.25,0,0,-1.25,0,47.5)">
				<g id="g12_14_">
					<g>
						<g id="g14_14_">
							<g id="g20_26_" transform="translate(25,31)">
								<path id="path22_26_" fill="#CCD6DD" d="M159.1-5.8c0-1.3-1-2.3-2.3-2.3c-1.3,0-2.3,1-2.3,2.3c0,1.3,1,2.3,2.3,2.3
									C158.1-3.5,159.1-4.5,159.1-5.8"/>
							</g>
							<path id="path24_1_" fill="#CCD6DD" d="M184.5,15h-5.3V23h5.3V15z"/>
						</g>
					</g>
				</g>
				<g id="g26_1_">
					<g>
						<defs>
							<rect id="SVGID_23_" x="178.5" y="14" width="6.6" height="9.9"/>
						</defs>
						<clipPath id="SVGID_2_">
							<use xlink:href="#SVGID_23_"  overflow="visible"/>
						</clipPath>
						<g id="g28_25_" clip-path="url(#SVGID_2_)">
							<g id="g34_1_" transform="translate(34.1914,15.4902)">
								<path id="path36_1_" fill="#DD2E44" d="M153.4,3.9l-8.8,4.3l0.7,1.4l8.8-4.3L153.4,3.9z"/>
							</g>
							<g id="g38_1_" transform="translate(27.1758,1.1094)">
								<path id="path40_1_" fill="#DD2E44" d="M157.7,12.8l-8.8,4.3l0.7,1.4l8.8-4.3L157.7,12.8z"/>
							</g>
							<g id="g42_1_" transform="translate(32.4375,11.8945)">
								<path id="path44_1_" fill="#FFFFFF" d="M154.5,6.1l-8.8,4.3l0.7,1.4l8.8-4.3L154.5,6.1z"/>
							</g>
							<g id="g46_1_" transform="translate(28.9297,4.7051)">
								<path id="path48_1_" fill="#FFFFFF" d="M156.7,10.6l-8.8,4.3l0.7,1.4l8.8-4.3L156.7,10.6z"/>
							</g>
							<g id="g50_1_" transform="translate(25.4219,-2.4854)">
								<path id="path52_1_" fill="#FFFFFF" d="M158.8,15.1l-8.8,4.3l0.7,1.4l8.8-4.3L158.8,15.1z"/>
							</g>
							<g id="g54_1_" transform="translate(30.6836,8.2998)">
								<path id="path56_1_" fill="#55ACEE" d="M155.6,8.4l-8.8,4.3l0.7,1.4l8.8-4.3L155.6,8.4z"/>
							</g>
						</g>
					</g>
				</g>
				<g id="g58_1_">
					<g>
						<g id="g60_1_">
							<g id="g66_1_" transform="translate(28,26)">
								<path id="path68_1_" fill="#99AAB5" d="M157.2-2.7c0-0.4-0.3-0.8-0.8-0.8h-5.3c-0.4,0-0.8,0.3-0.8,0.8s0.3,0.8,0.8,0.8h5.3
									C156.9-1.9,157.2-2.2,157.2-2.7"/>
							</g>
							<g id="g70_1_" transform="translate(28,3)">
								<path id="path72_1_" fill="#99AAB5" d="M157.2,11.7c0-0.4-0.3-0.8-0.8-0.8h-5.3c-0.4,0-0.8,0.3-0.8,0.8s0.3,0.8,0.8,0.8h5.3
									C156.9,12.4,157.2,12.1,157.2,11.7"/>
							</g>
						</g>
					</g>
				</g>
			</g>
		</g>
		<g>
			<g id="g10_119_" transform="matrix(1.25,0,0,-1.25,0,47.5)">
				<g id="g12_137_">
					<g>
						<defs>
							<rect id="SVGID_25_" x="57" y="-79.1" width="47.5" height="47.5"/>
						</defs>
						<clipPath id="SVGID_4_">
							<use xlink:href="#SVGID_25_"  overflow="visible"/>
						</clipPath>
						<g id="g14_137_" clip-path="url(#SVGID_4_)">
							<g id="g20_129_" transform="translate(37,5)">
								<path id="path22_129_" fill="#3B88C3" d="M61.8-74.3c0-2.2-1.8-4-4-4h-28c-2.2,0-4,1.8-4,4v28c0,2.2,1.8,4,4,4h28
									c2.2,0,4-1.8,4-4V-74.3z"/>
							</g>
							<g id="g24_119_" transform="translate(13.2192,27.3789)">
								<path id="path26_119_" fill="#FFFFFF" d="M61.8-74.3c0,1.5,0.8,2.7,2.4,2.7h7.7c1.5,0,2.2-1.1,2.2-2.1
									c0-1.1-0.7-2.1-2.2-2.1h-5.5v-4.5h5.1c1.5,0,2.3-1.1,2.3-2.1c0-1.1-0.8-2.1-2.3-2.1h-5.1v-4.7h5.7c1.5,0,2.2-1.1,2.2-2.1
									c0-1.1-0.7-2.1-2.2-2.1h-8c-1.4,0-2.4,0.9-2.4,2.3V-74.3z"/>
							</g>
						</g>
					</g>
				</g>
			</g>
		</g>
		<g>
			<g id="g10_118_" transform="matrix(1.25,0,0,-1.25,0,47.5)">
				<g id="g12_136_">
					<g>
						<defs>
							<rect id="SVGID_27_" x="11.7" y="-79.1" width="47.5" height="47.5"/>
						</defs>
						<clipPath id="SVGID_6_">
							<use xlink:href="#SVGID_27_"  overflow="visible"/>
						</clipPath>
						<g id="g14_136_" clip-path="url(#SVGID_6_)">
							<g id="g20_128_" transform="translate(37,5)">
								<path id="path22_128_" fill="#3B88C3" d="M16.5-74.3c0-2.2-1.8-4-4-4h-28c-2.2,0-4,1.8-4,4v28c0,2.2,1.8,4,4,4h28
									c2.2,0,4-1.8,4-4V-74.3z"/>
							</g>
							<g id="g24_118_" transform="translate(26.5,30)">
								<path id="path26_118_" fill="#FFFFFF" d="M16.5-74.3c-1.4,0-2.5-1.1-2.5-2.5v-5.5H4v5.5c0,1.4-1.1,2.5-2.5,2.5
									c-1.4,0-2.5-1.1-2.5-2.5v-17c0-1.4,1.1-2.5,2.5-2.5c1.4,0,2.5,1.1,2.5,2.5v6.5h10v-6.5c0-1.4,1.1-2.5,2.5-2.5
									c1.4,0,2.5,1.1,2.5,2.5v17C19-75.4,17.9-74.3,16.5-74.3"/>
							</g>
						</g>
					</g>
				</g>
			</g>
		</g>
		<g>
			<g id="g10_117_" transform="matrix(1.25,0,0,-1.25,0,47.5)">
				<g id="g12_135_">
					<g>
						<defs>
							<rect id="SVGID_29_" x="102.3" y="-79.1" width="47.5" height="47.5"/>
						</defs>
						<clipPath id="SVGID_8_">
							<use xlink:href="#SVGID_29_"  overflow="visible"/>
						</clipPath>
						<g id="g14_135_" clip-path="url(#SVGID_8_)">
							<g id="g20_127_" transform="translate(37,5)">
								<path id="path22_127_" fill="#3B88C3" d="M107-74.3c0-2.2-1.8-4-4-4H75c-2.2,0-4,1.8-4,4v28c0,2.2,1.8,4,4,4h28
									c2.2,0,4-1.8,4-4V-74.3z"/>
							</g>
							<g id="g24_117_" transform="translate(13.7925,27.8438)">
								<path id="path26_117_" fill="#FFFFFF" d="M107-74.3c0,1.6,1,2.4,2.3,2.4c1.3,0,2.3-0.9,2.3-2.4v-15.6h5.5
									c1.6,0,2.3-1.2,2.2-2.2c-0.1-1-0.9-2-2.2-2h-7.8c-1.5,0-2.4,1-2.4,2.5V-74.3z"/>
							</g>
						</g>
					</g>
				</g>
			</g>
		</g>
		<g>
			<g id="g10_116_" transform="matrix(1.25,0,0,-1.25,0,47.5)">
				<g id="g12_134_">
					<g>
						<defs>
							<rect id="SVGID_31_" x="147.6" y="-79.1" width="47.5" height="47.5"/>
						</defs>
						<clipPath id="SVGID_10_">
							<use xlink:href="#SVGID_31_"  overflow="visible"/>
						</clipPath>
						<g id="g14_134_" clip-path="url(#SVGID_10_)">
							<g id="g20_126_" transform="translate(37,5)">
								<path id="path22_126_" fill="#3B88C3" d="M152.3-74.3c0-2.2-1.8-4-4-4h-28c-2.2,0-4,1.8-4,4v28c0,2.2,1.8,4,4,4h28
									c2.2,0,4-1.8,4-4V-74.3z"/>
							</g>
							<g id="g24_116_" transform="translate(13.7925,27.8438)">
								<path id="path26_116_" fill="#FFFFFF" d="M152.3-74.3c0,1.6,1,2.4,2.3,2.4c1.3,0,2.3-0.9,2.3-2.4v-15.6h5.5
									c1.6,0,2.3-1.2,2.2-2.2c-0.1-1-0.9-2-2.2-2h-7.8c-1.5,0-2.4,1-2.4,2.5V-74.3z"/>
							</g>
						</g>
					</g>
				</g>
			</g>
		</g>
		<g>
			<g id="g10_1_" transform="matrix(1.25,0,0,-1.25,0,47.5)">
				<g id="g12_1_">
					<g>
						<defs>
							<rect id="SVGID_33_" x="192.8" y="-79.1" width="47.5" height="47.5"/>
						</defs>
						<clipPath id="SVGID_12_">
							<use xlink:href="#SVGID_33_"  overflow="visible"/>
						</clipPath>
						<g id="g14_1_" clip-path="url(#SVGID_12_)">
							<g id="g20_1_" transform="translate(37,5)">
								<path id="path22_1_" fill="#3B88C3" d="M197.6-74.3c0-2.2-1.8-4-4-4h-28c-2.2,0-4,1.8-4,4v28c0,2.2,1.8,4,4,4h28
									c2.2,0,4-1.8,4-4V-74.3z"/>
							</g>
							<g id="g24_1_" transform="translate(24.832,19.0381)">
								<path id="path26_1_" fill="#FFFFFF" d="M197.6-74.3c0,3.8-2,7.1-5.8,7.1c-3.9,0-5.8-3.4-5.8-7.1c0-3.8,1.9-7.1,5.8-7.1
									C195.7-81.4,197.6-78.1,197.6-74.3 M181.1-74.3c0,6.4,4.3,11.4,10.7,11.4c6.2,0,10.7-5.1,10.7-11.4
									c0-6.4-4.3-11.4-10.7-11.4C185.5-85.7,181.1-80.7,181.1-74.3"/>
							</g>
						</g>
					</g>
				</g>
			</g>
		</g>
		<g opacity="0.5">
			<g>
				
					<line fill="none" stroke="#FFFFFF" stroke-width="1.5" stroke-linecap="round" stroke-miterlimit="10" x1="44.4" y1="150.2" x2="44.4" y2="150.2"/>
				
					<line fill="none" stroke="#FFFFFF" stroke-width="1.5" stroke-linecap="round" stroke-miterlimit="10" stroke-dasharray="0,2.9109" x1="44.4" y1="153.1" x2="44.4" y2="186.6"/>
				
					<line fill="none" stroke="#FFFFFF" stroke-width="1.5" stroke-linecap="round" stroke-miterlimit="10" x1="44.4" y1="188.1" x2="44.4" y2="188.1"/>
			</g>
		</g>
		<g opacity="0.5">
			<g>
				
					<line fill="none" stroke="#FFFFFF" stroke-width="1.5" stroke-linecap="round" stroke-miterlimit="10" x1="101.1" y1="150.2" x2="101.1" y2="150.2"/>
				
					<line fill="none" stroke="#FFFFFF" stroke-width="1.5" stroke-linecap="round" stroke-miterlimit="10" stroke-dasharray="0,2.9109" x1="101.1" y1="153.1" x2="101.1" y2="186.6"/>
				
					<line fill="none" stroke="#FFFFFF" stroke-width="1.5" stroke-linecap="round" stroke-miterlimit="10" x1="101.1" y1="188.1" x2="101.1" y2="188.1"/>
			</g>
		</g>
		<g opacity="0.5">
			<g>
				
					<line fill="none" stroke="#FFFFFF" stroke-width="1.5" stroke-linecap="round" stroke-miterlimit="10" x1="157.9" y1="150.2" x2="157.9" y2="150.2"/>
				
					<line fill="none" stroke="#FFFFFF" stroke-width="1.5" stroke-linecap="round" stroke-miterlimit="10" stroke-dasharray="0,2.9109" x1="157.9" y1="153.1" x2="157.9" y2="186.6"/>
				
					<line fill="none" stroke="#FFFFFF" stroke-width="1.5" stroke-linecap="round" stroke-miterlimit="10" x1="157.9" y1="188.1" x2="157.9" y2="188.1"/>
			</g>
		</g>
		<g opacity="0.5">
			<g>
				
					<line fill="none" stroke="#FFFFFF" stroke-width="1.5" stroke-linecap="round" stroke-miterlimit="10" x1="214.6" y1="150.2" x2="214.6" y2="150.2"/>
				
					<line fill="none" stroke="#FFFFFF" stroke-width="1.5" stroke-linecap="round" stroke-miterlimit="10" stroke-dasharray="0,2.9109" x1="214.6" y1="153.1" x2="214.6" y2="186.6"/>
				
					<line fill="none" stroke="#FFFFFF" stroke-width="1.5" stroke-linecap="round" stroke-miterlimit="10" x1="214.6" y1="188.1" x2="214.6" y2="188.1"/>
			</g>
		</g>
		<g opacity="0.5">
			<g>
				
					<line fill="none" stroke="#FFFFFF" stroke-width="1.5" stroke-linecap="round" stroke-miterlimit="10" x1="271.4" y1="150.2" x2="271.4" y2="150.2"/>
				
					<line fill="none" stroke="#FFFFFF" stroke-width="1.5" stroke-linecap="round" stroke-miterlimit="10" stroke-dasharray="0,2.9109" x1="271.4" y1="153.1" x2="271.4" y2="186.6"/>
				
					<line fill="none" stroke="#FFFFFF" stroke-width="1.5" stroke-linecap="round" stroke-miterlimit="10" x1="271.4" y1="188.1" x2="271.4" y2="188.1"/>
			</g>
		</g>
		<g id="g10_121_" transform="matrix(1.25,0,0,-1.25,0,47.5)">
			<g id="g12_139_">
				<g>
					<defs>
						<rect id="SVGID_35_" x="11.7" y="-163.3" width="47.5" height="47.5"/>
					</defs>
					<clipPath id="SVGID_14_">
						<use xlink:href="#SVGID_35_"  overflow="visible"/>
					</clipPath>
					<g id="g14_139_" clip-path="url(#SVGID_14_)">
						<g id="g20_131_" transform="translate(36.3369,13.4512)">
							<path id="path22_131_" fill="#FFAC33" d="M16.5-158.5c-1-6.3-7.7-10.5-17.2-10.5c-9.5,0-16.2,4.2-17.2,10.5
								c-0.2,1.5,0.2,8.1,1.1,9.4c2.6,3.7,3.5-10.4,16.2-10.4c13.8,0,13.6,14,16.2,10.4C16.3-150.4,16.7-157.1,16.5-158.5"/>
						</g>
						<g id="g24_121_" transform="translate(19.0923,17.6309)">
							<path id="path26_121_" fill="#8A4B38" d="M16.5-158.5c-3.2,0-5.7,0.7-5.7,1.6s2.6,1.6,5.7,1.6c3.2,0,5.7-0.7,5.7-1.6
								S19.7-158.5,16.5-158.5 M16.5-145.2c-9.3,0-16.9-4.6-16.9-10.2c0-5.7,7.6-10.2,16.9-10.2c9.3,0,16.9,4.6,16.9,10.2
								C33.4-149.7,25.8-145.2,16.5-145.2"/>
						</g>
						<g id="g28_3_" transform="translate(2.7197,22.3774)">
							<path id="path30_3_" fill="#8A4B38" d="M16.5-158.5c-0.7-1-0.9-5.5,0.5-7.6c2.1-3.2,3.2-1.6,4.7-2c2.3-0.7,2.5-2.6,4.4-3.5
								c2.1-1,3.3-0.7,6.3,0c4.2,1,6.8-1.1,9.4,0c2.1,0.9,3.3,4.1,4.5,4.5c3.7,1.2,4.5,7.1,1.7,9.5c-0.9-1.8-5.1-8.4-7.9-8.7
								c-2.7-0.3-11-1-14.5,0.8c-3.5,1.8-7,4-7.4,4.6C17.7-160.3,16.5-158.5,16.5-158.5"/>
						</g>
						<g id="g32_1_" transform="translate(19.0923,23.1177)">
							<path id="path34_1_" fill="#F4900C" d="M16.5-158.5c-3.8,0-6.8-1.2-6.8-2.7c0-0.6,0.5-1.1,1.2-1.6c-0.1,0.1-0.2,0.3-0.2,0.4
								c0,0.9,2.6,1.6,5.7,1.6c3.2,0,5.7-0.7,5.7-1.6c0-0.1-0.1-0.3-0.2-0.4c0.8,0.4,1.2,1,1.2,1.6
								C23.3-159.8,20.2-158.5,16.5-158.5"/>
						</g>
						<g id="g36_1_" transform="translate(5.4199,18.8496)">
							<path id="path38_1_" fill="#F4ABBA" d="M16.5-158.5c-0.4,0-0.7,0.2-0.9,0.6c-0.3,0.5-0.1,1.1,0.4,1.4l2.3,1.2
								c0.5,0.3,1.1,0.1,1.4-0.4c0.3-0.5,0.1-1.1-0.4-1.4l-2.3-1.2C16.8-158.5,16.6-158.5,16.5-158.5"/>
						</g>
						<g id="g40_7_" transform="translate(17.3071,11.0557)">
							<path id="path42_7_" fill="#F4ABBA" d="M16.5-158.5c-0.4,0-0.8,0.2-1,0.6l-0.7,1.8c-0.2,0.5,0,1.1,0.6,1.4
								c0.5,0.2,1.1,0,1.4-0.6l0.7-1.8c0.2-0.5,0-1.1-0.6-1.4C16.8-158.5,16.6-158.5,16.5-158.5"/>
						</g>
						<g id="g44_7_" transform="translate(29.1514,15.2363)">
							<path id="path46_7_" fill="#55ACEE" d="M16.5-158.5c-0.2,0-0.4,0-0.5,0.1c-0.5,0.3-0.7,0.9-0.4,1.4l1.1,1.9
								c0.3,0.5,0.9,0.7,1.4,0.4c0.5-0.3,0.7-0.9,0.4-1.4l-1.1-1.9C17.2-158.4,16.8-158.5,16.5-158.5"/>
						</g>
						<g id="g48_7_" transform="translate(30.8926,23)">
							<path id="path50_7_" fill="#F4ABBA" d="M16.5-158.5c-0.6,0-1,0.5-1,1c0,0.6,0.4,1.1,1,1.1l1.2,0.1c0.6,0,1.1-0.4,1.1-1
								c0-0.6-0.4-1.1-1-1.1L16.5-158.5L16.5-158.5z"/>
						</g>
						<g id="g52_7_" transform="translate(20.792,27.1235)">
							<path id="path54_7_" fill="#F4ABBA" d="M16.5-158.5c-0.4,0-0.9,0.3-1,0.7c-0.2,0.6,0.1,1.1,0.7,1.3l0.8,0.3
								c0.6,0.2,1.1-0.1,1.3-0.7c0.2-0.6-0.1-1.1-0.7-1.3l-0.8-0.3C16.7-158.5,16.6-158.5,16.5-158.5"/>
						</g>
						<g id="g56_6_" transform="translate(14.9976,25.4258)">
							<path id="path58_6_" fill="#88C9F9" d="M16.5-158.5c-0.2,0-0.3,0-0.5,0.1l-0.8,0.4c-0.5,0.3-0.7,0.9-0.5,1.4
								c0.3,0.5,0.9,0.7,1.4,0.5l0.8-0.4c0.5-0.3,0.7-0.9,0.5-1.4C17.2-158.3,16.9-158.5,16.5-158.5"/>
						</g>
						<g id="g60_17_" transform="translate(24.0996,12.1465)">
							<path id="path62_7_" fill="#88C9F9" d="M16.5-158.5c-0.2,0-0.3,0-0.5,0.1l-0.8,0.4c-0.5,0.3-0.7,0.9-0.5,1.4
								c0.3,0.5,0.9,0.7,1.4,0.5l0.8-0.4c0.5-0.3,0.7-0.9,0.5-1.4C17.2-158.3,16.9-158.5,16.5-158.5"/>
						</g>
						<g id="g64_9_" transform="translate(10.4263,14.4521)">
							<path id="path66_9_" fill="#55ACEE" d="M16.5-158.5c-0.1,0-0.3,0-0.4,0.1c-0.5,0.2-0.8,0.8-0.5,1.4l0.4,0.9
								c0.2,0.5,0.8,0.8,1.4,0.5c0.5-0.2,0.8-0.8,0.5-1.4l-0.4-0.9C17.3-158.3,16.9-158.5,16.5-158.5"/>
						</g>
						<g id="g68_9_" transform="translate(26.0176,24.3369)">
							<path id="path70_9_" fill="#55ACEE" d="M16.5-158.5c-0.4,0-0.8,0.2-1,0.6c-0.2,0.5,0,1.1,0.5,1.4l0.7,0.3
								c0.5,0.2,1.1,0,1.4-0.5c0.2-0.5,0-1.1-0.5-1.4l-0.7-0.3C16.8-158.5,16.6-158.5,16.5-158.5"/>
						</g>
						<g id="g72_9_" transform="translate(9.0347,24.3804)">
							<path id="path74_9_" fill="#55ACEE" d="M16.5-158.5c-0.1,0-0.2,0-0.2,0l-0.6,0.1c-0.6,0.1-0.9,0.7-0.8,1.3
								c0.1,0.6,0.7,0.9,1.3,0.8l0.6-0.1c0.6-0.1,0.9-0.7,0.8-1.3C17.4-158.2,17-158.5,16.5-158.5"/>
						</g>
					</g>
				</g>
			</g>
		</g>
		<g id="g10_60_" transform="matrix(1.25,0,0,-1.25,0,47.5)">
			<g id="g12_82_">
				<g>
					<defs>
						<rect id="SVGID_37_" x="103.1" y="-163.3" width="47.5" height="47.5"/>
					</defs>
					<clipPath id="SVGID_16_">
						<use xlink:href="#SVGID_37_"  overflow="visible"/>
					</clipPath>
					<g id="g14_83_" clip-path="url(#SVGID_16_)">
						<g id="g20_73_" transform="translate(31,33)">
							<path id="path22_73_" fill="#77B255" d="M107.9-158.5c-2.2,0-4-1.8-4-4v-9.1c0-1.1-0.9-2-2-2.4v13.6c0,3.3-2.7,6-6,6
								c-3.3,0-6-2.7-6-6v-17.6c-1.1,0.5-2,1.4-2,2.5v5.1c0,2.2-1.8,4-4,4c-2.2,0-4-1.8-4-4v-7c0-2.2,1.8-3.9,3.4-4.8
								c1.2-0.7,4.7-1.6,6.6-1.7v-3.5c0-3.3,12-3.3,12,0v7.5c2,0.1,5.3,1,6.5,1.6c1.6,0.9,3.5,2.6,3.5,4.8v11
								C111.9-160.3,110.1-158.5,107.9-158.5"/>
						</g>
						<g id="g24_60_" transform="translate(14,31)">
							<path id="path26_60_" fill="#3E721D" d="M107.9-158.5c0-0.6-0.4-1-1-1s-1,0.4-1,1c0,0.6,0.4,1,1,1S107.9-158,107.9-158.5"/>
						</g>
						<g id="g28_70_" transform="translate(25,34)">
							<path id="path30_58_" fill="#3E721D" d="M107.9-158.5c0-0.6-0.4-1-1-1c-0.6,0-1,0.4-1,1c0,0.6,0.4,1,1,1
								C107.4-157.5,107.9-158,107.9-158.5"/>
						</g>
						<g id="g32_45_" transform="translate(23,28)">
							<path id="path34_44_" fill="#3E721D" d="M107.9-158.5c0-0.6-0.4-1-1-1c-0.6,0-1,0.4-1,1c0,0.6,0.4,1,1,1
								C107.4-157.5,107.9-158,107.9-158.5"/>
						</g>
						<g id="g36_40_" transform="translate(16,21)">
							<path id="path38_40_" fill="#3E721D" d="M107.9-158.5c0-0.6-0.4-1-1-1c-0.6,0-1,0.4-1,1c0,0.6,0.4,1,1,1
								C107.4-157.5,107.9-158,107.9-158.5"/>
						</g>
						<g id="g40_40_" transform="translate(22,17)">
							<path id="path42_39_" fill="#3E721D" d="M107.9-158.5c0-0.6-0.4-1-1-1c-0.6,0-1,0.4-1,1c0,0.6,0.4,1,1,1
								C107.4-157.5,107.9-158,107.9-158.5"/>
						</g>
						<g id="g44_29_" transform="translate(15,11)">
							<path id="path46_29_" fill="#3E721D" d="M107.9-158.5c0-0.6-0.4-1-1-1c-0.6,0-1,0.4-1,1c0,0.6,0.4,1,1,1
								C107.4-157.5,107.9-158,107.9-158.5"/>
						</g>
						<g id="g48_25_" transform="translate(7,10)">
							<path id="path50_25_" fill="#3E721D" d="M107.9-158.5c0-0.6-0.4-1-1-1c-0.6,0-1,0.4-1,1c0,0.6,0.4,1,1,1
								C107.4-157.5,107.9-158,107.9-158.5"/>
						</g>
						<g id="g52_24_" transform="translate(11,17)">
							<path id="path54_23_" fill="#3E721D" d="M107.9-158.5c0-0.6-0.4-1-1-1c-0.6,0-1,0.4-1,1c0,0.6,0.4,1,1,1
								C107.4-157.5,107.9-158,107.9-158.5"/>
						</g>
						<g id="g56_18_" transform="translate(4,19)">
							<path id="path58_18_" fill="#3E721D" d="M107.9-158.5c0-0.6-0.4-1-1-1c-0.6,0-1,0.4-1,1c0,0.6,0.4,1,1,1
								C107.4-157.5,107.9-158,107.9-158.5"/>
						</g>
						<g id="g60_34_" transform="translate(36,29)">
							<path id="path62_22_" fill="#3E721D" d="M107.9-158.5c0-0.6-0.4-1-1-1c-0.6,0-1,0.4-1,1c0,0.6,0.4,1,1,1
								C107.4-157.5,107.9-158,107.9-158.5"/>
						</g>
						<g id="g64_17_" transform="translate(30,26)">
							<path id="path66_17_" fill="#3E721D" d="M107.9-158.5c0-0.6-0.4-1-1-1c-0.6,0-1,0.4-1,1c0,0.6,0.4,1,1,1
								C107.4-157.5,107.9-158,107.9-158.5"/>
						</g>
						<g id="g68_17_" transform="translate(34,21)">
							<path id="path70_17_" fill="#3E721D" d="M107.9-158.5c0-0.6-0.4-1-1-1c-0.6,0-1,0.4-1,1c0,0.6,0.4,1,1,1
								C107.4-157.5,107.9-158,107.9-158.5"/>
						</g>
						<g id="g72_8_" transform="translate(31,13)">
							<path id="path74_8_" fill="#3E721D" d="M107.9-158.5c0-0.6-0.4-1-1-1c-0.6,0-1,0.4-1,1c0,0.6,0.4,1,1,1
								C107.4-157.5,107.9-158,107.9-158.5"/>
						</g>
						<g id="g76_13_" transform="translate(24,7)">
							<path id="path78_13_" fill="#3E721D" d="M107.9-158.5c0-0.6-0.4-1-1-1c-0.6,0-1,0.4-1,1c0,0.6,0.4,1,1,1
								C107.4-157.5,107.9-158,107.9-158.5"/>
						</g>
					</g>
				</g>
			</g>
		</g>
		<g id="g10_123_" transform="matrix(1.25,0,0,-1.25,0,47.5)">
			<g id="g12_141_">
				<g>
					<defs>
						<rect id="SVGID_39_" x="147.6" y="-163.3" width="47.5" height="47.5"/>
					</defs>
					<clipPath id="SVGID_18_">
						<use xlink:href="#SVGID_39_"  overflow="visible"/>
					</clipPath>
					<g id="g14_141_" clip-path="url(#SVGID_18_)">
						<g id="g20_133_" transform="translate(31,33)">
							<path id="path22_133_" fill="#77B255" d="M152.3-158.5c-2.2,0-4-1.8-4-4v-9.1c0-1.1-0.9-2-2-2.4v13.6c0,3.3-2.7,6-6,6
								c-3.3,0-6-2.7-6-6v-17.6c-1.1,0.5-2,1.4-2,2.5v5.1c0,2.2-1.8,4-4,4c-2.2,0-4-1.8-4-4v-7c0-2.2,1.8-3.9,3.4-4.8
								c1.2-0.7,4.7-1.6,6.6-1.7v-3.5c0-3.3,12-3.3,12,0v7.5c2,0.1,5.3,1,6.5,1.6c1.6,0.9,3.5,2.6,3.5,4.8v11
								C156.3-160.3,154.5-158.5,152.3-158.5"/>
						</g>
						<g id="g24_123_" transform="translate(14,31)">
							<path id="path26_123_" fill="#3E721D" d="M152.3-158.5c0-0.6-0.4-1-1-1s-1,0.4-1,1c0,0.6,0.4,1,1,1S152.3-158,152.3-158.5"/>
						</g>
						<g id="g28_83_" transform="translate(25,34)">
							<path id="path30_74_" fill="#3E721D" d="M152.3-158.5c0-0.6-0.4-1-1-1c-0.6,0-1,0.4-1,1c0,0.6,0.4,1,1,1
								C151.9-157.5,152.3-158,152.3-158.5"/>
						</g>
						<g id="g32_7_" transform="translate(23,28)">
							<path id="path34_6_" fill="#3E721D" d="M152.3-158.5c0-0.6-0.4-1-1-1c-0.6,0-1,0.4-1,1c0,0.6,0.4,1,1,1
								C151.9-157.5,152.3-158,152.3-158.5"/>
						</g>
						<g id="g36_6_" transform="translate(16,21)">
							<path id="path38_6_" fill="#3E721D" d="M152.3-158.5c0-0.6-0.4-1-1-1c-0.6,0-1,0.4-1,1c0,0.6,0.4,1,1,1
								C151.9-157.5,152.3-158,152.3-158.5"/>
						</g>
						<g id="g40_49_" transform="translate(22,17)">
							<path id="path42_48_" fill="#3E721D" d="M152.3-158.5c0-0.6-0.4-1-1-1c-0.6,0-1,0.4-1,1c0,0.6,0.4,1,1,1
								C151.9-157.5,152.3-158,152.3-158.5"/>
						</g>
						<g id="g44_23_" transform="translate(15,11)">
							<path id="path46_23_" fill="#3E721D" d="M152.3-158.5c0-0.6-0.4-1-1-1c-0.6,0-1,0.4-1,1c0,0.6,0.4,1,1,1
								C151.9-157.5,152.3-158,152.3-158.5"/>
						</g>
						<g id="g48_30_" transform="translate(7,10)">
							<path id="path50_30_" fill="#3E721D" d="M152.3-158.5c0-0.6-0.4-1-1-1c-0.6,0-1,0.4-1,1c0,0.6,0.4,1,1,1
								C151.9-157.5,152.3-158,152.3-158.5"/>
						</g>
						<g id="g52_31_" transform="translate(11,17)">
							<path id="path54_30_" fill="#3E721D" d="M152.3-158.5c0-0.6-0.4-1-1-1c-0.6,0-1,0.4-1,1c0,0.6,0.4,1,1,1
								C151.9-157.5,152.3-158,152.3-158.5"/>
						</g>
						<g id="g56_22_" transform="translate(4,19)">
							<path id="path58_22_" fill="#3E721D" d="M152.3-158.5c0-0.6-0.4-1-1-1c-0.6,0-1,0.4-1,1c0,0.6,0.4,1,1,1
								C151.9-157.5,152.3-158,152.3-158.5"/>
						</g>
						<g id="g60_38_" transform="translate(36,29)">
							<path id="path62_27_" fill="#3E721D" d="M152.3-158.5c0-0.6-0.4-1-1-1c-0.6,0-1,0.4-1,1c0,0.6,0.4,1,1,1
								C151.9-157.5,152.3-158,152.3-158.5"/>
						</g>
						<g id="g64_11_" transform="translate(30,26)">
							<path id="path66_11_" fill="#3E721D" d="M152.3-158.5c0-0.6-0.4-1-1-1c-0.6,0-1,0.4-1,1c0,0.6,0.4,1,1,1
								C151.9-157.5,152.3-158,152.3-158.5"/>
						</g>
						<g id="g68_11_" transform="translate(34,21)">
							<path id="path70_11_" fill="#3E721D" d="M152.3-158.5c0-0.6-0.4-1-1-1c-0.6,0-1,0.4-1,1c0,0.6,0.4,1,1,1
								C151.9-157.5,152.3-158,152.3-158.5"/>
						</g>
						<g id="g72_11_" transform="translate(31,13)">
							<path id="path74_11_" fill="#3E721D" d="M152.3-158.5c0-0.6-0.4-1-1-1c-0.6,0-1,0.4-1,1c0,0.6,0.4,1,1,1
								C151.9-157.5,152.3-158,152.3-158.5"/>
						</g>
						<g id="g76_8_" transform="translate(24,7)">
							<path id="path78_8_" fill="#3E721D" d="M152.3-158.5c0-0.6-0.4-1-1-1c-0.6,0-1,0.4-1,1c0,0.6,0.4,1,1,1
								C151.9-157.5,152.3-158,152.3-158.5"/>
						</g>
					</g>
				</g>
			</g>
		</g>
		<g id="g10_59_" transform="matrix(1.25,0,0,-1.25,0,47.5)">
			<g id="g12_81_">
				<g>
					<defs>
						<rect id="SVGID_41_" x="57.1" y="-163.3" width="47.5" height="47.5"/>
					</defs>
					<clipPath id="SVGID_20_">
						<use xlink:href="#SVGID_41_"  overflow="visible"/>
					</clipPath>
					<g id="g14_82_" clip-path="url(#SVGID_20_)">
						<g id="g20_72_" transform="translate(34.7988,36.9946)">
							<path id="path22_72_" fill="#99AAB5" d="M61.9-158.5c-0.5,0.2-8-4-10-9.1c-1.2-3.1-1.7-6.1-1.7-8.1c-1.5,0.8-2.9,1.2-4.2,1.2
								c-1.3,0-2.7-0.5-4.2-1.2c0,2.1-0.5,5.1-1.7,8.1c-2,5.2-9.5,9.3-10,9.1c-0.5-0.2,4.3-16,7-20.8c-2.4-2.6-4.2-5.8-4.2-9
								c0-3.2,1.6-5.1,4-5.9c2.5-0.9,5,0.9,9,0.9s6.5-1.8,9-0.9c2.4,0.8,4,2.7,4,5.9c0,3.2-1.8,6.4-4.2,9
								C57.6-174.6,62.3-158.7,61.9-158.5"/>
						</g>
						<g id="g24_59_" transform="translate(13.6919,19.0781)">
							<path id="path26_59_" fill="#F4ABBA" d="M61.9-158.5c-0.2,1.5-0.7,3.6-1.5,5.6c-1.5,4-5.7,7.2-6,7.1
								c-0.3-0.1,2.6-10.1,4.8-14.9C60-159.9,60.9-159.1,61.9-158.5"/>
						</g>
						<g id="g28_69_" transform="translate(27.0303,16.9063)">
							<path id="path30_57_" fill="#F4ABBA" d="M61.9-158.5c2.2,4.7,5.1,14.7,4.8,14.9c-0.4,0.1-4.5-3.1-6-7.1c-0.8-2-1.3-4-1.5-5.6
								C60.1-157,61-157.7,61.9-158.5"/>
						</g>
						<g id="g32_44_" transform="translate(26,7)">
							<path id="path34_43_" fill="#CCD6DD" d="M61.9-158.5c0-2.8-3.1-5-6.8-5c-3.8,0-6.8,2.2-6.8,5c0,2.8,3.1,5,6.8,5
								C58.8-153.5,61.9-155.8,61.9-158.5"/>
						</g>
						<g id="g36_39_" transform="translate(22,6.4219)">
							<path id="path38_39_" fill="#FFFFFF" d="M61.9-158.5c0-2.8-0.2-3-3-3c-2.8,0-3,0.2-3,3C55.9-157.5,61.9-157.5,61.9-158.5"/>
						</g>
						<g id="g40_39_" transform="translate(15,12.6719)">
							<path id="path42_38_" fill="#292F33" d="M61.9-158.5c0-0.8-0.7-1.5-1.5-1.5c-0.8,0-1.5,0.7-1.5,1.5s0.7,1.5,1.5,1.5
								C61.2-157,61.9-157.7,61.9-158.5"/>
						</g>
						<g id="g44_28_" transform="translate(26,12.6719)">
							<path id="path46_28_" fill="#292F33" d="M61.9-158.5c0-0.8-0.7-1.5-1.5-1.5c-0.8,0-1.5,0.7-1.5,1.5s0.7,1.5,1.5,1.5
								C61.2-157,61.9-157.7,61.9-158.5"/>
						</g>
						<g id="g48_24_" transform="translate(22,11.1719)">
							<path id="path50_24_" fill="#F4ABBA" d="M61.9-158.5c0-1.7-2-3-3-3s-3,1.3-3,3C55.9-156.9,61.9-156.9,61.9-158.5"/>
						</g>
					</g>
				</g>
			</g>
		</g>
		<g id="g10_124_" transform="matrix(1.25,0,0,-1.25,0,47.5)">
			<g id="g12_142_">
				<g>
					<defs>
						<rect id="SVGID_43_" x="192.8" y="-163.3" width="47.5" height="47.5"/>
					</defs>
					<clipPath id="SVGID_22_">
						<use xlink:href="#SVGID_43_"  overflow="visible"/>
					</clipPath>
					<g id="g14_142_" clip-path="url(#SVGID_22_)">
						<g id="g20_134_" transform="translate(36,19)">
							<path id="path22_134_" fill="#FFCC4D" d="M197.6-158.5c0-9.4-7.6-17-17-17c-9.4,0-17,7.6-17,17c0,9.4,7.6,17,17,17
								C190-141.5,197.6-149.1,197.6-158.5"/>
						</g>
						<g id="g24_124_" transform="translate(16.457,20.185)">
							<path id="path26_124_" fill="#664500" d="M197.6-158.5c-0.1,0.1-1.5,3.3-4.5,3.3c-3,0-4.4-3.2-4.5-3.3
								c-0.1-0.2,0-0.4,0.1-0.6c0.2-0.1,0.4-0.1,0.6,0c0,0,1.3,0.9,3.7,0.9c2.4,0,3.7-0.9,3.7-0.9c0.1-0.1,0.2-0.1,0.3-0.1
								c0.1,0,0.2,0,0.3,0.1C197.6-159,197.7-158.7,197.6-158.5"/>
						</g>
						<g id="g28_84_" transform="translate(32,22.4819)">
							<path id="path30_75_" fill="#F5F8FA" d="M197.6-158.5c0-3.6-2.9-6.5-6.5-6.5s-6.5,2.9-6.5,6.5s2.9,6.5,6.5,6.5
								S197.6-154.9,197.6-158.5"/>
						</g>
						<g id="g32_59_" transform="translate(28,22.4819)">
							<path id="path34_58_" fill="#292F33" d="M197.6-158.5c0-1.4-1.1-2.5-2.5-2.5c-1.4,0-2.5,1.1-2.5,2.5c0,1.4,1.1,2.5,2.5,2.5
								C196.5-156,197.6-157.2,197.6-158.5"/>
						</g>
						<g id="g36_52_" transform="translate(8,13.9819)">
							<path id="path38_52_" fill="#664500" d="M197.6-158.5c0-4,4.6-9,11-9s11,5,11,9C219.6-158.5,209.3-161.3,197.6-158.5"/>
						</g>
						<g id="g40_50_" transform="translate(13,12.101)">
							<path id="path42_49_" fill="#E75A70" d="M197.6-158.5v-6.1c0-3,2-6,6-6s6,3,6,6v6C203.3-159.9,197.6-158.5,197.6-158.5"/>
						</g>
					</g>
				</g>
			</g>
		</g>
	</g>
</g>
<g id="top">
</g>
<g id="tap">
</g>
</svg>
