<?xml version="1.0" encoding="utf-8"?>
<!-- Generator: Adobe Illustrator 18.0.0, SVG Export Plug-In . SVG Version: 6.00 Build 0)  -->
<!DOCTYPE svg PUBLIC "-//W3C//DTD SVG 1.1//EN" "http://www.w3.org/Graphics/SVG/1.1/DTD/svg11.dtd">
<svg version="1.1" xmlns="http://www.w3.org/2000/svg" xmlns:xlink="http://www.w3.org/1999/xlink" x="0px" y="0px"
	 viewBox="0 0 400 400" enable-background="new 0 0 400 400" xml:space="preserve">
<g id="back" display="none">
	<rect y="-200" display="inline" fill="#E6E6E6" width="400" height="700"/>
</g>
<g id="text1">
	<g>
		<g>
			<rect x="40.3" y="269.1" fill="none" width="319.3" height="100.3"/>
			<text transform="matrix(1 0 0 1 120.2021 283.3955)"><tspan x="0" y="0" fill="#B3B3B3" font-family="'FiraMono-Medium'" font-size="19">THIS IS NOT A</tspan><tspan x="-26.6" y="39.6" fill="#4D4D4D" font-family="'FiraMono-Medium'" font-size="33" letter-spacing="1">WATERMELON</tspan></text>
		</g>
	</g>
</g>
<g id="text2">
	<g>
		<g>
			<rect x="40.3" y="269.1" fill="none" width="319.3" height="100.3"/>
			<text transform="matrix(1 0 0 1 120.2021 283.3955)"><tspan x="0" y="0" fill="#B3B3B3" font-family="'FiraMono-Medium'" font-size="19">IT’S ACTUALLY</tspan><tspan x="-5.2" y="39.6" fill="#4D4D4D" font-family="'FiraMono-Medium'" font-size="33" letter-spacing="1">A LETTER</tspan></text>
		</g>
	</g>
</g>
<g id="text3">
	<g>
		
			<text transform="matrix(1 0 0 1 146.2295 293.9395)" fill="#B3B3B3" font-family="'FiraMono-Medium'" font-size="33" letter-spacing="2">H</text>
		<g id="single_i_2">
			
				<text transform="matrix(1 0 0 1 168.1045 293.939)" fill="#B3B3B3" font-family="'FiraMono-Medium'" font-size="33" letter-spacing="2">I</text>
		</g>
		
			<text transform="matrix(1 0 0 1 188.9966 293.939)" fill="#B3B3B3" font-family="'FiraMono-Medium'" font-size="33" letter-spacing="2">S</text>
		<g id="single_i_3">
			
				<text transform="matrix(1 0 0 1 232.1377 293.9395)" fill="#B3B3B3" font-family="'FiraMono-Medium'" font-size="33" letter-spacing="2">I</text>
		</g>
		
			<text transform="matrix(1 0 0 1 253.0303 293.9395)" fill="#B3B3B3" font-family="'FiraMono-Medium'" font-size="33" letter-spacing="2">S</text>
		<g id="single_c_1">
			
				<text transform="matrix(1 0 0 1 92.3599 333.5)" fill="#4D4D4D" font-family="'FiraMono-Medium'" font-size="33" letter-spacing="2">C</text>
		</g>
		
			<text transform="matrix(1 0 0 1 113.9307 333.5)" fill="#4D4D4D" font-family="'FiraMono-Medium'" font-size="33" letter-spacing="2">R</text>
		
			<text transform="matrix(1 0 0 1 156.8091 333.5)" fill="#4D4D4D" font-family="'FiraMono-Medium'" font-size="33" letter-spacing="2">P</text>
		
			<text transform="matrix(1 0 0 1 178.3213 333.5)" fill="#4D4D4D" font-family="'FiraMono-Medium'" font-size="33" letter-spacing="2">T</text>
		<g id="single_o_1">
			
				<text transform="matrix(1 0 0 1 199.6963 333.5)" fill="#4D4D4D" font-family="'FiraMono-Medium'" font-size="33" letter-spacing="2">O</text>
		</g>
		
			<text transform="matrix(1 0 0 1 221.0713 333.5)" fill="#4D4D4D" font-family="'FiraMono-Medium'" font-size="33" letter-spacing="2">L</text>
		<g id="single_o_2">
			
				<text transform="matrix(1 0 0 1 242.5928 333.5)" fill="#4D4D4D" font-family="'FiraMono-Medium'" font-size="33" letter-spacing="2">O</text>
		</g>
		
			<text transform="matrix(1 0 0 1 264.0303 333.5)" fill="#4D4D4D" font-family="'FiraMono-Medium'" font-size="33" letter-spacing="2">J</text>
		<g id="single_i_1">
			
				<text transform="matrix(1 0 0 1 285.5303 333.5)" fill="#4D4D4D" font-family="'FiraMono-Medium'" font-size="33" letter-spacing="2">I</text>
		</g>
		
			<text transform="matrix(1 0 0 1 124.7295 293.9385)" fill="#B3B3B3" font-family="'FiraMono-Medium'" font-size="33" letter-spacing="2">T</text>
		
			<text transform="matrix(1 0 0 1 135.4795 333.4995)" fill="#4D4D4D" font-family="'FiraMono-Medium'" font-size="33" letter-spacing="2">Y</text>
	</g>
</g>
<g id="text3_emoji">
	<g id="icon_i_3" transform="matrix(1.25,0,0,-1.25,0,47.5)">
		<g id="g12_3_">
			<g>
				<defs>
					<rect id="SVGID_1_" x="130.5" y="-199.5" width="23" height="23"/>
				</defs>
				<clipPath id="SVGID_2_">
					<use xlink:href="#SVGID_1_"  overflow="visible"/>
				</clipPath>
				<g id="g14_3_" clip-path="url(#SVGID_2_)">
					<g id="g20_3_" transform="translate(25,31)">
						<path id="path22_3_" fill="#CCD6DD" d="M120.3-213.2c0-1.6-1.3-2.9-2.9-2.9c-1.6,0-2.9,1.3-2.9,2.9s1.3,2.9,2.9,2.9
							C119-210.3,120.3-211.6,120.3-213.2"/>
					</g>
					<path id="path24_2_" fill="#CCD6DD" d="M145.6-195.6h-6.4v11.2h6.4V-195.6z"/>
				</g>
			</g>
		</g>
		<g id="g26_2_">
			<g>
				<defs>
					<rect id="SVGID_3_" x="138.4" y="-197" width="8" height="14"/>
				</defs>
				<clipPath id="SVGID_4_">
					<use xlink:href="#SVGID_3_"  overflow="visible"/>
				</clipPath>
				<g id="g28_3_" clip-path="url(#SVGID_4_)">
					<g id="g34_2_" transform="translate(34.1914,15.4902)">
						<path id="path36_2_" fill="#DD2E44" d="M115.6-205.2l-11.3,5.5l0.8,1.7l11.3-5.5L115.6-205.2z"/>
					</g>
					<g id="g38_2_" transform="translate(27.1758,1.1094)">
						<path id="path40_2_" fill="#DD2E44" d="M119.2-197.7l-11.3,5.5l0.8,1.7l11.3-5.5L119.2-197.7z"/>
					</g>
					<g id="g42_2_" transform="translate(32.4375,11.8945)">
						<path id="path44_2_" fill="#FFFFFF" d="M116.5-203.3l-11.3,5.5l0.8,1.7l11.3-5.5L116.5-203.3z"/>
					</g>
					<g id="g46_2_" transform="translate(28.9297,4.7051)">
						<path id="path48_2_" fill="#FFFFFF" d="M118.3-199.6l-11.3,5.5l0.8,1.7l11.3-5.5L118.3-199.6z"/>
					</g>
					<g id="g50_2_" transform="translate(25.4219,-2.4854)">
						<path id="path52_2_" fill="#FFFFFF" d="M120.1-195.9l-11.3,5.5l0.8,1.7l11.3-5.5L120.1-195.9z"/>
					</g>
					<g id="g54_2_" transform="translate(30.6836,8.2998)">
						<path id="path56_2_" fill="#55ACEE" d="M117.4-201.4l-11.3,5.5l0.8,1.7l11.3-5.5L117.4-201.4z"/>
					</g>
				</g>
			</g>
		</g>
		<g id="g58_2_">
			<g>
				<defs>
					<rect id="SVGID_5_" x="130.5" y="-199.5" width="23" height="23"/>
				</defs>
				<clipPath id="SVGID_6_">
					<use xlink:href="#SVGID_5_"  overflow="visible"/>
				</clipPath>
				<g id="g60_3_" clip-path="url(#SVGID_6_)">
					<g id="g66_2_" transform="translate(28,26)">
						<path id="path68_2_" fill="#99AAB5" d="M118.8-210.4c0-0.5-0.4-0.8-1-0.8H111c-0.5,0-1,0.3-1,0.8c0,0.5,0.4,0.8,1,0.8h6.8
							C118.4-209.6,118.8-209.9,118.8-210.4"/>
					</g>
					<g id="g70_2_" transform="translate(28,3)">
						<path id="path72_2_" fill="#99AAB5" d="M118.8-198.6c0-0.5-0.4-0.8-1-0.8H111c-0.5,0-1,0.3-1,0.8c0,0.5,0.4,0.8,1,0.8h6.8
							C118.4-197.8,118.8-198.1,118.8-198.6"/>
					</g>
				</g>
			</g>
		</g>
	</g>
	<g id="icon_i_2" transform="matrix(1.25,0,0,-1.25,0,47.5)">
		<g id="g12_1_">
			<g>
				<defs>
					<rect id="SVGID_7_" x="181.7" y="-199.5" width="23" height="23"/>
				</defs>
				<clipPath id="SVGID_8_">
					<use xlink:href="#SVGID_7_"  overflow="visible"/>
				</clipPath>
				<g id="g14_1_" clip-path="url(#SVGID_8_)">
					<g id="g20_1_" transform="translate(25,31)">
						<path id="path22_1_" fill="#CCD6DD" d="M171.5-213.2c0-1.6-1.3-2.9-2.9-2.9s-2.9,1.3-2.9,2.9s1.3,2.9,2.9,2.9
							S171.5-211.6,171.5-213.2"/>
					</g>
					<path id="path24_3_" fill="#CCD6DD" d="M196.8-195.6h-6.4v11.2h6.4V-195.6z"/>
				</g>
			</g>
		</g>
		<g id="g26_3_">
			<g>
				<defs>
					<rect id="SVGID_9_" x="189.6" y="-197" width="8" height="14"/>
				</defs>
				<clipPath id="SVGID_10_">
					<use xlink:href="#SVGID_9_"  overflow="visible"/>
				</clipPath>
				<g id="g28_1_" clip-path="url(#SVGID_10_)">
					<g id="g34_3_" transform="translate(34.1914,15.4902)">
						<path id="path36_3_" fill="#DD2E44" d="M166.8-205.2l-11.3,5.5l0.8,1.7l11.3-5.5L166.8-205.2z"/>
					</g>
					<g id="g38_3_" transform="translate(27.1758,1.1094)">
						<path id="path40_3_" fill="#DD2E44" d="M170.4-197.7l-11.3,5.5l0.8,1.7l11.3-5.5L170.4-197.7z"/>
					</g>
					<g id="g42_3_" transform="translate(32.4375,11.8945)">
						<path id="path44_3_" fill="#FFFFFF" d="M167.7-203.3l-11.3,5.5l0.8,1.7l11.3-5.5L167.7-203.3z"/>
					</g>
					<g id="g46_3_" transform="translate(28.9297,4.7051)">
						<path id="path48_3_" fill="#FFFFFF" d="M169.5-199.6l-11.3,5.5l0.8,1.7l11.3-5.5L169.5-199.6z"/>
					</g>
					<g id="g50_3_" transform="translate(25.4219,-2.4854)">
						<path id="path52_3_" fill="#FFFFFF" d="M171.3-195.9l-11.3,5.5l0.8,1.7l11.3-5.5L171.3-195.9z"/>
					</g>
					<g id="g54_3_" transform="translate(30.6836,8.2998)">
						<path id="path56_3_" fill="#55ACEE" d="M168.6-201.4l-11.3,5.5l0.8,1.7l11.3-5.5L168.6-201.4z"/>
					</g>
				</g>
			</g>
		</g>
		<g id="g58_3_">
			<g>
				<defs>
					<rect id="SVGID_11_" x="181.7" y="-199.5" width="23" height="23"/>
				</defs>
				<clipPath id="SVGID_12_">
					<use xlink:href="#SVGID_11_"  overflow="visible"/>
				</clipPath>
				<g id="g60_1_" clip-path="url(#SVGID_12_)">
					<g id="g66_3_" transform="translate(28,26)">
						<path id="path68_3_" fill="#99AAB5" d="M170-210.4c0-0.5-0.4-0.8-1-0.8h-6.8c-0.5,0-1,0.3-1,0.8c0,0.5,0.4,0.8,1,0.8h6.8
							C169.6-209.6,170-209.9,170-210.4"/>
					</g>
					<g id="g70_3_" transform="translate(28,3)">
						<path id="path72_3_" fill="#99AAB5" d="M170-198.6c0-0.5-0.4-0.8-1-0.8h-6.8c-0.5,0-1,0.3-1,0.8c0,0.5,0.4,0.8,1,0.8h6.8
							C169.6-197.8,170-198.1,170-198.6"/>
					</g>
				</g>
			</g>
		</g>
	</g>
	<g id="icon_i_1" transform="matrix(1.25,0,0,-1.25,0,47.5)">
		<g id="g12_2_">
			<g>
				<defs>
					<rect id="SVGID_13_" x="224.1" y="-231.5" width="23" height="23"/>
				</defs>
				<clipPath id="SVGID_14_">
					<use xlink:href="#SVGID_13_"  overflow="visible"/>
				</clipPath>
				<g id="g14_2_" clip-path="url(#SVGID_14_)">
					<g id="g20_2_" transform="translate(25,31)">
						<path id="path22_2_" fill="#CCD6DD" d="M213.9-245.2c0-1.6-1.3-2.9-2.9-2.9s-2.9,1.3-2.9,2.9s1.3,2.9,2.9,2.9
							S213.9-243.6,213.9-245.2"/>
					</g>
					<path id="path24_1_" fill="#CCD6DD" d="M239.2-227.6h-6.4v11.2h6.4V-227.6z"/>
				</g>
			</g>
		</g>
		<g id="g26_1_">
			<g>
				<defs>
					<rect id="SVGID_15_" x="232" y="-229" width="8" height="14"/>
				</defs>
				<clipPath id="SVGID_16_">
					<use xlink:href="#SVGID_15_"  overflow="visible"/>
				</clipPath>
				<g id="g28_2_" clip-path="url(#SVGID_16_)">
					<g id="g34_1_" transform="translate(34.1914,15.4902)">
						<path id="path36_1_" fill="#DD2E44" d="M209.2-237.2l-11.3,5.5l0.8,1.7l11.3-5.5L209.2-237.2z"/>
					</g>
					<g id="g38_1_" transform="translate(27.1758,1.1094)">
						<path id="path40_1_" fill="#DD2E44" d="M212.8-229.7l-11.3,5.5l0.8,1.7l11.3-5.5L212.8-229.7z"/>
					</g>
					<g id="g42_1_" transform="translate(32.4375,11.8945)">
						<path id="path44_1_" fill="#FFFFFF" d="M210.1-235.3l-11.3,5.5l0.8,1.7l11.3-5.5L210.1-235.3z"/>
					</g>
					<g id="g46_1_" transform="translate(28.9297,4.7051)">
						<path id="path48_1_" fill="#FFFFFF" d="M211.9-231.6l-11.3,5.5l0.8,1.7l11.3-5.5L211.9-231.6z"/>
					</g>
					<g id="g50_1_" transform="translate(25.4219,-2.4854)">
						<path id="path52_1_" fill="#FFFFFF" d="M213.7-227.9l-11.3,5.5l0.8,1.7l11.3-5.5L213.7-227.9z"/>
					</g>
					<g id="g54_1_" transform="translate(30.6836,8.2998)">
						<path id="path56_1_" fill="#55ACEE" d="M211-233.4l-11.3,5.5l0.8,1.7l11.3-5.5L211-233.4z"/>
					</g>
				</g>
			</g>
		</g>
		<g id="g58_1_">
			<g>
				<defs>
					<rect id="SVGID_17_" x="224.1" y="-231.5" width="23" height="23"/>
				</defs>
				<clipPath id="SVGID_18_">
					<use xlink:href="#SVGID_17_"  overflow="visible"/>
				</clipPath>
				<g id="g60_2_" clip-path="url(#SVGID_18_)">
					<g id="g66_1_" transform="translate(28,26)">
						<path id="path68_1_" fill="#99AAB5" d="M212.4-242.4c0-0.5-0.4-0.8-1-0.8h-6.8c-0.5,0-1,0.3-1,0.8c0,0.5,0.4,0.8,1,0.8h6.8
							C212-241.6,212.4-241.9,212.4-242.4"/>
					</g>
					<g id="g70_1_" transform="translate(28,3)">
						<path id="path72_1_" fill="#99AAB5" d="M212.4-230.6c0-0.5-0.4-0.8-1-0.8h-6.8c-0.5,0-1,0.3-1,0.8c0,0.5,0.4,0.8,1,0.8h6.8
							C212-229.8,212.4-230.1,212.4-230.6"/>
					</g>
				</g>
			</g>
		</g>
	</g>
	<g id="icon_c_1" transform="matrix(1.25,0,0,-1.25,0,47.5)">
		<g id="g12_5_">
			<g>
				<defs>
					<rect id="SVGID_19_" x="70.5" y="-233.9" width="23" height="23"/>
				</defs>
				<clipPath id="SVGID_20_">
					<use xlink:href="#SVGID_19_"  overflow="visible"/>
				</clipPath>
				<g id="g14_5_" clip-path="url(#SVGID_20_)">
					<g id="g20_5_" transform="translate(3.4717,30.4277)">
						<path id="path22_5_" fill="#5C913B" d="M71.7-247.3c-0.5-1-0.7-2.2-0.7-3.4c0-4.7,3.9-8.5,8.7-8.5c3.8,0,6.9,2.3,8.2,5.5
							L71.7-247.3z"/>
					</g>
					<g id="g24_2_" transform="translate(5.3315,29.7046)">
						<path id="path26_2_" fill="#FFE8B6" d="M70.8-246.9c-0.4-0.9-0.6-1.9-0.6-3c0-4.2,3.5-7.5,7.8-7.5c3.3,0,6.2,2.1,7.3,5
							L70.8-246.9z"/>
					</g>
					<g id="g28_5_" transform="translate(7.1909,28.9814)">
						<path id="path30_2_" fill="#DD2E44" d="M69.8-246.5c-0.4-0.8-0.6-1.7-0.6-2.7c0-3.6,3-6.6,6.8-6.6c2.9,0,5.4,1.8,6.4,4.4
							L69.8-246.5z"/>
					</g>
					<g id="g32" transform="translate(10.916,22.7227)">
						<path id="path34" d="M67.9-243.3c-0.1-0.2-0.4-0.3-0.5-0.3c-0.1,0.1-0.1,0.3,0.1,0.5c0.1,0.2,0.4,0.3,0.5,0.3
							C68.1-242.8,68.1-243.1,67.9-243.3"/>
					</g>
					<g id="g36" transform="translate(16.916,21.7227)">
						<path id="path38" d="M64.8-242.8c-0.1-0.2-0.4-0.3-0.5-0.3c-0.1,0.1-0.1,0.3,0.1,0.5c0.1,0.2,0.4,0.3,0.5,0.3
							C65-242.3,65-242.6,64.8-242.8"/>
					</g>
					<g id="g40" transform="translate(21.998,17.0449)">
						<path id="path42" d="M62.2-240.4c0-0.3-0.1-0.5-0.2-0.5c-0.1,0-0.3,0.2-0.3,0.5c0,0.3,0.1,0.5,0.2,0.5
							C62-239.9,62.2-240.1,62.2-240.4"/>
					</g>
					<g id="g44" transform="translate(12.998,19.0449)">
						<path id="path46" d="M66.8-241.4c0-0.3-0.1-0.5-0.2-0.5c-0.1,0-0.3,0.2-0.3,0.5c0,0.3,0.1,0.5,0.2,0.5
							C66.7-240.9,66.8-241.1,66.8-241.4"/>
					</g>
					<g id="g48" transform="translate(16.8994,13.6992)">
						<path id="path50" d="M64.8-238.6c-0.2-0.2-0.4-0.3-0.5-0.2c-0.1,0.1-0.1,0.3,0.1,0.5c0.2,0.2,0.4,0.3,0.5,0.2
							C65-238.2,65-238.4,64.8-238.6"/>
					</g>
					<g id="g52" transform="translate(24.9355,13.2451)">
						<path id="path54" d="M60.7-238.4c0.1-0.2,0.1-0.5,0-0.5c-0.1-0.1-0.3,0.1-0.5,0.3c-0.1,0.2-0.1,0.5,0,0.5
							C60.4-238,60.6-238.2,60.7-238.4"/>
					</g>
					<g id="g56" transform="translate(17.918,18.2734)">
						<path id="path58" d="M64.3-241c0.1-0.2,0.2-0.5,0.1-0.5c-0.1-0.1-0.3,0-0.5,0.3c-0.1,0.2-0.2,0.5-0.1,0.5
							C63.9-240.6,64.2-240.8,64.3-241"/>
					</g>
					<g id="g60" transform="translate(26.8994,16.6992)">
						<path id="path62" d="M59.7-240.2c-0.2-0.2-0.4-0.3-0.5-0.2c-0.1,0.1-0.1,0.3,0.1,0.5c0.2,0.2,0.4,0.3,0.5,0.2
							C59.9-239.7,59.8-240,59.7-240.2"/>
					</g>
				</g>
			</g>
		</g>
	</g>
	<g id="icon_o_1" transform="matrix(1.25,0,0,-1.25,0,47.5)">
		<g id="g12_18_">
			<g>
				<defs>
					<rect id="SVGID_21_" x="155.3" y="-231.5" width="23" height="23"/>
				</defs>
				<clipPath id="SVGID_22_">
					<use xlink:href="#SVGID_21_"  overflow="visible"/>
				</clipPath>
				<g id="g14_18_" clip-path="url(#SVGID_22_)">
					<g id="g20_18_" transform="translate(3.9995,17.5)">
						<path id="path22_18_" fill="#F4900C" d="M155.6-238.4c0,4.4,3.6,8,8,8c4.4,0,8-3.6,8-8c0-4.4-3.6-8-8-8
							C159.2-246.4,155.6-242.8,155.6-238.4"/>
					</g>
					<g id="g24_13_" transform="translate(12.4136,29.4146)">
						<path id="path26_13_" fill="#662113" d="M151.3-244.5c-0.1,0.1-0.4,0.1-0.7-0.1c-1.6,1.3-4.2,1.8-4.3,1.8
							c-0.3,0-0.5-0.1-0.6-0.4c0-0.3,0.1-0.5,0.4-0.6c0,0,2.4-0.4,3.8-1.5c-0.1-0.3-0.2-0.5,0-0.6c0.2-0.2,0.7,0,1,0.3
							C151.3-245.2,151.5-244.7,151.3-244.5"/>
					</g>
					<g id="g28_17_" transform="translate(22,36.0005)">
						<path id="path30_11_" fill="#5C913B" d="M146.3-247.9c0,0-1.5-2.1-3.4-2.6c-1.4-0.4-3.4-0.4-3.6,0.1c-0.2,0.4,0.8,1.9,2.4,2.6
							C143.4-247.1,146.3-247.9,146.3-247.9"/>
					</g>
				</g>
			</g>
		</g>
	</g>
	<g id="icon_o_2" transform="matrix(1.25,0,0,-1.25,0,47.5)">
		<g id="g12_4_">
			<g>
				<defs>
					<rect id="SVGID_23_" x="190.5" y="-231.5" width="23" height="23"/>
				</defs>
				<clipPath id="SVGID_24_">
					<use xlink:href="#SVGID_23_"  overflow="visible"/>
				</clipPath>
				<g id="g14_4_" clip-path="url(#SVGID_24_)">
					<g id="g20_4_" transform="translate(3.9995,17.5)">
						<path id="path22_4_" fill="#F4900C" d="M190.8-238.4c0,4.4,3.6,8,8,8c4.4,0,8-3.6,8-8c0-4.4-3.6-8-8-8
							C194.4-246.4,190.8-242.8,190.8-238.4"/>
					</g>
					<g id="g24_1_" transform="translate(12.4136,29.4146)">
						<path id="path26_1_" fill="#662113" d="M186.5-244.5c-0.1,0.1-0.4,0.1-0.7-0.1c-1.6,1.3-4.2,1.8-4.3,1.8
							c-0.3,0-0.5-0.1-0.6-0.4c0-0.3,0.1-0.5,0.4-0.6c0,0,2.4-0.4,3.8-1.5c-0.1-0.3-0.2-0.5,0-0.6c0.2-0.2,0.7,0,1,0.3
							C186.5-245.2,186.7-244.7,186.5-244.5"/>
					</g>
					<g id="g28_4_" transform="translate(22,36.0005)">
						<path id="path30_1_" fill="#5C913B" d="M181.5-247.9c0,0-1.5-2.1-3.4-2.6c-1.4-0.4-3.4-0.4-3.6,0.1c-0.2,0.4,0.8,1.9,2.4,2.6
							C178.6-247.1,181.5-247.9,181.5-247.9"/>
					</g>
				</g>
			</g>
		</g>
	</g>
</g>
<g id="watermelon">
	<g id="watermelon_icon_1_">
		<g>
			<path fill="#5C913B" d="M199.4,218.5c-41.8,0-75.9-34-75.9-75.9c0-7.5,1.1-14.9,3.2-21.9l-7.3-2.8c-2.5,8-3.7,16.3-3.7,24.8
				c0,46.1,37.5,83.7,83.7,83.7c32.3,0,61.8-18.7,75.6-47.8l-7.3-2.8C255.1,201.7,228.5,218.5,199.4,218.5z"/>
			<path fill="#DD2E44" d="M252.6,169.7L142,126.6l-7.3-2.8c-1.8,6.1-2.7,12.4-2.7,18.9c0,37.2,30.3,67.4,67.4,67.4
				c25.6,0,49.1-14.7,60.5-37.5L252.6,169.7z"/>
			<path fill="#FFE8B6" d="M199.4,214.3c-39.6,0-71.7-32.1-71.7-71.7c0-7.1,1-13.9,3-20.4l-3.9-1.5c-2.1,7.1-3.2,14.5-3.2,21.9
				c0,41.8,34,75.9,75.9,75.9c29.1,0,55.7-16.8,68.3-42.9l-3.9-1.5C252.2,197.9,227.7,214.3,199.4,214.3z"/>
			<path fill="#FFE8B6" d="M199.4,214.3c28.3,0,52.7-16.4,64.4-40.2l-3.9-1.5c-11.3,22.9-34.8,37.5-60.5,37.5
				c-37.2,0-67.4-30.3-67.4-67.4c0-6.4,0.9-12.8,2.7-18.9l-3.9-1.5c-1.9,6.5-3,13.3-3,20.4C127.8,182.2,159.9,214.3,199.4,214.3z"/>
			<rect x="264.6" y="172.4" fill="#5C913B" width="0" height="0"/>
			<polygon fill="#5C913B" points="264.6,172.4 264.6,172.4 264.6,172.4 			"/>
			<line fill="#5C913B" x1="264.6" y1="172.4" x2="264.6" y2="172.4"/>
		</g>
		<g id="g32_2_" transform="translate(10.916,22.7227)">
			<path id="path34_2_" d="M146.5,129.7c-1.4,2.1-3.3,3.2-4.4,2.5c-1-0.7-0.8-2.9,0.6-5c1.4-2.1,3.3-3.2,4.4-2.5
				C148.1,125.4,147.8,127.6,146.5,129.7"/>
		</g>
		<g id="g36_2_" transform="translate(16.916,21.7227)">
			<path id="path38_2_" d="M167.5,135.2c-1.4,2.1-3.3,3.2-4.4,2.5c-1-0.7-0.8-2.9,0.6-5c1.4-2.1,3.3-3.2,4.4-2.5
				C169.2,130.9,168.9,133.1,167.5,135.2"/>
		</g>
		<g id="g40_2_" transform="translate(21.998,17.0449)">
			<path id="path42_2_" d="M185.3,161c0.2,2.5-0.6,4.6-1.8,4.7c-1.2,0.1-2.4-1.8-2.7-4.3c-0.2-2.5,0.6-4.6,1.8-4.7
				C183.9,156.6,185.1,158.5,185.3,161"/>
		</g>
		<g id="g44_2_" transform="translate(12.998,19.0449)">
			<path id="path46_2_" d="M153.8,149.9c0.2,2.5-0.6,4.6-1.8,4.7c-1.2,0.1-2.4-1.8-2.7-4.3c-0.2-2.5,0.6-4.6,1.8-4.7
				C152.4,145.5,153.5,147.5,153.8,149.9"/>
		</g>
		<g id="g48_2_" transform="translate(16.8994,13.6992)">
			<path id="path50_2_" d="M167.5,179.4c-1.5,2-3.5,3-4.5,2.2c-1-0.7-0.6-3,0.9-5c1.5-2,3.5-3,4.5-2.2
				C169.4,175.2,169,177.4,167.5,179.4"/>
		</g>
		<g id="g52_2_" transform="translate(24.9355,13.2451)">
			<path id="path54_2_" d="M195.7,181.9c1.2,2.2,1.3,4.4,0.3,5c-1.1,0.6-3-0.6-4.2-2.8c-1.2-2.2-1.3-4.4-0.3-5
				C192.6,178.5,194.4,179.7,195.7,181.9"/>
		</g>
		<g id="g56_2_" transform="translate(17.918,18.2734)">
			<path id="path58_2_" d="M171,154.2c1.4,2.1,1.6,4.3,0.6,5c-1,0.7-3-0.4-4.4-2.5c-1.4-2.1-1.6-4.3-0.6-5
				C167.7,151,169.7,152.1,171,154.2"/>
		</g>
		<g id="g60_7_" transform="translate(26.8994,16.6992)">
			<path id="path62_2_" d="M202.6,162.9c-1.5,2-3.5,3-4.5,2.2c-1-0.7-0.6-3,0.9-5c1.5-2,3.5-3,4.5-2.2
				C204.5,158.7,204.1,160.9,202.6,162.9"/>
		</g>
	</g>
	<g id="lttr_c">
		<path id="letter_c_1_" fill="none" stroke="#FFFFFF" stroke-width="8.4216" stroke-miterlimit="10" d="M250.1,193.3
			c-28,28-73.4,28-101.3,0c-28-28-28-73.4,0-101.3c28-28,73.4-28,101.3,0"/>
	</g>
</g>
<g id="pole_1_">
	<g id="pole_icon" transform="matrix(1.25,0,0,-1.25,0,47.5)">
		<g id="g12_6_">
			<g>
				<defs>
					<rect id="SVGID_25_" x="75" y="-154.8" width="170" height="168"/>
				</defs>
				<clipPath id="SVGID_26_">
					<use xlink:href="#SVGID_25_"  overflow="visible"/>
				</clipPath>
				<g id="g14_6_" clip-path="url(#SVGID_26_)">
					<g id="g20_6_" transform="translate(25,31)">
						<path id="path22_6_" fill="#CCD6DD" d="M156.7-59.5c0-11.8-9.6-21.5-21.5-21.5c-11.8,0-21.5,9.6-21.5,21.5
							c0,11.8,9.6,21.5,21.5,21.5C147.1-38,156.7-47.6,156.7-59.5"/>
					</g>
					<path id="path24_4_" fill="#CCD6DD" d="M185.6-125.2h-50.4v76.8h50.4V-125.2z"/>
				</g>
			</g>
		</g>
		<g id="g26_4_">
			<g>
				<defs>
					<rect id="SVGID_27_" x="128.9" y="-134.8" width="63" height="96"/>
				</defs>
				<clipPath id="SVGID_28_">
					<use xlink:href="#SVGID_27_"  overflow="visible"/>
				</clipPath>
				<g id="g28_6_" clip-path="url(#SVGID_28_)">
					<g id="g34_4_" transform="translate(34.1914,15.4902)">
						<path id="path36_4_" fill="#DD2E44" d="M180.4-99.4L96.8-58.7l6.3,12.9l83.6-40.8L180.4-99.4z"/>
					</g>
					<g id="g38_4_" transform="translate(27.1758,1.1094)">
						<path id="path40_4_" fill="#DD2E44" d="M162.3-136.5L78.8-95.7L85-82.9l83.6-40.8L162.3-136.5z"/>
					</g>
					<g id="g42_4_" transform="translate(32.4375,11.8945)">
						<path id="path44_4_" fill="#FFFFFF" d="M175.9-108.7L92.3-67.9l6.3,12.9l83.6-40.8L175.9-108.7z"/>
					</g>
					<g id="g46_4_" transform="translate(28.9297,4.7051)">
						<path id="path48_4_" fill="#FFFFFF" d="M166.9-127.2L83.3-86.5l6.3,12.9l83.6-40.8L166.9-127.2z"/>
					</g>
					<g id="g50_4_" transform="translate(25.4219,-2.4854)">
						<path id="path52_4_" fill="#FFFFFF" d="M157.8-145.7L74.3-105l6.3,12.9l83.6-40.8L157.8-145.7z"/>
					</g>
					<g id="g54_4_" transform="translate(30.6836,8.2998)">
						<path id="path56_4_" fill="#55ACEE" d="M171.4-118L87.8-77.2l6.3,12.9l83.6-40.8L171.4-118z"/>
					</g>
				</g>
			</g>
		</g>
		<g id="g58_4_">
			<g>
				<defs>
					<rect id="SVGID_29_" x="75" y="-154.8" width="170" height="168"/>
				</defs>
				<clipPath id="SVGID_30_">
					<use xlink:href="#SVGID_29_"  overflow="visible"/>
				</clipPath>
				<g id="g60_4_" clip-path="url(#SVGID_30_)">
					<g id="g66_4_" transform="translate(28,26)">
						<path id="path68_4_" fill="#99AAB5" d="M164.5-72.4c0-3.9-3.2-7.6-7.2-7.6h-50.1c-3.9,0-7.2,3.7-7.2,7.6
							c0,3.9,3.2,7.6,7.2,7.6h50.1C161.3-64.8,164.5-68.5,164.5-72.4"/>
					</g>
					<g id="g70_4_" transform="translate(28,3)">
						<path id="path72_4_" fill="#99AAB5" d="M164.5-132.2c0-3.9-3.2-7.2-7.2-7.2h-50.1c-3.9,0-7.2,3.3-7.2,7.2
							c0,3.9,3.2,7.2,7.2,7.2h50.1C161.3-125,164.5-128.3,164.5-132.2"/>
					</g>
				</g>
			</g>
		</g>
	</g>
	<g id="lttr_i">
		
			<line id="letter_i" fill="none" stroke="#FFFFFF" stroke-width="9" stroke-miterlimit="10" x1="199.5" y1="67" x2="199.5" y2="218"/>
	</g>
</g>
<g id="orange">
	<g id="orange_icon_1_" transform="matrix(1.25,0,0,-1.25,0,47.5)">
		<g id="g12_8_">
			<g>
				<defs>
					<rect id="SVGID_31_" x="68.5" y="-155" width="171" height="170"/>
				</defs>
				<clipPath id="SVGID_32_">
					<use xlink:href="#SVGID_31_"  overflow="visible"/>
				</clipPath>
				<g id="g14_8_" clip-path="url(#SVGID_32_)">
					<g id="g20_8_" transform="translate(3.9995,17.5)">
						<path id="path22_8_" fill="#F4900C" d="M96-93.6c0,33,26.8,59.8,59.8,59.8c33,0,59.8-26.8,59.8-59.8c0-33-26.8-59.8-59.8-59.8
							C122.8-153.3,96-126.6,96-93.6"/>
					</g>
					<g id="g24_4_" transform="translate(12.4136,29.4146)">
						<path id="path26_4_" fill="#662113" d="M118.1-62.3c-1,1-2.9,0.7-4.9-0.4c-12,9.9-31.3,13.2-32.2,13.4c-2,0.3-3.8-1-4.2-3
							c-0.3-2,1-3.8,3-4.2c0.2,0,17.9-3.1,28.3-11.4c-1-1.9-1.2-3.7-0.3-4.6c1.4-1.4,4.9-0.3,7.7,2.6
							C118.4-67.2,119.5-63.8,118.1-62.3"/>
					</g>
					<g id="g28_8_" transform="translate(22,36.0005)">
						<path id="path30_4_" fill="#5C913B" d="M143.2-45.1c0,0-11.2-15.6-25.4-19.1c-10.8-2.6-25.1-2.9-26.6,0.4
							c-1.4,3.3,5.7,14.3,18,19.5C121.6-38.9,143.2-45.1,143.2-45.1"/>
					</g>
				</g>
			</g>
		</g>
	</g>
	<g id="lttr_o">
		<g id="letter_o_1_">
			<g>
				<path fill="#FFFFFF" d="M199.4,76.1c36.7,0,66.6,29.9,66.6,66.6c0,36.7-29.9,66.6-66.6,66.6c-36.7,0-66.6-29.9-66.6-66.6
					C132.9,105.9,162.7,76.1,199.4,76.1 M199.4,67.2c-41.7,0-75.4,33.8-75.4,75.4c0,41.7,33.8,75.4,75.4,75.4
					c41.7,0,75.4-33.8,75.4-75.4C274.8,101,241.1,67.2,199.4,67.2L199.4,67.2z"/>
			</g>
		</g>
	</g>
</g>
</svg>
