<?xml version="1.0" encoding="utf-8"?>
<!-- Generator: Adobe Illustrator 16.0.0, SVG Export Plug-In . SVG Version: 6.00 Build 0)  -->
<!DOCTYPE svg PUBLIC "-//W3C//DTD SVG 1.1//EN" "http://www.w3.org/Graphics/SVG/1.1/DTD/svg11.dtd">
<svg version="1.1" id="Layer_1" xmlns="http://www.w3.org/2000/svg" xmlns:xlink="http://www.w3.org/1999/xlink" x="0px" y="0px"
	 width="400px" height="400px" viewBox="0 0 400 400" enable-background="new 0 0 400 400" xml:space="preserve">
<g id="back" display="none">
	<rect display="inline" fill="#313131" width="1200" height="400"/>
</g>
<g id="txts">
	<g id="text1">
		<g>
			<g>
				<rect x="39.3" y="269.9" fill="none" width="319.3" height="100.3"/>
				<text transform="matrix(1 0 0 1 60.4019 294.7881)" fill="#FFFFFF" font-family="'FiraMono-Medium'" font-size="33">THIS IS NOT A</text>
				<text transform="matrix(1 0 0 1 92.5767 334.3877)" fill="#FFFFFF" font-family="'FiraMono-Medium'" font-size="33">WATERMELON</text>
			</g>
		</g>
	</g>
	<g id="text2">
		<g>
			<g>
				<rect x="440.8" y="269.1" fill="none" width="319.3" height="100.3"/>
				<text transform="matrix(1 0 0 1 461.9023 293.9375)" fill="#FFFFFF" font-family="'FiraMono-Medium'" font-size="33">IT’S ACTUALLY</text>
				<text transform="matrix(1 0 0 1 515.5264 333.5371)" fill="#FFFFFF" font-family="'FiraMono-Medium'" font-size="33">A LETTER</text>
			</g>
		</g>
	</g>
	<g id="text3">
		<g>
			<text transform="matrix(1 0 0 1 948.2295 293.9395)" fill="#FFFFFF" font-family="'FiraMono-Medium'" font-size="33">H</text>
			<g id="single_i_2">
				<text transform="matrix(1 0 0 1 970.1045 293.9395)" fill="#FFFFFF" font-family="'FiraMono-Medium'" font-size="33">I</text>
			</g>
			<text transform="matrix(1 0 0 1 990.9961 293.9395)" fill="#FFFFFF" font-family="'FiraMono-Medium'" font-size="33">S</text>
			<g id="single_i_3">
				<text transform="matrix(1 0 0 1 1034.1377 293.9395)" fill="#FFFFFF" font-family="'FiraMono-Medium'" font-size="33">I</text>
			</g>
			<text transform="matrix(1 0 0 1 1055.0303 293.9395)" fill="#FFFFFF" font-family="'FiraMono-Medium'" font-size="33">S</text>
			<g id="single_c_1">
				<text transform="matrix(1 0 0 1 894.3594 333.5)" fill="#FFFFFF" font-family="'FiraMono-Medium'" font-size="33">C</text>
			</g>
			<text transform="matrix(1 0 0 1 915.9307 333.5)" fill="#FFFFFF" font-family="'FiraMono-Medium'" font-size="33">R</text>
			<text transform="matrix(1 0 0 1 958.8086 333.5)" fill="#FFFFFF" font-family="'FiraMono-Medium'" font-size="33">P</text>
			<text transform="matrix(1 0 0 1 980.3213 333.5)" fill="#FFFFFF" font-family="'FiraMono-Medium'" font-size="33">T</text>
			<g id="single_o_1">
				<text transform="matrix(1 0 0 1 1001.6963 333.5)" fill="#FFFFFF" font-family="'FiraMono-Medium'" font-size="33">O</text>
			</g>
			<text transform="matrix(1 0 0 1 1023.0713 333.5)" fill="#FFFFFF" font-family="'FiraMono-Medium'" font-size="33">L</text>
			<g id="single_o_2">
				<text transform="matrix(1 0 0 1 1044.5928 333.5)" fill="#FFFFFF" font-family="'FiraMono-Medium'" font-size="33">O</text>
			</g>
			<text transform="matrix(1 0 0 1 1066.0303 333.5)" fill="#FFFFFF" font-family="'FiraMono-Medium'" font-size="33">J</text>
			<g id="single_i_1">
				<text transform="matrix(1 0 0 1 1087.5303 333.5)" fill="#FFFFFF" font-family="'FiraMono-Medium'" font-size="33">I</text>
			</g>
			<text transform="matrix(1 0 0 1 926.7295 293.9385)" fill="#FFFFFF" font-family="'FiraMono-Medium'" font-size="33">T</text>
			<text transform="matrix(1 0 0 1 937.4795 333.5)" fill="#FFFFFF" font-family="'FiraMono-Medium'" font-size="33">Y</text>
		</g>
	</g>
	<g id="text3_emoji">
		
			<g id="img_i_3"><image overflow="visible" enable-background="new    " width="128" height="128" xlink:href="../img/asset_onboarding-03.png"  transform="matrix(0.2018 0 0 0.2018 967.4043 269.9541)">
		</image></g>
		
			<g id="img_i_2"><image overflow="visible" enable-background="new    " width="128" height="128" xlink:href="../img/asset_onboarding-03.png"  transform="matrix(0.2018 0 0 0.2018 1030.8438 269.9541)">
		</image></g>
		
			<g id="img_i_1"><image overflow="visible" enable-background="new    " width="128" height="128" xlink:href="../img/asset_onboarding-03.png"  transform="matrix(0.2018 0 0 0.2018 1084.3438 309.5537)">
		</image></g>
		
			<g id="img_c_1"><image overflow="visible" enable-background="new    " width="128" height="128" xlink:href="../img/asset_onboarding-02.png"  transform="matrix(0.2033 0 0 0.2033 893.876 309.4912)">
		</image></g>
		
			<g id="img_o_1"><image overflow="visible" enable-background="new    " width="128" height="128" xlink:href="../img/asset_onboarding-01.png"  transform="matrix(0.1888 0 0 0.1888 999.5 310.9004)">
		</image></g>
		
			<g id="img_o_2"><image overflow="visible" enable-background="new    " width="128" height="128" xlink:href="../img/asset_onboarding-01.png"  transform="matrix(0.1888 0 0 0.1888 1042.9463 310.9004)">
		</image></g>
	</g>
</g>
<g id="icns">
	<g id="watermelon">
		
			<image overflow="visible" enable-background="new    " width="600" height="600" id="watermelon_img" xlink:href="../img/asset_onboarding-02_big.png"  transform="matrix(0.2174 -0.2174 0.2174 0.2174 68.8335 142.4463)">
		</image>
		<g id="lttr_c">
			<path id="letter_c_1_" fill="none" stroke="#FFFFFF" stroke-width="8.4216" stroke-miterlimit="10" d="M250.1,193.3
				c-28,28-73.4,28-101.3,0c-28-28-28-73.4,0-101.3s73.4-28,101.3,0"/>
		</g>
	</g>
	<g id="pole">
		
			<image overflow="visible" enable-background="new    " width="600" height="600" id="pole_img" xlink:href="../img/asset_onboarding-03_big.png"  transform="matrix(0.3 0 0 0.3 507.8086 53.2085)">
		</image>
		<g id="lttr_i">
			
				<line id="letter_i" fill="none" stroke="#FFFFFF" stroke-width="9" stroke-miterlimit="10" x1="597.8" y1="67" x2="597.8" y2="218"/>
		</g>
	</g>
	<g id="orange">
		
			<image overflow="visible" enable-background="new    " width="600" height="600" id="orange_img" xlink:href="../img/asset_onboarding-01_big.png"  transform="matrix(0.2936 0 0 0.2936 918.3555 54.5532)">
		</image>
		<g id="lttr_o">
			<g id="letter_o">
				<g>
					<path fill="#FFFFFF" d="M1006.4,76.1c36.7,0,66.6,29.9,66.6,66.6s-29.9,66.6-66.6,66.6s-66.6-29.9-66.6-66.6
						S969.7,76.1,1006.4,76.1 M1006.4,67.2c-41.7,0-75.4,33.8-75.4,75.4c0,41.7,33.8,75.4,75.4,75.4c41.7,0,75.4-33.8,75.4-75.4
						C1081.8,101,1048.1,67.2,1006.4,67.2L1006.4,67.2z"/>
				</g>
			</g>
		</g>
	</g>
</g>
</svg>
