<?xml version="1.0" encoding="utf-8"?>
<!-- Generator: Adobe Illustrator 18.0.0, SVG Export Plug-In . SVG Version: 6.00 Build 0)  -->
<!DOCTYPE svg PUBLIC "-//W3C//DTD SVG 1.1//EN" "http://www.w3.org/Graphics/SVG/1.1/DTD/svg11.dtd">
<svg version="1.1" xmlns="http://www.w3.org/2000/svg" xmlns:xlink="http://www.w3.org/1999/xlink" x="0px" y="0px"
	 viewBox="0 0 315 560.1" enable-background="new 0 0 315 560.1" xml:space="preserve">
<g id="back">
</g>
<g id="notes">
</g>
<g id="input">
</g>
<g id="landing_pages">
</g>
<g id="onboarding">
	<g>
		<polyline fill="#283344" points="0.5,560.1 0.5,0.1 314.6,0.1 314.6,560.1 		"/>
		<g>
			<g>
				<g>
					<path fill="#FFFFFF" d="M26.8,306.4h5v1.7h-5v4.4h6.1v1.8h-8.4v-13.8h8.3l-0.3,1.8h-5.7V306.4z"/>
					<path fill="#FFFFFF" d="M38.4,302.5c0.1,0.8,0.3,3.2,0.3,5.5v6.3h-2.1v-13.8h3l4.4,11.7c-0.1-0.8-0.3-3-0.3-5.5v-6.3h2.1v13.8
						h-3L38.4,302.5z"/>
					<path fill="#FFFFFF" d="M59.5,301.6l-1.2,1.4c-0.8-0.7-1.8-1-2.9-1c-2.1,0-3.8,1.4-3.8,5.3c0,3.8,1.6,5.3,3.8,5.3
						c1.5,0,2.4-0.6,3.1-1.2l1.1,1.4c-0.9,0.9-2.3,1.6-4.3,1.6c-3.5,0-6.2-2.5-6.2-7.2c0-4.6,2.8-7.2,6.1-7.2
						C57.2,300.2,58.4,300.7,59.5,301.6z"/>
					<path fill="#FFFFFF" d="M69,308.3l3.9,6h-2.7l-3.5-5.7h-1.5v5.7h-2.3v-13.8h3.8c3.5,0,5.4,1.3,5.4,4
						C72.1,306.5,70.8,307.7,69,308.3z M66.9,302.2h-1.7v4.7h1.7c1.8,0,2.8-0.7,2.8-2.4C69.7,302.8,68.8,302.2,66.9,302.2z"/>
					<path fill="#FFFFFF" d="M81.4,314.3H79V309l-4.6-8.5H77l3.3,6.5l3.3-6.5H86l-4.6,8.5V314.3z"/>
					<path fill="#FFFFFF" d="M93.1,309.3h-1.7v4.9h-2.3v-13.8h3.8c3.5,0,5.5,1.4,5.5,4.3C98.5,308,96.3,309.3,93.1,309.3z
						 M93.1,302.2h-1.7v5.4h1.7c1.7,0,2.9-0.7,2.9-2.8C96.1,302.9,94.9,302.2,93.1,302.2z"/>
					<path fill="#FFFFFF" d="M107.3,314.3H105v-11.9h-4.2v-1.9h10.7l-0.2,1.9h-4V314.3z"/>
					<path fill="#FFFFFF" d="M123.4,302.2h-3v10.3h3v1.8H115v-1.8h3v-10.3h-3v-1.8h8.3V302.2z"/>
					<path fill="#FFFFFF" d="M132.2,314.5c-3.5,0-5.2-2.8-5.2-7.1c0-4.3,1.8-7.2,5.2-7.2c3.5,0,5.2,2.8,5.2,7.2
						C137.4,311.6,135.7,314.5,132.2,314.5z M132.2,302c-2,0-2.9,1.8-2.9,5.4c0,3.6,0.9,5.3,2.9,5.3c2,0,2.9-1.8,2.9-5.4
						S134.2,302,132.2,302z"/>
					<path fill="#FFFFFF" d="M142.4,302.5c0.1,0.8,0.3,3.2,0.3,5.5v6.3h-2.1v-13.8h3l4.4,11.7c-0.1-0.8-0.3-3-0.3-5.5v-6.3h2.1v13.8
						h-3L142.4,302.5z"/>
					<path fill="#FFFFFF" d="M175.4,302.2h-3v10.3h3v1.8H167v-1.8h3v-10.3h-3v-1.8h8.3V302.2z"/>
					<path fill="#FFFFFF" d="M183.9,314.5c-2.2,0-3.9-0.7-5.1-1.8l1.3-1.4c1,0.9,2.2,1.4,3.8,1.4c1.6,0,2.9-0.7,2.9-2.2
						c0-1.2-0.6-1.8-2.8-2.5c-2.9-0.9-4.5-2-4.5-4.1c0-2.3,2-3.7,4.7-3.7c2,0,3.4,0.6,4.6,1.7l-1.2,1.4c-1-0.8-2.1-1.2-3.3-1.2
						c-1.4,0-2.5,0.6-2.5,1.8c0,1.1,0.8,1.6,3.2,2.3c2.3,0.7,4.1,1.7,4.1,4.3C189.2,312.8,187.2,314.5,183.9,314.5z"/>
					<path fill="#FFFFFF" d="M211.3,314.3H209v-11.9h-4.2v-1.9h10.7l-0.2,1.9h-4V314.3z"/>
					<path fill="#FFFFFF" d="M225.5,308h-4.5v6.3h-2.3v-13.8h2.3v5.6h4.5v-5.6h2.3v13.8h-2.3V308z"/>
					<path fill="#FFFFFF" d="M234.8,306.4h5v1.7h-5v4.4h6.1v1.8h-8.4v-13.8h8.3l-0.3,1.8h-5.7V306.4z"/>
					<path fill="#FFFFFF" d="M259.7,310.9l-1,3.3h-2.4l4.4-13.8h2.9l4.4,13.8h-2.5l-1-3.3H259.7z M264.1,309.1l-2-6.9l-2,6.9H264.1z
						"/>
					<path fill="#FFFFFF" d="M277,308.3l3.9,6h-2.7l-3.5-5.7h-1.5v5.7h-2.3v-13.8h3.8c3.5,0,5.4,1.3,5.4,4
						C280.1,306.5,278.8,307.7,277,308.3z M274.9,302.2h-1.7v4.7h1.7c1.8,0,2.8-0.7,2.8-2.4C277.7,302.8,276.8,302.2,274.9,302.2z"
						/>
					<path fill="#FFFFFF" d="M289.3,314.3H287v-11.9h-4.2v-1.9h10.7l-0.2,1.9h-4V314.3z"/>
					<path fill="#FFFFFF" d="M41.2,338.5c-3.5,0-5.2-2.8-5.2-7.1c0-4.3,1.8-7.2,5.2-7.2c3.5,0,5.2,2.8,5.2,7.2
						C46.4,335.6,44.7,338.5,41.2,338.5z M41.2,326c-2,0-2.9,1.8-2.9,5.4c0,3.6,0.9,5.3,2.9,5.3c2,0,2.9-1.8,2.9-5.4
						S43.2,326,41.2,326z"/>
					<path fill="#FFFFFF" d="M53.1,330.6h5.2v1.8h-5.2v5.9h-2.3v-13.8h8.5l-0.2,1.8h-5.9V330.6z"/>
					<path fill="#FFFFFF" d="M81.3,338.3H79v-11.9h-4.2v-1.9h10.7l-0.2,1.9h-4V338.3z"/>
					<path fill="#FFFFFF" d="M98,333.7c0,2.8-1.8,4.8-4.8,4.8c-3.1,0-4.8-1.9-4.8-4.8v-9.3h2.3v8.8c0,2.3,0.7,3.4,2.4,3.4
						c1.7,0,2.5-1.1,2.5-3.4v-8.8H98V333.7z"/>
					<path fill="#FFFFFF" d="M108,332.3l3.9,6h-2.7l-3.5-5.7h-1.5v5.7h-2.3v-13.8h3.8c3.5,0,5.4,1.3,5.4,4
						C111.1,330.5,109.8,331.7,108,332.3z M105.9,326.2h-1.7v4.7h1.7c1.8,0,2.8-0.7,2.8-2.4C108.7,326.8,107.8,326.2,105.9,326.2z"
						/>
					<path fill="#FFFFFF" d="M116.4,326.5c0.1,0.8,0.3,3.2,0.3,5.5v6.3h-2.1v-13.8h3l4.4,11.7c-0.1-0.8-0.3-3-0.3-5.5v-6.3h2.1v13.8
						h-3L116.4,326.5z"/>
					<path fill="#FFFFFF" d="M136.4,326.2h-3v10.3h3v1.8H128v-1.8h3v-10.3h-3v-1.8h8.3V326.2z"/>
					<path fill="#FFFFFF" d="M142.4,326.5c0.1,0.8,0.3,3.2,0.3,5.5v6.3h-2.1v-13.8h3l4.4,11.7c-0.1-0.8-0.3-3-0.3-5.5v-6.3h2.1v13.8
						h-3L142.4,326.5z"/>
					<path fill="#FFFFFF" d="M152.9,331.3c0-4.7,2.8-7.2,6-7.2c1.9,0,3,0.6,4.1,1.6l-1.3,1.3c-0.8-0.8-1.7-1.1-2.7-1.1
						c-1.9,0-3.7,1.4-3.7,5.3c0,3.9,1.1,5.4,3.3,5.4c0.8,0,1.6-0.2,2.3-0.6v-3.8h-2.3l-0.2-1.8h4.8v6.7c-1.3,0.7-2.7,1.3-4.6,1.3
						C155,338.5,152.9,336.1,152.9,331.3z"/>
					<path fill="#FFFFFF" d="M189.7,338.3h-2.1l-0.3-6.7c-0.1-2-0.1-3.9,0-5l-2,9.3h-2l-2.2-9.3c0.1,1.1,0.1,3.1,0.1,5.1l-0.3,6.7
						h-2.1l0.8-13.8h2.8l2,9.2l1.9-9.2h2.8L189.7,338.3z"/>
					<path fill="#FFFFFF" d="M195.8,330.4h5v1.7h-5v4.4h6.1v1.8h-8.4v-13.8h8.3l-0.3,1.8h-5.7V330.4z"/>
					<path fill="#FFFFFF" d="M209.9,338.5c-2.2,0-3.9-0.7-5.1-1.8l1.3-1.4c1,0.9,2.2,1.4,3.8,1.4c1.6,0,2.9-0.7,2.9-2.2
						c0-1.2-0.6-1.8-2.8-2.5c-2.9-0.9-4.5-2-4.5-4.1c0-2.3,2-3.7,4.7-3.7c2,0,3.4,0.6,4.6,1.7l-1.2,1.4c-1-0.8-2.1-1.2-3.3-1.2
						c-1.4,0-2.5,0.6-2.5,1.8c0,1.1,0.8,1.6,3.2,2.3c2.3,0.7,4.1,1.7,4.1,4.3C215.2,336.8,213.2,338.5,209.9,338.5z"/>
					<path fill="#FFFFFF" d="M222.9,338.5c-2.2,0-3.9-0.7-5.1-1.8l1.3-1.4c1,0.9,2.2,1.4,3.8,1.4c1.6,0,2.9-0.7,2.9-2.2
						c0-1.2-0.6-1.8-2.8-2.5c-2.9-0.9-4.5-2-4.5-4.1c0-2.3,2-3.7,4.7-3.7c2,0,3.4,0.6,4.6,1.7l-1.2,1.4c-1-0.8-2.1-1.2-3.3-1.2
						c-1.4,0-2.5,0.6-2.5,1.8c0,1.1,0.8,1.6,3.2,2.3c2.3,0.7,4.1,1.7,4.1,4.3C228.2,336.8,226.2,338.5,222.9,338.5z"/>
					<path fill="#FFFFFF" d="M233.7,334.9l-1,3.3h-2.4l4.4-13.8h2.9l4.4,13.8h-2.5l-1-3.3H233.7z M238.1,333.1l-2-6.9l-2,6.9H238.1z
						"/>
					<path fill="#FFFFFF" d="M243.9,331.3c0-4.7,2.8-7.2,6-7.2c1.9,0,3,0.6,4.1,1.6l-1.3,1.3c-0.8-0.8-1.7-1.1-2.7-1.1
						c-1.9,0-3.7,1.4-3.7,5.3c0,3.9,1.1,5.4,3.3,5.4c0.8,0,1.6-0.2,2.3-0.6v-3.8h-2.3l-0.2-1.8h4.8v6.7c-1.3,0.7-2.7,1.3-4.6,1.3
						C246,338.5,243.9,336.1,243.9,331.3z"/>
					<path fill="#FFFFFF" d="M260.8,330.4h5v1.7h-5v4.4h6.1v1.8h-8.4v-13.8h8.3l-0.3,1.8h-5.7V330.4z"/>
					<path fill="#FFFFFF" d="M274.9,338.5c-2.2,0-3.9-0.7-5.1-1.8l1.3-1.4c1,0.9,2.2,1.4,3.8,1.4c1.6,0,2.9-0.7,2.9-2.2
						c0-1.2-0.6-1.8-2.8-2.5c-2.9-0.9-4.5-2-4.5-4.1c0-2.3,2-3.7,4.7-3.7c2,0,3.4,0.6,4.6,1.7l-1.2,1.4c-1-0.8-2.1-1.2-3.3-1.2
						c-1.4,0-2.5,0.6-2.5,1.8c0,1.1,0.8,1.6,3.2,2.3c2.3,0.7,4.1,1.7,4.1,4.3C280.2,336.8,278.2,338.5,274.9,338.5z"/>
					<path fill="#FFFFFF" d="M77.9,350.2h-3v10.3h3v1.8h-8.3v-1.8h3v-10.3h-3v-1.8h8.3V350.2z"/>
					<path fill="#FFFFFF" d="M83.9,350.5c0.1,0.8,0.3,3.2,0.3,5.5v6.3h-2.1v-13.8h3l4.4,11.7c-0.1-0.8-0.3-3-0.3-5.5v-6.3h2.1v13.8
						h-3L83.9,350.5z"/>
					<path fill="#FFFFFF" d="M100.8,362.3h-2.3v-11.9h-4.2v-1.9h10.7l-0.2,1.9h-4V362.3z"/>
					<path fill="#FFFFFF" d="M112.7,362.5c-3.5,0-5.2-2.8-5.2-7.1c0-4.3,1.8-7.2,5.2-7.2c3.5,0,5.2,2.8,5.2,7.2
						C117.9,359.6,116.2,362.5,112.7,362.5z M112.7,350c-2,0-2.9,1.8-2.9,5.4c0,3.6,0.9,5.3,2.9,5.3c2,0,2.9-1.8,2.9-5.4
						S114.7,350,112.7,350z"/>
					<path fill="#FFFFFF" d="M138.4,362.5c-2.2,0-3.9-0.7-5.1-1.8l1.3-1.4c1,0.9,2.2,1.4,3.8,1.4c1.6,0,2.9-0.7,2.9-2.2
						c0-1.2-0.6-1.8-2.8-2.5c-2.9-0.9-4.5-2-4.5-4.1c0-2.3,2-3.7,4.7-3.7c2,0,3.4,0.6,4.6,1.7l-1.2,1.4c-1-0.8-2.1-1.2-3.3-1.2
						c-1.4,0-2.5,0.6-2.5,1.8c0,1.1,0.8,1.6,3.2,2.3c2.3,0.7,4.1,1.7,4.1,4.3C143.7,360.8,141.7,362.5,138.4,362.5z"/>
					<path fill="#FFFFFF" d="M157,349.6l-1.2,1.4c-0.8-0.7-1.8-1-2.9-1c-2.1,0-3.8,1.4-3.8,5.3c0,3.8,1.6,5.3,3.8,5.3
						c1.5,0,2.4-0.6,3.1-1.2l1.1,1.4c-0.9,0.9-2.3,1.6-4.3,1.6c-3.5,0-6.2-2.5-6.2-7.2c0-4.6,2.8-7.2,6.1-7.2
						C154.7,348.2,155.9,348.7,157,349.6z"/>
					<path fill="#FFFFFF" d="M166.5,356.3l3.9,6h-2.7l-3.5-5.7h-1.5v5.7h-2.3v-13.8h3.8c3.5,0,5.4,1.3,5.4,4
						C169.6,354.5,168.3,355.7,166.5,356.3z M164.4,350.2h-1.7v4.7h1.7c1.8,0,2.8-0.7,2.8-2.4C167.2,350.8,166.3,350.2,164.4,350.2z
						"/>
					<path fill="#FFFFFF" d="M175.2,358.9l-1,3.3h-2.4l4.4-13.8h2.9l4.4,13.8h-2.5l-1-3.3H175.2z M179.6,357.1l-2-6.9l-2,6.9H179.6z
						"/>
					<path fill="#FFFFFF" d="M196.2,362.3h-2.1l-0.3-6.7c-0.1-2-0.1-3.9,0-5l-2,9.3h-2l-2.2-9.3c0.1,1.1,0.1,3.1,0.1,5.1l-0.3,6.7
						h-2.1l0.8-13.8h2.8l2,9.2l1.9-9.2h2.8L196.2,362.3z"/>
					<path fill="#FFFFFF" d="M203.4,362.3h-4v-13.8h3.8c2.6,0,5,0.8,5,3.5c0,1.7-1.2,2.7-2.6,3c1.5,0.3,3.2,1.1,3.2,3.3
						C208.7,361.4,206.1,362.3,203.4,362.3z M203.3,350.2h-1.7v4h1.8c1.5,0,2.3-0.6,2.3-2C205.8,350.7,204.9,350.2,203.3,350.2z
						 M203.6,355.9h-2v4.5h1.9c1.3,0,2.8-0.3,2.8-2.2C206.3,356.4,205.1,355.9,203.6,355.9z"/>
					<path fill="#FFFFFF" d="M213.1,348.4h2.3v11.9h6.2l-0.3,1.9h-8.2V348.4z"/>
					<path fill="#FFFFFF" d="M228.3,354.4h5v1.7h-5v4.4h6.1v1.8H226v-13.8h8.3l-0.3,1.8h-5.7V354.4z"/>
					<path fill="#FFFFFF" d="M241.5,362.3h-3.4v-13.8h3.2c3.4,0,6.6,1.1,6.6,6.8C247.9,361,244.6,362.3,241.5,362.3z M241.7,350.2
						h-1.3v10.3h1.3c1.9,0,3.7-1,3.7-5.2C245.5,350.9,243.6,350.2,241.7,350.2z"/>
					<path fill="#FFFFFF" d="M118.2,386.3h-2.1l-0.3-6.7c-0.1-2-0.1-3.9,0-5l-2,9.3h-2l-2.2-9.3c0.1,1.1,0.1,3.1,0.1,5.1l-0.3,6.7
						h-2.1l0.8-13.8h2.8l2,9.2l1.9-9.2h2.8L118.2,386.3z"/>
					<path fill="#FFFFFF" d="M124.3,378.4h5v1.7h-5v4.4h6.1v1.8H122v-13.8h8.3l-0.3,1.8h-5.7V378.4z"/>
					<path fill="#FFFFFF" d="M138.4,386.5c-2.2,0-3.9-0.7-5.1-1.8l1.3-1.4c1,0.9,2.2,1.4,3.8,1.4c1.6,0,2.9-0.7,2.9-2.2
						c0-1.2-0.6-1.8-2.8-2.5c-2.9-0.9-4.5-2-4.5-4.1c0-2.3,2-3.7,4.7-3.7c2,0,3.4,0.6,4.6,1.7l-1.2,1.4c-1-0.8-2.1-1.2-3.3-1.2
						c-1.4,0-2.5,0.6-2.5,1.8c0,1.1,0.8,1.6,3.2,2.3c2.3,0.7,4.1,1.7,4.1,4.3C143.7,384.8,141.7,386.5,138.4,386.5z"/>
					<path fill="#FFFFFF" d="M151.4,386.5c-2.2,0-3.9-0.7-5.1-1.8l1.3-1.4c1,0.9,2.2,1.4,3.8,1.4c1.6,0,2.9-0.7,2.9-2.2
						c0-1.2-0.6-1.8-2.8-2.5c-2.9-0.9-4.5-2-4.5-4.1c0-2.3,2-3.7,4.7-3.7c2,0,3.4,0.6,4.6,1.7l-1.2,1.4c-1-0.8-2.1-1.2-3.3-1.2
						c-1.4,0-2.5,0.6-2.5,1.8c0,1.1,0.8,1.6,3.2,2.3c2.3,0.7,4.1,1.7,4.1,4.3C156.7,384.8,154.7,386.5,151.4,386.5z"/>
					<path fill="#FFFFFF" d="M162.2,382.9l-1,3.3h-2.4l4.4-13.8h2.9l4.4,13.8h-2.5l-1-3.3H162.2z M166.6,381.1l-2-6.9l-2,6.9H166.6z
						"/>
					<path fill="#FFFFFF" d="M172.4,379.3c0-4.7,2.8-7.2,6-7.2c1.9,0,3,0.6,4.1,1.6l-1.3,1.3c-0.8-0.8-1.7-1.1-2.7-1.1
						c-1.9,0-3.7,1.4-3.7,5.3c0,3.9,1.1,5.4,3.3,5.4c0.8,0,1.6-0.2,2.3-0.6v-3.8h-2.3l-0.2-1.8h4.8v6.7c-1.3,0.7-2.7,1.3-4.6,1.3
						C174.5,386.5,172.4,384.1,172.4,379.3z"/>
					<path fill="#FFFFFF" d="M189.3,378.4h5v1.7h-5v4.4h6.1v1.8H187v-13.8h8.3l-0.3,1.8h-5.7V378.4z"/>
					<path fill="#FFFFFF" d="M203.4,386.5c-2.2,0-3.9-0.7-5.1-1.8l1.3-1.4c1,0.9,2.2,1.4,3.8,1.4c1.6,0,2.9-0.7,2.9-2.2
						c0-1.2-0.6-1.8-2.8-2.5c-2.9-0.9-4.5-2-4.5-4.1c0-2.3,2-3.7,4.7-3.7c2,0,3.4,0.6,4.6,1.7l-1.2,1.4c-1-0.8-2.1-1.2-3.3-1.2
						c-1.4,0-2.5,0.6-2.5,1.8c0,1.1,0.8,1.6,3.2,2.3c2.3,0.7,4.1,1.7,4.1,4.3C208.7,384.8,206.7,386.5,203.4,386.5z"/>
				</g>
			</g>
		</g>
		<rect x="0" y="0" fill="#FFFFFF" width="315" height="42"/>
		<g>
			<g>
				<path fill="#005189" d="M105.7,22.9l4.7,7.3h-3.3l-4.2-6.9h-1.8v6.9h-2.8V13.4h4.6c4.3,0,6.5,1.6,6.5,4.8
					C109.4,20.7,107.8,22.2,105.7,22.9z M103.1,15.5h-2v5.7h2.1c2.1,0,3.3-0.8,3.3-2.9C106.5,16.3,105.4,15.5,103.1,15.5z"/>
			</g>
			<g>
				<path fill="#005189" d="M134.8,24.2h-2v5.9H130V13.4h4.6c4.2,0,6.7,1.7,6.7,5.2C141.3,22.6,138.6,24.2,134.8,24.2z M134.8,15.5
					h-2V22h2.1c2.1,0,3.6-0.8,3.6-3.4C138.4,16.4,136.9,15.5,134.8,15.5z"/>
			</g>
			<g>
				<path fill="#005189" d="M152.1,30.1h-2.8V15.7h-5v-2.3h12.9l-0.3,2.3h-4.8V30.1z"/>
			</g>
			<g>
				<path fill="#005189" d="M179.1,13.4h2.8v14.3h7.5l-0.3,2.3h-10V13.4z"/>
			</g>
			<g>
				<path fill="#005189" d="M219,24.1c0,3.2-1.7,6-6.1,6c-1.8,0-3.4-0.6-4.7-1.5l1.1-1.8c1.3,0.8,2.4,1.1,3.5,1.1
					c2.1,0,3.4-1.4,3.4-3.9v-8.8h-5v-2.2h7.8V24.1z"/>
			</g>
			<g>
				<path fill="#005189" d="M120.7,30.1h-2.8v-6.4l-5.6-10.3h3.1l3.9,7.9l4-7.9h3l-5.6,10.3V30.1z"/>
			</g>
			<g>
				<path fill="#5C913B" d="M94.1,26.4l-4.7-4.8l4.8-4.7l0.6-0.6l0.7-0.7c-0.4-0.4-0.8-0.7-1.2-1c-3.9-2.7-9.2-1.7-11.8,2.1
					c-2.7,3.9-1.7,9.2,2.1,11.8c3.4,2.4,8,1.9,10.8-0.9L94.6,27L94.1,26.4z"/>
				<path fill="#FFE8B6" d="M89.3,21.6l4.8-4.7l0.6-0.6c-0.3-0.3-0.7-0.6-1.1-0.9c-3.4-2.4-8.2-1.5-10.5,1.9
					c-2.4,3.4-1.5,8.2,1.9,10.5c3,2.1,7.1,1.7,9.6-0.8l-0.6-0.6L89.3,21.6z"/>
				<g>
					<g>
						<path fill="#DD2E44" d="M94.1,16.9c-0.3-0.3-0.6-0.6-0.9-0.8c-3.1-2.1-7.3-1.4-9.4,1.7c-2.1,3.1-1.4,7.3,1.7,9.4
							c2.7,1.9,6.3,1.5,8.6-0.7l-4.7-4.8L94.1,16.9z"/>
					</g>
					<g>
						<g id="watermelon_c_24_" transform="matrix(1.25,0,0,-1.25,0,47.5)">
							<g id="g12_972_">
								<g>
									<g id="g14_984_">
										<g id="g32_314_" transform="translate(10.916,22.7227)">
											<path id="path34_301_" d="M57.5-0.3c-0.2-0.1-0.4-0.1-0.4,0c0,0.1,0.1,0.2,0.3,0.3c0.2,0.1,0.4,0.1,0.4,0
												C57.8,0,57.7-0.2,57.5-0.3"/>
										</g>
										<g id="g36_273_" transform="translate(16.916,21.7227)">
											<path id="path38_273_" d="M53.2-0.9c-0.2-0.1-0.4-0.1-0.4,0c0,0.1,0.1,0.2,0.3,0.3c0.2,0.1,0.4,0.1,0.4,0
												C53.5-0.7,53.4-0.8,53.2-0.9"/>
										</g>
										<g id="g40_344_" transform="translate(21.998,17.0449)">
											<path id="path42_331_" d="M48.7,1.2C48.6,1,48.4,0.9,48.3,1c-0.1,0.1-0.1,0.2,0,0.4c0.1,0.2,0.3,0.3,0.4,0.2
												C48.8,1.6,48.8,1.4,48.7,1.2"/>
										</g>
										<g id="g44_354_" transform="translate(12.998,19.0449)">
											<path id="path46_354_" d="M55.3,1.8c-0.1-0.2-0.3-0.3-0.4-0.2c-0.1,0.1-0.1,0.2,0,0.4c0.1,0.2,0.3,0.3,0.4,0.2
												C55.4,2.2,55.4,2,55.3,1.8"/>
										</g>
										<g id="g48_298_" transform="translate(16.8994,13.6992)">
											<path id="path50_298_" d="M51.4,4.6c-0.2-0.1-0.4,0-0.4,0.1c0,0.1,0.1,0.2,0.3,0.3c0.2,0.1,0.4,0,0.4-0.1
												C51.8,4.8,51.6,4.7,51.4,4.6"/>
										</g>
										<g id="g52_263_" transform="translate(24.9355,13.2451)">
											<path id="path54_313_" d="M45.8,3.2c0-0.2-0.1-0.4-0.2-0.4c-0.1,0-0.2,0.2-0.2,0.4c0,0.2,0.1,0.4,0.2,0.4
												C45.8,3.6,45.8,3.4,45.8,3.2"/>
										</g>
										<g id="g56_259_" transform="translate(17.918,18.2734)">
											<path id="path58_259_" d="M51.7,1.3c0-0.2-0.1-0.4-0.2-0.4c-0.1,0-0.2,0.2-0.2,0.4c0,0.2,0.1,0.4,0.2,0.4
												C51.7,1.7,51.7,1.5,51.7,1.3"/>
										</g>
										<g id="g60_299_" transform="translate(26.8994,16.6992)">
											<path id="path62_278_" d="M45.2,0.4c-0.2-0.1-0.4,0-0.4,0.1s0.1,0.2,0.3,0.3c0.2,0.1,0.4,0,0.4-0.1
												C45.6,0.6,45.4,0.4,45.2,0.4"/>
										</g>
									</g>
								</g>
							</g>
						</g>
						<g id="watermelon_c_21_" transform="matrix(1.25,0,0,-1.25,0,47.5)">
							<g id="g12_341_">
								<g>
									<g id="g14_346_">
										<g id="g40_341_" transform="translate(21.998,17.0449)">
											<path id="path42_328_" d="M50.1,5.7C50.2,5.9,50.4,6,50.5,6c0.1-0.1,0.1-0.2,0-0.4c-0.1-0.2-0.3-0.3-0.4-0.2
												C50,5.4,50,5.6,50.1,5.7"/>
										</g>
										<g id="g52_260_" transform="translate(24.9355,13.2451)">
											<path id="path54_241_" d="M47.1,11.4c0,0.2,0.1,0.4,0.2,0.4c0.1,0,0.2-0.2,0.2-0.4c0-0.2-0.1-0.4-0.2-0.4
												C47.1,11,47.1,11.2,47.1,11.4"/>
										</g>
										<g id="g60_296_" transform="translate(26.8994,16.6992)">
											<path id="path62_275_" d="M43.8,7.3c0.2,0.1,0.4,0,0.4-0.1c0-0.1-0.1-0.2-0.3-0.3c-0.2-0.1-0.4,0-0.4,0.1
												C43.4,7.1,43.6,7.2,43.8,7.3"/>
										</g>
									</g>
								</g>
							</g>
						</g>
					</g>
				</g>
			</g>
			<g id="g12_339_">
				<g>
					<g id="g14_344_">
						<g id="g20_344_" transform="translate(3.9995,17.5)">
							<path id="path22_344_" fill="#F4900C" d="M156,4.7c0-4.3,3.5-7.8,7.8-7.8s7.8,3.5,7.8,7.8c0,4.3-3.5,7.8-7.8,7.8
								S156,9.1,156,4.7"/>
						</g>
						<g id="g24_336_" transform="translate(12.4136,29.4146)">
							<path id="path26_336_" fill="#662113" d="M151.6-12.8c-0.1-0.1-0.4-0.1-0.6,0.1c-1.6-1.3-4.1-1.7-4.2-1.8
								c-0.3,0-0.5,0.1-0.5,0.4c0,0.3,0.1,0.5,0.4,0.5c0,0,2.3,0.4,3.7,1.5c-0.1,0.2-0.2,0.5,0,0.6c0.2,0.2,0.6,0,1-0.3
								S151.8-12.6,151.6-12.8"/>
						</g>
						<g id="g28_324_" transform="translate(22,36.0005)">
							<path id="path30_326_" fill="#5C913B" d="M146.5-22.5c0,0-1.5,2-3.3,2.5c-1.4,0.3-3.3,0.4-3.5-0.1c-0.2-0.4,0.7-1.9,2.4-2.6
								C143.7-23.3,146.5-22.5,146.5-22.5"/>
						</g>
					</g>
				</g>
			</g>
			<g id="orange_o_21_" transform="matrix(1.25,0,0,-1.25,0,47.5)">
				<g id="g12_338_">
					<g>
						<g id="g14_343_">
							<g id="g20_343_" transform="translate(3.9995,17.5)">
								<path id="path22_343_" fill="#F4900C" d="M149,2.7c0,3.5,2.8,6.3,6.3,6.3s6.3-2.8,6.3-6.3c0-3.5-2.8-6.3-6.3-6.3
									S149-0.8,149,2.7"/>
							</g>
							<g id="g24_335_" transform="translate(12.4136,29.4146)">
								<path id="path26_335_" fill="#662113" d="M143.8-4.7c-0.1,0.1-0.3,0.1-0.5,0c-1.3,1-3.3,1.4-3.4,1.4c-0.2,0-0.4-0.1-0.4-0.3
									c0-0.2,0.1-0.4,0.3-0.4c0,0,1.9-0.3,3-1.2c-0.1-0.2-0.1-0.4,0-0.5c0.1-0.1,0.5,0,0.8,0.3S143.9-4.8,143.8-4.7"/>
							</g>
							<g id="g28_323_" transform="translate(22,36.0005)">
								<path id="path30_325_" fill="#5C913B" d="M137.8-8.8c0,0-1.2-1.6-2.7-2c-1.1-0.3-2.6-0.3-2.8,0c-0.1,0.3,0.6,1.5,1.9,2
									C135.5-8.1,137.8-8.8,137.8-8.8"/>
							</g>
						</g>
					</g>
				</g>
			</g>
			<g id="g10_366_" transform="matrix(1.25,0,0,-1.25,0,47.5)">
				<g id="g12_337_">
					<g>
						<g id="g14_342_">
							<g id="g20_342_" transform="translate(25,31)">
								<path id="path22_342_" fill="#CCD6DD" d="M159.1-5.8c0-1.3-1-2.3-2.3-2.3c-1.3,0-2.3,1-2.3,2.3c0,1.3,1,2.3,2.3,2.3
									C158.1-3.5,159.1-4.5,159.1-5.8"/>
							</g>
							<path id="path24_4_" fill="#CCD6DD" d="M184.5,15h-5.3V23h5.3V15z"/>
						</g>
					</g>
				</g>
				<g id="g26_4_">
					<g>
						<defs>
							<rect id="SVGID_1_" x="178.5" y="14" width="6.6" height="9.9"/>
						</defs>
						<clipPath id="SVGID_2_">
							<use xlink:href="#SVGID_1_"  overflow="visible"/>
						</clipPath>
						<g id="g28_322_" clip-path="url(#SVGID_2_)">
							<g id="g34_20_" transform="translate(34.1914,15.4902)">
								<path id="path36_4_" fill="#DD2E44" d="M153.4,3.9l-8.8,4.3l0.7,1.4l8.8-4.3L153.4,3.9z"/>
							</g>
							<g id="g38_4_" transform="translate(27.1758,1.1094)">
								<path id="path40_4_" fill="#DD2E44" d="M157.7,12.8l-8.8,4.3l0.7,1.4l8.8-4.3L157.7,12.8z"/>
							</g>
							<g id="g42_21_" transform="translate(32.4375,11.8945)">
								<path id="path44_4_" fill="#FFFFFF" d="M154.5,6.1l-8.8,4.3l0.7,1.4l8.8-4.3L154.5,6.1z"/>
							</g>
							<g id="g46_4_" transform="translate(28.9297,4.7051)">
								<path id="path48_4_" fill="#FFFFFF" d="M156.7,10.6l-8.8,4.3l0.7,1.4l8.8-4.3L156.7,10.6z"/>
							</g>
							<g id="g50_4_" transform="translate(25.4219,-2.4854)">
								<path id="path52_4_" fill="#FFFFFF" d="M158.8,15.1l-8.8,4.3l0.7,1.4l8.8-4.3L158.8,15.1z"/>
							</g>
							<g id="g54_21_" transform="translate(30.6836,8.2998)">
								<path id="path56_4_" fill="#55ACEE" d="M155.6,8.4l-8.8,4.3l0.7,1.4l8.8-4.3L155.6,8.4z"/>
							</g>
						</g>
					</g>
				</g>
				<g id="g58_4_">
					<g>
						<g id="g60_102_">
							<g id="g66_4_" transform="translate(28,26)">
								<path id="path68_4_" fill="#99AAB5" d="M157.2-2.7c0-0.4-0.3-0.8-0.8-0.8h-5.3c-0.4,0-0.8,0.3-0.8,0.8s0.3,0.8,0.8,0.8h5.3
									C156.9-1.9,157.2-2.2,157.2-2.7"/>
							</g>
							<g id="g70_4_" transform="translate(28,3)">
								<path id="path72_4_" fill="#99AAB5" d="M157.2,11.7c0-0.4-0.3-0.8-0.8-0.8h-5.3c-0.4,0-0.8,0.3-0.8,0.8s0.3,0.8,0.8,0.8h5.3
									C156.9,12.4,157.2,12.1,157.2,11.7"/>
							</g>
						</g>
					</g>
				</g>
			</g>
		</g>
		<g>
			<g id="g10_72_" transform="matrix(1.25,0,0,-1.25,0,47.5)">
				<g id="g12_90_">
					<g>
						<defs>
							<rect id="SVGID_3_" x="57" y="-79.1" width="47.5" height="47.5"/>
						</defs>
						<clipPath id="SVGID_4_">
							<use xlink:href="#SVGID_3_"  overflow="visible"/>
						</clipPath>
						<g id="g14_89_" clip-path="url(#SVGID_4_)">
							<g id="g20_81_" transform="translate(37,5)">
								<path id="path22_81_" fill="#3B88C3" d="M61.8-74.3c0-2.2-1.8-4-4-4h-28c-2.2,0-4,1.8-4,4v28c0,2.2,1.8,4,4,4h28
									c2.2,0,4-1.8,4-4V-74.3z"/>
							</g>
							<g id="g24_73_" transform="translate(13.2192,27.3789)">
								<path id="path26_73_" fill="#FFFFFF" d="M61.8-74.3c0,1.5,0.8,2.7,2.4,2.7h7.7c1.5,0,2.2-1.1,2.2-2.1c0-1.1-0.7-2.1-2.2-2.1
									h-5.5v-4.5h5.1c1.5,0,2.3-1.1,2.3-2.1c0-1.1-0.8-2.1-2.3-2.1h-5.1v-4.7h5.7c1.5,0,2.2-1.1,2.2-2.1c0-1.1-0.7-2.1-2.2-2.1h-8
									c-1.4,0-2.4,0.9-2.4,2.3V-74.3z"/>
							</g>
						</g>
					</g>
				</g>
			</g>
		</g>
		<g>
			<g id="g10_70_" transform="matrix(1.25,0,0,-1.25,0,47.5)">
				<g id="g12_88_">
					<g>
						<defs>
							<rect id="SVGID_5_" x="11.7" y="-79.1" width="47.5" height="47.5"/>
						</defs>
						<clipPath id="SVGID_6_">
							<use xlink:href="#SVGID_5_"  overflow="visible"/>
						</clipPath>
						<g id="g14_87_" clip-path="url(#SVGID_6_)">
							<g id="g20_79_" transform="translate(37,5)">
								<path id="path22_79_" fill="#3B88C3" d="M16.5-74.3c0-2.2-1.8-4-4-4h-28c-2.2,0-4,1.8-4,4v28c0,2.2,1.8,4,4,4h28
									c2.2,0,4-1.8,4-4V-74.3z"/>
							</g>
							<g id="g24_69_" transform="translate(26.5,30)">
								<path id="path26_69_" fill="#FFFFFF" d="M16.5-74.3c-1.4,0-2.5-1.1-2.5-2.5v-5.5H4v5.5c0,1.4-1.1,2.5-2.5,2.5
									c-1.4,0-2.5-1.1-2.5-2.5v-17c0-1.4,1.1-2.5,2.5-2.5c1.4,0,2.5,1.1,2.5,2.5v6.5h10v-6.5c0-1.4,1.1-2.5,2.5-2.5
									c1.4,0,2.5,1.1,2.5,2.5v17C19-75.4,17.9-74.3,16.5-74.3"/>
							</g>
						</g>
					</g>
				</g>
			</g>
		</g>
		<g>
			<g id="g10_74_" transform="matrix(1.25,0,0,-1.25,0,47.5)">
				<g id="g12_92_">
					<g>
						<defs>
							<rect id="SVGID_7_" x="102.3" y="-79.1" width="47.5" height="47.5"/>
						</defs>
						<clipPath id="SVGID_8_">
							<use xlink:href="#SVGID_7_"  overflow="visible"/>
						</clipPath>
						<g id="g14_91_" clip-path="url(#SVGID_8_)">
							<g id="g20_83_" transform="translate(37,5)">
								<path id="path22_83_" fill="#3B88C3" d="M107-74.3c0-2.2-1.8-4-4-4H75c-2.2,0-4,1.8-4,4v28c0,2.2,1.8,4,4,4h28
									c2.2,0,4-1.8,4-4V-74.3z"/>
							</g>
							<g id="g24_75_" transform="translate(13.7925,27.8438)">
								<path id="path26_75_" fill="#FFFFFF" d="M107-74.3c0,1.6,1,2.4,2.3,2.4c1.3,0,2.3-0.9,2.3-2.4v-15.6h5.5
									c1.6,0,2.3-1.2,2.2-2.2c-0.1-1-0.9-2-2.2-2h-7.8c-1.5,0-2.4,1-2.4,2.5V-74.3z"/>
							</g>
						</g>
					</g>
				</g>
			</g>
		</g>
		<g>
			<g id="g10_76_" transform="matrix(1.25,0,0,-1.25,0,47.5)">
				<g id="g12_94_">
					<g>
						<defs>
							<rect id="SVGID_9_" x="147.6" y="-79.1" width="47.5" height="47.5"/>
						</defs>
						<clipPath id="SVGID_10_">
							<use xlink:href="#SVGID_9_"  overflow="visible"/>
						</clipPath>
						<g id="g14_93_" clip-path="url(#SVGID_10_)">
							<g id="g20_85_" transform="translate(37,5)">
								<path id="path22_85_" fill="#3B88C3" d="M152.3-74.3c0-2.2-1.8-4-4-4h-28c-2.2,0-4,1.8-4,4v28c0,2.2,1.8,4,4,4h28
									c2.2,0,4-1.8,4-4V-74.3z"/>
							</g>
							<g id="g24_78_" transform="translate(13.7925,27.8438)">
								<path id="path26_78_" fill="#FFFFFF" d="M152.3-74.3c0,1.6,1,2.4,2.3,2.4c1.3,0,2.3-0.9,2.3-2.4v-15.6h5.5
									c1.6,0,2.3-1.2,2.2-2.2c-0.1-1-0.9-2-2.2-2h-7.8c-1.5,0-2.4,1-2.4,2.5V-74.3z"/>
							</g>
						</g>
					</g>
				</g>
			</g>
		</g>
		<g>
			<g id="g10_85_" transform="matrix(1.25,0,0,-1.25,0,47.5)">
				<g id="g12_103_">
					<g>
						<defs>
							<rect id="SVGID_11_" x="57.1" y="-163.3" width="47.5" height="47.5"/>
						</defs>
						<clipPath id="SVGID_12_">
							<use xlink:href="#SVGID_11_"  overflow="visible"/>
						</clipPath>
						<g id="g14_109_" clip-path="url(#SVGID_12_)">
							<g id="g20_94_" transform="translate(37,5)">
								<path id="path22_94_" fill="#F46060" d="M61.9-158.5c0-2.2-1.8-4-4-4h-28c-2.2,0-4,1.8-4,4v28c0,2.2,1.8,4,4,4h28
									c2.2,0,4-1.8,4-4V-158.5z"/>
							</g>
							<g id="g24_100_" transform="translate(24.1016,14.2012)">
								<path id="path26_100_" fill="#FFFFFF" d="M61.9-158.5c0-5.2-3.3-6.6-6.1-6.6c-2.1,0-5.7,0.8-5.7,3.5c0,0.8,0.7,1.9,1.7,1.9
									c1.2,0,2.3-1.1,3.7-1.1c1.7,0,1.7,1.6,1.7,2.6v13.3c0,1.6,1,2.4,2.3,2.4c1.3,0,2.3-0.9,2.3-2.4V-158.5z"/>
							</g>
						</g>
					</g>
				</g>
			</g>
		</g>
		<g>
			<g id="g10_81_" transform="matrix(1.25,0,0,-1.25,0,47.5)">
				<g id="g12_99_">
					<g>
						<defs>
							<rect id="SVGID_13_" x="11.7" y="-163.3" width="47.5" height="47.5"/>
						</defs>
						<clipPath id="SVGID_14_">
							<use xlink:href="#SVGID_13_"  overflow="visible"/>
						</clipPath>
						<g id="g14_99_" clip-path="url(#SVGID_14_)">
							<g id="g20_90_" transform="translate(37,5)">
								<path id="path22_90_" fill="#F46060" d="M16.5-158.5c0-2.2-1.8-4-4-4h-28c-2.2,0-4,1.8-4,4v28c0,2.2,1.8,4,4,4h28
									c2.2,0,4-1.8,4-4V-158.5z"/>
							</g>
							<g id="g24_82_" transform="translate(24.0879,15.0693)">
								<path id="path26_82_" fill="#FFFFFF" d="M16.5-158.5c0.5,1.2,0.7,2.5,0.7,4c0,3.7-2,7.1-5.8,7.1c-3.9,0-5.8-3.4-5.8-7.1
									c0-3.8,1.9-7.1,5.8-7.1c0.7,0,1.4,0.1,2,0.2l-1.1,1.1c-0.3,0.3-0.6,0.8-0.6,1.2c0,1.2,0.8,2.2,2.1,2.2
									c0.4,0,0.8-0.2,1.2-0.4L16.5-158.5z M16.9-164.6c-1.5-0.9-3.3-1.4-5.5-1.4c-6.3,0-10.7,5-10.7,11.4
									c0,6.4,4.3,11.4,10.7,11.4c6.2,0,10.7-5.1,10.7-11.4c0-2.7-0.7-5.2-2.1-7.2l1.8-1.5c0.6-0.5,1.1-1,1.1-1.9
									c0-1.1-1.1-2-2.1-2c-0.7,0-1.2,0.3-2.1,1L16.9-164.6z"/>
							</g>
						</g>
					</g>
				</g>
			</g>
		</g>
		<g>
			<g id="g10_104_" transform="matrix(1.25,0,0,-1.25,0,47.5)">
				<g id="g12_122_">
					<g>
						<defs>
							<rect id="SVGID_15_" x="192.8" y="-163.3" width="47.5" height="47.5"/>
						</defs>
						<clipPath id="SVGID_16_">
							<use xlink:href="#SVGID_15_"  overflow="visible"/>
						</clipPath>
						<g id="g14_121_" clip-path="url(#SVGID_16_)">
							<g id="g20_113_" transform="translate(37,5)">
								<path id="path22_113_" fill="#F46060" d="M197.6-158.5c0-2.2-1.8-4-4-4h-28c-2.2,0-4,1.8-4,4v28c0,2.2,1.8,4,4,4h28
									c2.2,0,4-1.8,4-4V-158.5z"/>
							</g>
							<g id="g24_103_" transform="translate(16.4282,20.3096)">
								<path id="path26_103_" fill="#FFFFFF" d="M197.6-158.5h3.2c1.7,0,2.9,1,2.9,2.8c0,1.8-1.2,2.7-2.9,2.7h-3.2V-158.5z
									 M192.9-151.2c0,1.5,0.8,2.4,2.4,2.4h5.5c4.8,0,7.7-2.1,7.7-7c0-3.4-2.6-5.4-5.7-5.9l5.3-5.6c0.4-0.5,0.6-0.9,0.6-1.4
									c0-1.2-1-2.4-2.3-2.4c-0.6,0-1.3,0.2-1.8,0.8l-6.9,8.3h-0.1v-6.7c0-1.6-1-2.4-2.3-2.4c-1.3,0-2.3,0.9-2.3,2.4V-151.2z"/>
							</g>
						</g>
					</g>
				</g>
			</g>
		</g>
		<g>
			<g id="g10_93_" transform="matrix(1.25,0,0,-1.25,0,47.5)">
				<g id="g12_111_">
					<g>
						<defs>
							<rect id="SVGID_17_" x="103.1" y="-163.3" width="47.5" height="47.5"/>
						</defs>
						<clipPath id="SVGID_18_">
							<use xlink:href="#SVGID_17_"  overflow="visible"/>
						</clipPath>
						<g id="g14_113_" clip-path="url(#SVGID_18_)">
							<g id="g20_102_" transform="translate(37,5)">
								<path id="path22_102_" fill="#F46060" d="M107.9-158.5c0-2.2-1.8-4-4-4h-28c-2.2,0-4,1.8-4,4v28c0,2.2,1.8,4,4,4h28
									c2.2,0,4-1.8,4-4V-158.5z"/>
							</g>
							<g id="g24_101_" transform="translate(9,27.8438)">
								<path id="path26_101_" fill="#FFFFFF" d="M107.9-158.5c0,1.6,1.2,2.4,2.5,2.4c1.3,0,2.5-0.9,2.5-2.4v-10.8
									c0-2.9,2.1-4.9,5-4.9c2.8,0,5,2.2,5,4.9v10.8c0,1.6,1.2,2.4,2.5,2.4c1.3,0,2.5-0.9,2.5-2.4v-11.1c0-5.2-4.9-9.1-10-9.1
									c-5.2,0-10,3.9-10,9.1V-158.5z"/>
							</g>
						</g>
					</g>
				</g>
			</g>
		</g>
		<g>
			<g id="g10_105_" transform="matrix(1.25,0,0,-1.25,0,47.5)">
				<g id="g12_123_">
					<g>
						<defs>
							<rect id="SVGID_19_" x="147.6" y="-163.3" width="47.5" height="47.5"/>
						</defs>
						<clipPath id="SVGID_20_">
							<use xlink:href="#SVGID_19_"  overflow="visible"/>
						</clipPath>
						<g id="g14_122_" clip-path="url(#SVGID_20_)">
							<g id="g20_114_" transform="translate(37,5)">
								<path id="path22_114_" fill="#F46060" d="M152.3-158.5c0-2.2-1.8-4-4-4h-28c-2.2,0-4,1.8-4,4v28c0,2.2,1.8,4,4,4h28
									c2.2,0,4-1.8,4-4V-158.5z"/>
							</g>
							<g id="g24_104_" transform="translate(9,27.8438)">
								<path id="path26_104_" fill="#FFFFFF" d="M152.3-158.5c0,1.6,1.2,2.4,2.5,2.4c1.3,0,2.5-0.9,2.5-2.4v-10.8
									c0-2.9,2.1-4.9,5-4.9c2.8,0,5,2.2,5,4.9v10.8c0,1.6,1.2,2.4,2.5,2.4c1.3,0,2.5-0.9,2.5-2.4v-11.1c0-5.2-4.9-9.1-10-9.1
									c-5.2,0-10,3.9-10,9.1V-158.5z"/>
							</g>
						</g>
					</g>
				</g>
			</g>
		</g>
		<g>
			<g id="g10_78_" transform="matrix(1.25,0,0,-1.25,0,47.5)">
				<g id="g12_96_">
					<g>
						<defs>
							<rect id="SVGID_21_" x="192.8" y="-79.1" width="47.5" height="47.5"/>
						</defs>
						<clipPath id="SVGID_22_">
							<use xlink:href="#SVGID_21_"  overflow="visible"/>
						</clipPath>
						<g id="g14_97_" clip-path="url(#SVGID_22_)">
							<g id="g20_87_" transform="translate(37,5)">
								<path id="path22_87_" fill="#3B88C3" d="M197.6-74.3c0-2.2-1.8-4-4-4h-28c-2.2,0-4,1.8-4,4v28c0,2.2,1.8,4,4,4h28
									c2.2,0,4-1.8,4-4V-74.3z"/>
							</g>
							<g id="g24_80_" transform="translate(24.832,19.0381)">
								<path id="path26_80_" fill="#FFFFFF" d="M197.6-74.3c0,3.8-2,7.1-5.8,7.1c-3.9,0-5.8-3.4-5.8-7.1c0-3.8,1.9-7.1,5.8-7.1
									C195.7-81.4,197.6-78.1,197.6-74.3 M181.1-74.3c0,6.4,4.3,11.4,10.7,11.4c6.2,0,10.7-5.1,10.7-11.4
									c0-6.4-4.3-11.4-10.7-11.4C185.5-85.7,181.1-80.7,181.1-74.3"/>
							</g>
						</g>
					</g>
				</g>
			</g>
		</g>
		<g opacity="0.5">
			<g>
				
					<line fill="none" stroke="#FFFFFF" stroke-width="1.5" stroke-linecap="round" stroke-miterlimit="10" x1="44.4" y1="150.2" x2="44.4" y2="150.2"/>
				
					<line fill="none" stroke="#FFFFFF" stroke-width="1.5" stroke-linecap="round" stroke-miterlimit="10" stroke-dasharray="0,2.9109" x1="44.4" y1="153.1" x2="44.4" y2="186.6"/>
				
					<line fill="none" stroke="#FFFFFF" stroke-width="1.5" stroke-linecap="round" stroke-miterlimit="10" x1="44.4" y1="188.1" x2="44.4" y2="188.1"/>
			</g>
		</g>
		<g opacity="0.5">
			<g>
				
					<line fill="none" stroke="#FFFFFF" stroke-width="1.5" stroke-linecap="round" stroke-miterlimit="10" x1="101.1" y1="150.2" x2="101.1" y2="150.2"/>
				
					<line fill="none" stroke="#FFFFFF" stroke-width="1.5" stroke-linecap="round" stroke-miterlimit="10" stroke-dasharray="0,2.9109" x1="101.1" y1="153.1" x2="101.1" y2="186.6"/>
				
					<line fill="none" stroke="#FFFFFF" stroke-width="1.5" stroke-linecap="round" stroke-miterlimit="10" x1="101.1" y1="188.1" x2="101.1" y2="188.1"/>
			</g>
		</g>
		<g opacity="0.5">
			<g>
				
					<line fill="none" stroke="#FFFFFF" stroke-width="1.5" stroke-linecap="round" stroke-miterlimit="10" x1="157.9" y1="150.2" x2="157.9" y2="150.2"/>
				
					<line fill="none" stroke="#FFFFFF" stroke-width="1.5" stroke-linecap="round" stroke-miterlimit="10" stroke-dasharray="0,2.9109" x1="157.9" y1="153.1" x2="157.9" y2="186.6"/>
				
					<line fill="none" stroke="#FFFFFF" stroke-width="1.5" stroke-linecap="round" stroke-miterlimit="10" x1="157.9" y1="188.1" x2="157.9" y2="188.1"/>
			</g>
		</g>
		<g opacity="0.5">
			<g>
				
					<line fill="none" stroke="#FFFFFF" stroke-width="1.5" stroke-linecap="round" stroke-miterlimit="10" x1="214.6" y1="150.2" x2="214.6" y2="150.2"/>
				
					<line fill="none" stroke="#FFFFFF" stroke-width="1.5" stroke-linecap="round" stroke-miterlimit="10" stroke-dasharray="0,2.9109" x1="214.6" y1="153.1" x2="214.6" y2="186.6"/>
				
					<line fill="none" stroke="#FFFFFF" stroke-width="1.5" stroke-linecap="round" stroke-miterlimit="10" x1="214.6" y1="188.1" x2="214.6" y2="188.1"/>
			</g>
		</g>
		<g opacity="0.5">
			<g>
				
					<line fill="none" stroke="#FFFFFF" stroke-width="1.5" stroke-linecap="round" stroke-miterlimit="10" x1="271.4" y1="150.2" x2="271.4" y2="150.2"/>
				
					<line fill="none" stroke="#FFFFFF" stroke-width="1.5" stroke-linecap="round" stroke-miterlimit="10" stroke-dasharray="0,2.9109" x1="271.4" y1="153.1" x2="271.4" y2="186.6"/>
				
					<line fill="none" stroke="#FFFFFF" stroke-width="1.5" stroke-linecap="round" stroke-miterlimit="10" x1="271.4" y1="188.1" x2="271.4" y2="188.1"/>
			</g>
		</g>
		<g>
			<g opacity="0.2">
				<circle fill="#FFFFFF" cx="118.2" cy="506.9" r="6.8"/>
			</g>
			<g opacity="0.2">
				<circle fill="#FFFFFF" cx="144.8" cy="506.9" r="6.8"/>
			</g>
			<g opacity="0.2">
				<circle fill="#FFFFFF" cx="171.3" cy="506.9" r="6.8"/>
			</g>
			<g opacity="0.2">
				<circle fill="#FFFFFF" cx="197.6" cy="506.9" r="6.8"/>
			</g>
			<g opacity="0.2">
				<circle fill="#FFFFFF" cx="224.6" cy="506.9" r="6.8"/>
			</g>
			<g id="g10_108_" transform="matrix(1.25,0,0,-1.25,0,47.5)">
				<g id="g12_126_">
					<g id="g14_125_">
						<g id="g20_117_" transform="translate(36,19)">
							<path id="path22_117_" fill="#FFCC4D" d="M42.8-386.5c0-3-2.4-5.4-5.4-5.4c-3,0-5.4,2.4-5.4,5.4c0,3,2.4,5.4,5.4,5.4
								C40.4-381.1,42.8-383.5,42.8-386.5"/>
						</g>
						<g id="g24_107_" transform="translate(2.2402,25.9824)">
							<path id="path26_107_" fill="#292F33" d="M65.8-391.3c0.1-0.1,0.5-0.3,0.5-0.5c0.1-0.2,0.2-1.5,0.7-1.9
								c0.5-0.4,2.3-0.2,2.6-0.1c0.8,0.4,0.9,1.4,1,2c0.1,0.3,0.5,0.3,0.5,0.3s0.5,0,0.5-0.3c0.1-0.5,0.2-1.6,1-2
								c0.3-0.2,2.1-0.3,2.6,0.1c0.5,0.4,0.6,1.7,0.7,1.9c0.1,0.2,0.5,0.5,0.5,0.5c0.1,0.1,0.1,0.4,0,0.5c-0.2,0.2-2,0.3-3.9,0.1
								c-0.4,0-0.5-0.2-1.4-0.2c-0.9,0-1.1,0.1-1.4,0.2c-1.9,0.2-3.7,0.1-3.9-0.1C65.8-390.9,65.8-391.2,65.8-391.3"/>
						</g>
						<g id="g28_77_" transform="translate(28.335,13.3711)">
							<path id="path30_68_" fill="#664500" d="M48-382.7c-0.1,0.1-0.1,0.1-0.2,0c0,0-1.2-0.9-2.8-0.9c-1.5,0-2.8,0.9-2.8,0.9
								c-0.1,0-0.1,0-0.2,0c-0.1-0.1-0.1-0.1,0-0.2c0-0.1,1-1.7,3-1.7c2,0,3,1.6,3,1.7C48.1-382.8,48.1-382.7,48-382.7"/>
						</g>
					</g>
				</g>
			</g>
		</g>
	</g>
</g>
<g id="top">
</g>
<g id="tap">
</g>
</svg>
