<?xml version="1.0" encoding="utf-8"?>
<!-- Generator: Adobe Illustrator 18.0.0, SVG Export Plug-In . SVG Version: 6.00 Build 0)  -->
<!DOCTYPE svg PUBLIC "-//W3C//DTD SVG 1.1//EN" "http://www.w3.org/Graphics/SVG/1.1/DTD/svg11.dtd">
<svg version="1.1" id="Layer_1" xmlns="http://www.w3.org/2000/svg" xmlns:xlink="http://www.w3.org/1999/xlink" x="0px" y="0px"
	 viewBox="0 0 315 560" enable-background="new 0 0 315 560" xml:space="preserve">
<polyline fill="#283344" points="0,560 0,0 315,0 315,560 "/>
<g id="back">
</g>
<g id="notes">
</g>
<g id="input">
</g>
<g id="landing_pages">
</g>
<g id="onboarding">
</g>
<g id="top">
</g>
<path fill="#3B88C3" d="M271.7,227.9H43.3c-7.7,0-14-6.3-14-14V83.4c0-7.7,6.3-14,14-14h228.5c7.7,0,14,6.3,14,14v130.3
	C285.7,221.6,279.4,227.9,271.7,227.9z"/>
<g opacity="0.2">
	<circle fill="#FFFFFF" cx="118.2" cy="506.8" r="6.9"/>
</g>
<g opacity="0.2">
	<circle fill="#FFFFFF" cx="92.3" cy="506.8" r="6.9"/>
</g>
<g opacity="0.2">
	<circle fill="#FFFFFF" cx="144.8" cy="506.8" r="6.9"/>
</g>
<g opacity="0.2">
	<circle fill="#FFFFFF" cx="171.4" cy="506.8" r="6.9"/>
</g>
<g opacity="0.2">
	<circle fill="#FFFFFF" cx="197.5" cy="505.8" r="6.9"/>
</g>
<g opacity="0.2">
	<circle fill="#FFFFFF" cx="224.6" cy="506.8" r="6.9"/>
</g>
<g id="slide_4_emoji_1" transform="matrix(1.25,0,0,-1.25,0,47.5)">
	<g id="g12_4_">
		<g>
			<g>
				<g>
					<g>
						<g id="g14_4_">
							<g id="g20_4_" transform="translate(37,19)">
								<path id="path22_4_" fill="#CCD6DD" d="M47.7-225c0-10.5-8.5-18.9-18.9-18.9s-19,8.4-19,18.9s8.5,18.9,18.9,18.9
									S47.7-214.7,47.7-225"/>
							</g>
							<g id="g24_4_" transform="translate(33,19)">
								<path id="path26_4_" fill="#3B88C3" d="M47.5-225c0-8.1-6.6-14.7-14.7-14.7S18-233.3,18-225s6.6,14.7,14.7,14.7
									S47.5-216.9,47.5-225"/>
							</g>
							<g id="g28_5_" transform="translate(29,19)">
								<path id="path30_5_" fill="#DD2E44" d="M47.3-225c0-5.7-4.8-10.5-10.5-10.5s-10.5,4.8-10.5,10.5s4.8,10.5,10.5,10.5
									S47.3-219.1,47.3-225"/>
							</g>
							<g id="g32_8_" transform="translate(25,19)">
								<path id="path34_8_" fill="#FFAC33" d="M47.1-225c0-3.5-2.8-6.3-6.3-6.3s-6.3,2.8-6.3,6.3s2.8,6.3,6.3,6.3
									C44.2-218.7,47.1-221.7,47.1-225"/>
							</g>
							<g id="g36_8_" transform="translate(35.8643,7.8008)">
								<path id="path38_8_" d="M47.7-225.6c-0.4-0.3-1.3-0.6-2-0.6c-2.1,0-4.9,0.8-6.7,2.5l-3.1,4.1c-0.3,0.3-0.4,0.6-0.1,1
									c0.1,0.4-0.8,0.6-0.4,0.6h5.3c2,0,4.5-1.3,6.2-3.2l0.4-0.4c0.8-0.8,1.3-1.7,1.3-2.5C48.4-224.7,48.2-225.3,47.7-225.6"/>
							</g>
							<g id="g40_3_" transform="translate(29.3047,1.7959)">
								<path id="path42_3_" d="M47.3-226L47.3-226c-0.8,0-1.7,0.4-2.7,1.3l-0.6,0.4c-2,1.7-3.5,4.3-3.5,6.3v5.5
									c0,0.4,0.6-0.6,0.8-0.4c0.4,0.1,1,0.1,1.3-0.1l3.4-3.4c1.8-1.8,3.2-4.9,3.2-7c0-0.7-0.1-1.3-0.6-1.8
									C48.5-225.7,48-226,47.3-226"/>
							</g>
							<g id="g44_6_" transform="translate(32.3447,5.0361)">
								<path id="path46_6_" fill="#C1694F" d="M47.5-225.8c-0.3,0-0.6,0.1-0.7,0.3L32-210.7c-0.4,0.4-0.4,1.1,0,1.5
									c0.4,0.4,1.1,0.4,1.5,0L48.2-224c0.4-0.4,0.4-1.1,0-1.5C47.9-225.7,47.7-225.8,47.5-225.8"/>
							</g>
						</g>
					</g>
				</g>
			</g>
		</g>
	</g>
</g>
<g id="slide_4_emoji_2" transform="matrix(1.25,0,0,-1.25,0,47.5)">
	<g id="g12_5_">
		<g>
			<g>
				<g>
					<g>
						<g id="g14_5_">
							<g id="g20_6_" transform="translate(16.373,35.978)">
								<path id="path22_6_" fill="#5C913B" d="M106.9-224.2c-1.8-1.8-7-8.8-4.3-14.8c2.7-6.2,6.2-2.4,7.8,2.7
									c0.8,2.7,0.8,6.2-0.8,11.3C108.7-222.4,106.9-224.2,106.9-224.2"/>
							</g>
							<g id="g24_6_" transform="translate(35.6768,16.6738)">
								<path id="path26_6_" fill="#5C913B" d="M107.9-225.3c-1.8-1.8-8.8-7-14.8-4.3s-2.4,6.2,2.7,7.8c2.7,0.8,6.2,0.8,11.3-0.8
									C109.8-223.4,107.9-225.3,107.9-225.3"/>
							</g>
							<g id="g28_7_" transform="translate(33.3145,30.6826)">
								<path id="path30_7_" fill="#F4900C" d="M107.8-224.4c0,0-0.1,1.8-0.8,2.4c-0.6,0.6-2.1,0.6-2.1,0.6
									c-1.8,0-21.8-2.7-25.3-20.2c-0.6-3.1,0.1-4.9,0.8-6c0-0.1,0-0.1,0-0.1c0.1-0.1,0.3-0.3,0.6-0.4c0.1-0.1,0.3-0.3,0.4-0.4h0.1
									c1.1-0.8,2.9-1.7,6.2-1C105-246.2,107.8-226.2,107.8-224.4"/>
							</g>
						</g>
					</g>
				</g>
			</g>
		</g>
	</g>
	<g id="g32_10_">
		<g>
			<g>
				<g>
					<g>
						<g>
							<g>
								<g>
									<defs>
										<path id="SVGID_1_" d="M112.8-210.9c-0.6-3.1,0.1-4.9,0.8-6l0,0c0-0.1,0-0.1,0-0.1l0,0c0.1-0.1,0.3-0.3,0.6-0.4l0,0
											c0.1-0.1,0.3-0.3,0.4-0.4l0,0h0.1l0,0c1.1-0.8,2.9-1.7,6.2-1l0,0c17.5,3.5,20.3,23.5,20.3,25.2l0,0c0,0-0.1,1.8-0.8,2.4
											l0,0c-0.6,0.6-2.1,0.6-2.1,0.6l0,0C136.4-190.8,116.3-193.4,112.8-210.9"/>
									</defs>
									<clipPath id="SVGID_2_">
										<use xlink:href="#SVGID_1_"  overflow="visible"/>
									</clipPath>
									<g id="g34_4_" clip-path="url(#SVGID_2_)">
										<g id="g40_54_" transform="translate(25.7686,26.5654)">
											<path id="path42_53_" fill="#F7B82D" d="M107.5-224.7c-0.6-0.6-1.3-0.6-1.7,0l-1.7,1.7c-0.6,0.6-0.6,1.3,0,1.7
												c0.6,0.6,1.3,0.6,1.7,0l1.7-1.7C107.9-223.4,107.9-224.2,107.5-224.7"/>
										</g>
										<g id="g44_39_" transform="translate(17.6812,26.5654)">
											<path id="path46_39_" fill="#F7B82D" d="M107-224.7c-0.6-0.6-1.3-0.6-1.7,0l-1.7,1.7c-0.6,0.6-0.6,1.3,0,1.7
												c0.6,0.4,1.3,0.6,1.7,0l1.7-1.7C107.5-223.4,107.5-224.2,107-224.7"/>
										</g>
										<g id="g48_33_" transform="translate(20.1074,28.9922)">
											<path id="path50_33_" fill="#F7B82D" d="M107.2-224.5c-0.6-0.6-1.3-0.6-1.7,0l-1.7,1.7c-0.6,0.6-0.6,1.3,0,1.7
												c0.6,0.6,1.3,0.6,1.7,0l1.7-1.7C107.6-223.3,107.6-224.1,107.2-224.5"/>
										</g>
										<g id="g52_35_" transform="translate(15.2559,24.1392)">
											<path id="path54_34_" fill="#F7B82D" d="M106.8-224.8c-0.6-0.6-1.3-0.6-1.7,0l-1.7,1.7c-0.6,0.6-0.6,1.3,0,1.7
												c0.6,0.6,1.3,0.6,1.7,0l1.7-1.7C107.3-223.5,107.3-224.4,106.8-224.8"/>
										</g>
										<g id="g56_25_" transform="translate(28.1943,28.9922)">
											<path id="path58_25_" fill="#F7B82D" d="M107.5-224.5c-0.6-0.6-1.3-0.6-1.7,0l-1.7,1.7c-0.6,0.6-0.6,1.3,0,1.7
												c0.6,0.6,1.3,0.6,1.7,0l1.7-1.7C108-223.3,108-224.1,107.5-224.5"/>
										</g>
										<g id="g60_16_" transform="translate(30.6172,31.3828)">
											<path id="path62_30_" fill="#F7B82D" d="M107.6-224.4c-0.6-0.6-1.3-0.6-1.7,0l-1.7,1.7c-0.6,0.6-0.6,1.3,0,1.7
												c0.6,0.6,1.3,0.6,1.7,0l1.7-1.7C108.1-223.1,108.1-223.8,107.6-224.4"/>
										</g>
										<g id="g64_13_" transform="translate(23.3428,24.1392)">
											<path id="path66_13_" fill="#F7B82D" d="M107.3-224.8c-0.6-0.6-1.3-0.6-1.7,0l-1.7,1.7c-0.6,0.6-0.6,1.3,0,1.7
												c0.6,0.6,1.3,0.6,1.7,0l1.7-1.7C107.8-223.5,107.8-224.4,107.3-224.8"/>
										</g>
										<g id="g68_13_" transform="translate(20.915,21.7134)">
											<path id="path70_13_" fill="#F7B82D" d="M107.1-224.9c-0.6-0.6-1.3-0.6-1.7,0l-1.7,1.7c-0.6,0.6-0.6,1.3,0,1.7
												c0.6,0.6,1.3,0.6,1.7,0l1.7-1.7C107.6-223.7,107.6-224.4,107.1-224.9"/>
										</g>
										<g id="g72_13_" transform="translate(16.064,16.8613)">
											<path id="path74_13_" fill="#F7B82D" d="M106.9-225.2c-0.6-0.6-1.3-0.6-1.7,0l-1.7,1.7c-0.6,0.6-0.6,1.3,0,1.7
												c0.6,0.6,1.3,0.6,1.7,0l1.7-1.7C107.4-223.9,107.4-224.8,106.9-225.2"/>
										</g>
										<g id="g76_10_" transform="translate(18.4902,19.2871)">
											<path id="path78_10_" fill="#F7B82D" d="M106.9-225c-0.6-0.6-1.3-0.6-1.7,0l-1.7,1.7c-0.6,0.6-0.6,1.3,0,1.7
												c0.6,0.6,1.3,0.6,1.7,0l1.7-1.7C107.5-223.8,107.5-224.6,106.9-225"/>
										</g>
									</g>
								</g>
							</g>
						</g>
					</g>
				</g>
			</g>
		</g>
	</g>
	<g id="g80_7_">
		<g>
			<g>
				<g>
					<g>
						<g id="g82_2_">
							<g id="g88_6_" transform="translate(28.8662,13.4258)">
								<path id="path90_6_" fill="#77B255" d="M107.6-225.3c-7.6,2.5-16-0.7-20.4-3.8c3.1,4.5,6.3,12.9,3.8,20.4
									c-1,2.9-5.9,5.9-8.8,2.9c-1-1-2-2,0-2c2,0,4.9-2.9,3.9-5.9c-0.8-2.7-7.3-9.2-4.3-16.2c-0.3-0.1-0.6-0.3-0.8-0.6l-0.8-0.8
									c-1-1-1-2.5,0-3.5l0.8-0.8c1-1,2.5-1,3.5,0l0.8,0.8c0.1,0.1,0.1,0.3,0.3,0.4c7.4-4.1,14.6,2.9,17.2,3.9c2.9,1,5.9-2,5.9-3.9
									c0-2,1-1,2,0C113.5-231.2,110.5-226.3,107.6-225.3"/>
							</g>
						</g>
					</g>
				</g>
			</g>
		</g>
	</g>
</g>
<g id="slide_4_emoji_3" transform="matrix(1.25,0,0,-1.25,0,47.5)">
	<g id="g12_3_">
		<g>
			<g>
				<g>
					<g>
						<g id="g14_3_">
							<g id="g20_3_" transform="translate(35.9639,25.0449)">
								<path id="path22_3_" fill="#FFCC4D" d="M168.2-224.7L168.2-224.7c0,0,1.1,10.5,0,11.5c-1,1-7.1-0.7-8.3-1
									c-2.7,1.3-5.7,2.1-9.7,2.1c-3.9,0-7.1-0.8-9.7-2.1c-1.1,0.3-7.3,2-8.3,1c-1.1-1.1,0-11.6,0-11.6v0.1
									c-0.8-2.7-1.1-5.6-1.1-8.5c0-5.7,3.6-10.4,8-13.2c0.1,6.9-2.4,14.3-6.4,14.3c-0.6,0-0.8-0.1-1.3-0.1c0.3,0.8,1,1.3,2.2,1.3
									c4.5,0,7-9,6.4-16c3.4-2,7-2.9,9.9-2.9c2.9,0,6.6,1,9.9,2.9c-0.6,7.1,2,16,6.4,16c1.3,0,2-0.4,2.2-1.3
									c-0.3,0.1-0.7,0.1-1.3,0.1c-4.1,0-6.6-7.6-6.4-14.3c4.3,2.9,8,7.4,8,13.3C169.4-230.3,168.9-227.4,168.2-224.7"/>
							</g>
							<g id="g24_3_" transform="translate(19,16)">
								<path id="path26_3_" fill="#292F33" d="M167.3-225.2c-2.2,0-4.2-2-4.2-4.2v-6.3c0-2.2,2-4.2,4.2-4.2c2.2,0,4.2,2,4.2,4.2
									v6.3C171.5-227.1,169.6-225.2,167.3-225.2"/>
							</g>
							<g id="g28_4_" transform="translate(18.9995,22)">
								<path id="path30_4_" fill="#67757F" d="M167.3-224.9c3.2,0,3.2-0.6,3.2-1.5c0-1-1.5-3.2-3.2-3.2c-1.5,0-3.2,2.1-3.2,3.2
									C164.1-225.4,164.3-224.9,167.3-224.9"/>
							</g>
							<g id="g32_6_" transform="translate(30.9238,16.4941)">
								<path id="path34_5_" fill="#9AAAB4" d="M167.9-225.2l-5.3-1.1c-0.3-0.1-0.6-0.3-0.4-0.6s0.3-0.4,0.6-0.4h0.1l4.3,0.8
									C167.5-226,167.8-225.6,167.9-225.2"/>
							</g>
							<g id="g36_5_" transform="translate(34.5605,19)">
								<path id="path38_5_" fill="#9AAAB4" d="M168.1-225L168.1-225l1.7,0.6c0.3,0.1,0.4,0.4,0.3,0.7c-0.1,0.3-0.4,0.4-0.7,0.3
									l-9.5-3.2c-0.3-0.1-0.4-0.4-0.3-0.7c0.1-0.1,0.3-0.4,0.6-0.4c0.1,0,0.1,0,0.1,0l5.7,2C166.7-225.3,167.4-225,168.1-225"/>
							</g>
							<g id="g40_2_" transform="translate(12.0981,15.4902)">
								<path id="path42_2_" fill="#9AAAB4" d="M167-225.2l-5.3,1.1c0.1-0.4,0.6-0.8,0.7-1.3l4.3-0.8h0.1c0.1,0,0.6,0.1,0.6,0.4
									C167.4-225.4,167.2-225.3,167-225.2"/>
							</g>
							<g id="g44_1_" transform="translate(11.1582,17.4746)">
								<path id="path46_1_" fill="#9AAAB4" d="M166.9-225.1l-9.5,3.2c-0.3,0.1-0.6-0.1-0.7-0.3c-0.1-0.3,0.1-0.6,0.3-0.7l1.7-0.6
									l0,0c0.7,0,1.4-0.3,2.1-0.7l5.7-2c0.1,0,0.1,0,0.1,0c0.1,0,0.4,0.1,0.6,0.4C167.3-225.5,167.1-225.2,166.9-225.1"/>
							</g>
							<g id="g48_1_" transform="translate(8.3472,26.3345)">
								<path id="path50_1_" fill="#F5F8FA" d="M166.9-224.7c-1-3.4,0.1-6.6,2.5-7.3s5,1.4,6.2,4.8c1,3.4-0.1,6.6-2.5,7.3
									C170.5-219.1,167.8-221.2,166.9-224.7"/>
							</g>
							<g id="g52_8_" transform="translate(29.6523,26.3345)">
								<path id="path54_8_" fill="#F5F8FA" d="M168-224.7c1-3.4-0.1-6.6-2.5-7.3s-5,1.4-6.2,4.8c-1,3.4,0.1,6.6,2.5,7.3
									C164.2-219.1,166.8-221.2,168-224.7"/>
							</g>
							<g id="g56_5_" transform="translate(36.7529,17.8174)">
								<path id="path58_5_" fill="#FCAB40" d="M168.3-225.1c-0.3,0.1-0.7,0.1-1.3,0.1c-4.9,0-7.4-10.5-6.2-17.9h6.9
									C165.6-235.4,169.4-228,168.3-225.1"/>
							</g>
							<g id="g60_13_" transform="translate(2.4043,18)">
								<path id="path62_8_" fill="#FCAB40" d="M166.4-225.1c-0.6,0-0.8-0.1-1.3-0.1c0.1,0.1,0.1,0.4,0.3,0.6
									c-2-2.4,2.4-10.4,0.3-18.2h6.9C173.9-235.6,171.3-225.1,166.4-225.1"/>
							</g>
						</g>
					</g>
				</g>
			</g>
		</g>
	</g>
</g>
<g id="g10_106_" transform="matrix(1.25,0,0,-1.25,0,47.5)">
	<g id="g12_124_">
		<g id="g14_123_">
			<g id="g20_115_" transform="translate(36,19)">
				<path id="path22_115_" fill="#FFCC4D" d="M106.5-386.4c0-2.9-2.4-5.5-5.5-5.5c-2.9,0-5.5,2.4-5.5,5.5s2.4,5.5,5.5,5.5
					C104-381,106.5-383.4,106.5-386.4"/>
			</g>
			<g id="g24_105_" transform="translate(29.3125,21.3882)">
				<path id="path26_105_" fill="#664500" d="M111-388c-0.1,0-0.1,0-0.1,0s-0.4-0.3-1.3-0.3s-1.3,0.3-1.3,0.3c-0.1,0-0.1,0-0.1,0
					c-0.1,0-0.1-0.1,0-0.1c0,0,0.6-1,1.4-1s1.4,1,1.4,1C111.1-388.1,111.1-388.1,111-388"/>
			</g>
			<g id="g28_75_" transform="translate(16.7021,21.4019)">
				<path id="path30_66_" fill="#664500" d="M119.7-388.1c0,0-0.4-0.3-1.3-0.3s-1.3,0.3-1.3,0.3c-0.1,0-0.1,0-0.1,0s-0.1-0.1,0-0.1
					c0,0,0.6-1,1.4-1s1.4,1,1.4,1c0,0.1,0,0.1,0,0.1C119.7-388,119.7-388,119.7-388.1"/>
			</g>
			<g id="g32_53_" transform="translate(30.001,24)">
				<path id="path34_52_" fill="#664500" d="M110.6-389.8c-0.1,0-0.1,0-0.3,0.1c-0.8,1.1-2.2,0.8-2.2,0.8c-0.1,0-0.3,0.1-0.4,0.1
					c0,0.1,0.1,0.3,0.1,0.4c0.1,0,1.8,0.3,2.9-1.1C110.8-389.5,110.8-389.8,110.6-389.8C110.7-389.8,110.6-389.8,110.6-389.8"/>
			</g>
			<g id="g36_48_" transform="translate(7.999,24)">
				<path id="path38_48_" fill="#664500" d="M125.6-389.8c-0.1,0-0.1,0-0.1,0.1c-0.1,0.1-0.1,0.3-0.1,0.4c1.1,1.4,2.8,1.1,2.9,1.1
					s0.3-0.1,0.1-0.4c0-0.1-0.1-0.3-0.4-0.1c-0.1,0-1.4,0.3-2.2-0.8C125.7-389.8,125.6-389.8,125.6-389.8"/>
			</g>
			<g id="g40_32_" transform="translate(24.2539,13.4229)">
				<path id="path42_32_" fill="#664500" d="M114.6-382.7c-0.1,0-0.1,0-0.1,0s-0.3-0.3-1.5-0.3s-1.5,0.3-1.5,0.3
					c-0.1,0.1-0.1,0.1-0.1,0c-0.1,0-0.1-0.1-0.1-0.1s0.4-1.4,1.7-1.4c1.4,0,1.7,1.4,1.7,1.4C114.6-382.7,114.6-382.7,114.6-382.7"/>
			</g>
		</g>
	</g>
</g>
<g id="slide_4_to_hide" display="none">
	<g display="inline">
		<g>
			<path fill="none" stroke="#FFFFFF" stroke-width="1.1932" stroke-miterlimit="10" d="M182.7,332.6c18.3,6.3,26.9,19.7,21.7,37.8"
				/>
			<g>
				<polygon fill="#FFFFFF" points="184.5,338.7 185.4,338.1 182.6,333.1 187.9,330.5 187.5,329.4 180.7,332.5 				"/>
			</g>
		</g>
	</g>
	<g display="inline" opacity="0.35">
		<g>
			<circle fill="#00E7FF" cx="171.4" cy="284.9" r="32.3"/>
		</g>
	</g>
</g>
<rect x="13.9" y="384.4" fill="none" width="287.4" height="162"/>
<g>
	<text transform="matrix(1 0 0 1 40.8624 393.7246)" fill="#FFFFFF" font-family="'FiraMono-Medium'" font-size="21.6">PICK AN EMOJI KEY </text>
	<text transform="matrix(1 0 0 1 47.3617 419.6251)" fill="#FFFFFF" font-family="'FiraMono-Medium'" font-size="21.6">TO SCRAMBLE YOUR </text>
	<text transform="matrix(1 0 0 1 112.1623 445.5254)" fill="#FFFFFF" font-family="'FiraMono-Medium'" font-size="21.6">MESSAGE</text>
</g>
<g id="slide_4_plain_text">
	<text transform="matrix(1 0 0 1 47.3617 117.957)" enable-background="new    "><tspan x="0" y="0" fill="#FFFFFF" font-family="'FiraMono-Medium'" font-size="36.2282">Have a </tspan><tspan x="0" y="43.5" fill="#FFFFFF" font-family="'FiraMono-Medium'" font-size="36.2282">nice day</tspan></text>
</g>
</svg>
