<?xml version="1.0" encoding="utf-8"?>
<!-- Generator: Adobe Illustrator 18.0.0, SVG Export Plug-In . SVG Version: 6.00 Build 0)  -->
<!DOCTYPE svg PUBLIC "-//W3C//DTD SVG 1.1//EN" "http://www.w3.org/Graphics/SVG/1.1/DTD/svg11.dtd">
<svg version="1.1" id="Layer_1" xmlns="http://www.w3.org/2000/svg" xmlns:xlink="http://www.w3.org/1999/xlink" x="0px" y="0px"
	 viewBox="175 0 450 800" enable-background="new 175 0 450 800" xml:space="preserve">
<g id="back">
</g>
<g id="notes">
</g>
<g id="input">
</g>
<g id="landing_pages">
</g>
<g id="onboarding">
</g>
<g id="top">
</g>
<g id="slide_4_to_hide" display="none">
	<g display="inline">
		<g>
			<path fill="none" stroke="#FFFFFF" stroke-width="1.1932" stroke-miterlimit="10" d="M436,475.1c26.1,9,38.4,28.1,31,54"/>
			<g>
				<polygon fill="#FFFFFF" points="438.6,483.9 439.9,483 435.9,475.9 443.4,472.1 442.9,470.6 433.1,475 				"/>
			</g>
		</g>
	</g>
	<g display="inline" opacity="0.35">
		<g>
			<circle fill="#00E7FF" cx="419.9" cy="407" r="46.1"/>
		</g>
	</g>
</g>
<g>
	<polyline fill="#283344" points="175,800 175,0 625,0 625,800 	"/>
	<path fill="#3B88C3" d="M563.1,325.6H236.9c-11,0-20-9-20-20V119.1c0-11,9-20,20-20h326.4c11,0,20,9,20,20v186.1
		C583.1,316.6,574.1,325.6,563.1,325.6z"/>
	<g opacity="0.2">
		<circle fill="#FFFFFF" cx="343.9" cy="724" r="9.9"/>
	</g>
	<g opacity="0.2">
		<circle fill="#FFFFFF" cx="306.9" cy="724" r="9.9"/>
	</g>
	<g opacity="0.2">
		<circle fill="#FFFFFF" cx="381.9" cy="724" r="9.9"/>
	</g>
	<g opacity="0.2">
		<circle fill="#FFFFFF" cx="419.9" cy="724" r="9.9"/>
	</g>
	<g opacity="0.2">
		<circle fill="#FFFFFF" cx="457.1" cy="722.6" r="9.9"/>
	</g>
	<g opacity="0.2">
		<circle fill="#FFFFFF" cx="495.9" cy="724" r="9.9"/>
	</g>
	<g id="slide_4_emoji_1" transform="matrix(1.25,0,0,-1.25,0,47.5)">
		<g id="g12_4_">
			<g>
				<g>
					<g>
						<g>
							<g id="g14_4_">
								<g id="g20_4_" transform="translate(37,19)">
									<path id="path22_4_" fill="#CCD6DD" d="M224-329.6c0-15-12.1-27-27-27c-14.9,0-27.1,12-27.1,27s12.1,27,27,27
										C211.7-302.6,224-314.9,224-329.6"/>
								</g>
								<g id="g24_4_" transform="translate(33,19)">
									<path id="path26_4_" fill="#3B88C3" d="M222-329.6c0-11.6-9.4-21-21-21s-21.1,9.1-21.1,21s9.4,21,21,21S222-318,222-329.6"
										/>
								</g>
								<g id="g28_5_" transform="translate(29,19)">
									<path id="path30_5_" fill="#DD2E44" d="M220-329.6c0-8.1-6.9-15-15-15s-15,6.9-15,15s6.9,15,15,15S220-321.1,220-329.6"/>
								</g>
								<g id="g32_8_" transform="translate(25,19)">
									<path id="path34_8_" fill="#FFAC33" d="M218-329.6c0-5-4-9-9-9s-9,4-9,9s4,9,9,9C213.9-320.6,218-324.9,218-329.6"/>
								</g>
								<g id="g36_8_" transform="translate(35.8643,7.8008)">
									<path id="path38_8_" d="M223.5-335.2c-0.6-0.4-1.9-0.9-2.9-0.9c-3,0-7,1.1-9.6,3.6l-4.4,5.9c-0.4,0.4-0.6,0.9-0.1,1.4
										c0.1,0.6-1.1,0.9-0.6,0.9h7.6c2.9,0,6.4-1.9,8.9-4.6l0.6-0.6c1.1-1.1,1.9-2.4,1.9-3.6C224.5-333.9,224.2-334.8,223.5-335.2
										"/>
								</g>
								<g id="g40_3_" transform="translate(29.3047,1.7959)">
									<path id="path42_3_" d="M220.1-338.4L220.1-338.4c-1.1,0-2.4,0.6-3.9,1.9l-0.9,0.6c-2.9,2.4-5,6.1-5,9v7.9
										c0,0.6,0.9-0.9,1.1-0.6c0.6,0.1,1.4,0.1,1.9-0.1l4.9-4.9c2.6-2.6,4.6-7,4.6-10c0-1-0.1-1.9-0.9-2.6
										C221.8-337.9,221.1-338.4,220.1-338.4"/>
								</g>
								<g id="g44_6_" transform="translate(32.3447,5.0361)">
									<path id="path46_6_" fill="#C1694F" d="M221.7-336.7c-0.4,0-0.9,0.1-1,0.4l-21.1,21.1c-0.6,0.6-0.6,1.6,0,2.1
										c0.6,0.6,1.6,0.6,2.1,0l21-21.1c0.6-0.6,0.6-1.6,0-2.1C222.3-336.6,222-336.7,221.7-336.7"/>
								</g>
							</g>
						</g>
					</g>
				</g>
			</g>
		</g>
	</g>
	<g id="slide_4_emoji_2" transform="matrix(1.25,0,0,-1.25,0,47.5)">
		<g id="g12_5_">
			<g>
				<g>
					<g>
						<g>
							<g id="g14_5_">
								<g id="g20_6_" transform="translate(16.373,35.978)">
									<path id="path22_6_" fill="#5C913B" d="M299.7-321.2c-2.6-2.6-10-12.6-6.1-21.1c3.9-8.9,8.9-3.4,11.1,3.9
										c1.1,3.9,1.1,8.9-1.1,16.1C302.3-318.6,299.7-321.2,299.7-321.2"/>
								</g>
								<g id="g24_6_" transform="translate(35.6768,16.6738)">
									<path id="path26_6_" fill="#5C913B" d="M309.4-331c-2.6-2.6-12.6-10-21.1-6.1c-8.6,3.9-3.4,8.9,3.9,11.1
										c3.9,1.1,8.9,1.1,16.1-1.1C312.1-328.3,309.4-331,309.4-331"/>
								</g>
								<g id="g28_7_" transform="translate(33.3145,30.6826)">
									<path id="path30_7_" fill="#F4900C" d="M308.3-323.7c0,0-0.1,2.6-1.1,3.4c-0.9,0.9-3,0.9-3,0.9c-2.6,0-31.1-3.9-36.1-28.9
										c-0.9-4.4,0.1-7,1.1-8.6c0-0.1,0-0.1,0-0.1c0.1-0.1,0.4-0.4,0.9-0.6c0.1-0.1,0.4-0.4,0.6-0.6h0.1c1.6-1.1,4.1-2.4,8.9-1.4
										C304.3-354.9,308.3-326.3,308.3-323.7"/>
								</g>
							</g>
						</g>
					</g>
				</g>
			</g>
		</g>
		<g id="g32_10_">
			<g>
				<g>
					<g>
						<g>
							<g>
								<g>
									<g>
										<g>
											<defs>
												<path id="SVGID_1_" d="M301.1-317.6c-0.9-4.4,0.1-7,1.1-8.6l0,0c0-0.1,0-0.1,0-0.1l0,0c0.1-0.1,0.4-0.4,0.9-0.6l0,0
													c0.1-0.1,0.4-0.4,0.6-0.6l0,0h0.1l0,0c1.6-1.1,4.1-2.4,8.9-1.4l0,0c25,5,29,33.6,29,36l0,0c0,0-0.1,2.6-1.1,3.4l0,0
													c-0.9,0.9-3,0.9-3,0.9l0,0C334.9-288.9,306.1-292.6,301.1-317.6"/>
											</defs>
											<clipPath id="SVGID_2_">
												<use xlink:href="#SVGID_1_"  overflow="visible"/>
											</clipPath>
											<g id="g34_4_" clip-path="url(#SVGID_2_)">
												<g id="g40_54_" transform="translate(25.7686,26.5654)">
													<path id="path42_53_" fill="#F7B82D" d="M304.6-325.9c-0.9-0.9-1.9-0.9-2.4,0l-2.4,2.4c-0.9,0.9-0.9,1.9,0,2.4
														c0.9,0.9,1.9,0.9,2.4,0l2.4-2.4C305.2-324,305.2-325.2,304.6-325.9"/>
												</g>
												<g id="g44_39_" transform="translate(17.6812,26.5654)">
													<path id="path46_39_" fill="#F7B82D" d="M300.4-325.9c-0.9-0.9-1.9-0.9-2.4,0l-2.4,2.4c-0.9,0.9-0.9,1.9,0,2.4
														c0.9,0.6,1.9,0.9,2.4,0l2.4-2.4C301.1-324,301.1-325.2,300.4-325.9"/>
												</g>
												<g id="g48_33_" transform="translate(20.1074,28.9922)">
													<path id="path50_33_" fill="#F7B82D" d="M301.8-324.6c-0.9-0.9-1.9-0.9-2.4,0l-2.4,2.4c-0.9,0.9-0.9,1.9,0,2.4
														c0.9,0.9,1.9,0.9,2.4,0l2.4-2.4C302.3-322.9,302.3-324,301.8-324.6"/>
												</g>
												<g id="g52_35_" transform="translate(15.2559,24.1392)">
													<path id="path54_34_" fill="#F7B82D" d="M299.1-327.1c-0.9-0.9-1.9-0.9-2.4,0l-2.4,2.4c-0.9,0.9-0.9,1.9,0,2.4
														c0.9,0.9,1.9,0.9,2.4,0l2.4-2.4C299.8-325.2,299.8-326.5,299.1-327.1"/>
												</g>
												<g id="g56_25_" transform="translate(28.1943,28.9922)">
													<path id="path58_25_" fill="#F7B82D" d="M305.7-324.6c-0.9-0.9-1.9-0.9-2.4,0l-2.4,2.4c-0.9,0.9-0.9,1.9,0,2.4
														c0.9,0.9,1.9,0.9,2.4,0l2.4-2.4C306.4-322.9,306.4-324,305.7-324.6"/>
												</g>
												<g id="g60_16_" transform="translate(30.6172,31.3828)">
													<path id="path62_30_" fill="#F7B82D" d="M306.8-323.4c-0.9-0.9-1.9-0.9-2.4,0L302-321c-0.9,0.9-0.9,1.9,0,2.4
														c0.9,0.9,1.9,0.9,2.4,0l2.4-2.4C307.6-321.6,307.6-322.6,306.8-323.4"/>
												</g>
												<g id="g64_13_" transform="translate(23.3428,24.1392)">
													<path id="path66_13_" fill="#F7B82D" d="M303.3-327.1c-0.9-0.9-1.9-0.9-2.4,0l-2.4,2.4c-0.9,0.9-0.9,1.9,0,2.4
														c0.9,0.9,1.9,0.9,2.4,0l2.4-2.4C304-325.2,304-326.5,303.3-327.1"/>
												</g>
												<g id="g68_13_" transform="translate(20.915,21.7134)">
													<path id="path70_13_" fill="#F7B82D" d="M302-328.3c-0.9-0.9-1.9-0.9-2.4,0l-2.4,2.4c-0.9,0.9-0.9,1.9,0,2.4
														c0.9,0.9,1.9,0.9,2.4,0l2.4-2.4C302.7-326.6,302.7-327.6,302-328.3"/>
												</g>
												<g id="g72_13_" transform="translate(16.064,16.8613)">
													<path id="path74_13_" fill="#F7B82D" d="M299.6-330.8c-0.9-0.9-1.9-0.9-2.4,0l-2.4,2.4c-0.9,0.9-0.9,1.9,0,2.4
														c0.9,0.9,1.9,0.9,2.4,0l2.4-2.4C300.3-328.9,300.3-330.2,299.6-330.8"/>
												</g>
												<g id="g76_10_" transform="translate(18.4902,19.2871)">
													<path id="path78_10_" fill="#F7B82D" d="M300.6-329.4c-0.9-0.9-1.9-0.9-2.4,0l-2.4,2.4c-0.9,0.9-0.9,1.9,0,2.4
														c0.9,0.9,1.9,0.9,2.4,0l2.4-2.4C301.5-327.7,301.5-328.9,300.6-329.4"/>
												</g>
											</g>
										</g>
									</g>
								</g>
							</g>
						</g>
					</g>
				</g>
			</g>
		</g>
		<g id="g80_7_">
			<g>
				<g>
					<g>
						<g>
							<g id="g82_2_">
								<g id="g88_6_" transform="translate(28.8662,13.4258)">
									<path id="path90_6_" fill="#77B255" d="M306.1-332.4c-10.9,3.6-22.9-1-29.1-5.4c4.4,6.4,9,18.4,5.4,29.1
										c-1.4,4.1-8.4,8.4-12.6,4.1c-1.4-1.4-2.9-2.9,0-2.9s7-4.1,5.6-8.4c-1.1-3.9-10.4-13.1-6.1-23.1c-0.4-0.1-0.9-0.4-1.1-0.9
										l-1.1-1.1c-1.4-1.4-1.4-3.6,0-5l1.1-1.1c1.4-1.4,3.6-1.4,5,0l1.1,1.1c0.1,0.1,0.1,0.4,0.4,0.6c10.6-5.9,20.9,4.1,24.6,5.6
										c4.1,1.4,8.4-2.9,8.4-5.6c0-2.9,1.4-1.4,2.9,0C314.5-340.8,310.2-333.8,306.1-332.4"/>
								</g>
							</g>
						</g>
					</g>
				</g>
			</g>
		</g>
	</g>
	<g id="slide_4_emoji_3" transform="matrix(1.25,0,0,-1.25,0,47.5)">
		<g id="g12_3_">
			<g>
				<g>
					<g>
						<g>
							<g id="g14_3_">
								<g id="g20_3_" transform="translate(35.9639,25.0449)">
									<path id="path22_3_" fill="#FFCC4D" d="M395.7-326.6L395.7-326.6c0,0,1.6,15,0,16.4c-1.4,1.4-10.1-1-11.9-1.4
										c-3.9,1.9-8.1,3-13.9,3c-5.6,0-10.1-1.1-13.9-3c-1.6,0.4-10.4,2.9-11.9,1.4c-1.6-1.6,0-16.6,0-16.6v0.1
										c-1.1-3.9-1.6-8-1.6-12.1c0-8.1,5.1-14.9,11.4-18.9c0.1,9.9-3.4,20.4-9.1,20.4c-0.9,0-1.1-0.1-1.9-0.1
										c0.4,1.1,1.4,1.9,3.1,1.9c6.4,0,10-12.9,9.1-22.9c4.9-2.9,10-4.1,14.1-4.1s9.4,1.4,14.1,4.1c-0.9,10.1,2.9,22.9,9.1,22.9
										c1.9,0,2.9-0.6,3.1-1.9c-0.4,0.1-1,0.1-1.9,0.1c-5.9,0-9.4-10.9-9.1-20.4c6.1,4.1,11.4,10.6,11.4,19
										C397.4-334.6,396.7-330.4,395.7-326.6"/>
								</g>
								<g id="g24_3_" transform="translate(19,16)">
									<path id="path26_3_" fill="#292F33" d="M387.1-331.1c-3.1,0-6-2.9-6-6v-9c0-3.1,2.9-6,6-6s6,2.9,6,6v9
										C393.1-333.9,390.4-331.1,387.1-331.1"/>
								</g>
								<g id="g28_4_" transform="translate(18.9995,22)">
									<path id="path30_4_" fill="#67757F" d="M387.1-328.1c4.6,0,4.6-0.9,4.6-2.1c0-1.4-2.1-4.6-4.6-4.6c-2.1,0-4.6,3-4.6,4.6
										C382.6-328.9,382.9-328.1,387.1-328.1"/>
								</g>
								<g id="g32_6_" transform="translate(30.9238,16.4941)">
									<path id="path34_5_" fill="#9AAAB4" d="M393.1-330.9l-7.6-1.6c-0.4-0.1-0.9-0.4-0.6-0.9c0.3-0.4,0.4-0.6,0.9-0.6h0.1
										l6.1,1.1C392.5-332.1,393-331.5,393.1-330.9"/>
								</g>
								<g id="g36_5_" transform="translate(34.5605,19)">
									<path id="path38_5_" fill="#9AAAB4" d="M395-329.6L395-329.6l2.4,0.9c0.4,0.1,0.6,0.6,0.4,1c-0.1,0.4-0.6,0.6-1,0.4
										l-13.6-4.6c-0.4-0.1-0.6-0.6-0.4-1c0.1-0.1,0.4-0.6,0.9-0.6c0.1,0,0.1,0,0.1,0l8.1,2.9C393-330,394-329.6,395-329.6"/>
								</g>
								<g id="g40_2_" transform="translate(12.0981,15.4902)">
									<path id="path42_2_" fill="#9AAAB4" d="M383.8-331.4l-7.6,1.6c0.1-0.6,0.9-1.1,1-1.9l6.1-1.1h0.1c0.1,0,0.9,0.1,0.9,0.6
										C384.3-331.6,384-331.5,383.8-331.4"/>
								</g>
								<g id="g44_1_" transform="translate(11.1582,17.4746)">
									<path id="path46_1_" fill="#9AAAB4" d="M383.2-330.4l-13.6,4.6c-0.4,0.1-0.9-0.1-1-0.4c-0.1-0.4,0.1-0.9,0.4-1l2.4-0.9l0,0
										c1,0,2-0.4,3-1l8.1-2.9c0.1,0,0.1,0,0.1,0c0.1,0,0.6,0.1,0.9,0.6C383.8-330.9,383.5-330.5,383.2-330.4"/>
								</g>
								<g id="g48_1_" transform="translate(8.3472,26.3345)">
									<path id="path50_1_" fill="#F5F8FA" d="M382-326c-1.4-4.9,0.1-9.4,3.6-10.4s7.1,2,8.9,6.9c1.4,4.9-0.1,9.4-3.6,10.4
										C387.1-318,383.3-321,382-326"/>
								</g>
								<g id="g52_8_" transform="translate(29.6523,26.3345)">
									<path id="path54_8_" fill="#F5F8FA" d="M392.7-326c1.4-4.9-0.1-9.4-3.6-10.4c-3.4-1-7.1,2-8.9,6.9
										c-1.4,4.9,0.1,9.4,3.6,10.4C387.3-318,391-321,392.7-326"/>
								</g>
								<g id="g56_5_" transform="translate(36.7529,17.8174)">
									<path id="path58_5_" fill="#FCAB40" d="M396.2-330.2c-0.4,0.1-1,0.1-1.9,0.1c-7,0-10.6-15-8.9-25.6h9.9
										C392.3-344.9,397.8-334.4,396.2-330.2"/>
								</g>
								<g id="g60_13_" transform="translate(2.4043,18)">
									<path id="path62_8_" fill="#FCAB40" d="M378.7-330.1c-0.9,0-1.1-0.1-1.9-0.1c0.1,0.1,0.1,0.6,0.4,0.9
										c-2.9-3.4,3.4-14.9,0.4-26h9.9C389.5-345.1,385.7-330.1,378.7-330.1"/>
								</g>
							</g>
						</g>
					</g>
				</g>
			</g>
		</g>
	</g>
	<g id="g10_106_" transform="matrix(1.25,0,0,-1.25,0,47.5)">
		<g id="g12_124_">
			<g id="g14_123_">
				<g id="g20_115_" transform="translate(36,19)">
					<path id="path22_115_" fill="#FFCC4D" d="M307.6-560.1c0-4.1-3.4-7.9-7.9-7.9c-4.1,0-7.9,3.4-7.9,7.9s3.4,7.9,7.9,7.9
						C304-552.4,307.6-555.9,307.6-560.1"/>
				</g>
				<g id="g24_105_" transform="translate(29.3125,21.3882)">
					<path id="path26_105_" fill="#664500" d="M311.1-561.4c-0.1,0-0.1,0-0.1,0s-0.6-0.4-1.9-0.4c-1.3,0-1.9,0.4-1.9,0.4
						c-0.1,0-0.1,0-0.1,0c-0.1,0-0.1-0.1,0-0.1c0,0,0.9-1.4,2-1.4c1.1,0,2,1.4,2,1.4C311.3-561.5,311.3-561.5,311.1-561.4"/>
				</g>
				<g id="g28_75_" transform="translate(16.7021,21.4019)">
					<path id="path30_66_" fill="#664500" d="M318.2-561.5c0,0-0.6-0.4-1.9-0.4c-1.3,0-1.9,0.4-1.9,0.4c-0.1,0-0.1,0-0.1,0
						s-0.1-0.1,0-0.1c0,0,0.9-1.4,2-1.4c1.1,0,2,1.4,2,1.4c0,0.1,0,0.1,0,0.1C318.2-561.4,318.2-561.4,318.2-561.5"/>
				</g>
				<g id="g32_53_" transform="translate(30.001,24)">
					<path id="path34_52_" fill="#664500" d="M310.9-562.9c-0.1,0-0.1,0-0.4,0.1c-1.1,1.6-3.1,1.1-3.1,1.1c-0.1,0-0.4,0.1-0.6,0.1
						c0,0.1,0.1,0.4,0.1,0.6c0.1,0,2.6,0.4,4.1-1.6C311.1-562.4,311.1-562.9,310.9-562.9C311-562.9,310.9-562.9,310.9-562.9"/>
				</g>
				<g id="g36_48_" transform="translate(7.999,24)">
					<path id="path38_48_" fill="#664500" d="M322.9-562.9c-0.1,0-0.1,0-0.1,0.1c-0.1,0.1-0.1,0.4-0.1,0.6c1.6,2,4,1.6,4.1,1.6
						s0.4-0.1,0.1-0.6c0-0.1-0.1-0.4-0.6-0.1c-0.1,0-2,0.4-3.1-1.1C323-562.9,322.9-562.9,322.9-562.9"/>
				</g>
				<g id="g40_32_" transform="translate(24.2539,13.4229)">
					<path id="path42_32_" fill="#664500" d="M314.1-557.2c-0.1,0-0.1,0-0.1,0s-0.4-0.4-2.1-0.4c-1.7,0-2.1,0.4-2.1,0.4
						c-0.1,0.1-0.1,0.1-0.1,0c-0.1,0-0.1-0.1-0.1-0.1s0.6-2,2.4-2c2,0,2.4,2,2.4,2C314.1-557.2,314.1-557.2,314.1-557.2"/>
				</g>
			</g>
		</g>
	</g>
	<rect x="194.9" y="549.1" fill="none" width="410.6" height="231.4"/>
	<g>
		<text transform="matrix(1 0 0 1 233.3751 562.4642)" fill="#FFFFFF" font-family="'FiraMono-Medium'" font-size="30.8571">PICK AN EMOJI KEY </text>
		<text transform="matrix(1 0 0 1 242.6593 599.465)" fill="#FFFFFF" font-family="'FiraMono-Medium'" font-size="30.8571">TO SCRAMBLE YOUR </text>
		<text transform="matrix(1 0 0 1 335.2316 636.4649)" fill="#FFFFFF" font-family="'FiraMono-Medium'" font-size="30.8571">MESSAGE</text>
	</g>
	<g id="slide_4_plain_text">
		<text transform="matrix(1 0 0 1 242.6593 168.5101)" fill="#FFFFFF" font-family="'FiraMono-Medium'" font-size="51.7546">Have a </text>
		<text transform="matrix(1 0 0 1 242.6593 230.6529)" fill="#FFFFFF" font-family="'FiraMono-Medium'" font-size="51.7546">nice day</text>
	</g>
</g>
</svg>
