<?xml version="1.0" encoding="utf-8"?>
<!-- Generator: Adobe Illustrator 18.0.0, SVG Export Plug-In . SVG Version: 6.00 Build 0)  -->
<!DOCTYPE svg PUBLIC "-//W3C//DTD SVG 1.1//EN" "http://www.w3.org/Graphics/SVG/1.1/DTD/svg11.dtd">
<svg version="1.1" xmlns="http://www.w3.org/2000/svg" xmlns:xlink="http://www.w3.org/1999/xlink" x="0px" y="0px"
	 viewBox="0 0 315 560.1" enable-background="new 0 0 315 560.1" xml:space="preserve">
<g id="back">
</g>
<g id="notes">
</g>
<g id="input">
</g>
<g id="landing_pages">
</g>
<g id="onboarding">
	<g>
		<polyline fill="#283344" points="0.5,560.1 0.5,0.1 314.6,0.1 314.6,560.1 		"/>
		<rect x="0" y="0" fill="#FFFFFF" width="315" height="42"/>
		<g>
			<g>
				<path fill="#005189" d="M105.7,22.9l4.7,7.3h-3.3l-4.2-6.9h-1.8v6.9h-2.8V13.4h4.6c4.3,0,6.5,1.6,6.5,4.8
					C109.4,20.7,107.8,22.2,105.7,22.9z M103.1,15.5h-2v5.7h2.1c2.1,0,3.3-0.8,3.3-2.9C106.5,16.3,105.4,15.5,103.1,15.5z"/>
			</g>
			<g>
				<path fill="#005189" d="M134.8,24.2h-2v5.9H130V13.4h4.6c4.2,0,6.7,1.7,6.7,5.2C141.3,22.6,138.6,24.2,134.8,24.2z M134.8,15.5
					h-2V22h2.1c2.1,0,3.6-0.8,3.6-3.4C138.4,16.4,136.9,15.5,134.8,15.5z"/>
			</g>
			<g>
				<path fill="#005189" d="M152.1,30.1h-2.8V15.7h-5v-2.3h12.9l-0.3,2.3h-4.8V30.1z"/>
			</g>
			<g>
				<path fill="#005189" d="M179.1,13.4h2.8v14.3h7.5l-0.3,2.3h-10V13.4z"/>
			</g>
			<g>
				<path fill="#005189" d="M219,24.1c0,3.2-1.7,6-6.1,6c-1.8,0-3.4-0.6-4.7-1.5l1.1-1.8c1.3,0.8,2.4,1.1,3.5,1.1
					c2.1,0,3.4-1.4,3.4-3.9v-8.8h-5v-2.2h7.8V24.1z"/>
			</g>
			<g>
				<path fill="#005189" d="M120.7,30.1h-2.8v-6.4l-5.6-10.3h3.1l3.9,7.9l4-7.9h3l-5.6,10.3V30.1z"/>
			</g>
			<g>
				<path fill="#5C913B" d="M94.1,26.4l-4.7-4.8l4.8-4.7l0.6-0.6l0.7-0.7c-0.4-0.4-0.8-0.7-1.2-1c-3.9-2.7-9.2-1.7-11.8,2.1
					c-2.7,3.9-1.7,9.2,2.1,11.8c3.4,2.4,8,1.9,10.8-0.9L94.6,27L94.1,26.4z"/>
				<path fill="#FFE8B6" d="M89.3,21.6l4.8-4.7l0.6-0.6c-0.3-0.3-0.7-0.6-1.1-0.9c-3.4-2.4-8.2-1.5-10.5,1.9
					c-2.4,3.4-1.5,8.2,1.9,10.5c3,2.1,7.1,1.7,9.6-0.8l-0.6-0.6L89.3,21.6z"/>
				<g>
					<g>
						<path fill="#DD2E44" d="M94.1,16.9c-0.3-0.3-0.6-0.6-0.9-0.8c-3.1-2.1-7.3-1.4-9.4,1.7c-2.1,3.1-1.4,7.3,1.7,9.4
							c2.7,1.9,6.3,1.5,8.6-0.7l-4.7-4.8L94.1,16.9z"/>
					</g>
					<g>
						<g id="watermelon_c_4_" transform="matrix(1.25,0,0,-1.25,0,47.5)">
							<g id="g12_29_">
								<g>
									<g id="g14_29_">
										<g id="g32_17_" transform="translate(10.916,22.7227)">
											<path id="path34_17_" d="M57.5-0.3c-0.2-0.1-0.4-0.1-0.4,0c0,0.1,0.1,0.2,0.3,0.3c0.2,0.1,0.4,0.1,0.4,0
												C57.8,0,57.7-0.2,57.5-0.3"/>
										</g>
										<g id="g36_15_" transform="translate(16.916,21.7227)">
											<path id="path38_15_" d="M53.2-0.9c-0.2-0.1-0.4-0.1-0.4,0c0,0.1,0.1,0.2,0.3,0.3c0.2,0.1,0.4,0.1,0.4,0
												C53.5-0.7,53.4-0.8,53.2-0.9"/>
										</g>
										<g id="g40_9_" transform="translate(21.998,17.0449)">
											<path id="path42_9_" d="M48.7,1.2C48.6,1,48.4,0.9,48.3,1c-0.1,0.1-0.1,0.2,0,0.4c0.1,0.2,0.3,0.3,0.4,0.2
												C48.8,1.6,48.8,1.4,48.7,1.2"/>
										</g>
										<g id="g44_3_" transform="translate(12.998,19.0449)">
											<path id="path46_3_" d="M55.3,1.8c-0.1-0.2-0.3-0.3-0.4-0.2c-0.1,0.1-0.1,0.2,0,0.4c0.1,0.2,0.3,0.3,0.4,0.2
												C55.4,2.2,55.4,2,55.3,1.8"/>
										</g>
										<g id="g48_3_" transform="translate(16.8994,13.6992)">
											<path id="path50_3_" d="M51.4,4.6c-0.2-0.1-0.4,0-0.4,0.1c0,0.1,0.1,0.2,0.3,0.3c0.2,0.1,0.4,0,0.4-0.1
												C51.8,4.8,51.6,4.7,51.4,4.6"/>
										</g>
										<g id="g52_4_" transform="translate(24.9355,13.2451)">
											<path id="path54_4_" d="M45.8,3.2c0-0.2-0.1-0.4-0.2-0.4c-0.1,0-0.2,0.2-0.2,0.4c0,0.2,0.1,0.4,0.2,0.4
												C45.8,3.6,45.8,3.4,45.8,3.2"/>
										</g>
										<g id="g56_2_" transform="translate(17.918,18.2734)">
											<path id="path58_2_" d="M51.7,1.3c0-0.2-0.1-0.4-0.2-0.4c-0.1,0-0.2,0.2-0.2,0.4c0,0.2,0.1,0.4,0.2,0.4
												C51.7,1.7,51.7,1.5,51.7,1.3"/>
										</g>
										<g id="g60_6_" transform="translate(26.8994,16.6992)">
											<path id="path62_4_" d="M45.2,0.4c-0.2-0.1-0.4,0-0.4,0.1c0,0.1,0.1,0.2,0.3,0.3c0.2,0.1,0.4,0,0.4-0.1
												C45.6,0.6,45.4,0.4,45.2,0.4"/>
										</g>
									</g>
								</g>
							</g>
						</g>
						<g id="watermelon_c_3_" transform="matrix(1.25,0,0,-1.25,0,47.5)">
							<g id="g12_28_">
								<g>
									<g id="g14_28_">
										<g id="g40_6_" transform="translate(21.998,17.0449)">
											<path id="path42_6_" d="M50.1,5.7C50.2,5.9,50.4,6,50.5,6c0.1-0.1,0.1-0.2,0-0.4c-0.1-0.2-0.3-0.3-0.4-0.2
												C50,5.4,50,5.6,50.1,5.7"/>
										</g>
										<g id="g52_3_" transform="translate(24.9355,13.2451)">
											<path id="path54_3_" d="M47.1,11.4c0,0.2,0.1,0.4,0.2,0.4c0.1,0,0.2-0.2,0.2-0.4c0-0.2-0.1-0.4-0.2-0.4
												C47.1,11,47.1,11.2,47.1,11.4"/>
										</g>
										<g id="g60_5_" transform="translate(26.8994,16.6992)">
											<path id="path62_3_" d="M43.8,7.3c0.2,0.1,0.4,0,0.4-0.1c0-0.1-0.1-0.2-0.3-0.3c-0.2-0.1-0.4,0-0.4,0.1
												C43.4,7.1,43.6,7.2,43.8,7.3"/>
										</g>
									</g>
								</g>
							</g>
						</g>
					</g>
				</g>
			</g>
			<g id="g12_26_">
				<g>
					<g id="g14_26_">
						<g id="g20_31_" transform="translate(3.9995,17.5)">
							<path id="path22_31_" fill="#F4900C" d="M156,4.7c0-4.3,3.5-7.8,7.8-7.8c4.3,0,7.8,3.5,7.8,7.8c0,4.3-3.5,7.8-7.8,7.8
								C159.5,12.6,156,9.1,156,4.7"/>
						</g>
						<g id="g24_23_" transform="translate(12.4136,29.4146)">
							<path id="path26_23_" fill="#662113" d="M151.6-12.8c-0.1-0.1-0.4-0.1-0.6,0.1c-1.6-1.3-4.1-1.7-4.2-1.8
								c-0.3,0-0.5,0.1-0.5,0.4c0,0.3,0.1,0.5,0.4,0.5c0,0,2.3,0.4,3.7,1.5c-0.1,0.2-0.2,0.5,0,0.6c0.2,0.2,0.6,0,1-0.3
								C151.6-12.2,151.8-12.6,151.6-12.8"/>
						</g>
						<g id="g28_31_" transform="translate(22,36.0005)">
							<path id="path30_23_" fill="#5C913B" d="M146.5-22.5c0,0-1.5,2-3.3,2.5c-1.4,0.3-3.3,0.4-3.5-0.1c-0.2-0.4,0.7-1.9,2.4-2.6
								C143.7-23.3,146.5-22.5,146.5-22.5"/>
						</g>
					</g>
				</g>
			</g>
			<g id="orange_o_2_" transform="matrix(1.25,0,0,-1.25,0,47.5)">
				<g id="g12_25_">
					<g>
						<g id="g14_25_">
							<g id="g20_30_" transform="translate(3.9995,17.5)">
								<path id="path22_30_" fill="#F4900C" d="M149,2.7c0,3.5,2.8,6.3,6.3,6.3s6.3-2.8,6.3-6.3c0-3.5-2.8-6.3-6.3-6.3
									S149-0.8,149,2.7"/>
							</g>
							<g id="g24_22_" transform="translate(12.4136,29.4146)">
								<path id="path26_22_" fill="#662113" d="M143.8-4.7c-0.1,0.1-0.3,0.1-0.5,0c-1.3,1-3.3,1.4-3.4,1.4c-0.2,0-0.4-0.1-0.4-0.3
									c0-0.2,0.1-0.4,0.3-0.4c0,0,1.9-0.3,3-1.2c-0.1-0.2-0.1-0.4,0-0.5c0.1-0.1,0.5,0,0.8,0.3C143.8-5.2,143.9-4.8,143.8-4.7"/>
							</g>
							<g id="g28_30_" transform="translate(22,36.0005)">
								<path id="path30_22_" fill="#5C913B" d="M137.8-8.8c0,0-1.2-1.6-2.7-2c-1.1-0.3-2.6-0.3-2.8,0c-0.1,0.3,0.6,1.5,1.9,2
									C135.5-8.1,137.8-8.8,137.8-8.8"/>
							</g>
						</g>
					</g>
				</g>
			</g>
			<g id="g10_25_" transform="matrix(1.25,0,0,-1.25,0,47.5)">
				<g id="g12_24_">
					<g>
						<g id="g14_24_">
							<g id="g20_29_" transform="translate(25,31)">
								<path id="path22_29_" fill="#CCD6DD" d="M159.1-5.8c0-1.3-1-2.3-2.3-2.3c-1.3,0-2.3,1-2.3,2.3c0,1.3,1,2.3,2.3,2.3
									C158.1-3.5,159.1-4.5,159.1-5.8"/>
							</g>
							<path id="path24_2_" fill="#CCD6DD" d="M184.5,15h-5.3V23h5.3V15z"/>
						</g>
					</g>
				</g>
				<g id="g26_2_">
					<g>
						<defs>
							<rect id="SVGID_93_" x="178.5" y="14" width="6.6" height="9.9"/>
						</defs>
						<clipPath id="SVGID_2_">
							<use xlink:href="#SVGID_93_"  overflow="visible"/>
						</clipPath>
						<g id="g28_29_" clip-path="url(#SVGID_2_)">
							<g id="g34_2_" transform="translate(34.1914,15.4902)">
								<path id="path36_2_" fill="#DD2E44" d="M153.4,3.9l-8.8,4.3l0.7,1.4l8.8-4.3L153.4,3.9z"/>
							</g>
							<g id="g38_2_" transform="translate(27.1758,1.1094)">
								<path id="path40_2_" fill="#DD2E44" d="M157.7,12.8l-8.8,4.3l0.7,1.4l8.8-4.3L157.7,12.8z"/>
							</g>
							<g id="g42_7_" transform="translate(32.4375,11.8945)">
								<path id="path44_2_" fill="#FFFFFF" d="M154.5,6.1l-8.8,4.3l0.7,1.4l8.8-4.3L154.5,6.1z"/>
							</g>
							<g id="g46_2_" transform="translate(28.9297,4.7051)">
								<path id="path48_2_" fill="#FFFFFF" d="M156.7,10.6l-8.8,4.3l0.7,1.4l8.8-4.3L156.7,10.6z"/>
							</g>
							<g id="g50_2_" transform="translate(25.4219,-2.4854)">
								<path id="path52_2_" fill="#FFFFFF" d="M158.8,15.1l-8.8,4.3l0.7,1.4l8.8-4.3L158.8,15.1z"/>
							</g>
							<g id="g54_7_" transform="translate(30.6836,8.2998)">
								<path id="path56_2_" fill="#55ACEE" d="M155.6,8.4l-8.8,4.3l0.7,1.4l8.8-4.3L155.6,8.4z"/>
							</g>
						</g>
					</g>
				</g>
				<g id="g58_2_">
					<g>
						<g id="g60_4_">
							<g id="g66_2_" transform="translate(28,26)">
								<path id="path68_2_" fill="#99AAB5" d="M157.2-2.7c0-0.4-0.3-0.8-0.8-0.8h-5.3c-0.4,0-0.8,0.3-0.8,0.8s0.3,0.8,0.8,0.8h5.3
									C156.9-1.9,157.2-2.2,157.2-2.7"/>
							</g>
							<g id="g70_2_" transform="translate(28,3)">
								<path id="path72_2_" fill="#99AAB5" d="M157.2,11.7c0-0.4-0.3-0.8-0.8-0.8h-5.3c-0.4,0-0.8,0.3-0.8,0.8s0.3,0.8,0.8,0.8h5.3
									C156.9,12.4,157.2,12.1,157.2,11.7"/>
							</g>
						</g>
					</g>
				</g>
			</g>
		</g>
		<g>
			<path fill="#FFFFFF" d="M103.8,423.1H101l-1.4-10.2l-1.4,10.2h-2.8l-1.8-13.8H96l1.1,11.6l1.5-10h2.4l1.4,10l1.3-11.6h2.1
				L103.8,423.1z"/>
			<path fill="#FFFFFF" d="M114.5,417.1l3.9,6h-2.7l-3.5-5.7h-1.5v5.7h-2.3v-13.8h3.8c3.5,0,5.4,1.3,5.4,4
				C117.6,415.3,116.3,416.6,114.5,417.1z M112.4,411h-1.7v4.7h1.7c1.8,0,2.8-0.7,2.8-2.4C115.2,411.7,114.3,411,112.4,411z"/>
			<path fill="#FFFFFF" d="M129.9,411.1h-3v10.3h3v1.8h-8.3v-1.8h3v-10.3h-3v-1.8h8.3V411.1z"/>
			<path fill="#FFFFFF" d="M139.8,423.1h-2.3v-11.9h-4.2v-1.9h10.7l-0.2,1.9h-4V423.1z"/>
			<path fill="#FFFFFF" d="M150.3,415.2h5v1.7h-5v4.4h6.1v1.8H148v-13.8h8.3l-0.3,1.8h-5.7V415.2z"/>
			<path fill="#FFFFFF" d="M178.9,423.1h-2.3v-5.3l-4.6-8.5h2.6l3.3,6.5l3.3-6.5h2.4l-4.6,8.5V423.1z"/>
			<path fill="#FFFFFF" d="M190.7,423.4c-3.5,0-5.2-2.8-5.2-7.1c0-4.3,1.8-7.2,5.2-7.2c3.5,0,5.2,2.8,5.2,7.2
				C195.9,420.5,194.2,423.4,190.7,423.4z M190.7,410.8c-2,0-2.9,1.8-2.9,5.4c0,3.6,0.9,5.3,2.9,5.3c2,0,2.9-1.8,2.9-5.4
				S192.7,410.8,190.7,410.8z"/>
			<path fill="#FFFFFF" d="M208.5,418.6c0,2.8-1.8,4.8-4.8,4.8c-3.1,0-4.8-1.9-4.8-4.8v-9.3h2.3v8.8c0,2.3,0.7,3.4,2.4,3.4
				c1.7,0,2.5-1.1,2.5-3.4v-8.8h2.3V418.6z"/>
			<path fill="#FFFFFF" d="M218.5,417.1l3.9,6h-2.7l-3.5-5.7h-1.5v5.7h-2.3v-13.8h3.8c3.5,0,5.4,1.3,5.4,4
				C221.6,415.3,220.3,416.6,218.5,417.1z M216.4,411h-1.7v4.7h1.7c1.8,0,2.8-0.7,2.8-2.4C219.2,411.7,218.3,411,216.4,411z"/>
			<path fill="#FFFFFF" d="M73.4,447.4c-2.2,0-3.9-0.7-5.1-1.8l1.3-1.4c1,0.9,2.2,1.4,3.8,1.4c1.6,0,2.9-0.7,2.9-2.2
				c0-1.2-0.6-1.8-2.8-2.5c-2.9-0.9-4.5-2-4.5-4.1c0-2.3,2-3.7,4.7-3.7c2,0,3.4,0.6,4.6,1.7l-1.2,1.4c-1-0.8-2.1-1.2-3.3-1.2
				c-1.4,0-2.5,0.6-2.5,1.8c0,1.1,0.8,1.6,3.2,2.3c2.3,0.7,4.1,1.7,4.1,4.3C78.7,445.7,76.7,447.4,73.4,447.4z"/>
			<path fill="#FFFFFF" d="M85.3,439.2h5v1.7h-5v4.4h6.1v1.8H83v-13.8h8.3l-0.3,1.8h-5.7V439.2z"/>
			<path fill="#FFFFFF" d="M105,434.4l-1.2,1.4c-0.8-0.7-1.8-1-2.9-1c-2.1,0-3.8,1.4-3.8,5.3c0,3.8,1.6,5.3,3.8,5.3
				c1.5,0,2.4-0.6,3.1-1.2l1.1,1.4c-0.9,0.9-2.3,1.6-4.3,1.6c-3.5,0-6.2-2.5-6.2-7.2c0-4.6,2.8-7.2,6.1-7.2
				C102.7,433,103.9,433.5,105,434.4z"/>
			<path fill="#FFFFFF" d="M114.5,441.1l3.9,6h-2.7l-3.5-5.7h-1.5v5.7h-2.3v-13.8h3.8c3.5,0,5.4,1.3,5.4,4
				C117.6,439.3,116.3,440.6,114.5,441.1z M112.4,435h-1.7v4.7h1.7c1.8,0,2.8-0.7,2.8-2.4C115.2,435.7,114.3,435,112.4,435z"/>
			<path fill="#FFFFFF" d="M124.3,439.2h5v1.7h-5v4.4h6.1v1.8H122v-13.8h8.3l-0.3,1.8h-5.7V439.2z"/>
			<path fill="#FFFFFF" d="M139.8,447.1h-2.3v-11.9h-4.2v-1.9h10.7l-0.2,1.9h-4V447.1z"/>
			<path fill="#FFFFFF" d="M170.2,447.1h-2.1l-0.3-6.7c-0.1-2-0.1-3.9,0-5l-2,9.3h-2l-2.2-9.3c0.1,1.1,0.1,3.1,0.1,5.1l-0.3,6.7
				h-2.1l0.8-13.8h2.8l2,9.2l1.9-9.2h2.8L170.2,447.1z"/>
			<path fill="#FFFFFF" d="M176.3,439.2h5v1.7h-5v4.4h6.1v1.8H174v-13.8h8.3l-0.3,1.8h-5.7V439.2z"/>
			<path fill="#FFFFFF" d="M190.4,447.4c-2.2,0-3.9-0.7-5.1-1.8l1.3-1.4c1,0.9,2.2,1.4,3.8,1.4c1.6,0,2.9-0.7,2.9-2.2
				c0-1.2-0.6-1.8-2.8-2.5c-2.9-0.9-4.5-2-4.5-4.1c0-2.3,2-3.7,4.7-3.7c2,0,3.4,0.6,4.6,1.7l-1.2,1.4c-1-0.8-2.1-1.2-3.3-1.2
				c-1.4,0-2.5,0.6-2.5,1.8c0,1.1,0.8,1.6,3.2,2.3c2.3,0.7,4.1,1.7,4.1,4.3C195.7,445.7,193.7,447.4,190.4,447.4z"/>
			<path fill="#FFFFFF" d="M203.4,447.4c-2.2,0-3.9-0.7-5.1-1.8l1.3-1.4c1,0.9,2.2,1.4,3.8,1.4c1.6,0,2.9-0.7,2.9-2.2
				c0-1.2-0.6-1.8-2.8-2.5c-2.9-0.9-4.5-2-4.5-4.1c0-2.3,2-3.7,4.7-3.7c2,0,3.4,0.6,4.6,1.7l-1.2,1.4c-1-0.8-2.1-1.2-3.3-1.2
				c-1.4,0-2.5,0.6-2.5,1.8c0,1.1,0.8,1.6,3.2,2.3c2.3,0.7,4.1,1.7,4.1,4.3C208.7,445.7,206.7,447.4,203.4,447.4z"/>
			<path fill="#FFFFFF" d="M214.2,443.8l-1,3.3h-2.4l4.4-13.8h2.9l4.4,13.8h-2.5l-1-3.3H214.2z M218.6,442l-2-6.9l-2,6.9H218.6z"/>
			<path fill="#FFFFFF" d="M224.4,440.2c0-4.7,2.8-7.2,6-7.2c1.9,0,3,0.6,4.1,1.6l-1.3,1.3c-0.8-0.8-1.7-1.1-2.7-1.1
				c-1.9,0-3.7,1.4-3.7,5.3c0,3.9,1.1,5.4,3.3,5.4c0.8,0,1.6-0.2,2.3-0.6v-3.8h-2.3l-0.2-1.8h4.8v6.7c-1.3,0.7-2.7,1.3-4.6,1.3
				C226.5,447.4,224.4,444.9,224.4,440.2z"/>
			<path fill="#FFFFFF" d="M241.3,439.2h5v1.7h-5v4.4h6.1v1.8H239v-13.8h8.3l-0.3,1.8h-5.7V439.2z"/>
		</g>
		<g opacity="0.2">
			<circle fill="#FFFFFF" cx="118.2" cy="506.9" r="6.8"/>
		</g>
		<g opacity="0.2">
			<circle fill="#FFFFFF" cx="92.2" cy="506.9" r="6.8"/>
		</g>
		<g opacity="0.2">
			<circle fill="#FFFFFF" cx="144.8" cy="506.9" r="6.8"/>
		</g>
		<g opacity="0.2">
			<circle fill="#FFFFFF" cx="171.3" cy="506.9" r="6.8"/>
		</g>
		<g opacity="0.2">
			<circle fill="#FFFFFF" cx="197.6" cy="506.9" r="6.8"/>
		</g>
		<g opacity="0.2">
			<circle fill="#FFFFFF" cx="224.6" cy="506.9" r="6.8"/>
		</g>
		<path fill="#3B88C3" d="M271.8,227.9H43.3c-7.7,0-14-6.3-14-14V83.5c0-7.7,6.3-14,14-14h228.5c7.7,0,14,6.3,14,14v130.4
			C285.8,221.6,279.5,227.9,271.8,227.9z"/>
		<g>
			<path fill="#FFFFFF" d="M65.7,97.9h-5.1v17.4h5.1v3H51.6v-3h5.1V97.9h-5.1v-3h14.1V97.9z"/>
			<path fill="#FFFFFF" d="M99.5,102.6c1.5-1.8,3.5-2.7,5.6-2.7c3.4,0,5,2,5,5.3v13.1h-3.8v-12.5c0-2.1-0.8-3-2.6-3
				c-1.7,0-3.2,1.3-4.2,2.7v12.9h-3.8V93.2l3.8-0.4V102.6z"/>
			<path fill="#FFFFFF" d="M132.8,116.2l-0.9,2.6c-1.7-0.2-3.1-0.9-3.7-2.5c-1.3,1.7-3.4,2.5-5.7,2.5c-3.7,0-5.9-2.2-5.9-5.6
				c0-3.7,3.1-5.9,8.5-5.9h2.5v-1.2c0-2.3-1.5-3.3-4-3.3c-1.2,0-3,0.3-4.8,0.9l-1-2.7c2.2-0.8,4.5-1.2,6.3-1.2c4.8,0,7.2,2.2,7.2,6
				v8C131.5,115.3,131.9,115.9,132.8,116.2z M127.7,113.7v-4h-2.1c-3.6,0-5,1.3-5,3.4c0,1.9,1,2.9,3,2.9
				C125.2,116,126.8,115.1,127.7,113.7z"/>
			<path fill="#FFFFFF" d="M149.2,118.3h-4.4l-6.4-18h4.1l4.5,14.8l4.6-14.8h3.9L149.2,118.3z"/>
			<path fill="#FFFFFF" d="M170,115.8c1.7,0,3.2-0.5,4.7-1.6l1.6,2.3c-1.7,1.4-4,2.2-6.5,2.2c-5.6,0-8.7-3.8-8.7-9.4
				c0-5.4,3.1-9.5,8.2-9.5c4.8,0,7.8,3.4,7.8,9c0,0.6,0,1.3-0.1,1.7h-11.9C165.3,114.3,167.4,115.8,170,115.8z M165.1,108h8.3
				c-0.1-3.4-1.5-5.3-4-5.3C167,102.7,165.3,104.4,165.1,108z"/>
			<path fill="#FFFFFF" d="M66.5,157l-0.9,2.6c-1.7-0.2-3.1-0.9-3.7-2.5c-1.3,1.7-3.4,2.5-5.7,2.5c-3.7,0-5.9-2.2-5.9-5.6
				c0-3.7,3.1-5.9,8.5-5.9h2.5V147c0-2.3-1.5-3.3-4-3.3c-1.2,0-3,0.3-4.8,0.9l-1-2.7c2.2-0.8,4.5-1.2,6.3-1.2c4.8,0,7.2,2.2,7.2,6v8
				C65.2,156.1,65.6,156.7,66.5,157z M61.4,154.5v-4h-2.1c-3.6,0-5,1.3-5,3.4c0,1.9,1,2.9,3,2.9C58.9,156.8,60.5,155.9,61.4,154.5z"
				/>
			<path fill="#FFFFFF" d="M108.7,154.9l1.7,2.4c-1.6,1.3-3.9,2.2-6.3,2.2c-5.5,0-8.7-3.7-8.7-9.3c0-5.5,3.3-9.6,8.8-9.6
				c2.4,0,4.5,0.7,6.2,2.2l-1.8,2.4c-1.4-1-2.9-1.5-4.4-1.5c-2.9,0-4.8,2-4.8,6.5s2,6.2,4.8,6.2C106,156.4,107.4,155.8,108.7,154.9z
				"/>
			<path fill="#FFFFFF" d="M133.2,141.2l-0.6,6.6h-2.7v-3.7c-2.5,0.1-4.4,2.1-5.4,5.6v6.7h3.6v2.7h-10.1v-2.7h2.7v-12.5h-2.7v-2.7
				h5.5l0.7,4.1c1.4-3,3.2-4.6,6.3-4.6C131.6,140.7,132.4,140.9,133.2,141.2z"/>
			<path fill="#FFFFFF" d="M143.7,153.7c0,2.1,0.8,3,2.5,3c1.7,0,3.3-1.1,4.2-2.5v-13h3.8v18h-3.3l-0.2-2.3
				c-1.3,1.8-3.5,2.8-5.6,2.8c-3.5,0-5.2-2-5.2-5.4v-13h3.8V153.7z"/>
			<path fill="#FFFFFF" d="M172.4,154.3c0-1.5-0.6-2.1-4.3-3.1c-3.6-0.9-5.9-2.2-5.9-5.3c0-3.1,2.8-5.2,7.2-5.2c3,0,5.2,0.9,6.8,2.1
				l-1.6,2.4c-1.4-0.9-3-1.6-5.1-1.6c-2.4,0-3.4,0.8-3.4,2c0,1.4,1,1.9,4.6,2.9c3.5,1,5.8,2.2,5.8,5.6c0,3.9-3.8,5.6-7.9,5.6
				c-3.3,0-5.7-1.1-7.4-2.5l2-2.3c1.4,1.1,3.3,1.9,5.4,1.9C170.9,156.7,172.4,155.8,172.4,154.3z"/>
			<path fill="#FFFFFF" d="M187.9,143.4c1.5-1.8,3.5-2.7,5.6-2.7c3.4,0,5,2,5,5.3v13.1h-3.8v-12.5c0-2.1-0.8-3-2.6-3
				c-1.7,0-3.2,1.3-4.2,2.7v12.9H184V134l3.8-0.4V143.4z"/>
			<path fill="#FFFFFF" d="M66.7,190.9c0,5.7-2.9,9.5-8.1,9.5c-5.2,0-8.1-3.6-8.1-9.4c0-5.6,2.9-9.5,8.2-9.5S66.7,185.2,66.7,190.9z
				 M54.5,191c0,4.5,1.4,6.5,4.1,6.5c2.8,0,4.1-2,4.1-6.5c0-4.4-1.4-6.5-4.1-6.5C55.9,184.5,54.5,186.5,54.5,191z"/>
			<path fill="#FFFFFF" d="M73.5,182h3.3l0.3,2.3c1.5-1.8,3.6-2.8,5.8-2.8c3.3,0,5,2,5,5.3v13.1h-3.8v-11.2c0-3.1-0.4-4.3-2.5-4.3
				c-1.8,0-3.3,1.3-4.2,2.6v12.9h-3.8V182z"/>
			<path fill="#FFFFFF" d="M127.3,200c-1.4,4.1-3.8,6.8-8.8,7.3l-0.5-2.9c3.6-0.6,4.8-1.9,5.7-4.5h-1.3l-6.1-18h4l4.5,15.3l4.6-15.3
				h3.9L127.3,200z"/>
			<path fill="#FFFFFF" d="M155.1,190.9c0,5.7-2.9,9.5-8.1,9.5c-5.2,0-8.1-3.6-8.1-9.4c0-5.6,2.9-9.5,8.2-9.5
				S155.1,185.2,155.1,190.9z M142.9,191c0,4.5,1.4,6.5,4.1,6.5c2.8,0,4.1-2,4.1-6.5c0-4.4-1.4-6.5-4.1-6.5
				C144.3,184.5,142.9,186.5,142.9,191z"/>
			<path fill="#FFFFFF" d="M165.8,194.5c0,2.1,0.8,3,2.5,3c1.7,0,3.3-1.1,4.2-2.5v-13h3.8v18H173l-0.2-2.3c-1.3,1.8-3.5,2.8-5.6,2.8
				c-3.5,0-5.2-2-5.2-5.4v-13h3.8V194.5z"/>
		</g>
		<g id="g10_97_" transform="matrix(1.25,0,0,-1.25,0,47.5)">
			<g id="g12_115_">
				<g id="g14_120_">
					<g id="g20_106_" transform="translate(36,19)">
						<path id="path22_106_" fill="#FFCC4D" d="M85.2-386.5c0-3-2.4-5.4-5.4-5.4c-3,0-5.4,2.4-5.4,5.4c0,3,2.4,5.4,5.4,5.4
							C82.8-381.1,85.2-383.5,85.2-386.5"/>
					</g>
					<g id="g24_102_" transform="translate(13,19)">
						<path id="path26_102_" fill="#FF7892" d="M100.9-386.5c0-0.9-0.7-1.6-1.6-1.6c-0.9,0-1.6,0.7-1.6,1.6c0,0.9,0.7,1.6,1.6,1.6
							C100.2-384.9,100.9-385.6,100.9-386.5"/>
					</g>
					<g id="g28_74_" transform="translate(35,19)">
						<path id="path30_65_" fill="#FF7892" d="M85.9-386.5c0-0.9-0.7-1.6-1.6-1.6c-0.9,0-1.6,0.7-1.6,1.6c0,0.9,0.7,1.6,1.6,1.6
							C85.2-384.9,85.9-385.6,85.9-386.5"/>
					</g>
					<g id="g32_52_" transform="translate(28.335,15.3711)">
						<path id="path34_51_" fill="#664500" d="M90.5-384c-0.1,0.1-0.1,0.1-0.2,0c0,0-1.2-0.9-2.8-0.9c-1.5,0-2.8,0.9-2.8,0.9
							c-0.1,0-0.1,0-0.2,0c-0.1-0.1-0.1-0.1,0-0.2c0-0.1,1-1.7,3-1.7s3,1.6,3,1.7C90.5-384.2,90.5-384.1,90.5-384"/>
					</g>
					<g id="g36_47_" transform="translate(8.999,22)">
						<path id="path38_47_" fill="#664500" d="M103.6-388.6c0,0-0.1,0-0.1,0c-0.2,0.1-0.2,0.3-0.1,0.4c0,0,0.4,0.8,1.6,0.8
							c1.1,0,1.5-0.8,1.6-0.8c0.1-0.2,0-0.3-0.1-0.4c-0.2-0.1-0.3,0-0.4,0.1c0,0-0.3,0.5-1,0.5c-0.7,0-1-0.5-1-0.5
							C103.9-388.5,103.7-388.6,103.6-388.6"/>
					</g>
					<g id="g40_31_" transform="translate(29.001,22)">
						<path id="path42_31_" fill="#664500" d="M90-388.6c-0.1,0-0.2,0.1-0.3,0.2c0,0-0.3,0.5-1,0.5c-0.7,0-1-0.4-1-0.5
							c-0.1-0.2-0.3-0.2-0.4-0.1c-0.2,0.1-0.2,0.3-0.1,0.4c0,0,0.4,0.8,1.6,0.8c1.1,0,1.5-0.8,1.6-0.8c0.1-0.2,0-0.3-0.1-0.4
							C90.1-388.5,90-388.6,90-388.6"/>
					</g>
				</g>
			</g>
		</g>
	</g>
</g>
<g id="top">
</g>
<g id="tap">
</g>
</svg>
