<?xml version="1.0" encoding="utf-8"?>
<!-- Generator: Adobe Illustrator 18.0.0, SVG Export Plug-In . SVG Version: 6.00 Build 0)  -->
<!DOCTYPE svg PUBLIC "-//W3C//DTD SVG 1.1//EN" "http://www.w3.org/Graphics/SVG/1.1/DTD/svg11.dtd">
<svg version="1.1" xmlns="http://www.w3.org/2000/svg" xmlns:xlink="http://www.w3.org/1999/xlink" x="0px" y="0px"
	 viewBox="0 0 315 560.1" enable-background="new 0 0 315 560.1" xml:space="preserve">
<g id="back">
</g>
<g id="notes">
</g>
<g id="input">
</g>
<g id="landing_pages">
</g>
<g id="onboarding">
	<g>
		<polyline fill="#283344" points="0.5,560.1 0.5,0.1 314.6,0.1 314.6,560.1 		"/>
		<g id="g10_29_" transform="matrix(1.25,0,0,-1.25,0,47.5)">
			<g id="g12_51_">
				<g id="g14_51_">
					<g id="g20_41_" transform="translate(36,19)">
						<path id="path22_41_" fill="#FFCC4D" d="M105.7-386.5c0-3-2.4-5.4-5.4-5.4c-3,0-5.4,2.4-5.4,5.4c0,3,2.4,5.4,5.4,5.4
							C103.2-381.1,105.7-383.5,105.7-386.5"/>
					</g>
					<g id="g24_30_" transform="translate(29.3125,21.3882)">
						<path id="path26_30_" fill="#664500" d="M110.2-388.1c-0.1,0-0.1,0-0.2,0c0,0-0.4-0.3-1.2-0.3c-0.8,0-1.2,0.3-1.2,0.3
							c-0.1,0-0.1,0-0.2,0c-0.1,0-0.1-0.1,0-0.2c0,0,0.5-1,1.4-1c0.9,0,1.4,1,1.4,1C110.3-388.3,110.3-388.2,110.2-388.1"/>
					</g>
					<g id="g28_1_" transform="translate(16.7021,21.4019)">
						<path id="path30_1_" fill="#664500" d="M118.8-388.2c0,0-0.4-0.3-1.2-0.3c-0.8,0-1.2,0.3-1.2,0.3c-0.1,0-0.1,0-0.2,0
							c-0.1,0-0.1-0.1,0-0.2c0,0,0.5-1,1.4-1c0.9,0,1.4,1,1.4,1c0,0.1,0,0.1,0,0.2C119-388.1,118.9-388.1,118.8-388.2"/>
					</g>
					<g id="g32_3_" transform="translate(30.001,24)">
						<path id="path34_3_" fill="#664500" d="M109.8-389.9c-0.1,0-0.2,0-0.3,0.1c-0.8,1.1-2.2,0.8-2.2,0.8c-0.2,0-0.3,0.1-0.4,0.2
							c0,0.2,0.1,0.3,0.2,0.4c0.1,0,1.8,0.3,2.9-1.1c0.1-0.1,0.1-0.3-0.1-0.4C109.9-389.9,109.8-389.9,109.8-389.9"/>
					</g>
					<g id="g36_3_" transform="translate(7.999,24)">
						<path id="path38_3_" fill="#664500" d="M124.8-389.9c-0.1,0-0.1,0-0.2,0.1c-0.1,0.1-0.2,0.3-0.1,0.4c1.1,1.4,2.8,1.1,2.9,1.1
							c0.2,0,0.3-0.2,0.2-0.4c0-0.2-0.2-0.3-0.4-0.2c-0.1,0-1.4,0.3-2.2-0.8C124.9-389.9,124.9-389.9,124.8-389.9"/>
					</g>
					<g id="g40_17_" transform="translate(24.2539,13.4229)">
						<path id="path42_17_" fill="#664500" d="M113.7-382.7c-0.1,0-0.1,0-0.2,0c0,0-0.3-0.3-1.5-0.3c-1.2,0-1.5,0.3-1.5,0.3
							c-0.1,0.1-0.1,0.1-0.2,0c-0.1,0-0.1-0.1-0.1-0.2c0,0,0.4-1.4,1.7-1.4c1.4,0,1.7,1.4,1.7,1.4
							C113.8-382.8,113.7-382.7,113.7-382.7"/>
					</g>
				</g>
			</g>
		</g>
		<rect x="0" y="0" fill="#FFFFFF" width="315" height="42"/>
		<g>
			<g>
				<path fill="#005189" d="M105.7,22.9l4.7,7.3h-3.3l-4.2-6.9h-1.8v6.9h-2.8V13.4h4.6c4.3,0,6.5,1.6,6.5,4.8
					C109.4,20.7,107.8,22.2,105.7,22.9z M103.1,15.5h-2v5.7h2.1c2.1,0,3.3-0.8,3.3-2.9C106.5,16.3,105.4,15.5,103.1,15.5z"/>
			</g>
			<g>
				<path fill="#005189" d="M134.8,24.2h-2v5.9H130V13.4h4.6c4.2,0,6.7,1.7,6.7,5.2C141.3,22.6,138.6,24.2,134.8,24.2z M134.8,15.5
					h-2V22h2.1c2.1,0,3.6-0.8,3.6-3.4C138.4,16.4,136.9,15.5,134.8,15.5z"/>
			</g>
			<g>
				<path fill="#005189" d="M152.1,30.1h-2.8V15.7h-5v-2.3h12.9l-0.3,2.3h-4.8V30.1z"/>
			</g>
			<g>
				<path fill="#005189" d="M179.1,13.4h2.8v14.3h7.5l-0.3,2.3h-10V13.4z"/>
			</g>
			<g>
				<path fill="#005189" d="M219,24.1c0,3.2-1.7,6-6.1,6c-1.8,0-3.4-0.6-4.7-1.5l1.1-1.8c1.3,0.8,2.4,1.1,3.5,1.1
					c2.1,0,3.4-1.4,3.4-3.9v-8.8h-5v-2.2h7.8V24.1z"/>
			</g>
			<g>
				<path fill="#005189" d="M120.7,30.1h-2.8v-6.4l-5.6-10.3h3.1l3.9,7.9l4-7.9h3l-5.6,10.3V30.1z"/>
			</g>
			<g>
				<path fill="#5C913B" d="M94.1,26.4l-4.7-4.8l4.8-4.7l0.6-0.6l0.7-0.7c-0.4-0.4-0.8-0.7-1.2-1c-3.9-2.7-9.2-1.7-11.8,2.1
					c-2.7,3.9-1.7,9.2,2.1,11.8c3.4,2.4,8,1.9,10.8-0.9L94.6,27L94.1,26.4z"/>
				<path fill="#FFE8B6" d="M89.3,21.6l4.8-4.7l0.6-0.6c-0.3-0.3-0.7-0.6-1.1-0.9c-3.4-2.4-8.2-1.5-10.5,1.9
					c-2.4,3.4-1.5,8.2,1.9,10.5c3,2.1,7.1,1.7,9.6-0.8l-0.6-0.6L89.3,21.6z"/>
				<g>
					<g>
						<path fill="#DD2E44" d="M94.1,16.9c-0.3-0.3-0.6-0.6-0.9-0.8c-3.1-2.1-7.3-1.4-9.4,1.7c-2.1,3.1-1.4,7.3,1.7,9.4
							c2.7,1.9,6.3,1.5,8.6-0.7l-4.7-4.8L94.1,16.9z"/>
					</g>
					<g>
						<g id="watermelon_c_8_" transform="matrix(1.25,0,0,-1.25,0,47.5)">
							<g id="g12_41_">
								<g>
									<g id="g14_41_">
										<g id="g32_12_" transform="translate(10.916,22.7227)">
											<path id="path34_12_" d="M57.5-0.3c-0.2-0.1-0.4-0.1-0.4,0c0,0.1,0.1,0.2,0.3,0.3c0.2,0.1,0.4,0.1,0.4,0
												C57.8,0,57.7-0.2,57.5-0.3"/>
										</g>
										<g id="g36_12_" transform="translate(16.916,21.7227)">
											<path id="path38_12_" d="M53.2-0.9c-0.2-0.1-0.4-0.1-0.4,0c0,0.1,0.1,0.2,0.3,0.3c0.2,0.1,0.4,0.1,0.4,0
												C53.5-0.7,53.4-0.8,53.2-0.9"/>
										</g>
										<g id="g40_14_" transform="translate(21.998,17.0449)">
											<path id="path42_14_" d="M48.7,1.2C48.6,1,48.4,0.9,48.3,1c-0.1,0.1-0.1,0.2,0,0.4c0.1,0.2,0.3,0.3,0.4,0.2
												C48.8,1.6,48.8,1.4,48.7,1.2"/>
										</g>
										<g id="g44_8_" transform="translate(12.998,19.0449)">
											<path id="path46_8_" d="M55.3,1.8c-0.1-0.2-0.3-0.3-0.4-0.2c-0.1,0.1-0.1,0.2,0,0.4c0.1,0.2,0.3,0.3,0.4,0.2
												C55.4,2.2,55.4,2,55.3,1.8"/>
										</g>
										<g id="g48_8_" transform="translate(16.8994,13.6992)">
											<path id="path50_8_" d="M51.4,4.6c-0.2-0.1-0.4,0-0.4,0.1c0,0.1,0.1,0.2,0.3,0.3c0.2,0.1,0.4,0,0.4-0.1
												C51.8,4.8,51.6,4.7,51.4,4.6"/>
										</g>
										<g id="g52_11_" transform="translate(24.9355,13.2451)">
											<path id="path54_11_" d="M45.8,3.2c0-0.2-0.1-0.4-0.2-0.4c-0.1,0-0.2,0.2-0.2,0.4c0,0.2,0.1,0.4,0.2,0.4
												C45.8,3.6,45.8,3.4,45.8,3.2"/>
										</g>
										<g id="g56_7_" transform="translate(17.918,18.2734)">
											<path id="path58_7_" d="M51.7,1.3c0-0.2-0.1-0.4-0.2-0.4c-0.1,0-0.2,0.2-0.2,0.4c0,0.2,0.1,0.4,0.2,0.4
												C51.7,1.7,51.7,1.5,51.7,1.3"/>
										</g>
										<g id="g60_12_" transform="translate(26.8994,16.6992)">
											<path id="path62_10_" d="M45.2,0.4c-0.2-0.1-0.4,0-0.4,0.1c0,0.1,0.1,0.2,0.3,0.3c0.2,0.1,0.4,0,0.4-0.1
												C45.6,0.6,45.4,0.4,45.2,0.4"/>
										</g>
									</g>
								</g>
							</g>
						</g>
						<g id="watermelon_c_7_" transform="matrix(1.25,0,0,-1.25,0,47.5)">
							<g id="g12_35_">
								<g>
									<g id="g14_35_">
										<g id="g40_13_" transform="translate(21.998,17.0449)">
											<path id="path42_13_" d="M50.1,5.7C50.2,5.9,50.4,6,50.5,6c0.1-0.1,0.1-0.2,0-0.4c-0.1-0.2-0.3-0.3-0.4-0.2
												C50,5.4,50,5.6,50.1,5.7"/>
										</g>
										<g id="g52_9_" transform="translate(24.9355,13.2451)">
											<path id="path54_9_" d="M47.1,11.4c0,0.2,0.1,0.4,0.2,0.4c0.1,0,0.2-0.2,0.2-0.4c0-0.2-0.1-0.4-0.2-0.4
												C47.1,11,47.1,11.2,47.1,11.4"/>
										</g>
										<g id="g60_11_" transform="translate(26.8994,16.6992)">
											<path id="path62_9_" d="M43.8,7.3c0.2,0.1,0.4,0,0.4-0.1c0-0.1-0.1-0.2-0.3-0.3c-0.2-0.1-0.4,0-0.4,0.1
												C43.4,7.1,43.6,7.2,43.8,7.3"/>
										</g>
									</g>
								</g>
							</g>
						</g>
					</g>
				</g>
			</g>
			<g id="g12_34_">
				<g>
					<g id="g14_34_">
						<g id="g20_20_" transform="translate(3.9995,17.5)">
							<path id="path22_20_" fill="#F4900C" d="M156,4.7c0-4.3,3.5-7.8,7.8-7.8s7.8,3.5,7.8,7.8c0,4.3-3.5,7.8-7.8,7.8
								S156,9.1,156,4.7"/>
						</g>
						<g id="g24_14_" transform="translate(12.4136,29.4146)">
							<path id="path26_14_" fill="#662113" d="M151.6-12.8c-0.1-0.1-0.4-0.1-0.6,0.1c-1.6-1.3-4.1-1.7-4.2-1.8
								c-0.3,0-0.5,0.1-0.5,0.4c0,0.3,0.1,0.5,0.4,0.5c0,0,2.3,0.4,3.7,1.5c-0.1,0.2-0.2,0.5,0,0.6c0.2,0.2,0.6,0,1-0.3
								C151.6-12.2,151.8-12.6,151.6-12.8"/>
						</g>
						<g id="g28_21_" transform="translate(22,36.0005)">
							<path id="path30_15_" fill="#5C913B" d="M146.5-22.5c0,0-1.5,2-3.3,2.5c-1.4,0.3-3.3,0.4-3.5-0.1c-0.2-0.4,0.7-1.9,2.4-2.6
								C143.7-23.3,146.5-22.5,146.5-22.5"/>
						</g>
					</g>
				</g>
			</g>
			<g id="orange_o_4_" transform="matrix(1.25,0,0,-1.25,0,47.5)">
				<g id="g12_33_">
					<g>
						<g id="g14_33_">
							<g id="g20_19_" transform="translate(3.9995,17.5)">
								<path id="path22_19_" fill="#F4900C" d="M149,2.7c0,3.5,2.8,6.3,6.3,6.3s6.3-2.8,6.3-6.3c0-3.5-2.8-6.3-6.3-6.3
									S149-0.8,149,2.7"/>
							</g>
							<g id="g24_13_" transform="translate(12.4136,29.4146)">
								<path id="path26_13_" fill="#662113" d="M143.8-4.7c-0.1,0.1-0.3,0.1-0.5,0c-1.3,1-3.3,1.4-3.4,1.4c-0.2,0-0.4-0.1-0.4-0.3
									c0-0.2,0.1-0.4,0.3-0.4c0,0,1.9-0.3,3-1.2c-0.1-0.2-0.1-0.4,0-0.5c0.1-0.1,0.5,0,0.8,0.3C143.8-5.2,143.9-4.8,143.8-4.7"/>
							</g>
							<g id="g28_20_" transform="translate(22,36.0005)">
								<path id="path30_12_" fill="#5C913B" d="M137.8-8.8c0,0-1.2-1.6-2.7-2c-1.1-0.3-2.6-0.3-2.8,0c-0.1,0.3,0.6,1.5,1.9,2
									C135.5-8.1,137.8-8.8,137.8-8.8"/>
							</g>
						</g>
					</g>
				</g>
			</g>
			<g id="g10_14_" transform="matrix(1.25,0,0,-1.25,0,47.5)">
				<g id="g12_32_">
					<g>
						<g id="g14_32_">
							<g id="g20_18_" transform="translate(25,31)">
								<path id="path22_18_" fill="#CCD6DD" d="M159.1-5.8c0-1.3-1-2.3-2.3-2.3c-1.3,0-2.3,1-2.3,2.3c0,1.3,1,2.3,2.3,2.3
									C158.1-3.5,159.1-4.5,159.1-5.8"/>
							</g>
							<path id="path24_5_" fill="#CCD6DD" d="M184.5,15h-5.3V23h5.3V15z"/>
						</g>
					</g>
				</g>
				<g id="g26_5_">
					<g>
						<defs>
							<rect id="SVGID_45_" x="178.5" y="14" width="6.6" height="9.9"/>
						</defs>
						<clipPath id="SVGID_2_">
							<use xlink:href="#SVGID_45_"  overflow="visible"/>
						</clipPath>
						<g id="g28_18_" clip-path="url(#SVGID_2_)">
							<g id="g34_8_" transform="translate(34.1914,15.4902)">
								<path id="path36_5_" fill="#DD2E44" d="M153.4,3.9l-8.8,4.3l0.7,1.4l8.8-4.3L153.4,3.9z"/>
							</g>
							<g id="g38_5_" transform="translate(27.1758,1.1094)">
								<path id="path40_5_" fill="#DD2E44" d="M157.7,12.8l-8.8,4.3l0.7,1.4l8.8-4.3L157.7,12.8z"/>
							</g>
							<g id="g42_4_" transform="translate(32.4375,11.8945)">
								<path id="path44_5_" fill="#FFFFFF" d="M154.5,6.1l-8.8,4.3l0.7,1.4l8.8-4.3L154.5,6.1z"/>
							</g>
							<g id="g46_5_" transform="translate(28.9297,4.7051)">
								<path id="path48_5_" fill="#FFFFFF" d="M156.7,10.6l-8.8,4.3l0.7,1.4l8.8-4.3L156.7,10.6z"/>
							</g>
							<g id="g50_5_" transform="translate(25.4219,-2.4854)">
								<path id="path52_5_" fill="#FFFFFF" d="M158.8,15.1l-8.8,4.3l0.7,1.4l8.8-4.3L158.8,15.1z"/>
							</g>
							<g id="g54_4_" transform="translate(30.6836,8.2998)">
								<path id="path56_5_" fill="#55ACEE" d="M155.6,8.4l-8.8,4.3l0.7,1.4l8.8-4.3L155.6,8.4z"/>
							</g>
						</g>
					</g>
				</g>
				<g id="g58_5_">
					<g>
						<g id="g60_10_">
							<g id="g66_5_" transform="translate(28,26)">
								<path id="path68_5_" fill="#99AAB5" d="M157.2-2.7c0-0.4-0.3-0.8-0.8-0.8h-5.3c-0.4,0-0.8,0.3-0.8,0.8s0.3,0.8,0.8,0.8h5.3
									C156.9-1.9,157.2-2.2,157.2-2.7"/>
							</g>
							<g id="g70_5_" transform="translate(28,3)">
								<path id="path72_5_" fill="#99AAB5" d="M157.2,11.7c0-0.4-0.3-0.8-0.8-0.8h-5.3c-0.4,0-0.8,0.3-0.8,0.8s0.3,0.8,0.8,0.8h5.3
									C156.9,12.4,157.2,12.1,157.2,11.7"/>
							</g>
						</g>
					</g>
				</g>
			</g>
		</g>
		<path fill="#3B88C3" d="M270.8,227.9H42.3c-7.7,0-14-6.3-14-14V83.5c0-7.7,6.3-14,14-14h228.5c7.7,0,14,6.3,14,14v130.4
			C284.8,221.6,278.5,227.9,270.8,227.9z"/>
		<g>
			<path fill="#FFFFFF" d="M66.1,418.2h-1.7v4.9h-2.3v-13.8h3.8c3.5,0,5.5,1.4,5.5,4.3C71.5,416.9,69.3,418.2,66.1,418.2z M66.1,411
				h-1.7v5.4h1.7c1.7,0,2.9-0.7,2.9-2.8C69.1,411.8,67.9,411,66.1,411z"/>
			<path fill="#FFFFFF" d="M83.4,411.1h-3v10.3h3v1.8H75v-1.8h3v-10.3h-3v-1.8h8.3V411.1z"/>
			<path fill="#FFFFFF" d="M97.5,410.4l-1.2,1.4c-0.8-0.7-1.8-1-2.9-1c-2.1,0-3.8,1.4-3.8,5.3c0,3.8,1.6,5.3,3.8,5.3
				c1.5,0,2.4-0.6,3.1-1.2l1.1,1.4c-0.9,0.9-2.3,1.6-4.3,1.6c-3.5,0-6.2-2.5-6.2-7.2c0-4.6,2.8-7.2,6.1-7.2
				C95.3,409,96.4,409.5,97.5,410.4z"/>
			<path fill="#FFFFFF" d="M101,423.1v-13.8h2.3v13.8H101z M108.2,409.3h2.6l-4.8,6.3l5.2,7.5h-2.8l-4.9-7.4L108.2,409.3z"/>
			<path fill="#FFFFFF" d="M131.2,423.4c-3.5,0-5.2-2.8-5.2-7.1c0-4.3,1.8-7.2,5.2-7.2s5.2,2.8,5.2,7.2
				C136.5,420.5,134.7,423.4,131.2,423.4z M131.2,410.8c-2,0-2.9,1.8-2.9,5.4c0,3.6,0.9,5.3,2.9,5.3c2,0,2.9-1.8,2.9-5.4
				S133.2,410.8,131.2,410.8z"/>
			<path fill="#FFFFFF" d="M141.4,411.4c0.1,0.8,0.3,3.2,0.3,5.5v6.3h-2.1v-13.8h3L147,421c-0.1-0.8-0.3-3-0.3-5.5v-6.3h2.1v13.8h-3
				L141.4,411.4z"/>
			<path fill="#FFFFFF" d="M155.8,415.2h5v1.7h-5v4.4h6.1v1.8h-8.4v-13.8h8.3l-0.3,1.8h-5.7V415.2z"/>
			<path fill="#FFFFFF" d="M179,423.1v-13.8h2.3v13.8H179z M186.2,409.3h2.6l-4.8,6.3l5.2,7.5h-2.8l-4.9-7.4L186.2,409.3z"/>
			<path fill="#FFFFFF" d="M194.8,415.2h5v1.7h-5v4.4h6.1v1.8h-8.4v-13.8h8.3l-0.3,1.8h-5.7V415.2z"/>
			<path fill="#FFFFFF" d="M210.4,423.1H208v-5.3l-4.6-8.5h2.6l3.3,6.5l3.3-6.5h2.4l-4.6,8.5V423.1z"/>
			<path fill="#FFFFFF" d="M236.3,423.1H234v-11.9h-4.2v-1.9h10.7l-0.2,1.9h-4V423.1z"/>
			<path fill="#FFFFFF" d="M248.2,423.4c-3.5,0-5.2-2.8-5.2-7.1c0-4.3,1.8-7.2,5.2-7.2s5.2,2.8,5.2,7.2
				C253.5,420.5,251.7,423.4,248.2,423.4z M248.2,410.8c-2,0-2.9,1.8-2.9,5.4c0,3.6,0.9,5.3,2.9,5.3c2,0,2.9-1.8,2.9-5.4
				S250.2,410.8,248.2,410.8z"/>
			<path fill="#FFFFFF" d="M46.4,447.4c-2.2,0-3.9-0.7-5.1-1.8l1.3-1.4c1,0.9,2.2,1.4,3.8,1.4c1.6,0,2.9-0.7,2.9-2.2
				c0-1.2-0.6-1.8-2.8-2.5c-2.9-0.9-4.5-2-4.5-4.1c0-2.3,2-3.7,4.7-3.7c2,0,3.4,0.6,4.6,1.7l-1.2,1.4c-1-0.8-2.1-1.2-3.3-1.2
				c-1.4,0-2.5,0.6-2.5,1.8c0,1.1,0.8,1.6,3.2,2.3c2.3,0.7,4.1,1.7,4.1,4.3C51.7,445.7,49.8,447.4,46.4,447.4z"/>
			<path fill="#FFFFFF" d="M65,434.4l-1.2,1.4c-0.8-0.7-1.8-1-2.9-1c-2.1,0-3.8,1.4-3.8,5.3c0,3.8,1.6,5.3,3.8,5.3
				c1.5,0,2.4-0.6,3.1-1.2l1.1,1.4c-0.9,0.9-2.3,1.6-4.3,1.6c-3.5,0-6.2-2.5-6.2-7.2c0-4.6,2.8-7.2,6.1-7.2
				C62.8,433,63.9,433.5,65,434.4z"/>
			<path fill="#FFFFFF" d="M74.5,441.1l3.9,6h-2.7l-3.5-5.7h-1.5v5.7h-2.3v-13.8h3.8c3.5,0,5.4,1.3,5.4,4
				C77.6,439.3,76.3,440.6,74.5,441.1z M72.4,435h-1.7v4.7h1.7c1.8,0,2.8-0.7,2.8-2.4C75.2,435.7,74.3,435,72.4,435z"/>
			<path fill="#FFFFFF" d="M83.2,443.8l-1,3.3h-2.4l4.4-13.8h2.9l4.4,13.8h-2.5l-1-3.3H83.2z M87.7,442l-2-6.9l-2,6.9H87.7z"/>
			<path fill="#FFFFFF" d="M104.2,447.1h-2.1l-0.3-6.7c-0.1-2-0.1-3.9,0-5l-2,9.3h-2l-2.2-9.3c0.1,1.1,0.1,3.1,0.1,5.1l-0.3,6.7
				h-2.1l0.8-13.8h2.8l2,9.2l1.9-9.2h2.8L104.2,447.1z"/>
			<path fill="#FFFFFF" d="M111.4,447.1h-4v-13.8h3.8c2.6,0,5,0.8,5,3.5c0,1.7-1.2,2.7-2.6,3c1.5,0.3,3.2,1.1,3.2,3.3
				C116.8,446.2,114.1,447.1,111.4,447.1z M111.3,435h-1.7v4h1.8c1.5,0,2.3-0.6,2.3-2C113.8,435.6,112.9,435,111.3,435z
				 M111.6,440.8h-2v4.5h1.9c1.3,0,2.8-0.3,2.8-2.2C114.3,441.3,113.1,440.8,111.6,440.8z"/>
			<path fill="#FFFFFF" d="M121.1,433.3h2.3v11.9h6.2l-0.3,1.9h-8.2V433.3z"/>
			<path fill="#FFFFFF" d="M136.3,439.2h5v1.7h-5v4.4h6.1v1.8H134v-13.8h8.3l-0.3,1.8h-5.7V439.2z"/>
			<path fill="#FFFFFF" d="M164.9,447.1h-2.3v-5.3l-4.6-8.5h2.6l3.3,6.5l3.3-6.5h2.4l-4.6,8.5V447.1z"/>
			<path fill="#FFFFFF" d="M176.7,447.4c-3.5,0-5.2-2.8-5.2-7.1c0-4.3,1.8-7.2,5.2-7.2c3.5,0,5.2,2.8,5.2,7.2
				C182,444.5,180.2,447.4,176.7,447.4z M176.7,434.8c-2,0-2.9,1.8-2.9,5.4c0,3.6,0.9,5.3,2.9,5.3c2,0,2.9-1.8,2.9-5.4
				S178.8,434.8,176.7,434.8z"/>
			<path fill="#FFFFFF" d="M194.5,442.6c0,2.8-1.8,4.8-4.8,4.8c-3.1,0-4.8-1.9-4.8-4.8v-9.3h2.3v8.8c0,2.3,0.7,3.4,2.4,3.4
				c1.7,0,2.5-1.1,2.5-3.4v-8.8h2.3V442.6z"/>
			<path fill="#FFFFFF" d="M204.5,441.1l3.9,6h-2.7l-3.5-5.7h-1.5v5.7h-2.3v-13.8h3.8c3.5,0,5.4,1.3,5.4,4
				C207.6,439.3,206.3,440.6,204.5,441.1z M202.4,435h-1.7v4.7h1.7c1.8,0,2.8-0.7,2.8-2.4C205.2,435.7,204.3,435,202.4,435z"/>
			<path fill="#FFFFFF" d="M229.8,447.1h-2.3v-11.9h-4.2v-1.9h10.7l-0.2,1.9h-4V447.1z"/>
			<path fill="#FFFFFF" d="M240.3,439.2h5v1.7h-5v4.4h6.1v1.8H238v-13.8h8.3l-0.3,1.8h-5.7V439.2z"/>
			<path fill="#FFFFFF" d="M252,433.3l2.7,5l2.7-5h2.5l-3.8,6.3l4.3,7.5h-2.6l-3.1-5.9l-3.1,5.9h-2.5l4.2-7.3l-3.8-6.5H252z"/>
			<path fill="#FFFFFF" d="M268.8,447.1h-2.3v-11.9h-4.2v-1.9h10.7l-0.2,1.9h-4V447.1z"/>
		</g>
		<g opacity="0.2">
			<circle fill="#FFFFFF" cx="117.2" cy="506.9" r="6.8"/>
		</g>
		<g opacity="0.2">
			<circle fill="#FFFFFF" cx="91.2" cy="506.9" r="6.8"/>
		</g>
		<g opacity="0.2">
			<circle fill="#FFFFFF" cx="143.8" cy="506.9" r="6.8"/>
		</g>
		<g opacity="0.2">
			<circle fill="#FFFFFF" cx="170.3" cy="506.9" r="6.8"/>
		</g>
		<g opacity="0.2">
			<circle fill="#FFFFFF" cx="196.6" cy="506.9" r="6.8"/>
		</g>
		<g opacity="0.2">
			<circle fill="#FFFFFF" cx="223.6" cy="506.9" r="6.8"/>
		</g>
		<g>
			<g id="g10_17_" transform="matrix(1.25,0,0,-1.25,0,47.5)">
				<g id="g12_44_">
					<g>
						<defs>
							<rect id="SVGID_47_" x="100.2" y="-231" width="50" height="50"/>
						</defs>
						<clipPath id="SVGID_4_">
							<use xlink:href="#SVGID_47_"  overflow="visible"/>
						</clipPath>
						<g id="g14_44_" clip-path="url(#SVGID_4_)">
							<g id="g20_23_" transform="translate(16.373,35.978)">
								<path id="path22_23_" fill="#5C913B" d="M106.1-224.2c-1.8-1.8-7-8.8-4.4-14.9c2.6-6.1,6.2-2.4,7.9,2.6
									c0.9,2.6,0.9,6.1-0.9,11.4C107.9-222.4,106.1-224.2,106.1-224.2"/>
							</g>
							<g id="g24_18_" transform="translate(35.6768,16.6738)">
								<path id="path26_18_" fill="#5C913B" d="M107.1-225.2c-1.8-1.8-8.8-7-14.9-4.4c-6.1,2.6-2.4,6.2,2.6,7.9
									c2.6,0.9,6.1,0.9,11.4-0.9C108.9-223.4,107.1-225.2,107.1-225.2"/>
							</g>
							<g id="g28_24_" transform="translate(33.3145,30.6826)">
								<path id="path30_19_" fill="#F4900C" d="M107-224.4c0,0-0.2,1.8-0.8,2.4c-0.5,0.6-2.1,0.6-2.1,0.6
									c-1.8,0-21.9-2.6-25.4-20.1c-0.6-3.1,0.1-4.9,0.9-6c0-0.1,0-0.1,0-0.1c0.1-0.1,0.3-0.3,0.5-0.4c0.2-0.2,0.3-0.3,0.4-0.4
									c0,0,0.1,0,0.1,0c1.1-0.8,3-1.7,6.2-1C104.2-246.2,107-226.2,107-224.4"/>
							</g>
						</g>
					</g>
				</g>
				<g id="g32_16_">
					<g>
						<defs>
							<path id="SVGID_49_" d="M112-210.9c-0.6-3.1,0.1-4.9,0.9-6l0,0c0-0.1,0-0.1,0-0.1l0,0c0.1-0.1,0.3-0.3,0.5-0.4l0,0
								c0.2-0.2,0.3-0.3,0.4-0.4l0,0c0,0,0.1,0,0.1,0l0,0c1.1-0.8,3-1.7,6.2-1l0,0c17.5,3.5,20.3,23.5,20.3,25.2l0,0
								c0,0-0.2,1.8-0.8,2.4l0,0c-0.5,0.6-2.1,0.6-2.1,0.6l0,0C135.6-190.8,115.5-193.4,112-210.9"/>
						</defs>
						<clipPath id="SVGID_6_">
							<use xlink:href="#SVGID_49_"  overflow="visible"/>
						</clipPath>
						<g id="g34_9_" clip-path="url(#SVGID_6_)">
							<g id="g40_53_" transform="translate(25.7686,26.5654)">
								<path id="path42_52_" fill="#F7B82D" d="M106.6-224.6c-0.5-0.5-1.2-0.5-1.7,0l-1.7,1.7c-0.5,0.5-0.5,1.2,0,1.7
									c0.5,0.5,1.2,0.5,1.7,0l1.7-1.7C107.1-223.4,107.1-224.2,106.6-224.6"/>
							</g>
							<g id="g44_40_" transform="translate(17.6812,26.5654)">
								<path id="path46_40_" fill="#F7B82D" d="M106.2-224.6c-0.5-0.5-1.2-0.5-1.7,0l-1.7,1.7c-0.5,0.5-0.5,1.2,0,1.7
									c0.5,0.5,1.2,0.5,1.7,0l1.7-1.7C106.6-223.4,106.6-224.2,106.2-224.6"/>
							</g>
							<g id="g48_32_" transform="translate(20.1074,28.9922)">
								<path id="path50_32_" fill="#F7B82D" d="M106.3-224.5c-0.5-0.5-1.2-0.5-1.7,0l-1.7,1.7c-0.5,0.5-0.5,1.2,0,1.7
									c0.5,0.5,1.2,0.5,1.7,0l1.7-1.7C106.8-223.3,106.8-224.1,106.3-224.5"/>
							</g>
							<g id="g52_36_" transform="translate(15.2559,24.1392)">
								<path id="path54_35_" fill="#F7B82D" d="M106.1-224.8c-0.5-0.5-1.2-0.5-1.7,0l-1.7,1.7c-0.5,0.5-0.5,1.2,0,1.7
									c0.5,0.5,1.2,0.5,1.7,0l1.7-1.7C106.5-223.5,106.5-224.3,106.1-224.8"/>
							</g>
							<g id="g56_26_" transform="translate(28.1943,28.9922)">
								<path id="path58_26_" fill="#F7B82D" d="M106.7-224.5c-0.5-0.5-1.2-0.5-1.7,0l-1.7,1.7c-0.5,0.5-0.5,1.2,0,1.7
									c0.5,0.5,1.2,0.5,1.7,0l1.7-1.7C107.2-223.3,107.2-224.1,106.7-224.5"/>
							</g>
							<g id="g60_24_" transform="translate(30.6172,31.3828)">
								<path id="path62_32_" fill="#F7B82D" d="M106.9-224.4c-0.5-0.5-1.2-0.5-1.7,0l-1.7,1.7c-0.5,0.5-0.5,1.2,0,1.7
									c0.5,0.5,1.2,0.5,1.7,0l1.7-1.7C107.3-223.2,107.3-223.9,106.9-224.4"/>
							</g>
							<g id="g64_12_" transform="translate(23.3428,24.1392)">
								<path id="path66_12_" fill="#F7B82D" d="M106.5-224.8c-0.5-0.5-1.2-0.5-1.7,0l-1.7,1.7c-0.5,0.5-0.5,1.2,0,1.7
									c0.5,0.5,1.2,0.5,1.7,0l1.7-1.7C106.9-223.5,106.9-224.3,106.5-224.8"/>
							</g>
							<g id="g68_12_" transform="translate(20.915,21.7134)">
								<path id="path70_12_" fill="#F7B82D" d="M106.3-224.9c-0.5-0.5-1.2-0.5-1.7,0l-1.7,1.7c-0.5,0.5-0.5,1.2,0,1.7
									c0.5,0.5,1.2,0.5,1.7,0l1.7-1.7C106.8-223.7,106.8-224.4,106.3-224.9"/>
							</g>
							<g id="g72_12_" transform="translate(16.064,16.8613)">
								<path id="path74_12_" fill="#F7B82D" d="M106.1-225.2c-0.5-0.5-1.2-0.5-1.7,0l-1.7,1.7c-0.5,0.5-0.5,1.2,0,1.7
									c0.5,0.5,1.2,0.5,1.7,0l1.7-1.7C106.6-223.9,106.6-224.7,106.1-225.2"/>
							</g>
							<g id="g76_9_" transform="translate(18.4902,19.2871)">
								<path id="path78_9_" fill="#F7B82D" d="M106.2-225c-0.5-0.5-1.2-0.5-1.7,0l-1.7,1.7c-0.5,0.5-0.5,1.2,0,1.7
									c0.5,0.5,1.2,0.5,1.7,0l1.7-1.7C106.7-223.8,106.7-224.6,106.2-225"/>
							</g>
						</g>
					</g>
				</g>
				<g id="g80_6_">
					<g>
						<defs>
							<rect id="SVGID_51_" x="100.2" y="-231" width="50" height="50"/>
						</defs>
						<clipPath id="SVGID_8_">
							<use xlink:href="#SVGID_51_"  overflow="visible"/>
						</clipPath>
						<g id="g82_3_" clip-path="url(#SVGID_8_)">
							<g id="g88_5_" transform="translate(28.8662,13.4258)">
								<path id="path90_5_" fill="#77B255" d="M106.8-225.3c-7.5,2.5-15.9-0.7-20.4-3.8c3.1,4.5,6.3,12.9,3.8,20.4
									c-1,2.9-5.9,5.9-8.8,2.9c-1-1-2-2,0-2s4.9-2.9,3.9-5.9c-0.9-2.6-7.3-9.2-4.4-16.2c-0.3-0.1-0.6-0.3-0.8-0.5l-0.8-0.8
									c-1-1-1-2.5,0-3.5l0.8-0.8c1-1,2.5-1,3.5,0l0.8,0.8c0.1,0.1,0.2,0.3,0.3,0.4c7.4-4,14.5,2.9,17.2,3.9c2.9,1,5.9-2,5.9-3.9
									c0-2,1-1,2,0C112.7-231.2,109.7-226.3,106.8-225.3"/>
							</g>
						</g>
					</g>
				</g>
			</g>
			<g id="g10_16_" transform="matrix(1.25,0,0,-1.25,0,47.5)">
				<g id="g12_43_">
					<g>
						<defs>
							<rect id="SVGID_53_" x="40" y="-231" width="50" height="50"/>
						</defs>
						<clipPath id="SVGID_10_">
							<use xlink:href="#SVGID_53_"  overflow="visible"/>
						</clipPath>
						<g id="g14_43_" clip-path="url(#SVGID_10_)">
							<g id="g20_22_" transform="translate(37,19)">
								<path id="path22_22_" fill="#CCD6DD" d="M46.9-225c0-10.5-8.5-18.9-18.9-18.9C17.5-244,9-235.5,9-225s8.5,18.9,18.9,18.9
									C38.4-206.1,46.9-214.6,46.9-225"/>
							</g>
							<g id="g24_17_" transform="translate(33,19)">
								<path id="path26_17_" fill="#3B88C3" d="M46.7-225c0-8.1-6.6-14.7-14.7-14.7c-8.1,0-14.7,6.6-14.7,14.7s6.6,14.7,14.7,14.7
									C40.1-210.3,46.7-216.9,46.7-225"/>
							</g>
							<g id="g28_23_" transform="translate(29,19)">
								<path id="path30_18_" fill="#DD2E44" d="M46.5-225c0-5.8-4.7-10.5-10.5-10.5c-5.8,0-10.5,4.7-10.5,10.5
									c0,5.8,4.7,10.5,10.5,10.5C41.8-214.5,46.5-219.2,46.5-225"/>
							</g>
							<g id="g32_14_" transform="translate(25,19)">
								<path id="path34_14_" fill="#FFAC33" d="M46.3-225c0-3.5-2.8-6.3-6.3-6.3c-3.5,0-6.3,2.8-6.3,6.3c0,3.5,2.8,6.3,6.3,6.3
									C43.5-218.7,46.3-221.6,46.3-225"/>
							</g>
							<g id="g36_14_" transform="translate(35.8643,7.8008)">
								<path id="path38_14_" d="M46.9-225.6c-0.4-0.3-1.3-0.6-2-0.6c-2.1,0-4.9,0.8-6.7,2.5l-3.1,4.1c-0.3,0.3-0.4,0.6-0.2,1
									c0.2,0.4-0.8,0.6-0.4,0.6h5.3c2,0,4.5-1.3,6.2-3.2l0.4-0.4c0.8-0.9,1.2-1.7,1.2-2.5C47.7-224.8,47.4-225.3,46.9-225.6"/>
							</g>
							<g id="g40_52_" transform="translate(29.3047,1.7959)">
								<path id="path42_51_" d="M46.5-226L46.5-226c-0.8,0-1.7,0.4-2.6,1.3l-0.5,0.4c-1.9,1.7-3.5,4.3-3.5,6.3v5.4
									c0,0.4,0.5-0.5,0.9-0.4c0.4,0.2,1,0.1,1.3-0.2l3.3-3.3c1.8-1.8,3.2-4.9,3.2-7c0-0.7-0.1-1.3-0.5-1.8
									C47.7-225.7,47.2-226,46.5-226"/>
							</g>
							<g id="g44_38_" transform="translate(32.3447,5.0361)">
								<path id="path46_38_" fill="#C1694F" d="M46.7-225.8c-0.3,0-0.5,0.1-0.7,0.3l-14.7,14.7c-0.4,0.4-0.4,1.1,0,1.5
									c0.4,0.4,1.1,0.4,1.5,0L47.4-224c0.4-0.4,0.4-1.1,0-1.5C47.2-225.7,46.9-225.8,46.7-225.8"/>
							</g>
						</g>
					</g>
				</g>
			</g>
			<g id="g10_15_" transform="matrix(1.25,0,0,-1.25,0,47.5)">
				<g id="g12_42_">
					<g>
						<defs>
							<rect id="SVGID_55_" x="160.5" y="-231" width="50" height="50"/>
						</defs>
						<clipPath id="SVGID_12_">
							<use xlink:href="#SVGID_55_"  overflow="visible"/>
						</clipPath>
						<g id="g14_42_" clip-path="url(#SVGID_12_)">
							<g id="g20_21_" transform="translate(35.9639,25.0449)">
								<path id="path22_21_" fill="#FFCC4D" d="M167.4-224.7L167.4-224.7c0,0,1.1,10.5,0,11.5c-1,1-7.1-0.7-8.2-1
									c-2.6,1.3-5.7,2.1-9.7,2.1c-3.9,0-7.1-0.8-9.6-2.1c-1.1,0.3-7.3,2-8.2,1c-1.1-1.1,0-11.6,0-11.6l0,0.1
									c-0.8-2.7-1.1-5.6-1.1-8.5c0-5.8,3.6-10.3,8-13.2c0.1,6.8-2.4,14.3-6.5,14.3c-0.5,0-0.9-0.1-1.2-0.2c0.3,0.8,1,1.2,2.3,1.2
									c4.5,0,7-8.9,6.4-16c3.3-1.9,7-3,10-3c3,0,6.6,1,10,3c-0.6,7.1,1.9,16,6.4,16c1.3,0,2-0.4,2.3-1.2c-0.3,0.1-0.7,0.2-1.2,0.2
									c-4.1,0-6.6-7.5-6.5-14.3c4.4,2.9,8,7.4,8,13.3C168.5-230.3,168.2-227.4,167.4-224.7"/>
							</g>
							<g id="g24_16_" transform="translate(19,16)">
								<path id="path26_16_" fill="#292F33" d="M166.5-225.2c-2.3,0-4.2-1.9-4.2-4.2v-6.3c0-2.3,1.9-4.2,4.2-4.2
									c2.3,0,4.2,1.9,4.2,4.2v6.3C170.7-227.1,168.9-225.2,166.5-225.2"/>
							</g>
							<g id="g28_22_" transform="translate(18.9995,22)">
								<path id="path30_17_" fill="#67757F" d="M166.5-224.9c3.2,0,3.2-0.5,3.2-1.6s-1.6-3.2-3.2-3.2c-1.6,0-3.2,2.1-3.2,3.2
									S163.4-224.9,166.5-224.9"/>
							</g>
							<g id="g32_13_" transform="translate(30.9238,16.4941)">
								<path id="path34_13_" fill="#9AAAB4" d="M167.2-225.2l-5.3-1.1c-0.3-0.1-0.5-0.3-0.4-0.6c0.1-0.3,0.3-0.4,0.5-0.4
									c0,0,0.1,0,0.1,0l4.4,0.9C166.7-226,166.9-225.6,167.2-225.2"/>
							</g>
							<g id="g36_13_" transform="translate(34.5605,19)">
								<path id="path38_13_" fill="#9AAAB4" d="M167.3-225L167.3-225l1.7,0.6c0.3,0.1,0.4,0.4,0.3,0.7c-0.1,0.3-0.4,0.4-0.7,0.3
									l-9.5-3.2c-0.3-0.1-0.4-0.4-0.3-0.7c0.1-0.2,0.3-0.4,0.5-0.4c0.1,0,0.1,0,0.2,0l5.7,1.9C165.9-225.3,166.6-225,167.3-225"/>
							</g>
							<g id="g40_16_" transform="translate(12.0981,15.4902)">
								<path id="path42_16_" fill="#9AAAB4" d="M166.2-225.2l-5.3,1.1c0.2-0.4,0.5-0.8,0.7-1.2l4.4-0.9c0,0,0.1,0,0.1,0
									c0.2,0,0.5,0.2,0.5,0.4C166.6-225.6,166.5-225.3,166.2-225.2"/>
							</g>
							<g id="g44_9_" transform="translate(11.1582,17.4746)">
								<path id="path46_9_" fill="#9AAAB4" d="M166.1-225.1l-9.5,3.2c-0.3,0.1-0.6-0.1-0.7-0.3c-0.1-0.3,0.1-0.6,0.3-0.7l1.7-0.6
									l0,0c0.7,0,1.4-0.3,2.1-0.7l5.7-1.9c0.1,0,0.1,0,0.2,0c0.2,0,0.4,0.1,0.5,0.4C166.5-225.5,166.4-225.2,166.1-225.1"/>
							</g>
							<g id="g48_9_" transform="translate(8.3472,26.3345)">
								<path id="path50_9_" fill="#F5F8FA" d="M166-224.7c-1-3.3,0.1-6.6,2.5-7.3c2.4-0.7,5.1,1.4,6.1,4.8c1,3.3-0.1,6.6-2.5,7.3
									C169.7-219.2,167-221.3,166-224.7"/>
							</g>
							<g id="g52_13_" transform="translate(29.6523,26.3345)">
								<path id="path54_13_" fill="#F5F8FA" d="M167.1-224.7c1-3.3-0.1-6.6-2.5-7.3c-2.4-0.7-5.1,1.4-6.1,4.8
									c-1,3.3,0.1,6.6,2.5,7.3C163.4-219.2,166.1-221.3,167.1-224.7"/>
							</g>
							<g id="g56_8_" transform="translate(36.7529,17.8174)">
								<path id="path58_8_" fill="#FCAB40" d="M167.5-225.1c-0.3,0.1-0.7,0.2-1.2,0.2c-4.9,0-7.4-10.5-6.2-17.9h6.8
									C164.9-235.4,168.6-228,167.5-225.1"/>
							</g>
							<g id="g60_23_" transform="translate(2.4043,18)">
								<path id="path62_13_" fill="#FCAB40" d="M165.7-225.1c-0.5,0-0.9-0.1-1.2-0.2c0.1,0.2,0.2,0.4,0.3,0.5
									c-2-2.4,2.4-10.4,0.3-18.2h6.8C173.1-235.7,170.5-225.1,165.7-225.1"/>
							</g>
						</g>
					</g>
				</g>
			</g>
		</g>
		<path fill="#F46060" d="M175.7,350.3h-39.9c-2.8,0-5.1-2.3-5.1-5.1l0,0c0-2.8,2.3-5.1,5.1-5.1h39.9c2.8,0,5.1,2.3,5.1,5.1l0,0
			C180.8,348,178.5,350.3,175.7,350.3z"/>
		<g id="g10_147_" transform="matrix(1.25,0,0,-1.25,0,47.5)">
			<g id="g12_172_">
				<g>
					<defs>
						<rect id="SVGID_57_" x="98.4" y="-58.6" width="22.5" height="22.5"/>
					</defs>
					<clipPath id="SVGID_14_">
						<use xlink:href="#SVGID_57_"  overflow="visible"/>
					</clipPath>
					<g id="g14_174_" clip-path="url(#SVGID_14_)">
						<g id="g20_158_" transform="translate(36,19)">
							<path id="path22_158_" fill="#FFCC4D" d="M81.8-66.3c0-4.5-3.6-8.1-8.1-8.1c-4.5,0-8.1,3.6-8.1,8.1c0,4.5,3.6,8.1,8.1,8.1
								C78.1-58.3,81.8-61.9,81.8-66.3"/>
						</g>
						<g id="g24_149_" transform="translate(29.457,19.2031)">
							<path id="path26_149_" fill="#664500" d="M85.2-66.4c0,0.1-0.7,1.6-2.1,1.6c-1.4,0-2.1-1.5-2.1-1.6c0-0.1,0-0.2,0.1-0.3
								c0.1-0.1,0.2-0.1,0.3,0c0,0,0.6,0.4,1.8,0.4c1.2,0,1.7-0.4,1.8-0.4c0,0,0.1,0,0.1,0c0.1,0,0.1,0,0.1,0.1
								C85.2-66.6,85.2-66.5,85.2-66.4"/>
						</g>
						<g id="g28_108_" transform="translate(17.457,19.2031)">
							<path id="path30_103_" fill="#664500" d="M91.5-66.4c0,0.1-0.7,1.6-2.1,1.6c-1.4,0-2.1-1.5-2.1-1.6c0-0.1,0-0.2,0.1-0.3
								c0.1-0.1,0.2-0.1,0.3,0c0,0,0.6,0.4,1.8,0.4c1.2,0,1.7-0.4,1.8-0.4c0,0,0.1,0,0.1,0c0.1,0,0.1,0,0.1,0.1
								C91.5-66.6,91.5-66.5,91.5-66.4"/>
						</g>
						<g id="g32_85_" transform="translate(32,20.9995)">
							<path id="path34_82_" fill="#664500" d="M83.9-67.4c-0.2,0-0.4,0.1-0.4,0.3c-0.8,2.1-3,2.6-3,2.6c-0.3,0.1-0.4,0.3-0.4,0.6
								c0.1,0.3,0.3,0.4,0.6,0.4c0.1,0,2.6-0.6,3.7-3.1c0.1-0.2,0-0.5-0.3-0.6C84-67.4,83.9-67.4,83.9-67.4"/>
						</g>
						<g id="g36_76_" transform="translate(5.9995,20.9995)">
							<path id="path38_76_" fill="#664500" d="M97.5-67.4c-0.1,0-0.1,0-0.2,0c-0.2,0.1-0.4,0.4-0.3,0.6c1,2.6,3.6,3.1,3.7,3.1
								c0.3,0.1,0.5-0.1,0.6-0.4c0.1-0.3-0.1-0.5-0.4-0.6c-0.1,0-2.1-0.5-3-2.6C97.9-67.3,97.7-67.4,97.5-67.4"/>
						</g>
						<g id="g40_78_" transform="translate(19,15)">
							<path id="path42_76_" fill="#664500" d="M90.7-64.2c-1.7,0-2.9,0.2-4.3,0.5c-0.3,0.1-0.9,0-0.9-0.9c0-1.9,2.2-4.3,5.2-4.3
								c3,0,5.2,2.4,5.2,4.3c0,0.9-0.6,1-0.9,0.9C93.6-64,92.4-64.2,90.7-64.2"/>
						</g>
						<g id="g44_60_" transform="translate(10,14)">
							<path id="path46_60_" fill="#FFFFFF" d="M95.4-63.7c0,0,1.4-0.5,4.3-0.5c2.8,0,4.3,0.5,4.3,0.5s-0.9-1.9-4.3-1.9
								C96.4-65.6,95.4-63.7,95.4-63.7"/>
						</g>
						<g id="g48_49_" transform="translate(11.8472,8.7705)">
							<path id="path50_49_" fill="#5DADEC" d="M94.4-61c-0.3-1.3-1.6-2-2.9-1.7c-1.3,0.3-2,1.6-1.7,2.9c0.3,1.3,3,4.1,3.5,4
								C93.8-55.9,94.8-59.7,94.4-61"/>
						</g>
						<g id="g52_48_" transform="translate(26.1328,8.7705)">
							<path id="path54_46_" fill="#5DADEC" d="M86.9-61c0.3-1.3,1.6-2,2.9-1.7c1.3,0.3,2,1.6,1.7,2.9c-0.3,1.3-3,4.1-3.5,4
								C87.6-55.9,86.6-59.7,86.9-61"/>
						</g>
					</g>
				</g>
			</g>
		</g>
		<g id="g10_148_" transform="matrix(1.25,0,0,-1.25,0,47.5)">
			<g id="g12_173_">
				<g>
					<defs>
						<rect id="SVGID_59_" x="35.4" y="-93.8" width="22.5" height="22.5"/>
					</defs>
					<clipPath id="SVGID_16_">
						<use xlink:href="#SVGID_59_"  overflow="visible"/>
					</clipPath>
					<g id="g14_175_" clip-path="url(#SVGID_16_)">
						<g id="g20_159_" transform="translate(36,19)">
							<path id="path22_159_" fill="#FFCC4D" d="M18.7-101.5c0-4.5-3.6-8.1-8.1-8.1c-4.5,0-8.1,3.6-8.1,8.1c0,4.5,3.6,8.1,8.1,8.1
								C15.1-93.5,18.7-97.1,18.7-101.5"/>
						</g>
						<g id="g24_150_" transform="translate(29.457,19.2031)">
							<path id="path26_150_" fill="#664500" d="M22.1-101.6c0,0.1-0.7,1.6-2.1,1.6c-1.4,0-2.1-1.5-2.1-1.6c0-0.1,0-0.2,0.1-0.3
								c0.1-0.1,0.2-0.1,0.3,0c0,0,0.6,0.4,1.8,0.4c1.2,0,1.7-0.4,1.8-0.4c0,0,0.1,0,0.1,0c0.1,0,0.1,0,0.1,0.1
								C22.1-101.8,22.2-101.7,22.1-101.6"/>
						</g>
						<g id="g28_109_" transform="translate(17.457,19.2031)">
							<path id="path30_104_" fill="#664500" d="M28.4-101.6c0,0.1-0.7,1.6-2.1,1.6c-1.4,0-2.1-1.5-2.1-1.6c0-0.1,0-0.2,0.1-0.3
								c0.1-0.1,0.2-0.1,0.3,0c0,0,0.6,0.4,1.8,0.4c1.2,0,1.7-0.4,1.8-0.4c0,0,0.1,0,0.1,0c0.1,0,0.1,0,0.1,0.1
								C28.4-101.8,28.5-101.7,28.4-101.6"/>
						</g>
						<g id="g32_86_" transform="translate(32,20.9995)">
							<path id="path34_83_" fill="#664500" d="M20.8-102.6c-0.2,0-0.4,0.1-0.4,0.3c-0.8,2.1-3,2.6-3,2.6c-0.3,0.1-0.4,0.3-0.4,0.6
								c0.1,0.3,0.3,0.4,0.6,0.4c0.1,0,2.6-0.6,3.7-3.1c0.1-0.2,0-0.5-0.3-0.6C20.9-102.6,20.9-102.6,20.8-102.6"/>
						</g>
						<g id="g36_77_" transform="translate(5.9995,20.9995)">
							<path id="path38_77_" fill="#664500" d="M34.5-102.6c-0.1,0-0.1,0-0.2,0c-0.2,0.1-0.4,0.4-0.3,0.6c1,2.6,3.6,3.1,3.7,3.1
								c0.3,0.1,0.5-0.1,0.6-0.4c0.1-0.3-0.1-0.5-0.4-0.6c-0.1,0-2.1-0.5-3-2.6C34.8-102.5,34.6-102.6,34.5-102.6"/>
						</g>
						<g id="g40_79_" transform="translate(19,15)">
							<path id="path42_77_" fill="#664500" d="M27.6-99.4c-1.7,0-2.9,0.2-4.3,0.5c-0.3,0.1-0.9,0-0.9-0.9c0-1.9,2.2-4.3,5.2-4.3
								c3,0,5.2,2.4,5.2,4.3c0,0.9-0.6,1-0.9,0.9C30.5-99.2,29.3-99.4,27.6-99.4"/>
						</g>
						<g id="g44_61_" transform="translate(10,14)">
							<path id="path46_61_" fill="#FFFFFF" d="M32.4-98.9c0,0,1.4-0.5,4.3-0.5c2.8,0,4.3,0.5,4.3,0.5s-0.9-1.9-4.3-1.9
								C33.3-100.8,32.4-98.9,32.4-98.9"/>
						</g>
						<g id="g48_50_" transform="translate(11.8472,8.7705)">
							<path id="path50_50_" fill="#5DADEC" d="M31.4-96.1c-0.3-1.3-1.6-2-2.9-1.7c-1.3,0.3-2,1.6-1.7,2.9c0.3,1.3,3,4.1,3.5,4
								C30.7-91.1,31.7-94.9,31.4-96.1"/>
						</g>
						<g id="g52_49_" transform="translate(26.1328,8.7705)">
							<path id="path54_47_" fill="#5DADEC" d="M23.9-96.1c0.3-1.3,1.6-2,2.9-1.7c1.3,0.3,2,1.6,1.7,2.9c-0.3,1.3-3,4.1-3.5,4
								C24.5-91.1,23.6-94.9,23.9-96.1"/>
						</g>
					</g>
				</g>
			</g>
		</g>
		<g id="g10_150_" transform="matrix(1.25,0,0,-1.25,0,47.5)">
			<g id="g12_175_">
				<g>
					<defs>
						<rect id="SVGID_61_" x="140.3" y="-58.6" width="22.5" height="22.5"/>
					</defs>
					<clipPath id="SVGID_18_">
						<use xlink:href="#SVGID_61_"  overflow="visible"/>
					</clipPath>
					<g id="g14_177_" clip-path="url(#SVGID_18_)">
						<g id="g20_161_" transform="translate(34.7988,36.9946)">
							<path id="path22_161_" fill="#99AAB5" d="M124.3-75.8c-0.2,0.1-3.8-1.9-4.7-4.3c-0.6-1.4-0.8-2.9-0.8-3.8
								c-0.7,0.4-1.4,0.6-2,0.6s-1.3-0.2-2-0.6c0,1-0.2,2.4-0.8,3.8c-0.9,2.4-4.5,4.4-4.7,4.3c-0.2-0.1,2-7.6,3.3-9.9
								c-1.1-1.2-2-2.8-2-4.3c0-1.5,0.8-2.4,1.9-2.8c1.2-0.4,2.4,0.4,4.3,0.4s3.1-0.9,4.3-0.4c1.1,0.4,1.9,1.3,1.9,2.8
								c0,1.5-0.9,3-2,4.3C122.3-83.4,124.5-75.9,124.3-75.8"/>
						</g>
						<g id="g24_152_" transform="translate(13.6919,19.0781)">
							<path id="path26_152_" fill="#F4ABBA" d="M135.4-66.4c-0.1,0.7-0.3,1.7-0.7,2.6c-0.7,1.9-2.7,3.4-2.9,3.4
								c-0.2-0.1,1.2-4.8,2.3-7.1C134.5-67,134.9-66.7,135.4-66.4"/>
						</g>
						<g id="g28_110_" transform="translate(27.0303,16.9063)">
							<path id="path30_105_" fill="#F4ABBA" d="M128.4-65.2c1,2.2,2.4,7,2.3,7.1c-0.2,0.1-2.1-1.5-2.9-3.4c-0.4-1-0.6-1.9-0.7-2.6
								C127.5-64.5,128-64.8,128.4-65.2"/>
						</g>
						<g id="g32_87_" transform="translate(26,7)">
							<path id="path34_84_" fill="#CCD6DD" d="M128.9-60c0-1.3-1.5-2.4-3.2-2.4c-1.8,0-3.2,1.1-3.2,2.4c0,1.3,1.5,2.4,3.2,2.4
								C127.5-57.6,128.9-58.7,128.9-60"/>
						</g>
						<g id="g36_78_" transform="translate(22,6.4219)">
							<path id="path38_78_" fill="#FFFFFF" d="M131-59.7c0-1.3-0.1-1.4-1.4-1.4c-1.3,0-1.4,0.1-1.4,1.4
								C128.2-59.2,131-59.2,131-59.7"/>
						</g>
						<g id="g40_80_" transform="translate(15,12.6719)">
							<path id="path42_78_" fill="#292F33" d="M134.7-63c0-0.4-0.3-0.7-0.7-0.7c-0.4,0-0.7,0.3-0.7,0.7c0,0.4,0.3,0.7,0.7,0.7
								C134.4-62.3,134.7-62.6,134.7-63"/>
						</g>
						<g id="g44_62_" transform="translate(26,12.6719)">
							<path id="path46_62_" fill="#292F33" d="M128.9-63c0-0.4-0.3-0.7-0.7-0.7c-0.4,0-0.7,0.3-0.7,0.7c0,0.4,0.3,0.7,0.7,0.7
								C128.6-62.3,128.9-62.6,128.9-63"/>
						</g>
						<g id="g48_51_" transform="translate(22,11.1719)">
							<path id="path50_51_" fill="#F4ABBA" d="M131-62.2c0-0.8-0.9-1.4-1.4-1.4s-1.4,0.6-1.4,1.4S131-61.4,131-62.2"/>
						</g>
					</g>
				</g>
			</g>
		</g>
		<g id="g10_154_" transform="matrix(1.25,0,0,-1.25,0,47.5)">
			<g id="g12_178_">
				<g>
					<defs>
						<rect id="SVGID_63_" x="35.4" y="-125.4" width="22.5" height="22.5"/>
					</defs>
					<clipPath id="SVGID_20_">
						<use xlink:href="#SVGID_63_"  overflow="visible"/>
					</clipPath>
					<g id="g14_180_" clip-path="url(#SVGID_20_)">
						<g id="g20_168_" transform="translate(18,19)">
							<path id="path22_168_" fill="#E1E8ED" d="M28.1-133.1c0-2.6-1.8-4.7-4-4.7s-4,2.1-4,4.7c0,2.6,1.8,4.7,4,4.7
								S28.1-130.5,28.1-133.1"/>
						</g>
						<g id="g24_155_" transform="translate(37,19)">
							<path id="path26_155_" fill="#E1E8ED" d="M18.2-133.1c0-2.6-1.8-4.7-4-4.7c-2.2,0-4,2.1-4,4.7c0,2.6,1.8,4.7,4,4.7
								C16.4-128.4,18.2-130.5,18.2-133.1"/>
						</g>
						<g id="g28_113_" transform="translate(9,15)">
							<path id="path30_107_" fill="#292F33" d="M32.9-131c0-0.8-0.6-1.4-1.4-1.4c-0.8,0-1.4,0.6-1.4,1.4c0,0.8,0.6,1.4,1.4,1.4
								C32.2-129.6,32.9-130.2,32.9-131"/>
						</g>
						<g id="g32_89_" transform="translate(28,15)">
							<path id="path34_86_" fill="#292F33" d="M22.9-131c0-0.8-0.6-1.4-1.4-1.4c-0.8,0-1.4,0.6-1.4,1.4c0,0.8,0.6,1.4,1.4,1.4
								C22.3-129.6,22.9-130.2,22.9-131"/>
						</g>
					</g>
				</g>
			</g>
		</g>
		<g id="g10_157_" transform="matrix(1.25,0,0,-1.25,0,47.5)">
			<g id="g12_181_">
				<g>
					<defs>
						<rect id="SVGID_65_" x="119.4" y="-125.4" width="22.5" height="22.5"/>
					</defs>
					<clipPath id="SVGID_22_">
						<use xlink:href="#SVGID_65_"  overflow="visible"/>
					</clipPath>
					<g id="g14_183_" clip-path="url(#SVGID_22_)">
						<g id="g20_171_" transform="translate(18,19)">
							<path id="path22_171_" fill="#E1E8ED" d="M112.2-133.1c0-2.6-1.8-4.7-4-4.7c-2.2,0-4,2.1-4,4.7c0,2.6,1.8,4.7,4,4.7
								C110.4-128.4,112.2-130.5,112.2-133.1"/>
						</g>
						<g id="g24_158_" transform="translate(37,19)">
							<path id="path26_158_" fill="#E1E8ED" d="M102.2-133.1c0-2.6-1.8-4.7-4-4.7c-2.2,0-4,2.1-4,4.7c0,2.6,1.8,4.7,4,4.7
								C100.4-128.4,102.2-130.5,102.2-133.1"/>
						</g>
						<g id="g28_116_" transform="translate(9,15)">
							<path id="path30_110_" fill="#292F33" d="M116.9-131c0-0.8-0.6-1.4-1.4-1.4c-0.8,0-1.4,0.6-1.4,1.4c0,0.8,0.6,1.4,1.4,1.4
								C116.3-129.6,116.9-130.2,116.9-131"/>
						</g>
						<g id="g32_92_" transform="translate(28,15)">
							<path id="path34_89_" fill="#292F33" d="M107-131c0-0.8-0.6-1.4-1.4-1.4c-0.8,0-1.4,0.6-1.4,1.4c0,0.8,0.6,1.4,1.4,1.4
								C106.3-129.6,107-130.2,107-131"/>
						</g>
					</g>
				</g>
			</g>
		</g>
		<g id="g10_149_" transform="matrix(1.25,0,0,-1.25,0,47.5)">
			<g id="g12_174_">
				<g>
					<defs>
						<rect id="SVGID_67_" x="119.4" y="-58.6" width="22.5" height="22.5"/>
					</defs>
					<clipPath id="SVGID_24_">
						<use xlink:href="#SVGID_67_"  overflow="visible"/>
					</clipPath>
					<g id="g14_176_" clip-path="url(#SVGID_24_)">
						<g id="g20_160_" transform="translate(23.4941,31.6558)">
							<path id="path22_160_" fill="#DD2E44" d="M109.3-73c-0.3,0-0.6,0-0.9-0.1c-0.4,0-1.3,0.1-1.7,0.1c-4,0-7.5-1.5-7.5-6.8
								c0-4.3,3.3-7.8,8.1-7.8c4.7,0,8.5,3.5,8.5,7.8C115.7-74.4,111.3-73,109.3-73"/>
						</g>
						<g id="g24_151_" transform="translate(9.439,36.9087)">
							<path id="path26_151_" fill="#77B255" d="M116.7-75.7c0.8-0.8,1.3-1.1,1.6-2.3c0.1-0.7,1.1-0.7,1.1-0.7s-1.9-0.8-2.6-1.6
								c0,0,2.3,0.8,3.1,0.8c0,0,1.6-0.8,1.6-1.6c0,0,0,1.6-0.8,1.6c0,0,2.3,0,2.3-1.6c0,0,0,2.3-0.8,2.3c0,0,2.3,0.8,3.1,0
								c0,0-0.8,0.8-2.3,0.8c0,0,0.8,0.8,2.3,0.8c0,0-2.5,0.7-3.3-0.8c0,0-0.7,0.7,0.7,2c0,0-2-0.4-2-1.9c0,0-0.7,0-1.3,0.6
								C118.3-76.3,116.7-75.7,116.7-75.7"/>
						</g>
					</g>
				</g>
			</g>
		</g>
		<g id="g10_159_" transform="matrix(1.25,0,0,-1.25,0,47.5)">
			<g id="g12_183_">
				<g>
					<defs>
						<rect id="SVGID_69_" x="77.3" y="-58.6" width="22.5" height="22.5"/>
					</defs>
					<clipPath id="SVGID_26_">
						<use xlink:href="#SVGID_69_"  overflow="visible"/>
					</clipPath>
					<g id="g14_185_" clip-path="url(#SVGID_26_)">
						<g id="g20_173_" transform="translate(35.751,15)">
							<path id="path22_173_" fill="#77B255" d="M60.8-64.2c-1.6,0-5.6-1.7-7.5-3.4v5.8c0,0.3-0.2,0.5-0.5,0.5
								c-0.3,0-0.5-0.2-0.5-0.5v-5.9c-1.8,1.7-5.9,3.5-7.6,3.5c-0.4,0,5.2-6.6,7.6-6v-0.2c0-0.3,0.2-0.5,0.5-0.5
								c0.3,0,0.5,0.2,0.5,0.5v0.2C55.8-70.7,61.2-64.2,60.8-64.2"/>
						</g>
						<g id="g24_160_" transform="translate(26,23.5835)">
							<path id="path26_160_" fill="#EA596E" d="M65.9-68.7c0-3-0.8-4.5-3.3-4.5c-2.5,0-3.3,1.5-3.3,4.5c0,3,2.4,6.4,3.3,6.4
								S65.9-65.7,65.9-68.7"/>
						</g>
						<g id="g28_118_" transform="translate(23.7949,35)">
							<path id="path30_111_" fill="#F4ABBA" d="M67.1-74.7c-0.2,0-1.9-6.8-2.3-9.1c-0.4,2.4-2.1,9.1-2.4,9.1
								c-0.5,0-2.8-4.3-2.8-6.2c0-1.9,2.7-3.8,5.2-3.8c2.5,0,5.1,1.9,5.1,3.8C69.9-79,67.6-74.7,67.1-74.7"/>
						</g>
					</g>
				</g>
			</g>
		</g>
		<g id="g10_146_" transform="matrix(1.25,0,0,-1.25,0,47.5)">
			<g id="g12_171_">
				<g>
					<defs>
						<rect id="SVGID_71_" x="161.3" y="-93.8" width="22.5" height="22.5"/>
					</defs>
					<clipPath id="SVGID_28_">
						<use xlink:href="#SVGID_71_"  overflow="visible"/>
					</clipPath>
					<g id="g14_173_" clip-path="url(#SVGID_28_)">
						<g id="g20_157_" transform="translate(35.751,15)">
							<path id="path22_157_" fill="#77B255" d="M144.8-99.4c-1.6,0-5.6-1.7-7.5-3.4v5.8c0,0.3-0.2,0.5-0.5,0.5
								c-0.3,0-0.5-0.2-0.5-0.5v-5.9c-1.8,1.7-5.9,3.5-7.6,3.5c-0.4,0,5.2-6.6,7.6-6v-0.2c0-0.3,0.2-0.5,0.5-0.5
								c0.3,0,0.5,0.2,0.5,0.5v0.2C139.8-105.9,145.2-99.4,144.8-99.4"/>
						</g>
						<g id="g24_148_" transform="translate(26,23.5835)">
							<path id="path26_148_" fill="#EA596E" d="M149.9-103.9c0-3-0.8-4.5-3.3-4.5s-3.3,1.5-3.3,4.5c0,3,2.4,6.4,3.3,6.4
								C147.5-97.6,149.9-100.9,149.9-103.9"/>
						</g>
						<g id="g28_107_" transform="translate(23.7949,35)">
							<path id="path30_102_" fill="#F4ABBA" d="M151.1-109.9c-0.2,0-1.9-6.8-2.3-9.1c-0.4,2.4-2.1,9.1-2.4,9.1
								c-0.5,0-2.8-4.3-2.8-6.2c0-1.9,2.7-3.8,5.2-3.8c2.5,0,5.1,1.9,5.1,3.8C153.9-114.2,151.6-109.9,151.1-109.9"/>
						</g>
					</g>
				</g>
			</g>
		</g>
		<g id="g10_156_" transform="matrix(1.25,0,0,-1.25,0,47.5)">
			<g id="g12_180_">
				<g>
					<defs>
						<rect id="SVGID_73_" x="98.5" y="-125.4" width="22.1" height="22.1"/>
					</defs>
					<clipPath id="SVGID_30_">
						<use xlink:href="#SVGID_73_"  overflow="visible"/>
					</clipPath>
					<g id="g14_182_" clip-path="url(#SVGID_30_)">
						<g id="g20_170_" transform="translate(2.7266,14.7012)">
							<path id="path22_170_" fill="#FFAC33" d="M99.2-131c0,0-0.6,0.6,0,1.3c0.6,0.6,1.3,0,1.3,0l3-2.8c0,0,0.2,0.4,0.2,0.4
								l-4.2,3.9c0,0-0.6,0.6,0,1.3c0.6,0.7,1.3,0,1.3,0l3.9-3.6c0,0,0.3,0.3,0.3,0.3l-4.6,4.2c0,0-0.6,0.6,0,1.3
								c0.6,0.6,1.3,0,1.3,0l4.6-4.2c0,0,0.3,0.3,0.3,0.3l-4.3,4c0,0-0.6,0.6,0,1.3c0.6,0.6,1.3,0,1.3,0s3.2-2.9,4.5-4.2
								c1.3-1.2,1.6-0.9,1.6-0.9l-1.2,1.1l-1.4,1.3c0,0-0.6,0.6,0,1.3c0.6,0.6,1.3,0,1.3,0l3.6-3.3c2.2-2,2.3-5.4,0.3-7.5
								c-2-2.2-5.4-2.3-7.5-0.3c-0.1,0.1-0.3,0.3-0.3,0.3l0,0L99.2-131z"/>
						</g>
						<g id="g24_157_" transform="translate(5.627,16.6504)">
							<path id="path26_157_" fill="#FFDC5D" d="M97.7-132c0,0-0.6,0.6,0,1.3c0.6,0.7,1.3,0,1.3,0l3-2.8c0,0,0.2,0.4,0.2,0.4
								l-4.2,3.9c0,0-0.6,0.6,0,1.3c0.6,0.6,1.3,0,1.3,0l3.9-3.6c0,0,0.3,0.3,0.3,0.3l-4.6,4.2c0,0-0.6,0.6,0,1.3s1.3,0,1.3,0
								l4.6-4.2c0,0,0.3,0.3,0.3,0.3l-4.3,4c0,0-0.6,0.6,0,1.3c0.6,0.6,1.3,0,1.3,0s3.2-2.9,4.5-4.2c1.3-1.2,1.6-0.9,1.6-0.9
								l-1.2,1.1l-1.4,1.3c0,0-0.6,0.6,0,1.3c0.6,0.6,1.3,0,1.3,0l3.6-3.3c2.2-2,2.3-5.4,0.3-7.5c-2-2.2-5.4-2.3-7.5-0.3
								c-0.1,0.1-0.3,0.3-0.3,0.3l0,0L97.7-132z"/>
						</g>
						<g id="g28_115_" transform="translate(25.541,30.5415)">
							<path id="path30_109_" fill="#FFAC33" d="M87-139.5c-0.1,0-0.2,0-0.3,0.1c-0.2,0.2-0.2,0.5-0.1,0.7l1.4,1.8
								c0.2,0.2,0.4,0.2,0.7,0.1c0.2-0.2,0.2-0.4,0.1-0.7l-1.4-1.8C87.3-139.4,87.2-139.5,87-139.5"/>
						</g>
						<g id="g32_91_" transform="translate(20,30)">
							<path id="path34_88_" fill="#FFAC33" d="M90-139.2c-0.3,0-0.5,0.2-0.5,0.5v2.3c0,0.3,0.2,0.5,0.5,0.5c0.3,0,0.5-0.2,0.5-0.5
								v-2.3C90.5-139,90.3-139.2,90-139.2"/>
						</g>
						<g id="g36_82_" transform="translate(29.417,27.333)">
							<path id="path38_82_" fill="#FFAC33" d="M85-137.7c-0.2,0-0.4,0.1-0.4,0.3c-0.1,0.2,0,0.5,0.3,0.6l2.1,0.8
								c0.2,0.1,0.5,0,0.6-0.3c0.1-0.2,0-0.5-0.3-0.6l-2.1-0.8C85.1-137.7,85-137.7,85-137.7"/>
						</g>
					</g>
				</g>
			</g>
		</g>
		<g id="g10_144_" transform="matrix(1.25,0,0,-1.25,0,47.5)">
			<g id="g12_169_">
				<g>
					<defs>
						<rect id="SVGID_75_" x="35.4" y="-58.6" width="22.5" height="22.5"/>
					</defs>
					<clipPath id="SVGID_32_">
						<use xlink:href="#SVGID_75_"  overflow="visible"/>
					</clipPath>
					<g id="g14_171_" clip-path="url(#SVGID_32_)">
						<g id="g20_155_" transform="translate(21.1426,4.7852)">
							<path id="path22_155_" fill="#E1E8ED" d="M26.5-58.9c0-0.6-0.5-1-1-1c-0.6,0-1,0.5-1,1c0,0.6,0.5,1,1,1
								C26-57.8,26.5-58.3,26.5-58.9"/>
						</g>
						<g id="g24_146_" transform="translate(28.6426,21.3569)">
							<path id="path26_146_" fill="#E1E8ED" d="M22.6-67.6c0,2.5-2,4.6-4.6,4.6c-2.5,0-4.6-2-4.6-4.6c0-2.5-0.5-7.9-0.5-7.9
								c0-0.6,0.5-1,1-1c0.6,0,1,0.5,1,1c0-0.6,0.5-1,1-1c0.6,0,1,0.5,1,1h2c0-0.6,0.5-1,1-1c0.6,0,1,0.5,1,1c0-0.6,0.5-1,1-1
								c0.6,0,1,0.5,1,1C23.1-75.4,22.6-70.1,22.6-67.6"/>
						</g>
						<g id="g28_105_" transform="translate(21,34)">
							<path id="path30_100_" fill="#DD2E44" d="M26.6-74.2c0-1-0.7-2.8-0.9-2.8c-0.3,0-0.9,1.8-0.9,2.8c0,1,0.7,1.4,0.9,1.4
								C25.9-72.8,26.6-73.2,26.6-74.2"/>
						</g>
						<g id="g32_84_" transform="translate(16.6348,4)">
							<path id="path34_81_" fill="#DD2E44" d="M28.9-58.4c0,1.2,0.8,3.8,1.1,3.8c0.3,0,1.1-2.6,1.1-3.8c0-1.2-0.8-1.4-1.1-1.4
								C29.7-59.9,28.9-59.7,28.9-58.4"/>
						</g>
						<g id="g36_75_" transform="translate(26,14.5)">
							<path id="path38_75_" fill="#F4900C" d="M23.9-64c0-0.7-2.3-2.1-3.3-2.1c-1,0-3.3,1.4-3.3,2.1c0,0.7,2.3,2.1,3.3,2.1
								C21.7-61.8,23.9-63.3,23.9-64"/>
						</g>
						<g id="g40_77_" transform="translate(26,14.5)">
							<path id="path42_75_" fill="#FFAC33" d="M23.9-64c0-0.7-6.6-0.7-6.6,0c0,0.7,2.3,2.1,3.3,2.1C21.7-61.8,23.9-63.3,23.9-64"/>
						</g>
						<g id="g44_59_" transform="translate(14,18.5)">
							<path id="path46_59_" fill="#292F33" d="M30.2-66.1c0-0.4-0.3-0.7-0.7-0.7c-0.4,0-0.7,0.3-0.7,0.7c0,0.4,0.3,0.7,0.7,0.7
								C29.9-65.4,30.2-65.7,30.2-66.1"/>
						</g>
						<g id="g48_48_" transform="translate(27,18.5)">
							<path id="path50_48_" fill="#292F33" d="M23.4-66.1c0-0.4-0.3-0.7-0.7-0.7c-0.4,0-0.7,0.3-0.7,0.7c0,0.4,0.3,0.7,0.7,0.7
								C23.1-65.4,23.4-65.7,23.4-66.1"/>
						</g>
					</g>
				</g>
			</g>
		</g>
		<g id="g10_155_" transform="matrix(1.25,0,0,-1.25,0,47.5)">
			<g id="g12_179_">
				<g>
					<defs>
						<rect id="SVGID_77_" x="57.4" y="-125.4" width="22.5" height="22.5"/>
					</defs>
					<clipPath id="SVGID_34_">
						<use xlink:href="#SVGID_77_"  overflow="visible"/>
					</clipPath>
					<g id="g14_181_" clip-path="url(#SVGID_34_)">
						<g id="g20_169_" transform="translate(27,28.0005)">
							<path id="path22_169_" fill="#292F33" d="M45.5-137.9c-1.7,0-3,0.8-3.8,2.3c-0.8-1.5-1.9-2.3-3.3-2.3c-0.3,0-0.5,0.2-0.5,0.5
								c0,0.3,0.2,0.5,0.5,0.5c1.3,0,2.3,0.9,2.9,2.8c0.1,0.2,0.2,0.3,0.5,0.3s0.4-0.1,0.5-0.3c0.6-1.9,1.7-2.8,3.3-2.8
								c0.3,0,0.5-0.2,0.5-0.5C46-137.7,45.8-137.9,45.5-137.9"/>
						</g>
						<g id="g24_156_" transform="translate(15.604,27.3462)">
							<path id="path26_156_" fill="#FFAC33" d="M51.5-137.5c1.6-1.6,0.2-2.8-1.4-4.4c-1.6-1.6-2.8-3-4.4-1.4
								c-1.6,1.6-1.6,4.2,0,5.8C47.3-135.9,49.9-135.9,51.5-137.5"/>
						</g>
						<g id="g28_114_" transform="translate(16.4351,26.0278)">
							<path id="path30_108_" fill="#BE1931" d="M51-136.8c0.8-0.8,0.1-2.6-1.4-4.1c-1.5-1.5-3.4-2.2-4.1-1.4
								c-0.8,0.8-0.1,2.6,1.4,4.1C48.4-136.7,50.3-136.1,51-136.8"/>
						</g>
						<g id="g32_90_" transform="translate(22.2988,27.3462)">
							<path id="path34_87_" fill="#FFAC33" d="M48-137.5c-1.6-1.6-0.2-2.8,1.4-4.4c1.6-1.6,2.8-3,4.4-1.4c1.6,1.6,1.6,4.2,0,5.8
								C52.1-135.9,49.6-135.9,48-137.5"/>
						</g>
						<g id="g36_81_" transform="translate(21.4688,26.0278)">
							<path id="path38_81_" fill="#BE1931" d="M48.4-136.8c-0.8-0.8-0.1-2.6,1.4-4.1c1.5-1.5,3.4-2.2,4.1-1.4
								c0.8,0.8,0.1,2.6-1.4,4.1C51-136.7,49.1-136.1,48.4-136.8"/>
						</g>
						<g id="g40_83_" transform="translate(23.4102,18.7793)">
							<path id="path42_81_" fill="#AA8DD8" d="M47.4-133c0.1,0.1,0.2,0.1,0.3,0.1c0.4,0,0.8-0.2,1-0.4c0.3-0.2,0.4-0.6,0.3-0.9
								c-0.1-0.6-0.6-1.1-1.6-1c-0.4,0-0.5-0.1-0.5-0.1c0-0.1,0.1-0.2,0.5-0.3c0.4,0,0.8-0.2,1-0.4c0.3-0.2,0.4-0.6,0.3-0.9
								c-0.1-0.6-0.6-1.1-1.6-1c-0.3,0-0.4,0-0.5-0.1c0,0-0.1-0.1-0.1-0.1c0-0.1,0.1-0.2,0.5-0.3c0.3,0,0.4-0.3,0.4-0.5
								c0-0.3-0.3-0.4-0.5-0.4c-1,0.1-1.4,0.7-1.3,1.3c0.1,0.6,0.6,1.1,1.6,1c0.3,0,0.4,0,0.5,0.1c0,0,0.1,0.1,0.1,0.1
								c0,0.1-0.1,0.2-0.5,0.3c-1,0.1-1.4,0.7-1.3,1.3c0.1,0.6,0.6,1.1,1.6,1c0.3,0,0.4,0,0.5,0.1c0,0,0.1,0.1,0.1,0.1
								c0,0.1-0.1,0.2-0.5,0.3c-0.3,0-0.4,0.3-0.4,0.5C47.2-133.2,47.3-133.1,47.4-133"/>
						</g>
						<g id="g44_64_" transform="translate(16.2661,1.0146)">
							<path id="path46_64_" fill="#77B255" d="M51.1-123.7c-0.9-0.3-1.6,0.2-1.7,0.7c-0.2,0.5,0.2,1.2,1.1,1.5
								c0.4,0.1,0.5,0.3,0.5,0.3c0,0.1-0.2,0.1-0.6,0c-0.9-0.3-1.6,0.2-1.7,0.7c-0.2,0.5,0.2,1.2,1.1,1.5c0.4,0.1,0.5,0.3,0.5,0.3
								c0,0.1-0.2,0.1-0.6,0c-0.3-0.1-0.5,0.1-0.6,0.3c-0.1,0.3,0.1,0.5,0.3,0.6c0.9,0.3,1.6-0.2,1.7-0.7c0.2-0.5-0.2-1.2-1.1-1.5
								c-0.4-0.1-0.5-0.3-0.5-0.3c0-0.1,0.2-0.1,0.6,0c0.9,0.3,1.6-0.2,1.7-0.7c0.2-0.5-0.2-1.2-1.1-1.5c-0.4-0.1-0.5-0.3-0.5-0.3
								c0-0.1,0.2-0.1,0.6,0c0.3,0.1,0.5-0.1,0.6-0.3C51.5-123.4,51.4-123.6,51.1-123.7"/>
						</g>
						<g id="g48_53_" transform="translate(2,9.5)">
							<path id="path50_53_" fill="#5C913B" d="M58.6-128.1c0,0.4,0.3,0.7,0.7,0.7c0.4,0,0.7-0.3,0.7-0.7c0-0.4-0.3-0.7-0.7-0.7
								C58.9-128.9,58.6-128.5,58.6-128.1"/>
						</g>
						<g id="g52_51_" transform="translate(6,6)">
							<path id="path54_49_" fill="#9266CC" d="M56.5-126.3c0,0.5,0.4,0.9,0.9,0.9c0.5,0,0.9-0.4,0.9-0.9c0-0.5-0.4-0.9-0.9-0.9
								C56.9-127.3,56.5-126.8,56.5-126.3"/>
						</g>
						<g id="g56_36_" transform="translate(29,10)">
							<path id="path58_36_" fill="#9266CC" d="M44.4-128.4c0,0.5,0.4,0.9,0.9,0.9c0.5,0,0.9-0.4,0.9-0.9c0-0.5-0.4-0.9-0.9-0.9
								C44.9-129.4,44.4-128.9,44.4-128.4"/>
						</g>
						<g id="g60_48_" transform="translate(25,5.5)">
							<path id="path62_41_" fill="#5C913B" d="M46.5-126c0,0.4,0.3,0.7,0.7,0.7c0.4,0,0.7-0.3,0.7-0.7s-0.3-0.7-0.7-0.7
								C46.9-126.8,46.5-126.4,46.5-126"/>
						</g>
						<g id="g64_24_" transform="translate(17,17.5)">
							<path id="path66_24_" fill="#5C913B" d="M50.7-132.3c0,0.4,0.3,0.7,0.7,0.7s0.7-0.3,0.7-0.7s-0.3-0.7-0.7-0.7
								S50.7-132.7,50.7-132.3"/>
						</g>
						<g id="g68_24_" transform="translate(6,14)">
							<path id="path70_24_" fill="#FFCC4D" d="M56.5-130.5c0,0.5,0.4,0.9,0.9,0.9c0.5,0,0.9-0.4,0.9-0.9c0-0.5-0.4-0.9-0.9-0.9
								C56.9-131.5,56.5-131,56.5-130.5"/>
						</g>
						<g id="g72_22_" transform="translate(27,20.5)">
							<path id="path74_22_" fill="#FFCC4D" d="M45.5-133.9c0,0.4,0.3,0.7,0.7,0.7c0.4,0,0.7-0.3,0.7-0.7s-0.3-0.7-0.7-0.7
								C45.8-134.6,45.5-134.3,45.5-133.9"/>
						</g>
						<g id="g76_20_" transform="translate(12,22.5)">
							<path id="path78_20_" fill="#FFCC4D" d="M53.4-135c0,0.4,0.3,0.7,0.7,0.7c0.4,0,0.7-0.3,0.7-0.7c0-0.4-0.3-0.7-0.7-0.7
								C53.7-135.7,53.4-135.4,53.4-135"/>
						</g>
					</g>
				</g>
			</g>
		</g>
		<g id="g10_22_" transform="matrix(1.25,0,0,-1.25,0,47.5)">
			<g id="g12_49_">
				<g>
					<defs>
						<rect id="SVGID_79_" x="77.3" y="-93.8" width="22.5" height="22.5"/>
					</defs>
					<clipPath id="SVGID_36_">
						<use xlink:href="#SVGID_79_"  overflow="visible"/>
					</clipPath>
					<g id="g14_49_" clip-path="url(#SVGID_36_)">
						<g id="g20_37_" transform="translate(12.9829,33.438)">
							<path id="path22_37_" fill="#FFAC33" d="M72.8-109.1c2.2,0.1,3.7-0.8,3.8-3.2c0.1-2-2.5-3.2-3.8-3.3c-1.2,0-0.6,0.9,0.3,1.1
								c0.7,0.2,2,1.1,1.7,2.1c-0.3,1.1-2,1.3-3-0.1c-0.4-0.6-1.7-0.4-1.9,0.2C69.4-111.2,70.4-109.2,72.8-109.1"/>
						</g>
						<g id="g24_28_" transform="translate(36.75,15.6162)">
							<path id="path26_28_" fill="#E1E8ED" d="M60.3-99.7c0,3.7-2.1,5.4-6.9,5.4c-0.5,0-1,0-1.4-0.1c-0.6,1.1-2.3,1.3-3.9,1.3
								c-2,0-4.7-2.9-4.7-5.1c0-2.2,1.7-2.3,3.7-2.3c0.1-1.5,0.6-2.7,1.5-3.4c0.1-0.5,0.7-2.7,1.9-2.7c0.6,0,1,0.8,1.2,1.6
								c0.5-0.1,1.1-0.1,1.8-0.1c0.8,0,1.6,0.1,2.2,0.2c0-0.8,0.3-1.7,1-1.7c1.1,0,2,2.4,2.3,3.1C59.8-102.7,60.3-101.4,60.3-99.7"
								/>
						</g>
						<g id="g28_37_" transform="translate(7,21.2139)">
							<path id="path30_28_" fill="#292F33" d="M75.9-102.7c0-0.4-0.3-0.7-0.7-0.7c-0.4,0-0.7,0.3-0.7,0.7c0,0.4,0.3,0.7,0.7,0.7
								C75.6-102,75.9-102.3,75.9-102.7"/>
						</g>
						<g id="g32_60_" transform="translate(18.5625,32.6611)">
							<path id="path34_19_" fill="#FFCC4D" d="M69.8-108.7c2-0.7,2.7-2,1.9-4.3c-0.6-1.9-3.5-2.1-4.8-1.6c-1.1,0.4-0.3,1.1,0.7,0.9
								c0.8-0.1,2.2,0.3,2.4,1.3c0.1,1.1-1.4,1.9-2.8,1c-0.6-0.4-2.7-0.2-2.6,0.5C64.9-109.4,67.6-107.9,69.8-108.7"/>
						</g>
					</g>
				</g>
			</g>
		</g>
		<g id="g10_153_" transform="matrix(1.25,0,0,-1.25,0,47.5)">
			<g id="g12_177_">
				<g>
					<defs>
						<rect id="SVGID_81_" x="140.3" y="-93.8" width="22.5" height="22.5"/>
					</defs>
					<clipPath id="SVGID_38_">
						<use xlink:href="#SVGID_81_"  overflow="visible"/>
					</clipPath>
					<g id="g14_179_" clip-path="url(#SVGID_38_)">
						<g id="g20_163_" transform="translate(36,19)">
							<path id="path22_163_" fill="#FDCB58" d="M123.7-101.5c0-4.5-3.6-8.1-8.1-8.1c-4.5,0-8.1,3.6-8.1,8.1c0,4.5,3.6,8.1,8.1,8.1
								C120.1-93.5,123.7-97.1,123.7-101.5"/>
						</g>
						<g id="g24_154_" transform="translate(7,24)">
							<path id="path26_154_" fill="#664500" d="M138.9-104.1c-0.3,0-0.5,0.2-0.5,0.5c0,0.3,0.2,0.5,0.5,0.5c0.1,0,1.7,0,2.9,1.7
								c0.2,0.2,0.5,0.3,0.7,0.1c0.2-0.2,0.3-0.5,0.1-0.7C141.1-104.1,139-104.1,138.9-104.1"/>
						</g>
						<g id="g28_112_" transform="translate(31,24)">
							<path id="path30_106_" fill="#664500" d="M126.3-104.1c-0.1,0-2.2,0-3.7,2.1c-0.2,0.2-0.1,0.5,0.1,0.7
								c0.2,0.2,0.5,0.1,0.7-0.1c1.3-1.7,2.9-1.7,2.9-1.7c0.3,0,0.5-0.2,0.5-0.5C126.8-103.9,126.6-104.1,126.3-104.1"/>
						</g>
						<g id="g32_88_" transform="translate(31.5996,16.7998)">
							<path id="path34_85_" fill="#664500" d="M126-100.4c-0.1,0-0.9,0.7-2.2,1.1c0,0.1,0,0.1,0,0.2c0,0.2-0.1,0.3-0.2,0.5
								c0.9,0.2,1.6,0.3,1.6,0.3c0.3,0,0.5,0.2,0.5,0.5c0,0.3-0.2,0.5-0.5,0.5c-0.1,0-2.6,0-4.1-1.6c-0.1-0.1-0.2-0.3-0.1-0.5
								c0.1-0.2,0.2-0.3,0.4-0.3c2.2,0,4-1.3,4-1.3c0.1-0.1,0.2-0.1,0.3-0.1c0.1,0,0.3,0.1,0.4,0.2
								C126.2-100.8,126.2-100.5,126-100.4"/>
						</g>
						<g id="g36_80_" transform="translate(16.707,19.707)">
							<path id="path38_80_" fill="#664500" d="M133.8-101.9c-1.5,1.5-4,1.6-4.1,1.6c-0.3,0-0.5-0.2-0.5-0.5c0-0.3,0.2-0.5,0.5-0.5
								c0,0,0.7,0,1.6-0.3c-0.1-0.1-0.2-0.3-0.2-0.5c0-0.1,0-0.1,0-0.2c-1.3-0.4-2.2-1.1-2.2-1.1c-0.2-0.2-0.3-0.5-0.1-0.7
								c0.1-0.1,0.2-0.2,0.4-0.2c0.1,0,0.2,0,0.3,0.1c0,0,1.8,1.3,4,1.3c0.2,0,0.4,0.1,0.4,0.3C134-102.2,133.9-102,133.8-101.9"/>
						</g>
						<g id="g40_82_" transform="translate(19,7)">
							<path id="path42_80_" fill="#664500" d="M132.6-95.2c-0.1,0-0.3,0.1-0.4,0.2l-1.5,1.9l-1.1-1.4c-0.1-0.1-0.2-0.2-0.3-0.2
								c-0.1,0-0.3,0-0.4,0.1l-0.5,0.5c-0.2,0.2-0.2,0.5,0,0.7c0.2,0.2,0.5,0.2,0.7,0l0.1-0.1l1.1,1.5c0.1,0.1,0.2,0.2,0.4,0.2
								c0.1,0,0.3-0.1,0.4-0.2l1.5-1.9l1.5,1.9c0.1,0.1,0.2,0.2,0.4,0.2c0.1,0,0.3-0.1,0.4-0.2l1.1-1.5l0.1,0.1
								c0.2,0.2,0.5,0.2,0.7,0c0.2-0.2,0.2-0.5,0-0.7l-0.5-0.5c-0.1-0.1-0.2-0.1-0.4-0.1c-0.1,0-0.3,0.1-0.3,0.2l-1.1,1.4L133-95
								C132.9-95.1,132.7-95.2,132.6-95.2"/>
						</g>
					</g>
				</g>
			</g>
		</g>
		<g id="g10_20_" transform="matrix(1.25,0,0,-1.25,0,47.5)">
			<g id="g12_47_">
				<g>
					<defs>
						<rect id="SVGID_83_" x="98.4" y="-93.8" width="22.3" height="22.3"/>
					</defs>
					<clipPath id="SVGID_40_">
						<use xlink:href="#SVGID_83_"  overflow="visible"/>
					</clipPath>
					<g id="g14_47_" clip-path="url(#SVGID_40_)">
						<g id="g20_35_" transform="translate(36.8848,25.1665)">
							<path id="path22_35_" fill="#BE1931" d="M81.1-104.9c0,2.6-2.1,4.6-4.6,4.6c-1.6,0-2.9-0.8-3.8-1.9c-0.8,1.2-2.2,1.9-3.8,1.9
								c-2.6,0-4.6-2.1-4.6-4.6c0-0.4,0-0.7,0.1-1.1c0.6-4,5.1-8.2,8.3-9.4c3.2,1.2,7.6,5.4,8.3,9.4
								C81.1-105.6,81.1-105.2,81.1-104.9"/>
						</g>
					</g>
				</g>
			</g>
		</g>
		<g id="g10_152_" transform="matrix(1.25,0,0,-1.25,0,47.5)">
			<g id="g12_176_">
				<g>
					<defs>
						<rect id="SVGID_85_" x="119.4" y="-93.8" width="22.4" height="22.4"/>
					</defs>
					<clipPath id="SVGID_42_">
						<use xlink:href="#SVGID_85_"  overflow="visible"/>
					</clipPath>
					<g id="g14_178_" clip-path="url(#SVGID_42_)">
						<g id="g20_162_" transform="translate(19,33)">
							<path id="path22_162_" fill="#F4900C" d="M111.6-109c3.4,0,6.1-1.9,6.9-0.9c0.1,0.2,0.1,0.3,0.1,0.5c0,0.9-3.2,2.4-7.1,2.4
								c-3.9,0-7.1-1.4-7.1-2.4c0-0.2,0-0.3,0.1-0.5C105.5-110.9,108.2-109,111.6-109"/>
						</g>
						<g id="g24_153_" transform="translate(19,34)">
							<path id="path26_153_" fill="#FFCC4D" d="M111.6-109.5c-2.9,0-5-0.9-5.8-1.2c-0.2-0.1-0.3-0.4-0.2-0.6c0.1-0.2,5-12.8,5-12.8
								s0.4-0.9,0.9-0.9c0.5,0,0.9,0.9,0.9,0.9l5,12.8c0,0,0.1,0.4-0.3,0.6C116.5-110.3,114.5-109.5,111.6-109.5"/>
						</g>
					</g>
				</g>
			</g>
			<g id="g28_111_">
				<g>
					<defs>
						<path id="SVGID_87_" d="M124.8-76.8c-0.2-0.1-0.3-0.4-0.2-0.6l0,0c0.1-0.2,5-12.8,5-12.8l0,0c0,0,0.5-0.9,0.9-0.9l0,0
							c0.5,0,0.9,0.9,0.9,0.9l0,0l5,12.8c0,0,0.1,0.4-0.3,0.6l0,0c-0.8,0.4-2.9,1.2-5.7,1.2l0,0C127.7-75.5,125.6-76.4,124.8-76.8"
							/>
					</defs>
					<clipPath id="SVGID_44_">
						<use xlink:href="#SVGID_87_"  overflow="visible"/>
					</clipPath>
					<g id="g30_3_" clip-path="url(#SVGID_44_)">
						<g id="g36_79_" transform="translate(19,6)">
							<path id="path38_79_" fill="#BE1931" d="M111.6-94.7c0-1-0.8-1.9-1.9-1.9s-1.9,0.8-1.9,1.9c0,1,0.8,1.9,1.9,1.9
								S111.6-93.7,111.6-94.7"/>
						</g>
						<g id="g40_81_" transform="translate(18,17)">
							<path id="path42_79_" fill="#BE1931" d="M112.1-100.5c0-1-0.8-1.9-1.9-1.9c-1,0-1.9,0.8-1.9,1.9c0,1,0.8,1.9,1.9,1.9
								C111.3-98.7,112.1-99.5,112.1-100.5"/>
						</g>
						<g id="g44_63_" transform="translate(21,29)">
							<path id="path46_63_" fill="#BE1931" d="M110.5-106.9c0-1-0.8-1.9-1.9-1.9c-1,0-1.9,0.8-1.9,1.9s0.8,1.9,1.9,1.9
								C109.7-105,110.5-105.9,110.5-106.9"/>
						</g>
						<g id="g48_52_" transform="translate(30,24)">
							<path id="path50_52_" fill="#BE1931" d="M105.8-104.2c0-1-0.8-1.9-1.9-1.9s-1.9,0.8-1.9,1.9c0,1,0.8,1.9,1.9,1.9
								S105.8-103.2,105.8-104.2"/>
						</g>
						<g id="g52_50_" transform="translate(28,12)">
							<path id="path54_48_" fill="#BE1931" d="M106.8-97.9c0-1-0.8-1.9-1.9-1.9s-1.9,0.8-1.9,1.9c0,1,0.8,1.9,1.9,1.9
								S106.8-96.9,106.8-97.9"/>
						</g>
						<g id="g56_35_" transform="translate(11,25)">
							<path id="path58_35_" fill="#BE1931" d="M115.8-104.8c0-1-0.8-1.9-1.9-1.9c-1,0-1.9,0.8-1.9,1.9c0,1,0.8,1.9,1.9,1.9
								C115-102.9,115.8-103.7,115.8-104.8"/>
						</g>
					</g>
				</g>
			</g>
		</g>
		<g id="g10_158_" transform="matrix(1.25,0,0,-1.25,0,47.5)">
			<g id="g12_182_">
				<g>
					<defs>
						<rect id="SVGID_89_" x="140.4" y="-125.4" width="22.4" height="22.4"/>
					</defs>
					<clipPath id="SVGID_46_">
						<use xlink:href="#SVGID_89_"  overflow="visible"/>
					</clipPath>
					<g id="g14_184_" clip-path="url(#SVGID_46_)">
						<g id="g20_172_" transform="translate(19,33)">
							<path id="path22_172_" fill="#F4900C" d="M132.5-140.6c3.4,0,6.1-1.9,6.9-0.9c0.1,0.2,0.1,0.3,0.1,0.5c0,0.9-3.2,2.4-7.1,2.4
								c-3.9,0-7.1-1.4-7.1-2.4c0-0.2,0-0.3,0.1-0.5C126.4-142.5,129.1-140.6,132.5-140.6"/>
						</g>
						<g id="g24_159_" transform="translate(19,34)">
							<path id="path26_159_" fill="#FFCC4D" d="M132.5-141.2c-2.9,0-5-0.9-5.8-1.2c-0.2-0.1-0.3-0.4-0.2-0.6c0.1-0.2,5-12.8,5-12.8
								s0.4-0.9,0.9-0.9c0.5,0,0.9,0.9,0.9,0.9l5,12.8c0,0,0.1,0.4-0.3,0.6C137.4-141.9,135.4-141.2,132.5-141.2"/>
						</g>
					</g>
				</g>
			</g>
			<g id="g28_117_">
				<g>
					<defs>
						<path id="SVGID_91_" d="M145.8-108.4c-0.2-0.1-0.3-0.4-0.2-0.6l0,0c0.1-0.2,5-12.8,5-12.8l0,0c0,0,0.5-0.9,0.9-0.9l0,0
							c0.5,0,0.9,0.9,0.9,0.9l0,0l5,12.8c0,0,0.1,0.4-0.3,0.6l0,0c-0.8,0.4-2.9,1.2-5.7,1.2l0,0C148.6-107.2,146.5-108,145.8-108.4"
							/>
					</defs>
					<clipPath id="SVGID_48_">
						<use xlink:href="#SVGID_91_"  overflow="visible"/>
					</clipPath>
					<g id="g30_4_" clip-path="url(#SVGID_48_)">
						<g id="g36_83_" transform="translate(19,6)">
							<path id="path38_83_" fill="#BE1931" d="M132.5-126.3c0-1-0.8-1.9-1.9-1.9c-1,0-1.9,0.8-1.9,1.9s0.8,1.9,1.9,1.9
								C131.7-124.4,132.5-125.3,132.5-126.3"/>
						</g>
						<g id="g40_84_" transform="translate(18,17)">
							<path id="path42_82_" fill="#BE1931" d="M133.1-132.2c0-1-0.8-1.9-1.9-1.9c-1,0-1.9,0.8-1.9,1.9c0,1,0.8,1.9,1.9,1.9
								C132.2-130.3,133.1-131.1,133.1-132.2"/>
						</g>
						<g id="g44_65_" transform="translate(21,29)">
							<path id="path46_65_" fill="#BE1931" d="M131.5-138.5c0-1-0.8-1.9-1.9-1.9c-1,0-1.9,0.8-1.9,1.9c0,1,0.8,1.9,1.9,1.9
								C130.6-136.6,131.5-137.5,131.5-138.5"/>
						</g>
						<g id="g48_54_" transform="translate(30,24)">
							<path id="path50_54_" fill="#BE1931" d="M126.7-135.9c0-1-0.8-1.9-1.9-1.9s-1.9,0.8-1.9,1.9c0,1,0.8,1.9,1.9,1.9
								S126.7-134.8,126.7-135.9"/>
						</g>
						<g id="g52_52_" transform="translate(28,12)">
							<path id="path54_50_" fill="#BE1931" d="M127.8-129.5c0-1-0.8-1.9-1.9-1.9s-1.9,0.8-1.9,1.9c0,1,0.8,1.9,1.9,1.9
								S127.8-128.5,127.8-129.5"/>
						</g>
						<g id="g56_37_" transform="translate(11,25)">
							<path id="path58_37_" fill="#BE1931" d="M136.8-136.4c0-1-0.8-1.9-1.9-1.9c-1,0-1.9,0.8-1.9,1.9c0,1,0.8,1.9,1.9,1.9
								C135.9-134.5,136.8-135.3,136.8-136.4"/>
						</g>
					</g>
				</g>
			</g>
		</g>
	</g>
</g>
<g id="top">
</g>
<g id="tap">
</g>
</svg>
