<?xml version="1.0" encoding="utf-8"?>
<!-- Generator: Adobe Illustrator 18.0.0, SVG Export Plug-In . SVG Version: 6.00 Build 0)  -->
<!DOCTYPE svg PUBLIC "-//W3C//DTD SVG 1.1//EN" "http://www.w3.org/Graphics/SVG/1.1/DTD/svg11.dtd">
<svg version="1.1" xmlns="http://www.w3.org/2000/svg" xmlns:xlink="http://www.w3.org/1999/xlink" x="0px" y="0px"
	 viewBox="0 0 315 560.1" enable-background="new 0 0 315 560.1" xml:space="preserve">
<g id="back">
</g>
<g id="notes">
</g>
<g id="input">
</g>
<g id="landing_pages">
</g>
<g id="onboarding">
	<g>
		<polyline fill="#283344" points="0.5,560.1 0.5,0.1 314.6,0.1 314.6,560.1 		"/>
		<rect x="0" y="0" fill="#FFFFFF" width="315" height="42"/>
		<g>
			<g>
				<path fill="#005189" d="M105.7,22.9l4.7,7.3h-3.3l-4.2-6.9h-1.8v6.9h-2.8V13.4h4.6c4.3,0,6.5,1.6,6.5,4.8
					C109.4,20.7,107.8,22.2,105.7,22.9z M103.1,15.5h-2v5.7h2.1c2.1,0,3.3-0.8,3.3-2.9C106.5,16.3,105.4,15.5,103.1,15.5z"/>
			</g>
			<g>
				<path fill="#005189" d="M134.8,24.2h-2v5.9H130V13.4h4.6c4.2,0,6.7,1.7,6.7,5.2C141.3,22.6,138.6,24.2,134.8,24.2z M134.8,15.5
					h-2V22h2.1c2.1,0,3.6-0.8,3.6-3.4C138.4,16.4,136.9,15.5,134.8,15.5z"/>
			</g>
			<g>
				<path fill="#005189" d="M152.1,30.1h-2.8V15.7h-5v-2.3h12.9l-0.3,2.3h-4.8V30.1z"/>
			</g>
			<g>
				<path fill="#005189" d="M179.1,13.4h2.8v14.3h7.5l-0.3,2.3h-10V13.4z"/>
			</g>
			<g>
				<path fill="#005189" d="M219,24.1c0,3.2-1.7,6-6.1,6c-1.8,0-3.4-0.6-4.7-1.5l1.1-1.8c1.3,0.8,2.4,1.1,3.5,1.1
					c2.1,0,3.4-1.4,3.4-3.9v-8.8h-5v-2.2h7.8V24.1z"/>
			</g>
			<g>
				<path fill="#005189" d="M120.7,30.1h-2.8v-6.4l-5.6-10.3h3.1l3.9,7.9l4-7.9h3l-5.6,10.3V30.1z"/>
			</g>
			<g>
				<path fill="#5C913B" d="M94.1,26.4l-4.7-4.8l4.8-4.7l0.6-0.6l0.7-0.7c-0.4-0.4-0.8-0.7-1.2-1c-3.9-2.7-9.2-1.7-11.8,2.1
					c-2.7,3.9-1.7,9.2,2.1,11.8c3.4,2.4,8,1.9,10.8-0.9L94.6,27L94.1,26.4z"/>
				<path fill="#FFE8B6" d="M89.3,21.6l4.8-4.7l0.6-0.6c-0.3-0.3-0.7-0.6-1.1-0.9c-3.4-2.4-8.2-1.5-10.5,1.9
					c-2.4,3.4-1.5,8.2,1.9,10.5c3,2.1,7.1,1.7,9.6-0.8l-0.6-0.6L89.3,21.6z"/>
				<g>
					<g>
						<path fill="#DD2E44" d="M94.1,16.9c-0.3-0.3-0.6-0.6-0.9-0.8c-3.1-2.1-7.3-1.4-9.4,1.7c-2.1,3.1-1.4,7.3,1.7,9.4
							c2.7,1.9,6.3,1.5,8.6-0.7l-4.7-4.8L94.1,16.9z"/>
					</g>
					<g>
						<g id="watermelon_c_16_" transform="matrix(1.25,0,0,-1.25,0,47.5)">
							<g id="g12_160_">
								<g>
									<g id="g14_160_">
										<g id="g32_75_" transform="translate(10.916,22.7227)">
											<path id="path34_70_" d="M57.5-0.3c-0.2-0.1-0.4-0.1-0.4,0c0,0.1,0.1,0.2,0.3,0.3c0.2,0.1,0.4,0.1,0.4,0
												C57.8,0,57.7-0.2,57.5-0.3"/>
										</g>
										<g id="g36_62_" transform="translate(16.916,21.7227)">
											<path id="path38_62_" d="M53.2-0.9c-0.2-0.1-0.4-0.1-0.4,0c0,0.1,0.1,0.2,0.3,0.3c0.2,0.1,0.4,0.1,0.4,0
												C53.5-0.7,53.4-0.8,53.2-0.9"/>
										</g>
										<g id="g40_66_" transform="translate(21.998,17.0449)">
											<path id="path42_65_" d="M48.7,1.2C48.6,1,48.4,0.9,48.3,1c-0.1,0.1-0.1,0.2,0,0.4c0.1,0.2,0.3,0.3,0.4,0.2
												C48.8,1.6,48.8,1.4,48.7,1.2"/>
										</g>
										<g id="g44_50_" transform="translate(12.998,19.0449)">
											<path id="path46_50_" d="M55.3,1.8c-0.1-0.2-0.3-0.3-0.4-0.2c-0.1,0.1-0.1,0.2,0,0.4c0.1,0.2,0.3,0.3,0.4,0.2
												C55.4,2.2,55.4,2,55.3,1.8"/>
										</g>
										<g id="g48_43_" transform="translate(16.8994,13.6992)">
											<path id="path50_43_" d="M51.4,4.6c-0.2-0.1-0.4,0-0.4,0.1c0,0.1,0.1,0.2,0.3,0.3c0.2,0.1,0.4,0,0.4-0.1
												C51.8,4.8,51.6,4.7,51.4,4.6"/>
										</g>
										<g id="g52_45_" transform="translate(24.9355,13.2451)">
											<path id="path54_44_" d="M45.8,3.2c0-0.2-0.1-0.4-0.2-0.4c-0.1,0-0.2,0.2-0.2,0.4c0,0.2,0.1,0.4,0.2,0.4
												C45.8,3.6,45.8,3.4,45.8,3.2"/>
										</g>
										<g id="g56_32_" transform="translate(17.918,18.2734)">
											<path id="path58_32_" d="M51.7,1.3c0-0.2-0.1-0.4-0.2-0.4c-0.1,0-0.2,0.2-0.2,0.4c0,0.2,0.1,0.4,0.2,0.4
												C51.7,1.7,51.7,1.5,51.7,1.3"/>
										</g>
										<g id="g60_44_" transform="translate(26.8994,16.6992)">
											<path id="path62_37_" d="M45.2,0.4c-0.2-0.1-0.4,0-0.4,0.1s0.1,0.2,0.3,0.3c0.2,0.1,0.4,0,0.4-0.1
												C45.6,0.6,45.4,0.4,45.2,0.4"/>
										</g>
									</g>
								</g>
							</g>
						</g>
						<g id="watermelon_c_15_" transform="matrix(1.25,0,0,-1.25,0,47.5)">
							<g id="g12_159_">
								<g>
									<g id="g14_159_">
										<g id="g40_65_" transform="translate(21.998,17.0449)">
											<path id="path42_64_" d="M50.1,5.7C50.2,5.9,50.4,6,50.5,6c0.1-0.1,0.1-0.2,0-0.4c-0.1-0.2-0.3-0.3-0.4-0.2
												C50,5.4,50,5.6,50.1,5.7"/>
										</g>
										<g id="g52_44_" transform="translate(24.9355,13.2451)">
											<path id="path54_43_" d="M47.1,11.4c0,0.2,0.1,0.4,0.2,0.4c0.1,0,0.2-0.2,0.2-0.4c0-0.2-0.1-0.4-0.2-0.4
												C47.1,11,47.1,11.2,47.1,11.4"/>
										</g>
										<g id="g60_43_" transform="translate(26.8994,16.6992)">
											<path id="path62_36_" d="M43.8,7.3c0.2,0.1,0.4,0,0.4-0.1c0-0.1-0.1-0.2-0.3-0.3c-0.2-0.1-0.4,0-0.4,0.1
												C43.4,7.1,43.6,7.2,43.8,7.3"/>
										</g>
									</g>
								</g>
							</g>
						</g>
					</g>
				</g>
			</g>
			<g id="g12_158_">
				<g>
					<g id="g14_158_">
						<g id="g20_149_" transform="translate(3.9995,17.5)">
							<path id="path22_149_" fill="#F4900C" d="M156,4.7c0-4.3,3.5-7.8,7.8-7.8s7.8,3.5,7.8,7.8c0,4.3-3.5,7.8-7.8,7.8
								S156,9.1,156,4.7"/>
						</g>
						<g id="g24_139_" transform="translate(12.4136,29.4146)">
							<path id="path26_139_" fill="#662113" d="M151.6-12.8c-0.1-0.1-0.4-0.1-0.6,0.1c-1.6-1.3-4.1-1.7-4.2-1.8
								c-0.3,0-0.5,0.1-0.5,0.4c0,0.3,0.1,0.5,0.4,0.5c0,0,2.3,0.4,3.7,1.5c-0.1,0.2-0.2,0.5,0,0.6c0.2,0.2,0.6,0,1-0.3
								S151.8-12.6,151.6-12.8"/>
						</g>
						<g id="g28_101_" transform="translate(22,36.0005)">
							<path id="path30_92_" fill="#5C913B" d="M146.5-22.5c0,0-1.5,2-3.3,2.5c-1.4,0.3-3.3,0.4-3.5-0.1c-0.2-0.4,0.7-1.9,2.4-2.6
								C143.7-23.3,146.5-22.5,146.5-22.5"/>
						</g>
					</g>
				</g>
			</g>
			<g id="orange_o_7_" transform="matrix(1.25,0,0,-1.25,0,47.5)">
				<g id="g12_157_">
					<g>
						<g id="g14_157_">
							<g id="g20_148_" transform="translate(3.9995,17.5)">
								<path id="path22_148_" fill="#F4900C" d="M149,2.7c0,3.5,2.8,6.3,6.3,6.3s6.3-2.8,6.3-6.3c0-3.5-2.8-6.3-6.3-6.3
									S149-0.8,149,2.7"/>
							</g>
							<g id="g24_138_" transform="translate(12.4136,29.4146)">
								<path id="path26_138_" fill="#662113" d="M143.8-4.7c-0.1,0.1-0.3,0.1-0.5,0c-1.3,1-3.3,1.4-3.4,1.4c-0.2,0-0.4-0.1-0.4-0.3
									c0-0.2,0.1-0.4,0.3-0.4c0,0,1.9-0.3,3-1.2c-0.1-0.2-0.1-0.4,0-0.5c0.1-0.1,0.5,0,0.8,0.3S143.9-4.8,143.8-4.7"/>
							</g>
							<g id="g28_100_" transform="translate(22,36.0005)">
								<path id="path30_91_" fill="#5C913B" d="M137.8-8.8c0,0-1.2-1.6-2.7-2c-1.1-0.3-2.6-0.3-2.8,0c-0.1,0.3,0.6,1.5,1.9,2
									C135.5-8.1,137.8-8.8,137.8-8.8"/>
							</g>
						</g>
					</g>
				</g>
			</g>
			<g id="g10_135_" transform="matrix(1.25,0,0,-1.25,0,47.5)">
				<g id="g12_156_">
					<g>
						<g id="g14_156_">
							<g id="g20_147_" transform="translate(25,31)">
								<path id="path22_147_" fill="#CCD6DD" d="M159.1-5.8c0-1.3-1-2.3-2.3-2.3c-1.3,0-2.3,1-2.3,2.3c0,1.3,1,2.3,2.3,2.3
									C158.1-3.5,159.1-4.5,159.1-5.8"/>
							</g>
							<path id="path24_8_" fill="#CCD6DD" d="M184.5,15h-5.3V23h5.3V15z"/>
						</g>
					</g>
				</g>
				<g id="g26_8_">
					<g>
						<defs>
							<rect id="SVGID_133_" x="178.5" y="14" width="6.6" height="9.9"/>
						</defs>
						<clipPath id="SVGID_2_">
							<use xlink:href="#SVGID_133_"  overflow="visible"/>
						</clipPath>
						<g id="g28_99_" clip-path="url(#SVGID_2_)">
							<g id="g34_12_" transform="translate(34.1914,15.4902)">
								<path id="path36_8_" fill="#DD2E44" d="M153.4,3.9l-8.8,4.3l0.7,1.4l8.8-4.3L153.4,3.9z"/>
							</g>
							<g id="g38_8_" transform="translate(27.1758,1.1094)">
								<path id="path40_8_" fill="#DD2E44" d="M157.7,12.8l-8.8,4.3l0.7,1.4l8.8-4.3L157.7,12.8z"/>
							</g>
							<g id="g42_5_" transform="translate(32.4375,11.8945)">
								<path id="path44_8_" fill="#FFFFFF" d="M154.5,6.1l-8.8,4.3l0.7,1.4l8.8-4.3L154.5,6.1z"/>
							</g>
							<g id="g46_8_" transform="translate(28.9297,4.7051)">
								<path id="path48_8_" fill="#FFFFFF" d="M156.7,10.6l-8.8,4.3l0.7,1.4l8.8-4.3L156.7,10.6z"/>
							</g>
							<g id="g50_8_" transform="translate(25.4219,-2.4854)">
								<path id="path52_8_" fill="#FFFFFF" d="M158.8,15.1l-8.8,4.3l0.7,1.4l8.8-4.3L158.8,15.1z"/>
							</g>
							<g id="g54_5_" transform="translate(30.6836,8.2998)">
								<path id="path56_8_" fill="#55ACEE" d="M155.6,8.4l-8.8,4.3l0.7,1.4l8.8-4.3L155.6,8.4z"/>
							</g>
						</g>
					</g>
				</g>
				<g id="g58_8_">
					<g>
						<g id="g60_42_">
							<g id="g66_8_" transform="translate(28,26)">
								<path id="path68_8_" fill="#99AAB5" d="M157.2-2.7c0-0.4-0.3-0.8-0.8-0.8h-5.3c-0.4,0-0.8,0.3-0.8,0.8s0.3,0.8,0.8,0.8h5.3
									C156.9-1.9,157.2-2.2,157.2-2.7"/>
							</g>
							<g id="g70_8_" transform="translate(28,3)">
								<path id="path72_8_" fill="#99AAB5" d="M157.2,11.7c0-0.4-0.3-0.8-0.8-0.8h-5.3c-0.4,0-0.8,0.3-0.8,0.8s0.3,0.8,0.8,0.8h5.3
									C156.9,12.4,157.2,12.1,157.2,11.7"/>
							</g>
						</g>
					</g>
				</g>
			</g>
		</g>
		<g>
			<path fill="#FFFFFF" d="M47.4,423.1h-4v-13.8h3.8c2.6,0,5,0.8,5,3.5c0,1.7-1.2,2.7-2.6,3c1.5,0.3,3.2,1.1,3.2,3.3
				C52.7,422.2,50.1,423.1,47.4,423.1z M47.3,411h-1.7v4h1.8c1.5,0,2.3-0.6,2.3-2C49.8,411.6,48.9,411,47.3,411z M47.6,416.8h-2v4.5
				h1.9c1.3,0,2.8-0.3,2.8-2.2C50.3,417.3,49.1,416.8,47.6,416.8z"/>
			<path fill="#FFFFFF" d="M59.3,415.2h5v1.7h-5v4.4h6.1v1.8H57v-13.8h8.3l-0.3,1.8h-5.7V415.2z"/>
			<path fill="#FFFFFF" d="M79,410.4l-1.2,1.4c-0.8-0.7-1.8-1-2.9-1c-2.1,0-3.8,1.4-3.8,5.3c0,3.8,1.6,5.3,3.8,5.3
				c1.5,0,2.4-0.6,3.1-1.2l1.1,1.4c-0.9,0.9-2.3,1.6-4.3,1.6c-3.5,0-6.2-2.5-6.2-7.2c0-4.6,2.8-7.2,6.1-7.2
				C76.7,409,77.9,409.5,79,410.4z"/>
			<path fill="#FFFFFF" d="M84.2,419.8l-1,3.3h-2.4l4.4-13.8h2.9l4.4,13.8h-2.5l-1-3.3H84.2z M88.6,418l-2-6.9l-2,6.9H88.6z"/>
			<path fill="#FFFFFF" d="M104.5,418.6c0,2.8-1.8,4.8-4.8,4.8c-3.1,0-4.8-1.9-4.8-4.8v-9.3h2.3v8.8c0,2.3,0.7,3.4,2.4,3.4
				c1.7,0,2.5-1.1,2.5-3.4v-8.8h2.3V418.6z"/>
			<path fill="#FFFFFF" d="M112.4,423.4c-2.2,0-3.9-0.7-5.1-1.8l1.3-1.4c1,0.9,2.2,1.4,3.8,1.4c1.6,0,2.9-0.7,2.9-2.2
				c0-1.2-0.6-1.8-2.8-2.5c-2.9-0.9-4.5-2-4.5-4.1c0-2.3,2-3.7,4.7-3.7c2,0,3.4,0.6,4.6,1.7l-1.2,1.4c-1-0.8-2.1-1.2-3.3-1.2
				c-1.4,0-2.5,0.6-2.5,1.8c0,1.1,0.8,1.6,3.2,2.3c2.3,0.7,4.1,1.7,4.1,4.3C117.7,421.7,115.7,423.4,112.4,423.4z"/>
			<path fill="#FFFFFF" d="M124.3,415.2h5v1.7h-5v4.4h6.1v1.8H122v-13.8h8.3l-0.3,1.8h-5.7V415.2z"/>
			<path fill="#FFFFFF" d="M152.9,423.1h-2.3v-5.3l-4.6-8.5h2.6l3.3,6.5l3.3-6.5h2.4l-4.6,8.5V423.1z"/>
			<path fill="#FFFFFF" d="M164.7,423.4c-3.5,0-5.2-2.8-5.2-7.1c0-4.3,1.8-7.2,5.2-7.2c3.5,0,5.2,2.8,5.2,7.2
				C169.9,420.5,168.2,423.4,164.7,423.4z M164.7,410.8c-2,0-2.9,1.8-2.9,5.4c0,3.6,0.9,5.3,2.9,5.3c2,0,2.9-1.8,2.9-5.4
				S166.7,410.8,164.7,410.8z"/>
			<path fill="#FFFFFF" d="M182.5,418.6c0,2.8-1.8,4.8-4.8,4.8c-3.1,0-4.8-1.9-4.8-4.8v-9.3h2.3v8.8c0,2.3,0.7,3.4,2.4,3.4
				c1.7,0,2.5-1.1,2.5-3.4v-8.8h2.3V418.6z"/>
			<path fill="#FFFFFF" d="M202.5,423.1h-3.4v-13.8h3.2c3.4,0,6.6,1.1,6.6,6.8C208.9,421.9,205.6,423.1,202.5,423.1z M202.7,411.1
				h-1.3v10.3h1.3c1.9,0,3.7-1,3.7-5.2C206.5,411.7,204.6,411.1,202.7,411.1z"/>
			<path fill="#FFFFFF" d="M215.3,415.2h5v1.7h-5v4.4h6.1v1.8H213v-13.8h8.3l-0.3,1.8h-5.7V415.2z"/>
			<path fill="#FFFFFF" d="M235,410.4l-1.2,1.4c-0.8-0.7-1.8-1-2.9-1c-2.1,0-3.8,1.4-3.8,5.3c0,3.8,1.6,5.3,3.8,5.3
				c1.5,0,2.4-0.6,3.1-1.2l1.1,1.4c-0.9,0.9-2.3,1.6-4.3,1.6c-3.5,0-6.2-2.5-6.2-7.2c0-4.6,2.8-7.2,6.1-7.2
				C232.7,409,233.9,409.5,235,410.4z"/>
			<path fill="#FFFFFF" d="M246.9,411.1h-3v10.3h3v1.8h-8.3v-1.8h3v-10.3h-3v-1.8h8.3V411.1z"/>
			<path fill="#FFFFFF" d="M254.5,423.1h-3.4v-13.8h3.2c3.4,0,6.6,1.1,6.6,6.8C260.9,421.9,257.6,423.1,254.5,423.1z M254.7,411.1
				h-1.3v10.3h1.3c1.9,0,3.7-1,3.7-5.2C258.5,411.7,256.6,411.1,254.7,411.1z"/>
			<path fill="#FFFFFF" d="M267.3,415.2h5v1.7h-5v4.4h6.1v1.8H265v-13.8h8.3l-0.3,1.8h-5.7V415.2z"/>
			<path fill="#FFFFFF" d="M32.3,447.1h-2.7l-1.4-10.2l-1.4,10.2H24l-1.8-13.8h2.2l1.1,11.6l1.5-10h2.4l1.4,10l1.3-11.6h2.1
				L32.3,447.1z"/>
			<path fill="#FFFFFF" d="M43.5,440.8h-4.5v6.3h-2.3v-13.8h2.3v5.6h4.5v-5.6h2.3v13.8h-2.3V440.8z"/>
			<path fill="#FFFFFF" d="M54.2,447.4c-3.5,0-5.2-2.8-5.2-7.1c0-4.3,1.8-7.2,5.2-7.2c3.5,0,5.2,2.8,5.2,7.2
				C59.4,444.5,57.7,447.4,54.2,447.4z M54.2,434.8c-2,0-2.9,1.8-2.9,5.4c0,3.6,0.9,5.3,2.9,5.3c2,0,2.9-1.8,2.9-5.4
				S56.2,434.8,54.2,434.8z"/>
			<path fill="#FFFFFF" d="M84.3,447.1h-2.7l-1.4-10.2l-1.4,10.2H76l-1.8-13.8h2.2l1.1,11.6l1.5-10h2.4l1.4,10l1.3-11.6h2.1
				L84.3,447.1z"/>
			<path fill="#FFFFFF" d="M97.4,435.1h-3v10.3h3v1.8H89v-1.8h3v-10.3h-3v-1.8h8.3V435.1z"/>
			<path fill="#FFFFFF" d="M102.6,433.3h2.3v11.9h6.2l-0.3,1.9h-8.2V433.3z"/>
			<path fill="#FFFFFF" d="M115.6,433.3h2.3v11.9h6.2l-0.3,1.9h-8.2V433.3z"/>
			<path fill="#FFFFFF" d="M147.5,440.8h-4.5v6.3h-2.3v-13.8h2.3v5.6h4.5v-5.6h2.3v13.8h-2.3V440.8z"/>
			<path fill="#FFFFFF" d="M155.7,443.8l-1,3.3h-2.4l4.4-13.8h2.9l4.4,13.8h-2.5l-1-3.3H155.7z M160.1,442l-2-6.9l-2,6.9H160.1z"/>
			<path fill="#FFFFFF" d="M174.5,433.3h2.4l-4.4,13.8h-2.6l-4.4-13.8h2.5l3.3,11.6L174.5,433.3z"/>
			<path fill="#FFFFFF" d="M182.8,439.2h5v1.7h-5v4.4h6.1v1.8h-8.4v-13.8h8.3l-0.3,1.8h-5.7V439.2z"/>
			<path fill="#FFFFFF" d="M211.3,447.1H209v-11.9h-4.2v-1.9h10.7l-0.2,1.9h-4V447.1z"/>
			<path fill="#FFFFFF" d="M225.5,440.8h-4.5v6.3h-2.3v-13.8h2.3v5.6h4.5v-5.6h2.3v13.8h-2.3V440.8z"/>
			<path fill="#FFFFFF" d="M234.8,439.2h5v1.7h-5v4.4h6.1v1.8h-8.4v-13.8h8.3l-0.3,1.8h-5.7V439.2z"/>
			<path fill="#FFFFFF" d="M258,447.1v-13.8h2.3v13.8H258z M265.2,433.3h2.6l-4.8,6.3l5.2,7.5h-2.8l-4.9-7.4L265.2,433.3z"/>
			<path fill="#FFFFFF" d="M273.8,439.2h5v1.7h-5v4.4h6.1v1.8h-8.4v-13.8h8.3l-0.3,1.8h-5.7V439.2z"/>
			<path fill="#FFFFFF" d="M289.4,447.1H287v-5.3l-4.6-8.5h2.6l3.3,6.5l3.3-6.5h2.4l-4.6,8.5V447.1z"/>
			<path fill="#FFFFFF" d="M87.8,471.1h-2.3v-11.9h-4.2v-1.9h10.7l-0.2,1.9h-4V471.1z"/>
			<path fill="#FFFFFF" d="M99.7,471.4c-3.5,0-5.2-2.8-5.2-7.1c0-4.3,1.8-7.2,5.2-7.2c3.5,0,5.2,2.8,5.2,7.2
				C104.9,468.5,103.2,471.4,99.7,471.4z M99.7,458.8c-2,0-2.9,1.8-2.9,5.4c0,3.6,0.9,5.3,2.9,5.3c2,0,2.9-1.8,2.9-5.4
				S101.7,458.8,99.7,458.8z"/>
			<path fill="#FFFFFF" d="M130.5,466.6c0,2.8-1.8,4.8-4.8,4.8c-3.1,0-4.8-1.9-4.8-4.8v-9.3h2.3v8.8c0,2.3,0.7,3.4,2.4,3.4
				c1.7,0,2.5-1.1,2.5-3.4v-8.8h2.3V466.6z"/>
			<path fill="#FFFFFF" d="M135.9,459.4c0.1,0.8,0.3,3.2,0.3,5.5v6.3h-2.1v-13.8h3l4.4,11.7c-0.1-0.8-0.3-3-0.3-5.5v-6.3h2.1v13.8
				h-3L135.9,459.4z"/>
			<path fill="#FFFFFF" d="M148.1,457.3h2.3v11.9h6.2l-0.3,1.9h-8.2V457.3z"/>
			<path fill="#FFFFFF" d="M164.7,471.4c-3.5,0-5.2-2.8-5.2-7.1c0-4.3,1.8-7.2,5.2-7.2c3.5,0,5.2,2.8,5.2,7.2
				C169.9,468.5,168.2,471.4,164.7,471.4z M164.7,458.8c-2,0-2.9,1.8-2.9,5.4c0,3.6,0.9,5.3,2.9,5.3c2,0,2.9-1.8,2.9-5.4
				S166.7,458.8,164.7,458.8z"/>
			<path fill="#FFFFFF" d="M183,458.4l-1.2,1.4c-0.8-0.7-1.8-1-2.9-1c-2.1,0-3.8,1.4-3.8,5.3c0,3.8,1.6,5.3,3.8,5.3
				c1.5,0,2.4-0.6,3.1-1.2l1.1,1.4c-0.9,0.9-2.3,1.6-4.3,1.6c-3.5,0-6.2-2.5-6.2-7.2c0-4.6,2.8-7.2,6.1-7.2
				C180.7,457,181.9,457.5,183,458.4z"/>
			<path fill="#FFFFFF" d="M186.5,471.1v-13.8h2.3v13.8H186.5z M193.7,457.3h2.6l-4.8,6.3l5.2,7.5h-2.8l-4.9-7.4L193.7,457.3z"/>
			<path fill="#FFFFFF" d="M220.9,459.1h-3v10.3h3v1.8h-8.3v-1.8h3v-10.3h-3v-1.8h8.3V459.1z"/>
			<path fill="#FFFFFF" d="M230.8,471.1h-2.3v-11.9h-4.2v-1.9h10.7l-0.2,1.9h-4V471.1z"/>
		</g>
		<g opacity="0.2">
			<circle fill="#FFFFFF" cx="118.2" cy="506.9" r="6.8"/>
		</g>
		<g opacity="0.2">
			<circle fill="#FFFFFF" cx="92.2" cy="506.9" r="6.8"/>
		</g>
		<g opacity="0.2">
			<circle fill="#FFFFFF" cx="144.8" cy="506.9" r="6.8"/>
		</g>
		<g opacity="0.2">
			<circle fill="#FFFFFF" cx="171.3" cy="506.9" r="6.8"/>
		</g>
		<g opacity="0.2">
			<circle fill="#FFFFFF" cx="197.6" cy="506.9" r="6.8"/>
		</g>
		<g opacity="0.2">
			<circle fill="#FFFFFF" cx="224.6" cy="506.9" r="6.8"/>
		</g>
		<path fill="#E5E5E5" d="M107.8,190.2H41.3c-6.6,0-12-5.4-12-12v-34.4c0-6.6,5.4-12,12-12h66.5c6.6,0,12,5.4,12,12v34.4
			C119.8,184.8,114.4,190.2,107.8,190.2z"/>
		<g>
			<path d="M66.9,153.6c0,5.4-6.2,4.7-6.2,9.7v1.2h-2.9v-1.3c0-5.5,6-5.5,6-9.3c0-1.9-1.7-3.1-4-3.1c-1.6,0-3.4,0.8-4.8,2.5l-2-1.5
				c2-2.3,4.4-3.4,7.1-3.4C64.4,148.4,66.9,151,66.9,153.6z M61.7,170.3c0,1.3-1,2.3-2.3,2.3c-1.3,0-2.3-1-2.3-2.3
				c0-1.3,1-2.3,2.3-2.3C60.8,168,61.7,169,61.7,170.3z"/>
			<path d="M93.3,153.6c0,5.4-6.2,4.7-6.2,9.7v1.2h-2.9v-1.3c0-5.5,6-5.5,6-9.3c0-1.9-1.7-3.1-4-3.1c-1.6,0-3.4,0.8-4.8,2.5l-2-1.5
				c2-2.3,4.4-3.4,7.1-3.4C90.7,148.4,93.3,151,93.3,153.6z M88.1,170.3c0,1.3-1,2.3-2.3,2.3c-1.3,0-2.3-1-2.3-2.3
				c0-1.3,1-2.3,2.3-2.3C87.1,168,88.1,169,88.1,170.3z"/>
		</g>
		<polygon fill="#E5E5E5" points="50.9,190.1 10.5,190.1 50.9,163.4 		"/>
		<path fill="#E5E5E5" d="M167.2,336.2H41.3c-6.6,0-12-5.4-12-12v-34.4c0-6.6,5.4-12,12-12h125.9c6.6,0,12,5.4,12,12v34.4
			C179.2,330.8,173.8,336.2,167.2,336.2z"/>
		<g opacity="0.5">
			<path fill="#FFFFFF" d="M244,261.7c0,2.8-1.7,3.5-3.4,3.5h-1.9v-6.9h1.7C242.3,258.2,244,258.8,244,261.7z M240.1,259.2v4.9h0.6
				c1,0,1.9-0.5,1.9-2.5c0-2.1-0.9-2.4-1.9-2.4H240.1z"/>
			<path fill="#FFFFFF" d="M250,262.9h-3.3c0.1,1.1,0.6,1.4,1.3,1.4c0.5,0,0.9-0.1,1.3-0.5l0.5,0.7c-0.5,0.4-1.2,0.7-2,0.7
				c-1.6,0-2.5-1.1-2.5-2.8c0-1.6,0.8-2.8,2.3-2.8c1.5,0,2.3,1,2.3,2.7C250.1,262.6,250,262.8,250,262.9z M248.8,262
				c0-0.9-0.3-1.4-1-1.4c-0.6,0-1,0.4-1,1.4L248.8,262L248.8,262z"/>
			<path fill="#FFFFFF" d="M251.7,263.9v-6.2l1.3-0.1v6.3c0,0.2,0.1,0.4,0.3,0.4c0.1,0,0.2,0,0.3,0l0.3,0.9
				c-0.2,0.1-0.5,0.2-0.8,0.2C252.2,265.3,251.7,264.8,251.7,263.9z"/>
			<path fill="#FFFFFF" d="M256.6,258c0,0.4-0.3,0.8-0.8,0.8c-0.5,0-0.8-0.3-0.8-0.8c0-0.4,0.3-0.8,0.8-0.8
				C256.3,257.2,256.6,257.5,256.6,258z M256.5,265.2h-1.3v-5.3h1.3V265.2z"/>
			<path fill="#FFFFFF" d="M261,265.2h-1.5l-1.7-5.3h1.4l1.1,4.3l1.2-4.3h1.3L261,265.2z"/>
			<path fill="#FFFFFF" d="M268.3,262.9h-3.3c0.1,1.1,0.6,1.4,1.3,1.4c0.5,0,0.9-0.1,1.3-0.5l0.5,0.7c-0.5,0.4-1.2,0.7-2,0.7
				c-1.6,0-2.5-1.1-2.5-2.8c0-1.6,0.8-2.8,2.3-2.8c1.5,0,2.3,1,2.3,2.7C268.3,262.6,268.3,262.8,268.3,262.9z M267,262
				c0-0.9-0.3-1.4-1-1.4c-0.6,0-1,0.4-1,1.4L267,262L267,262z"/>
			<path fill="#FFFFFF" d="M273.1,259.8l-0.2,1.2c-0.2,0-0.3-0.1-0.5-0.1c-0.6,0-1,0.5-1.2,1.4v2.8H270v-5.3h1.1l0.1,1
				c0.2-0.8,0.8-1.2,1.4-1.2C272.8,259.7,272.9,259.7,273.1,259.8z"/>
			<path fill="#FFFFFF" d="M278.6,262.9h-3.3c0.1,1.1,0.6,1.4,1.3,1.4c0.5,0,0.9-0.1,1.3-0.5l0.5,0.7c-0.5,0.4-1.2,0.7-2,0.7
				c-1.6,0-2.5-1.1-2.5-2.8c0-1.6,0.8-2.8,2.3-2.8c1.5,0,2.3,1,2.3,2.7C278.6,262.6,278.6,262.8,278.6,262.9z M277.4,262
				c0-0.9-0.3-1.4-1-1.4c-0.6,0-1,0.4-1,1.4L277.4,262L277.4,262z"/>
			<path fill="#FFFFFF" d="M284.8,257.7v7.4h-1.1l-0.1-0.7c-0.3,0.5-0.8,0.8-1.5,0.8c-1.3,0-2-1.1-2-2.8c0-1.6,0.8-2.8,2.1-2.8
				c0.5,0,1,0.2,1.3,0.6v-2.7L284.8,257.7z M283.5,263.7v-2.4c-0.3-0.4-0.6-0.6-1-0.6c-0.7,0-1.1,0.6-1.1,1.8c0,1.4,0.4,1.8,1,1.8
				C282.9,264.3,283.2,264.1,283.5,263.7z"/>
		</g>
		<g id="g20_145_" transform="translate(36,19)">
			<path id="path22_145_" fill="#FFCC4D" d="M116.2,289c0,10.8-8.8,19.6-19.6,19.6S77,299.9,77,289c0-10.8,8.8-19.6,19.6-19.6
				S116.2,278.2,116.2,289"/>
		</g>
		<g id="g24_136_" transform="translate(19,15.1514)">
			<path id="path26_136_" fill="#664500" d="M113.6,297.3c-3.4,0-5.7-0.4-8.5-0.9c-0.6-0.1-1.9,0-1.9,1.9c0,3.8,4.3,8.5,10.4,8.5
				c6,0,10.4-4.7,10.4-8.5c0-1.9-1.2-2-1.9-1.9C119.2,296.9,117,297.3,113.6,297.3"/>
		</g>
		<g id="g28_97_" transform="translate(17.6499,33.7192)">
			<path id="path30_89_" fill="#BE1931" d="M113.3,257.3c-1-2.8-4.1-4.3-6.9-3.3c-1.7,0.6-2.9,2-3.4,3.6c-1.4-1-3.2-1.3-4.9-0.7
				c-2.8,1-4.3,4.1-3.3,6.9c0.1,0.4,0.3,0.8,0.5,1.1c2.2,4.1,8.7,7,12.7,7.1c3-2.5,6.3-8.8,5.4-13.5
				C113.6,258.1,113.5,257.7,113.3,257.3"/>
		</g>
		<g id="g32_73_" transform="translate(20.3496,33.7192)">
			<path id="path34_68_" fill="#BE1931" d="M113.8,257.3c1-2.8,4.1-4.3,6.9-3.3c1.7,0.6,2.9,2,3.4,3.6c1.4-1,3.2-1.3,4.9-0.7
				c2.8,1,4.3,4.1,3.3,6.9c-0.1,0.4-0.3,0.8-0.5,1.1c-2.2,4.1-8.7,7-12.7,7.1c-3-2.5-6.3-8.8-5.4-13.5
				C113.5,258.1,113.6,257.7,113.8,257.3"/>
		</g>
		<polygon fill="#E5E5E5" points="50.9,336.1 10.5,336.1 50.9,309.4 		"/>
		<path fill="#3B88C3" d="M205.1,250.2h66.5c6.6,0,12-5.4,12-12v-34.4c0-6.6-5.4-12-12-12h-66.5c-6.6,0-12,5.4-12,12v34.4
			C193.1,244.8,198.5,250.2,205.1,250.2z"/>
		<polygon fill="#3B88C3" points="262.9,250.1 302.5,250.1 262.9,223.4 		"/>
		<g id="g10_133_" transform="matrix(1.25,0,0,-1.25,0,47.5)">
			<g id="g12_154_">
				<g>
					<defs>
						<rect id="SVGID_135_" x="163.8" y="-164.1" width="50" height="50"/>
					</defs>
					<clipPath id="SVGID_4_">
						<use xlink:href="#SVGID_135_"  overflow="visible"/>
					</clipPath>
					<g id="g14_154_" clip-path="url(#SVGID_4_)">
						<g id="g20_144_" transform="translate(16.373,35.978)">
							<path id="path22_144_" fill="#5C913B" d="M169.7-157.2c-1.8-1.8-7-8.8-4.4-14.9c2.6-6.1,6.2-2.4,7.9,2.6
								c0.9,2.6,0.9,6.1-0.9,11.4C171.4-155.5,169.7-157.2,169.7-157.2"/>
						</g>
						<g id="g24_135_" transform="translate(35.6768,16.6738)">
							<path id="path26_135_" fill="#5C913B" d="M170.7-158.3c-1.8-1.8-8.8-7-14.9-4.4c-6.1,2.6-2.4,6.2,2.6,7.9
								c2.6,0.9,6.1,0.9,11.4-0.9C172.4-156.5,170.7-158.3,170.7-158.3"/>
						</g>
						<g id="g28_96_" transform="translate(33.3145,30.6826)">
							<path id="path30_88_" fill="#F4900C" d="M170.6-157.5c0,0-0.2,1.8-0.8,2.4c-0.5,0.6-2.1,0.6-2.1,0.6
								c-1.8,0-21.9-2.6-25.4-20.1c-0.6-3.1,0.1-4.9,0.9-6c0-0.1,0-0.1,0-0.1c0.1-0.1,0.3-0.3,0.5-0.4c0.2-0.2,0.3-0.3,0.4-0.4
								c0,0,0.1,0,0.1,0c1.1-0.8,3-1.7,6.2-1C167.8-179.2,170.6-159.3,170.6-157.5"/>
						</g>
					</g>
				</g>
			</g>
			<g id="g32_72_">
				<g>
					<defs>
						<path id="SVGID_137_" d="M175.5-144c-0.6-3.1,0.1-4.9,0.9-6l0,0c0-0.1,0-0.1,0-0.1l0,0c0.1-0.1,0.3-0.3,0.5-0.4l0,0
							c0.2-0.2,0.3-0.3,0.4-0.4l0,0c0,0,0.1,0,0.1,0l0,0c1.1-0.8,3-1.7,6.2-1l0,0c17.5,3.5,20.3,23.5,20.3,25.2l0,0
							c0,0-0.2,1.8-0.8,2.4l0,0c-0.5,0.6-2.1,0.6-2.1,0.6l0,0C199.2-123.9,179-126.5,175.5-144"/>
					</defs>
					<clipPath id="SVGID_6_">
						<use xlink:href="#SVGID_137_"  overflow="visible"/>
					</clipPath>
					<g id="g34_10_" clip-path="url(#SVGID_6_)">
						<g id="g40_64_" transform="translate(25.7686,26.5654)">
							<path id="path42_63_" fill="#F7B82D" d="M170.2-157.7c-0.5-0.5-1.2-0.5-1.7,0l-1.7,1.7c-0.5,0.5-0.5,1.2,0,1.7
								c0.5,0.5,1.2,0.5,1.7,0l1.7-1.7C170.6-156.5,170.6-157.3,170.2-157.7"/>
						</g>
						<g id="g44_49_" transform="translate(17.6812,26.5654)">
							<path id="path46_49_" fill="#F7B82D" d="M169.7-157.7c-0.5-0.5-1.2-0.5-1.7,0l-1.7,1.7c-0.5,0.5-0.5,1.2,0,1.7
								c0.5,0.5,1.2,0.5,1.7,0l1.7-1.7C170.2-156.5,170.2-157.3,169.7-157.7"/>
						</g>
						<g id="g48_42_" transform="translate(20.1074,28.9922)">
							<path id="path50_42_" fill="#F7B82D" d="M169.9-157.6c-0.5-0.5-1.2-0.5-1.7,0l-1.7,1.7c-0.5,0.5-0.5,1.2,0,1.7
								c0.5,0.5,1.2,0.5,1.7,0l1.7-1.7C170.3-156.4,170.3-157.1,169.9-157.6"/>
						</g>
						<g id="g52_43_" transform="translate(15.2559,24.1392)">
							<path id="path54_42_" fill="#F7B82D" d="M169.6-157.9c-0.5-0.5-1.2-0.5-1.7,0l-1.7,1.7c-0.5,0.5-0.5,1.2,0,1.7
								c0.5,0.5,1.2,0.5,1.7,0l1.7-1.7C170.1-156.6,170.1-157.4,169.6-157.9"/>
						</g>
						<g id="g56_31_" transform="translate(28.1943,28.9922)">
							<path id="path58_31_" fill="#F7B82D" d="M170.3-157.6c-0.5-0.5-1.2-0.5-1.7,0l-1.7,1.7c-0.5,0.5-0.5,1.2,0,1.7
								c0.5,0.5,1.2,0.5,1.7,0l1.7-1.7C170.8-156.4,170.8-157.1,170.3-157.6"/>
						</g>
						<g id="g60_41_" transform="translate(30.6172,31.3828)">
							<path id="path62_35_" fill="#F7B82D" d="M170.4-157.5c-0.5-0.5-1.2-0.5-1.7,0l-1.7,1.7c-0.5,0.5-0.5,1.2,0,1.7
								c0.5,0.5,1.2,0.5,1.7,0l1.7-1.7C170.9-156.2,170.9-157,170.4-157.5"/>
						</g>
						<g id="g64_16_" transform="translate(23.3428,24.1392)">
							<path id="path66_16_" fill="#F7B82D" d="M170-157.9c-0.5-0.5-1.2-0.5-1.7,0l-1.7,1.7c-0.5,0.5-0.5,1.2,0,1.7
								c0.5,0.5,1.2,0.5,1.7,0l1.7-1.7C170.5-156.6,170.5-157.4,170-157.9"/>
						</g>
						<g id="g68_16_" transform="translate(20.915,21.7134)">
							<path id="path70_16_" fill="#F7B82D" d="M169.9-158c-0.5-0.5-1.2-0.5-1.7,0l-1.7,1.7c-0.5,0.5-0.5,1.2,0,1.7
								c0.5,0.5,1.2,0.5,1.7,0l1.7-1.7C170.4-156.8,170.4-157.5,169.9-158"/>
						</g>
						<g id="g72_16_" transform="translate(16.064,16.8613)">
							<path id="path74_16_" fill="#F7B82D" d="M169.7-158.2c-0.5-0.5-1.2-0.5-1.7,0l-1.7,1.7c-0.5,0.5-0.5,1.2,0,1.7
								c0.5,0.5,1.2,0.5,1.7,0l1.7-1.7C170.1-157,170.1-157.8,169.7-158.2"/>
						</g>
						<g id="g76_16_" transform="translate(18.4902,19.2871)">
							<path id="path78_16_" fill="#F7B82D" d="M169.8-158.1c-0.5-0.5-1.2-0.5-1.7,0l-1.7,1.7c-0.5,0.5-0.5,1.2,0,1.7
								c0.5,0.5,1.2,0.5,1.7,0l1.7-1.7C170.3-156.9,170.3-157.6,169.8-158.1"/>
						</g>
					</g>
				</g>
			</g>
			<g id="g80_9_">
				<g>
					<defs>
						<rect id="SVGID_139_" x="163.8" y="-164.1" width="50" height="50"/>
					</defs>
					<clipPath id="SVGID_8_">
						<use xlink:href="#SVGID_139_"  overflow="visible"/>
					</clipPath>
					<g id="g82_5_" clip-path="url(#SVGID_8_)">
						<g id="g88_8_" transform="translate(28.8662,13.4258)">
							<path id="path90_8_" fill="#77B255" d="M170.3-158.4c-7.5,2.5-15.9-0.7-20.4-3.8c3.1,4.5,6.3,12.9,3.8,20.4
								c-1,2.9-5.9,5.9-8.8,2.9c-1-1-2-2,0-2c2,0,4.9-2.9,3.9-5.9c-0.9-2.6-7.3-9.2-4.4-16.2c-0.3-0.1-0.6-0.3-0.8-0.5l-0.8-0.8
								c-1-1-1-2.5,0-3.5l0.8-0.8c1-1,2.5-1,3.5,0l0.8,0.8c0.1,0.1,0.2,0.3,0.3,0.4c7.4-4,14.5,2.9,17.2,3.9c2.9,1,5.9-2,5.9-3.9
								c0-2,1-1,2,0C176.2-164.3,173.3-159.4,170.3-158.4"/>
						</g>
					</g>
				</g>
			</g>
		</g>
		<g>
			<g>
				<path fill="none" stroke="#FFFFFF" stroke-width="2" stroke-miterlimit="10" d="M252.5,279.8c11.5,52.7-21.2,105-73.8,117.7"/>
				<g>
					<polygon fill="#FFFFFF" points="245.7,287.9 247.4,288.9 252.6,280.5 260.6,286.3 261.7,284.7 252,277.7 					"/>
				</g>
			</g>
		</g>
		<g>
			<defs>
				<rect id="SVGID_141_" x="0" y="42" width="315" height="81.5"/>
			</defs>
			<clipPath id="SVGID_10_">
				<use xlink:href="#SVGID_141_"  overflow="visible"/>
			</clipPath>
			<g clip-path="url(#SVGID_10_)">
				<path fill="#3B88C3" d="M273.8,104.9H41.3c-6.6,0-12-5.4-12-12V-41.5c0-6.6,5.4-12,12-12h232.5c6.6,0,12,5.4,12,12V92.9
					C285.8,99.5,280.4,104.9,273.8,104.9z"/>
				<g id="g10_131_" transform="matrix(1.25,0,0,-1.25,0,47.5)">
					<g id="g12_152_">
						<g>
							<defs>
								<rect id="SVGID_145_" x="36.1" y="4.6" width="22.5" height="22.5"/>
							</defs>
							<clipPath id="SVGID_12_">
								<use xlink:href="#SVGID_145_"  overflow="visible"/>
							</clipPath>
							<g id="g14_152_" clip-path="url(#SVGID_12_)">
								<g id="g20_142_" transform="translate(36,19)">
									<path id="path22_142_" fill="#FFCC4D" d="M19.5-3.1c0-4.5-3.6-8.1-8.1-8.1c-4.5,0-8.1,3.6-8.1,8.1c0,4.5,3.6,8.1,8.1,8.1
										C15.9,4.9,19.5,1.3,19.5-3.1"/>
								</g>
								<g id="g24_133_" transform="translate(29.457,19.2031)">
									<path id="path26_133_" fill="#664500" d="M22.9-3.2c0,0.1-0.7,1.6-2.1,1.6c-1.4,0-2.1-1.5-2.1-1.6c0-0.1,0-0.2,0.1-0.3
										c0.1-0.1,0.2-0.1,0.3,0c0,0,0.6,0.4,1.8,0.4c1.2,0,1.7-0.4,1.8-0.4c0,0,0.1,0,0.1,0c0.1,0,0.1,0,0.1,0.1
										C22.9-3.4,23-3.3,22.9-3.2"/>
								</g>
								<g id="g28_94_" transform="translate(17.457,19.2031)">
									<path id="path30_86_" fill="#664500" d="M29.2-3.2c0,0.1-0.7,1.6-2.1,1.6c-1.4,0-2.1-1.5-2.1-1.6c0-0.1,0-0.2,0.1-0.3
										c0.1-0.1,0.2-0.1,0.3,0c0,0,0.6,0.4,1.8,0.4c1.2,0,1.7-0.4,1.8-0.4c0,0,0.1,0,0.1,0c0.1,0,0.1,0,0.1,0.1
										C29.2-3.4,29.3-3.3,29.2-3.2"/>
								</g>
								<g id="g32_70_" transform="translate(32,20.9995)">
									<path id="path34_66_" fill="#664500" d="M21.6-4.2c-0.2,0-0.4,0.1-0.4,0.3c-0.8,2.1-3,2.6-3,2.6c-0.3,0.1-0.4,0.3-0.4,0.6
										c0.1,0.3,0.3,0.4,0.6,0.4c0.1,0,2.6-0.6,3.7-3.1c0.1-0.2,0-0.5-0.3-0.6C21.7-4.2,21.6-4.2,21.6-4.2"/>
								</g>
								<g id="g36_59_" transform="translate(5.9995,20.9995)">
									<path id="path38_59_" fill="#664500" d="M35.2-4.2c-0.1,0-0.1,0-0.2,0c-0.2,0.1-0.4,0.4-0.3,0.6c1,2.6,3.6,3.1,3.7,3.1
										C38.7-0.3,39-0.5,39-0.8c0.1-0.3-0.1-0.5-0.4-0.6c-0.1,0-2.1-0.5-3-2.6C35.6-4.1,35.4-4.2,35.2-4.2"/>
								</g>
								<g id="g40_62_" transform="translate(19,15)">
									<path id="path42_61_" fill="#664500" d="M28.4-1c-1.7,0-2.9,0.2-4.3,0.5c-0.3,0.1-0.9,0-0.9-0.9c0-1.9,2.2-4.3,5.2-4.3
										c3,0,5.2,2.4,5.2,4.3c0,0.9-0.6,1-0.9,0.9C31.3-0.8,30.1-1,28.4-1"/>
								</g>
								<g id="g44_47_" transform="translate(10,14)">
									<path id="path46_47_" fill="#FFFFFF" d="M33.1-0.5c0,0,1.4-0.5,4.3-0.5c2.8,0,4.3,0.5,4.3,0.5s-0.9-1.9-4.3-1.9
										C34.1-2.4,33.1-0.5,33.1-0.5"/>
								</g>
								<g id="g48_40_" transform="translate(11.8472,8.7705)">
									<path id="path50_40_" fill="#5DADEC" d="M32.2,2.3c-0.3-1.3-1.6-2-2.9-1.7c-1.3,0.3-2,1.6-1.7,2.9c0.3,1.3,3,4.1,3.5,4
										C31.5,7.3,32.5,3.5,32.2,2.3"/>
								</g>
								<g id="g52_41_" transform="translate(26.1328,8.7705)">
									<path id="path54_40_" fill="#5DADEC" d="M24.7,2.3c0.3-1.3,1.6-2,2.9-1.7c1.3,0.3,2,1.6,1.7,2.9c-0.3,1.3-3,4.1-3.5,4
										C25.3,7.3,24.3,3.5,24.7,2.3"/>
								</g>
							</g>
						</g>
					</g>
				</g>
				<g id="g10_129_" transform="matrix(1.25,0,0,-1.25,0,47.5)">
					<g id="g12_149_">
						<g>
							<defs>
								<rect id="SVGID_149_" x="36.1" y="-27" width="22.5" height="22.5"/>
							</defs>
							<clipPath id="SVGID_14_">
								<use xlink:href="#SVGID_149_"  overflow="visible"/>
							</clipPath>
							<g id="g14_149_" clip-path="url(#SVGID_14_)">
								<g id="g20_140_" transform="translate(18,19)">
									<path id="path22_140_" fill="#E1E8ED" d="M28.9-34.7c0-2.6-1.8-4.7-4-4.7c-2.2,0-4,2.1-4,4.7c0,2.6,1.8,4.7,4,4.7
										C27.1-30,28.9-32.1,28.9-34.7"/>
								</g>
								<g id="g24_131_" transform="translate(37,19)">
									<path id="path26_131_" fill="#E1E8ED" d="M19-34.7c0-2.6-1.8-4.7-4-4.7c-2.2,0-4,2.1-4,4.7c0,2.6,1.8,4.7,4,4.7
										C17.1-30,19-32.1,19-34.7"/>
								</g>
								<g id="g28_92_" transform="translate(9,15)">
									<path id="path30_84_" fill="#292F33" d="M33.7-32.6c0-0.8-0.6-1.4-1.4-1.4c-0.8,0-1.4,0.6-1.4,1.4c0,0.8,0.6,1.4,1.4,1.4
										C33-31.2,33.7-31.8,33.7-32.6"/>
								</g>
								<g id="g32_68_" transform="translate(28,15)">
									<path id="path34_64_" fill="#292F33" d="M23.7-32.6c0-0.8-0.6-1.4-1.4-1.4c-0.8,0-1.4,0.6-1.4,1.4c0,0.8,0.6,1.4,1.4,1.4
										C23-31.2,23.7-31.8,23.7-32.6"/>
								</g>
							</g>
						</g>
					</g>
				</g>
				<g id="g10_128_" transform="matrix(1.25,0,0,-1.25,0,47.5)">
					<g id="g12_148_">
						<g>
							<defs>
								<rect id="SVGID_151_" x="120.2" y="-27" width="22.5" height="22.5"/>
							</defs>
							<clipPath id="SVGID_16_">
								<use xlink:href="#SVGID_151_"  overflow="visible"/>
							</clipPath>
							<g id="g14_148_" clip-path="url(#SVGID_16_)">
								<g id="g20_139_" transform="translate(18,19)">
									<path id="path22_139_" fill="#E1E8ED" d="M113-34.7c0-2.6-1.8-4.7-4-4.7c-2.2,0-4,2.1-4,4.7c0,2.6,1.8,4.7,4,4.7
										C111.2-30,113-32.1,113-34.7"/>
								</g>
								<g id="g24_130_" transform="translate(37,19)">
									<path id="path26_130_" fill="#E1E8ED" d="M103-34.7c0-2.6-1.8-4.7-4-4.7c-2.2,0-4,2.1-4,4.7c0,2.6,1.8,4.7,4,4.7
										C101.2-30,103-32.1,103-34.7"/>
								</g>
								<g id="g28_91_" transform="translate(9,15)">
									<path id="path30_83_" fill="#292F33" d="M117.7-32.6c0-0.8-0.6-1.4-1.4-1.4c-0.8,0-1.4,0.6-1.4,1.4c0,0.8,0.6,1.4,1.4,1.4
										C117.1-31.2,117.7-31.8,117.7-32.6"/>
								</g>
								<g id="g32_67_" transform="translate(28,15)">
									<path id="path34_63_" fill="#292F33" d="M107.7-32.6c0-0.8-0.6-1.4-1.4-1.4c-0.8,0-1.4,0.6-1.4,1.4c0,0.8,0.6,1.4,1.4,1.4
										C107.1-31.2,107.7-31.8,107.7-32.6"/>
								</g>
							</g>
						</g>
					</g>
				</g>
				<g id="g10_125_" transform="matrix(1.25,0,0,-1.25,0,47.5)">
					<g id="g12_145_">
						<g>
							<defs>
								<rect id="SVGID_157_" x="162.1" y="4.6" width="22.5" height="22.5"/>
							</defs>
							<clipPath id="SVGID_18_">
								<use xlink:href="#SVGID_157_"  overflow="visible"/>
							</clipPath>
							<g id="g14_145_" clip-path="url(#SVGID_18_)">
								<g id="g20_136_" transform="translate(35.751,15)">
									<path id="path22_136_" fill="#77B255" d="M145.6-1c-1.6,0-5.6-1.7-7.5-3.4v5.8c0,0.3-0.2,0.5-0.5,0.5
										c-0.3,0-0.5-0.2-0.5-0.5v-5.9c-1.8,1.7-5.9,3.5-7.6,3.5c-0.4,0,5.2-6.6,7.6-6v-0.2c0-0.3,0.2-0.5,0.5-0.5
										c0.3,0,0.5,0.2,0.5,0.5V-7C140.6-7.5,146-1,145.6-1"/>
								</g>
								<g id="g24_127_" transform="translate(26,23.5835)">
									<path id="path26_127_" fill="#EA596E" d="M150.7-5.5c0-3-0.8-4.5-3.3-4.5c-2.5,0-3.3,1.5-3.3,4.5c0,3,2.4,6.4,3.3,6.4
										C148.3,0.8,150.7-2.5,150.7-5.5"/>
								</g>
								<g id="g28_89_" transform="translate(23.7949,35)">
									<path id="path30_81_" fill="#F4ABBA" d="M151.9-11.5c-0.2,0-1.9-6.8-2.3-9.1c-0.4,2.4-2.1,9.1-2.4,9.1
										c-0.5,0-2.8-4.3-2.8-6.2c0-1.9,2.7-3.8,5.2-3.8s5.1,1.9,5.1,3.8C154.7-15.8,152.3-11.5,151.9-11.5"/>
								</g>
							</g>
						</g>
					</g>
				</g>
				<g id="g10_115_" transform="matrix(1.25,0,0,-1.25,0,47.5)">
					<g id="g12_144_">
						<g>
							<defs>
								<rect id="SVGID_159_" x="99.2" y="-27" width="22.1" height="22.1"/>
							</defs>
							<clipPath id="SVGID_20_">
								<use xlink:href="#SVGID_159_"  overflow="visible"/>
							</clipPath>
							<g id="g14_144_" clip-path="url(#SVGID_20_)">
								<g id="g20_135_" transform="translate(2.7266,14.7012)">
									<path id="path22_135_" fill="#FFAC33" d="M100-32.6c0,0-0.6,0.6,0,1.3c0.6,0.6,1.3,0,1.3,0l3-2.8c0,0,0.2,0.4,0.2,0.4
										l-4.2,3.9c0,0-0.6,0.6,0,1.3c0.6,0.7,1.3,0,1.3,0l3.9-3.6c0,0,0.3,0.3,0.3,0.3l-4.6,4.2c0,0-0.6,0.6,0,1.3
										c0.6,0.6,1.3,0,1.3,0l4.6-4.2c0,0,0.3,0.3,0.3,0.3l-4.3,4c0,0-0.6,0.6,0,1.3c0.6,0.6,1.3,0,1.3,0s3.2-2.9,4.5-4.2
										c1.3-1.2,1.6-0.9,1.6-0.9l-1.2,1.1l-1.4,1.3c0,0-0.6,0.6,0,1.3c0.6,0.6,1.3,0,1.3,0l3.6-3.3c2.2-2,2.3-5.4,0.3-7.5
										c-2-2.2-5.4-2.3-7.5-0.3c-0.1,0.1-0.3,0.3-0.3,0.3l0,0L100-32.6z"/>
								</g>
								<g id="g24_126_" transform="translate(5.627,16.6504)">
									<path id="path26_126_" fill="#FFDC5D" d="M98.5-33.6c0,0-0.6,0.6,0,1.3c0.6,0.7,1.3,0,1.3,0l3-2.8c0,0,0.2,0.4,0.2,0.4
										l-4.2,3.9c0,0-0.6,0.6,0,1.3c0.6,0.6,1.3,0,1.3,0l3.9-3.6c0,0,0.3,0.3,0.3,0.3l-4.6,4.2c0,0-0.6,0.6,0,1.3
										c0.6,0.6,1.3,0,1.3,0l4.6-4.2c0,0,0.3,0.3,0.3,0.3l-4.3,4c0,0-0.6,0.6,0,1.3c0.6,0.6,1.3,0,1.3,0s3.2-2.9,4.5-4.2
										c1.3-1.2,1.6-0.9,1.6-0.9l-1.2,1.1l-1.4,1.3c0,0-0.6,0.6,0,1.3c0.6,0.6,1.3,0,1.3,0l3.6-3.3c2.2-2,2.3-5.4,0.3-7.5
										c-2-2.2-5.4-2.3-7.5-0.3c-0.1,0.1-0.3,0.3-0.3,0.3l0,0L98.5-33.6z"/>
								</g>
								<g id="g28_88_" transform="translate(25.541,30.5415)">
									<path id="path30_80_" fill="#FFAC33" d="M87.8-41.1c-0.1,0-0.2,0-0.3,0.1c-0.2,0.2-0.2,0.5-0.1,0.7l1.4,1.8
										c0.2,0.2,0.4,0.2,0.7,0.1c0.2-0.2,0.2-0.4,0.1-0.7l-1.4-1.8C88.1-41,88-41.1,87.8-41.1"/>
								</g>
								<g id="g32_66_" transform="translate(20,30)">
									<path id="path34_62_" fill="#FFAC33" d="M90.8-40.8c-0.3,0-0.5,0.2-0.5,0.5v2.3c0,0.3,0.2,0.5,0.5,0.5
										c0.3,0,0.5-0.2,0.5-0.5v-2.3C91.3-40.6,91-40.8,90.8-40.8"/>
								</g>
								<g id="g36_57_" transform="translate(29.417,27.333)">
									<path id="path38_57_" fill="#FFAC33" d="M85.8-39.3c-0.2,0-0.4,0.1-0.4,0.3c-0.1,0.2,0,0.5,0.3,0.6l2.1,0.8
										c0.2,0.1,0.5,0,0.6-0.3c0.1-0.2,0-0.5-0.3-0.6l-2.1-0.8C85.9-39.3,85.8-39.3,85.8-39.3"/>
								</g>
							</g>
						</g>
					</g>
				</g>
				<g id="g10_113_" transform="matrix(1.25,0,0,-1.25,0,47.5)">
					<g id="g12_133_">
						<g>
							<defs>
								<rect id="SVGID_163_" x="58.2" y="-27" width="22.5" height="22.5"/>
							</defs>
							<clipPath id="SVGID_22_">
								<use xlink:href="#SVGID_163_"  overflow="visible"/>
							</clipPath>
							<g id="g14_133_" clip-path="url(#SVGID_22_)">
								<g id="g20_124_" transform="translate(27,28.0005)">
									<path id="path22_124_" fill="#292F33" d="M46.3-39.5c-1.7,0-3,0.8-3.8,2.3c-0.8-1.5-1.9-2.3-3.3-2.3
										c-0.3,0-0.5,0.2-0.5,0.5c0,0.3,0.2,0.5,0.5,0.5c1.3,0,2.3,0.9,2.9,2.8c0.1,0.2,0.2,0.3,0.5,0.3c0.2,0,0.4-0.1,0.5-0.3
										c0.6-1.9,1.7-2.8,3.3-2.8c0.3,0,0.5-0.2,0.5-0.5C46.8-39.3,46.5-39.5,46.3-39.5"/>
								</g>
								<g id="g24_115_" transform="translate(15.604,27.3462)">
									<path id="path26_115_" fill="#FFAC33" d="M52.3-39.1c1.6-1.6,0.2-2.8-1.4-4.4c-1.6-1.6-2.8-3-4.4-1.4
										c-1.6,1.6-1.6,4.2,0,5.8C48.1-37.5,50.7-37.5,52.3-39.1"/>
								</g>
								<g id="g28_86_" transform="translate(16.4351,26.0278)">
									<path id="path30_78_" fill="#BE1931" d="M51.8-38.4c0.8-0.8,0.1-2.6-1.4-4.1c-1.5-1.5-3.4-2.2-4.1-1.4
										c-0.8,0.8-0.1,2.6,1.4,4.1C49.2-38.3,51.1-37.7,51.8-38.4"/>
								</g>
								<g id="g32_64_" transform="translate(22.2988,27.3462)">
									<path id="path34_60_" fill="#FFAC33" d="M48.7-39.1c-1.6-1.6-0.2-2.8,1.4-4.4c1.6-1.6,2.8-3,4.4-1.4c1.6,1.6,1.6,4.2,0,5.8
										C52.9-37.5,50.3-37.5,48.7-39.1"/>
								</g>
								<g id="g36_55_" transform="translate(21.4688,26.0278)">
									<path id="path38_55_" fill="#BE1931" d="M49.2-38.4c-0.8-0.8-0.1-2.6,1.4-4.1c1.5-1.5,3.4-2.2,4.1-1.4
										c0.8,0.8,0.1,2.6-1.4,4.1C51.8-38.3,49.9-37.7,49.2-38.4"/>
								</g>
								<g id="g40_59_" transform="translate(23.4102,18.7793)">
									<path id="path42_58_" fill="#AA8DD8" d="M48.2-34.6c0.1,0.1,0.2,0.1,0.3,0.1c0.4,0,0.8-0.2,1-0.4c0.3-0.2,0.4-0.6,0.3-0.9
										c-0.1-0.6-0.6-1.1-1.6-1c-0.4,0-0.5-0.1-0.5-0.1c0-0.1,0.1-0.2,0.5-0.3c0.4,0,0.8-0.2,1-0.4c0.3-0.2,0.4-0.6,0.3-0.9
										c-0.1-0.6-0.6-1.1-1.6-1c-0.3,0-0.4,0-0.5-0.1c0,0-0.1-0.1-0.1-0.1c0-0.1,0.1-0.2,0.5-0.3c0.3,0,0.4-0.3,0.4-0.5
										c0-0.3-0.3-0.4-0.5-0.4c-1,0.1-1.4,0.7-1.3,1.3c0.1,0.6,0.6,1.1,1.6,1c0.3,0,0.4,0,0.5,0.1c0,0,0.1,0.1,0.1,0.1
										c0,0.1-0.1,0.2-0.5,0.3c-1,0.1-1.4,0.7-1.3,1.3c0.1,0.6,0.6,1.1,1.6,1c0.3,0,0.4,0,0.5,0.1c0,0,0.1,0.1,0.1,0.1
										c0,0.1-0.1,0.2-0.5,0.3c-0.3,0-0.4,0.3-0.4,0.5C48-34.8,48.1-34.7,48.2-34.6"/>
								</g>
								<g id="g44_44_" transform="translate(16.2661,1.0146)">
									<path id="path46_44_" fill="#77B255" d="M51.9-25.3c-0.9-0.3-1.6,0.2-1.7,0.7c-0.2,0.5,0.2,1.2,1.1,1.5
										c0.4,0.1,0.5,0.3,0.5,0.3c0,0.1-0.2,0.1-0.6,0c-0.9-0.3-1.6,0.2-1.7,0.7c-0.2,0.5,0.2,1.2,1.1,1.5c0.4,0.1,0.5,0.3,0.5,0.3
										c0,0.1-0.2,0.1-0.6,0c-0.3-0.1-0.5,0.1-0.6,0.3c-0.1,0.3,0.1,0.5,0.3,0.6c0.9,0.3,1.6-0.2,1.7-0.7c0.2-0.5-0.2-1.2-1.1-1.5
										c-0.4-0.1-0.5-0.3-0.5-0.3c0-0.1,0.2-0.1,0.6,0c0.9,0.3,1.6-0.2,1.7-0.7c0.2-0.5-0.2-1.2-1.1-1.5c-0.4-0.1-0.5-0.3-0.5-0.3
										c0-0.1,0.2-0.1,0.6,0c0.3,0.1,0.5-0.1,0.6-0.3C52.3-25,52.2-25.2,51.9-25.3"/>
								</g>
								<g id="g48_37_" transform="translate(2,9.5)">
									<path id="path50_37_" fill="#5C913B" d="M59.4-29.7c0,0.4,0.3,0.7,0.7,0.7c0.4,0,0.7-0.3,0.7-0.7c0-0.4-0.3-0.7-0.7-0.7
										C59.7-30.5,59.4-30.1,59.4-29.7"/>
								</g>
								<g id="g52_40_" transform="translate(6,6)">
									<path id="path54_39_" fill="#9266CC" d="M57.3-27.9c0,0.5,0.4,0.9,0.9,0.9c0.5,0,0.9-0.4,0.9-0.9s-0.4-0.9-0.9-0.9
										C57.7-28.9,57.3-28.4,57.3-27.9"/>
								</g>
								<g id="g56_30_" transform="translate(29,10)">
									<path id="path58_30_" fill="#9266CC" d="M45.2-30c0,0.5,0.4,0.9,0.9,0.9c0.5,0,0.9-0.4,0.9-0.9S46.7-31,46.2-31
										C45.7-31,45.2-30.5,45.2-30"/>
								</g>
								<g id="g60_40_" transform="translate(25,5.5)">
									<path id="path62_34_" fill="#5C913B" d="M47.3-27.6c0,0.4,0.3,0.7,0.7,0.7s0.7-0.3,0.7-0.7s-0.3-0.7-0.7-0.7
										S47.3-28,47.3-27.6"/>
								</g>
								<g id="g64_15_" transform="translate(17,17.5)">
									<path id="path66_15_" fill="#5C913B" d="M51.5-33.9c0,0.4,0.3,0.7,0.7,0.7c0.4,0,0.7-0.3,0.7-0.7s-0.3-0.7-0.7-0.7
										C51.9-34.7,51.5-34.3,51.5-33.9"/>
								</g>
								<g id="g68_15_" transform="translate(6,14)">
									<path id="path70_15_" fill="#FFCC4D" d="M57.3-32.1c0,0.5,0.4,0.9,0.9,0.9c0.5,0,0.9-0.4,0.9-0.9c0-0.5-0.4-0.9-0.9-0.9
										C57.7-33.1,57.3-32.6,57.3-32.1"/>
								</g>
								<g id="g72_15_" transform="translate(27,20.5)">
									<path id="path74_15_" fill="#FFCC4D" d="M46.3-35.5c0,0.4,0.3,0.7,0.7,0.7c0.4,0,0.7-0.3,0.7-0.7s-0.3-0.7-0.7-0.7
										C46.6-36.2,46.3-35.9,46.3-35.5"/>
								</g>
								<g id="g76_12_" transform="translate(12,22.5)">
									<path id="path78_12_" fill="#FFCC4D" d="M54.2-36.6c0,0.4,0.3,0.7,0.7,0.7s0.7-0.3,0.7-0.7c0-0.4-0.3-0.7-0.7-0.7
										S54.2-37,54.2-36.6"/>
								</g>
							</g>
						</g>
					</g>
				</g>
				<g id="g10_107_" transform="matrix(1.25,0,0,-1.25,0,47.5)">
					<g id="g12_132_">
						<g>
							<defs>
								<rect id="SVGID_165_" x="78.1" y="4.6" width="22.5" height="22.5"/>
							</defs>
							<clipPath id="SVGID_24_">
								<use xlink:href="#SVGID_165_"  overflow="visible"/>
							</clipPath>
							<g id="g14_132_" clip-path="url(#SVGID_24_)">
								<g id="g20_123_" transform="translate(12.9829,33.438)">
									<path id="path22_123_" fill="#FFAC33" d="M73.6-10.7c2.2,0.1,3.7-0.8,3.8-3.2c0.1-2-2.5-3.2-3.8-3.3
										c-1.2,0-0.6,0.9,0.3,1.1c0.7,0.2,2,1.1,1.7,2.1c-0.3,1.1-2,1.3-3-0.1c-0.4-0.6-1.7-0.4-1.9,0.2
										C70.2-12.8,71.2-10.8,73.6-10.7"/>
								</g>
								<g id="g24_114_" transform="translate(36.75,15.6162)">
									<path id="path26_114_" fill="#E1E8ED" d="M61.1-1.3c0,3.7-2.1,5.4-6.9,5.4c-0.5,0-1,0-1.4-0.1c-0.6,1.1-2.3,1.3-3.9,1.3
										c-2,0-4.7-2.9-4.7-5.1c0-2.2,1.7-2.3,3.7-2.3c0.1-1.5,0.6-2.7,1.5-3.4c0.1-0.5,0.7-2.7,1.9-2.7c0.6,0,1,0.8,1.2,1.6
										c0.5-0.1,1.1-0.1,1.8-0.1c0.8,0,1.6,0.1,2.2,0.2c0-0.8,0.3-1.7,1-1.7c1.1,0,2,2.4,2.3,3.1C60.6-4.3,61.1-3,61.1-1.3"/>
								</g>
								<g id="g28_85_" transform="translate(7,21.2139)">
									<path id="path30_77_" fill="#292F33" d="M76.7-4.3C76.7-4.7,76.4-5,76-5c-0.4,0-0.7,0.3-0.7,0.7c0,0.4,0.3,0.7,0.7,0.7
										C76.4-3.6,76.7-3.9,76.7-4.3"/>
								</g>
								<g id="g32_63_" transform="translate(18.5625,32.6611)">
									<path id="path34_59_" fill="#FFCC4D" d="M70.6-10.3c2-0.7,2.7-2,1.9-4.3c-0.6-1.9-3.5-2.1-4.8-1.6
										c-1.1,0.4-0.3,1.1,0.7,0.9c0.8-0.1,2.2,0.3,2.4,1.3c0.1,1.1-1.4,1.9-2.8,1c-0.6-0.4-2.7-0.2-2.6,0.5
										C65.7-11,68.4-9.5,70.6-10.3"/>
								</g>
							</g>
						</g>
					</g>
				</g>
				<g id="g10_28_" transform="matrix(1.25,0,0,-1.25,0,47.5)">
					<g id="g12_131_">
						<g>
							<defs>
								<rect id="SVGID_167_" x="141.1" y="4.6" width="22.5" height="22.5"/>
							</defs>
							<clipPath id="SVGID_26_">
								<use xlink:href="#SVGID_167_"  overflow="visible"/>
							</clipPath>
							<g id="g14_131_" clip-path="url(#SVGID_26_)">
								<g id="g20_122_" transform="translate(36,19)">
									<path id="path22_122_" fill="#FDCB58" d="M124.5-3.1c0-4.5-3.6-8.1-8.1-8.1c-4.5,0-8.1,3.6-8.1,8.1c0,4.5,3.6,8.1,8.1,8.1
										C120.8,4.9,124.5,1.3,124.5-3.1"/>
								</g>
								<g id="g24_113_" transform="translate(7,24)">
									<path id="path26_113_" fill="#664500" d="M139.7-5.7c-0.3,0-0.5,0.2-0.5,0.5c0,0.3,0.2,0.5,0.5,0.5c0.1,0,1.7,0,2.9,1.7
										c0.2,0.2,0.5,0.3,0.7,0.1c0.2-0.2,0.3-0.5,0.1-0.7C141.9-5.7,139.8-5.7,139.7-5.7"/>
								</g>
								<g id="g28_40_" transform="translate(31,24)">
									<path id="path30_76_" fill="#664500" d="M127.1-5.7c-0.1,0-2.2,0-3.7,2.1c-0.2,0.2-0.1,0.5,0.1,0.7
										c0.2,0.2,0.5,0.1,0.7-0.1c1.3-1.7,2.9-1.7,2.9-1.7c0.3,0,0.5-0.2,0.5-0.5C127.6-5.5,127.3-5.7,127.1-5.7"/>
								</g>
								<g id="g32_62_" transform="translate(31.5996,16.7998)">
									<path id="path34_20_" fill="#664500" d="M126.8-2c-0.1,0-0.9,0.7-2.2,1.1c0,0.1,0,0.1,0,0.2c0,0.2-0.1,0.3-0.2,0.5
										C125.3,0,126,0,126,0c0.3,0,0.5,0.2,0.5,0.5c0,0.3-0.2,0.5-0.5,0.5c-0.1,0-2.6,0-4.1-1.6c-0.1-0.1-0.2-0.3-0.1-0.5
										c0.1-0.2,0.2-0.3,0.4-0.3c2.2,0,4-1.3,4-1.3c0.1-0.1,0.2-0.1,0.3-0.1c0.1,0,0.3,0.1,0.4,0.2C127-2.4,127-2.1,126.8-2"/>
								</g>
								<g id="g36_54_" transform="translate(16.707,19.707)">
									<path id="path38_54_" fill="#664500" d="M134.6-3.5c-1.5,1.5-4,1.6-4.1,1.6c-0.3,0-0.5-0.2-0.5-0.5c0-0.3,0.2-0.5,0.5-0.5
										c0,0,0.7,0,1.6-0.3c-0.1-0.1-0.2-0.3-0.2-0.5c0-0.1,0-0.1,0-0.2c-1.3-0.4-2.2-1.1-2.2-1.1c-0.2-0.2-0.3-0.5-0.1-0.7
										c0.1-0.1,0.2-0.2,0.4-0.2c0.1,0,0.2,0,0.3,0.1c0,0,1.8,1.3,4,1.3c0.2,0,0.4,0.1,0.4,0.3C134.8-3.8,134.7-3.6,134.6-3.5"/>
								</g>
								<g id="g40_58_" transform="translate(19,7)">
									<path id="path42_57_" fill="#664500" d="M133.4,3.2c-0.1,0-0.3,0.1-0.4,0.2l-1.5,1.9l-1.1-1.4c-0.1-0.1-0.2-0.2-0.3-0.2
										c-0.1,0-0.3,0-0.4,0.1l-0.5,0.5c-0.2,0.2-0.2,0.5,0,0.7c0.2,0.2,0.5,0.2,0.7,0l0.1-0.1l1.1,1.5c0.1,0.1,0.2,0.2,0.4,0.2
										c0.1,0,0.3-0.1,0.4-0.2l1.5-1.9l1.5,1.9c0.1,0.1,0.2,0.2,0.4,0.2c0.1,0,0.3-0.1,0.4-0.2l1.1-1.5l0.1,0.1
										c0.2,0.2,0.5,0.2,0.7,0c0.2-0.2,0.2-0.5,0-0.7l-0.5-0.5c-0.1-0.1-0.2-0.1-0.4-0.1c-0.1,0-0.3,0.1-0.3,0.2l-1.1,1.4
										l-1.5-1.9C133.7,3.3,133.5,3.2,133.4,3.2"/>
								</g>
							</g>
						</g>
					</g>
				</g>
				<g id="g10_27_" transform="matrix(1.25,0,0,-1.25,0,47.5)">
					<g id="g12_125_">
						<g>
							<defs>
								<rect id="SVGID_169_" x="99.2" y="4.6" width="22.3" height="22.3"/>
							</defs>
							<clipPath id="SVGID_28_">
								<use xlink:href="#SVGID_169_"  overflow="visible"/>
							</clipPath>
							<g id="g14_130_" clip-path="url(#SVGID_28_)">
								<g id="g20_40_" transform="translate(36.8848,25.1665)">
									<path id="path22_40_" fill="#BE1931" d="M81.9-6.5c0,2.6-2.1,4.6-4.6,4.6c-1.6,0-2.9-0.8-3.8-1.9c-0.8,1.2-2.2,1.9-3.8,1.9
										c-2.6,0-4.6-2.1-4.6-4.6c0-0.4,0-0.7,0.1-1.1c0.6-4,5.1-8.2,8.3-9.4c3.2,1.2,7.6,5.4,8.3,9.4C81.9-7.2,81.9-6.8,81.9-6.5"
										/>
								</g>
							</g>
						</g>
					</g>
				</g>
				<g id="g10_23_" transform="matrix(1.25,0,0,-1.25,0,47.5)">
					<g id="g12_50_">
						<g>
							<defs>
								<rect id="SVGID_171_" x="120.2" y="4.6" width="22.4" height="22.4"/>
							</defs>
							<clipPath id="SVGID_30_">
								<use xlink:href="#SVGID_171_"  overflow="visible"/>
							</clipPath>
							<g id="g14_50_" clip-path="url(#SVGID_30_)">
								<g id="g20_39_" transform="translate(19,33)">
									<path id="path22_39_" fill="#F4900C" d="M112.4-10.6c3.4,0,6.1-1.9,6.9-0.9c0.1,0.2,0.1,0.3,0.1,0.5c0,0.9-3.2,2.4-7.1,2.4
										c-3.9,0-7.1-1.4-7.1-2.4c0-0.2,0-0.3,0.1-0.5C106.3-12.5,109-10.6,112.4-10.6"/>
								</g>
								<g id="g24_112_" transform="translate(19,34)">
									<path id="path26_112_" fill="#FFCC4D" d="M112.4-11.1c-2.9,0-5-0.9-5.8-1.2c-0.2-0.1-0.3-0.4-0.2-0.6
										c0.1-0.2,5-12.8,5-12.8s0.4-0.9,0.9-0.9c0.5,0,0.9,0.9,0.9,0.9l5,12.8c0,0,0.1,0.4-0.3,0.6
										C117.3-11.9,115.2-11.1,112.4-11.1"/>
								</g>
							</g>
						</g>
					</g>
					<g id="g28_39_">
						<g>
							<defs>
								<path id="SVGID_173_" d="M125.6,21.6c-0.2-0.1-0.3-0.4-0.2-0.6l0,0c0.1-0.2,5-12.8,5-12.8l0,0c0,0,0.5-0.9,0.9-0.9l0,0
									c0.5,0,0.9,0.9,0.9,0.9l0,0l5,12.8c0,0,0.1,0.4-0.3,0.6l0,0c-0.8,0.4-2.9,1.2-5.7,1.2l0,0C128.5,22.9,126.4,22,125.6,21.6"
									/>
							</defs>
							<clipPath id="SVGID_32_">
								<use xlink:href="#SVGID_173_"  overflow="visible"/>
							</clipPath>
							<g id="g30_9_" clip-path="url(#SVGID_32_)">
								<g id="g36_53_" transform="translate(19,6)">
									<path id="path38_53_" fill="#BE1931" d="M112.4,3.7c0-1-0.8-1.9-1.9-1.9c-1,0-1.9,0.8-1.9,1.9c0,1,0.8,1.9,1.9,1.9
										C111.6,5.6,112.4,4.7,112.4,3.7"/>
								</g>
								<g id="g40_57_" transform="translate(18,17)">
									<path id="path42_56_" fill="#BE1931" d="M112.9-2.1c0-1-0.8-1.9-1.9-1.9c-1,0-1.9,0.8-1.9,1.9c0,1,0.8,1.9,1.9,1.9
										C112.1-0.3,112.9-1.1,112.9-2.1"/>
								</g>
								<g id="g44_43_" transform="translate(21,29)">
									<path id="path46_43_" fill="#BE1931" d="M111.3-8.5c0-1-0.8-1.9-1.9-1.9c-1,0-1.9,0.8-1.9,1.9s0.8,1.9,1.9,1.9
										C110.5-6.6,111.3-7.5,111.3-8.5"/>
								</g>
								<g id="g48_36_" transform="translate(30,24)">
									<path id="path50_36_" fill="#BE1931" d="M106.6-5.8c0-1-0.8-1.9-1.9-1.9c-1,0-1.9,0.8-1.9,1.9c0,1,0.8,1.9,1.9,1.9
										C105.7-4,106.6-4.8,106.6-5.8"/>
								</g>
								<g id="g52_39_" transform="translate(28,12)">
									<path id="path54_38_" fill="#BE1931" d="M107.6,0.5c0-1-0.8-1.9-1.9-1.9c-1,0-1.9,0.8-1.9,1.9c0,1,0.8,1.9,1.9,1.9
										C106.8,2.4,107.6,1.5,107.6,0.5"/>
								</g>
								<g id="g56_29_" transform="translate(11,25)">
									<path id="path58_29_" fill="#BE1931" d="M116.6-6.4c0-1-0.8-1.9-1.9-1.9c-1,0-1.9,0.8-1.9,1.9c0,1,0.8,1.9,1.9,1.9
										C115.8-4.5,116.6-5.3,116.6-6.4"/>
								</g>
							</g>
						</g>
					</g>
				</g>
				<g id="g10_21_" transform="matrix(1.25,0,0,-1.25,0,47.5)">
					<g id="g12_48_">
						<g>
							<defs>
								<rect id="SVGID_175_" x="141.1" y="-27" width="22.4" height="22.4"/>
							</defs>
							<clipPath id="SVGID_34_">
								<use xlink:href="#SVGID_175_"  overflow="visible"/>
							</clipPath>
							<g id="g14_48_" clip-path="url(#SVGID_34_)">
								<g id="g20_36_" transform="translate(19,33)">
									<path id="path22_36_" fill="#F4900C" d="M133.3-42.2c3.4,0,6.1-1.9,6.9-0.9c0.1,0.2,0.1,0.3,0.1,0.5c0,0.9-3.2,2.4-7.1,2.4
										s-7.1-1.4-7.1-2.4c0-0.2,0-0.3,0.1-0.5C127.2-44.1,129.9-42.2,133.3-42.2"/>
								</g>
								<g id="g24_29_" transform="translate(19,34)">
									<path id="path26_29_" fill="#FFCC4D" d="M133.3-42.8c-2.9,0-5-0.9-5.8-1.2c-0.2-0.1-0.3-0.4-0.2-0.6c0.1-0.2,5-12.8,5-12.8
										s0.4-0.9,0.9-0.9c0.5,0,0.9,0.9,0.9,0.9l5,12.8c0,0,0.1,0.4-0.3,0.6C138.2-43.5,136.2-42.8,133.3-42.8"/>
								</g>
							</g>
						</g>
					</g>
					<g id="g28_38_">
						<g>
							<defs>
								<path id="SVGID_177_" d="M146.5-10c-0.2-0.1-0.3-0.4-0.2-0.6l0,0c0.1-0.2,5-12.8,5-12.8l0,0c0,0,0.5-0.9,0.9-0.9l0,0
									c0.5,0,0.9,0.9,0.9,0.9l0,0l5,12.8c0,0,0.1,0.4-0.3,0.6l0,0c-0.8,0.4-2.9,1.2-5.7,1.2l0,0C149.4-8.8,147.3-9.6,146.5-10"/>
							</defs>
							<clipPath id="SVGID_36_">
								<use xlink:href="#SVGID_177_"  overflow="visible"/>
							</clipPath>
							<g id="g30_2_" clip-path="url(#SVGID_36_)">
								<g id="g36_18_" transform="translate(19,6)">
									<path id="path38_18_" fill="#BE1931" d="M133.3-27.9c0-1-0.8-1.9-1.9-1.9c-1,0-1.9,0.8-1.9,1.9s0.8,1.9,1.9,1.9
										C132.5-26,133.3-26.9,133.3-27.9"/>
								</g>
								<g id="g40_56_" transform="translate(18,17)">
									<path id="path42_55_" fill="#BE1931" d="M133.8-33.8c0-1-0.8-1.9-1.9-1.9c-1,0-1.9,0.8-1.9,1.9c0,1,0.8,1.9,1.9,1.9
										C133-31.9,133.8-32.7,133.8-33.8"/>
								</g>
								<g id="g44_42_" transform="translate(21,29)">
									<path id="path46_42_" fill="#BE1931" d="M132.3-40.1c0-1-0.8-1.9-1.9-1.9c-1,0-1.9,0.8-1.9,1.9c0,1,0.8,1.9,1.9,1.9
										C131.4-38.2,132.3-39.1,132.3-40.1"/>
								</g>
								<g id="g48_35_" transform="translate(30,24)">
									<path id="path50_35_" fill="#BE1931" d="M127.5-37.5c0-1-0.8-1.9-1.9-1.9c-1,0-1.9,0.8-1.9,1.9c0,1,0.8,1.9,1.9,1.9
										C126.7-35.6,127.5-36.4,127.5-37.5"/>
								</g>
								<g id="g52_38_" transform="translate(28,12)">
									<path id="path54_37_" fill="#BE1931" d="M128.6-31.1c0-1-0.8-1.9-1.9-1.9c-1,0-1.9,0.8-1.9,1.9c0,1,0.8,1.9,1.9,1.9
										C127.7-29.2,128.6-30.1,128.6-31.1"/>
								</g>
								<g id="g56_28_" transform="translate(11,25)">
									<path id="path58_28_" fill="#BE1931" d="M137.6-38c0-1-0.8-1.9-1.9-1.9c-1,0-1.9,0.8-1.9,1.9c0,1,0.8,1.9,1.9,1.9
										C136.7-36.1,137.6-36.9,137.6-38"/>
								</g>
							</g>
						</g>
					</g>
				</g>
				<polygon fill="#3B88C3" points="262.9,105.1 302.5,105.1 262.9,78.4 				"/>
			</g>
		</g>
		<g>
			<path d="M62.5,316.5c0,1.3-1,2.3-2.3,2.3c-1.3,0-2.3-1-2.3-2.3c0-1.3,1-2.3,2.3-2.3C61.5,314.2,62.5,315.2,62.5,316.5z
				 M61.5,310.7h-2.5L58.6,295h3.2L61.5,310.7z"/>
			<path d="M88.8,316.5c0,1.3-1,2.3-2.3,2.3c-1.3,0-2.3-1-2.3-2.3c0-1.3,1-2.3,2.3-2.3C87.9,314.2,88.8,315.2,88.8,316.5z
				 M87.8,310.7h-2.5L84.9,295h3.2L87.8,310.7z"/>
		</g>
		<g id="g10_109_" transform="matrix(1.25,0,0,-1.25,0,47.5)">
			<g id="g12_127_">
				<g id="g14_126_">
					<g id="g20_118_" transform="translate(36,19)">
						<path id="path22_118_" fill="#FFCC4D" d="M149.1-386.5c0-3-2.4-5.4-5.4-5.4c-3,0-5.4,2.4-5.4,5.4c0,3,2.4,5.4,5.4,5.4
							C146.7-381.1,149.1-383.5,149.1-386.5"/>
					</g>
					<g id="g24_108_" transform="translate(13,16)">
						<path id="path26_108_" fill="#FF7892" d="M164.8-384.5c0-0.9-0.7-1.6-1.6-1.6c-0.9,0-1.6,0.7-1.6,1.6c0,0.9,0.7,1.6,1.6,1.6
							C164.1-382.9,164.8-383.6,164.8-384.5"/>
					</g>
					<g id="g28_78_" transform="translate(35,16)">
						<path id="path30_69_" fill="#FF7892" d="M149.8-384.5c0-0.9-0.7-1.6-1.6-1.6c-0.9,0-1.6,0.7-1.6,1.6c0,0.9,0.7,1.6,1.6,1.6
							C149.1-382.9,149.8-383.6,149.8-384.5"/>
					</g>
					<g id="g32_55_" transform="translate(29.416,19.2773)">
						<path id="path34_54_" fill="#664500" d="M153.6-386.7c0,0-0.5,0.7-1.4,0.7c-0.9,0-1.4-0.7-1.4-0.7c0-0.1,0-0.1,0-0.2
							c0.1-0.1,0.1-0.1,0.2,0c0,0,0.4,0.3,1.2,0.3c0.8,0,1.2-0.3,1.2-0.3c0,0,0.1,0,0.1,0c0,0,0.1,0,0.1,0
							C153.6-386.9,153.6-386.8,153.6-386.7"/>
					</g>
					<g id="g36_49_" transform="translate(13,21.5)">
						<path id="path38_49_" fill="#664500" d="M164.8-388.2c-0.9,0-1.4-0.7-1.4-0.7c0-0.1,0-0.1,0-0.2c0.1-0.1,0.1-0.1,0.2,0
							c0,0,0.4,0.3,1.2,0.3c0.8,0,1.2-0.3,1.2-0.3c0,0,0.1,0,0.1,0c0,0,0.1,0,0.1,0c0.1,0.1,0.1,0.1,0,0.2
							C166.2-388.9,165.7-388.2,164.8-388.2"/>
					</g>
					<g id="g40_47_" transform="translate(22.8711,10)">
						<path id="path42_46_" fill="#664500" d="M158.1-380.4c0.4,0.1,0.8,0.4,0.8,0.8c0,0.8-1.6,0.9-1.7,1c-0.1,0-0.2-0.1-0.2-0.1
							c0-0.1,0.1-0.2,0.1-0.2c0,0,1.1-0.1,1.1-0.6s-1.1-0.6-1.1-0.6c0,0,0,0,0,0c0,0-0.1,0-0.1-0.1c0,0,0,0,0,0c0,0,0,0,0,0
							c0,0,0,0,0,0c0,0,0,0,0,0c0,0,0,0,0,0c0,0,0,0,0,0c0,0,0,0,0,0c0,0,0,0,0,0c0,0,0,0,0,0c0,0,0,0,0,0c0,0,0,0,0,0c0,0,0,0,0,0
							c0,0,0,0,0,0c0,0,0,0,0,0c0,0,1.1-0.1,1.1-0.6s-1.1-0.6-1.1-0.6c-0.1,0-0.2-0.1-0.1-0.2c0-0.1,0.1-0.1,0.2-0.1c0,0,0,0,0,0
							c0.2,0,1.7,0.1,1.7,1C158.9-380.7,158.5-380.5,158.1-380.4"/>
					</g>
					<g id="g44_21_" transform="translate(32.001,21)">
						<path id="path46_21_" fill="#664500" d="M151.8-387.9c-0.1,0-0.2,0-0.3,0.1c-0.8,1.1-1.9,1.1-2,1.1c-0.2,0-0.3,0.1-0.3,0.3
							c0,0.2,0.1,0.3,0.3,0.3c0.1,0,1.4,0,2.5-1.4c0.1-0.1,0.1-0.3-0.1-0.4C152-387.9,151.9-387.9,151.8-387.9"/>
					</g>
					<g id="g48_19_" transform="translate(5.999,21)">
						<path id="path50_19_" fill="#664500" d="M169.6-387.9c-0.1,0-0.1,0-0.2,0.1c-0.1,0.1-0.2,0.3-0.1,0.4c1,1.4,2.4,1.4,2.5,1.4
							c0.2,0,0.3-0.1,0.3-0.3c0-0.2-0.1-0.3-0.3-0.3c0,0-1.1,0-2-1.1C169.8-387.8,169.7-387.9,169.6-387.9"/>
					</g>
				</g>
			</g>
		</g>
	</g>
</g>
<g id="top">
</g>
<g id="tap">
</g>
</svg>
