<?xml version="1.0" encoding="utf-8"?>
<!-- Generator: Adobe Illustrator 18.0.0, SVG Export Plug-In . SVG Version: 6.00 Build 0)  -->
<!DOCTYPE svg PUBLIC "-//W3C//DTD SVG 1.1//EN" "http://www.w3.org/Graphics/SVG/1.1/DTD/svg11.dtd">
<svg version="1.1" id="Layer_1" xmlns="http://www.w3.org/2000/svg" xmlns:xlink="http://www.w3.org/1999/xlink" x="0px" y="0px"
	 viewBox="0 0 315 560" enable-background="new 0 0 315 560" xml:space="preserve">
<polyline fill="#283344" points="0,560 0,0 315,0 315,560 "/>
<g id="back">
</g>
<g id="notes">
</g>
<g id="input">
</g>
<g id="landing_pages">
</g>
<g id="onboarding">
</g>
<g id="top">
</g>
<path fill="#3B88C3" d="M271.8,227.9H43.3c-7.7,0-14-6.3-14-14V83.5c0-7.7,6.3-14,14-14h228.5c7.7,0,14,6.3,14,14v130.4
	C285.8,221.6,279.5,227.9,271.8,227.9z"/>
<g>
	<path fill="#FFFFFF" d="M65.7,97.9h-5.1v17.4h5.1v3H51.6v-3h5.1V97.9h-5.1v-3h14.1V97.9z"/>
	<path fill="#FFFFFF" d="M108,102.6c1.5-1.8,3.5-2.7,5.6-2.7c3.4,0,5,2,5,5.3v13.1h-3.8v-12.5c0-2.1-0.8-3-2.6-3
		c-1.7,0-3.2,1.3-4.2,2.7v12.9h-3.8V93.2l3.8-0.4V102.6z"/>
	<path fill="#FFFFFF" d="M145.6,116.2l-0.9,2.6c-1.7-0.2-3.1-0.9-3.7-2.5c-1.3,1.7-3.4,2.5-5.7,2.5c-3.7,0-5.9-2.2-5.9-5.6
		c0-3.7,3.1-5.9,8.5-5.9h2.5v-1.2c0-2.3-1.5-3.3-4-3.3c-1.2,0-3,0.3-4.8,0.9l-1-2.7c2.2-0.8,4.5-1.2,6.3-1.2c4.8,0,7.2,2.2,7.2,6v8
		C144.2,115.3,144.6,115.9,145.6,116.2z M140.5,113.7v-4h-2.1c-3.6,0-5,1.3-5,3.4c0,1.9,1,2.9,3,2.9
		C138,116,139.6,115.1,140.5,113.7z"/>
	<path fill="#FFFFFF" d="M166.2,118.3h-4.4l-6.4-18h4.1l4.5,14.8l4.6-14.8h3.9L166.2,118.3z"/>
	<path fill="#FFFFFF" d="M191.3,115.8c1.7,0,3.2-0.5,4.7-1.6l1.6,2.3c-1.7,1.4-4,2.2-6.5,2.2c-5.6,0-8.7-3.8-8.7-9.4
		c0-5.4,3.1-9.5,8.2-9.5c4.8,0,7.8,3.4,7.8,9c0,0.6,0,1.3-0.1,1.7h-11.9C186.6,114.3,188.7,115.8,191.3,115.8z M186.3,108h8.3
		c-0.1-3.4-1.5-5.3-4-5.3C188.3,102.7,186.6,104.4,186.3,108z"/>
	<path fill="#FFFFFF" d="M66.5,157l-0.9,2.6c-1.7-0.2-3.1-0.9-3.7-2.5c-1.3,1.7-3.4,2.5-5.7,2.5c-3.7,0-5.9-2.2-5.9-5.6
		c0-3.7,3.1-5.9,8.5-5.9h2.5V147c0-2.3-1.5-3.3-4-3.3c-1.2,0-3,0.3-4.8,0.9l-1-2.7c2.2-0.8,4.5-1.2,6.3-1.2c4.8,0,7.2,2.2,7.2,6v8
		C65.2,156.1,65.6,156.7,66.5,157z M61.4,154.5v-4h-2.1c-3.6,0-5,1.3-5,3.4c0,1.9,1,2.9,3,2.9C58.9,156.8,60.5,155.9,61.4,154.5z"/>
	<path fill="#FFFFFF" d="M117.2,154.9l1.7,2.4c-1.6,1.3-3.9,2.2-6.3,2.2c-5.5,0-8.7-3.7-8.7-9.3c0-5.5,3.3-9.6,8.8-9.6
		c2.4,0,4.5,0.7,6.2,2.2l-1.8,2.4c-1.4-1-2.9-1.5-4.4-1.5c-2.9,0-4.8,2-4.8,6.5s2,6.2,4.8,6.2C114.5,156.4,115.9,155.8,117.2,154.9z
		"/>
	<path fill="#FFFFFF" d="M145.9,141.2l-0.6,6.6h-2.7v-3.7c-2.5,0.1-4.4,2.1-5.4,5.6v6.7h3.6v2.7h-10.1v-2.7h2.7v-12.5h-2.7v-2.7h5.5
		l0.7,4.1c1.4-3,3.2-4.6,6.3-4.6C144.3,140.7,145.1,140.9,145.9,141.2z"/>
	<path fill="#FFFFFF" d="M160.7,153.7c0,2.1,0.8,3,2.5,3s3.3-1.1,4.2-2.5v-13h3.8v18h-3.3l-0.2-2.3c-1.3,1.8-3.5,2.8-5.6,2.8
		c-3.5,0-5.2-2-5.2-5.4v-13h3.8V153.7z"/>
	<path fill="#FFFFFF" d="M193.6,154.3c0-1.5-0.6-2.1-4.3-3.1c-3.6-0.9-5.9-2.2-5.9-5.3s2.8-5.2,7.2-5.2c3,0,5.2,0.9,6.8,2.1
		l-1.6,2.4c-1.4-0.9-3-1.6-5.1-1.6c-2.4,0-3.4,0.8-3.4,2c0,1.4,1,1.9,4.6,2.9c3.5,1,5.8,2.2,5.8,5.6c0,3.9-3.8,5.6-7.9,5.6
		c-3.3,0-5.7-1.1-7.4-2.5l2-2.3c1.4,1.1,3.3,1.9,5.4,1.9C192.1,156.7,193.6,155.8,193.6,154.3z"/>
	<path fill="#FFFFFF" d="M213.4,143.4c1.5-1.8,3.5-2.7,5.6-2.7c3.4,0,5,2,5,5.3v13.1h-3.8v-12.5c0-2.1-0.8-3-2.6-3
		c-1.7,0-3.2,1.3-4.2,2.7v12.9h-3.8V134l3.8-0.4V143.4z"/>
	<path fill="#FFFFFF" d="M66.7,190.9c0,5.7-2.9,9.5-8.1,9.5s-8.1-3.6-8.1-9.4c0-5.6,2.9-9.5,8.2-9.5S66.7,185.2,66.7,190.9z
		 M54.5,191c0,4.5,1.4,6.5,4.1,6.5c2.8,0,4.1-2,4.1-6.5c0-4.4-1.4-6.5-4.1-6.5S54.5,186.5,54.5,191z"/>
	<path fill="#FFFFFF" d="M77.8,182h3.3l0.3,2.3c1.5-1.8,3.6-2.8,5.8-2.8c3.3,0,5,2,5,5.3v13.1h-3.8v-11.2c0-3.1-0.4-4.3-2.5-4.3
		c-1.8,0-3.3,1.3-4.2,2.6v12.9h-3.8L77.8,182L77.8,182z"/>
	<path fill="#FFFFFF" d="M140,200c-1.4,4.1-3.8,6.8-8.8,7.3l-0.5-2.9c3.6-0.6,4.8-1.9,5.7-4.5h-1.3l-6.1-18h4l4.5,15.3l4.6-15.3h3.9
		L140,200z"/>
	<path fill="#FFFFFF" d="M172.1,190.9c0,5.7-2.9,9.5-8.1,9.5c-5.2,0-8.1-3.6-8.1-9.4c0-5.6,2.9-9.5,8.2-9.5S172.1,185.2,172.1,190.9
		z M159.9,191c0,4.5,1.4,6.5,4.1,6.5c2.8,0,4.1-2,4.1-6.5c0-4.4-1.4-6.5-4.1-6.5C161.3,184.5,159.9,186.5,159.9,191z"/>
	<path fill="#FFFFFF" d="M187,194.5c0,2.1,0.8,3,2.5,3s3.3-1.1,4.2-2.5v-13h3.8v18h-3.3l-0.2-2.3c-1.3,1.8-3.5,2.8-5.6,2.8
		c-3.5,0-5.2-2-5.2-5.4v-13h3.8V194.5z"/>
</g>
<g opacity="0.2">
	<circle fill="#FFFFFF" cx="118.2" cy="506.8" r="6.8"/>
</g>
<g opacity="0.2">
	<circle fill="#FFFFFF" cx="92.2" cy="506.8" r="6.8"/>
</g>
<g opacity="0.2">
	<circle fill="#FFFFFF" cx="144.8" cy="506.8" r="6.8"/>
</g>
<g opacity="0.2">
	<circle fill="#FFFFFF" cx="171.3" cy="506.8" r="6.8"/>
</g>
<g opacity="0.2">
	<circle fill="#FFFFFF" cx="197.6" cy="505.8" r="6.8"/>
</g>
<g opacity="0.2">
	<circle fill="#FFFFFF" cx="224.6" cy="506.8" r="6.8"/>
</g>
<g>
	<g id="g10_6_" transform="matrix(1.25,0,0,-1.25,0,47.5)">
		<g id="g12_5_">
			<g>
				<g>
					<g>
						<g>
							<g id="g14_5_">
								<g id="g20_6_" transform="translate(16.373,35.978)">
									<path id="path22_6_" fill="#5C913B" d="M106.9-224.2c-1.8-1.8-7-8.8-4.4-14.9c2.6-6.1,6.2-2.4,7.9,2.6
										c0.9,2.6,0.9,6.1-0.9,11.4C108.7-222.4,106.9-224.2,106.9-224.2"/>
								</g>
								<g id="g24_6_" transform="translate(35.6768,16.6738)">
									<path id="path26_6_" fill="#5C913B" d="M107.9-225.2c-1.8-1.8-8.8-7-14.9-4.4s-2.4,6.2,2.6,7.9c2.6,0.9,6.1,0.9,11.4-0.9
										C109.7-223.4,107.9-225.2,107.9-225.2"/>
								</g>
								<g id="g28_7_" transform="translate(33.3145,30.6826)">
									<path id="path30_7_" fill="#F4900C" d="M107.8-224.4c0,0-0.2,1.8-0.8,2.4c-0.5,0.6-2.1,0.6-2.1,0.6
										c-1.8,0-21.9-2.6-25.4-20.1c-0.6-3.1,0.1-4.9,0.9-6c0-0.1,0-0.1,0-0.1c0.1-0.1,0.3-0.3,0.5-0.4c0.2-0.2,0.3-0.3,0.4-0.4
										h0.1c1.1-0.8,3-1.7,6.2-1C105-246.2,107.8-226.2,107.8-224.4"/>
								</g>
							</g>
						</g>
					</g>
				</g>
			</g>
		</g>
		<g id="g32_10_">
			<g>
				<g>
					<g>
						<g>
							<g>
								<defs>
									<path id="SVGID_1_" d="M112.8-210.9c-0.6-3.1,0.1-4.9,0.9-6l0,0c0-0.1,0-0.1,0-0.1l0,0c0.1-0.1,0.3-0.3,0.5-0.4l0,0
										c0.2-0.2,0.3-0.3,0.4-0.4l0,0h0.1l0,0c1.1-0.8,3-1.7,6.2-1l0,0c17.5,3.5,20.3,23.5,20.3,25.2l0,0c0,0-0.2,1.8-0.8,2.4l0,0
										c-0.5,0.6-2.1,0.6-2.1,0.6l0,0C136.4-190.8,116.3-193.4,112.8-210.9"/>
								</defs>
								<clipPath id="SVGID_2_">
									<use xlink:href="#SVGID_1_"  overflow="visible"/>
								</clipPath>
								<g id="g34_4_" clip-path="url(#SVGID_2_)">
									<g id="g40_54_" transform="translate(25.7686,26.5654)">
										<path id="path42_53_" fill="#F7B82D" d="M107.4-224.6c-0.5-0.5-1.2-0.5-1.7,0l-1.7,1.7c-0.5,0.5-0.5,1.2,0,1.7
											s1.2,0.5,1.7,0l1.7-1.7C107.9-223.4,107.9-224.2,107.4-224.6"/>
									</g>
									<g id="g44_39_" transform="translate(17.6812,26.5654)">
										<path id="path46_39_" fill="#F7B82D" d="M107-224.6c-0.5-0.5-1.2-0.5-1.7,0l-1.7,1.7c-0.5,0.5-0.5,1.2,0,1.7
											s1.2,0.5,1.7,0l1.7-1.7C107.4-223.4,107.4-224.2,107-224.6"/>
									</g>
									<g id="g48_33_" transform="translate(20.1074,28.9922)">
										<path id="path50_33_" fill="#F7B82D" d="M107.1-224.5c-0.5-0.5-1.2-0.5-1.7,0l-1.7,1.7c-0.5,0.5-0.5,1.2,0,1.7
											s1.2,0.5,1.7,0l1.7-1.7C107.6-223.3,107.6-224.1,107.1-224.5"/>
									</g>
									<g id="g52_35_" transform="translate(15.2559,24.1392)">
										<path id="path54_34_" fill="#F7B82D" d="M106.8-224.8c-0.5-0.5-1.2-0.5-1.7,0l-1.7,1.7c-0.5,0.5-0.5,1.2,0,1.7
											s1.2,0.5,1.7,0l1.7-1.7C107.3-223.5,107.3-224.3,106.8-224.8"/>
									</g>
									<g id="g56_25_" transform="translate(28.1943,28.9922)">
										<path id="path58_25_" fill="#F7B82D" d="M107.5-224.5c-0.5-0.5-1.2-0.5-1.7,0l-1.7,1.7c-0.5,0.5-0.5,1.2,0,1.7
											s1.2,0.5,1.7,0l1.7-1.7C108-223.3,108-224.1,107.5-224.5"/>
									</g>
									<g id="g60_16_" transform="translate(30.6172,31.3828)">
										<path id="path62_30_" fill="#F7B82D" d="M107.6-224.4c-0.5-0.5-1.2-0.5-1.7,0l-1.7,1.7c-0.5,0.5-0.5,1.2,0,1.7
											s1.2,0.5,1.7,0l1.7-1.7C108.1-223.2,108.1-223.9,107.6-224.4"/>
									</g>
									<g id="g64_13_" transform="translate(23.3428,24.1392)">
										<path id="path66_13_" fill="#F7B82D" d="M107.3-224.8c-0.5-0.5-1.2-0.5-1.7,0l-1.7,1.7c-0.5,0.5-0.5,1.2,0,1.7
											s1.2,0.5,1.7,0l1.7-1.7C107.7-223.5,107.7-224.3,107.3-224.8"/>
									</g>
									<g id="g68_13_" transform="translate(20.915,21.7134)">
										<path id="path70_13_" fill="#F7B82D" d="M107.1-224.9c-0.5-0.5-1.2-0.5-1.7,0l-1.7,1.7c-0.5,0.5-0.5,1.2,0,1.7
											s1.2,0.5,1.7,0l1.7-1.7C107.6-223.7,107.6-224.4,107.1-224.9"/>
									</g>
									<g id="g72_13_" transform="translate(16.064,16.8613)">
										<path id="path74_13_" fill="#F7B82D" d="M106.9-225.2c-0.5-0.5-1.2-0.5-1.7,0l-1.7,1.7c-0.5,0.5-0.5,1.2,0,1.7
											s1.2,0.5,1.7,0l1.7-1.7C107.4-223.9,107.4-224.7,106.9-225.2"/>
									</g>
									<g id="g76_10_" transform="translate(18.4902,19.2871)">
										<path id="path78_10_" fill="#F7B82D" d="M107-225c-0.5-0.5-1.2-0.5-1.7,0l-1.7,1.7c-0.5,0.5-0.5,1.2,0,1.7s1.2,0.5,1.7,0
											l1.7-1.7C107.5-223.8,107.5-224.6,107-225"/>
									</g>
								</g>
							</g>
						</g>
					</g>
				</g>
			</g>
		</g>
		<g id="g80_7_">
			<g>
				<g>
					<g>
						<g>
							<g id="g82_2_">
								<g id="g88_6_" transform="translate(28.8662,13.4258)">
									<path id="path90_6_" fill="#77B255" d="M107.6-225.3c-7.5,2.5-15.9-0.7-20.4-3.8c3.1,4.5,6.3,12.9,3.8,20.4
										c-1,2.9-5.9,5.9-8.8,2.9c-1-1-2-2,0-2s4.9-2.9,3.9-5.9c-0.9-2.6-7.3-9.2-4.4-16.2c-0.3-0.1-0.6-0.3-0.8-0.5l-0.8-0.8
										c-1-1-1-2.5,0-3.5l0.8-0.8c1-1,2.5-1,3.5,0l0.8,0.8c0.1,0.1,0.2,0.3,0.3,0.4c7.4-4,14.5,2.9,17.2,3.9c2.9,1,5.9-2,5.9-3.9
										c0-2,1-1,2,0C113.5-231.2,110.5-226.3,107.6-225.3"/>
								</g>
							</g>
						</g>
					</g>
				</g>
			</g>
		</g>
	</g>
	<g id="g10_4_" transform="matrix(1.25,0,0,-1.25,0,47.5)">
		<g id="g12_4_">
			<g>
				<g>
					<g>
						<g>
							<g id="g14_4_">
								<g id="g20_4_" transform="translate(37,19)">
									<path id="path22_4_" fill="#CCD6DD" d="M47.7-225c0-10.5-8.5-18.9-18.9-18.9s-19,8.4-19,18.9s8.5,18.9,18.9,18.9
										S47.7-214.6,47.7-225"/>
								</g>
								<g id="g24_4_" transform="translate(33,19)">
									<path id="path26_4_" fill="#3B88C3" d="M47.5-225c0-8.1-6.6-14.7-14.7-14.7S18-233.2,18-225s6.6,14.7,14.7,14.7
										S47.5-216.9,47.5-225"/>
								</g>
								<g id="g28_5_" transform="translate(29,19)">
									<path id="path30_5_" fill="#DD2E44" d="M47.3-225c0-5.8-4.7-10.5-10.5-10.5s-10.5,4.7-10.5,10.5s4.7,10.5,10.5,10.5
										S47.3-219.2,47.3-225"/>
								</g>
								<g id="g32_8_" transform="translate(25,19)">
									<path id="path34_8_" fill="#FFAC33" d="M47.1-225c0-3.5-2.8-6.3-6.3-6.3s-6.3,2.8-6.3,6.3s2.8,6.3,6.3,6.3
										C44.2-218.7,47.1-221.6,47.1-225"/>
								</g>
								<g id="g36_8_" transform="translate(35.8643,7.8008)">
									<path id="path38_8_" d="M47.6-225.6c-0.4-0.3-1.3-0.6-2-0.6c-2.1,0-4.9,0.8-6.7,2.5l-3.1,4.1c-0.3,0.3-0.4,0.6-0.2,1
										s-0.8,0.6-0.4,0.6h5.3c2,0,4.5-1.3,6.2-3.2l0.4-0.4c0.8-0.9,1.2-1.7,1.2-2.5C48.4-224.8,48.2-225.3,47.6-225.6"/>
								</g>
								<g id="g40_3_" transform="translate(29.3047,1.7959)">
									<path id="path42_3_" d="M47.3-226L47.3-226c-0.8,0-1.7,0.4-2.6,1.3l-0.5,0.4c-1.9,1.7-3.5,4.3-3.5,6.3v5.4
										c0,0.4,0.5-0.5,0.9-0.4c0.4,0.2,1,0.1,1.3-0.2l3.3-3.3c1.8-1.8,3.2-4.9,3.2-7c0-0.7-0.1-1.3-0.5-1.8
										C48.5-225.7,48-226,47.3-226"/>
								</g>
								<g id="g44_6_" transform="translate(32.3447,5.0361)">
									<path id="path46_6_" fill="#C1694F" d="M47.5-225.8c-0.3,0-0.5,0.1-0.7,0.3L32-210.7c-0.4,0.4-0.4,1.1,0,1.5
										c0.4,0.4,1.1,0.4,1.5,0L48.2-224c0.4-0.4,0.4-1.1,0-1.5C48-225.7,47.7-225.8,47.5-225.8"/>
								</g>
							</g>
						</g>
					</g>
				</g>
			</g>
		</g>
	</g>
	<g id="g10_3_" transform="matrix(1.25,0,0,-1.25,0,47.5)">
		<g id="g12_3_">
			<g>
				<g>
					<g>
						<g>
							<g id="g14_3_">
								<g id="g20_3_" transform="translate(35.9639,25.0449)">
									<path id="path22_3_" fill="#FFCC4D" d="M168.2-224.7L168.2-224.7c0,0,1.1,10.5,0,11.5c-1,1-7.1-0.7-8.2-1
										c-2.6,1.3-5.7,2.1-9.7,2.1c-3.9,0-7.1-0.8-9.6-2.1c-1.1,0.3-7.3,2-8.2,1c-1.1-1.1,0-11.6,0-11.6v0.1
										c-0.8-2.7-1.1-5.6-1.1-8.5c0-5.8,3.6-10.3,8-13.2c0.1,6.8-2.4,14.3-6.5,14.3c-0.5,0-0.9-0.1-1.2-0.2c0.3,0.8,1,1.2,2.3,1.2
										c4.5,0,7-8.9,6.4-16c3.3-1.9,7-3,10-3s6.6,1,10,3c-0.6,7.1,1.9,16,6.4,16c1.3,0,2-0.4,2.3-1.2c-0.3,0.1-0.7,0.2-1.2,0.2
										c-4.1,0-6.6-7.5-6.5-14.3c4.4,2.9,8,7.4,8,13.3C169.3-230.3,169-227.4,168.2-224.7"/>
								</g>
								<g id="g24_3_" transform="translate(19,16)">
									<path id="path26_3_" fill="#292F33" d="M167.3-225.2c-2.3,0-4.2-1.9-4.2-4.2v-6.3c0-2.3,1.9-4.2,4.2-4.2s4.2,1.9,4.2,4.2
										v6.3C171.5-227.1,169.6-225.2,167.3-225.2"/>
								</g>
								<g id="g28_4_" transform="translate(18.9995,22)">
									<path id="path30_4_" fill="#67757F" d="M167.3-224.9c3.2,0,3.2-0.5,3.2-1.6s-1.6-3.2-3.2-3.2c-1.6,0-3.2,2.1-3.2,3.2
										S164.2-224.9,167.3-224.9"/>
								</g>
								<g id="g32_6_" transform="translate(30.9238,16.4941)">
									<path id="path34_5_" fill="#9AAAB4" d="M167.9-225.2l-5.3-1.1c-0.3-0.1-0.5-0.3-0.4-0.6s0.3-0.4,0.5-0.4h0.1l4.4,0.9
										C167.5-226,167.7-225.6,167.9-225.2"/>
								</g>
								<g id="g36_5_" transform="translate(34.5605,19)">
									<path id="path38_5_" fill="#9AAAB4" d="M168.1-225L168.1-225l1.7,0.6c0.3,0.1,0.4,0.4,0.3,0.7c-0.1,0.3-0.4,0.4-0.7,0.3
										l-9.5-3.2c-0.3-0.1-0.4-0.4-0.3-0.7c0.1-0.2,0.3-0.4,0.5-0.4c0.1,0,0.1,0,0.2,0l5.7,1.9C166.7-225.3,167.4-225,168.1-225"
										/>
								</g>
								<g id="g40_2_" transform="translate(12.0981,15.4902)">
									<path id="path42_2_" fill="#9AAAB4" d="M167-225.2l-5.3,1.1c0.2-0.4,0.5-0.8,0.7-1.2l4.4-0.9h0.1c0.2,0,0.5,0.2,0.5,0.4
										C167.4-225.6,167.2-225.3,167-225.2"/>
								</g>
								<g id="g44_1_" transform="translate(11.1582,17.4746)">
									<path id="path46_1_" fill="#9AAAB4" d="M166.9-225.1l-9.5,3.2c-0.3,0.1-0.6-0.1-0.7-0.3c-0.1-0.3,0.1-0.6,0.3-0.7l1.7-0.6
										l0,0c0.7,0,1.4-0.3,2.1-0.7l5.7-1.9c0.1,0,0.1,0,0.2,0c0.2,0,0.4,0.1,0.5,0.4C167.3-225.5,167.2-225.2,166.9-225.1"/>
								</g>
								<g id="g48_1_" transform="translate(8.3472,26.3345)">
									<path id="path50_1_" fill="#F5F8FA" d="M166.8-224.7c-1-3.3,0.1-6.6,2.5-7.3s5.1,1.4,6.1,4.8c1,3.3-0.1,6.6-2.5,7.3
										C170.5-219.2,167.8-221.3,166.8-224.7"/>
								</g>
								<g id="g52_8_" transform="translate(29.6523,26.3345)">
									<path id="path54_8_" fill="#F5F8FA" d="M167.9-224.7c1-3.3-0.1-6.6-2.5-7.3s-5.1,1.4-6.1,4.8c-1,3.3,0.1,6.6,2.5,7.3
										S166.9-221.3,167.9-224.7"/>
								</g>
								<g id="g56_5_" transform="translate(36.7529,17.8174)">
									<path id="path58_5_" fill="#FCAB40" d="M168.3-225.1c-0.3,0.1-0.7,0.2-1.2,0.2c-4.9,0-7.4-10.5-6.2-17.9h6.8
										C165.6-235.4,169.4-228,168.3-225.1"/>
								</g>
								<g id="g60_13_" transform="translate(2.4043,18)">
									<path id="path62_8_" fill="#FCAB40" d="M166.4-225.1c-0.5,0-0.9-0.1-1.2-0.2c0.1,0.2,0.2,0.4,0.3,0.5
										c-2-2.4,2.4-10.4,0.3-18.2h6.8C173.9-235.7,171.3-225.1,166.4-225.1"/>
								</g>
							</g>
						</g>
					</g>
				</g>
			</g>
		</g>
	</g>
</g>
<g>
	<g>
		<path fill="none" stroke="#FFFFFF" stroke-width="1.1932" stroke-miterlimit="10" d="M182.7,332.7c18.3,6.3,32.3,19.7,27.1,37.8"
			/>
		<g>
			<polygon fill="#FFFFFF" points="184.5,338.6 185.4,338.1 182.5,333 187.9,330.5 187.4,329.4 180.8,332.5 			"/>
		</g>
	</g>
</g>
<g id="g10_106_" transform="matrix(1.25,0,0,-1.25,0,47.5)">
	<g id="g12_124_">
		<g id="g14_123_">
			<g id="g20_115_" transform="translate(36,19)">
				<path id="path22_115_" fill="#FFCC4D" d="M106.5-386.4c0-3-2.4-5.4-5.4-5.4s-5.4,2.4-5.4,5.4s2.4,5.4,5.4,5.4
					C104-381,106.5-383.4,106.5-386.4"/>
			</g>
			<g id="g24_105_" transform="translate(29.3125,21.3882)">
				<path id="path26_105_" fill="#664500" d="M111-388c-0.1,0-0.1,0-0.2,0c0,0-0.4-0.3-1.2-0.3s-1.2,0.3-1.2,0.3c-0.1,0-0.1,0-0.2,0
					s-0.1-0.1,0-0.2c0,0,0.5-1,1.4-1s1.4,1,1.4,1C111.1-388.2,111.1-388.1,111-388"/>
			</g>
			<g id="g28_75_" transform="translate(16.7021,21.4019)">
				<path id="path30_66_" fill="#664500" d="M119.6-388.1c0,0-0.4-0.3-1.2-0.3c-0.8,0-1.2,0.3-1.2,0.3c-0.1,0-0.1,0-0.2,0
					s-0.1-0.1,0-0.2c0,0,0.5-1,1.4-1s1.4,1,1.4,1c0,0.1,0,0.1,0,0.2C119.7-388,119.7-388,119.6-388.1"/>
			</g>
			<g id="g32_53_" transform="translate(30.001,24)">
				<path id="path34_52_" fill="#664500" d="M110.5-389.8c-0.1,0-0.2,0-0.3,0.1c-0.8,1.1-2.2,0.8-2.2,0.8c-0.2,0-0.3,0.1-0.4,0.2
					c0,0.2,0.1,0.3,0.2,0.4c0.1,0,1.8,0.3,2.9-1.1C110.8-389.5,110.8-389.7,110.5-389.8C110.7-389.8,110.6-389.8,110.5-389.8"/>
			</g>
			<g id="g36_48_" transform="translate(7.999,24)">
				<path id="path38_48_" fill="#664500" d="M125.5-389.8c-0.1,0-0.1,0-0.2,0.1s-0.2,0.3-0.1,0.4c1.1,1.4,2.8,1.1,2.9,1.1
					c0.2,0,0.3-0.2,0.2-0.4c0-0.2-0.2-0.3-0.4-0.2c-0.1,0-1.4,0.3-2.2-0.8C125.7-389.8,125.6-389.8,125.5-389.8"/>
			</g>
			<g id="g40_32_" transform="translate(24.2539,13.4229)">
				<path id="path42_32_" fill="#664500" d="M114.5-382.6c-0.1,0-0.1,0-0.2,0c0,0-0.3-0.3-1.5-0.3s-1.5,0.3-1.5,0.3
					c-0.1,0.1-0.1,0.1-0.2,0c-0.1,0-0.1-0.1-0.1-0.2c0,0,0.4-1.4,1.7-1.4c1.4,0,1.7,1.4,1.7,1.4
					C114.6-382.7,114.5-382.6,114.5-382.6"/>
			</g>
		</g>
	</g>
</g>
<g opacity="0.35">
	<g>
		<circle fill="#00E7FF" cx="171.3" cy="284.9" r="32.3"/>
	</g>
</g>
<rect x="13.8" y="384.5" fill="none" width="287.4" height="162"/>
<g>
	<text transform="matrix(1 0 0 1 40.8618 393.725)"><tspan x="0" y="0" fill="#FFFFFF" font-family="'FiraMono-Medium'" font-size="21.6">PICK AN EMOJI KEY </tspan><tspan x="6.5" y="25.9" fill="#FFFFFF" font-family="'FiraMono-Medium'" font-size="21.6">TO SCRAMBLE YOUR </tspan><tspan x="71.3" y="51.8" fill="#FFFFFF" font-family="'FiraMono-Medium'" font-size="21.6">MESSAGE</tspan></text>
</g>
</svg>
