<?xml version="1.0" encoding="utf-8"?>
<!-- Generator: Adobe Illustrator 18.0.0, SVG Export Plug-In . SVG Version: 6.00 Build 0)  -->
<!DOCTYPE svg PUBLIC "-//W3C//DTD SVG 1.1//EN" "http://www.w3.org/Graphics/SVG/1.1/DTD/svg11.dtd">
<svg version="1.1" id="Layer_1" xmlns="http://www.w3.org/2000/svg" xmlns:xlink="http://www.w3.org/1999/xlink" x="0px" y="0px"
	 viewBox="0 0 315 560" enable-background="new 0 0 315 560" xml:space="preserve">
<polyline fill="#283344" points="0,560 0,0 315,0 315,560 "/>
<rect x="13.6" y="299.7" fill="none" width="287.4" height="162"/>
<text transform="matrix(1 0 0 1 27.6878 316.0111)"><tspan x="0" y="0" fill="#FFFFFF" font-family="'FiraMono-Medium'" font-size="21.6">CRYPTOLOJI SHOWS YOU </tspan><tspan x="0" y="25.9" fill="#FFFFFF" font-family="'FiraMono-Medium'" font-size="21.6">HOW ENCRYPTION WORKS </tspan><tspan x="19.4" y="51.8" fill="#FFFFFF" font-family="'FiraMono-Medium'" font-size="21.6">BY USING A SIMPLE </tspan><tspan x="13" y="77.8" fill="#FFFFFF" font-family="'FiraMono-Medium'" font-size="21.6">CIPHER TO SCRAMBLE </tspan><tspan x="19.4" y="103.7" fill="#FFFFFF" font-family="'FiraMono-Medium'" font-size="21.6">YOUR MESSAGE INTO </tspan><tspan x="90.7" y="129.6" fill="#FFFFFF" font-family="'FiraMono-Medium'" font-size="21.6">EMOJIS</tspan></text>
<g id="back">
</g>
<g id="notes">
</g>
<g id="input">
</g>
<g id="landing_pages">
</g>
<g opacity="0.2">
	<circle fill="#FFFFFF" cx="118.2" cy="506.8" r="6.8"/>
</g>
<g opacity="0.2">
	<circle fill="#FFFFFF" cx="92.2" cy="506.8" r="6.8"/>
</g>
<g opacity="0.2">
	<circle fill="#FFFFFF" cx="144.8" cy="506.8" r="6.8"/>
</g>
<g opacity="0.2">
	<circle fill="#FFFFFF" cx="171.3" cy="506.8" r="6.8"/>
</g>
<g opacity="0.2">
	<circle fill="#FFFFFF" cx="197.6" cy="506.8" r="6.8"/>
</g>
<g opacity="0.2">
	<circle fill="#FFFFFF" cx="224.6" cy="506.8" r="6.8"/>
</g>
<g id="g10_110_" transform="matrix(1.25,0,0,-1.25,0,47.5)">
	<g id="g12_128_">
		<g id="g14_127_">
			<g id="g20_119_" transform="translate(36,19)">
				<path id="path22_119_" fill="#FFCC4D" d="M64-386.4c0-3-2.4-5.4-5.4-5.4c-3,0-5.4,2.4-5.4,5.4s2.4,5.4,5.4,5.4
					C61.6-381,64-383.4,64-386.4"/>
			</g>
			<g id="g24_109_" transform="translate(19,16)">
				<path id="path26_109_" fill="#664500" d="M75.6-384.4c-1.2,0-1.9,0.1-2.9,0.3c-0.2,0-0.6,0-0.6-0.6c0-1.3,1.5-2.9,3.5-2.9
					c2,0,3.5,1.6,3.5,2.9c0,0.6-0.4,0.7-0.6,0.6C77.5-384.2,76.7-384.4,75.6-384.4"/>
			</g>
			<g id="g28_79_" transform="translate(11,24)">
				<path id="path30_70_" fill="#664500" d="M81-389.8c0,0,0,0.6,0.6,0.6s0.6-0.6,0.6-0.6v-0.6c0,0,0-0.6-0.6-0.6s-0.6,0.6-0.6,0.6
					V-389.8z"/>
			</g>
			<g id="g32_56_" transform="translate(23,24)">
				<path id="path34_55_" fill="#664500" d="M72.9-389.8c0,0,0,0.6,0.6,0.6s0.6-0.6,0.6-0.6v-0.6c0,0,0-0.6-0.6-0.6
					s-0.6,0.6-0.6,0.6V-389.8z"/>
			</g>
			<g id="g36_50_" transform="translate(10,15)">
				<path id="path38_50_" fill="#FFFFFF" d="M81.7-383.7c0,0,1-0.3,2.9-0.3c1.9,0,2.9,0.3,2.9,0.3s-0.6-1.3-2.9-1.3
					S81.7-383.7,81.7-383.7"/>
			</g>
		</g>
	</g>
</g>
<g>
	<g id="g10_119_" transform="matrix(1.25,0,0,-1.25,0,47.5)">
		<g id="g12_137_">
			<g>
				<g>
					<g>
						<g id="g14_137_">
							<g id="g20_129_" transform="translate(37,5)">
								<path id="path22_129_" fill="#3B88C3" d="M61.8-74.3c0-2.2-1.8-4-4-4h-28c-2.2,0-4,1.8-4,4v28c0,2.2,1.8,4,4,4h28
									c2.2,0,4-1.8,4-4V-74.3z"/>
							</g>
							<g id="g24_119_" transform="translate(13.2192,27.3789)">
								<path id="path26_119_" fill="#FFFFFF" d="M61.8-74.3c0,1.5,0.8,2.7,2.4,2.7h7.7c1.5,0,2.2-1.1,2.2-2.1
									c0-1.1-0.7-2.1-2.2-2.1h-5.5v-4.5h5.1c1.5,0,2.3-1.1,2.3-2.1c0-1.1-0.8-2.1-2.3-2.1h-5.1v-4.7h5.7c1.5,0,2.2-1.1,2.2-2.1
									c0-1.1-0.7-2.1-2.2-2.1h-8c-1.4,0-2.4,0.9-2.4,2.3L61.8-74.3L61.8-74.3L61.8-74.3z"/>
							</g>
						</g>
					</g>
				</g>
			</g>
		</g>
	</g>
</g>
<g>
	<g id="g10_118_" transform="matrix(1.25,0,0,-1.25,0,47.5)">
		<g id="g12_136_">
			<g>
				<g>
					<g>
						<g id="g14_136_">
							<g id="g20_128_" transform="translate(37,5)">
								<path id="path22_128_" fill="#3B88C3" d="M16.5-74.3c0-2.2-1.8-4-4-4h-28c-2.2,0-4,1.8-4,4v28c0,2.2,1.8,4,4,4h28
									c2.2,0,4-1.8,4-4V-74.3z"/>
							</g>
							<g id="g24_118_" transform="translate(26.5,30)">
								<path id="path26_118_" fill="#FFFFFF" d="M16.5-74.3c-1.4,0-2.5-1.1-2.5-2.5v-5.5H4v5.5c0,1.4-1.1,2.5-2.5,2.5
									S-1-75.4-1-76.8v-17c0-1.4,1.1-2.5,2.5-2.5S4-95.2,4-93.8v6.5h10v-6.5c0-1.4,1.1-2.5,2.5-2.5s2.5,1.1,2.5,2.5v17
									C19-75.4,17.9-74.3,16.5-74.3"/>
							</g>
						</g>
					</g>
				</g>
			</g>
		</g>
	</g>
</g>
<g>
	<g id="g10_117_" transform="matrix(1.25,0,0,-1.25,0,47.5)">
		<g id="g12_135_">
			<g>
				<g>
					<g>
						<g id="g14_135_">
							<g id="g20_127_" transform="translate(37,5)">
								<path id="path22_127_" fill="#3B88C3" d="M107-74.3c0-2.2-1.8-4-4-4H75c-2.2,0-4,1.8-4,4v28c0,2.2,1.8,4,4,4h28
									c2.2,0,4-1.8,4-4V-74.3z"/>
							</g>
							<g id="g24_117_" transform="translate(13.7925,27.8438)">
								<path id="path26_117_" fill="#FFFFFF" d="M107-74.3c0,1.6,1,2.4,2.3,2.4c1.3,0,2.3-0.9,2.3-2.4v-15.6h5.5
									c1.6,0,2.3-1.2,2.2-2.2c-0.1-1-0.9-2-2.2-2h-7.8c-1.5,0-2.4,1-2.4,2.5L107-74.3L107-74.3z"/>
							</g>
						</g>
					</g>
				</g>
			</g>
		</g>
	</g>
</g>
<g>
	<g id="g10_116_" transform="matrix(1.25,0,0,-1.25,0,47.5)">
		<g id="g12_134_">
			<g>
				<g>
					<g>
						<g id="g14_134_">
							<g id="g20_126_" transform="translate(37,5)">
								<path id="path22_126_" fill="#3B88C3" d="M152.3-74.3c0-2.2-1.8-4-4-4h-28c-2.2,0-4,1.8-4,4v28c0,2.2,1.8,4,4,4h28
									c2.2,0,4-1.8,4-4V-74.3z"/>
							</g>
							<g id="g24_116_" transform="translate(13.7925,27.8438)">
								<path id="path26_116_" fill="#FFFFFF" d="M152.3-74.3c0,1.6,1,2.4,2.3,2.4c1.3,0,2.3-0.9,2.3-2.4v-15.6h5.5
									c1.6,0,2.3-1.2,2.2-2.2c-0.1-1-0.9-2-2.2-2h-7.8c-1.5,0-2.4,1-2.4,2.5L152.3-74.3L152.3-74.3z"/>
							</g>
						</g>
					</g>
				</g>
			</g>
		</g>
	</g>
</g>
<g>
	<g id="g10_1_" transform="matrix(1.25,0,0,-1.25,0,47.5)">
		<g id="g12_1_">
			<g>
				<g>
					<g>
						<g id="g14_1_">
							<g id="g20_1_" transform="translate(37,5)">
								<path id="path22_1_" fill="#3B88C3" d="M197.6-74.3c0-2.2-1.8-4-4-4h-28c-2.2,0-4,1.8-4,4v28c0,2.2,1.8,4,4,4h28
									c2.2,0,4-1.8,4-4V-74.3z"/>
							</g>
							<g id="g24_1_" transform="translate(24.832,19.0381)">
								<path id="path26_1_" fill="#FFFFFF" d="M197.6-74.3c0,3.8-2,7.1-5.8,7.1c-3.9,0-5.8-3.4-5.8-7.1c0-3.8,1.9-7.1,5.8-7.1
									C195.7-81.4,197.6-78.1,197.6-74.3 M181.1-74.3c0,6.4,4.3,11.4,10.7,11.4c6.2,0,10.7-5.1,10.7-11.4
									c0-6.4-4.3-11.4-10.7-11.4C185.5-85.7,181.1-80.7,181.1-74.3"/>
							</g>
						</g>
					</g>
				</g>
			</g>
		</g>
	</g>
</g>
<g opacity="0.5">
	<g>
		
			<line fill="none" stroke="#FFFFFF" stroke-width="1.5" stroke-linecap="round" stroke-miterlimit="10" x1="44.4" y1="150.2" x2="44.4" y2="150.2"/>
		
			<line fill="none" stroke="#FFFFFF" stroke-width="1.5" stroke-linecap="round" stroke-miterlimit="10" stroke-dasharray="0,2.9109" x1="44.4" y1="153.1" x2="44.4" y2="186.6"/>
		
			<line fill="none" stroke="#FFFFFF" stroke-width="1.5" stroke-linecap="round" stroke-miterlimit="10" x1="44.4" y1="188.1" x2="44.4" y2="188.1"/>
	</g>
</g>
<g opacity="0.5">
	<g>
		
			<line fill="none" stroke="#FFFFFF" stroke-width="1.5" stroke-linecap="round" stroke-miterlimit="10" x1="101.1" y1="150.2" x2="101.1" y2="150.2"/>
		
			<line fill="none" stroke="#FFFFFF" stroke-width="1.5" stroke-linecap="round" stroke-miterlimit="10" stroke-dasharray="0,2.9109" x1="101.1" y1="153.1" x2="101.1" y2="186.6"/>
		
			<line fill="none" stroke="#FFFFFF" stroke-width="1.5" stroke-linecap="round" stroke-miterlimit="10" x1="101.1" y1="188.1" x2="101.1" y2="188.1"/>
	</g>
</g>
<g opacity="0.5">
	<g>
		
			<line fill="none" stroke="#FFFFFF" stroke-width="1.5" stroke-linecap="round" stroke-miterlimit="10" x1="157.9" y1="150.2" x2="157.9" y2="150.2"/>
		
			<line fill="none" stroke="#FFFFFF" stroke-width="1.5" stroke-linecap="round" stroke-miterlimit="10" stroke-dasharray="0,2.9109" x1="157.9" y1="153.1" x2="157.9" y2="186.6"/>
		
			<line fill="none" stroke="#FFFFFF" stroke-width="1.5" stroke-linecap="round" stroke-miterlimit="10" x1="157.9" y1="188.1" x2="157.9" y2="188.1"/>
	</g>
</g>
<g opacity="0.5">
	<g>
		
			<line fill="none" stroke="#FFFFFF" stroke-width="1.5" stroke-linecap="round" stroke-miterlimit="10" x1="214.6" y1="150.2" x2="214.6" y2="150.2"/>
		
			<line fill="none" stroke="#FFFFFF" stroke-width="1.5" stroke-linecap="round" stroke-miterlimit="10" stroke-dasharray="0,2.9109" x1="214.6" y1="153.1" x2="214.6" y2="186.6"/>
		
			<line fill="none" stroke="#FFFFFF" stroke-width="1.5" stroke-linecap="round" stroke-miterlimit="10" x1="214.6" y1="188.1" x2="214.6" y2="188.1"/>
	</g>
</g>
<g opacity="0.5">
	<g>
		
			<line fill="none" stroke="#FFFFFF" stroke-width="1.5" stroke-linecap="round" stroke-miterlimit="10" x1="271.4" y1="150.2" x2="271.4" y2="150.2"/>
		
			<line fill="none" stroke="#FFFFFF" stroke-width="1.5" stroke-linecap="round" stroke-miterlimit="10" stroke-dasharray="0,2.9109" x1="271.4" y1="153.1" x2="271.4" y2="186.6"/>
		
			<line fill="none" stroke="#FFFFFF" stroke-width="1.5" stroke-linecap="round" stroke-miterlimit="10" x1="271.4" y1="188.1" x2="271.4" y2="188.1"/>
	</g>
</g>
<g id="g10_121_" transform="matrix(1.25,0,0,-1.25,0,47.5)">
	<g id="g12_139_">
		<g>
			<g>
				<g>
					<g id="g14_139_">
						<g id="g20_131_" transform="translate(36.3369,13.4512)">
							<path id="path22_131_" fill="#FFAC33" d="M16.5-158.5c-1-6.3-7.7-10.5-17.2-10.5s-16.2,4.2-17.2,10.5
								c-0.2,1.5,0.2,8.1,1.1,9.4c2.6,3.7,3.5-10.4,16.2-10.4c13.8,0,13.6,14,16.2,10.4C16.3-150.4,16.7-157.1,16.5-158.5"/>
						</g>
						<g id="g24_121_" transform="translate(19.0923,17.6309)">
							<path id="path26_121_" fill="#8A4B38" d="M16.5-158.5c-3.2,0-5.7,0.7-5.7,1.6c0,0.9,2.6,1.6,5.7,1.6c3.2,0,5.7-0.7,5.7-1.6
								C22.2-157.8,19.7-158.5,16.5-158.5 M16.5-145.2c-9.3,0-16.9-4.6-16.9-10.2c0-5.7,7.6-10.2,16.9-10.2s16.9,4.6,16.9,10.2
								C33.4-149.7,25.8-145.2,16.5-145.2"/>
						</g>
						<g id="g28_3_" transform="translate(2.7197,22.3774)">
							<path id="path30_3_" fill="#8A4B38" d="M16.5-158.5c-0.7-1-0.9-5.5,0.5-7.6c2.1-3.2,3.2-1.6,4.7-2c2.3-0.7,2.5-2.6,4.4-3.5
								c2.1-1,3.3-0.7,6.3,0c4.2,1,6.8-1.1,9.4,0c2.1,0.9,3.3,4.1,4.5,4.5c3.7,1.2,4.5,7.1,1.7,9.5c-0.9-1.8-5.1-8.4-7.9-8.7
								c-2.7-0.3-11-1-14.5,0.8s-7,4-7.4,4.6C17.7-160.3,16.5-158.5,16.5-158.5"/>
						</g>
						<g id="g32_1_" transform="translate(19.0923,23.1177)">
							<path id="path34_1_" fill="#F4900C" d="M16.5-158.5c-3.8,0-6.8-1.2-6.8-2.7c0-0.6,0.5-1.1,1.2-1.6c-0.1,0.1-0.2,0.3-0.2,0.4
								c0,0.9,2.6,1.6,5.7,1.6c3.2,0,5.7-0.7,5.7-1.6c0-0.1-0.1-0.3-0.2-0.4c0.8,0.4,1.2,1,1.2,1.6
								C23.3-159.8,20.2-158.5,16.5-158.5"/>
						</g>
						<g id="g36_1_" transform="translate(5.4199,18.8496)">
							<path id="path38_1_" fill="#F4ABBA" d="M16.5-158.5c-0.4,0-0.7,0.2-0.9,0.6c-0.3,0.5-0.1,1.1,0.4,1.4l2.3,1.2
								c0.5,0.3,1.1,0.1,1.4-0.4c0.3-0.5,0.1-1.1-0.4-1.4l-2.3-1.2C16.8-158.5,16.6-158.5,16.5-158.5"/>
						</g>
						<g id="g40_7_" transform="translate(17.3071,11.0557)">
							<path id="path42_7_" fill="#F4ABBA" d="M16.5-158.5c-0.4,0-0.8,0.2-1,0.6l-0.7,1.8c-0.2,0.5,0,1.1,0.6,1.4
								c0.5,0.2,1.1,0,1.4-0.6l0.7-1.8c0.2-0.5,0-1.1-0.6-1.4C16.8-158.5,16.6-158.5,16.5-158.5"/>
						</g>
						<g id="g44_7_" transform="translate(29.1514,15.2363)">
							<path id="path46_7_" fill="#55ACEE" d="M16.5-158.5c-0.2,0-0.4,0-0.5,0.1c-0.5,0.3-0.7,0.9-0.4,1.4l1.1,1.9
								c0.3,0.5,0.9,0.7,1.4,0.4c0.5-0.3,0.7-0.9,0.4-1.4l-1.1-1.9C17.2-158.4,16.8-158.5,16.5-158.5"/>
						</g>
						<g id="g48_7_" transform="translate(30.8926,23)">
							<path id="path50_7_" fill="#F4ABBA" d="M16.5-158.5c-0.6,0-1,0.5-1,1c0,0.6,0.4,1.1,1,1.1l1.2,0.1c0.6,0,1.1-0.4,1.1-1
								s-0.4-1.1-1-1.1L16.5-158.5L16.5-158.5z"/>
						</g>
						<g id="g52_7_" transform="translate(20.792,27.1235)">
							<path id="path54_7_" fill="#F4ABBA" d="M16.5-158.5c-0.4,0-0.9,0.3-1,0.7c-0.2,0.6,0.1,1.1,0.7,1.3l0.8,0.3
								c0.6,0.2,1.1-0.1,1.3-0.7c0.2-0.6-0.1-1.1-0.7-1.3l-0.8-0.3C16.7-158.5,16.6-158.5,16.5-158.5"/>
						</g>
						<g id="g56_6_" transform="translate(14.9976,25.4258)">
							<path id="path58_6_" fill="#88C9F9" d="M16.5-158.5c-0.2,0-0.3,0-0.5,0.1l-0.8,0.4c-0.5,0.3-0.7,0.9-0.5,1.4
								c0.3,0.5,0.9,0.7,1.4,0.5l0.8-0.4c0.5-0.3,0.7-0.9,0.5-1.4C17.2-158.3,16.9-158.5,16.5-158.5"/>
						</g>
						<g id="g60_17_" transform="translate(24.0996,12.1465)">
							<path id="path62_7_" fill="#88C9F9" d="M16.5-158.5c-0.2,0-0.3,0-0.5,0.1l-0.8,0.4c-0.5,0.3-0.7,0.9-0.5,1.4
								c0.3,0.5,0.9,0.7,1.4,0.5l0.8-0.4c0.5-0.3,0.7-0.9,0.5-1.4C17.2-158.3,16.9-158.5,16.5-158.5"/>
						</g>
						<g id="g64_9_" transform="translate(10.4263,14.4521)">
							<path id="path66_9_" fill="#55ACEE" d="M16.5-158.5c-0.1,0-0.3,0-0.4,0.1c-0.5,0.2-0.8,0.8-0.5,1.4l0.4,0.9
								c0.2,0.5,0.8,0.8,1.4,0.5c0.5-0.2,0.8-0.8,0.5-1.4l-0.4-0.9C17.3-158.3,16.9-158.5,16.5-158.5"/>
						</g>
						<g id="g68_9_" transform="translate(26.0176,24.3369)">
							<path id="path70_9_" fill="#55ACEE" d="M16.5-158.5c-0.4,0-0.8,0.2-1,0.6c-0.2,0.5,0,1.1,0.5,1.4l0.7,0.3
								c0.5,0.2,1.1,0,1.4-0.5c0.2-0.5,0-1.1-0.5-1.4l-0.7-0.3C16.8-158.5,16.6-158.5,16.5-158.5"/>
						</g>
						<g id="g72_9_" transform="translate(9.0347,24.3804)">
							<path id="path74_9_" fill="#55ACEE" d="M16.5-158.5c-0.1,0-0.2,0-0.2,0l-0.6,0.1c-0.6,0.1-0.9,0.7-0.8,1.3s0.7,0.9,1.3,0.8
								l0.6-0.1c0.6-0.1,0.9-0.7,0.8-1.3C17.4-158.2,17-158.5,16.5-158.5"/>
						</g>
					</g>
				</g>
			</g>
		</g>
	</g>
</g>
<g id="g10_60_" transform="matrix(1.25,0,0,-1.25,0,47.5)">
	<g id="g12_82_">
		<g>
			<g>
				<g>
					<g id="g14_83_">
						<g id="g20_73_" transform="translate(31,33)">
							<path id="path22_73_" fill="#77B255" d="M107.9-158.5c-2.2,0-4-1.8-4-4v-9.1c0-1.1-0.9-2-2-2.4v13.6c0,3.3-2.7,6-6,6
								c-3.3,0-6-2.7-6-6V-178c-1.1,0.5-2,1.4-2,2.5v5.1c0,2.2-1.8,4-4,4c-2.2,0-4-1.8-4-4v-7c0-2.2,1.8-3.9,3.4-4.8
								c1.2-0.7,4.7-1.6,6.6-1.7v-3.5c0-3.3,12-3.3,12,0v7.5c2,0.1,5.3,1,6.5,1.6c1.6,0.9,3.5,2.6,3.5,4.8v11
								C111.9-160.3,110.1-158.5,107.9-158.5"/>
						</g>
						<g id="g24_60_" transform="translate(14,31)">
							<path id="path26_60_" fill="#3E721D" d="M107.9-158.5c0-0.6-0.4-1-1-1s-1,0.4-1,1s0.4,1,1,1S107.9-158,107.9-158.5"/>
						</g>
						<g id="g28_70_" transform="translate(25,34)">
							<path id="path30_58_" fill="#3E721D" d="M107.9-158.5c0-0.6-0.4-1-1-1s-1,0.4-1,1s0.4,1,1,1
								C107.4-157.5,107.9-158,107.9-158.5"/>
						</g>
						<g id="g32_45_" transform="translate(23,28)">
							<path id="path34_44_" fill="#3E721D" d="M107.9-158.5c0-0.6-0.4-1-1-1s-1,0.4-1,1s0.4,1,1,1
								C107.4-157.5,107.9-158,107.9-158.5"/>
						</g>
						<g id="g36_40_" transform="translate(16,21)">
							<path id="path38_40_" fill="#3E721D" d="M107.9-158.5c0-0.6-0.4-1-1-1s-1,0.4-1,1s0.4,1,1,1
								C107.4-157.5,107.9-158,107.9-158.5"/>
						</g>
						<g id="g40_40_" transform="translate(22,17)">
							<path id="path42_39_" fill="#3E721D" d="M107.9-158.5c0-0.6-0.4-1-1-1s-1,0.4-1,1s0.4,1,1,1
								C107.4-157.5,107.9-158,107.9-158.5"/>
						</g>
						<g id="g44_29_" transform="translate(15,11)">
							<path id="path46_29_" fill="#3E721D" d="M107.9-158.5c0-0.6-0.4-1-1-1c-0.6,0-1,0.4-1,1s0.4,1,1,1
								C107.4-157.5,107.9-158,107.9-158.5"/>
						</g>
						<g id="g48_25_" transform="translate(7,10)">
							<path id="path50_25_" fill="#3E721D" d="M107.9-158.5c0-0.6-0.4-1-1-1s-1,0.4-1,1s0.4,1,1,1
								C107.4-157.5,107.9-158,107.9-158.5"/>
						</g>
						<g id="g52_24_" transform="translate(11,17)">
							<path id="path54_23_" fill="#3E721D" d="M107.9-158.5c0-0.6-0.4-1-1-1s-1,0.4-1,1s0.4,1,1,1
								C107.4-157.5,107.9-158,107.9-158.5"/>
						</g>
						<g id="g56_18_" transform="translate(4,19)">
							<path id="path58_18_" fill="#3E721D" d="M107.9-158.5c0-0.6-0.4-1-1-1s-1,0.4-1,1s0.4,1,1,1
								C107.4-157.5,107.9-158,107.9-158.5"/>
						</g>
						<g id="g60_34_" transform="translate(36,29)">
							<path id="path62_22_" fill="#3E721D" d="M107.9-158.5c0-0.6-0.4-1-1-1s-1,0.4-1,1s0.4,1,1,1
								C107.4-157.5,107.9-158,107.9-158.5"/>
						</g>
						<g id="g64_17_" transform="translate(30,26)">
							<path id="path66_17_" fill="#3E721D" d="M107.9-158.5c0-0.6-0.4-1-1-1s-1,0.4-1,1s0.4,1,1,1
								C107.4-157.5,107.9-158,107.9-158.5"/>
						</g>
						<g id="g68_17_" transform="translate(34,21)">
							<path id="path70_17_" fill="#3E721D" d="M107.9-158.5c0-0.6-0.4-1-1-1s-1,0.4-1,1s0.4,1,1,1
								C107.4-157.5,107.9-158,107.9-158.5"/>
						</g>
						<g id="g72_8_" transform="translate(31,13)">
							<path id="path74_8_" fill="#3E721D" d="M107.9-158.5c0-0.6-0.4-1-1-1s-1,0.4-1,1s0.4,1,1,1
								C107.4-157.5,107.9-158,107.9-158.5"/>
						</g>
						<g id="g76_13_" transform="translate(24,7)">
							<path id="path78_13_" fill="#3E721D" d="M107.9-158.5c0-0.6-0.4-1-1-1s-1,0.4-1,1s0.4,1,1,1
								C107.4-157.5,107.9-158,107.9-158.5"/>
						</g>
					</g>
				</g>
			</g>
		</g>
	</g>
</g>
<g id="g10_123_" transform="matrix(1.25,0,0,-1.25,0,47.5)">
	<g id="g12_141_">
		<g>
			<g>
				<g>
					<g id="g14_141_">
						<g id="g20_133_" transform="translate(31,33)">
							<path id="path22_133_" fill="#77B255" d="M152.3-158.5c-2.2,0-4-1.8-4-4v-9.1c0-1.1-0.9-2-2-2.4v13.6c0,3.3-2.7,6-6,6
								c-3.3,0-6-2.7-6-6V-178c-1.1,0.5-2,1.4-2,2.5v5.1c0,2.2-1.8,4-4,4c-2.2,0-4-1.8-4-4v-7c0-2.2,1.8-3.9,3.4-4.8
								c1.2-0.7,4.7-1.6,6.6-1.7v-3.5c0-3.3,12-3.3,12,0v7.5c2,0.1,5.3,1,6.5,1.6c1.6,0.9,3.5,2.6,3.5,4.8v11
								C156.3-160.3,154.5-158.5,152.3-158.5"/>
						</g>
						<g id="g24_123_" transform="translate(14,31)">
							<path id="path26_123_" fill="#3E721D" d="M152.3-158.5c0-0.6-0.4-1-1-1c-0.6,0-1,0.4-1,1s0.4,1,1,1
								C151.9-157.5,152.3-158,152.3-158.5"/>
						</g>
						<g id="g28_83_" transform="translate(25,34)">
							<path id="path30_74_" fill="#3E721D" d="M152.3-158.5c0-0.6-0.4-1-1-1s-1,0.4-1,1s0.4,1,1,1
								C151.9-157.5,152.3-158,152.3-158.5"/>
						</g>
						<g id="g32_7_" transform="translate(23,28)">
							<path id="path34_6_" fill="#3E721D" d="M152.3-158.5c0-0.6-0.4-1-1-1s-1,0.4-1,1s0.4,1,1,1
								C151.9-157.5,152.3-158,152.3-158.5"/>
						</g>
						<g id="g36_6_" transform="translate(16,21)">
							<path id="path38_6_" fill="#3E721D" d="M152.3-158.5c0-0.6-0.4-1-1-1s-1,0.4-1,1s0.4,1,1,1
								C151.9-157.5,152.3-158,152.3-158.5"/>
						</g>
						<g id="g40_49_" transform="translate(22,17)">
							<path id="path42_48_" fill="#3E721D" d="M152.3-158.5c0-0.6-0.4-1-1-1s-1,0.4-1,1s0.4,1,1,1
								C151.9-157.5,152.3-158,152.3-158.5"/>
						</g>
						<g id="g44_23_" transform="translate(15,11)">
							<path id="path46_23_" fill="#3E721D" d="M152.3-158.5c0-0.6-0.4-1-1-1s-1,0.4-1,1s0.4,1,1,1
								C151.9-157.5,152.3-158,152.3-158.5"/>
						</g>
						<g id="g48_30_" transform="translate(7,10)">
							<path id="path50_30_" fill="#3E721D" d="M152.3-158.5c0-0.6-0.4-1-1-1s-1,0.4-1,1s0.4,1,1,1
								C151.9-157.5,152.3-158,152.3-158.5"/>
						</g>
						<g id="g52_31_" transform="translate(11,17)">
							<path id="path54_30_" fill="#3E721D" d="M152.3-158.5c0-0.6-0.4-1-1-1s-1,0.4-1,1s0.4,1,1,1
								C151.9-157.5,152.3-158,152.3-158.5"/>
						</g>
						<g id="g56_22_" transform="translate(4,19)">
							<path id="path58_22_" fill="#3E721D" d="M152.3-158.5c0-0.6-0.4-1-1-1c-0.6,0-1,0.4-1,1s0.4,1,1,1
								C151.9-157.5,152.3-158,152.3-158.5"/>
						</g>
						<g id="g60_38_" transform="translate(36,29)">
							<path id="path62_27_" fill="#3E721D" d="M152.3-158.5c0-0.6-0.4-1-1-1s-1,0.4-1,1s0.4,1,1,1
								C151.9-157.5,152.3-158,152.3-158.5"/>
						</g>
						<g id="g64_11_" transform="translate(30,26)">
							<path id="path66_11_" fill="#3E721D" d="M152.3-158.5c0-0.6-0.4-1-1-1s-1,0.4-1,1s0.4,1,1,1
								C151.9-157.5,152.3-158,152.3-158.5"/>
						</g>
						<g id="g68_11_" transform="translate(34,21)">
							<path id="path70_11_" fill="#3E721D" d="M152.3-158.5c0-0.6-0.4-1-1-1s-1,0.4-1,1s0.4,1,1,1
								C151.9-157.5,152.3-158,152.3-158.5"/>
						</g>
						<g id="g72_11_" transform="translate(31,13)">
							<path id="path74_11_" fill="#3E721D" d="M152.3-158.5c0-0.6-0.4-1-1-1s-1,0.4-1,1s0.4,1,1,1
								C151.9-157.5,152.3-158,152.3-158.5"/>
						</g>
						<g id="g76_8_" transform="translate(24,7)">
							<path id="path78_8_" fill="#3E721D" d="M152.3-158.5c0-0.6-0.4-1-1-1s-1,0.4-1,1s0.4,1,1,1
								C151.9-157.5,152.3-158,152.3-158.5"/>
						</g>
					</g>
				</g>
			</g>
		</g>
	</g>
</g>
<g id="g10_59_" transform="matrix(1.25,0,0,-1.25,0,47.5)">
	<g id="g12_81_">
		<g>
			<g>
				<g>
					<g id="g14_82_">
						<g id="g20_72_" transform="translate(34.7988,36.9946)">
							<path id="path22_72_" fill="#99AAB5" d="M61.9-158.5c-0.5,0.2-8-4-10-9.1c-1.2-3.1-1.7-6.1-1.7-8.1c-1.5,0.8-2.9,1.2-4.2,1.2
								c-1.3,0-2.7-0.5-4.2-1.2c0,2.1-0.5,5.1-1.7,8.1c-2,5.2-9.5,9.3-10,9.1c-0.5-0.2,4.3-16,7-20.8c-2.4-2.6-4.2-5.8-4.2-9
								c0-3.2,1.6-5.1,4-5.9c2.5-0.9,5,0.9,9,0.9s6.5-1.8,9-0.9c2.4,0.8,4,2.7,4,5.9c0,3.2-1.8,6.4-4.2,9
								C57.6-174.6,62.3-158.7,61.9-158.5"/>
						</g>
						<g id="g24_59_" transform="translate(13.6919,19.0781)">
							<path id="path26_59_" fill="#F4ABBA" d="M61.9-158.5c-0.2,1.5-0.7,3.6-1.5,5.6c-1.5,4-5.7,7.2-6,7.1
								c-0.3-0.1,2.6-10.1,4.8-14.9C60-159.9,60.9-159.1,61.9-158.5"/>
						</g>
						<g id="g28_69_" transform="translate(27.0303,16.9063)">
							<path id="path30_57_" fill="#F4ABBA" d="M61.9-158.5c2.2,4.7,5.1,14.7,4.8,14.9c-0.4,0.1-4.5-3.1-6-7.1c-0.8-2-1.3-4-1.5-5.6
								C60.1-157,61-157.7,61.9-158.5"/>
						</g>
						<g id="g32_44_" transform="translate(26,7)">
							<path id="path34_43_" fill="#CCD6DD" d="M61.9-158.5c0-2.8-3.1-5-6.8-5c-3.8,0-6.8,2.2-6.8,5s3.1,5,6.8,5
								S61.9-155.8,61.9-158.5"/>
						</g>
						<g id="g36_39_" transform="translate(22,6.4219)">
							<path id="path38_39_" fill="#FFFFFF" d="M61.9-158.5c0-2.8-0.2-3-3-3s-3,0.2-3,3C55.9-157.5,61.9-157.5,61.9-158.5"/>
						</g>
						<g id="g40_39_" transform="translate(15,12.6719)">
							<path id="path42_38_" fill="#292F33" d="M61.9-158.5c0-0.8-0.7-1.5-1.5-1.5c-0.8,0-1.5,0.7-1.5,1.5c0,0.8,0.7,1.5,1.5,1.5
								C61.2-157,61.9-157.7,61.9-158.5"/>
						</g>
						<g id="g44_28_" transform="translate(26,12.6719)">
							<path id="path46_28_" fill="#292F33" d="M61.9-158.5c0-0.8-0.7-1.5-1.5-1.5c-0.8,0-1.5,0.7-1.5,1.5c0,0.8,0.7,1.5,1.5,1.5
								C61.2-157,61.9-157.7,61.9-158.5"/>
						</g>
						<g id="g48_24_" transform="translate(22,11.1719)">
							<path id="path50_24_" fill="#F4ABBA" d="M61.9-158.5c0-1.7-2-3-3-3s-3,1.3-3,3C55.9-156.9,61.9-156.9,61.9-158.5"/>
						</g>
					</g>
				</g>
			</g>
		</g>
	</g>
</g>
<g id="g10_124_" transform="matrix(1.25,0,0,-1.25,0,47.5)">
	<g id="g12_142_">
		<g>
			<g>
				<g>
					<g id="g14_142_">
						<g id="g20_134_" transform="translate(36,19)">
							<path id="path22_134_" fill="#FFCC4D" d="M197.6-158.5c0-9.4-7.6-17-17-17s-17,7.6-17,17s7.6,17,17,17
								S197.6-149.1,197.6-158.5"/>
						</g>
						<g id="g24_124_" transform="translate(16.457,20.185)">
							<path id="path26_124_" fill="#664500" d="M197.6-158.5c-0.1,0.1-1.5,3.3-4.5,3.3s-4.4-3.2-4.5-3.3c-0.1-0.2,0-0.4,0.1-0.6
								c0.2-0.1,0.4-0.1,0.6,0c0,0,1.3,0.9,3.7,0.9s3.7-0.9,3.7-0.9c0.1-0.1,0.2-0.1,0.3-0.1s0.2,0,0.3,0.1
								C197.6-159,197.7-158.7,197.6-158.5"/>
						</g>
						<g id="g28_84_" transform="translate(32,22.4819)">
							<path id="path30_75_" fill="#F5F8FA" d="M197.6-158.5c0-3.6-2.9-6.5-6.5-6.5s-6.5,2.9-6.5,6.5s2.9,6.5,6.5,6.5
								S197.6-154.9,197.6-158.5"/>
						</g>
						<g id="g32_59_" transform="translate(28,22.4819)">
							<path id="path34_58_" fill="#292F33" d="M197.6-158.5c0-1.4-1.1-2.5-2.5-2.5c-1.4,0-2.5,1.1-2.5,2.5s1.1,2.5,2.5,2.5
								C196.5-156,197.6-157.2,197.6-158.5"/>
						</g>
						<g id="g36_52_" transform="translate(8,13.9819)">
							<path id="path38_52_" fill="#664500" d="M197.6-158.5c0-4,4.6-9,11-9s11,5,11,9C219.6-158.5,209.3-161.3,197.6-158.5"/>
						</g>
						<g id="g40_50_" transform="translate(13,12.101)">
							<path id="path42_49_" fill="#E75A70" d="M197.6-158.5v-6.1c0-3,2-6,6-6c4,0,6,3,6,6v6C203.3-159.9,197.6-158.5,197.6-158.5"
								/>
						</g>
					</g>
				</g>
			</g>
		</g>
	</g>
</g>
<g id="top">
</g>
<g id="tap">
</g>
</svg>
