<?xml version="1.0" encoding="utf-8"?>
<!-- Generator: Adobe Illustrator 18.0.0, SVG Export Plug-In . SVG Version: 6.00 Build 0)  -->
<!DOCTYPE svg PUBLIC "-//W3C//DTD SVG 1.1//EN" "http://www.w3.org/Graphics/SVG/1.1/DTD/svg11.dtd">
<svg version="1.1" id="Layer_1" xmlns="http://www.w3.org/2000/svg" xmlns:xlink="http://www.w3.org/1999/xlink" x="0px" y="0px"
	 viewBox="0 0 315 560" enable-background="new 0 0 315 560" xml:space="preserve">
<polyline fill="#283344" points="0,560 0,0 315,0 315,560 "/>
<g id="back">
</g>
<g id="notes">
</g>
<g id="input">
</g>
<g id="landing_pages">
</g>
<g opacity="0.2">
	<circle fill="#FFFFFF" cx="118.2" cy="506.8" r="6.9"/>
</g>
<g opacity="0.2">
	<circle fill="#FFFFFF" cx="92.3" cy="506.8" r="6.9"/>
</g>
<g opacity="0.2">
	<circle fill="#FFFFFF" cx="144.8" cy="506.8" r="6.9"/>
</g>
<g opacity="0.2">
	<circle fill="#FFFFFF" cx="171.4" cy="506.8" r="6.9"/>
</g>
<g opacity="0.2">
	<circle fill="#FFFFFF" cx="197.5" cy="506.8" r="6.9"/>
</g>
<g opacity="0.2">
	<circle fill="#FFFFFF" cx="224.6" cy="506.8" r="6.9"/>
</g>
<g id="g10_97_" transform="matrix(1.25,0,0,-1.25,0,47.5)">
	<g id="g12_115_">
		<g id="g14_120_">
			<g id="g20_106_" transform="translate(36,19)">
				<path id="path22_106_" fill="#FFCC4D" d="M85.2-386.4c0-2.9-2.4-5.5-5.5-5.5c-2.9,0-5.5,2.4-5.5,5.5s2.4,5.5,5.5,5.5
					S85.2-383.4,85.2-386.4"/>
			</g>
			<g id="g24_102_" transform="translate(13,19)">
				<path id="path26_102_" fill="#FF7892" d="M101-386.4c0-0.8-0.7-1.5-1.5-1.5c-0.8,0-1.5,0.7-1.5,1.5s0.7,1.5,1.5,1.5
					C100.3-384.8,101-385.5,101-386.4"/>
			</g>
			<g id="g28_74_" transform="translate(35,19)">
				<path id="path30_65_" fill="#FF7892" d="M86-386.4c0-0.8-0.7-1.5-1.5-1.5s-1.5,0.7-1.5,1.5s0.7,1.5,1.5,1.5S86-385.5,86-386.4"
					/>
			</g>
			<g id="g32_52_" transform="translate(28.335,15.3711)">
				<path id="path34_51_" fill="#664500" d="M90.4-383.8c-0.1,0.1-0.1,0.1-0.1,0c0,0-1.3-0.8-2.8-0.8c-1.5,0-2.8,0.8-2.8,0.8
					c-0.1,0-0.1,0-0.1,0c-0.1-0.1-0.1-0.1,0-0.1c0-0.1,1-1.7,2.9-1.7c2,0,2.9,1.5,2.9,1.7C90.4-384.1,90.4-384,90.4-383.8"/>
			</g>
			<g id="g36_47_" transform="translate(8.999,22)">
				<path id="path38_47_" fill="#664500" d="M103.6-388.5L103.6-388.5c-0.3,0.1-0.3,0.3-0.1,0.4c0,0,0.4,0.8,1.5,0.8
					s1.5-0.8,1.5-0.8c0.1-0.1,0-0.3-0.1-0.4c-0.1-0.1-0.3,0-0.4,0.1c0,0-0.3,0.6-1,0.6c-0.7,0-1-0.6-1-0.6
					C103.8-388.5,103.7-388.5,103.6-388.5"/>
			</g>
			<g id="g40_31_" transform="translate(29.001,22)">
				<path id="path42_31_" fill="#664500" d="M90-388.5c-0.1,0-0.1,0.1-0.3,0.1c0,0-0.3,0.6-1,0.6c-0.7,0-1-0.4-1-0.6
					c-0.1-0.1-0.3-0.1-0.4-0.1c-0.1,0.1-0.1,0.3-0.1,0.4c0,0,0.4,0.8,1.5,0.8c1.1,0,1.5-0.8,1.5-0.8c0.1-0.1,0-0.3-0.1-0.4
					C90.1-388.5,90-388.5,90-388.5"/>
			</g>
		</g>
	</g>
</g>
<g id="top">
</g>
<g id="tap">
</g>
<path fill="#3B88C3" d="M271.7,227.9H43.3c-7.7,0-14-6.3-14-14V83.4c0-7.7,6.3-14,14-14h228.5c7.7,0,14,6.3,14,14v130.3
	C285.7,221.6,279.4,227.9,271.7,227.9z"/>
<g>
	<text transform="matrix(1 0 0 1 40.8613 393.7246)" fill="#FFFFFF" font-family="'FiraMono-Medium'" font-size="21.6">WRITE THE MESSAGE </text>
	<text transform="matrix(1 0 0 1 47.3613 419.6251)" fill="#FFFFFF" font-family="'FiraMono-Medium'" font-size="21.6">YOU WANT TO TURN </text>
	<text transform="matrix(1 0 0 1 86.2616 445.5254)" fill="#FFFFFF" font-family="'FiraMono-Medium'" font-size="21.6">INTO EMOJIS</text>
</g>
<g id="slide_4_plain_text">
	<text transform="matrix(1 0 0 1 47.3617 117.957)" fill="#FFFFFF" font-family="'FiraMono-Medium'" font-size="36.2282">Have a </text>
	<text transform="matrix(1 0 0 1 47.3617 161.457)" fill="#FFFFFF" font-family="'FiraMono-Medium'" font-size="36.2282">nice day</text>
</g>
</svg>
