<?xml version="1.0" encoding="utf-8"?>
<!-- Generator: Adobe Illustrator 18.0.0, SVG Export Plug-In . SVG Version: 6.00 Build 0)  -->
<!DOCTYPE svg PUBLIC "-//W3C//DTD SVG 1.1//EN" "http://www.w3.org/Graphics/SVG/1.1/DTD/svg11.dtd">
<svg version="1.1" id="Layer_1" xmlns="http://www.w3.org/2000/svg" xmlns:xlink="http://www.w3.org/1999/xlink" x="0px" y="0px"
	 viewBox="0 0 315 560" enable-background="new 0 0 315 560" xml:space="preserve">
<polyline fill="#283344" points="0,560 0,0 315,0 315,560 "/>
<path fill="#E5E5E5" d="M107.8,131.8H41.3c-6.6,0-12,5.4-12,12v33.9l-18.8,12.4h29.3c0.5,0.1,1,0.1,1.5,0.1h66.5c6.6,0,12-5.4,12-12
	v-34.4C119.8,137.2,114.4,131.8,107.8,131.8z"/>
<g id="back">
</g>
<g id="notes">
</g>
<g id="input">
</g>
<g id="landing_pages">
</g>
<circle fill="#FFFFFF" cx="224.6" cy="506.8" r="6.8"/>
<circle fill="#FFFFFF" cx="224.6" cy="506.8" r="6.8"/>
<path d="M66.9,153.6c0,5.4-6.2,4.7-6.2,9.7v1.2h-2.9v-1.3c0-5.5,6-5.5,6-9.3c0-1.9-1.7-3.1-4-3.1c-1.6,0-3.4,0.8-4.8,2.5l-2-1.5
	c2-2.3,4.4-3.4,7.1-3.4C64.4,148.4,66.9,151,66.9,153.6z M61.7,170.3c0,1.3-1,2.3-2.3,2.3s-2.3-1-2.3-2.3s1-2.3,2.3-2.3
	C60.8,168,61.7,169,61.7,170.3z"/>
<path d="M93.3,153.6c0,5.4-6.2,4.7-6.2,9.7v1.2h-2.9v-1.3c0-5.5,6-5.5,6-9.3c0-1.9-1.7-3.1-4-3.1c-1.6,0-3.4,0.8-4.8,2.5l-2-1.5
	c2-2.3,4.4-3.4,7.1-3.4C90.7,148.4,93.3,151,93.3,153.6z M88.1,170.3c0,1.3-1,2.3-2.3,2.3s-2.3-1-2.3-2.3s1-2.3,2.3-2.3
	S88.1,169,88.1,170.3z"/>
<path fill="#E5E5E5" d="M167.8,248.8H41.9c-6.6,0-12,5.4-12,12v34L11,307h29.4c0.5,0.1,1,0.1,1.5,0.1h125.9c6.6,0,12-5.4,12-12
	v-34.4C179.8,254.2,174.4,248.8,167.8,248.8z"/>
<path id="path22_145_" fill="#FFCC4D" d="M152.7,279c0,10.8-8.8,19.6-19.6,19.6s-19.6-8.8-19.6-19.6c0-10.8,8.8-19.6,19.6-19.6
	S152.7,268.1,152.7,279"/>
<path id="path26_136_" fill="#664500" d="M133.1,283.4c-3.4,0-5.7-0.4-8.5-0.9c-0.6-0.1-1.9,0-1.9,1.9c0,3.8,4.3,8.5,10.4,8.5
	c6.1,0,10.4-4.7,10.4-8.5c0-1.9-1.2-2-1.9-1.9C138.8,283,136.6,283.4,133.1,283.4"/>
<path id="path30_89_" fill="#BE1931" d="M131.6,262c-1-2.8-4.1-4.3-6.9-3.3c-1.7,0.6-2.9,2-3.4,3.6c-1.4-1-3.2-1.3-4.9-0.7
	c-2.8,1-4.3,4.1-3.3,6.9c0.1,0.4,0.3,0.8,0.5,1.1c2.2,4.1,8.7,7,12.7,7.1c3-2.5,6.3-8.8,5.4-13.5C131.8,262.8,131.8,262.4,131.6,262
	"/>
<path id="path34_68_" fill="#BE1931" d="M134.7,262c1-2.8,4.1-4.3,6.9-3.3c1.7,0.6,2.9,2,3.4,3.6c1.4-1,3.2-1.3,4.9-0.7
	c2.8,1,4.3,4.1,3.3,6.9c-0.1,0.4-0.3,0.8-0.5,1.1c-2.2,4.1-8.7,7-12.7,7.1c-3-2.5-6.3-8.8-5.4-13.5
	C134.5,262.8,134.6,262.4,134.7,262"/>
<path fill="#3B88C3" d="M303,231.1l-18.8-12.9v-33.4c0-6.6-5.4-12-12-12h-66.5c-6.6,0-12,5.4-12,12v34.4c0,6.6,5.4,12,12,12h66.5
	c0.5,0,1,0,1.5-0.1H303z"/>
<path fill="#FFFFFF" d="M245.1,328l-1.8-0.9c10.5-20.3,13.7-43.8,8.8-66.2l2-0.4C259,283.3,255.8,307.2,245.1,328z"/>
<polygon fill="#FFFFFF" points="246.3,268.8 248,269.9 253.2,261.5 261.2,267.3 262.3,265.6 252.6,258.6 "/>
<path d="M63.1,287.3c0,1.3-1,2.3-2.3,2.3s-2.3-1-2.3-2.3s1-2.3,2.3-2.3C62.1,285.1,63.1,286.1,63.1,287.3z M62,281.5h-2.5l-0.3-15.7
	h3.2L62,281.5z"/>
<path d="M89.4,287.3c0,1.3-1,2.3-2.3,2.3s-2.3-1-2.3-2.3s1-2.3,2.3-2.3C88.5,285.1,89.4,286.1,89.4,287.3z M88.4,281.5h-2.5
	l-0.3-15.7h3.2L88.4,281.5z"/>
<g id="g14_154_">
	<g id="g20_144_" transform="translate(16.373,35.978)">
		<path id="path22_144_" fill="#5C913B" d="M218.7,143.3c-2.2,2.2-8.7,11-5.5,18.6s7.7,3,9.9-3.2c1.1-3.2,1.1-7.6-1.1-14.2
			C220.8,141,218.7,143.3,218.7,143.3"/>
	</g>
	<g id="g24_135_" transform="translate(35.6768,16.6738)">
		<path id="path26_135_" fill="#5C913B" d="M224.8,187.9c-2.2,2.2-11,8.7-18.6,5.5s-3-7.7,3.2-9.9c3.2-1.1,7.6-1.1,14.2,1.1
			C226.9,185.8,224.8,187.9,224.8,187.9"/>
	</g>
	<g id="g28_96_" transform="translate(33.3145,30.6826)">
		<path id="path30_88_" fill="#F4900C" d="M224.1,155.6c0,0-0.2-2.2-1-3c-0.6-0.7-2.6-0.7-2.6-0.7c-2.2,0-27.4,3.2-31.7,25.1
			c-0.7,3.9,0.1,6.1,1.1,7.5c0,0.1,0,0.1,0,0.1c0.1,0.1,0.4,0.4,0.6,0.5c0.2,0.2,0.4,0.4,0.5,0.5h0.1c1.4,1,3.7,2.1,7.7,1.2
			C220.6,182.7,224.1,157.7,224.1,155.6"/>
	</g>
</g>
<g>
	<g>
		<defs>
			<path id="SVGID_1_" d="M221.9,207.7c-0.7,3.9,0.1,6.1,1.1,7.5l0,0c0,0.1,0,0.1,0,0.1l0,0c0.1,0.1,0.4,0.4,0.6,0.5l0,0
				c0.2,0.2,0.4,0.4,0.5,0.5l0,0h0.1l0,0c1.4,1,3.7,2.1,7.7,1.2l0,0c21.9-4.4,25.4-29.4,25.4-31.5l0,0c0,0-0.2-2.2-1-3l0,0
				c-0.6-0.7-2.6-0.7-2.6-0.7l0,0C251.5,182.5,226.2,185.8,221.9,207.7"/>
		</defs>
		<clipPath id="SVGID_2_">
			<use xlink:href="#SVGID_1_"  overflow="visible"/>
		</clipPath>
		<g id="g34_10_" clip-path="url(#SVGID_2_)">
			<g id="g40_64_" transform="translate(25.7686,26.5654)">
				<path id="path42_63_" fill="#F7B82D" d="M221.7,165.1c-0.6,0.6-1.5,0.6-2.1,0l-2.1-2.1c-0.6-0.6-0.6-1.5,0-2.1s1.5-0.6,2.1,0
					l2.1,2.1C222.2,163.4,222.2,164.4,221.7,165.1"/>
			</g>
			<g id="g44_49_" transform="translate(17.6812,26.5654)">
				<path id="path46_49_" fill="#F7B82D" d="M219,165.1c-0.6,0.6-1.5,0.6-2.1,0l-2.1-2.1c-0.6-0.6-0.6-1.5,0-2.1s1.5-0.6,2.1,0
					l2.1,2.1C219.7,163.4,219.7,164.4,219,165.1"/>
			</g>
			<g id="g48_42_" transform="translate(20.1074,28.9922)">
				<path id="path50_42_" fill="#F7B82D" d="M219.9,159.5c-0.6,0.6-1.5,0.6-2.1,0l-2.1-2.1c-0.6-0.6-0.6-1.5,0-2.1s1.5-0.6,2.1,0
					l2.1,2.1C220.4,157.9,220.4,158.9,219.9,159.5"/>
			</g>
			<g id="g52_43_" transform="translate(15.2559,24.1392)">
				<path id="path54_42_" fill="#F7B82D" d="M218.3,170.7c-0.6,0.6-1.5,0.6-2.1,0l-2.1-2.1c-0.6-0.6-0.6-1.5,0-2.1s1.5-0.6,2.1,0
					l2.1,2.1C218.9,169.2,218.9,170,218.3,170.7"/>
			</g>
			<g id="g56_31_" transform="translate(28.1943,28.9922)">
				<path id="path58_31_" fill="#F7B82D" d="M222.4,159.5c-0.6,0.6-1.5,0.6-2.1,0l-2.1-2.1c-0.6-0.6-0.6-1.5,0-2.1s1.5-0.6,2.1,0
					l2.1,2.1C223,157.9,223,158.9,222.4,159.5"/>
			</g>
			<g id="g60_41_" transform="translate(30.6172,31.3828)">
				<path id="path62_35_" fill="#F7B82D" d="M223.1,153.9c-0.6,0.6-1.5,0.6-2.1,0l-2.1-2.1c-0.6-0.6-0.6-1.5,0-2.1s1.5-0.6,2.1,0
					l2.1,2.1C223.8,152.4,223.8,153.4,223.1,153.9"/>
			</g>
			<g id="g64_16_" transform="translate(23.3428,24.1392)">
				<path id="path66_16_" fill="#F7B82D" d="M220.8,170.7c-0.6,0.6-1.5,0.6-2.1,0l-2.1-2.1c-0.6-0.6-0.6-1.5,0-2.1s1.5-0.6,2.1,0
					l2.1,2.1C221.4,169.2,221.4,170,220.8,170.7"/>
			</g>
			<g id="g68_16_" transform="translate(20.915,21.7134)">
				<path id="path70_16_" fill="#F7B82D" d="M220.1,176.2c-0.6,0.6-1.5,0.6-2.1,0l-2.1-2.1c-0.6-0.6-0.6-1.5,0-2.1s1.5-0.6,2.1,0
					l2.1,2.1C220.7,174.7,220.7,175.7,220.1,176.2"/>
			</g>
			<g id="g72_16_" transform="translate(16.064,16.8613)">
				<path id="path74_16_" fill="#F7B82D" d="M218.5,187.5c-0.6,0.6-1.5,0.6-2.1,0l-2.1-2.1c-0.6-0.6-0.6-1.5,0-2.1s1.5-0.6,2.1,0
					l2.1,2.1C219.1,186,219.1,186.9,218.5,187.5"/>
			</g>
			<g id="g76_16_" transform="translate(18.4902,19.2871)">
				<path id="path78_16_" fill="#F7B82D" d="M219.4,181.9c-0.6,0.6-1.5,0.6-2.1,0l-2.1-2.1c-0.6-0.6-0.6-1.5,0-2.1s1.5-0.6,2.1,0
					l2.1,2.1C219.9,180.3,219.9,181.3,219.4,181.9"/>
			</g>
		</g>
	</g>
</g>
<g id="g80_9_">
	<g>
		<g id="g82_5_">
			<g id="g88_8_" transform="translate(28.8662,13.4258)">
				<path id="path90_8_" fill="#77B255" d="M222.6,195.5c-9.4-3.1-19.9,0.9-25.5,4.7c3.9-5.6,7.9-16.1,4.7-25.5
					c-1.2-3.6-7.4-7.4-11-3.6c-1.2,1.2-2.5,2.5,0,2.5s6.1,3.6,4.9,7.4c-1.1,3.2-9.1,11.5-5.5,20.2c-0.4,0.1-0.7,0.4-1,0.6l-1,1
					c-1.2,1.2-1.2,3.1,0,4.4l1,1c1.2,1.2,3.1,1.2,4.4,0l1-1c0.1-0.1,0.2-0.4,0.4-0.5c9.2,5,18.1-3.6,21.5-4.9
					c3.6-1.2,7.4,2.5,7.4,4.9c0,2.5,1.2,1.2,2.5,0C229.9,202.9,226.3,196.8,222.6,195.5"/>
			</g>
		</g>
	</g>
</g>
<g id="g14_126_">
	<g id="g20_118_" transform="translate(36,19)">
		<path id="path22_118_" fill="#FFCC4D" d="M195.4,487.8c0,3.7-3,6.8-6.8,6.8c-3.7,0-6.8-3-6.8-6.8c0-3.7,3-6.8,6.8-6.8
			C192.3,481,195.4,484.1,195.4,487.8"/>
	</g>
	<g id="g24_108_" transform="translate(13,16)">
		<path id="path26_108_" fill="#FF7892" d="M209.2,492c0,1.1-0.9,2-2,2s-2-0.9-2-2s0.9-2,2-2S209.2,490.9,209.2,492"/>
	</g>
	<g id="g28_78_" transform="translate(35,16)">
		<path id="path30_69_" fill="#FF7892" d="M196,492c0,1.1-0.9,2-2,2s-2-0.9-2-2s0.9-2,2-2S196,490.9,196,492"/>
	</g>
	<g id="g32_55_" transform="translate(29.416,19.2773)">
		<path id="path34_54_" fill="#664500" d="M199.3,487.4c0,0-0.6-0.9-1.8-0.9s-1.7,0.8-1.8,0.9s0,0.2,0,0.3c0.1,0.1,0.2,0.1,0.3,0
			c0,0,0.5-0.4,1.5-0.4s1.5,0.4,1.5,0.4h0.1c0,0,0.1,0,0.1-0.1C199.4,487.6,199.4,487.5,199.3,487.4"/>
	</g>
	<g id="g36_49_" transform="translate(13,21.5)">
		<path id="path38_49_" fill="#664500" d="M209.2,484.3c-1.2,0-1.7,0.8-1.8,0.9s0,0.2,0,0.3c0.1,0.1,0.2,0.1,0.3,0
			c0,0,0.5-0.4,1.5-0.4s1.5,0.4,1.5,0.4h0.1c0,0,0.1,0,0.1-0.1c0.1-0.1,0.1-0.2,0-0.3C210.9,485.2,210.4,484.3,209.2,484.3"/>
	</g>
	<g id="g40_47_" transform="translate(22.8711,10)">
		<path id="path42_46_" fill="#664500" d="M203.3,500.4c0.5-0.2,1-0.5,1-1c0-1-2-1.2-2.2-1.2c-0.1,0-0.2,0.1-0.2,0.2
			s0.1,0.2,0.2,0.2c0,0,1.4,0.1,1.4,0.8s-1.4,0.8-1.4,0.8l0,0c0,0-0.1,0-0.1,0.1l0,0l0,0l0,0l0,0l0,0l0,0l0,0l0,0l0,0l0,0l0,0l0,0
			l0,0l0,0c0,0,1.4,0.1,1.4,0.8c0,0.7-1.4,0.8-1.4,0.8c-0.1,0-0.2,0.1-0.2,0.2s0.1,0.2,0.2,0.2l0,0c0.2,0,2.2-0.2,2.2-1.2
			C204.3,500.9,203.8,500.6,203.3,500.4"/>
	</g>
	<g id="g44_21_" transform="translate(32.001,21)">
		<path id="path46_21_" fill="#664500" d="M197.8,485c-0.1,0-0.2-0.1-0.3-0.2c-1.1-1.4-2.4-1.4-2.5-1.4c-0.2,0-0.4-0.2-0.4-0.4
			c0-0.2,0.2-0.4,0.4-0.4c0.1,0,1.8,0,3.1,1.8c0.1,0.2,0.1,0.4-0.1,0.6C197.9,485,197.8,485,197.8,485"/>
	</g>
	<g id="g48_19_" transform="translate(5.999,21)">
		<path id="path50_19_" fill="#664500" d="M213.4,485c-0.1,0-0.2,0-0.2-0.1c-0.2-0.1-0.2-0.4-0.1-0.6c1.3-1.7,3-1.8,3.1-1.8
			c0.2,0,0.4,0.2,0.4,0.4c0,0.2-0.2,0.4-0.4,0.4c-0.1,0-1.4,0-2.5,1.4C213.7,485,213.5,485,213.4,485"/>
	</g>
</g>
<path fill="#3B88C3" d="M301.2,105.1l-17-11.3c0.2-0.9,0.3-133.2,0.3-133.2c0-7.7-6.3-14-14-14H42.1c-7.7,0-14,6.3-14,14V90.9
	c0,7.7,6.3,14,14,14L301.2,105.1z"/>
<g id="g12_172_">
	<g>
		<g>
			<g>
				<g id="g14_174_">
					<g id="g20_158_" transform="translate(36,19)">
						<path id="path22_158_" fill="#FFCC4D" d="M110-35.4c0,5.6-4.5,10.1-10.1,10.1s-10.1-4.5-10.1-10.1s4.5-10.1,10.1-10.1
							C105.4-45.4,110-40.9,110-35.4"/>
					</g>
					<g id="g24_149_" transform="translate(29.457,19.2031)">
						<path id="path26_149_" fill="#664500" d="M112.6-35.7c0-0.1-0.9-2-2.6-2s-2.6,1.9-2.6,2s0,0.2,0.1,0.4c0.1,0.1,0.2,0.1,0.4,0
							c0,0,0.7-0.5,2.2-0.5s2.1,0.5,2.2,0.5h0.1c0.1,0,0.1,0,0.1-0.1C112.6-35.5,112.6-35.6,112.6-35.7"/>
					</g>
					<g id="g28_108_" transform="translate(17.457,19.2031)">
						<path id="path30_103_" fill="#664500" d="M117.5-35.7c0-0.1-0.9-2-2.6-2s-2.6,1.9-2.6,2s0,0.2,0.1,0.4c0.1,0.1,0.2,0.1,0.4,0
							c0,0,0.7-0.5,2.2-0.5s2.1,0.5,2.2,0.5h0.1c0.1,0,0.1,0,0.1-0.1C117.5-35.5,117.5-35.6,117.5-35.7"/>
					</g>
					<g id="g32_85_" transform="translate(32,20.9995)">
						<path id="path34_82_" fill="#664500" d="M111.6-38.5c-0.2,0-0.5-0.1-0.5-0.4c-1-2.6-3.7-3.2-3.7-3.2c-0.4-0.1-0.5-0.4-0.5-0.7
							c0.1-0.4,0.4-0.5,0.7-0.5c0.1,0,3.2,0.7,4.6,3.9c0.1,0.2,0,0.6-0.4,0.7C111.7-38.5,111.6-38.5,111.6-38.5"/>
					</g>
					<g id="g36_76_" transform="translate(5.9995,20.9995)">
						<path id="path38_76_" fill="#664500" d="M122.1-38.5c-0.1,0-0.1,0-0.2,0c-0.2-0.1-0.5-0.5-0.4-0.7c1.2-3.2,4.5-3.9,4.6-3.9
							c0.4-0.1,0.6,0.1,0.7,0.5s-0.1,0.6-0.5,0.7c-0.1,0-2.6,0.6-3.7,3.2C122.6-38.6,122.4-38.5,122.1-38.5"/>
					</g>
					<g id="g40_78_" transform="translate(19,15)">
						<path id="path42_76_" fill="#664500" d="M116.9-29c-2.1,0-3.6-0.2-5.4-0.6c-0.4-0.1-1.1,0-1.1,1.1c0,2.4,2.7,5.4,6.5,5.4
							c3.7,0,6.5-3,6.5-5.4c0-1.1-0.7-1.2-1.1-1.1C120.5-29.3,119-29,116.9-29"/>
					</g>
					<g id="g44_60_" transform="translate(10,14)">
						<path id="path46_60_" fill="#FFFFFF" d="M120.5-27.4c0,0,1.7,0.6,5.4,0.6c3.5,0,5.4-0.6,5.4-0.6s-1.1,2.4-5.4,2.4
							C121.7-25,120.5-27.4,120.5-27.4"/>
					</g>
					<g id="g48_49_" transform="translate(11.8472,8.7705)">
						<path id="path50_49_" fill="#5DADEC" d="M119.7-19c-0.4,1.6-2,2.5-3.6,2.1s-2.5-2-2.1-3.6s3.7-5.1,4.4-5
							C119-25.4,120.2-20.6,119.7-19"/>
					</g>
					<g id="g52_48_" transform="translate(26.1328,8.7705)">
						<path id="path54_46_" fill="#5DADEC" d="M113.9-19c0.4,1.6,2,2.5,3.6,2.1s2.5-2,2.1-3.6s-3.7-5.1-4.4-5
							C114.8-25.4,113.5-20.6,113.9-19"/>
					</g>
				</g>
			</g>
		</g>
	</g>
</g>
<g id="g12_173_">
	<g>
		<g>
			<g>
				<g id="g14_175_">
					<g id="g20_159_" transform="translate(36,19)">
						<path id="path22_159_" fill="#FFCC4D" d="M31.1,8.6c0,5.6-4.5,10.1-10.1,10.1S10.9,14.2,10.9,8.6S15.4-1.5,21-1.5
							C26.6-1.4,31.1,3.1,31.1,8.6"/>
					</g>
					<g id="g24_150_" transform="translate(29.457,19.2031)">
						<path id="path26_150_" fill="#664500" d="M33.7,8.3c0-0.1-0.9-2-2.6-2s-2.6,1.9-2.6,2s0,0.2,0.1,0.4c0.1,0.1,0.2,0.1,0.4,0
							c0,0,0.7-0.5,2.2-0.5s2.1,0.5,2.2,0.5h0.1c0.1,0,0.1,0,0.1-0.1C33.7,8.5,33.9,8.4,33.7,8.3"/>
					</g>
					<g id="g28_109_" transform="translate(17.457,19.2031)">
						<path id="path30_104_" fill="#664500" d="M38.6,8.3c0-0.1-0.9-2-2.6-2s-2.6,1.9-2.6,2s0,0.2,0.1,0.4c0.1,0.1,0.2,0.1,0.4,0
							c0,0,0.7-0.5,2.2-0.5s2.1,0.5,2.2,0.5h0.1c0.1,0,0.1,0,0.1-0.1C38.6,8.5,38.7,8.4,38.6,8.3"/>
					</g>
					<g id="g32_86_" transform="translate(32,20.9995)">
						<path id="path34_83_" fill="#664500" d="M32.8,5.5c-0.2,0-0.5-0.1-0.5-0.4c-1-2.6-3.7-3.2-3.7-3.2C28.1,1.7,28,1.5,28,1.1
							c0.1-0.4,0.4-0.5,0.7-0.5c0.1,0,3.2,0.7,4.6,3.9c0.1,0.2,0,0.6-0.4,0.7C32.9,5.5,32.9,5.5,32.8,5.5"/>
					</g>
					<g id="g36_77_" transform="translate(5.9995,20.9995)">
						<path id="path38_77_" fill="#664500" d="M43.4,5.5c-0.1,0-0.1,0-0.2,0C43,5.4,42.7,5,42.8,4.8c1.2-3.2,4.5-3.9,4.6-3.9
							C47.8,0.7,48,1,48.1,1.4C48.3,1.7,48,2,47.6,2.1c-0.1,0-2.6,0.6-3.7,3.2C43.8,5.3,43.5,5.5,43.4,5.5"/>
					</g>
					<g id="g40_79_" transform="translate(19,15)">
						<path id="path42_77_" fill="#664500" d="M38,15c-2.1,0-3.6-0.2-5.4-0.6c-0.4-0.1-1.1,0-1.1,1.1c0,2.4,2.7,5.4,6.5,5.4
							c3.7,0,6.5-3,6.5-5.4c0-1.1-0.7-1.2-1.1-1.1C41.6,14.7,40.1,15,38,15"/>
					</g>
					<g id="g44_61_" transform="translate(10,14)">
						<path id="path46_61_" fill="#FFFFFF" d="M41.8,16.6c0,0,1.7,0.6,5.4,0.6c3.5,0,5.4-0.6,5.4-0.6S51.4,19,47.1,19
							S41.8,16.6,41.8,16.6"/>
					</g>
					<g id="g48_50_" transform="translate(11.8472,8.7705)">
						<path id="path50_50_" fill="#5DADEC" d="M41,24.9c-0.4,1.6-2,2.5-3.6,2.1s-2.5-2-2.1-3.6s3.7-5.1,4.4-5
							C40.1,18.6,41.3,23.4,41,24.9"/>
					</g>
					<g id="g52_49_" transform="translate(26.1328,8.7705)">
						<path id="path54_47_" fill="#5DADEC" d="M35.2,24.9c0.4,1.6,2,2.5,3.6,2.1s2.5-2,2.1-3.6s-3.7-5.1-4.4-5
							C35.9,18.6,34.8,23.4,35.2,24.9"/>
					</g>
				</g>
			</g>
		</g>
	</g>
</g>
<g id="g12_175_">
	<g>
		<g>
			<g>
				<g id="g14_177_">
					<g id="g20_161_" transform="translate(34.7988,36.9946)">
						<path id="path22_161_" fill="#99AAB5" d="M162.8-64c-0.2-0.1-4.7,2.4-5.9,5.4c-0.7,1.7-1,3.6-1,4.7c-0.9-0.5-1.7-0.7-2.5-0.7
							s-1.6,0.2-2.5,0.7c0-1.2-0.2-3-1-4.7c-1.1-3-5.6-5.5-5.9-5.4c-0.2,0.1,2.5,9.5,4.1,12.4c-1.4,1.5-2.5,3.5-2.5,5.4s1,3,2.4,3.5
							c1.5,0.5,3-0.5,5.4-0.5s3.9,1.1,5.4,0.5c1.4-0.5,2.4-1.6,2.4-3.5s-1.1-3.7-2.5-5.4C160.3-54.5,163.1-63.9,162.8-64"/>
					</g>
					<g id="g24_152_" transform="translate(13.6919,19.0781)">
						<path id="path26_152_" fill="#F4ABBA" d="M171.4-35.4c-0.1-0.9-0.4-2.1-0.9-3.2c-0.9-2.4-3.4-4.2-3.6-4.2
							c-0.2,0.1,1.5,6,2.9,8.9C170.3-34.7,170.8-35.1,171.4-35.4"/>
					</g>
					<g id="g28_110_" transform="translate(27.0303,16.9063)">
						<path id="path30_105_" fill="#F4ABBA" d="M166-32.1c1.2-2.7,3-8.7,2.9-8.9c-0.2-0.1-2.6,1.9-3.6,4.2c-0.5,1.2-0.7,2.4-0.9,3.2
							C164.9-32.9,165.5-32.6,166-32.1"/>
					</g>
					<g id="g32_87_" transform="translate(26,7)">
						<path id="path34_84_" fill="#CCD6DD" d="M166.4-16.3c0,1.6-1.9,3-4,3c-2.2,0-4-1.4-4-3s1.9-3,4-3
							C164.6-19.3,166.4-17.9,166.4-16.3"/>
					</g>
					<g id="g36_78_" transform="translate(22,6.4219)">
						<path id="path38_78_" fill="#FFFFFF" d="M168-15.3c0,1.6-0.1,1.7-1.7,1.7c-1.6,0-1.7-0.1-1.7-1.7C164.5-16,168-16,168-15.3"/>
					</g>
					<g id="g40_80_" transform="translate(15,12.6719)">
						<path id="path42_78_" fill="#292F33" d="M170.9-25.3c0,0.5-0.4,0.9-0.9,0.9s-0.9-0.4-0.9-0.9s0.4-0.9,0.9-0.9
							S170.9-25.8,170.9-25.3"/>
					</g>
					<g id="g44_62_" transform="translate(26,12.6719)">
						<path id="path46_62_" fill="#292F33" d="M166.4-25.3c0,0.5-0.4,0.9-0.9,0.9s-0.9-0.4-0.9-0.9s0.4-0.9,0.9-0.9
							C166-26.2,166.4-25.8,166.4-25.3"/>
					</g>
					<g id="g48_51_" transform="translate(22,11.1719)">
						<path id="path50_51_" fill="#F4ABBA" d="M168-22.9c0,1-1.1,1.7-1.7,1.7c-0.6,0-1.7-0.7-1.7-1.7C164.5-23.9,168-23.9,168-22.9"
							/>
					</g>
				</g>
			</g>
		</g>
	</g>
</g>
<g id="g12_178_">
	<g>
		<g>
			<g>
				<g id="g14_180_">
					<g id="g20_168_" transform="translate(18,19)">
						<path id="path22_168_" fill="#E1E8ED" d="M38.4,48.1c0,3.2-2.2,5.9-5,5.9c-2.7,0-5-2.6-5-5.9c0-3.2,2.2-5.9,5-5.9
							C36.1,42.2,38.4,44.8,38.4,48.1"/>
					</g>
					<g id="g24_155_" transform="translate(37,19)">
						<path id="path26_155_" fill="#E1E8ED" d="M30.8,48.1c0,3.2-2.2,5.9-5,5.9s-5-2.6-5-5.9c0-3.2,2.2-5.9,5-5.9
							C28.5,42.2,30.8,44.8,30.8,48.1"/>
					</g>
					<g id="g28_113_" transform="translate(9,15)">
						<path id="path30_107_" fill="#292F33" d="M42.1,54.5c0,1-0.7,1.7-1.7,1.7s-1.7-0.7-1.7-1.7s0.7-1.7,1.7-1.7
							C41.3,52.7,42.1,53.5,42.1,54.5"/>
					</g>
					<g id="g32_89_" transform="translate(28,15)">
						<path id="path34_86_" fill="#292F33" d="M34.4,54.5c0,1-0.7,1.7-1.7,1.7S31,55.5,31,54.5s0.7-1.7,1.7-1.7
							C33.6,52.7,34.4,53.5,34.4,54.5"/>
					</g>
				</g>
			</g>
		</g>
	</g>
</g>
<g id="g12_181_">
	<g>
		<g>
			<g>
				<g id="g14_183_">
					<g id="g20_171_" transform="translate(18,19)">
						<path id="path22_171_" fill="#E1E8ED" d="M143.5,48.1c0,3.2-2.2,5.9-5,5.9c-2.7,0-5-2.6-5-5.9c0-3.2,2.2-5.9,5-5.9
							C141.2,42.2,143.5,44.8,143.5,48.1"/>
					</g>
					<g id="g24_158_" transform="translate(37,19)">
						<path id="path26_158_" fill="#E1E8ED" d="M135.7,48.1c0,3.2-2.2,5.9-5,5.9c-2.7,0-5-2.6-5-5.9c0-3.2,2.2-5.9,5-5.9
							C133.5,42.2,135.7,44.8,135.7,48.1"/>
					</g>
					<g id="g28_116_" transform="translate(9,15)">
						<path id="path30_110_" fill="#292F33" d="M147.1,54.5c0,1-0.7,1.7-1.7,1.7s-1.7-0.7-1.7-1.7s0.7-1.7,1.7-1.7
							C146.4,52.7,147.1,53.5,147.1,54.5"/>
					</g>
					<g id="g32_92_" transform="translate(28,15)">
						<path id="path34_89_" fill="#292F33" d="M139.5,54.5c0,1-0.7,1.7-1.7,1.7s-1.7-0.7-1.7-1.7s0.7-1.7,1.7-1.7
							C138.6,52.7,139.5,53.5,139.5,54.5"/>
					</g>
				</g>
			</g>
		</g>
	</g>
</g>
<g id="g12_174_">
	<g>
		<g>
			<g>
				<g id="g14_176_">
					<g id="g20_160_" transform="translate(23.4941,31.6558)">
						<path id="path22_160_" fill="#DD2E44" d="M141.2-55.5c-0.4,0-0.7,0-1.1,0.1c-0.5,0-1.6-0.1-2.1-0.1c-5,0-9.4,1.9-9.4,8.5
							c0,5.4,4.1,9.7,10.1,9.7c5.9,0,10.6-4.4,10.6-9.7C149.2-53.7,143.7-55.5,141.2-55.5"/>
					</g>
					<g id="g24_151_" transform="translate(9.439,36.9087)">
						<path id="path26_151_" fill="#77B255" d="M147-63.9c1,1,1.6,1.4,2,2.9c0.1,0.9,1.4,0.9,1.4,0.9s-2.4,1-3.2,2c0,0,2.9-1,3.9-1
							c0,0,2,1,2,2c0,0,0-2-1-2c0,0,2.9,0,2.9,2c0,0,0-2.9-1-2.9c0,0,2.9-1,3.9,0c0,0-1-1-2.9-1c0,0,1-1,2.9-1c0,0-3.1-0.9-4.1,1
							c0,0-0.9-0.9,0.9-2.5c0,0-2.5,0.5-2.5,2.4c0,0-0.9,0-1.6-0.7C149-63.2,147-63.9,147-63.9"/>
					</g>
				</g>
			</g>
		</g>
	</g>
</g>
<g id="g12_183_">
	<g>
		<g>
			<g>
				<g id="g14_185_">
					<g id="g20_173_" transform="translate(35.751,15)">
						<path id="path22_173_" fill="#77B255" d="M83.7-29c-2,0-7,2.1-9.4,4.2V-32c0-0.4-0.2-0.6-0.6-0.6s-0.6,0.2-0.6,0.6v7.4
							c-2.2-2.1-7.4-4.4-9.5-4.4c-0.5,0,6.5,8.2,9.5,7.5v0.2c0,0.4,0.2,0.6,0.6,0.6s0.6-0.2,0.6-0.6v-0.2C77.4-20.9,84.2-29,83.7-29
							"/>
					</g>
					<g id="g24_160_" transform="translate(26,23.5835)">
						<path id="path26_160_" fill="#EA596E" d="M87.6-42.7c0,3.7-1,5.6-4.1,5.6s-4.1-1.9-4.1-5.6c0-3.7,3-8,4.1-8
							S87.6-46.5,87.6-42.7"/>
					</g>
					<g id="g28_118_" transform="translate(23.7949,35)">
						<path id="path30_111_" fill="#F4ABBA" d="M88.6-60.9c-0.2,0-2.4,8.5-2.9,11.4c-0.5-3-2.6-11.4-3-11.4c-0.6,0-3.5,5.4-3.5,7.7
							c0,2.4,3.4,4.7,6.5,4.7s6.4-2.4,6.4-4.7S89.2-60.9,88.6-60.9"/>
					</g>
				</g>
			</g>
		</g>
	</g>
</g>
<g id="g12_171_">
	<g>
		<g>
			<g>
				<g id="g14_173_">
					<g id="g20_157_" transform="translate(35.751,15)">
						<path id="path22_157_" fill="#77B255" d="M188.7,15c-2,0-7,2.1-9.4,4.2V12c0-0.4-0.2-0.6-0.6-0.6S178,11.6,178,12v7.4
							c-2.2-2.1-7.4-4.4-9.5-4.4c-0.5,0,6.5,8.2,9.5,7.5v0.2c0,0.4,0.2,0.6,0.6,0.6s0.6-0.2,0.6-0.6v-0.2
							C182.4,23.1,189.2,15,188.7,15"/>
					</g>
					<g id="g24_148_" transform="translate(26,23.5835)">
						<path id="path26_148_" fill="#EA596E" d="M192.6,1.3c0,3.7-1,5.6-4.1,5.6s-4.1-1.9-4.1-5.6s3-8,4.1-8
							C189.6-6.6,192.6-2.5,192.6,1.3"/>
					</g>
					<g id="g28_107_" transform="translate(23.7949,35)">
						<path id="path30_102_" fill="#F4ABBA" d="M193.6-16.9c-0.2,0-2.4,8.5-2.9,11.4c-0.5-3-2.6-11.4-3-11.4c-0.6,0-3.5,5.4-3.5,7.7
							c0,2.4,3.4,4.7,6.5,4.7s6.4-2.4,6.4-4.7S194.2-16.9,193.6-16.9"/>
					</g>
				</g>
			</g>
		</g>
	</g>
</g>
<g id="g12_180_">
	<g>
		<g>
			<g>
				<g id="g14_182_">
					<g id="g20_170_" transform="translate(2.7266,14.7012)">
						<path id="path22_170_" fill="#FFAC33" d="M123.4,55.1c0,0-0.7-0.7,0-1.6c0.7-0.7,1.6,0,1.6,0l3.7,3.5l0.2-0.5l-5.2-4.9
							c0,0-0.7-0.7,0-1.6c0.7-0.9,1.6,0,1.6,0l4.9,4.5l0.4-0.4l-5.7-5.2c0,0-0.7-0.7,0-1.6c0.7-0.7,1.6,0,1.6,0l5.7,5.2l0.4-0.4
							l-5.4-5c0,0-0.7-0.7,0-1.6c0.7-0.7,1.6,0,1.6,0s4,3.6,5.6,5.2c1.6,1.5,2,1.1,2,1.1l-1.5-1.4l-1.7-1.6c0,0-0.7-0.7,0-1.6
							c0.7-0.7,1.6,0,1.6,0l4.5,4.1c2.7,2.5,2.9,6.7,0.4,9.4c-2.5,2.7-6.7,2.9-9.4,0.4c-0.1-0.1-0.4-0.4-0.4-0.4l0,0L123.4,55.1z"/>
					</g>
					<g id="g24_157_" transform="translate(5.627,16.6504)">
						<path id="path26_157_" fill="#FFDC5D" d="M122.3,52c0,0-0.7-0.7,0-1.6s1.6,0,1.6,0l3.7,3.5l0.2-0.5l-5.2-4.9
							c0,0-0.7-0.7,0-1.6c0.7-0.7,1.6,0,1.6,0l4.9,4.5l0.4-0.4l-5.7-5.2c0,0-0.7-0.7,0-1.6c0.7-0.9,1.6,0,1.6,0l5.7,5.2l0.4-0.4
							l-5.4-5c0,0-0.7-0.7,0-1.6c0.7-0.7,1.6,0,1.6,0s4,3.6,5.6,5.2c1.6,1.5,2,1.1,2,1.1l-1.5-1.4l-1.7-1.6c0,0-0.7-0.7,0-1.6
							c0.7-0.7,1.6,0,1.6,0l4.5,4.1c2.7,2.5,2.9,6.7,0.4,9.4c-2.5,2.7-6.7,2.9-9.4,0.4c-0.1-0.1-0.4-0.4-0.4-0.4l0,0L122.3,52z"/>
					</g>
					<g id="g28_115_" transform="translate(25.541,30.5415)">
						<path id="path30_109_" fill="#FFAC33" d="M113.9,30.1c-0.1,0-0.2,0-0.4-0.1c-0.2-0.2-0.2-0.6-0.1-0.9l1.7-2.2
							c0.2-0.2,0.5-0.2,0.9-0.1c0.2,0.2,0.2,0.5,0.1,0.9l-1.7,2.2C114.3,30,114.1,30.1,113.9,30.1"/>
					</g>
					<g id="g32_91_" transform="translate(20,30)">
						<path id="path34_88_" fill="#FFAC33" d="M116.2,31c-0.4,0-0.6-0.2-0.6-0.6v-2.9c0-0.4,0.2-0.6,0.6-0.6s0.6,0.2,0.6,0.6v2.9
							C116.9,30.7,116.6,31,116.2,31"/>
					</g>
					<g id="g36_82_" transform="translate(29.417,27.333)">
						<path id="path38_82_" fill="#FFAC33" d="M112.3,35.1c-0.2,0-0.5-0.1-0.5-0.4c-0.1-0.2,0-0.6,0.4-0.7l2.6-1
							c0.2-0.1,0.6,0,0.7,0.4c0.1,0.2,0,0.6-0.4,0.7l-2.6,1H112.3"/>
					</g>
				</g>
			</g>
		</g>
	</g>
</g>
<g id="g12_169_">
	<g>
		<g>
			<g>
				<g id="g14_171_">
					<g id="g20_155_" transform="translate(21.1426,4.7852)">
						<path id="path22_155_" fill="#E1E8ED" d="M37.2-12.7c0,0.7-0.6,1.2-1.2,1.2c-0.7,0-1.2-0.6-1.2-1.2c0-0.7,0.6-1.2,1.2-1.2
							C36.5-14,37.2-13.4,37.2-12.7"/>
					</g>
					<g id="g24_146_" transform="translate(28.6426,21.3569)">
						<path id="path26_146_" fill="#E1E8ED" d="M34.2-39.1c0-3.1-2.5-5.7-5.7-5.7c-3.1,0-5.7,2.5-5.7,5.7c0,3.1-0.6,9.9-0.6,9.9
							c0,0.7,0.6,1.2,1.2,1.2c0.7,0,1.2-0.6,1.2-1.2c0,0.7,0.6,1.2,1.2,1.2c0.7,0,1.2-0.6,1.2-1.2h2.5c0,0.7,0.6,1.2,1.2,1.2
							c0.7,0,1.2-0.6,1.2-1.2c0,0.7,0.6,1.2,1.2,1.2c0.7,0,1.2-0.6,1.2-1.2C34.8-29.3,34.2-35.9,34.2-39.1"/>
					</g>
					<g id="g28_105_" transform="translate(21,34)">
						<path id="path30_100_" fill="#DD2E44" d="M37.3-59.3c0,1.2-0.9,3.5-1.1,3.5c-0.4,0-1.1-2.2-1.1-3.5c0-1.2,0.9-1.7,1.1-1.7
							C36.4-61,37.3-60.5,37.3-59.3"/>
					</g>
					<g id="g32_84_" transform="translate(16.6348,4)">
						<path id="path34_81_" fill="#DD2E44" d="M39-11.5c0-1.5,1-4.7,1.4-4.7s1.4,3.2,1.4,4.7s-1,1.7-1.4,1.7C40-9.6,39-9.9,39-11.5"
							/>
					</g>
					<g id="g36_75_" transform="translate(26,14.5)">
						<path id="path38_75_" fill="#F4900C" d="M35.1-28.1c0,0.9-2.9,2.6-4.1,2.6c-1.2,0-4.1-1.7-4.1-2.6s2.9-2.6,4.1-2.6
							C32.4-30.9,35.1-29,35.1-28.1"/>
					</g>
					<g id="g40_77_" transform="translate(26,14.5)">
						<path id="path42_75_" fill="#FFAC33" d="M35.1-28.1c0,0.9-8.2,0.9-8.2,0s2.9-2.6,4.1-2.6C32.4-30.9,35.1-29,35.1-28.1"/>
					</g>
					<g id="g44_59_" transform="translate(14,18.5)">
						<path id="path46_59_" fill="#292F33" d="M40-34.5c0,0.5-0.4,0.9-0.9,0.9s-0.9-0.4-0.9-0.9s0.4-0.9,0.9-0.9S40-35,40-34.5"/>
					</g>
					<g id="g48_48_" transform="translate(27,18.5)">
						<path id="path50_48_" fill="#292F33" d="M34.8-34.5c0,0.5-0.4,0.9-0.9,0.9S33-34,33-34.5s0.4-0.9,0.9-0.9S34.8-35,34.8-34.5"
							/>
					</g>
				</g>
			</g>
		</g>
	</g>
</g>
<g id="g12_179_">
	<g>
		<g>
			<g>
				<g id="g14_181_">
					<g id="g20_169_" transform="translate(27,28.0005)">
						<path id="path22_169_" fill="#292F33" d="M62.4,33.8c-2.1,0-3.7-1-4.7-2.9c-1,1.9-2.4,2.9-4.1,2.9c-0.4,0-0.6-0.2-0.6-0.6
							c0-0.4,0.2-0.6,0.6-0.6c1.6,0,2.9-1.1,3.6-3.5c0.1-0.2,0.2-0.4,0.6-0.4c0.4,0,0.5,0.1,0.6,0.4c0.7,2.4,2.1,3.5,4.1,3.5
							c0.4,0,0.6,0.2,0.6,0.6C63,33.6,62.8,33.8,62.4,33.8"/>
					</g>
					<g id="g24_156_" transform="translate(15.604,27.3462)">
						<path id="path26_156_" fill="#FFAC33" d="M67,34.8c2,2,0.2,3.5-1.7,5.5c-2,2-3.5,3.7-5.5,1.7s-2-5.2,0-7.2
							C61.8,32.8,65,32.8,67,34.8"/>
					</g>
					<g id="g28_114_" transform="translate(16.4351,26.0278)">
						<path id="path30_108_" fill="#BE1931" d="M66.6,36.9c1,1,0.1,3.2-1.7,5.1c-1.9,1.9-4.2,2.7-5.1,1.7c-1-1-0.1-3.2,1.7-5.1
							C63.4,36.8,65.7,36,66.6,36.9"/>
					</g>
					<g id="g32_90_" transform="translate(22.2988,27.3462)">
						<path id="path34_87_" fill="#FFAC33" d="M64.3,34.8c-2,2-0.2,3.5,1.7,5.5c2,2,3.5,3.7,5.5,1.7s2-5.2,0-7.2
							S66.3,32.8,64.3,34.8"/>
					</g>
					<g id="g36_81_" transform="translate(21.4688,26.0278)">
						<path id="path38_81_" fill="#BE1931" d="M64.6,36.9c-1,1-0.1,3.2,1.7,5.1c1.9,1.9,4.2,2.7,5.1,1.7c1-1,0.1-3.2-1.7-5.1
							C67.9,36.8,65.5,36,64.6,36.9"/>
					</g>
					<g id="g40_83_" transform="translate(23.4102,18.7793)">
						<path id="path42_81_" fill="#AA8DD8" d="M63.9,48.5c0.1-0.1,0.2-0.1,0.4-0.1c0.5,0,1,0.2,1.2,0.5c0.4,0.2,0.5,0.7,0.4,1.1
							c-0.1,0.7-0.7,1.4-2,1.2c-0.5,0-0.6,0.1-0.6,0.1c0,0.1,0.1,0.2,0.6,0.4c0.5,0,1,0.2,1.2,0.5c0.4,0.2,0.5,0.7,0.4,1.1
							c-0.1,0.7-0.7,1.4-2,1.2c-0.4,0-0.5,0-0.6,0.1l-0.1,0.1c0,0.1,0.1,0.2,0.6,0.4c0.4,0,0.5,0.4,0.5,0.6c0,0.4-0.4,0.5-0.6,0.5
							c-1.2-0.1-1.7-0.9-1.6-1.6c0.1-0.7,0.7-1.4,2-1.2c0.4,0,0.5,0,0.6-0.1l0.1-0.1c0-0.1-0.1-0.2-0.6-0.4
							c-1.2-0.1-1.7-0.9-1.6-1.6c0.1-0.7,0.7-1.4,2-1.2c0.4,0,0.5,0,0.6-0.1l0.1-0.1c0-0.1-0.1-0.2-0.6-0.4c-0.4,0-0.5-0.4-0.5-0.6
							C63.6,48.7,63.7,48.6,63.9,48.5"/>
					</g>
					<g id="g44_64_" transform="translate(16.2661,1.0146)">
						<path id="path46_64_" fill="#77B255" d="M66.7,76.8c-1.1,0.4-2-0.2-2.1-0.9c-0.2-0.6,0.2-1.5,1.4-1.9c0.5-0.1,0.6-0.4,0.6-0.4
							c0-0.1-0.2-0.1-0.7,0c-1.1,0.4-2-0.2-2.1-0.9c-0.2-0.6,0.2-1.5,1.4-1.9c0.5-0.1,0.6-0.4,0.6-0.4c0-0.1-0.2-0.1-0.7,0
							c-0.4,0.1-0.6-0.1-0.7-0.4c-0.1-0.4,0.1-0.6,0.4-0.7c1.1-0.4,2,0.2,2.1,0.9c0.2,0.6-0.2,1.5-1.4,1.9c-0.5,0.1-0.6,0.4-0.6,0.4
							c0,0.1,0.2,0.1,0.7,0c1.1-0.4,2,0.2,2.1,0.9c0.2,0.6-0.2,1.5-1.4,1.9c-0.5,0.1-0.6,0.4-0.6,0.4c0,0.1,0.2,0.1,0.7,0
							c0.4-0.1,0.6,0.1,0.7,0.4C67.2,76.4,67.1,76.7,66.7,76.8"/>
					</g>
					<g id="g48_53_" transform="translate(2,9.5)">
						<path id="path50_53_" fill="#5C913B" d="M72.5,63.2c0-0.5,0.4-0.9,0.9-0.9s0.9,0.4,0.9,0.9s-0.4,0.9-0.9,0.9
							C72.9,64.2,72.5,63.7,72.5,63.2"/>
					</g>
					<g id="g52_51_" transform="translate(6,6)">
						<path id="path54_49_" fill="#9266CC" d="M70.9,68.8c0-0.6,0.5-1.1,1.1-1.1s1.1,0.5,1.1,1.1s-0.5,1.1-1.1,1.1
							C71.4,70.1,70.9,69.5,70.9,68.8"/>
					</g>
					<g id="g56_36_" transform="translate(29,10)">
						<path id="path58_36_" fill="#9266CC" d="M61.5,62.5c0-0.6,0.5-1.1,1.1-1.1s1.1,0.5,1.1,1.1s-0.5,1.1-1.1,1.1
							C62.1,63.7,61.5,63.1,61.5,62.5"/>
					</g>
					<g id="g60_48_" transform="translate(25,5.5)">
						<path id="path62_41_" fill="#5C913B" d="M63.1,69.6c0-0.5,0.4-0.9,0.9-0.9s0.9,0.4,0.9,0.9s-0.4,0.9-0.9,0.9
							C63.6,70.6,63.1,70.1,63.1,69.6"/>
					</g>
					<g id="g64_24_" transform="translate(17,17.5)">
						<path id="path66_24_" fill="#5C913B" d="M66.4,50.5c0-0.5,0.4-0.9,0.9-0.9s0.9,0.4,0.9,0.9s-0.4,0.9-0.9,0.9
							C66.8,51.3,66.4,51,66.4,50.5"/>
					</g>
					<g id="g68_24_" transform="translate(6,14)">
						<path id="path70_24_" fill="#FFCC4D" d="M70.9,56.1c0-0.6,0.5-1.1,1.1-1.1s1.1,0.5,1.1,1.1s-0.5,1.1-1.1,1.1
							C71.4,57.3,70.9,56.7,70.9,56.1"/>
					</g>
					<g id="g72_22_" transform="translate(27,20.5)">
						<path id="path74_22_" fill="#FFCC4D" d="M62.4,45.7c0-0.5,0.4-0.9,0.9-0.9s0.9,0.4,0.9,0.9s-0.4,0.9-0.9,0.9
							C62.8,46.6,62.4,46.2,62.4,45.7"/>
					</g>
					<g id="g76_20_" transform="translate(12,22.5)">
						<path id="path78_20_" fill="#FFCC4D" d="M68.5,42.6c0-0.5,0.4-0.9,0.9-0.9s0.9,0.4,0.9,0.9s-0.4,0.9-0.9,0.9
							S68.5,43.1,68.5,42.6"/>
					</g>
				</g>
			</g>
		</g>
	</g>
</g>
<g id="g12_49_">
	<g>
		<g>
			<g>
				<g id="g14_49_">
					<g id="g20_37_" transform="translate(12.9829,33.438)">
						<path id="path22_37_" fill="#FFAC33" d="M93-14.4c2.7-0.1,4.6,1,4.7,4c0.1,2.5-3.1,4-4.7,4.1c-1.5,0-0.7-1.1,0.4-1.4
							c0.9-0.2,2.5-1.4,2.1-2.6c-0.4-1.4-2.5-1.6-3.7,0.1c-0.5,0.7-2.1,0.5-2.4-0.2C88.7-11.8,90-14.3,93-14.4"/>
					</g>
					<g id="g24_28_" transform="translate(36.75,15.6162)">
						<path id="path26_28_" fill="#E1E8ED" d="M83.3,14c0-4.6-2.6-6.7-8.6-6.7c-0.6,0-1.2,0-1.7,0.1c-0.7-1.4-2.9-1.6-4.9-1.6
							c-2.5,0-5.9,3.6-5.9,6.4s2.1,2.9,4.6,2.9c0.1,1.9,0.7,3.4,1.9,4.2c0.1,0.6,0.9,3.4,2.4,3.4c0.7,0,1.2-1,1.5-2
							c0.6,0.1,1.4,0.1,2.2,0.1c1,0,2-0.1,2.7-0.2c0,1,0.4,2.1,1.2,2.1c1.4,0,2.5-3,2.9-3.9C82.7,17.7,83.3,16.1,83.3,14"/>
					</g>
					<g id="g28_37_" transform="translate(7,21.2139)">
						<path id="path30_28_" fill="#292F33" d="M95.4,5.1C95.4,5.6,95,6,94.5,6s-0.9-0.4-0.9-0.9s0.4-0.9,0.9-0.9S95.4,4.6,95.4,5.1"
							/>
					</g>
					<g id="g32_60_" transform="translate(18.5625,32.6611)">
						<path id="path34_19_" fill="#FFCC4D" d="M90.6-13.1c2.5,0.9,3.4,2.5,2.4,5.4c-0.7,2.4-4.4,2.6-6,2c-1.4-0.5-0.4-1.4,0.9-1.1
							c1,0.1,2.7-0.4,3-1.6c0.1-1.4-1.7-2.4-3.5-1.2c-0.7,0.5-3.4,0.2-3.2-0.6C84.5-12.3,87.9-14.1,90.6-13.1"/>
					</g>
				</g>
			</g>
		</g>
	</g>
</g>
<g id="g12_177_">
	<g>
		<g>
			<g>
				<g id="g14_179_">
					<g id="g20_163_" transform="translate(36,19)">
						<path id="path22_163_" fill="#FDCB58" d="M162.4,8.6c0,5.6-4.5,10.1-10.1,10.1s-10.1-4.5-10.1-10.1s4.5-10.1,10.1-10.1
							C157.9-1.4,162.4,3.1,162.4,8.6"/>
					</g>
					<g id="g24_154_" transform="translate(7,24)">
						<path id="path26_154_" fill="#664500" d="M174.1,0.6c-0.4,0-0.6-0.2-0.6-0.6s0.2-0.6,0.6-0.6c0.1,0,2.1,0,3.6-2.1
							c0.2-0.2,0.6-0.4,0.9-0.1c0.2,0.2,0.4,0.6,0.1,0.9C176.9,0.6,174.2,0.6,174.1,0.6"/>
					</g>
					<g id="g28_112_" transform="translate(31,24)">
						<path id="path30_106_" fill="#664500" d="M164.4,0.6c-0.1,0-2.7,0-4.6-2.6c-0.2-0.2-0.1-0.6,0.1-0.9c0.2-0.2,0.6-0.1,0.9,0.1
							c1.6,2.1,3.6,2.1,3.6,2.1c0.4,0,0.6,0.2,0.6,0.6S164.7,0.6,164.4,0.6"/>
					</g>
					<g id="g32_88_" transform="translate(31.5996,16.7998)">
						<path id="path34_85_" fill="#664500" d="M164.1,12.2c-0.1,0-1.1-0.9-2.7-1.4c0-0.1,0-0.1,0-0.2c0-0.2-0.1-0.4-0.2-0.6
							c1.1-0.2,2-0.4,2-0.4c0.4,0,0.6-0.2,0.6-0.6c0-0.4-0.2-0.6-0.6-0.6c-0.1,0-3.2,0-5.1,2c-0.1,0.1-0.2,0.4-0.1,0.6
							c0.1,0.2,0.2,0.4,0.5,0.4c2.7,0,5,1.6,5,1.6c0.1,0.1,0.2,0.1,0.4,0.1s0.4-0.1,0.5-0.2C164.4,12.7,164.4,12.3,164.1,12.2"/>
					</g>
					<g id="g36_80_" transform="translate(16.707,19.707)">
						<path id="path38_80_" fill="#664500" d="M170.2,7.5c-1.9-1.9-5-2-5.1-2c-0.4,0-0.6,0.2-0.6,0.6s0.2,0.6,0.6,0.6
							c0,0,0.9,0,2,0.4c-0.1,0.1-0.2,0.4-0.2,0.6c0,0.1,0,0.1,0,0.2c-1.6,0.5-2.7,1.4-2.7,1.4c-0.2,0.2-0.4,0.6-0.1,0.9
							c0.1,0.1,0.2,0.2,0.5,0.2c0.1,0,0.2,0,0.4-0.1c0,0,2.2-1.6,5-1.6c0.2,0,0.5-0.1,0.5-0.4C170.4,7.9,170.3,7.6,170.2,7.5"/>
					</g>
					<g id="g40_82_" transform="translate(19,7)">
						<path id="path42_80_" fill="#664500" d="M169.2,27.7c-0.1,0-0.4-0.1-0.5-0.2l-1.9-2.4l-1.4,1.7c-0.1,0.1-0.2,0.2-0.4,0.2
							c-0.1,0-0.4,0-0.5-0.1l-0.6-0.6c-0.2-0.2-0.2-0.6,0-0.9c0.2-0.2,0.6-0.2,0.9,0l0.1,0.1l1.4-1.9c0.1-0.1,0.2-0.2,0.5-0.2
							c0.1,0,0.4,0.1,0.5,0.2l1.9,2.4l1.9-2.4c0.1-0.1,0.2-0.2,0.5-0.2c0.1,0,0.4,0.1,0.5,0.2l1.4,1.9l0.1-0.1
							c0.2-0.2,0.6-0.2,0.9,0c0.2,0.2,0.2,0.6,0,0.9l-0.6,0.6c-0.1,0.1-0.2,0.1-0.5,0.1c-0.1,0-0.4-0.1-0.4-0.2l-1.4-1.7l-1.9,2.4
							C169.6,27.6,169.4,27.7,169.2,27.7"/>
					</g>
				</g>
			</g>
		</g>
	</g>
</g>
<g id="g12_47_">
	<g>
		<g>
			<g>
				<g id="g14_47_">
					<g id="g20_35_" transform="translate(36.8848,25.1665)">
						<path id="path22_35_" fill="#BE1931" d="M109.3-1c0-3.2-2.6-5.7-5.7-5.7c-2,0-3.6,1-4.7,2.4c-1-1.5-2.7-2.4-4.7-2.4
							c-3.2,0-5.7,2.6-5.7,5.7c0,0.5,0,0.9,0.1,1.4c0.7,5,6.4,10.2,10.4,11.7c4-1.5,9.5-6.7,10.4-11.7C109.3-0.2,109.3-0.7,109.3-1"
							/>
					</g>
				</g>
			</g>
		</g>
	</g>
</g>
<g id="g12_176_">
	<g>
		<g>
			<g>
				<g id="g14_178_">
					<g id="g20_162_" transform="translate(19,33)">
						<path id="path22_162_" fill="#F4900C" d="M143-13.5c4.2,0,7.6,2.4,8.6,1.1c0.1-0.2,0.1-0.4,0.1-0.6c0-1.1-4-3-8.9-3
							s-8.9,1.7-8.9,3c0,0.2,0,0.4,0.1,0.6C135.4-11.2,138.7-13.5,143-13.5"/>
					</g>
					<g id="g24_153_" transform="translate(19,34)">
						<path id="path26_153_" fill="#FFCC4D" d="M143-15.2c-3.6,0-6.2,1.1-7.2,1.5c-0.2,0.1-0.4,0.5-0.2,0.7c0.1,0.2,6.2,16,6.2,16
							s0.5,1.1,1.1,1.1S144,3,144,3l6.2-16c0,0,0.1-0.5-0.4-0.7C149.1-14.2,146.6-15.2,143-15.2"/>
					</g>
				</g>
			</g>
		</g>
	</g>
</g>
<g id="g28_111_">
	<g>
		<g>
			<g>
				<g>
					<defs>
						<path id="SVGID_3_" d="M154.7,20.5c-0.2,0.1-0.4,0.5-0.2,0.7l0,0c0.1,0.2,6.2,16,6.2,16l0,0c0,0,0.6,1.1,1.1,1.1l0,0
							c0.6,0,1.1-1.1,1.1-1.1l0,0l6.2-16c0,0,0.1-0.5-0.4-0.7l0,0c-1-0.5-3.6-1.5-7.1-1.5l0,0C158.4,18.8,155.7,20,154.7,20.5"/>
					</defs>
					<clipPath id="SVGID_4_">
						<use xlink:href="#SVGID_3_"  overflow="visible"/>
					</clipPath>
					<g id="g30_3_" clip-path="url(#SVGID_4_)">
						<g id="g36_79_" transform="translate(19,6)">
							<path id="path38_79_" fill="#BE1931" d="M143,29.3c0,1.2-1,2.4-2.4,2.4s-2.4-1-2.4-2.4c0-1.2,1-2.4,2.4-2.4
								C142,27,143,28.1,143,29.3"/>
						</g>
						<g id="g40_81_" transform="translate(18,17)">
							<path id="path42_79_" fill="#BE1931" d="M143.4,11.8c0,1.2-1,2.4-2.4,2.4c-1.2,0-2.4-1-2.4-2.4c0-1.2,1-2.4,2.4-2.4
								C142.4,9.6,143.4,10.6,143.4,11.8"/>
						</g>
						<g id="g44_63_" transform="translate(21,29)">
							<path id="path46_63_" fill="#BE1931" d="M142.1-7.2c0,1.2-1,2.4-2.4,2.4c-1.2,0-2.4-1-2.4-2.4s1-2.4,2.4-2.4
								C141.1-9.5,142.1-8.4,142.1-7.2"/>
						</g>
						<g id="g48_52_" transform="translate(30,24)">
							<path id="path50_52_" fill="#BE1931" d="M138.5,0.7c0,1.2-1,2.4-2.4,2.4s-2.4-1-2.4-2.4c0-1.2,1-2.4,2.4-2.4
								S138.5-0.5,138.5,0.7"/>
						</g>
						<g id="g52_50_" transform="translate(28,12)">
							<path id="path54_48_" fill="#BE1931" d="M139.2,19.8c0,1.2-1,2.4-2.4,2.4s-2.4-1-2.4-2.4c0-1.2,1-2.4,2.4-2.4
								C138.2,17.5,139.2,18.6,139.2,19.8"/>
						</g>
						<g id="g56_35_" transform="translate(11,25)">
							<path id="path58_35_" fill="#BE1931" d="M146.2-0.8c0,1.2-1,2.4-2.4,2.4c-1.2,0-2.4-1-2.4-2.4c0-1.2,1-2.4,2.4-2.4
								S146.2-2.2,146.2-0.8"/>
						</g>
					</g>
				</g>
			</g>
		</g>
	</g>
</g>
<g id="g12_182_">
	<g>
		<g>
			<g>
				<g id="g14_184_">
					<g id="g20_172_" transform="translate(19,33)">
						<path id="path22_172_" fill="#F4900C" d="M169.1,26c4.2,0,7.6,2.4,8.6,1.1c0.1-0.2,0.1-0.4,0.1-0.6c0-1.1-4-3-8.9-3
							s-8.9,1.7-8.9,3c0,0.2,0,0.4,0.1,0.6C161.5,28.3,164.9,26,169.1,26"/>
					</g>
					<g id="g24_159_" transform="translate(19,34)">
						<path id="path26_159_" fill="#FFCC4D" d="M169.1,24.5c-3.6,0-6.2,1.1-7.2,1.5c-0.2,0.1-0.4,0.5-0.2,0.7c0.1,0.2,6.2,16,6.2,16
							s0.5,1.1,1.1,1.1s1.1-1.1,1.1-1.1l6.2-16c0,0,0.1-0.5-0.4-0.7C175.2,25.3,172.7,24.5,169.1,24.5"/>
					</g>
				</g>
			</g>
		</g>
	</g>
</g>
<g id="g28_117_">
	<g>
		<g>
			<g>
				<g>
					<defs>
						<path id="SVGID_5_" d="M181,60c-0.2,0.1-0.4,0.5-0.2,0.7l0,0c0.1,0.2,6.2,16,6.2,16l0,0c0,0,0.6,1.1,1.1,1.1l0,0
							c0.6,0,1.1-1.1,1.1-1.1l0,0l6.2-16c0,0,0.1-0.5-0.4-0.7l0,0c-1-0.5-3.6-1.5-7.1-1.5l0,0C184.5,58.5,181.9,59.5,181,60"/>
					</defs>
					<clipPath id="SVGID_6_">
						<use xlink:href="#SVGID_5_"  overflow="visible"/>
					</clipPath>
					<g id="g30_4_" clip-path="url(#SVGID_6_)">
						<g id="g36_83_" transform="translate(19,6)">
							<path id="path38_83_" fill="#BE1931" d="M169.1,68.8c0,1.2-1,2.4-2.4,2.4c-1.2,0-2.4-1-2.4-2.4s1-2.4,2.4-2.4
								C168.1,66.5,169.1,67.6,169.1,68.8"/>
						</g>
						<g id="g40_84_" transform="translate(18,17)">
							<path id="path42_82_" fill="#BE1931" d="M169.6,51.5c0,1.2-1,2.4-2.4,2.4c-1.2,0-2.4-1-2.4-2.4c0-1.2,1-2.4,2.4-2.4
								C168.5,49.1,169.6,50.1,169.6,51.5"/>
						</g>
						<g id="g44_65_" transform="translate(21,29)">
							<path id="path46_65_" fill="#BE1931" d="M168.4,32.3c0,1.2-1,2.4-2.4,2.4c-1.2,0-2.4-1-2.4-2.4c0-1.2,1-2.4,2.4-2.4
								C167.2,30,168.4,31.1,168.4,32.3"/>
						</g>
						<g id="g48_54_" transform="translate(30,24)">
							<path id="path50_54_" fill="#BE1931" d="M164.6,40.3c0,1.2-1,2.4-2.4,2.4s-2.4-1-2.4-2.4c0-1.2,1-2.4,2.4-2.4
								S164.6,39,164.6,40.3"/>
						</g>
						<g id="g52_52_" transform="translate(28,12)">
							<path id="path54_50_" fill="#BE1931" d="M165.5,59.3c0,1.2-1,2.4-2.4,2.4s-2.4-1-2.4-2.4c0-1.2,1-2.4,2.4-2.4
								C164.5,57,165.5,58.1,165.5,59.3"/>
						</g>
						<g id="g56_37_" transform="translate(11,25)">
							<path id="path58_37_" fill="#BE1931" d="M172.5,38.7c0,1.2-1,2.4-2.4,2.4c-1.2,0-2.4-1-2.4-2.4c0-1.2,1-2.4,2.4-2.4
								C171.4,36.3,172.5,37.3,172.5,38.7"/>
						</g>
					</g>
				</g>
			</g>
		</g>
	</g>
</g>
<g opacity="0.2">
	<circle fill="#FFFFFF" cx="118.2" cy="506.8" r="6.8"/>
</g>
<g opacity="0.2">
	<circle fill="#FFFFFF" cx="92.2" cy="506.8" r="6.8"/>
</g>
<g opacity="0.2">
	<circle fill="#FFFFFF" cx="144.8" cy="506.8" r="6.8"/>
</g>
<g opacity="0.2">
	<circle fill="#FFFFFF" cx="171.3" cy="506.8" r="6.8"/>
</g>
<g opacity="0.2">
	<circle fill="#FFFFFF" cx="197.6" cy="506.8" r="6.8"/>
</g>
<g opacity="0.2">
	<circle fill="#FFFFFF" cx="224.6" cy="506.8" r="6.8"/>
</g>
<g opacity="0.5">
	<path fill="#FFFFFF" d="M244.6,242.7c0,2.8-1.7,3.5-3.4,3.5h-1.9v-6.9h1.7C242.9,239.2,244.6,239.8,244.6,242.7z M240.7,240.2v4.9
		h0.6c1,0,1.9-0.5,1.9-2.5c0-2.1-0.9-2.4-1.9-2.4H240.7z"/>
	<path fill="#FFFFFF" d="M250.6,243.9h-3.3c0.1,1.1,0.6,1.4,1.3,1.4c0.5,0,0.9-0.1,1.3-0.5l0.5,0.7c-0.5,0.4-1.2,0.7-2,0.7
		c-1.6,0-2.5-1.1-2.5-2.8c0-1.6,0.8-2.8,2.3-2.8s2.3,1,2.3,2.7C250.7,243.6,250.6,243.8,250.6,243.9z M249.4,243
		c0-0.9-0.3-1.4-1-1.4c-0.6,0-1,0.4-1,1.4H249.4L249.4,243z"/>
	<path fill="#FFFFFF" d="M252.3,244.9v-6.2l1.3-0.1v6.3c0,0.2,0.1,0.4,0.3,0.4c0.1,0,0.2,0,0.3,0l0.3,0.9c-0.2,0.1-0.5,0.2-0.8,0.2
		C252.8,246.3,252.3,245.8,252.3,244.9z"/>
	<path fill="#FFFFFF" d="M257.2,239c0,0.4-0.3,0.8-0.8,0.8s-0.8-0.3-0.8-0.8c0-0.4,0.3-0.8,0.8-0.8
		C256.9,238.2,257.2,238.5,257.2,239z M257.1,246.2h-1.3v-5.3h1.3V246.2z"/>
	<path fill="#FFFFFF" d="M261.6,246.2h-1.5l-1.7-5.3h1.4l1.1,4.3l1.2-4.3h1.3L261.6,246.2z"/>
	<path fill="#FFFFFF" d="M268.9,243.9h-3.3c0.1,1.1,0.6,1.4,1.3,1.4c0.5,0,0.9-0.1,1.3-0.5l0.5,0.7c-0.5,0.4-1.2,0.7-2,0.7
		c-1.6,0-2.5-1.1-2.5-2.8c0-1.6,0.8-2.8,2.3-2.8s2.3,1,2.3,2.7C268.9,243.6,268.9,243.8,268.9,243.9z M267.6,243
		c0-0.9-0.3-1.4-1-1.4c-0.6,0-1,0.4-1,1.4H267.6L267.6,243z"/>
	<path fill="#FFFFFF" d="M273.7,240.8l-0.2,1.2c-0.2,0-0.3-0.1-0.5-0.1c-0.6,0-1,0.5-1.2,1.4v2.8h-1.2v-5.3h1.1l0.1,1
		c0.2-0.8,0.8-1.2,1.4-1.2C273.4,240.7,273.5,240.7,273.7,240.8z"/>
	<path fill="#FFFFFF" d="M279.2,243.9h-3.3c0.1,1.1,0.6,1.4,1.3,1.4c0.5,0,0.9-0.1,1.3-0.5l0.5,0.7c-0.5,0.4-1.2,0.7-2,0.7
		c-1.6,0-2.5-1.1-2.5-2.8c0-1.6,0.8-2.8,2.3-2.8s2.3,1,2.3,2.7C279.2,243.6,279.2,243.8,279.2,243.9z M278,243c0-0.9-0.3-1.4-1-1.4
		c-0.6,0-1,0.4-1,1.4H278L278,243z"/>
	<path fill="#FFFFFF" d="M285.4,238.7v7.4h-1.1l-0.1-0.7c-0.3,0.5-0.8,0.8-1.5,0.8c-1.3,0-2-1.1-2-2.8c0-1.6,0.8-2.8,2.1-2.8
		c0.5,0,1,0.2,1.3,0.6v-2.7L285.4,238.7z M284.1,244.7v-2.4c-0.3-0.4-0.6-0.6-1-0.6c-0.7,0-1.1,0.6-1.1,1.8c0,1.4,0.4,1.8,1,1.8
		C283.5,245.3,283.8,245.1,284.1,244.7z"/>
</g>
<g>
	<text transform="matrix(1 0 0 1 73.261 374.7094)"><tspan x="0" y="0" fill="#FFFFFF" font-family="'FiraMono-Medium'" font-size="21.6">WHEN YOU WANT</tspan><tspan x="-13" y="25.9" fill="#FFFFFF" font-family="'FiraMono-Medium'" font-size="21.6">SOMEONE TO READ</tspan><tspan x="-25.9" y="51.8" fill="#FFFFFF" font-family="'FiraMono-Medium'" font-size="21.6">YOUR MESSAGE,GIVE</tspan><tspan x="-32.4" y="77.8" fill="#FFFFFF" font-family="'FiraMono-Medium'" font-size="21.6">THEM THE EMOJI KEY</tspan></text>
</g>
</svg>
