<?xml version="1.0" encoding="utf-8"?>
<!-- Generator: Adobe Illustrator 18.0.0, SVG Export Plug-In . SVG Version: 6.00 Build 0)  -->
<!DOCTYPE svg PUBLIC "-//W3C//DTD SVG 1.1//EN" "http://www.w3.org/Graphics/SVG/1.1/DTD/svg11.dtd">
<svg version="1.1" id="Layer_1" xmlns="http://www.w3.org/2000/svg" xmlns:xlink="http://www.w3.org/1999/xlink" x="0px" y="0px"
	 viewBox="0 0 315 560" enable-background="new 0 0 315 560" xml:space="preserve">
<polyline fill="#283344" points="0,560 0,0 315,0 315,560 "/>
<g id="back">
</g>
<g id="notes">
</g>
<g id="input">
</g>
<g id="landing_pages">
</g>
<g id="onboarding">
</g>
<g id="top">
	<g>
		<path fill="#F46060" d="M229.6,502.4H83.1c-9.3,0-16.9-7.6-16.9-16.9l0,0c0-9.3,7.6-16.9,16.9-16.9h146.5
			c9.3,0,16.9,7.6,16.9,16.9l0,0C246.5,494.8,239,502.4,229.6,502.4z"/>
	</g>
</g>
<g id="tap">
</g>
<g>
	<rect x="27.3" y="477.1" fill="none" width="260.4" height="46.7"/>
	<text transform="matrix(1 0 0 1 92.7007 493.3419)" fill="#FFFFFF" font-family="'FiraMono-Medium'" font-size="21.6">Go for it!</text>
</g>
<g>
	<text transform="matrix(1 0 0 1 40.8616 255.4298)"><tspan x="0" y="0" fill="#FFFFFF" font-family="'FiraMono-Medium'" font-size="21.6">THAT&apos;S IT. NOW YOU</tspan><tspan x="19.4" y="25.9" fill="#FFFFFF" font-family="'FiraMono-Medium'" font-size="21.6">KNOW THE BASICS</tspan><tspan x="32.4" y="51.8" fill="#FFFFFF" font-family="'FiraMono-Medium'" font-size="21.6">OF HOW SIMPLE</tspan><tspan x="25.9" y="77.8" fill="#FFFFFF" font-family="'FiraMono-Medium'" font-size="21.6">CIPHERS WORK. </tspan><tspan x="19.4" y="129.6" fill="#FFFFFF" font-family="'FiraMono-Medium'" font-size="21.6">TRY IT YOURSELF</tspan><tspan x="25.9" y="155.5" fill="#FFFFFF" font-family="'FiraMono-Medium'" font-size="21.6">AND SHARE WITH</tspan><tspan x="32.4" y="181.4" fill="#FFFFFF" font-family="'FiraMono-Medium'" font-size="21.6">YOUR FRIENDS.</tspan></text>
</g>
</svg>
