<?xml version="1.0" encoding="utf-8"?>
<!-- Generator: Adobe Illustrator 18.0.0, SVG Export Plug-In . SVG Version: 6.00 Build 0)  -->
<!DOCTYPE svg PUBLIC "-//W3C//DTD SVG 1.1//EN" "http://www.w3.org/Graphics/SVG/1.1/DTD/svg11.dtd">
<svg version="1.1" id="Layer_1" xmlns="http://www.w3.org/2000/svg" xmlns:xlink="http://www.w3.org/1999/xlink" x="0px" y="0px"
	 viewBox="0 0 315 560" enable-background="new 0 0 315 560" xml:space="preserve">
<polyline fill="#283344" points="0,560 0,0 315,0 315,560 "/>
<g id="back">
</g>
<g id="notes">
</g>
<g id="input">
</g>
<g id="landing_pages">
</g>
<g id="onboarding">
	<g>
		<g opacity="0.5">
			<path fill="#FFFFFF" d="M244,240.7c0,2.8-1.7,3.5-3.4,3.5h-1.9v-6.9h1.7C242.3,237.2,244,237.8,244,240.7z M240.1,238.2v4.9h0.6
				c1,0,1.9-0.5,1.9-2.5c0-2.1-0.9-2.4-1.9-2.4H240.1z"/>
			<path fill="#FFFFFF" d="M250,241.9h-3.3c0.1,1.1,0.6,1.4,1.3,1.4c0.5,0,0.9-0.1,1.3-0.5l0.5,0.7c-0.5,0.4-1.2,0.7-2,0.7
				c-1.6,0-2.5-1.1-2.5-2.8c0-1.6,0.8-2.8,2.3-2.8s2.3,1,2.3,2.7C250.1,241.6,250,241.8,250,241.9z M248.8,241c0-0.9-0.3-1.4-1-1.4
				c-0.6,0-1,0.4-1,1.4H248.8L248.8,241z"/>
			<path fill="#FFFFFF" d="M251.7,242.9v-6.2l1.3-0.1v6.3c0,0.2,0.1,0.4,0.3,0.4c0.1,0,0.2,0,0.3,0l0.3,0.9
				c-0.2,0.1-0.5,0.2-0.8,0.2C252.2,244.3,251.7,243.8,251.7,242.9z"/>
			<path fill="#FFFFFF" d="M256.6,237c0,0.4-0.3,0.8-0.8,0.8c-0.5,0-0.8-0.3-0.8-0.8c0-0.4,0.3-0.8,0.8-0.8
				C256.3,236.2,256.6,236.5,256.6,237z M256.5,244.2h-1.3v-5.3h1.3V244.2z"/>
			<path fill="#FFFFFF" d="M261,244.2h-1.5l-1.7-5.3h1.4l1.1,4.3l1.2-4.3h1.3L261,244.2z"/>
			<path fill="#FFFFFF" d="M268.3,241.9H265c0.1,1.1,0.6,1.4,1.3,1.4c0.5,0,0.9-0.1,1.3-0.5l0.5,0.7c-0.5,0.4-1.2,0.7-2,0.7
				c-1.6,0-2.5-1.1-2.5-2.8c0-1.6,0.8-2.8,2.3-2.8s2.3,1,2.3,2.7C268.3,241.6,268.3,241.8,268.3,241.9z M267,241
				c0-0.9-0.3-1.4-1-1.4c-0.6,0-1,0.4-1,1.4H267L267,241z"/>
			<path fill="#FFFFFF" d="M273.1,238.8l-0.2,1.2c-0.2,0-0.3-0.1-0.5-0.1c-0.6,0-1,0.5-1.2,1.4v2.8H270v-5.3h1.1l0.1,1
				c0.2-0.8,0.8-1.2,1.4-1.2C272.8,238.7,272.9,238.7,273.1,238.8z"/>
			<path fill="#FFFFFF" d="M278.6,241.9h-3.3c0.1,1.1,0.6,1.4,1.3,1.4c0.5,0,0.9-0.1,1.3-0.5l0.5,0.7c-0.5,0.4-1.2,0.7-2,0.7
				c-1.6,0-2.5-1.1-2.5-2.8c0-1.6,0.8-2.8,2.3-2.8s2.3,1,2.3,2.7C278.6,241.6,278.6,241.8,278.6,241.9z M277.4,241
				c0-0.9-0.3-1.4-1-1.4c-0.6,0-1,0.4-1,1.4H277.4L277.4,241z"/>
			<path fill="#FFFFFF" d="M284.8,236.7v7.4h-1.1l-0.1-0.7c-0.3,0.5-0.8,0.8-1.5,0.8c-1.3,0-2-1.1-2-2.8c0-1.6,0.8-2.8,2.1-2.8
				c0.5,0,1,0.2,1.3,0.6v-2.7L284.8,236.7z M283.5,242.7v-2.4c-0.3-0.4-0.6-0.6-1-0.6c-0.7,0-1.1,0.6-1.1,1.8c0,1.4,0.4,1.8,1,1.8
				C282.9,243.3,283.2,243.1,283.5,242.7z"/>
		</g>
		<g opacity="0.2">
			<circle fill="#FFFFFF" cx="118.2" cy="506.8" r="6.8"/>
		</g>
		<g opacity="0.2">
			<circle fill="#FFFFFF" cx="92.2" cy="506.8" r="6.8"/>
		</g>
		<g opacity="0.2">
			<circle fill="#FFFFFF" cx="144.8" cy="506.8" r="6.8"/>
		</g>
		<g opacity="0.2">
			<circle fill="#FFFFFF" cx="171.3" cy="506.8" r="6.8"/>
		</g>
		<g opacity="0.2">
			<circle fill="#FFFFFF" cx="197.6" cy="506.8" r="6.8"/>
		</g>
		<g opacity="0.2">
			<circle fill="#FFFFFF" cx="224.6" cy="506.8" r="6.8"/>
		</g>
		<path fill="#3B88C3" d="M302.5,228.1l-17-11.3c0.2-0.9,0.3-133.2,0.3-133.2c0-7.7-6.3-14-14-14H43.3c-7.7,0-14,6.3-14,14V214
			c0,7.7,6.3,14,14,14L302.5,228.1z"/>
		<path fill="#E5E5E5" d="M105.8,251.8H43.3c-7.7,0-14,6.3-14,14v30.4c0,0.4,0,0.9,0.1,1.3L10.5,310h31.2c0.5,0.1,1.1,0.1,1.6,0.1
			h62.5c7.7,0,14-6.3,14-14v-30.4C119.8,258.1,113.5,251.8,105.8,251.8z"/>
		<g id="g12">
			<g>
				<g id="g14">
					<g id="g20" transform="translate(36,19)">
						<path id="path22" fill="#FFCC4D" d="M168.4,487.8c0,3.7-3,6.8-6.8,6.8c-3.7,0-6.8-3-6.8-6.8c0-3.7,3-6.8,6.8-6.8
							S168.4,484.1,168.4,487.8"/>
					</g>
					<g id="g24" transform="translate(15,20.5)">
						<path id="path26" fill="#664500" d="M181,485.7c0,0.8-0.4,1.4-1,1.4c-0.5,0-1-0.6-1-1.4s0.4-1.4,1-1.4S181,484.9,181,485.7"/>
					</g>
					<g id="g28" transform="translate(28,20.5)">
						<path id="path30" fill="#664500" d="M173.2,485.7c0,0.8-0.4,1.4-1,1.4c-0.5,0-1-0.6-1-1.4s0.4-1.4,1-1.4
							S173.2,484.9,173.2,485.7"/>
					</g>
					<g id="g32" transform="translate(6.999,25)">
						<path id="path34" fill="#664500" d="M185.9,479.4c-0.1,0-0.2,0-0.2-0.1c-0.2-0.1-0.2-0.4-0.1-0.6c1.3-1.7,3-1.8,3.1-1.8
							c0.2,0,0.4,0.2,0.4,0.4c0,0.2-0.2,0.4-0.4,0.4c-0.1,0-1.4,0-2.5,1.4C186.1,479.3,186,479.4,185.9,479.4"/>
					</g>
					<g id="g36" transform="translate(31.001,25)">
						<path id="path38" fill="#664500" d="M171.4,479.4c-0.1,0-0.2-0.1-0.3-0.2c-1.1-1.4-2.4-1.4-2.5-1.4c-0.2,0-0.4-0.2-0.4-0.4
							c0-0.2,0.2-0.4,0.4-0.4c0.1,0,1.8,0,3.1,1.8c0.1,0.2,0.1,0.4-0.1,0.6C171.6,479.4,171.5,479.4,171.4,479.4"/>
					</g>
					<g id="g40" transform="translate(24.4854,9.1211)">
						<path id="path42" fill="#664500" d="M175.3,501.6c0,0-0.5-1.7-2.2-1.7s-2.2,1.7-2.2,1.7c0,0.1,0,0.2,0.1,0.2s0.2,0,0.2,0
							s0.4-0.3,1.9-0.3c1.4,0,1.8,0.3,1.9,0.3l0.1,0.1h0.1C175.3,501.8,175.3,501.7,175.3,501.6"/>
					</g>
				</g>
			</g>
		</g>
		<g>
			<path d="M66.9,273.6c0,5.4-6.2,4.7-6.2,9.7v1.2h-2.9v-1.3c0-5.5,6-5.5,6-9.3c0-1.9-1.7-3.1-4-3.1c-1.6,0-3.4,0.8-4.8,2.5l-2-1.5
				c2-2.3,4.4-3.4,7.1-3.4C64.4,268.4,66.9,271,66.9,273.6z M61.7,290.2c0,1.3-1,2.3-2.3,2.3s-2.3-1-2.3-2.3s1-2.3,2.3-2.3
				C60.8,287.9,61.7,288.9,61.7,290.2z"/>
			<path d="M93.3,273.6c0,5.4-6.2,4.7-6.2,9.7v1.2h-2.9v-1.3c0-5.5,6-5.5,6-9.3c0-1.9-1.7-3.1-4-3.1c-1.6,0-3.4,0.8-4.8,2.5l-2-1.5
				c2-2.3,4.4-3.4,7.1-3.4C90.7,268.4,93.3,271,93.3,273.6z M88.1,290.2c0,1.3-1,2.3-2.3,2.3s-2.3-1-2.3-2.3s1-2.3,2.3-2.3
				C87.1,287.9,88.1,288.9,88.1,290.2z"/>
		</g>
	</g>
</g>
<g id="top">
</g>
<g id="tap">
</g>
<g id="g10_147_" transform="matrix(1.25,0,0,-1.25,0,47.5)">
	<g id="g12_172_">
		<g>
			<g>
				<g>
					<g id="g14_174_">
						<g id="g20_158_" transform="translate(36,19)">
							<path id="path22_158_" fill="#FFCC4D" d="M81.8-66.3c0-4.5-3.6-8.1-8.1-8.1s-8.1,3.6-8.1,8.1s3.6,8.1,8.1,8.1
								C78.1-58.3,81.8-61.9,81.8-66.3"/>
						</g>
						<g id="g24_149_" transform="translate(29.457,19.2031)">
							<path id="path26_149_" fill="#664500" d="M85.2-66.4c0,0.1-0.7,1.6-2.1,1.6S81-66.3,81-66.4s0-0.2,0.1-0.3s0.2-0.1,0.3,0
								c0,0,0.6,0.4,1.8,0.4c1.2,0,1.7-0.4,1.8-0.4h0.1c0.1,0,0.1,0,0.1,0.1C85.2-66.6,85.2-66.5,85.2-66.4"/>
						</g>
						<g id="g28_108_" transform="translate(17.457,19.2031)">
							<path id="path30_103_" fill="#664500" d="M91.5-66.4c0,0.1-0.7,1.6-2.1,1.6s-2.1-1.5-2.1-1.6s0-0.2,0.1-0.3
								c0.1-0.1,0.2-0.1,0.3,0c0,0,0.6,0.4,1.8,0.4c1.2,0,1.7-0.4,1.8-0.4h0.1c0.1,0,0.1,0,0.1,0.1C91.5-66.6,91.5-66.5,91.5-66.4"
								/>
						</g>
						<g id="g32_85_" transform="translate(32,20.9995)">
							<path id="path34_82_" fill="#664500" d="M83.9-67.4c-0.2,0-0.4,0.1-0.4,0.3c-0.8,2.1-3,2.6-3,2.6c-0.3,0.1-0.4,0.3-0.4,0.6
								c0.1,0.3,0.3,0.4,0.6,0.4c0.1,0,2.6-0.6,3.7-3.1c0.1-0.2,0-0.5-0.3-0.6C84-67.4,83.9-67.4,83.9-67.4"/>
						</g>
						<g id="g36_76_" transform="translate(5.9995,20.9995)">
							<path id="path38_76_" fill="#664500" d="M97.5-67.4c-0.1,0-0.1,0-0.2,0c-0.2,0.1-0.4,0.4-0.3,0.6c1,2.6,3.6,3.1,3.7,3.1
								c0.3,0.1,0.5-0.1,0.6-0.4s-0.1-0.5-0.4-0.6c-0.1,0-2.1-0.5-3-2.6C97.9-67.3,97.7-67.4,97.5-67.4"/>
						</g>
						<g id="g40_78_" transform="translate(19,15)">
							<path id="path42_76_" fill="#664500" d="M90.7-64.2c-1.7,0-2.9,0.2-4.3,0.5c-0.3,0.1-0.9,0-0.9-0.9c0-1.9,2.2-4.3,5.2-4.3
								s5.2,2.4,5.2,4.3c0,0.9-0.6,1-0.9,0.9C93.6-64,92.4-64.2,90.7-64.2"/>
						</g>
						<g id="g44_60_" transform="translate(10,14)">
							<path id="path46_60_" fill="#FFFFFF" d="M95.4-63.7c0,0,1.4-0.5,4.3-0.5c2.8,0,4.3,0.5,4.3,0.5s-0.9-1.9-4.3-1.9
								C96.4-65.6,95.4-63.7,95.4-63.7"/>
						</g>
						<g id="g48_49_" transform="translate(11.8472,8.7705)">
							<path id="path50_49_" fill="#5DADEC" d="M94.4-61c-0.3-1.3-1.6-2-2.9-1.7s-2,1.6-1.7,2.9s3,4.1,3.5,4
								C93.8-55.9,94.8-59.7,94.4-61"/>
						</g>
						<g id="g52_48_" transform="translate(26.1328,8.7705)">
							<path id="path54_46_" fill="#5DADEC" d="M86.9-61c0.3-1.3,1.6-2,2.9-1.7s2,1.6,1.7,2.9s-3,4.1-3.5,4
								C87.6-55.9,86.6-59.7,86.9-61"/>
						</g>
					</g>
				</g>
			</g>
		</g>
	</g>
</g>
<g id="g10_148_" transform="matrix(1.25,0,0,-1.25,0,47.5)">
	<g id="g12_173_">
		<g>
			<g>
				<g>
					<g id="g14_175_">
						<g id="g20_159_" transform="translate(36,19)">
							<path id="path22_159_" fill="#FFCC4D" d="M18.7-101.5c0-4.5-3.6-8.1-8.1-8.1s-8.1,3.6-8.1,8.1s3.6,8.1,8.1,8.1
								C15.1-93.5,18.7-97.1,18.7-101.5"/>
						</g>
						<g id="g24_150_" transform="translate(29.457,19.2031)">
							<path id="path26_150_" fill="#664500" d="M22.1-101.6c0,0.1-0.7,1.6-2.1,1.6s-2.1-1.5-2.1-1.6s0-0.2,0.1-0.3
								c0.1-0.1,0.2-0.1,0.3,0c0,0,0.6,0.4,1.8,0.4c1.2,0,1.7-0.4,1.8-0.4H22c0.1,0,0.1,0,0.1,0.1C22.1-101.8,22.2-101.7,22.1-101.6
								"/>
						</g>
						<g id="g28_109_" transform="translate(17.457,19.2031)">
							<path id="path30_104_" fill="#664500" d="M28.4-101.6c0,0.1-0.7,1.6-2.1,1.6s-2.1-1.5-2.1-1.6s0-0.2,0.1-0.3
								c0.1-0.1,0.2-0.1,0.3,0c0,0,0.6,0.4,1.8,0.4c1.2,0,1.7-0.4,1.8-0.4h0.1c0.1,0,0.1,0,0.1,0.1
								C28.4-101.8,28.5-101.7,28.4-101.6"/>
						</g>
						<g id="g32_86_" transform="translate(32,20.9995)">
							<path id="path34_83_" fill="#664500" d="M20.8-102.6c-0.2,0-0.4,0.1-0.4,0.3c-0.8,2.1-3,2.6-3,2.6c-0.3,0.1-0.4,0.3-0.4,0.6
								c0.1,0.3,0.3,0.4,0.6,0.4c0.1,0,2.6-0.6,3.7-3.1c0.1-0.2,0-0.5-0.3-0.6C20.9-102.6,20.9-102.6,20.8-102.6"/>
						</g>
						<g id="g36_77_" transform="translate(5.9995,20.9995)">
							<path id="path38_77_" fill="#664500" d="M34.5-102.6c-0.1,0-0.1,0-0.2,0c-0.2,0.1-0.4,0.4-0.3,0.6c1,2.6,3.6,3.1,3.7,3.1
								c0.3,0.1,0.5-0.1,0.6-0.4s-0.1-0.5-0.4-0.6c-0.1,0-2.1-0.5-3-2.6C34.8-102.5,34.6-102.6,34.5-102.6"/>
						</g>
						<g id="g40_79_" transform="translate(19,15)">
							<path id="path42_77_" fill="#664500" d="M27.6-99.4c-1.7,0-2.9,0.2-4.3,0.5c-0.3,0.1-0.9,0-0.9-0.9c0-1.9,2.2-4.3,5.2-4.3
								s5.2,2.4,5.2,4.3c0,0.9-0.6,1-0.9,0.9C30.5-99.2,29.3-99.4,27.6-99.4"/>
						</g>
						<g id="g44_61_" transform="translate(10,14)">
							<path id="path46_61_" fill="#FFFFFF" d="M32.4-98.9c0,0,1.4-0.5,4.3-0.5c2.8,0,4.3,0.5,4.3,0.5s-0.9-1.9-4.3-1.9
								C33.3-100.8,32.4-98.9,32.4-98.9"/>
						</g>
						<g id="g48_50_" transform="translate(11.8472,8.7705)">
							<path id="path50_50_" fill="#5DADEC" d="M31.4-96.1c-0.3-1.3-1.6-2-2.9-1.7s-2,1.6-1.7,2.9s3,4.1,3.5,4
								C30.7-91.1,31.7-94.9,31.4-96.1"/>
						</g>
						<g id="g52_49_" transform="translate(26.1328,8.7705)">
							<path id="path54_47_" fill="#5DADEC" d="M23.9-96.1c0.3-1.3,1.6-2,2.9-1.7s2,1.6,1.7,2.9s-3,4.1-3.5,4
								C24.5-91.1,23.6-94.9,23.9-96.1"/>
						</g>
					</g>
				</g>
			</g>
		</g>
	</g>
</g>
<g id="g10_150_" transform="matrix(1.25,0,0,-1.25,0,47.5)">
	<g id="g12_175_">
		<g>
			<g>
				<g>
					<g id="g14_177_">
						<g id="g20_161_" transform="translate(34.7988,36.9946)">
							<path id="path22_161_" fill="#99AAB5" d="M124.3-75.8c-0.2,0.1-3.8-1.9-4.7-4.3c-0.6-1.4-0.8-2.9-0.8-3.8
								c-0.7,0.4-1.4,0.6-2,0.6s-1.3-0.2-2-0.6c0,1-0.2,2.4-0.8,3.8c-0.9,2.4-4.5,4.4-4.7,4.3s2-7.6,3.3-9.9c-1.1-1.2-2-2.8-2-4.3
								s0.8-2.4,1.9-2.8c1.2-0.4,2.4,0.4,4.3,0.4s3.1-0.9,4.3-0.4c1.1,0.4,1.9,1.3,1.9,2.8s-0.9,3-2,4.3
								C122.3-83.4,124.5-75.9,124.3-75.8"/>
						</g>
						<g id="g24_152_" transform="translate(13.6919,19.0781)">
							<path id="path26_152_" fill="#F4ABBA" d="M135.4-66.4c-0.1,0.7-0.3,1.7-0.7,2.6c-0.7,1.9-2.7,3.4-2.9,3.4
								c-0.2-0.1,1.2-4.8,2.3-7.1C134.5-67,134.9-66.7,135.4-66.4"/>
						</g>
						<g id="g28_110_" transform="translate(27.0303,16.9063)">
							<path id="path30_105_" fill="#F4ABBA" d="M128.4-65.2c1,2.2,2.4,7,2.3,7.1c-0.2,0.1-2.1-1.5-2.9-3.4c-0.4-1-0.6-1.9-0.7-2.6
								C127.5-64.5,128-64.8,128.4-65.2"/>
						</g>
						<g id="g32_87_" transform="translate(26,7)">
							<path id="path34_84_" fill="#CCD6DD" d="M128.9-60c0-1.3-1.5-2.4-3.2-2.4c-1.8,0-3.2,1.1-3.2,2.4c0,1.3,1.5,2.4,3.2,2.4
								C127.5-57.6,128.9-58.7,128.9-60"/>
						</g>
						<g id="g36_78_" transform="translate(22,6.4219)">
							<path id="path38_78_" fill="#FFFFFF" d="M131-59.7c0-1.3-0.1-1.4-1.4-1.4c-1.3,0-1.4,0.1-1.4,1.4
								C128.2-59.2,131-59.2,131-59.7"/>
						</g>
						<g id="g40_80_" transform="translate(15,12.6719)">
							<path id="path42_78_" fill="#292F33" d="M134.7-63c0-0.4-0.3-0.7-0.7-0.7s-0.7,0.3-0.7,0.7s0.3,0.7,0.7,0.7
								S134.7-62.6,134.7-63"/>
						</g>
						<g id="g44_62_" transform="translate(26,12.6719)">
							<path id="path46_62_" fill="#292F33" d="M128.9-63c0-0.4-0.3-0.7-0.7-0.7c-0.4,0-0.7,0.3-0.7,0.7s0.3,0.7,0.7,0.7
								C128.6-62.3,128.9-62.6,128.9-63"/>
						</g>
						<g id="g48_51_" transform="translate(22,11.1719)">
							<path id="path50_51_" fill="#F4ABBA" d="M131-62.2c0-0.8-0.9-1.4-1.4-1.4s-1.4,0.6-1.4,1.4C128.2-61.4,131-61.4,131-62.2"/>
						</g>
					</g>
				</g>
			</g>
		</g>
	</g>
</g>
<g id="g10_154_" transform="matrix(1.25,0,0,-1.25,0,47.5)">
	<g id="g12_178_">
		<g>
			<g>
				<g>
					<g id="g14_180_">
						<g id="g20_168_" transform="translate(18,19)">
							<path id="path22_168_" fill="#E1E8ED" d="M28.1-133.1c0-2.6-1.8-4.7-4-4.7s-4,2.1-4,4.7c0,2.6,1.8,4.7,4,4.7
								S28.1-130.5,28.1-133.1"/>
						</g>
						<g id="g24_155_" transform="translate(37,19)">
							<path id="path26_155_" fill="#E1E8ED" d="M18.2-133.1c0-2.6-1.8-4.7-4-4.7s-4,2.1-4,4.7c0,2.6,1.8,4.7,4,4.7
								C16.4-128.4,18.2-130.5,18.2-133.1"/>
						</g>
						<g id="g28_113_" transform="translate(9,15)">
							<path id="path30_107_" fill="#292F33" d="M32.9-131c0-0.8-0.6-1.4-1.4-1.4c-0.8,0-1.4,0.6-1.4,1.4s0.6,1.4,1.4,1.4
								C32.2-129.6,32.9-130.2,32.9-131"/>
						</g>
						<g id="g32_89_" transform="translate(28,15)">
							<path id="path34_86_" fill="#292F33" d="M22.9-131c0-0.8-0.6-1.4-1.4-1.4s-1.4,0.6-1.4,1.4s0.6,1.4,1.4,1.4
								S22.9-130.2,22.9-131"/>
						</g>
					</g>
				</g>
			</g>
		</g>
	</g>
</g>
<g id="g10_157_" transform="matrix(1.25,0,0,-1.25,0,47.5)">
	<g id="g12_181_">
		<g>
			<g>
				<g>
					<g id="g14_183_">
						<g id="g20_171_" transform="translate(18,19)">
							<path id="path22_171_" fill="#E1E8ED" d="M112.2-133.1c0-2.6-1.8-4.7-4-4.7s-4,2.1-4,4.7c0,2.6,1.8,4.7,4,4.7
								C110.4-128.4,112.2-130.5,112.2-133.1"/>
						</g>
						<g id="g24_158_" transform="translate(37,19)">
							<path id="path26_158_" fill="#E1E8ED" d="M102.2-133.1c0-2.6-1.8-4.7-4-4.7s-4,2.1-4,4.7c0,2.6,1.8,4.7,4,4.7
								C100.4-128.4,102.2-130.5,102.2-133.1"/>
						</g>
						<g id="g28_116_" transform="translate(9,15)">
							<path id="path30_110_" fill="#292F33" d="M116.9-131c0-0.8-0.6-1.4-1.4-1.4s-1.4,0.6-1.4,1.4s0.6,1.4,1.4,1.4
								S116.9-130.2,116.9-131"/>
						</g>
						<g id="g32_92_" transform="translate(28,15)">
							<path id="path34_89_" fill="#292F33" d="M107-131c0-0.8-0.6-1.4-1.4-1.4s-1.4,0.6-1.4,1.4s0.6,1.4,1.4,1.4
								C106.3-129.6,107-130.2,107-131"/>
						</g>
					</g>
				</g>
			</g>
		</g>
	</g>
</g>
<g id="g10_149_" transform="matrix(1.25,0,0,-1.25,0,47.5)">
	<g id="g12_174_">
		<g>
			<g>
				<g>
					<g id="g14_176_">
						<g id="g20_160_" transform="translate(23.4941,31.6558)">
							<path id="path22_160_" fill="#DD2E44" d="M109.3-73c-0.3,0-0.6,0-0.9-0.1c-0.4,0-1.3,0.1-1.7,0.1c-4,0-7.5-1.5-7.5-6.8
								c0-4.3,3.3-7.8,8.1-7.8c4.7,0,8.5,3.5,8.5,7.8C115.7-74.4,111.3-73,109.3-73"/>
						</g>
						<g id="g24_151_" transform="translate(9.439,36.9087)">
							<path id="path26_151_" fill="#77B255" d="M116.7-75.7c0.8-0.8,1.3-1.1,1.6-2.3c0.1-0.7,1.1-0.7,1.1-0.7s-1.9-0.8-2.6-1.6
								c0,0,2.3,0.8,3.1,0.8c0,0,1.6-0.8,1.6-1.6c0,0,0,1.6-0.8,1.6c0,0,2.3,0,2.3-1.6c0,0,0,2.3-0.8,2.3c0,0,2.3,0.8,3.1,0
								c0,0-0.8,0.8-2.3,0.8c0,0,0.8,0.8,2.3,0.8c0,0-2.5,0.7-3.3-0.8c0,0-0.7,0.7,0.7,2c0,0-2-0.4-2-1.9c0,0-0.7,0-1.3,0.6
								C118.3-76.3,116.7-75.7,116.7-75.7"/>
						</g>
					</g>
				</g>
			</g>
		</g>
	</g>
</g>
<g id="g10_159_" transform="matrix(1.25,0,0,-1.25,0,47.5)">
	<g id="g12_183_">
		<g>
			<g>
				<g>
					<g id="g14_185_">
						<g id="g20_173_" transform="translate(35.751,15)">
							<path id="path22_173_" fill="#77B255" d="M60.8-64.2c-1.6,0-5.6-1.7-7.5-3.4v5.8c0,0.3-0.2,0.5-0.5,0.5s-0.5-0.2-0.5-0.5
								v-5.9c-1.8,1.7-5.9,3.5-7.6,3.5c-0.4,0,5.2-6.6,7.6-6v-0.2c0-0.3,0.2-0.5,0.5-0.5s0.5,0.2,0.5,0.5v0.2
								C55.8-70.7,61.2-64.2,60.8-64.2"/>
						</g>
						<g id="g24_160_" transform="translate(26,23.5835)">
							<path id="path26_160_" fill="#EA596E" d="M65.9-68.7c0-3-0.8-4.5-3.3-4.5c-2.5,0-3.3,1.5-3.3,4.5s2.4,6.4,3.3,6.4
								C63.5-62.3,65.9-65.7,65.9-68.7"/>
						</g>
						<g id="g28_118_" transform="translate(23.7949,35)">
							<path id="path30_111_" fill="#F4ABBA" d="M67.1-74.7c-0.2,0-1.9-6.8-2.3-9.1c-0.4,2.4-2.1,9.1-2.4,9.1
								c-0.5,0-2.8-4.3-2.8-6.2s2.7-3.8,5.2-3.8s5.1,1.9,5.1,3.8C69.9-79,67.6-74.7,67.1-74.7"/>
						</g>
					</g>
				</g>
			</g>
		</g>
	</g>
</g>
<g id="g10_146_" transform="matrix(1.25,0,0,-1.25,0,47.5)">
	<g id="g12_171_">
		<g>
			<g>
				<g>
					<g id="g14_173_">
						<g id="g20_157_" transform="translate(35.751,15)">
							<path id="path22_157_" fill="#77B255" d="M144.8-99.4c-1.6,0-5.6-1.7-7.5-3.4v5.8c0,0.3-0.2,0.5-0.5,0.5s-0.5-0.2-0.5-0.5
								v-5.9c-1.8,1.7-5.9,3.5-7.6,3.5c-0.4,0,5.2-6.6,7.6-6v-0.2c0-0.3,0.2-0.5,0.5-0.5s0.5,0.2,0.5,0.5v0.2
								C139.8-105.9,145.2-99.4,144.8-99.4"/>
						</g>
						<g id="g24_148_" transform="translate(26,23.5835)">
							<path id="path26_148_" fill="#EA596E" d="M149.9-103.9c0-3-0.8-4.5-3.3-4.5s-3.3,1.5-3.3,4.5s2.4,6.4,3.3,6.4
								C147.5-97.6,149.9-100.9,149.9-103.9"/>
						</g>
						<g id="g28_107_" transform="translate(23.7949,35)">
							<path id="path30_102_" fill="#F4ABBA" d="M151.1-109.9c-0.2,0-1.9-6.8-2.3-9.1c-0.4,2.4-2.1,9.1-2.4,9.1
								c-0.5,0-2.8-4.3-2.8-6.2c0-1.9,2.7-3.8,5.2-3.8s5.1,1.9,5.1,3.8C153.9-114.2,151.6-109.9,151.1-109.9"/>
						</g>
					</g>
				</g>
			</g>
		</g>
	</g>
</g>
<g id="g10_156_" transform="matrix(1.25,0,0,-1.25,0,47.5)">
	<g id="g12_180_">
		<g>
			<g>
				<g>
					<g id="g14_182_">
						<g id="g20_170_" transform="translate(2.7266,14.7012)">
							<path id="path22_170_" fill="#FFAC33" d="M99.2-131c0,0-0.6,0.6,0,1.3c0.6,0.6,1.3,0,1.3,0l3-2.8l0.2,0.4l-4.2,3.9
								c0,0-0.6,0.6,0,1.3s1.3,0,1.3,0l3.9-3.6l0.3,0.3l-4.6,4.2c0,0-0.6,0.6,0,1.3c0.6,0.6,1.3,0,1.3,0l4.6-4.2l0.3,0.3l-4.3,4
								c0,0-0.6,0.6,0,1.3c0.6,0.6,1.3,0,1.3,0s3.2-2.9,4.5-4.2c1.3-1.2,1.6-0.9,1.6-0.9l-1.2,1.1l-1.4,1.3c0,0-0.6,0.6,0,1.3
								c0.6,0.6,1.3,0,1.3,0l3.6-3.3c2.2-2,2.3-5.4,0.3-7.5c-2-2.2-5.4-2.3-7.5-0.3c-0.1,0.1-0.3,0.3-0.3,0.3l0,0L99.2-131z"/>
						</g>
						<g id="g24_157_" transform="translate(5.627,16.6504)">
							<path id="path26_157_" fill="#FFDC5D" d="M97.7-132c0,0-0.6,0.6,0,1.3s1.3,0,1.3,0l3-2.8l0.2,0.4l-4.2,3.9c0,0-0.6,0.6,0,1.3
								c0.6,0.6,1.3,0,1.3,0l3.9-3.6l0.3,0.3l-4.6,4.2c0,0-0.6,0.6,0,1.3c0.6,0.7,1.3,0,1.3,0l4.6-4.2l0.3,0.3l-4.3,4
								c0,0-0.6,0.6,0,1.3c0.6,0.6,1.3,0,1.3,0s3.2-2.9,4.5-4.2c1.3-1.2,1.6-0.9,1.6-0.9l-1.2,1.1l-1.4,1.3c0,0-0.6,0.6,0,1.3
								c0.6,0.6,1.3,0,1.3,0l3.6-3.3c2.2-2,2.3-5.4,0.3-7.5c-2-2.2-5.4-2.3-7.5-0.3c-0.1,0.1-0.3,0.3-0.3,0.3l0,0L97.7-132z"/>
						</g>
						<g id="g28_115_" transform="translate(25.541,30.5415)">
							<path id="path30_109_" fill="#FFAC33" d="M87-139.5c-0.1,0-0.2,0-0.3,0.1c-0.2,0.2-0.2,0.5-0.1,0.7l1.4,1.8
								c0.2,0.2,0.4,0.2,0.7,0.1c0.2-0.2,0.2-0.4,0.1-0.7l-1.4-1.8C87.3-139.4,87.2-139.5,87-139.5"/>
						</g>
						<g id="g32_91_" transform="translate(20,30)">
							<path id="path34_88_" fill="#FFAC33" d="M90-139.2c-0.3,0-0.5,0.2-0.5,0.5v2.3c0,0.3,0.2,0.5,0.5,0.5s0.5-0.2,0.5-0.5v-2.3
								C90.5-139,90.3-139.2,90-139.2"/>
						</g>
						<g id="g36_82_" transform="translate(29.417,27.333)">
							<path id="path38_82_" fill="#FFAC33" d="M85-137.7c-0.2,0-0.4,0.1-0.4,0.3c-0.1,0.2,0,0.5,0.3,0.6L87-136
								c0.2,0.1,0.5,0,0.6-0.3c0.1-0.2,0-0.5-0.3-0.6l-2.1-0.8C85.1-137.7,85-137.7,85-137.7"/>
						</g>
					</g>
				</g>
			</g>
		</g>
	</g>
</g>
<g id="g10_144_" transform="matrix(1.25,0,0,-1.25,0,47.5)">
	<g id="g12_169_">
		<g>
			<g>
				<g>
					<g id="g14_171_">
						<g id="g20_155_" transform="translate(21.1426,4.7852)">
							<path id="path22_155_" fill="#E1E8ED" d="M26.5-58.9c0-0.6-0.5-1-1-1c-0.6,0-1,0.5-1,1c0,0.6,0.5,1,1,1
								C26-57.8,26.5-58.3,26.5-58.9"/>
						</g>
						<g id="g24_146_" transform="translate(28.6426,21.3569)">
							<path id="path26_146_" fill="#E1E8ED" d="M22.6-67.6c0,2.5-2,4.6-4.6,4.6c-2.5,0-4.6-2-4.6-4.6c0-2.5-0.5-7.9-0.5-7.9
								c0-0.6,0.5-1,1-1c0.6,0,1,0.5,1,1c0-0.6,0.5-1,1-1c0.6,0,1,0.5,1,1h2c0-0.6,0.5-1,1-1c0.6,0,1,0.5,1,1c0-0.6,0.5-1,1-1
								c0.6,0,1,0.5,1,1C23.1-75.4,22.6-70.1,22.6-67.6"/>
						</g>
						<g id="g28_105_" transform="translate(21,34)">
							<path id="path30_100_" fill="#DD2E44" d="M26.6-74.2c0-1-0.7-2.8-0.9-2.8c-0.3,0-0.9,1.8-0.9,2.8s0.7,1.4,0.9,1.4
								C25.9-72.8,26.6-73.2,26.6-74.2"/>
						</g>
						<g id="g32_84_" transform="translate(16.6348,4)">
							<path id="path34_81_" fill="#DD2E44" d="M28.9-58.4c0,1.2,0.8,3.8,1.1,3.8s1.1-2.6,1.1-3.8s-0.8-1.4-1.1-1.4
								C29.7-59.9,28.9-59.7,28.9-58.4"/>
						</g>
						<g id="g36_75_" transform="translate(26,14.5)">
							<path id="path38_75_" fill="#F4900C" d="M23.9-64c0-0.7-2.3-2.1-3.3-2.1s-3.3,1.4-3.3,2.1c0,0.7,2.3,2.1,3.3,2.1
								C21.7-61.8,23.9-63.3,23.9-64"/>
						</g>
						<g id="g40_77_" transform="translate(26,14.5)">
							<path id="path42_75_" fill="#FFAC33" d="M23.9-64c0-0.7-6.6-0.7-6.6,0c0,0.7,2.3,2.1,3.3,2.1C21.7-61.8,23.9-63.3,23.9-64"/>
						</g>
						<g id="g44_59_" transform="translate(14,18.5)">
							<path id="path46_59_" fill="#292F33" d="M30.2-66.1c0-0.4-0.3-0.7-0.7-0.7s-0.7,0.3-0.7,0.7c0,0.4,0.3,0.7,0.7,0.7
								C29.9-65.4,30.2-65.7,30.2-66.1"/>
						</g>
						<g id="g48_48_" transform="translate(27,18.5)">
							<path id="path50_48_" fill="#292F33" d="M23.4-66.1c0-0.4-0.3-0.7-0.7-0.7S22-66.5,22-66.1s0.3,0.7,0.7,0.7
								C23.1-65.4,23.4-65.7,23.4-66.1"/>
						</g>
					</g>
				</g>
			</g>
		</g>
	</g>
</g>
<g id="g10_155_" transform="matrix(1.25,0,0,-1.25,0,47.5)">
	<g id="g12_179_">
		<g>
			<g>
				<g>
					<g id="g14_181_">
						<g id="g20_169_" transform="translate(27,28.0005)">
							<path id="path22_169_" fill="#292F33" d="M45.5-137.9c-1.7,0-3,0.8-3.8,2.3c-0.8-1.5-1.9-2.3-3.3-2.3c-0.3,0-0.5,0.2-0.5,0.5
								s0.2,0.5,0.5,0.5c1.3,0,2.3,0.9,2.9,2.8c0.1,0.2,0.2,0.3,0.5,0.3s0.4-0.1,0.5-0.3c0.6-1.9,1.7-2.8,3.3-2.8
								c0.3,0,0.5-0.2,0.5-0.5C46-137.7,45.8-137.9,45.5-137.9"/>
						</g>
						<g id="g24_156_" transform="translate(15.604,27.3462)">
							<path id="path26_156_" fill="#FFAC33" d="M51.5-137.5c1.6-1.6,0.2-2.8-1.4-4.4c-1.6-1.6-2.8-3-4.4-1.4
								c-1.6,1.6-1.6,4.2,0,5.8C47.3-135.9,49.9-135.9,51.5-137.5"/>
						</g>
						<g id="g28_114_" transform="translate(16.4351,26.0278)">
							<path id="path30_108_" fill="#BE1931" d="M51-136.8c0.8-0.8,0.1-2.6-1.4-4.1s-3.4-2.2-4.1-1.4c-0.8,0.8-0.1,2.6,1.4,4.1
								S50.3-136.1,51-136.8"/>
						</g>
						<g id="g32_90_" transform="translate(22.2988,27.3462)">
							<path id="path34_87_" fill="#FFAC33" d="M48-137.5c-1.6-1.6-0.2-2.8,1.4-4.4c1.6-1.6,2.8-3,4.4-1.4c1.6,1.6,1.6,4.2,0,5.8
								C52.1-135.9,49.6-135.9,48-137.5"/>
						</g>
						<g id="g36_81_" transform="translate(21.4688,26.0278)">
							<path id="path38_81_" fill="#BE1931" d="M48.4-136.8c-0.8-0.8-0.1-2.6,1.4-4.1s3.4-2.2,4.1-1.4c0.8,0.8,0.1,2.6-1.4,4.1
								S49.1-136.1,48.4-136.8"/>
						</g>
						<g id="g40_83_" transform="translate(23.4102,18.7793)">
							<path id="path42_81_" fill="#AA8DD8" d="M47.4-133c0.1,0.1,0.2,0.1,0.3,0.1c0.4,0,0.8-0.2,1-0.4c0.3-0.2,0.4-0.6,0.3-0.9
								c-0.1-0.6-0.6-1.1-1.6-1c-0.4,0-0.5-0.1-0.5-0.1c0-0.1,0.1-0.2,0.5-0.3c0.4,0,0.8-0.2,1-0.4c0.3-0.2,0.4-0.6,0.3-0.9
								c-0.1-0.6-0.6-1.1-1.6-1c-0.3,0-0.4,0-0.5-0.1l-0.1-0.1c0-0.1,0.1-0.2,0.5-0.3c0.3,0,0.4-0.3,0.4-0.5c0-0.3-0.3-0.4-0.5-0.4
								c-1,0.1-1.4,0.7-1.3,1.3c0.1,0.6,0.6,1.1,1.6,1c0.3,0,0.4,0,0.5,0.1l0.1,0.1c0,0.1-0.1,0.2-0.5,0.3c-1,0.1-1.4,0.7-1.3,1.3
								s0.6,1.1,1.6,1c0.3,0,0.4,0,0.5,0.1l0.1,0.1c0,0.1-0.1,0.2-0.5,0.3c-0.3,0-0.4,0.3-0.4,0.5C47.2-133.2,47.3-133.1,47.4-133"
								/>
						</g>
						<g id="g44_64_" transform="translate(16.2661,1.0146)">
							<path id="path46_64_" fill="#77B255" d="M51.1-123.7c-0.9-0.3-1.6,0.2-1.7,0.7c-0.2,0.5,0.2,1.2,1.1,1.5
								c0.4,0.1,0.5,0.3,0.5,0.3c0,0.1-0.2,0.1-0.6,0c-0.9-0.3-1.6,0.2-1.7,0.7c-0.2,0.5,0.2,1.2,1.1,1.5c0.4,0.1,0.5,0.3,0.5,0.3
								c0,0.1-0.2,0.1-0.6,0c-0.3-0.1-0.5,0.1-0.6,0.3c-0.1,0.3,0.1,0.5,0.3,0.6c0.9,0.3,1.6-0.2,1.7-0.7c0.2-0.5-0.2-1.2-1.1-1.5
								c-0.4-0.1-0.5-0.3-0.5-0.3c0-0.1,0.2-0.1,0.6,0c0.9,0.3,1.6-0.2,1.7-0.7c0.2-0.5-0.2-1.2-1.1-1.5c-0.4-0.1-0.5-0.3-0.5-0.3
								c0-0.1,0.2-0.1,0.6,0c0.3,0.1,0.5-0.1,0.6-0.3C51.5-123.4,51.4-123.6,51.1-123.7"/>
						</g>
						<g id="g48_53_" transform="translate(2,9.5)">
							<path id="path50_53_" fill="#5C913B" d="M58.6-128.1c0,0.4,0.3,0.7,0.7,0.7s0.7-0.3,0.7-0.7s-0.3-0.7-0.7-0.7
								C58.9-128.9,58.6-128.5,58.6-128.1"/>
						</g>
						<g id="g52_51_" transform="translate(6,6)">
							<path id="path54_49_" fill="#9266CC" d="M56.5-126.3c0,0.5,0.4,0.9,0.9,0.9s0.9-0.4,0.9-0.9s-0.4-0.9-0.9-0.9
								C56.9-127.3,56.5-126.8,56.5-126.3"/>
						</g>
						<g id="g56_36_" transform="translate(29,10)">
							<path id="path58_36_" fill="#9266CC" d="M44.4-128.4c0,0.5,0.4,0.9,0.9,0.9s0.9-0.4,0.9-0.9s-0.4-0.9-0.9-0.9
								C44.9-129.4,44.4-128.9,44.4-128.4"/>
						</g>
						<g id="g60_48_" transform="translate(25,5.5)">
							<path id="path62_41_" fill="#5C913B" d="M46.5-126c0,0.4,0.3,0.7,0.7,0.7s0.7-0.3,0.7-0.7c0-0.4-0.3-0.7-0.7-0.7
								C46.9-126.8,46.5-126.4,46.5-126"/>
						</g>
						<g id="g64_24_" transform="translate(17,17.5)">
							<path id="path66_24_" fill="#5C913B" d="M50.7-132.3c0,0.4,0.3,0.7,0.7,0.7s0.7-0.3,0.7-0.7s-0.3-0.7-0.7-0.7
								S50.7-132.7,50.7-132.3"/>
						</g>
						<g id="g68_24_" transform="translate(6,14)">
							<path id="path70_24_" fill="#FFCC4D" d="M56.5-130.5c0,0.5,0.4,0.9,0.9,0.9s0.9-0.4,0.9-0.9s-0.4-0.9-0.9-0.9
								C56.9-131.5,56.5-131,56.5-130.5"/>
						</g>
						<g id="g72_22_" transform="translate(27,20.5)">
							<path id="path74_22_" fill="#FFCC4D" d="M45.5-133.9c0,0.4,0.3,0.7,0.7,0.7s0.7-0.3,0.7-0.7s-0.3-0.7-0.7-0.7
								C45.8-134.6,45.5-134.3,45.5-133.9"/>
						</g>
						<g id="g76_20_" transform="translate(12,22.5)">
							<path id="path78_20_" fill="#FFCC4D" d="M53.4-135c0,0.4,0.3,0.7,0.7,0.7s0.7-0.3,0.7-0.7s-0.3-0.7-0.7-0.7
								S53.4-135.4,53.4-135"/>
						</g>
					</g>
				</g>
			</g>
		</g>
	</g>
</g>
<g id="g10_22_" transform="matrix(1.25,0,0,-1.25,0,47.5)">
	<g id="g12_49_">
		<g>
			<g>
				<g>
					<g id="g14_49_">
						<g id="g20_37_" transform="translate(12.9829,33.438)">
							<path id="path22_37_" fill="#FFAC33" d="M72.8-109.1c2.2,0.1,3.7-0.8,3.8-3.2c0.1-2-2.5-3.2-3.8-3.3c-1.2,0-0.6,0.9,0.3,1.1
								c0.7,0.2,2,1.1,1.7,2.1c-0.3,1.1-2,1.3-3-0.1c-0.4-0.6-1.7-0.4-1.9,0.2C69.4-111.2,70.4-109.2,72.8-109.1"/>
						</g>
						<g id="g24_28_" transform="translate(36.75,15.6162)">
							<path id="path26_28_" fill="#E1E8ED" d="M60.3-99.7c0,3.7-2.1,5.4-6.9,5.4c-0.5,0-1,0-1.4-0.1c-0.6,1.1-2.3,1.3-3.9,1.3
								c-2,0-4.7-2.9-4.7-5.1s1.7-2.3,3.7-2.3c0.1-1.5,0.6-2.7,1.5-3.4c0.1-0.5,0.7-2.7,1.9-2.7c0.6,0,1,0.8,1.2,1.6
								c0.5-0.1,1.1-0.1,1.8-0.1c0.8,0,1.6,0.1,2.2,0.2c0-0.8,0.3-1.7,1-1.7c1.1,0,2,2.4,2.3,3.1C59.8-102.7,60.3-101.4,60.3-99.7"
								/>
						</g>
						<g id="g28_37_" transform="translate(7,21.2139)">
							<path id="path30_28_" fill="#292F33" d="M75.9-102.7c0-0.4-0.3-0.7-0.7-0.7s-0.7,0.3-0.7,0.7s0.3,0.7,0.7,0.7
								S75.9-102.3,75.9-102.7"/>
						</g>
						<g id="g32_60_" transform="translate(18.5625,32.6611)">
							<path id="path34_19_" fill="#FFCC4D" d="M69.8-108.7c2-0.7,2.7-2,1.9-4.3c-0.6-1.9-3.5-2.1-4.8-1.6c-1.1,0.4-0.3,1.1,0.7,0.9
								c0.8-0.1,2.2,0.3,2.4,1.3c0.1,1.1-1.4,1.9-2.8,1c-0.6-0.4-2.7-0.2-2.6,0.5C64.9-109.4,67.6-107.9,69.8-108.7"/>
						</g>
					</g>
				</g>
			</g>
		</g>
	</g>
</g>
<g id="g10_153_" transform="matrix(1.25,0,0,-1.25,0,47.5)">
	<g id="g12_177_">
		<g>
			<g>
				<g>
					<g id="g14_179_">
						<g id="g20_163_" transform="translate(36,19)">
							<path id="path22_163_" fill="#FDCB58" d="M123.7-101.5c0-4.5-3.6-8.1-8.1-8.1s-8.1,3.6-8.1,8.1s3.6,8.1,8.1,8.1
								C120.1-93.5,123.7-97.1,123.7-101.5"/>
						</g>
						<g id="g24_154_" transform="translate(7,24)">
							<path id="path26_154_" fill="#664500" d="M138.9-104.1c-0.3,0-0.5,0.2-0.5,0.5s0.2,0.5,0.5,0.5c0.1,0,1.7,0,2.9,1.7
								c0.2,0.2,0.5,0.3,0.7,0.1c0.2-0.2,0.3-0.5,0.1-0.7C141.1-104.1,139-104.1,138.9-104.1"/>
						</g>
						<g id="g28_112_" transform="translate(31,24)">
							<path id="path30_106_" fill="#664500" d="M126.3-104.1c-0.1,0-2.2,0-3.7,2.1c-0.2,0.2-0.1,0.5,0.1,0.7s0.5,0.1,0.7-0.1
								c1.3-1.7,2.9-1.7,2.9-1.7c0.3,0,0.5-0.2,0.5-0.5S126.6-104.1,126.3-104.1"/>
						</g>
						<g id="g32_88_" transform="translate(31.5996,16.7998)">
							<path id="path34_85_" fill="#664500" d="M126-100.4c-0.1,0-0.9,0.7-2.2,1.1c0,0.1,0,0.1,0,0.2c0,0.2-0.1,0.3-0.2,0.5
								c0.9,0.2,1.6,0.3,1.6,0.3c0.3,0,0.5,0.2,0.5,0.5s-0.2,0.5-0.5,0.5c-0.1,0-2.6,0-4.1-1.6c-0.1-0.1-0.2-0.3-0.1-0.5
								s0.2-0.3,0.4-0.3c2.2,0,4-1.3,4-1.3c0.1-0.1,0.2-0.1,0.3-0.1s0.3,0.1,0.4,0.2C126.2-100.8,126.2-100.5,126-100.4"/>
						</g>
						<g id="g36_80_" transform="translate(16.707,19.707)">
							<path id="path38_80_" fill="#664500" d="M133.8-101.9c-1.5,1.5-4,1.6-4.1,1.6c-0.3,0-0.5-0.2-0.5-0.5s0.2-0.5,0.5-0.5
								c0,0,0.7,0,1.6-0.3c-0.1-0.1-0.2-0.3-0.2-0.5c0-0.1,0-0.1,0-0.2c-1.3-0.4-2.2-1.1-2.2-1.1c-0.2-0.2-0.3-0.5-0.1-0.7
								c0.1-0.1,0.2-0.2,0.4-0.2c0.1,0,0.2,0,0.3,0.1c0,0,1.8,1.3,4,1.3c0.2,0,0.4,0.1,0.4,0.3C134-102.2,133.9-102,133.8-101.9"/>
						</g>
						<g id="g40_82_" transform="translate(19,7)">
							<path id="path42_80_" fill="#664500" d="M132.6-95.2c-0.1,0-0.3,0.1-0.4,0.2l-1.5,1.9l-1.1-1.4c-0.1-0.1-0.2-0.2-0.3-0.2
								s-0.3,0-0.4,0.1l-0.5,0.5c-0.2,0.2-0.2,0.5,0,0.7s0.5,0.2,0.7,0l0.1-0.1l1.1,1.5c0.1,0.1,0.2,0.2,0.4,0.2
								c0.1,0,0.3-0.1,0.4-0.2l1.5-1.9l1.5,1.9c0.1,0.1,0.2,0.2,0.4,0.2c0.1,0,0.3-0.1,0.4-0.2l1.1-1.5l0.1,0.1
								c0.2,0.2,0.5,0.2,0.7,0s0.2-0.5,0-0.7l-0.5-0.5c-0.1-0.1-0.2-0.1-0.4-0.1c-0.1,0-0.3,0.1-0.3,0.2l-1.1,1.4L133-95
								C132.9-95.1,132.7-95.2,132.6-95.2"/>
						</g>
					</g>
				</g>
			</g>
		</g>
	</g>
</g>
<g id="g10_20_" transform="matrix(1.25,0,0,-1.25,0,47.5)">
	<g id="g12_47_">
		<g>
			<g>
				<g>
					<g id="g14_47_">
						<g id="g20_35_" transform="translate(36.8848,25.1665)">
							<path id="path22_35_" fill="#BE1931" d="M81.1-104.9c0,2.6-2.1,4.6-4.6,4.6c-1.6,0-2.9-0.8-3.8-1.9c-0.8,1.2-2.2,1.9-3.8,1.9
								c-2.6,0-4.6-2.1-4.6-4.6c0-0.4,0-0.7,0.1-1.1c0.6-4,5.1-8.2,8.3-9.4c3.2,1.2,7.6,5.4,8.3,9.4
								C81.1-105.6,81.1-105.2,81.1-104.9"/>
						</g>
					</g>
				</g>
			</g>
		</g>
	</g>
</g>
<g id="g10_152_" transform="matrix(1.25,0,0,-1.25,0,47.5)">
	<g id="g12_176_">
		<g>
			<g>
				<g>
					<g id="g14_178_">
						<g id="g20_162_" transform="translate(19,33)">
							<path id="path22_162_" fill="#F4900C" d="M111.6-109c3.4,0,6.1-1.9,6.9-0.9c0.1,0.2,0.1,0.3,0.1,0.5c0,0.9-3.2,2.4-7.1,2.4
								s-7.1-1.4-7.1-2.4c0-0.2,0-0.3,0.1-0.5C105.5-110.9,108.2-109,111.6-109"/>
						</g>
						<g id="g24_153_" transform="translate(19,34)">
							<path id="path26_153_" fill="#FFCC4D" d="M111.6-109.5c-2.9,0-5-0.9-5.8-1.2c-0.2-0.1-0.3-0.4-0.2-0.6s5-12.8,5-12.8
								s0.4-0.9,0.9-0.9s0.9,0.9,0.9,0.9l5,12.8c0,0,0.1,0.4-0.3,0.6C116.5-110.3,114.5-109.5,111.6-109.5"/>
						</g>
					</g>
				</g>
			</g>
		</g>
	</g>
	<g id="g28_111_">
		<g>
			<g>
				<g>
					<g>
						<defs>
							<path id="SVGID_1_" d="M124.8-76.8c-0.2-0.1-0.3-0.4-0.2-0.6l0,0c0.1-0.2,5-12.8,5-12.8l0,0c0,0,0.5-0.9,0.9-0.9l0,0
								c0.5,0,0.9,0.9,0.9,0.9l0,0l5,12.8c0,0,0.1,0.4-0.3,0.6l0,0c-0.8,0.4-2.9,1.2-5.7,1.2l0,0C127.7-75.5,125.6-76.4,124.8-76.8"
								/>
						</defs>
						<clipPath id="SVGID_2_">
							<use xlink:href="#SVGID_1_"  overflow="visible"/>
						</clipPath>
						<g id="g30_3_" clip-path="url(#SVGID_2_)">
							<g id="g36_79_" transform="translate(19,6)">
								<path id="path38_79_" fill="#BE1931" d="M111.6-94.7c0-1-0.8-1.9-1.9-1.9s-1.9,0.8-1.9,1.9c0,1,0.8,1.9,1.9,1.9
									C110.8-92.8,111.6-93.7,111.6-94.7"/>
							</g>
							<g id="g40_81_" transform="translate(18,17)">
								<path id="path42_79_" fill="#BE1931" d="M112.1-100.5c0-1-0.8-1.9-1.9-1.9c-1,0-1.9,0.8-1.9,1.9c0,1,0.8,1.9,1.9,1.9
									C111.3-98.7,112.1-99.5,112.1-100.5"/>
							</g>
							<g id="g44_63_" transform="translate(21,29)">
								<path id="path46_63_" fill="#BE1931" d="M110.5-106.9c0-1-0.8-1.9-1.9-1.9c-1,0-1.9,0.8-1.9,1.9s0.8,1.9,1.9,1.9
									S110.5-105.9,110.5-106.9"/>
							</g>
							<g id="g48_52_" transform="translate(30,24)">
								<path id="path50_52_" fill="#BE1931" d="M105.8-104.2c0-1-0.8-1.9-1.9-1.9s-1.9,0.8-1.9,1.9c0,1,0.8,1.9,1.9,1.9
									C105-102.3,105.8-103.2,105.8-104.2"/>
							</g>
							<g id="g52_50_" transform="translate(28,12)">
								<path id="path54_48_" fill="#BE1931" d="M106.8-97.9c0-1-0.8-1.9-1.9-1.9S103-99,103-97.9c0,1,0.8,1.9,1.9,1.9
									S106.8-96.9,106.8-97.9"/>
							</g>
							<g id="g56_35_" transform="translate(11,25)">
								<path id="path58_35_" fill="#BE1931" d="M115.8-104.8c0-1-0.8-1.9-1.9-1.9c-1,0-1.9,0.8-1.9,1.9c0,1,0.8,1.9,1.9,1.9
									S115.8-103.7,115.8-104.8"/>
							</g>
						</g>
					</g>
				</g>
			</g>
		</g>
	</g>
</g>
<g id="g10_158_" transform="matrix(1.25,0,0,-1.25,0,47.5)">
	<g id="g12_182_">
		<g>
			<g>
				<g>
					<g id="g14_184_">
						<g id="g20_172_" transform="translate(19,33)">
							<path id="path22_172_" fill="#F4900C" d="M132.5-140.6c3.4,0,6.1-1.9,6.9-0.9c0.1,0.2,0.1,0.3,0.1,0.5c0,0.9-3.2,2.4-7.1,2.4
								c-3.9,0-7.1-1.4-7.1-2.4c0-0.2,0-0.3,0.1-0.5C126.4-142.5,129.1-140.6,132.5-140.6"/>
						</g>
						<g id="g24_159_" transform="translate(19,34)">
							<path id="path26_159_" fill="#FFCC4D" d="M132.5-141.2c-2.9,0-5-0.9-5.8-1.2c-0.2-0.1-0.3-0.4-0.2-0.6s5-12.8,5-12.8
								s0.4-0.9,0.9-0.9s0.9,0.9,0.9,0.9l5,12.8c0,0,0.1,0.4-0.3,0.6C137.4-141.9,135.4-141.2,132.5-141.2"/>
						</g>
					</g>
				</g>
			</g>
		</g>
	</g>
	<g id="g28_117_">
		<g>
			<g>
				<g>
					<g>
						<defs>
							<path id="SVGID_3_" d="M145.8-108.4c-0.2-0.1-0.3-0.4-0.2-0.6l0,0c0.1-0.2,5-12.8,5-12.8l0,0c0,0,0.5-0.9,0.9-0.9l0,0
								c0.5,0,0.9,0.9,0.9,0.9l0,0l5,12.8c0,0,0.1,0.4-0.3,0.6l0,0c-0.8,0.4-2.9,1.2-5.7,1.2l0,0C148.6-107.2,146.5-108,145.8-108.4
								"/>
						</defs>
						<clipPath id="SVGID_4_">
							<use xlink:href="#SVGID_3_"  overflow="visible"/>
						</clipPath>
						<g id="g30_4_" clip-path="url(#SVGID_4_)">
							<g id="g36_83_" transform="translate(19,6)">
								<path id="path38_83_" fill="#BE1931" d="M132.5-126.3c0-1-0.8-1.9-1.9-1.9c-1,0-1.9,0.8-1.9,1.9s0.8,1.9,1.9,1.9
									C131.7-124.4,132.5-125.3,132.5-126.3"/>
							</g>
							<g id="g40_84_" transform="translate(18,17)">
								<path id="path42_82_" fill="#BE1931" d="M133.1-132.2c0-1-0.8-1.9-1.9-1.9c-1,0-1.9,0.8-1.9,1.9c0,1,0.8,1.9,1.9,1.9
									C132.2-130.3,133.1-131.1,133.1-132.2"/>
							</g>
							<g id="g44_65_" transform="translate(21,29)">
								<path id="path46_65_" fill="#BE1931" d="M131.5-138.5c0-1-0.8-1.9-1.9-1.9c-1,0-1.9,0.8-1.9,1.9c0,1,0.8,1.9,1.9,1.9
									C130.6-136.6,131.5-137.5,131.5-138.5"/>
							</g>
							<g id="g48_54_" transform="translate(30,24)">
								<path id="path50_54_" fill="#BE1931" d="M126.7-135.9c0-1-0.8-1.9-1.9-1.9s-1.9,0.8-1.9,1.9c0,1,0.8,1.9,1.9,1.9
									C125.9-134,126.7-134.8,126.7-135.9"/>
							</g>
							<g id="g52_52_" transform="translate(28,12)">
								<path id="path54_50_" fill="#BE1931" d="M127.8-129.5c0-1-0.8-1.9-1.9-1.9s-1.9,0.8-1.9,1.9c0,1,0.8,1.9,1.9,1.9
									S127.8-128.5,127.8-129.5"/>
							</g>
							<g id="g56_37_" transform="translate(11,25)">
								<path id="path58_37_" fill="#BE1931" d="M136.8-136.4c0-1-0.8-1.9-1.9-1.9c-1,0-1.9,0.8-1.9,1.9c0,1,0.8,1.9,1.9,1.9
									C135.9-134.5,136.8-135.3,136.8-136.4"/>
							</g>
						</g>
					</g>
				</g>
			</g>
		</g>
	</g>
</g>
<g>
	<text transform="matrix(1 0 0 1 52.0716 367.3478)"><tspan x="0" y="0" fill="#FFFFFF" font-family="'FiraMono-Medium'" font-size="21.6">SHARE YOUR EMOJI</tspan><tspan x="-6.5" y="25.9" fill="#FFFFFF" font-family="'FiraMono-Medium'" font-size="21.6">MESSAGE WITH YOUR</tspan><tspan x="6.5" y="51.8" fill="#FFFFFF" font-family="'FiraMono-Medium'" font-size="21.6">FRIENDS AND LET</tspan><tspan x="32.4" y="77.8" fill="#FFFFFF" font-family="'FiraMono-Medium'" font-size="21.6">THEM TRY TO</tspan><tspan x="19.4" y="103.7" fill="#FFFFFF" font-family="'FiraMono-Medium'" font-size="21.6">UNSCRAMBLE IT</tspan></text>
</g>
</svg>
