<?xml version="1.0" encoding="utf-8"?>
<!-- Generator: Adobe Illustrator 18.0.0, SVG Export Plug-In . SVG Version: 6.00 Build 0)  -->
<!DOCTYPE svg PUBLIC "-//W3C//DTD SVG 1.1//EN" "http://www.w3.org/Graphics/SVG/1.1/DTD/svg11.dtd">
<svg version="1.1" id="Layer_1" xmlns="http://www.w3.org/2000/svg" xmlns:xlink="http://www.w3.org/1999/xlink" x="0px" y="0px"
	 viewBox="0 0 315 560" enable-background="new 0 0 315 560" xml:space="preserve">
<polyline fill="#283344" points="0,560 0,0 315,0 315,560 "/>
<g>
	<g id="g10_72_" transform="matrix(1.25,0,0,-1.25,0,47.5)">
		<g id="g12_90_">
			<g>
				<g>
					<g>
						<g id="g14_89_">
							<g id="g20_81_" transform="translate(37,5)">
								<path id="path22_81_" fill="#3B88C3" d="M61.8-74.3c0-2.2-1.8-4-4-4h-28c-2.2,0-4,1.8-4,4v28c0,2.2,1.8,4,4,4h28
									c2.2,0,4-1.8,4-4V-74.3z"/>
							</g>
							<g id="g24_73_" transform="translate(13.2192,27.3789)">
								<path id="path26_73_" fill="#FFFFFF" d="M61.8-74.3c0,1.5,0.8,2.7,2.4,2.7h7.7c1.5,0,2.2-1.1,2.2-2.1c0-1.1-0.7-2.1-2.2-2.1
									h-5.5v-4.5h5.1c1.5,0,2.3-1.1,2.3-2.1c0-1.1-0.8-2.1-2.3-2.1h-5.1v-4.7h5.7c1.5,0,2.2-1.1,2.2-2.1c0-1.1-0.7-2.1-2.2-2.1h-8
									c-1.4,0-2.4,0.9-2.4,2.3L61.8-74.3L61.8-74.3L61.8-74.3z"/>
							</g>
						</g>
					</g>
				</g>
			</g>
		</g>
	</g>
</g>
<g>
	<g id="g10_70_" transform="matrix(1.25,0,0,-1.25,0,47.5)">
		<g id="g12_88_">
			<g>
				<g>
					<g>
						<g id="g14_87_">
							<g id="g20_79_" transform="translate(37,5)">
								<path id="path22_79_" fill="#3B88C3" d="M16.5-74.3c0-2.2-1.8-4-4-4h-28c-2.2,0-4,1.8-4,4v28c0,2.2,1.8,4,4,4h28
									c2.2,0,4-1.8,4-4V-74.3z"/>
							</g>
							<g id="g24_69_" transform="translate(26.5,30)">
								<path id="path26_69_" fill="#FFFFFF" d="M16.5-74.3c-1.4,0-2.5-1.1-2.5-2.5v-5.5H4v5.5c0,1.4-1.1,2.5-2.5,2.5
									S-1-75.4-1-76.8v-17c0-1.4,1.1-2.5,2.5-2.5S4-95.2,4-93.8v6.5h10v-6.5c0-1.4,1.1-2.5,2.5-2.5s2.5,1.1,2.5,2.5v17
									C19-75.4,17.9-74.3,16.5-74.3"/>
							</g>
						</g>
					</g>
				</g>
			</g>
		</g>
	</g>
</g>
<g>
	<g id="g10_74_" transform="matrix(1.25,0,0,-1.25,0,47.5)">
		<g id="g12_92_">
			<g>
				<g>
					<g>
						<g id="g14_91_">
							<g id="g20_83_" transform="translate(37,5)">
								<path id="path22_83_" fill="#3B88C3" d="M107-74.3c0-2.2-1.8-4-4-4H75c-2.2,0-4,1.8-4,4v28c0,2.2,1.8,4,4,4h28
									c2.2,0,4-1.8,4-4V-74.3z"/>
							</g>
							<g id="g24_75_" transform="translate(13.7925,27.8438)">
								<path id="path26_75_" fill="#FFFFFF" d="M107-74.3c0,1.6,1,2.4,2.3,2.4s2.3-0.9,2.3-2.4v-15.6h5.5c1.6,0,2.3-1.2,2.2-2.2
									c-0.1-1-0.9-2-2.2-2h-7.8c-1.5,0-2.4,1-2.4,2.5L107-74.3L107-74.3z"/>
							</g>
						</g>
					</g>
				</g>
			</g>
		</g>
	</g>
</g>
<g>
	<g id="g10_76_" transform="matrix(1.25,0,0,-1.25,0,47.5)">
		<g id="g12_94_">
			<g>
				<g>
					<g>
						<g id="g14_93_">
							<g id="g20_85_" transform="translate(37,5)">
								<path id="path22_85_" fill="#3B88C3" d="M152.3-74.3c0-2.2-1.8-4-4-4h-28c-2.2,0-4,1.8-4,4v28c0,2.2,1.8,4,4,4h28
									c2.2,0,4-1.8,4-4V-74.3z"/>
							</g>
							<g id="g24_78_" transform="translate(13.7925,27.8438)">
								<path id="path26_78_" fill="#FFFFFF" d="M152.3-74.3c0,1.6,1,2.4,2.3,2.4s2.3-0.9,2.3-2.4v-15.6h5.5c1.6,0,2.3-1.2,2.2-2.2
									s-0.9-2-2.2-2h-7.8c-1.5,0-2.4,1-2.4,2.5L152.3-74.3L152.3-74.3z"/>
							</g>
						</g>
					</g>
				</g>
			</g>
		</g>
	</g>
</g>
<g>
	<g id="g10_85_" transform="matrix(1.25,0,0,-1.25,0,47.5)">
		<g id="g12_103_">
			<g>
				<g>
					<g>
						<g id="g14_109_">
							<g id="g20_94_" transform="translate(37,5)">
								<path id="path22_94_" fill="#F46060" d="M61.9-158.5c0-2.2-1.8-4-4-4h-28c-2.2,0-4,1.8-4,4v28c0,2.2,1.8,4,4,4h28
									c2.2,0,4-1.8,4-4V-158.5z"/>
							</g>
							<g id="g24_100_" transform="translate(24.1016,14.2012)">
								<path id="path26_100_" fill="#FFFFFF" d="M61.9-158.5c0-5.2-3.3-6.6-6.1-6.6c-2.1,0-5.7,0.8-5.7,3.5c0,0.8,0.7,1.9,1.7,1.9
									c1.2,0,2.3-1.1,3.7-1.1c1.7,0,1.7,1.6,1.7,2.6v13.3c0,1.6,1,2.4,2.3,2.4s2.3-0.9,2.3-2.4L61.9-158.5L61.9-158.5z"/>
							</g>
						</g>
					</g>
				</g>
			</g>
		</g>
	</g>
</g>
<g>
	<g id="g10_81_" transform="matrix(1.25,0,0,-1.25,0,47.5)">
		<g id="g12_99_">
			<g>
				<g>
					<g>
						<g id="g14_99_">
							<g id="g20_90_" transform="translate(37,5)">
								<path id="path22_90_" fill="#F46060" d="M16.5-158.5c0-2.2-1.8-4-4-4h-28c-2.2,0-4,1.8-4,4v28c0,2.2,1.8,4,4,4h28
									c2.2,0,4-1.8,4-4V-158.5z"/>
							</g>
							<g id="g24_82_" transform="translate(24.0879,15.0693)">
								<path id="path26_82_" fill="#FFFFFF" d="M16.5-158.5c0.5,1.2,0.7,2.5,0.7,4c0,3.7-2,7.1-5.8,7.1c-3.9,0-5.8-3.4-5.8-7.1
									c0-3.8,1.9-7.1,5.8-7.1c0.7,0,1.4,0.1,2,0.2l-1.1,1.1c-0.3,0.3-0.6,0.8-0.6,1.2c0,1.2,0.8,2.2,2.1,2.2
									c0.4,0,0.8-0.2,1.2-0.4L16.5-158.5z M16.9-164.6c-1.5-0.9-3.3-1.4-5.5-1.4c-6.3,0-10.7,5-10.7,11.4s4.3,11.4,10.7,11.4
									c6.2,0,10.7-5.1,10.7-11.4c0-2.7-0.7-5.2-2.1-7.2l1.8-1.5c0.6-0.5,1.1-1,1.1-1.9c0-1.1-1.1-2-2.1-2c-0.7,0-1.2,0.3-2.1,1
									L16.9-164.6z"/>
							</g>
						</g>
					</g>
				</g>
			</g>
		</g>
	</g>
</g>
<g>
	<g id="g10_104_" transform="matrix(1.25,0,0,-1.25,0,47.5)">
		<g id="g12_122_">
			<g>
				<g>
					<g>
						<g id="g14_121_">
							<g id="g20_113_" transform="translate(37,5)">
								<path id="path22_113_" fill="#F46060" d="M197.6-158.5c0-2.2-1.8-4-4-4h-28c-2.2,0-4,1.8-4,4v28c0,2.2,1.8,4,4,4h28
									c2.2,0,4-1.8,4-4V-158.5z"/>
							</g>
							<g id="g24_103_" transform="translate(16.4282,20.3096)">
								<path id="path26_103_" fill="#FFFFFF" d="M197.6-158.5h3.2c1.7,0,2.9,1,2.9,2.8s-1.2,2.7-2.9,2.7h-3.2V-158.5z M192.9-151.2
									c0,1.5,0.8,2.4,2.4,2.4h5.5c4.8,0,7.7-2.1,7.7-7c0-3.4-2.6-5.4-5.7-5.9l5.3-5.6c0.4-0.5,0.6-0.9,0.6-1.4
									c0-1.2-1-2.4-2.3-2.4c-0.6,0-1.3,0.2-1.8,0.8l-6.9,8.3h-0.1v-6.7c0-1.6-1-2.4-2.3-2.4s-2.3,0.9-2.3,2.4L192.9-151.2
									L192.9-151.2z"/>
							</g>
						</g>
					</g>
				</g>
			</g>
		</g>
	</g>
</g>
<g>
	<g id="g10_93_" transform="matrix(1.25,0,0,-1.25,0,47.5)">
		<g id="g12_111_">
			<g>
				<g>
					<g>
						<g id="g14_113_">
							<g id="g20_102_" transform="translate(37,5)">
								<path id="path22_102_" fill="#F46060" d="M107.9-158.5c0-2.2-1.8-4-4-4h-28c-2.2,0-4,1.8-4,4v28c0,2.2,1.8,4,4,4h28
									c2.2,0,4-1.8,4-4V-158.5z"/>
							</g>
							<g id="g24_101_" transform="translate(9,27.8438)">
								<path id="path26_101_" fill="#FFFFFF" d="M107.9-158.5c0,1.6,1.2,2.4,2.5,2.4s2.5-0.9,2.5-2.4v-10.8c0-2.9,2.1-4.9,5-4.9
									c2.8,0,5,2.2,5,4.9v10.8c0,1.6,1.2,2.4,2.5,2.4s2.5-0.9,2.5-2.4v-11.1c0-5.2-4.9-9.1-10-9.1c-5.2,0-10,3.9-10,9.1V-158.5z"
									/>
							</g>
						</g>
					</g>
				</g>
			</g>
		</g>
	</g>
</g>
<g>
	<g id="g10_105_" transform="matrix(1.25,0,0,-1.25,0,47.5)">
		<g id="g12_123_">
			<g>
				<g>
					<g>
						<g id="g14_122_">
							<g id="g20_114_" transform="translate(37,5)">
								<path id="path22_114_" fill="#F46060" d="M152.3-158.5c0-2.2-1.8-4-4-4h-28c-2.2,0-4,1.8-4,4v28c0,2.2,1.8,4,4,4h28
									c2.2,0,4-1.8,4-4V-158.5z"/>
							</g>
							<g id="g24_104_" transform="translate(9,27.8438)">
								<path id="path26_104_" fill="#FFFFFF" d="M152.3-158.5c0,1.6,1.2,2.4,2.5,2.4s2.5-0.9,2.5-2.4v-10.8c0-2.9,2.1-4.9,5-4.9
									c2.8,0,5,2.2,5,4.9v10.8c0,1.6,1.2,2.4,2.5,2.4s2.5-0.9,2.5-2.4v-11.1c0-5.2-4.9-9.1-10-9.1c-5.2,0-10,3.9-10,9.1V-158.5z"
									/>
							</g>
						</g>
					</g>
				</g>
			</g>
		</g>
	</g>
</g>
<g>
	<g id="g10_78_" transform="matrix(1.25,0,0,-1.25,0,47.5)">
		<g id="g12_96_">
			<g>
				<g>
					<g>
						<g id="g14_97_">
							<g id="g20_87_" transform="translate(37,5)">
								<path id="path22_87_" fill="#3B88C3" d="M197.6-74.3c0-2.2-1.8-4-4-4h-28c-2.2,0-4,1.8-4,4v28c0,2.2,1.8,4,4,4h28
									c2.2,0,4-1.8,4-4V-74.3z"/>
							</g>
							<g id="g24_80_" transform="translate(24.832,19.0381)">
								<path id="path26_80_" fill="#FFFFFF" d="M197.6-74.3c0,3.8-2,7.1-5.8,7.1c-3.9,0-5.8-3.4-5.8-7.1c0-3.8,1.9-7.1,5.8-7.1
									C195.7-81.4,197.6-78.1,197.6-74.3 M181.1-74.3c0,6.4,4.3,11.4,10.7,11.4c6.2,0,10.7-5.1,10.7-11.4
									c0-6.4-4.3-11.4-10.7-11.4C185.5-85.7,181.1-80.7,181.1-74.3"/>
							</g>
						</g>
					</g>
				</g>
			</g>
		</g>
	</g>
</g>
<g opacity="0.5">
	<g>
		
			<line fill="none" stroke="#FFFFFF" stroke-width="1.5" stroke-linecap="round" stroke-miterlimit="10" x1="44.4" y1="150.2" x2="44.4" y2="150.2"/>
		
			<line fill="none" stroke="#FFFFFF" stroke-width="1.5" stroke-linecap="round" stroke-miterlimit="10" stroke-dasharray="0,2.9109" x1="44.4" y1="153.1" x2="44.4" y2="186.6"/>
		
			<line fill="none" stroke="#FFFFFF" stroke-width="1.5" stroke-linecap="round" stroke-miterlimit="10" x1="44.4" y1="188.1" x2="44.4" y2="188.1"/>
	</g>
</g>
<g opacity="0.5">
	<g>
		
			<line fill="none" stroke="#FFFFFF" stroke-width="1.5" stroke-linecap="round" stroke-miterlimit="10" x1="101.1" y1="150.2" x2="101.1" y2="150.2"/>
		
			<line fill="none" stroke="#FFFFFF" stroke-width="1.5" stroke-linecap="round" stroke-miterlimit="10" stroke-dasharray="0,2.9109" x1="101.1" y1="153.1" x2="101.1" y2="186.6"/>
		
			<line fill="none" stroke="#FFFFFF" stroke-width="1.5" stroke-linecap="round" stroke-miterlimit="10" x1="101.1" y1="188.1" x2="101.1" y2="188.1"/>
	</g>
</g>
<g opacity="0.5">
	<g>
		
			<line fill="none" stroke="#FFFFFF" stroke-width="1.5" stroke-linecap="round" stroke-miterlimit="10" x1="157.9" y1="150.2" x2="157.9" y2="150.2"/>
		
			<line fill="none" stroke="#FFFFFF" stroke-width="1.5" stroke-linecap="round" stroke-miterlimit="10" stroke-dasharray="0,2.9109" x1="157.9" y1="153.1" x2="157.9" y2="186.6"/>
		
			<line fill="none" stroke="#FFFFFF" stroke-width="1.5" stroke-linecap="round" stroke-miterlimit="10" x1="157.9" y1="188.1" x2="157.9" y2="188.1"/>
	</g>
</g>
<g opacity="0.5">
	<g>
		
			<line fill="none" stroke="#FFFFFF" stroke-width="1.5" stroke-linecap="round" stroke-miterlimit="10" x1="214.6" y1="150.2" x2="214.6" y2="150.2"/>
		
			<line fill="none" stroke="#FFFFFF" stroke-width="1.5" stroke-linecap="round" stroke-miterlimit="10" stroke-dasharray="0,2.9109" x1="214.6" y1="153.1" x2="214.6" y2="186.6"/>
		
			<line fill="none" stroke="#FFFFFF" stroke-width="1.5" stroke-linecap="round" stroke-miterlimit="10" x1="214.6" y1="188.1" x2="214.6" y2="188.1"/>
	</g>
</g>
<g opacity="0.5">
	<g>
		
			<line fill="none" stroke="#FFFFFF" stroke-width="1.5" stroke-linecap="round" stroke-miterlimit="10" x1="271.4" y1="150.2" x2="271.4" y2="150.2"/>
		
			<line fill="none" stroke="#FFFFFF" stroke-width="1.5" stroke-linecap="round" stroke-miterlimit="10" stroke-dasharray="0,2.9109" x1="271.4" y1="153.1" x2="271.4" y2="186.6"/>
		
			<line fill="none" stroke="#FFFFFF" stroke-width="1.5" stroke-linecap="round" stroke-miterlimit="10" x1="271.4" y1="188.1" x2="271.4" y2="188.1"/>
	</g>
</g>
<g>
	<g opacity="0.2">
		<circle fill="#FFFFFF" cx="118.2" cy="506.8" r="6.8"/>
	</g>
	<g opacity="0.2">
		<circle fill="#FFFFFF" cx="144.8" cy="506.8" r="6.8"/>
	</g>
	<g opacity="0.2">
		<circle fill="#FFFFFF" cx="171.3" cy="506.8" r="6.8"/>
	</g>
	<g opacity="0.2">
		<circle fill="#FFFFFF" cx="197.6" cy="506.8" r="6.8"/>
	</g>
	<g opacity="0.2">
		<circle fill="#FFFFFF" cx="224.6" cy="506.8" r="6.8"/>
	</g>
	<g id="g10_108_" transform="matrix(1.25,0,0,-1.25,0,47.5)">
		<g id="g12_126_">
			<g id="g14_125_">
				<g id="g20_117_" transform="translate(36,19)">
					<path id="path22_117_" fill="#FFCC4D" d="M42.8-386.4c0-3-2.4-5.4-5.4-5.4s-5.4,2.4-5.4,5.4s2.4,5.4,5.4,5.4
						S42.8-383.4,42.8-386.4"/>
				</g>
				<g id="g24_107_" transform="translate(2.2402,25.9824)">
					<path id="path26_107_" fill="#292F33" d="M65.8-391.2c0.1-0.1,0.5-0.3,0.5-0.5c0.1-0.2,0.2-1.5,0.7-1.9s2.3-0.2,2.6-0.1
						c0.8,0.4,0.9,1.4,1,2c0.1,0.3,0.5,0.3,0.5,0.3s0.5,0,0.5-0.3c0.1-0.5,0.2-1.6,1-2c0.3-0.2,2.1-0.3,2.6,0.1s0.6,1.7,0.7,1.9
						c0.1,0.2,0.5,0.5,0.5,0.5c0.1,0.1,0.1,0.4,0,0.5c-0.2,0.2-2,0.3-3.9,0.1c-0.4,0-0.5-0.2-1.4-0.2s-1.1,0.1-1.4,0.2
						c-1.9,0.2-3.7,0.1-3.9-0.1C65.8-390.8,65.8-391.1,65.8-391.2"/>
				</g>
				<g id="g28_77_" transform="translate(28.335,13.3711)">
					<path id="path30_68_" fill="#664500" d="M48-382.6c-0.1,0.1-0.1,0.1-0.2,0c0,0-1.2-0.9-2.8-0.9c-1.5,0-2.8,0.9-2.8,0.9
						c-0.1,0-0.1,0-0.2,0c-0.1-0.1-0.1-0.1,0-0.2c0-0.1,1-1.7,3-1.7s3,1.6,3,1.7C48.1-382.7,48.1-382.6,48-382.6"/>
				</g>
			</g>
		</g>
	</g>
</g>
<rect x="6" y="299.7" fill="none" width="302.6" height="162"/>
<rect x="6" y="299.7" fill="none" width="302.6" height="162"/>
<text transform="matrix(1 0 0 1 40.6478 316.0111)"><tspan x="0" y="0" fill="#FFFFFF" font-family="'FiraMono-Medium'" font-size="21.6">ENCRYPTION ENCODES </tspan><tspan x="-19.4" y="25.9" fill="#FFFFFF" font-family="'FiraMono-Medium'" font-size="21.6">MESSAGES SO THAT ONLY </tspan><tspan x="-32.4" y="51.8" fill="#FFFFFF" font-family="'FiraMono-Medium'" font-size="21.6">THE SENDER AND INTENDED </tspan><tspan x="-32.4" y="77.8" fill="#FFFFFF" font-family="'FiraMono-Medium'" font-size="21.6">RECIPIENT CAN READ THEM</tspan></text>
</svg>
