<?xml version="1.0" encoding="utf-8"?>
<!-- Generator: Adobe Illustrator 18.0.0, SVG Export Plug-In . SVG Version: 6.00 Build 0)  -->
<!DOCTYPE svg PUBLIC "-//W3C//DTD SVG 1.1//EN" "http://www.w3.org/Graphics/SVG/1.1/DTD/svg11.dtd">
<svg version="1.1" xmlns="http://www.w3.org/2000/svg" xmlns:xlink="http://www.w3.org/1999/xlink" x="0px" y="0px"
	 viewBox="0 0 315 560.1" enable-background="new 0 0 315 560.1" xml:space="preserve">
<g id="back">
</g>
<g id="notes">
</g>
<g id="input">
</g>
<g id="landing_pages">
</g>
<g id="onboarding">
	<g>
		<polyline fill="#283344" points="0.5,560.1 0.5,0.1 314.6,0.1 314.6,560.1 		"/>
		<rect x="0" y="0" fill="#FFFFFF" width="315" height="42"/>
		<g>
			<g>
				<path fill="#005189" d="M105.7,22.9l4.7,7.3h-3.3l-4.2-6.9h-1.8v6.9h-2.8V13.4h4.6c4.3,0,6.5,1.6,6.5,4.8
					C109.4,20.7,107.8,22.2,105.7,22.9z M103.1,15.5h-2v5.7h2.1c2.1,0,3.3-0.8,3.3-2.9C106.5,16.3,105.4,15.5,103.1,15.5z"/>
			</g>
			<g>
				<path fill="#005189" d="M134.8,24.2h-2v5.9H130V13.4h4.6c4.2,0,6.7,1.7,6.7,5.2C141.3,22.6,138.6,24.2,134.8,24.2z M134.8,15.5
					h-2V22h2.1c2.1,0,3.6-0.8,3.6-3.4C138.4,16.4,136.9,15.5,134.8,15.5z"/>
			</g>
			<g>
				<path fill="#005189" d="M152.1,30.1h-2.8V15.7h-5v-2.3h12.9l-0.3,2.3h-4.8V30.1z"/>
			</g>
			<g>
				<path fill="#005189" d="M179.1,13.4h2.8v14.3h7.5l-0.3,2.3h-10V13.4z"/>
			</g>
			<g>
				<path fill="#005189" d="M219,24.1c0,3.2-1.7,6-6.1,6c-1.8,0-3.4-0.6-4.7-1.5l1.1-1.8c1.3,0.8,2.4,1.1,3.5,1.1
					c2.1,0,3.4-1.4,3.4-3.9v-8.8h-5v-2.2h7.8V24.1z"/>
			</g>
			<g>
				<path fill="#005189" d="M120.7,30.1h-2.8v-6.4l-5.6-10.3h3.1l3.9,7.9l4-7.9h3l-5.6,10.3V30.1z"/>
			</g>
			<g>
				<path fill="#5C913B" d="M94.1,26.4l-4.7-4.8l4.8-4.7l0.6-0.6l0.7-0.7c-0.4-0.4-0.8-0.7-1.2-1c-3.9-2.7-9.2-1.7-11.8,2.1
					c-2.7,3.9-1.7,9.2,2.1,11.8c3.4,2.4,8,1.9,10.8-0.9L94.6,27L94.1,26.4z"/>
				<path fill="#FFE8B6" d="M89.3,21.6l4.8-4.7l0.6-0.6c-0.3-0.3-0.7-0.6-1.1-0.9c-3.4-2.4-8.2-1.5-10.5,1.9
					c-2.4,3.4-1.5,8.2,1.9,10.5c3,2.1,7.1,1.7,9.6-0.8l-0.6-0.6L89.3,21.6z"/>
				<g>
					<g>
						<path fill="#DD2E44" d="M94.1,16.9c-0.3-0.3-0.6-0.6-0.9-0.8c-3.1-2.1-7.3-1.4-9.4,1.7c-2.1,3.1-1.4,7.3,1.7,9.4
							c2.7,1.9,6.3,1.5,8.6-0.7l-4.7-4.8L94.1,16.9z"/>
					</g>
					<g>
						<g id="watermelon_c_10_" transform="matrix(1.25,0,0,-1.25,0,47.5)">
							<g id="g12_202_">
								<g>
									<g id="g14_204_">
										<g id="g32_106_" transform="translate(10.916,22.7227)">
											<path id="path34_102_" d="M57.5-0.3c-0.2-0.1-0.4-0.1-0.4,0c0,0.1,0.1,0.2,0.3,0.3c0.2,0.1,0.4,0.1,0.4,0
												C57.8,0,57.7-0.2,57.5-0.3"/>
										</g>
										<g id="g36_95_" transform="translate(16.916,21.7227)">
											<path id="path38_95_" d="M53.2-0.9c-0.2-0.1-0.4-0.1-0.4,0c0,0.1,0.1,0.2,0.3,0.3c0.2,0.1,0.4,0.1,0.4,0
												C53.5-0.7,53.4-0.8,53.2-0.9"/>
										</g>
										<g id="g40_92_" transform="translate(21.998,17.0449)">
											<path id="path42_90_" d="M48.7,1.2C48.6,1,48.4,0.9,48.3,1c-0.1,0.1-0.1,0.2,0,0.4c0.1,0.2,0.3,0.3,0.4,0.2
												C48.8,1.6,48.8,1.4,48.7,1.2"/>
										</g>
										<g id="g44_72_" transform="translate(12.998,19.0449)">
											<path id="path46_72_" d="M55.3,1.8c-0.1-0.2-0.3-0.3-0.4-0.2c-0.1,0.1-0.1,0.2,0,0.4c0.1,0.2,0.3,0.3,0.4,0.2
												C55.4,2.2,55.4,2,55.3,1.8"/>
										</g>
										<g id="g48_61_" transform="translate(16.8994,13.6992)">
											<path id="path50_61_" d="M51.4,4.6c-0.2-0.1-0.4,0-0.4,0.1c0,0.1,0.1,0.2,0.3,0.3c0.2,0.1,0.4,0,0.4-0.1
												C51.8,4.8,51.6,4.7,51.4,4.6"/>
										</g>
										<g id="g52_57_" transform="translate(24.9355,13.2451)">
											<path id="path54_55_" d="M45.8,3.2c0-0.2-0.1-0.4-0.2-0.4c-0.1,0-0.2,0.2-0.2,0.4c0,0.2,0.1,0.4,0.2,0.4
												C45.8,3.6,45.8,3.4,45.8,3.2"/>
										</g>
										<g id="g56_40_" transform="translate(17.918,18.2734)">
											<path id="path58_40_" d="M51.7,1.3c0-0.2-0.1-0.4-0.2-0.4c-0.1,0-0.2,0.2-0.2,0.4c0,0.2,0.1,0.4,0.2,0.4
												C51.7,1.7,51.7,1.5,51.7,1.3"/>
										</g>
										<g id="g60_39_" transform="translate(26.8994,16.6992)">
											<path id="path62_42_" d="M45.2,0.4c-0.2-0.1-0.4,0-0.4,0.1c0,0.1,0.1,0.2,0.3,0.3c0.2,0.1,0.4,0,0.4-0.1
												C45.6,0.6,45.4,0.4,45.2,0.4"/>
										</g>
									</g>
								</g>
							</g>
						</g>
						<g id="watermelon_c_9_" transform="matrix(1.25,0,0,-1.25,0,47.5)">
							<g id="g12_198_">
								<g>
									<g id="g14_200_">
										<g id="g40_91_" transform="translate(21.998,17.0449)">
											<path id="path42_89_" d="M50.1,5.7C50.2,5.9,50.4,6,50.5,6c0.1-0.1,0.1-0.2,0-0.4c-0.1-0.2-0.3-0.3-0.4-0.2
												C50,5.4,50,5.6,50.1,5.7"/>
										</g>
										<g id="g52_56_" transform="translate(24.9355,13.2451)">
											<path id="path54_54_" d="M47.1,11.4c0,0.2,0.1,0.4,0.2,0.4c0.1,0,0.2-0.2,0.2-0.4c0-0.2-0.1-0.4-0.2-0.4
												C47.1,11,47.1,11.2,47.1,11.4"/>
										</g>
										<g id="g60_22_" transform="translate(26.8994,16.6992)">
											<path id="path62_12_" d="M43.8,7.3c0.2,0.1,0.4,0,0.4-0.1c0-0.1-0.1-0.2-0.3-0.3c-0.2-0.1-0.4,0-0.4,0.1
												C43.4,7.1,43.6,7.2,43.8,7.3"/>
										</g>
									</g>
								</g>
							</g>
						</g>
					</g>
				</g>
			</g>
			<g id="g12_197_">
				<g>
					<g id="g14_199_">
						<g id="g20_192_" transform="translate(3.9995,17.5)">
							<path id="path22_192_" fill="#F4900C" d="M156,4.7c0-4.3,3.5-7.8,7.8-7.8s7.8,3.5,7.8,7.8c0,4.3-3.5,7.8-7.8,7.8
								S156,9.1,156,4.7"/>
						</g>
						<g id="g24_180_" transform="translate(12.4136,29.4146)">
							<path id="path26_180_" fill="#662113" d="M151.6-12.8c-0.1-0.1-0.4-0.1-0.6,0.1c-1.6-1.3-4.1-1.7-4.2-1.8
								c-0.3,0-0.5,0.1-0.5,0.4c0,0.3,0.1,0.5,0.4,0.5c0,0,2.3,0.4,3.7,1.5c-0.1,0.2-0.2,0.5,0,0.6c0.2,0.2,0.6,0,1-0.3
								C151.6-12.2,151.8-12.6,151.6-12.8"/>
						</g>
						<g id="g28_135_" transform="translate(22,36.0005)">
							<path id="path30_126_" fill="#5C913B" d="M146.5-22.5c0,0-1.5,2-3.3,2.5c-1.4,0.3-3.3,0.4-3.5-0.1c-0.2-0.4,0.7-1.9,2.4-2.6
								C143.7-23.3,146.5-22.5,146.5-22.5"/>
						</g>
					</g>
				</g>
			</g>
			<g id="orange_o_5_" transform="matrix(1.25,0,0,-1.25,0,47.5)">
				<g id="g12_196_">
					<g>
						<g id="g14_198_">
							<g id="g20_188_" transform="translate(3.9995,17.5)">
								<path id="path22_188_" fill="#F4900C" d="M149,2.7c0,3.5,2.8,6.3,6.3,6.3s6.3-2.8,6.3-6.3c0-3.5-2.8-6.3-6.3-6.3
									S149-0.8,149,2.7"/>
							</g>
							<g id="g24_176_" transform="translate(12.4136,29.4146)">
								<path id="path26_176_" fill="#662113" d="M143.8-4.7c-0.1,0.1-0.3,0.1-0.5,0c-1.3,1-3.3,1.4-3.4,1.4c-0.2,0-0.4-0.1-0.4-0.3
									c0-0.2,0.1-0.4,0.3-0.4c0,0,1.9-0.3,3-1.2c-0.1-0.2-0.1-0.4,0-0.5c0.1-0.1,0.5,0,0.8,0.3C143.8-5.2,143.9-4.8,143.8-4.7"/>
							</g>
							<g id="g28_131_" transform="translate(22,36.0005)">
								<path id="path30_122_" fill="#5C913B" d="M137.8-8.8c0,0-1.2-1.6-2.7-2c-1.1-0.3-2.6-0.3-2.8,0c-0.1,0.3,0.6,1.5,1.9,2
									C135.5-8.1,137.8-8.8,137.8-8.8"/>
							</g>
						</g>
					</g>
				</g>
			</g>
			<g id="g10_178_" transform="matrix(1.25,0,0,-1.25,0,47.5)">
				<g id="g12_195_">
					<g>
						<g id="g14_197_">
							<g id="g20_187_" transform="translate(25,31)">
								<path id="path22_187_" fill="#CCD6DD" d="M159.1-5.8c0-1.3-1-2.3-2.3-2.3c-1.3,0-2.3,1-2.3,2.3c0,1.3,1,2.3,2.3,2.3
									C158.1-3.5,159.1-4.5,159.1-5.8"/>
							</g>
							<path id="path24_7_" fill="#CCD6DD" d="M184.5,15h-5.3V23h5.3V15z"/>
						</g>
					</g>
				</g>
				<g id="g26_7_">
					<g>
						<defs>
							<rect id="SVGID_95_" x="178.5" y="14" width="6.6" height="9.9"/>
						</defs>
						<clipPath id="SVGID_2_">
							<use xlink:href="#SVGID_95_"  overflow="visible"/>
						</clipPath>
						<g id="g28_130_" clip-path="url(#SVGID_2_)">
							<g id="g34_5_" transform="translate(34.1914,15.4902)">
								<path id="path36_7_" fill="#DD2E44" d="M153.4,3.9l-8.8,4.3l0.7,1.4l8.8-4.3L153.4,3.9z"/>
							</g>
							<g id="g38_7_" transform="translate(27.1758,1.1094)">
								<path id="path40_7_" fill="#DD2E44" d="M157.7,12.8l-8.8,4.3l0.7,1.4l8.8-4.3L157.7,12.8z"/>
							</g>
							<g id="g42_3_" transform="translate(32.4375,11.8945)">
								<path id="path44_7_" fill="#FFFFFF" d="M154.5,6.1l-8.8,4.3l0.7,1.4l8.8-4.3L154.5,6.1z"/>
							</g>
							<g id="g46_7_" transform="translate(28.9297,4.7051)">
								<path id="path48_7_" fill="#FFFFFF" d="M156.7,10.6l-8.8,4.3l0.7,1.4l8.8-4.3L156.7,10.6z"/>
							</g>
							<g id="g50_7_" transform="translate(25.4219,-2.4854)">
								<path id="path52_7_" fill="#FFFFFF" d="M158.8,15.1l-8.8,4.3l0.7,1.4l8.8-4.3L158.8,15.1z"/>
							</g>
							<g id="g54_3_" transform="translate(30.6836,8.2998)">
								<path id="path56_7_" fill="#55ACEE" d="M155.6,8.4l-8.8,4.3l0.7,1.4l8.8-4.3L155.6,8.4z"/>
							</g>
						</g>
					</g>
				</g>
				<g id="g58_7_">
					<g>
						<g id="g60_21_">
							<g id="g66_7_" transform="translate(28,26)">
								<path id="path68_7_" fill="#99AAB5" d="M157.2-2.7c0-0.4-0.3-0.8-0.8-0.8h-5.3c-0.4,0-0.8,0.3-0.8,0.8s0.3,0.8,0.8,0.8h5.3
									C156.9-1.9,157.2-2.2,157.2-2.7"/>
							</g>
							<g id="g70_7_" transform="translate(28,3)">
								<path id="path72_7_" fill="#99AAB5" d="M157.2,11.7c0-0.4-0.3-0.8-0.8-0.8h-5.3c-0.4,0-0.8,0.3-0.8,0.8s0.3,0.8,0.8,0.8h5.3
									C156.9,12.4,157.2,12.1,157.2,11.7"/>
							</g>
						</g>
					</g>
				</g>
			</g>
		</g>
		<path fill="#3B88C3" d="M271.8,227.9H43.3c-7.7,0-14-6.3-14-14V83.5c0-7.7,6.3-14,14-14h228.5c7.7,0,14,6.3,14,14v130.4
			C285.8,221.6,279.5,227.9,271.8,227.9z"/>
		<g opacity="0.5">
			<path fill="#FFFFFF" d="M244,240.7c0,2.8-1.7,3.5-3.4,3.5h-1.9v-6.9h1.7C242.3,237.2,244,237.8,244,240.7z M240.1,238.2v4.9h0.6
				c1,0,1.9-0.5,1.9-2.5c0-2.1-0.9-2.4-1.9-2.4H240.1z"/>
			<path fill="#FFFFFF" d="M250,241.9h-3.3c0.1,1.1,0.6,1.4,1.3,1.4c0.5,0,0.9-0.1,1.3-0.5l0.5,0.7c-0.5,0.4-1.2,0.7-2,0.7
				c-1.6,0-2.5-1.1-2.5-2.8c0-1.6,0.8-2.8,2.3-2.8c1.5,0,2.3,1,2.3,2.7C250.1,241.6,250,241.8,250,241.9z M248.8,241
				c0-0.9-0.3-1.4-1-1.4c-0.6,0-1,0.4-1,1.4L248.8,241L248.8,241z"/>
			<path fill="#FFFFFF" d="M251.7,242.9v-6.2l1.3-0.1v6.3c0,0.2,0.1,0.4,0.3,0.4c0.1,0,0.2,0,0.3,0l0.3,0.9
				c-0.2,0.1-0.5,0.2-0.8,0.2C252.2,244.3,251.7,243.8,251.7,242.9z"/>
			<path fill="#FFFFFF" d="M256.6,237c0,0.4-0.3,0.8-0.8,0.8c-0.5,0-0.8-0.3-0.8-0.8c0-0.4,0.3-0.8,0.8-0.8
				C256.3,236.2,256.6,236.5,256.6,237z M256.5,244.2h-1.3v-5.3h1.3V244.2z"/>
			<path fill="#FFFFFF" d="M261,244.2h-1.5l-1.7-5.3h1.4l1.1,4.3l1.2-4.3h1.3L261,244.2z"/>
			<path fill="#FFFFFF" d="M268.3,241.9h-3.3c0.1,1.1,0.6,1.4,1.3,1.4c0.5,0,0.9-0.1,1.3-0.5l0.5,0.7c-0.5,0.4-1.2,0.7-2,0.7
				c-1.6,0-2.5-1.1-2.5-2.8c0-1.6,0.8-2.8,2.3-2.8c1.5,0,2.3,1,2.3,2.7C268.3,241.6,268.3,241.8,268.3,241.9z M267,241
				c0-0.9-0.3-1.4-1-1.4c-0.6,0-1,0.4-1,1.4L267,241L267,241z"/>
			<path fill="#FFFFFF" d="M273.1,238.8l-0.2,1.2c-0.2,0-0.3-0.1-0.5-0.1c-0.6,0-1,0.5-1.2,1.4v2.8H270v-5.3h1.1l0.1,1
				c0.2-0.8,0.8-1.2,1.4-1.2C272.8,238.7,272.9,238.7,273.1,238.8z"/>
			<path fill="#FFFFFF" d="M278.6,241.9h-3.3c0.1,1.1,0.6,1.4,1.3,1.4c0.5,0,0.9-0.1,1.3-0.5l0.5,0.7c-0.5,0.4-1.2,0.7-2,0.7
				c-1.6,0-2.5-1.1-2.5-2.8c0-1.6,0.8-2.8,2.3-2.8c1.5,0,2.3,1,2.3,2.7C278.6,241.6,278.6,241.8,278.6,241.9z M277.4,241
				c0-0.9-0.3-1.4-1-1.4c-0.6,0-1,0.4-1,1.4L277.4,241L277.4,241z"/>
			<path fill="#FFFFFF" d="M284.8,236.7v7.4h-1.1l-0.1-0.7c-0.3,0.5-0.8,0.8-1.5,0.8c-1.3,0-2-1.1-2-2.8c0-1.6,0.8-2.8,2.1-2.8
				c0.5,0,1,0.2,1.3,0.6v-2.7L284.8,236.7z M283.5,242.7v-2.4c-0.3-0.4-0.6-0.6-1-0.6c-0.7,0-1.1,0.6-1.1,1.8c0,1.4,0.4,1.8,1,1.8
				C282.9,243.3,283.2,243.1,283.5,242.7z"/>
		</g>
		<path fill="#E5E5E5" d="M105.8,310.2H43.3c-7.7,0-14-6.3-14-14v-30.4c0-7.7,6.3-14,14-14h62.5c7.7,0,14,6.3,14,14v30.4
			C119.8,303.9,113.5,310.2,105.8,310.2z"/>
		<g>
			<path fill="#FFFFFF" d="M87.9,423.1h-2.3v-5.3l-4.6-8.5h2.6l3.3,6.5l3.3-6.5h2.4l-4.6,8.5V423.1z"/>
			<path fill="#FFFFFF" d="M99.7,423.4c-3.5,0-5.2-2.8-5.2-7.1c0-4.3,1.8-7.2,5.2-7.2c3.5,0,5.2,2.8,5.2,7.2
				C104.9,420.5,103.2,423.4,99.7,423.4z M99.7,410.8c-2,0-2.9,1.8-2.9,5.4c0,3.6,0.9,5.3,2.9,5.3c2,0,2.9-1.8,2.9-5.4
				S101.7,410.8,99.7,410.8z"/>
			<path fill="#FFFFFF" d="M117.5,418.6c0,2.8-1.8,4.8-4.8,4.8c-3.1,0-4.8-1.9-4.8-4.8v-9.3h2.3v8.8c0,2.3,0.7,3.4,2.4,3.4
				c1.7,0,2.5-1.1,2.5-3.4v-8.8h2.3V418.6z"/>
			<path fill="#FFFFFF" d="M136.2,419.8l-1,3.3h-2.4l4.4-13.8h2.9l4.4,13.8h-2.5l-1-3.3H136.2z M140.6,418l-2-6.9l-2,6.9H140.6z"/>
			<path fill="#FFFFFF" d="M153.5,417.1l3.9,6h-2.7l-3.5-5.7h-1.5v5.7h-2.3v-13.8h3.8c3.5,0,5.4,1.3,5.4,4
				C156.6,415.3,155.3,416.6,153.5,417.1z M151.4,411h-1.7v4.7h1.7c1.8,0,2.8-0.7,2.8-2.4C154.2,411.7,153.3,411,151.4,411z"/>
			<path fill="#FFFFFF" d="M163.3,415.2h5v1.7h-5v4.4h6.1v1.8H161v-13.8h8.3l-0.3,1.8h-5.7V415.2z"/>
			<path fill="#FFFFFF" d="M189.6,415.5h5.2v1.8h-5.2v5.9h-2.3v-13.8h8.5l-0.2,1.8h-5.9V415.5z"/>
			<path fill="#FFFFFF" d="M205.5,417.1l3.9,6h-2.7l-3.5-5.7h-1.5v5.7h-2.3v-13.8h3.8c3.5,0,5.4,1.3,5.4,4
				C208.6,415.3,207.3,416.6,205.5,417.1z M203.4,411h-1.7v4.7h1.7c1.8,0,2.8-0.7,2.8-2.4C206.2,411.7,205.3,411,203.4,411z"/>
			<path fill="#FFFFFF" d="M215.3,415.2h5v1.7h-5v4.4h6.1v1.8H213v-13.8h8.3l-0.3,1.8h-5.7V415.2z"/>
			<path fill="#FFFFFF" d="M228.3,415.2h5v1.7h-5v4.4h6.1v1.8H226v-13.8h8.3l-0.3,1.8h-5.7V415.2z"/>
			<path fill="#FFFFFF" d="M94.3,447.1H92v-11.9h-4.2v-1.9h10.7l-0.2,1.9h-4V447.1z"/>
			<path fill="#FFFFFF" d="M106.2,447.4c-3.5,0-5.2-2.8-5.2-7.1c0-4.3,1.8-7.2,5.2-7.2c3.5,0,5.2,2.8,5.2,7.2
				C111.4,444.5,109.7,447.4,106.2,447.4z M106.2,434.8c-2,0-2.9,1.8-2.9,5.4c0,3.6,0.9,5.3,2.9,5.3c2,0,2.9-1.8,2.9-5.4
				S108.2,434.8,106.2,434.8z"/>
			<path fill="#FFFFFF" d="M131.9,447.4c-2.2,0-3.9-0.7-5.1-1.8l1.3-1.4c1,0.9,2.2,1.4,3.8,1.4c1.6,0,2.9-0.7,2.9-2.2
				c0-1.2-0.6-1.8-2.8-2.5c-2.9-0.9-4.5-2-4.5-4.1c0-2.3,2-3.7,4.7-3.7c2,0,3.4,0.6,4.6,1.7l-1.2,1.4c-1-0.8-2.1-1.2-3.3-1.2
				c-1.4,0-2.5,0.6-2.5,1.8c0,1.1,0.8,1.6,3.2,2.3c2.3,0.7,4.1,1.7,4.1,4.3C137.2,445.7,135.2,447.4,131.9,447.4z"/>
			<path fill="#FFFFFF" d="M147.5,440.8h-4.5v6.3h-2.3v-13.8h2.3v5.6h4.5v-5.6h2.3v13.8h-2.3V440.8z"/>
			<path fill="#FFFFFF" d="M155.7,443.8l-1,3.3h-2.4l4.4-13.8h2.9l4.4,13.8h-2.5l-1-3.3H155.7z M160.1,442l-2-6.9l-2,6.9H160.1z"/>
			<path fill="#FFFFFF" d="M173,441.1l3.9,6h-2.7l-3.5-5.7h-1.5v5.7h-2.3v-13.8h3.8c3.5,0,5.4,1.3,5.4,4
				C176.1,439.3,174.8,440.6,173,441.1z M170.9,435h-1.7v4.7h1.7c1.8,0,2.8-0.7,2.8-2.4C173.7,435.7,172.8,435,170.9,435z"/>
			<path fill="#FFFFFF" d="M182.8,439.2h5v1.7h-5v4.4h6.1v1.8h-8.4v-13.8h8.3l-0.3,1.8h-5.7V439.2z"/>
			<path fill="#FFFFFF" d="M214.4,435.1h-3v10.3h3v1.8H206v-1.8h3v-10.3h-3v-1.8h8.3V435.1z"/>
			<path fill="#FFFFFF" d="M224.3,447.1H222v-11.9h-4.2v-1.9h10.7l-0.2,1.9h-4V447.1z"/>
		</g>
		<g opacity="0.2">
			<circle fill="#FFFFFF" cx="118.2" cy="506.9" r="6.8"/>
		</g>
		<g opacity="0.2">
			<circle fill="#FFFFFF" cx="92.2" cy="506.9" r="6.8"/>
		</g>
		<g opacity="0.2">
			<circle fill="#FFFFFF" cx="144.8" cy="506.9" r="6.8"/>
		</g>
		<g opacity="0.2">
			<circle fill="#FFFFFF" cx="171.3" cy="506.9" r="6.8"/>
		</g>
		<g opacity="0.2">
			<circle fill="#FFFFFF" cx="197.6" cy="506.9" r="6.8"/>
		</g>
		<g opacity="0.2">
			<circle fill="#FFFFFF" cx="224.6" cy="506.9" r="6.8"/>
		</g>
		<g id="g10_173_" transform="matrix(1.25,0,0,-1.25,0,47.5)">
			<g id="g12_193_">
				<g>
					<defs>
						<rect id="SVGID_97_" x="99.2" y="-58.6" width="22.5" height="22.5"/>
					</defs>
					<clipPath id="SVGID_4_">
						<use xlink:href="#SVGID_97_"  overflow="visible"/>
					</clipPath>
					<g id="g14_195_" clip-path="url(#SVGID_4_)">
						<g id="g20_185_" transform="translate(36,19)">
							<path id="path22_185_" fill="#FFCC4D" d="M82.5-66.3c0-4.5-3.6-8.1-8.1-8.1c-4.5,0-8.1,3.6-8.1,8.1c0,4.5,3.6,8.1,8.1,8.1
								C78.9-58.3,82.5-61.9,82.5-66.3"/>
						</g>
						<g id="g24_174_" transform="translate(29.457,19.2031)">
							<path id="path26_174_" fill="#664500" d="M86-66.4c0,0.1-0.7,1.6-2.1,1.6c-1.4,0-2.1-1.5-2.1-1.6c0-0.1,0-0.2,0.1-0.3
								c0.1-0.1,0.2-0.1,0.3,0c0,0,0.6,0.4,1.8,0.4c1.2,0,1.7-0.4,1.8-0.4c0,0,0.1,0,0.1,0c0.1,0,0.1,0,0.1,0.1
								C86-66.6,86-66.5,86-66.4"/>
						</g>
						<g id="g28_128_" transform="translate(17.457,19.2031)">
							<path id="path30_120_" fill="#664500" d="M92.3-66.4c0,0.1-0.7,1.6-2.1,1.6c-1.4,0-2.1-1.5-2.1-1.6c0-0.1,0-0.2,0.1-0.3
								c0.1-0.1,0.2-0.1,0.3,0c0,0,0.6,0.4,1.8,0.4c1.2,0,1.7-0.4,1.8-0.4c0,0,0.1,0,0.1,0c0.1,0,0.1,0,0.1,0.1
								C92.3-66.6,92.3-66.5,92.3-66.4"/>
						</g>
						<g id="g32_101_" transform="translate(32,20.9995)">
							<path id="path34_98_" fill="#664500" d="M84.6-67.4c-0.2,0-0.4,0.1-0.4,0.3c-0.8,2.1-3,2.6-3,2.6c-0.3,0.1-0.4,0.3-0.4,0.6
								c0.1,0.3,0.3,0.4,0.6,0.4c0.1,0,2.6-0.6,3.7-3.1c0.1-0.2,0-0.5-0.3-0.6C84.8-67.4,84.7-67.4,84.6-67.4"/>
						</g>
						<g id="g36_91_" transform="translate(5.9995,20.9995)">
							<path id="path38_91_" fill="#664500" d="M98.3-67.4c-0.1,0-0.1,0-0.2,0c-0.2,0.1-0.4,0.4-0.3,0.6c1,2.6,3.6,3.1,3.7,3.1
								c0.3,0.1,0.5-0.1,0.6-0.4c0.1-0.3-0.1-0.5-0.4-0.6c-0.1,0-2.1-0.5-3-2.6C98.7-67.3,98.5-67.4,98.3-67.4"/>
						</g>
						<g id="g40_90_" transform="translate(19,15)">
							<path id="path42_88_" fill="#664500" d="M91.5-64.2c-1.7,0-2.9,0.2-4.3,0.5c-0.3,0.1-0.9,0-0.9-0.9c0-1.9,2.2-4.3,5.2-4.3
								c3,0,5.2,2.4,5.2,4.3c0,0.9-0.6,1-0.9,0.9C94.3-64,93.2-64.2,91.5-64.2"/>
						</g>
						<g id="g44_71_" transform="translate(10,14)">
							<path id="path46_71_" fill="#FFFFFF" d="M96.2-63.7c0,0,1.4-0.5,4.3-0.5c2.8,0,4.3,0.5,4.3,0.5s-0.9-1.9-4.3-1.9
								C97.2-65.6,96.2-63.7,96.2-63.7"/>
						</g>
						<g id="g48_60_" transform="translate(11.8472,8.7705)">
							<path id="path50_60_" fill="#5DADEC" d="M95.2-61c-0.3-1.3-1.6-2-2.9-1.7c-1.3,0.3-2,1.6-1.7,2.9c0.3,1.3,3,4.1,3.5,4
								C94.6-55.9,95.6-59.7,95.2-61"/>
						</g>
						<g id="g52_55_" transform="translate(26.1328,8.7705)">
							<path id="path54_53_" fill="#5DADEC" d="M87.7-61c0.3-1.3,1.6-2,2.9-1.7c1.3,0.3,2,1.6,1.7,2.9c-0.3,1.3-3,4.1-3.5,4
								C88.4-55.9,87.4-59.7,87.7-61"/>
						</g>
					</g>
				</g>
			</g>
		</g>
		<g id="g10_172_" transform="matrix(1.25,0,0,-1.25,0,47.5)">
			<g id="g12_192_">
				<g>
					<defs>
						<rect id="SVGID_99_" x="36.1" y="-93.8" width="22.5" height="22.5"/>
					</defs>
					<clipPath id="SVGID_6_">
						<use xlink:href="#SVGID_99_"  overflow="visible"/>
					</clipPath>
					<g id="g14_194_" clip-path="url(#SVGID_6_)">
						<g id="g20_184_" transform="translate(36,19)">
							<path id="path22_184_" fill="#FFCC4D" d="M19.5-101.5c0-4.5-3.6-8.1-8.1-8.1c-4.5,0-8.1,3.6-8.1,8.1c0,4.5,3.6,8.1,8.1,8.1
								C15.9-93.5,19.5-97.1,19.5-101.5"/>
						</g>
						<g id="g24_173_" transform="translate(29.457,19.2031)">
							<path id="path26_173_" fill="#664500" d="M22.9-101.6c0,0.1-0.7,1.6-2.1,1.6c-1.4,0-2.1-1.5-2.1-1.6c0-0.1,0-0.2,0.1-0.3
								c0.1-0.1,0.2-0.1,0.3,0c0,0,0.6,0.4,1.8,0.4c1.2,0,1.7-0.4,1.8-0.4c0,0,0.1,0,0.1,0c0.1,0,0.1,0,0.1,0.1
								C22.9-101.8,23-101.7,22.9-101.6"/>
						</g>
						<g id="g28_127_" transform="translate(17.457,19.2031)">
							<path id="path30_119_" fill="#664500" d="M29.2-101.6c0,0.1-0.7,1.6-2.1,1.6c-1.4,0-2.1-1.5-2.1-1.6c0-0.1,0-0.2,0.1-0.3
								c0.1-0.1,0.2-0.1,0.3,0c0,0,0.6,0.4,1.8,0.4c1.2,0,1.7-0.4,1.8-0.4c0,0,0.1,0,0.1,0c0.1,0,0.1,0,0.1,0.1
								C29.2-101.8,29.3-101.7,29.2-101.6"/>
						</g>
						<g id="g32_100_" transform="translate(32,20.9995)">
							<path id="path34_97_" fill="#664500" d="M21.6-102.6c-0.2,0-0.4,0.1-0.4,0.3c-0.8,2.1-3,2.6-3,2.6c-0.3,0.1-0.4,0.3-0.4,0.6
								c0.1,0.3,0.3,0.4,0.6,0.4c0.1,0,2.6-0.6,3.7-3.1c0.1-0.2,0-0.5-0.3-0.6C21.7-102.6,21.6-102.6,21.6-102.6"/>
						</g>
						<g id="g36_90_" transform="translate(5.9995,20.9995)">
							<path id="path38_90_" fill="#664500" d="M35.2-102.6c-0.1,0-0.1,0-0.2,0c-0.2,0.1-0.4,0.4-0.3,0.6c1,2.6,3.6,3.1,3.7,3.1
								c0.3,0.1,0.5-0.1,0.6-0.4c0.1-0.3-0.1-0.5-0.4-0.6c-0.1,0-2.1-0.5-3-2.6C35.6-102.5,35.4-102.6,35.2-102.6"/>
						</g>
						<g id="g40_89_" transform="translate(19,15)">
							<path id="path42_87_" fill="#664500" d="M28.4-99.4c-1.7,0-2.9,0.2-4.3,0.5c-0.3,0.1-0.9,0-0.9-0.9c0-1.9,2.2-4.3,5.2-4.3
								c3,0,5.2,2.4,5.2,4.3c0,0.9-0.6,1-0.9,0.9C31.3-99.2,30.1-99.4,28.4-99.4"/>
						</g>
						<g id="g44_70_" transform="translate(10,14)">
							<path id="path46_70_" fill="#FFFFFF" d="M33.1-98.9c0,0,1.4-0.5,4.3-0.5c2.8,0,4.3,0.5,4.3,0.5s-0.9-1.9-4.3-1.9
								C34.1-100.8,33.1-98.9,33.1-98.9"/>
						</g>
						<g id="g48_59_" transform="translate(11.8472,8.7705)">
							<path id="path50_59_" fill="#5DADEC" d="M32.2-96.1c-0.3-1.3-1.6-2-2.9-1.7c-1.3,0.3-2,1.6-1.7,2.9c0.3,1.3,3,4.1,3.5,4
								C31.5-91.1,32.5-94.9,32.2-96.1"/>
						</g>
						<g id="g52_54_" transform="translate(26.1328,8.7705)">
							<path id="path54_52_" fill="#5DADEC" d="M24.7-96.1c0.3-1.3,1.6-2,2.9-1.7c1.3,0.3,2,1.6,1.7,2.9c-0.3,1.3-3,4.1-3.5,4
								C25.3-91.1,24.3-94.9,24.7-96.1"/>
						</g>
					</g>
				</g>
			</g>
		</g>
		<g id="g10_171_" transform="matrix(1.25,0,0,-1.25,0,47.5)">
			<g id="g12_191_">
				<g>
					<defs>
						<rect id="SVGID_101_" x="141.1" y="-58.6" width="22.5" height="22.5"/>
					</defs>
					<clipPath id="SVGID_8_">
						<use xlink:href="#SVGID_101_"  overflow="visible"/>
					</clipPath>
					<g id="g14_193_" clip-path="url(#SVGID_8_)">
						<g id="g20_183_" transform="translate(34.7988,36.9946)">
							<path id="path22_183_" fill="#99AAB5" d="M125.1-75.8c-0.2,0.1-3.8-1.9-4.7-4.3c-0.6-1.4-0.8-2.9-0.8-3.8
								c-0.7,0.4-1.4,0.6-2,0.6c-0.6,0-1.3-0.2-2-0.6c0,1-0.2,2.4-0.8,3.8c-0.9,2.4-4.5,4.4-4.7,4.3c-0.2-0.1,2-7.6,3.3-9.9
								c-1.1-1.2-2-2.8-2-4.3c0-1.5,0.8-2.4,1.9-2.8c1.2-0.4,2.4,0.4,4.3,0.4c1.9,0,3.1-0.9,4.3-0.4c1.1,0.4,1.9,1.3,1.9,2.8
								c0,1.5-0.9,3-2,4.3C123.1-83.4,125.3-75.9,125.1-75.8"/>
						</g>
						<g id="g24_172_" transform="translate(13.6919,19.0781)">
							<path id="path26_172_" fill="#F4ABBA" d="M136.2-66.4c-0.1,0.7-0.3,1.7-0.7,2.6c-0.7,1.9-2.7,3.4-2.9,3.4
								c-0.2-0.1,1.2-4.8,2.3-7.1C135.3-67,135.7-66.7,136.2-66.4"/>
						</g>
						<g id="g28_126_" transform="translate(27.0303,16.9063)">
							<path id="path30_118_" fill="#F4ABBA" d="M129.2-65.2c1,2.2,2.4,7,2.3,7.1c-0.2,0.1-2.1-1.5-2.9-3.4c-0.4-1-0.6-1.9-0.7-2.6
								C128.3-64.5,128.8-64.8,129.2-65.2"/>
						</g>
						<g id="g32_99_" transform="translate(26,7)">
							<path id="path34_96_" fill="#CCD6DD" d="M129.7-60c0-1.3-1.5-2.4-3.2-2.4c-1.8,0-3.2,1.1-3.2,2.4c0,1.3,1.5,2.4,3.2,2.4
								C128.3-57.6,129.7-58.7,129.7-60"/>
						</g>
						<g id="g36_89_" transform="translate(22,6.4219)">
							<path id="path38_89_" fill="#FFFFFF" d="M131.8-59.7c0-1.3-0.1-1.4-1.4-1.4c-1.3,0-1.4,0.1-1.4,1.4
								C129-59.2,131.8-59.2,131.8-59.7"/>
						</g>
						<g id="g40_88_" transform="translate(15,12.6719)">
							<path id="path42_86_" fill="#292F33" d="M135.5-63c0-0.4-0.3-0.7-0.7-0.7c-0.4,0-0.7,0.3-0.7,0.7c0,0.4,0.3,0.7,0.7,0.7
								C135.2-62.3,135.5-62.6,135.5-63"/>
						</g>
						<g id="g44_69_" transform="translate(26,12.6719)">
							<path id="path46_69_" fill="#292F33" d="M129.7-63c0-0.4-0.3-0.7-0.7-0.7s-0.7,0.3-0.7,0.7c0,0.4,0.3,0.7,0.7,0.7
								S129.7-62.6,129.7-63"/>
						</g>
						<g id="g48_58_" transform="translate(22,11.1719)">
							<path id="path50_58_" fill="#F4ABBA" d="M131.8-62.2c0-0.8-0.9-1.4-1.4-1.4c-0.5,0-1.4,0.6-1.4,1.4S131.8-61.4,131.8-62.2"/>
						</g>
					</g>
				</g>
			</g>
		</g>
		<g id="g10_170_" transform="matrix(1.25,0,0,-1.25,0,47.5)">
			<g id="g12_190_">
				<g>
					<defs>
						<rect id="SVGID_103_" x="36.1" y="-125.4" width="22.5" height="22.5"/>
					</defs>
					<clipPath id="SVGID_10_">
						<use xlink:href="#SVGID_103_"  overflow="visible"/>
					</clipPath>
					<g id="g14_192_" clip-path="url(#SVGID_10_)">
						<g id="g20_182_" transform="translate(18,19)">
							<path id="path22_182_" fill="#E1E8ED" d="M28.9-133.1c0-2.6-1.8-4.7-4-4.7c-2.2,0-4,2.1-4,4.7c0,2.6,1.8,4.7,4,4.7
								C27.1-128.4,28.9-130.5,28.9-133.1"/>
						</g>
						<g id="g24_171_" transform="translate(37,19)">
							<path id="path26_171_" fill="#E1E8ED" d="M19-133.1c0-2.6-1.8-4.7-4-4.7c-2.2,0-4,2.1-4,4.7c0,2.6,1.8,4.7,4,4.7
								C17.1-128.4,19-130.5,19-133.1"/>
						</g>
						<g id="g28_125_" transform="translate(9,15)">
							<path id="path30_117_" fill="#292F33" d="M33.7-131c0-0.8-0.6-1.4-1.4-1.4c-0.8,0-1.4,0.6-1.4,1.4c0,0.8,0.6,1.4,1.4,1.4
								C33-129.6,33.7-130.2,33.7-131"/>
						</g>
						<g id="g32_98_" transform="translate(28,15)">
							<path id="path34_95_" fill="#292F33" d="M23.7-131c0-0.8-0.6-1.4-1.4-1.4c-0.8,0-1.4,0.6-1.4,1.4c0,0.8,0.6,1.4,1.4,1.4
								C23-129.6,23.7-130.2,23.7-131"/>
						</g>
					</g>
				</g>
			</g>
		</g>
		<g id="g10_169_" transform="matrix(1.25,0,0,-1.25,0,47.5)">
			<g id="g12_189_">
				<g>
					<defs>
						<rect id="SVGID_105_" x="120.2" y="-125.4" width="22.5" height="22.5"/>
					</defs>
					<clipPath id="SVGID_12_">
						<use xlink:href="#SVGID_105_"  overflow="visible"/>
					</clipPath>
					<g id="g14_191_" clip-path="url(#SVGID_12_)">
						<g id="g20_181_" transform="translate(18,19)">
							<path id="path22_181_" fill="#E1E8ED" d="M113-133.1c0-2.6-1.8-4.7-4-4.7c-2.2,0-4,2.1-4,4.7c0,2.6,1.8,4.7,4,4.7
								C111.2-128.4,113-130.5,113-133.1"/>
						</g>
						<g id="g24_170_" transform="translate(37,19)">
							<path id="path26_170_" fill="#E1E8ED" d="M103-133.1c0-2.6-1.8-4.7-4-4.7c-2.2,0-4,2.1-4,4.7c0,2.6,1.8,4.7,4,4.7
								C101.2-128.4,103-130.5,103-133.1"/>
						</g>
						<g id="g28_124_" transform="translate(9,15)">
							<path id="path30_116_" fill="#292F33" d="M117.7-131c0-0.8-0.6-1.4-1.4-1.4c-0.8,0-1.4,0.6-1.4,1.4c0,0.8,0.6,1.4,1.4,1.4
								C117.1-129.6,117.7-130.2,117.7-131"/>
						</g>
						<g id="g32_97_" transform="translate(28,15)">
							<path id="path34_94_" fill="#292F33" d="M107.7-131c0-0.8-0.6-1.4-1.4-1.4c-0.8,0-1.4,0.6-1.4,1.4c0,0.8,0.6,1.4,1.4,1.4
								C107.1-129.6,107.7-130.2,107.7-131"/>
						</g>
					</g>
				</g>
			</g>
		</g>
		<g id="g10_168_" transform="matrix(1.25,0,0,-1.25,0,47.5)">
			<g id="g12_188_">
				<g>
					<defs>
						<rect id="SVGID_107_" x="120.2" y="-58.6" width="22.5" height="22.5"/>
					</defs>
					<clipPath id="SVGID_14_">
						<use xlink:href="#SVGID_107_"  overflow="visible"/>
					</clipPath>
					<g id="g14_190_" clip-path="url(#SVGID_14_)">
						<g id="g20_180_" transform="translate(23.4941,31.6558)">
							<path id="path22_180_" fill="#DD2E44" d="M110.1-73c-0.3,0-0.6,0-0.9-0.1c-0.4,0-1.3,0.1-1.7,0.1c-4,0-7.5-1.5-7.5-6.8
								c0-4.3,3.3-7.8,8.1-7.8c4.7,0,8.5,3.5,8.5,7.8C116.5-74.4,112.1-73,110.1-73"/>
						</g>
						<g id="g24_169_" transform="translate(9.439,36.9087)">
							<path id="path26_169_" fill="#77B255" d="M117.5-75.7c0.8-0.8,1.3-1.1,1.6-2.3c0.1-0.7,1.1-0.7,1.1-0.7s-1.9-0.8-2.6-1.6
								c0,0,2.3,0.8,3.1,0.8c0,0,1.6-0.8,1.6-1.6c0,0,0,1.6-0.8,1.6c0,0,2.3,0,2.3-1.6c0,0,0,2.3-0.8,2.3c0,0,2.3,0.8,3.1,0
								c0,0-0.8,0.8-2.3,0.8c0,0,0.8,0.8,2.3,0.8c0,0-2.5,0.7-3.3-0.8c0,0-0.7,0.7,0.7,2c0,0-2-0.4-2-1.9c0,0-0.7,0-1.3,0.6
								C119.1-76.3,117.5-75.7,117.5-75.7"/>
						</g>
					</g>
				</g>
			</g>
		</g>
		<g id="g10_167_" transform="matrix(1.25,0,0,-1.25,0,47.5)">
			<g id="g12_187_">
				<g>
					<defs>
						<rect id="SVGID_109_" x="78.1" y="-58.6" width="22.5" height="22.5"/>
					</defs>
					<clipPath id="SVGID_16_">
						<use xlink:href="#SVGID_109_"  overflow="visible"/>
					</clipPath>
					<g id="g14_189_" clip-path="url(#SVGID_16_)">
						<g id="g20_179_" transform="translate(35.751,15)">
							<path id="path22_179_" fill="#77B255" d="M61.6-64.2c-1.6,0-5.6-1.7-7.5-3.4v5.8c0,0.3-0.2,0.5-0.5,0.5
								c-0.3,0-0.5-0.2-0.5-0.5v-5.9c-1.8,1.7-5.9,3.5-7.6,3.5c-0.4,0,5.2-6.6,7.6-6v-0.2c0-0.3,0.2-0.5,0.5-0.5
								c0.3,0,0.5,0.2,0.5,0.5v0.2C56.6-70.7,62-64.2,61.6-64.2"/>
						</g>
						<g id="g24_168_" transform="translate(26,23.5835)">
							<path id="path26_168_" fill="#EA596E" d="M66.7-68.7c0-3-0.8-4.5-3.3-4.5c-2.5,0-3.3,1.5-3.3,4.5c0,3,2.4,6.4,3.3,6.4
								C64.4-62.4,66.7-65.7,66.7-68.7"/>
						</g>
						<g id="g28_123_" transform="translate(23.7949,35)">
							<path id="path30_115_" fill="#F4ABBA" d="M67.9-74.7c-0.2,0-1.9-6.8-2.3-9.1c-0.4,2.4-2.1,9.1-2.4,9.1
								c-0.5,0-2.8-4.3-2.8-6.2c0-1.9,2.7-3.8,5.2-3.8c2.5,0,5.1,1.9,5.1,3.8C70.7-79,68.4-74.7,67.9-74.7"/>
						</g>
					</g>
				</g>
			</g>
		</g>
		<g id="g10_166_" transform="matrix(1.25,0,0,-1.25,0,47.5)">
			<g id="g12_186_">
				<g>
					<defs>
						<rect id="SVGID_111_" x="162.1" y="-93.8" width="22.5" height="22.5"/>
					</defs>
					<clipPath id="SVGID_18_">
						<use xlink:href="#SVGID_111_"  overflow="visible"/>
					</clipPath>
					<g id="g14_188_" clip-path="url(#SVGID_18_)">
						<g id="g20_178_" transform="translate(35.751,15)">
							<path id="path22_178_" fill="#77B255" d="M145.6-99.4c-1.6,0-5.6-1.7-7.5-3.4v5.8c0,0.3-0.2,0.5-0.5,0.5
								c-0.3,0-0.5-0.2-0.5-0.5v-5.9c-1.8,1.7-5.9,3.5-7.6,3.5c-0.4,0,5.2-6.6,7.6-6v-0.2c0-0.3,0.2-0.5,0.5-0.5
								c0.3,0,0.5,0.2,0.5,0.5v0.2C140.6-105.9,146-99.4,145.6-99.4"/>
						</g>
						<g id="g24_167_" transform="translate(26,23.5835)">
							<path id="path26_167_" fill="#EA596E" d="M150.7-103.9c0-3-0.8-4.5-3.3-4.5c-2.5,0-3.3,1.5-3.3,4.5c0,3,2.4,6.4,3.3,6.4
								C148.3-97.6,150.7-100.9,150.7-103.9"/>
						</g>
						<g id="g28_122_" transform="translate(23.7949,35)">
							<path id="path30_114_" fill="#F4ABBA" d="M151.9-109.9c-0.2,0-1.9-6.8-2.3-9.1c-0.4,2.4-2.1,9.1-2.4,9.1
								c-0.5,0-2.8-4.3-2.8-6.2c0-1.9,2.7-3.8,5.2-3.8c2.5,0,5.1,1.9,5.1,3.8C154.7-114.2,152.3-109.9,151.9-109.9"/>
						</g>
					</g>
				</g>
			</g>
		</g>
		<g id="g10_165_" transform="matrix(1.25,0,0,-1.25,0,47.5)">
			<g id="g12_185_">
				<g>
					<defs>
						<rect id="SVGID_113_" x="99.2" y="-125.4" width="22.1" height="22.1"/>
					</defs>
					<clipPath id="SVGID_20_">
						<use xlink:href="#SVGID_113_"  overflow="visible"/>
					</clipPath>
					<g id="g14_187_" clip-path="url(#SVGID_20_)">
						<g id="g20_177_" transform="translate(2.7266,14.7012)">
							<path id="path22_177_" fill="#FFAC33" d="M100-131c0,0-0.6,0.6,0,1.3c0.6,0.6,1.3,0,1.3,0l3-2.8c0,0,0.2,0.4,0.2,0.4
								l-4.2,3.9c0,0-0.6,0.6,0,1.3c0.6,0.7,1.3,0,1.3,0l3.9-3.6c0,0,0.3,0.3,0.3,0.3l-4.6,4.2c0,0-0.6,0.6,0,1.3
								c0.6,0.6,1.3,0,1.3,0l4.6-4.2c0,0,0.3,0.3,0.3,0.3l-4.3,4c0,0-0.6,0.6,0,1.3c0.6,0.6,1.3,0,1.3,0s3.2-2.9,4.5-4.2
								c1.3-1.2,1.6-0.9,1.6-0.9l-1.2,1.1l-1.4,1.3c0,0-0.6,0.6,0,1.3c0.6,0.6,1.3,0,1.3,0l3.6-3.3c2.2-2,2.3-5.4,0.3-7.5
								c-2-2.2-5.4-2.3-7.5-0.3c-0.1,0.1-0.3,0.3-0.3,0.3l0,0L100-131z"/>
						</g>
						<g id="g24_166_" transform="translate(5.627,16.6504)">
							<path id="path26_166_" fill="#FFDC5D" d="M98.5-132c0,0-0.6,0.6,0,1.3c0.6,0.7,1.3,0,1.3,0l3-2.8c0,0,0.2,0.4,0.2,0.4
								l-4.2,3.9c0,0-0.6,0.6,0,1.3c0.6,0.6,1.3,0,1.3,0l3.9-3.6c0,0,0.3,0.3,0.3,0.3l-4.6,4.2c0,0-0.6,0.6,0,1.3
								c0.6,0.6,1.3,0,1.3,0l4.6-4.2c0,0,0.3,0.3,0.3,0.3l-4.3,4c0,0-0.6,0.6,0,1.3c0.6,0.6,1.3,0,1.3,0s3.2-2.9,4.5-4.2
								c1.3-1.2,1.6-0.9,1.6-0.9l-1.2,1.1l-1.4,1.3c0,0-0.6,0.6,0,1.3c0.6,0.6,1.3,0,1.3,0l3.6-3.3c2.2-2,2.3-5.4,0.3-7.5
								c-2-2.2-5.4-2.3-7.5-0.3c-0.1,0.1-0.3,0.3-0.3,0.3l0,0L98.5-132z"/>
						</g>
						<g id="g28_121_" transform="translate(25.541,30.5415)">
							<path id="path30_113_" fill="#FFAC33" d="M87.8-139.5c-0.1,0-0.2,0-0.3,0.1c-0.2,0.2-0.2,0.5-0.1,0.7l1.4,1.8
								c0.2,0.2,0.4,0.2,0.7,0.1c0.2-0.2,0.2-0.4,0.1-0.7l-1.4-1.8C88.1-139.4,88-139.5,87.8-139.5"/>
						</g>
						<g id="g32_96_" transform="translate(20,30)">
							<path id="path34_93_" fill="#FFAC33" d="M90.8-139.2c-0.3,0-0.5,0.2-0.5,0.5v2.3c0,0.3,0.2,0.5,0.5,0.5
								c0.3,0,0.5-0.2,0.5-0.5v-2.3C91.3-139,91-139.2,90.8-139.2"/>
						</g>
						<g id="g36_88_" transform="translate(29.417,27.333)">
							<path id="path38_88_" fill="#FFAC33" d="M85.8-137.7c-0.2,0-0.4,0.1-0.4,0.3c-0.1,0.2,0,0.5,0.3,0.6l2.1,0.8
								c0.2,0.1,0.5,0,0.6-0.3c0.1-0.2,0-0.5-0.3-0.6l-2.1-0.8C85.9-137.7,85.8-137.7,85.8-137.7"/>
						</g>
					</g>
				</g>
			</g>
		</g>
		<g id="g10_164_" transform="matrix(1.25,0,0,-1.25,0,47.5)">
			<g id="g12_184_">
				<g>
					<defs>
						<rect id="SVGID_115_" x="36.1" y="-58.6" width="22.5" height="22.5"/>
					</defs>
					<clipPath id="SVGID_22_">
						<use xlink:href="#SVGID_115_"  overflow="visible"/>
					</clipPath>
					<g id="g14_186_" clip-path="url(#SVGID_22_)">
						<g id="g20_176_" transform="translate(21.1426,4.7852)">
							<path id="path22_176_" fill="#E1E8ED" d="M27.3-58.9c0-0.6-0.5-1-1-1c-0.6,0-1,0.5-1,1c0,0.6,0.5,1,1,1
								C26.8-57.8,27.3-58.3,27.3-58.9"/>
						</g>
						<g id="g24_165_" transform="translate(28.6426,21.3569)">
							<path id="path26_165_" fill="#E1E8ED" d="M23.3-67.6c0,2.5-2,4.6-4.6,4.6c-2.5,0-4.6-2-4.6-4.6c0-2.5-0.5-7.9-0.5-7.9
								c0-0.6,0.5-1,1-1c0.6,0,1,0.5,1,1c0-0.6,0.5-1,1-1c0.6,0,1,0.5,1,1h2c0-0.6,0.5-1,1-1c0.6,0,1,0.5,1,1c0-0.6,0.5-1,1-1
								c0.6,0,1,0.5,1,1C23.9-75.4,23.3-70.1,23.3-67.6"/>
						</g>
						<g id="g28_120_" transform="translate(21,34)">
							<path id="path30_112_" fill="#DD2E44" d="M27.4-74.2c0-1-0.7-2.8-0.9-2.8c-0.3,0-0.9,1.8-0.9,2.8c0,1,0.7,1.4,0.9,1.4
								C26.7-72.8,27.4-73.2,27.4-74.2"/>
						</g>
						<g id="g32_95_" transform="translate(16.6348,4)">
							<path id="path34_92_" fill="#DD2E44" d="M29.7-58.4c0,1.2,0.8,3.8,1.1,3.8c0.3,0,1.1-2.6,1.1-3.8c0-1.2-0.8-1.4-1.1-1.4
								C30.5-59.9,29.7-59.7,29.7-58.4"/>
						</g>
						<g id="g36_87_" transform="translate(26,14.5)">
							<path id="path38_87_" fill="#F4900C" d="M24.7-64c0-0.7-2.3-2.1-3.3-2.1c-1,0-3.3,1.4-3.3,2.1c0,0.7,2.3,2.1,3.3,2.1
								C22.5-61.8,24.7-63.3,24.7-64"/>
						</g>
						<g id="g40_87_" transform="translate(26,14.5)">
							<path id="path42_85_" fill="#FFAC33" d="M24.7-64c0-0.7-6.6-0.7-6.6,0c0,0.7,2.3,2.1,3.3,2.1C22.5-61.8,24.7-63.3,24.7-64"/>
						</g>
						<g id="g44_68_" transform="translate(14,18.5)">
							<path id="path46_68_" fill="#292F33" d="M31-66.1c0-0.4-0.3-0.7-0.7-0.7c-0.4,0-0.7,0.3-0.7,0.7c0,0.4,0.3,0.7,0.7,0.7
								C30.7-65.4,31-65.7,31-66.1"/>
						</g>
						<g id="g48_57_" transform="translate(27,18.5)">
							<path id="path50_57_" fill="#292F33" d="M24.2-66.1c0-0.4-0.3-0.7-0.7-0.7s-0.7,0.3-0.7,0.7c0,0.4,0.3,0.7,0.7,0.7
								S24.2-65.7,24.2-66.1"/>
						</g>
					</g>
				</g>
			</g>
		</g>
		<g id="g10_163_" transform="matrix(1.25,0,0,-1.25,0,47.5)">
			<g id="g12_170_">
				<g>
					<defs>
						<rect id="SVGID_117_" x="58.2" y="-125.4" width="22.5" height="22.5"/>
					</defs>
					<clipPath id="SVGID_24_">
						<use xlink:href="#SVGID_117_"  overflow="visible"/>
					</clipPath>
					<g id="g14_172_" clip-path="url(#SVGID_24_)">
						<g id="g20_175_" transform="translate(27,28.0005)">
							<path id="path22_175_" fill="#292F33" d="M46.3-137.9c-1.7,0-3,0.8-3.8,2.3c-0.8-1.5-1.9-2.3-3.3-2.3c-0.3,0-0.5,0.2-0.5,0.5
								c0,0.3,0.2,0.5,0.5,0.5c1.3,0,2.3,0.9,2.9,2.8c0.1,0.2,0.2,0.3,0.5,0.3c0.2,0,0.4-0.1,0.5-0.3c0.6-1.9,1.7-2.8,3.3-2.8
								c0.3,0,0.5-0.2,0.5-0.5C46.8-137.7,46.5-137.9,46.3-137.9"/>
						</g>
						<g id="g24_164_" transform="translate(15.604,27.3462)">
							<path id="path26_164_" fill="#FFAC33" d="M52.3-137.5c1.6-1.6,0.2-2.8-1.4-4.4c-1.6-1.6-2.8-3-4.4-1.4
								c-1.6,1.6-1.6,4.2,0,5.8C48.1-135.9,50.7-135.9,52.3-137.5"/>
						</g>
						<g id="g28_119_" transform="translate(16.4351,26.0278)">
							<path id="path30_101_" fill="#BE1931" d="M51.8-136.8c0.8-0.8,0.1-2.6-1.4-4.1c-1.5-1.5-3.4-2.2-4.1-1.4
								c-0.8,0.8-0.1,2.6,1.4,4.1C49.2-136.7,51.1-136.1,51.8-136.8"/>
						</g>
						<g id="g32_94_" transform="translate(22.2988,27.3462)">
							<path id="path34_91_" fill="#FFAC33" d="M48.7-137.5c-1.6-1.6-0.2-2.8,1.4-4.4c1.6-1.6,2.8-3,4.4-1.4c1.6,1.6,1.6,4.2,0,5.8
								C52.9-135.9,50.3-135.9,48.7-137.5"/>
						</g>
						<g id="g36_86_" transform="translate(21.4688,26.0278)">
							<path id="path38_86_" fill="#BE1931" d="M49.2-136.8c-0.8-0.8-0.1-2.6,1.4-4.1c1.5-1.5,3.4-2.2,4.1-1.4
								c0.8,0.8,0.1,2.6-1.4,4.1C51.8-136.7,49.9-136.1,49.2-136.8"/>
						</g>
						<g id="g40_86_" transform="translate(23.4102,18.7793)">
							<path id="path42_84_" fill="#AA8DD8" d="M48.2-133c0.1,0.1,0.2,0.1,0.3,0.1c0.4,0,0.8-0.2,1-0.4c0.3-0.2,0.4-0.6,0.3-0.9
								c-0.1-0.6-0.6-1.1-1.6-1c-0.4,0-0.5-0.1-0.5-0.1c0-0.1,0.1-0.2,0.5-0.3c0.4,0,0.8-0.2,1-0.4c0.3-0.2,0.4-0.6,0.3-0.9
								c-0.1-0.6-0.6-1.1-1.6-1c-0.3,0-0.4,0-0.5-0.1c0,0-0.1-0.1-0.1-0.1c0-0.1,0.1-0.2,0.5-0.3c0.3,0,0.4-0.3,0.4-0.5
								c0-0.3-0.3-0.4-0.5-0.4c-1,0.1-1.4,0.7-1.3,1.3c0.1,0.6,0.6,1.1,1.6,1c0.3,0,0.4,0,0.5,0.1c0,0,0.1,0.1,0.1,0.1
								c0,0.1-0.1,0.2-0.5,0.3c-1,0.1-1.4,0.7-1.3,1.3c0.1,0.6,0.6,1.1,1.6,1c0.3,0,0.4,0,0.5,0.1c0,0,0.1,0.1,0.1,0.1
								c0,0.1-0.1,0.2-0.5,0.3c-0.3,0-0.4,0.3-0.4,0.5C48-133.2,48.1-133.1,48.2-133"/>
						</g>
						<g id="g44_67_" transform="translate(16.2661,1.0146)">
							<path id="path46_67_" fill="#77B255" d="M51.9-123.7c-0.9-0.3-1.6,0.2-1.7,0.7c-0.2,0.5,0.2,1.2,1.1,1.5
								c0.4,0.1,0.5,0.3,0.5,0.3c0,0.1-0.2,0.1-0.6,0c-0.9-0.3-1.6,0.2-1.7,0.7c-0.2,0.5,0.2,1.2,1.1,1.5c0.4,0.1,0.5,0.3,0.5,0.3
								c0,0.1-0.2,0.1-0.6,0c-0.3-0.1-0.5,0.1-0.6,0.3c-0.1,0.3,0.1,0.5,0.3,0.6c0.9,0.3,1.6-0.2,1.7-0.7c0.2-0.5-0.2-1.2-1.1-1.5
								c-0.4-0.1-0.5-0.3-0.5-0.3c0-0.1,0.2-0.1,0.6,0c0.9,0.3,1.6-0.2,1.7-0.7c0.2-0.5-0.2-1.2-1.1-1.5c-0.4-0.1-0.5-0.3-0.5-0.3
								c0-0.1,0.2-0.1,0.6,0c0.3,0.1,0.5-0.1,0.6-0.3C52.3-123.4,52.2-123.6,51.9-123.7"/>
						</g>
						<g id="g48_56_" transform="translate(2,9.5)">
							<path id="path50_56_" fill="#5C913B" d="M59.4-128.1c0,0.4,0.3,0.7,0.7,0.7c0.4,0,0.7-0.3,0.7-0.7c0-0.4-0.3-0.7-0.7-0.7
								C59.7-128.9,59.4-128.5,59.4-128.1"/>
						</g>
						<g id="g52_53_" transform="translate(6,6)">
							<path id="path54_51_" fill="#9266CC" d="M57.3-126.3c0,0.5,0.4,0.9,0.9,0.9c0.5,0,0.9-0.4,0.9-0.9c0-0.5-0.4-0.9-0.9-0.9
								C57.7-127.3,57.3-126.8,57.3-126.3"/>
						</g>
						<g id="g56_39_" transform="translate(29,10)">
							<path id="path58_39_" fill="#9266CC" d="M45.2-128.4c0,0.5,0.4,0.9,0.9,0.9c0.5,0,0.9-0.4,0.9-0.9c0-0.5-0.4-0.9-0.9-0.9
								C45.7-129.4,45.2-128.9,45.2-128.4"/>
						</g>
						<g id="g60_18_" transform="translate(25,5.5)">
							<path id="path62_11_" fill="#5C913B" d="M47.3-126c0,0.4,0.3,0.7,0.7,0.7c0.4,0,0.7-0.3,0.7-0.7s-0.3-0.7-0.7-0.7
								C47.6-126.8,47.3-126.4,47.3-126"/>
						</g>
						<g id="g64_25_" transform="translate(17,17.5)">
							<path id="path66_25_" fill="#5C913B" d="M51.5-132.3c0,0.4,0.3,0.7,0.7,0.7c0.4,0,0.7-0.3,0.7-0.7s-0.3-0.7-0.7-0.7
								C51.9-133.1,51.5-132.7,51.5-132.3"/>
						</g>
						<g id="g68_25_" transform="translate(6,14)">
							<path id="path70_25_" fill="#FFCC4D" d="M57.3-130.5c0,0.5,0.4,0.9,0.9,0.9c0.5,0,0.9-0.4,0.9-0.9c0-0.5-0.4-0.9-0.9-0.9
								C57.7-131.5,57.3-131,57.3-130.5"/>
						</g>
						<g id="g72_23_" transform="translate(27,20.5)">
							<path id="path74_23_" fill="#FFCC4D" d="M46.3-133.9c0,0.4,0.3,0.7,0.7,0.7c0.4,0,0.7-0.3,0.7-0.7s-0.3-0.7-0.7-0.7
								C46.6-134.6,46.3-134.3,46.3-133.9"/>
						</g>
						<g id="g76_21_" transform="translate(12,22.5)">
							<path id="path78_21_" fill="#FFCC4D" d="M54.2-135c0,0.4,0.3,0.7,0.7,0.7c0.4,0,0.7-0.3,0.7-0.7c0-0.4-0.3-0.7-0.7-0.7
								C54.5-135.7,54.2-135.4,54.2-135"/>
						</g>
					</g>
				</g>
			</g>
		</g>
		<g id="g10_162_" transform="matrix(1.25,0,0,-1.25,0,47.5)">
			<g id="g12_31_">
				<g>
					<defs>
						<rect id="SVGID_119_" x="78.1" y="-93.8" width="22.5" height="22.5"/>
					</defs>
					<clipPath id="SVGID_26_">
						<use xlink:href="#SVGID_119_"  overflow="visible"/>
					</clipPath>
					<g id="g14_31_" clip-path="url(#SVGID_26_)">
						<g id="g20_174_" transform="translate(12.9829,33.438)">
							<path id="path22_174_" fill="#FFAC33" d="M73.6-109.1c2.2,0.1,3.7-0.8,3.8-3.2c0.1-2-2.5-3.2-3.8-3.3c-1.2,0-0.6,0.9,0.3,1.1
								c0.7,0.2,2,1.1,1.7,2.1c-0.3,1.1-2,1.3-3-0.1c-0.4-0.6-1.7-0.4-1.9,0.2C70.2-111.2,71.2-109.2,73.6-109.1"/>
						</g>
						<g id="g24_163_" transform="translate(36.75,15.6162)">
							<path id="path26_163_" fill="#E1E8ED" d="M61.1-99.7c0,3.7-2.1,5.4-6.9,5.4c-0.5,0-1,0-1.4-0.1c-0.6,1.1-2.3,1.3-3.9,1.3
								c-2,0-4.7-2.9-4.7-5.1c0-2.2,1.7-2.3,3.7-2.3c0.1-1.5,0.6-2.7,1.5-3.4c0.1-0.5,0.7-2.7,1.9-2.7c0.6,0,1,0.8,1.2,1.6
								c0.5-0.1,1.1-0.1,1.8-0.1c0.8,0,1.6,0.1,2.2,0.2c0-0.8,0.3-1.7,1-1.7c1.1,0,2,2.4,2.3,3.1C60.6-102.7,61.1-101.4,61.1-99.7"
								/>
						</g>
						<g id="g28_106_" transform="translate(7,21.2139)">
							<path id="path30_11_" fill="#292F33" d="M76.7-102.7c0-0.4-0.3-0.7-0.7-0.7c-0.4,0-0.7,0.3-0.7,0.7c0,0.4,0.3,0.7,0.7,0.7
								C76.4-102,76.7-102.3,76.7-102.7"/>
						</g>
						<g id="g32_93_" transform="translate(18.5625,32.6611)">
							<path id="path34_90_" fill="#FFCC4D" d="M70.6-108.7c2-0.7,2.7-2,1.9-4.3c-0.6-1.9-3.5-2.1-4.8-1.6c-1.1,0.4-0.3,1.1,0.7,0.9
								c0.8-0.1,2.2,0.3,2.4,1.3c0.1,1.1-1.4,1.9-2.8,1c-0.6-0.4-2.7-0.2-2.6,0.5C65.7-109.4,68.4-107.9,70.6-108.7"/>
						</g>
					</g>
				</g>
			</g>
		</g>
		<g id="g10_161_" transform="matrix(1.25,0,0,-1.25,0,47.5)">
			<g id="g12_30_">
				<g>
					<defs>
						<rect id="SVGID_121_" x="141.1" y="-93.8" width="22.5" height="22.5"/>
					</defs>
					<clipPath id="SVGID_28_">
						<use xlink:href="#SVGID_121_"  overflow="visible"/>
					</clipPath>
					<g id="g14_30_" clip-path="url(#SVGID_28_)">
						<g id="g20_156_" transform="translate(36,19)">
							<path id="path22_156_" fill="#FDCB58" d="M124.5-101.5c0-4.5-3.6-8.1-8.1-8.1c-4.5,0-8.1,3.6-8.1,8.1c0,4.5,3.6,8.1,8.1,8.1
								C120.8-93.5,124.5-97.1,124.5-101.5"/>
						</g>
						<g id="g24_147_" transform="translate(7,24)">
							<path id="path26_147_" fill="#664500" d="M139.7-104.1c-0.3,0-0.5,0.2-0.5,0.5c0,0.3,0.2,0.5,0.5,0.5c0.1,0,1.7,0,2.9,1.7
								c0.2,0.2,0.5,0.3,0.7,0.1c0.2-0.2,0.3-0.5,0.1-0.7C141.9-104.1,139.8-104.1,139.7-104.1"/>
						</g>
						<g id="g28_17_" transform="translate(31,24)">
							<path id="path30_10_" fill="#664500" d="M127.1-104.1c-0.1,0-2.2,0-3.7,2.1c-0.2,0.2-0.1,0.5,0.1,0.7
								c0.2,0.2,0.5,0.1,0.7-0.1c1.3-1.7,2.9-1.7,2.9-1.7c0.3,0,0.5-0.2,0.5-0.5C127.6-103.9,127.3-104.1,127.1-104.1"/>
						</g>
						<g id="g32_5_" transform="translate(31.5996,16.7998)">
							<path id="path34_4_" fill="#664500" d="M126.8-100.4c-0.1,0-0.9,0.7-2.2,1.1c0,0.1,0,0.1,0,0.2c0,0.2-0.1,0.3-0.2,0.5
								c0.9,0.2,1.6,0.3,1.6,0.3c0.3,0,0.5,0.2,0.5,0.5c0,0.3-0.2,0.5-0.5,0.5c-0.1,0-2.6,0-4.1-1.6c-0.1-0.1-0.2-0.3-0.1-0.5
								c0.1-0.2,0.2-0.3,0.4-0.3c2.2,0,4-1.3,4-1.3c0.1-0.1,0.2-0.1,0.3-0.1c0.1,0,0.3,0.1,0.4,0.2C127-100.8,127-100.5,126.8-100.4
								"/>
						</g>
						<g id="g36_85_" transform="translate(16.707,19.707)">
							<path id="path38_85_" fill="#664500" d="M134.6-101.9c-1.5,1.5-4,1.6-4.1,1.6c-0.3,0-0.5-0.2-0.5-0.5c0-0.3,0.2-0.5,0.5-0.5
								c0,0,0.7,0,1.6-0.3c-0.1-0.1-0.2-0.3-0.2-0.5c0-0.1,0-0.1,0-0.2c-1.3-0.4-2.2-1.1-2.2-1.1c-0.2-0.2-0.3-0.5-0.1-0.7
								c0.1-0.1,0.2-0.2,0.4-0.2c0.1,0,0.2,0,0.3,0.1c0,0,1.8,1.3,4,1.3c0.2,0,0.4,0.1,0.4,0.3C134.8-102.2,134.7-102,134.6-101.9"
								/>
						</g>
						<g id="g40_85_" transform="translate(19,7)">
							<path id="path42_83_" fill="#664500" d="M133.4-95.2c-0.1,0-0.3,0.1-0.4,0.2l-1.5,1.9l-1.1-1.4c-0.1-0.1-0.2-0.2-0.3-0.2
								c-0.1,0-0.3,0-0.4,0.1l-0.5,0.5c-0.2,0.2-0.2,0.5,0,0.7c0.2,0.2,0.5,0.2,0.7,0l0.1-0.1l1.1,1.5c0.1,0.1,0.2,0.2,0.4,0.2
								c0.1,0,0.3-0.1,0.4-0.2l1.5-1.9l1.5,1.9c0.1,0.1,0.2,0.2,0.4,0.2c0.1,0,0.3-0.1,0.4-0.2l1.1-1.5l0.1,0.1
								c0.2,0.2,0.5,0.2,0.7,0c0.2-0.2,0.2-0.5,0-0.7l-0.5-0.5c-0.1-0.1-0.2-0.1-0.4-0.1c-0.1,0-0.3,0.1-0.3,0.2l-1.1,1.4l-1.5-1.9
								C133.7-95.1,133.5-95.2,133.4-95.2"/>
						</g>
					</g>
				</g>
			</g>
		</g>
		<g id="g10_160_" transform="matrix(1.25,0,0,-1.25,0,47.5)">
			<g id="g12_27_">
				<g>
					<defs>
						<rect id="SVGID_123_" x="99.2" y="-93.8" width="22.3" height="22.3"/>
					</defs>
					<clipPath id="SVGID_30_">
						<use xlink:href="#SVGID_123_"  overflow="visible"/>
					</clipPath>
					<g id="g14_27_" clip-path="url(#SVGID_30_)">
						<g id="g20_17_" transform="translate(36.8848,25.1665)">
							<path id="path22_17_" fill="#BE1931" d="M81.9-104.9c0,2.6-2.1,4.6-4.6,4.6c-1.6,0-2.9-0.8-3.8-1.9c-0.8,1.2-2.2,1.9-3.8,1.9
								c-2.6,0-4.6-2.1-4.6-4.6c0-0.4,0-0.7,0.1-1.1c0.6-4,5.1-8.2,8.3-9.4c3.2,1.2,7.6,5.4,8.3,9.4
								C81.9-105.6,81.9-105.2,81.9-104.9"/>
						</g>
					</g>
				</g>
			</g>
		</g>
		<g id="g10_145_" transform="matrix(1.25,0,0,-1.25,0,47.5)">
			<g id="g12_20_">
				<g>
					<defs>
						<rect id="SVGID_125_" x="120.2" y="-93.8" width="22.4" height="22.4"/>
					</defs>
					<clipPath id="SVGID_32_">
						<use xlink:href="#SVGID_125_"  overflow="visible"/>
					</clipPath>
					<g id="g14_20_" clip-path="url(#SVGID_32_)">
						<g id="g20_16_" transform="translate(19,33)">
							<path id="path22_16_" fill="#F4900C" d="M112.4-109c3.4,0,6.1-1.9,6.9-0.9c0.1,0.2,0.1,0.3,0.1,0.5c0,0.9-3.2,2.4-7.1,2.4
								c-3.9,0-7.1-1.4-7.1-2.4c0-0.2,0-0.3,0.1-0.5C106.3-110.9,109-109,112.4-109"/>
						</g>
						<g id="g24_12_" transform="translate(19,34)">
							<path id="path26_12_" fill="#FFCC4D" d="M112.4-109.5c-2.9,0-5-0.9-5.8-1.2c-0.2-0.1-0.3-0.4-0.2-0.6c0.1-0.2,5-12.8,5-12.8
								s0.4-0.9,0.9-0.9c0.5,0,0.9,0.9,0.9,0.9l5,12.8c0,0,0.1,0.4-0.3,0.6C117.3-110.3,115.2-109.5,112.4-109.5"/>
						</g>
					</g>
				</g>
			</g>
			<g id="g28_16_">
				<g>
					<defs>
						<path id="SVGID_127_" d="M125.6-76.8c-0.2-0.1-0.3-0.4-0.2-0.6l0,0c0.1-0.2,5-12.8,5-12.8l0,0c0,0,0.5-0.9,0.9-0.9l0,0
							c0.5,0,0.9,0.9,0.9,0.9l0,0l5,12.8c0,0,0.1,0.4-0.3,0.6l0,0c-0.8,0.4-2.9,1.2-5.7,1.2l0,0C128.5-75.5,126.4-76.4,125.6-76.8"
							/>
					</defs>
					<clipPath id="SVGID_34_">
						<use xlink:href="#SVGID_127_"  overflow="visible"/>
					</clipPath>
					<g id="g30_6_" clip-path="url(#SVGID_34_)">
						<g id="g36_84_" transform="translate(19,6)">
							<path id="path38_84_" fill="#BE1931" d="M112.4-94.7c0-1-0.8-1.9-1.9-1.9c-1,0-1.9,0.8-1.9,1.9c0,1,0.8,1.9,1.9,1.9
								C111.6-92.8,112.4-93.7,112.4-94.7"/>
						</g>
						<g id="g40_15_" transform="translate(18,17)">
							<path id="path42_15_" fill="#BE1931" d="M112.9-100.5c0-1-0.8-1.9-1.9-1.9c-1,0-1.9,0.8-1.9,1.9c0,1,0.8,1.9,1.9,1.9
								C112.1-98.7,112.9-99.5,112.9-100.5"/>
						</g>
						<g id="g44_66_" transform="translate(21,29)">
							<path id="path46_66_" fill="#BE1931" d="M111.3-106.9c0-1-0.8-1.9-1.9-1.9c-1,0-1.9,0.8-1.9,1.9s0.8,1.9,1.9,1.9
								C110.5-105,111.3-105.9,111.3-106.9"/>
						</g>
						<g id="g48_55_" transform="translate(30,24)">
							<path id="path50_55_" fill="#BE1931" d="M106.6-104.2c0-1-0.8-1.9-1.9-1.9c-1,0-1.9,0.8-1.9,1.9c0,1,0.8,1.9,1.9,1.9
								C105.7-102.4,106.6-103.2,106.6-104.2"/>
						</g>
						<g id="g52_12_" transform="translate(28,12)">
							<path id="path54_12_" fill="#BE1931" d="M107.6-97.9c0-1-0.8-1.9-1.9-1.9c-1,0-1.9,0.8-1.9,1.9c0,1,0.8,1.9,1.9,1.9
								C106.8-96,107.6-96.9,107.6-97.9"/>
						</g>
						<g id="g56_38_" transform="translate(11,25)">
							<path id="path58_38_" fill="#BE1931" d="M116.6-104.8c0-1-0.8-1.9-1.9-1.9c-1,0-1.9,0.8-1.9,1.9c0,1,0.8,1.9,1.9,1.9
								C115.8-102.9,116.6-103.7,116.6-104.8"/>
						</g>
					</g>
				</g>
			</g>
		</g>
		<g id="g10_13_" transform="matrix(1.25,0,0,-1.25,0,47.5)">
			<g id="g12_19_">
				<g>
					<defs>
						<rect id="SVGID_129_" x="141.1" y="-125.4" width="22.4" height="22.4"/>
					</defs>
					<clipPath id="SVGID_36_">
						<use xlink:href="#SVGID_129_"  overflow="visible"/>
					</clipPath>
					<g id="g14_19_" clip-path="url(#SVGID_36_)">
						<g id="g20_15_" transform="translate(19,33)">
							<path id="path22_15_" fill="#F4900C" d="M133.3-140.6c3.4,0,6.1-1.9,6.9-0.9c0.1,0.2,0.1,0.3,0.1,0.5c0,0.9-3.2,2.4-7.1,2.4
								s-7.1-1.4-7.1-2.4c0-0.2,0-0.3,0.1-0.5C127.2-142.5,129.9-140.6,133.3-140.6"/>
						</g>
						<g id="g24_11_" transform="translate(19,34)">
							<path id="path26_11_" fill="#FFCC4D" d="M133.3-141.2c-2.9,0-5-0.9-5.8-1.2c-0.2-0.1-0.3-0.4-0.2-0.6c0.1-0.2,5-12.8,5-12.8
								s0.4-0.9,0.9-0.9c0.5,0,0.9,0.9,0.9,0.9l5,12.8c0,0,0.1,0.4-0.3,0.6C138.2-141.9,136.2-141.2,133.3-141.2"/>
						</g>
					</g>
				</g>
			</g>
			<g id="g28_15_">
				<g>
					<defs>
						<path id="SVGID_131_" d="M146.5-108.4c-0.2-0.1-0.3-0.4-0.2-0.6l0,0c0.1-0.2,5-12.8,5-12.8l0,0c0,0,0.5-0.9,0.9-0.9l0,0
							c0.5,0,0.9,0.9,0.9,0.9l0,0l5,12.8c0,0,0.1,0.4-0.3,0.6l0,0c-0.8,0.4-2.9,1.2-5.7,1.2l0,0C149.4-107.2,147.3-108,146.5-108.4"
							/>
					</defs>
					<clipPath id="SVGID_38_">
						<use xlink:href="#SVGID_131_"  overflow="visible"/>
					</clipPath>
					<g id="g30_5_" clip-path="url(#SVGID_38_)">
						<g id="g36_4_" transform="translate(19,6)">
							<path id="path38_4_" fill="#BE1931" d="M133.3-126.3c0-1-0.8-1.9-1.9-1.9c-1,0-1.9,0.8-1.9,1.9s0.8,1.9,1.9,1.9
								C132.5-124.4,133.3-125.3,133.3-126.3"/>
						</g>
						<g id="g40_10_" transform="translate(18,17)">
							<path id="path42_10_" fill="#BE1931" d="M133.8-132.2c0-1-0.8-1.9-1.9-1.9c-1,0-1.9,0.8-1.9,1.9c0,1,0.8,1.9,1.9,1.9
								C133-130.3,133.8-131.1,133.8-132.2"/>
						</g>
						<g id="g44_5_" transform="translate(21,29)">
							<path id="path46_5_" fill="#BE1931" d="M132.3-138.5c0-1-0.8-1.9-1.9-1.9c-1,0-1.9,0.8-1.9,1.9c0,1,0.8,1.9,1.9,1.9
								C131.4-136.6,132.3-137.5,132.3-138.5"/>
						</g>
						<g id="g48_5_" transform="translate(30,24)">
							<path id="path50_5_" fill="#BE1931" d="M127.5-135.9c0-1-0.8-1.9-1.9-1.9c-1,0-1.9,0.8-1.9,1.9c0,1,0.8,1.9,1.9,1.9
								C126.7-134,127.5-134.8,127.5-135.9"/>
						</g>
						<g id="g52_10_" transform="translate(28,12)">
							<path id="path54_10_" fill="#BE1931" d="M128.6-129.5c0-1-0.8-1.9-1.9-1.9c-1,0-1.9,0.8-1.9,1.9c0,1,0.8,1.9,1.9,1.9
								C127.7-127.6,128.6-128.5,128.6-129.5"/>
						</g>
						<g id="g56_4_" transform="translate(11,25)">
							<path id="path58_4_" fill="#BE1931" d="M137.6-136.4c0-1-0.8-1.9-1.9-1.9c-1,0-1.9,0.8-1.9,1.9c0,1,0.8,1.9,1.9,1.9
								C136.7-134.5,137.6-135.3,137.6-136.4"/>
						</g>
					</g>
				</g>
			</g>
		</g>
		<g>
			<path d="M66.9,273.6c0,5.4-6.2,4.7-6.2,9.7v1.2h-2.9v-1.3c0-5.5,6-5.5,6-9.3c0-1.9-1.7-3.1-4-3.1c-1.6,0-3.4,0.8-4.8,2.5l-2-1.5
				c2-2.3,4.4-3.4,7.1-3.4C64.4,268.4,66.9,271,66.9,273.6z M61.7,290.3c0,1.3-1,2.3-2.3,2.3c-1.3,0-2.3-1-2.3-2.3
				c0-1.3,1-2.3,2.3-2.3C60.8,288,61.7,289,61.7,290.3z"/>
			<path d="M93.3,273.6c0,5.4-6.2,4.7-6.2,9.7v1.2h-2.9v-1.3c0-5.5,6-5.5,6-9.3c0-1.9-1.7-3.1-4-3.1c-1.6,0-3.4,0.8-4.8,2.5l-2-1.5
				c2-2.3,4.4-3.4,7.1-3.4C90.7,268.4,93.3,271,93.3,273.6z M88.1,290.3c0,1.3-1,2.3-2.3,2.3c-1.3,0-2.3-1-2.3-2.3
				c0-1.3,1-2.3,2.3-2.3C87.1,288,88.1,289,88.1,290.3z"/>
		</g>
		<polygon fill="#3B88C3" points="262.5,228.1 302.5,228.1 262.5,201.4 		"/>
		<polygon fill="#E5E5E5" points="50.5,310.1 10.5,310.1 50.5,283.4 		"/>
		<g id="g12">
			<g>
				<g id="g14">
					<g id="g20" transform="translate(36,19)">
						<path id="path22" fill="#FFCC4D" d="M168.4,487.9c0,3.7-3,6.8-6.8,6.8c-3.7,0-6.8-3-6.8-6.8c0-3.7,3-6.8,6.8-6.8
							C165.4,481.1,168.4,484.2,168.4,487.9"/>
					</g>
					<g id="g24" transform="translate(15,20.5)">
						<path id="path26" fill="#664500" d="M181,485.8c0,0.8-0.4,1.4-1,1.4c-0.5,0-1-0.6-1-1.4c0-0.8,0.4-1.4,1-1.4
							C180.6,484.4,181,485,181,485.8"/>
					</g>
					<g id="g28" transform="translate(28,20.5)">
						<path id="path30" fill="#664500" d="M173.2,485.8c0,0.8-0.4,1.4-1,1.4c-0.5,0-1-0.6-1-1.4c0-0.8,0.4-1.4,1-1.4
							C172.8,484.4,173.2,485,173.2,485.8"/>
					</g>
					<g id="g32" transform="translate(6.999,25)">
						<path id="path34" fill="#664500" d="M185.9,479.5c-0.1,0-0.2,0-0.2-0.1c-0.2-0.1-0.2-0.4-0.1-0.6c1.3-1.7,3-1.8,3.1-1.8
							c0.2,0,0.4,0.2,0.4,0.4c0,0.2-0.2,0.4-0.4,0.4c-0.1,0-1.4,0-2.5,1.4C186.1,479.4,186,479.5,185.9,479.5"/>
					</g>
					<g id="g36" transform="translate(31.001,25)">
						<path id="path38" fill="#664500" d="M171.4,479.5c-0.1,0-0.2-0.1-0.3-0.2c-1.1-1.4-2.4-1.4-2.5-1.4c-0.2,0-0.4-0.2-0.4-0.4
							c0-0.2,0.2-0.4,0.4-0.4c0.1,0,1.8,0,3.1,1.8c0.1,0.2,0.1,0.4-0.1,0.6C171.6,479.5,171.5,479.5,171.4,479.5"/>
					</g>
					<g id="g40" transform="translate(24.4854,9.1211)">
						<path id="path42" fill="#664500" d="M175.3,501.7c0,0-0.5-1.7-2.2-1.7c-1.7,0-2.2,1.7-2.2,1.7c0,0.1,0,0.2,0.1,0.2
							c0.1,0,0.2,0,0.2,0c0,0,0.4-0.3,1.9-0.3c1.4,0,1.8,0.3,1.9,0.3c0,0,0.1,0.1,0.1,0.1c0,0,0.1,0,0.1,0
							C175.3,501.9,175.3,501.8,175.3,501.7"/>
					</g>
				</g>
			</g>
		</g>
	</g>
</g>
<g id="top">
</g>
<g id="tap">
</g>
</svg>
