<?xml version="1.0" encoding="utf-8"?>
<!-- Generator: Adobe Illustrator 18.0.0, SVG Export Plug-In . SVG Version: 6.00 Build 0)  -->
<!DOCTYPE svg PUBLIC "-//W3C//DTD SVG 1.1//EN" "http://www.w3.org/Graphics/SVG/1.1/DTD/svg11.dtd">
<svg version="1.1" id="Layer_1" xmlns="http://www.w3.org/2000/svg" xmlns:xlink="http://www.w3.org/1999/xlink" x="0px" y="0px"
	 viewBox="0 0 315 560" enable-background="new 0 0 315 560" xml:space="preserve">
<polyline fill="#283344" points="0,560 0,0 315,0 315,560 "/>
<g id="back">
</g>
<g id="notes">
</g>
<g id="input">
</g>
<g id="landing_pages">
</g>
<g opacity="0.2">
	<circle fill="#FFFFFF" cx="118.2" cy="506.8" r="6.8"/>
</g>
<g opacity="0.2">
	<circle fill="#FFFFFF" cx="92.2" cy="506.8" r="6.8"/>
</g>
<g opacity="0.2">
	<circle fill="#FFFFFF" cx="144.8" cy="506.8" r="6.8"/>
</g>
<g opacity="0.2">
	<circle fill="#FFFFFF" cx="171.3" cy="506.8" r="6.8"/>
</g>
<g opacity="0.2">
	<circle fill="#FFFFFF" cx="197.6" cy="506.8" r="6.8"/>
</g>
<g opacity="0.2">
	<circle fill="#FFFFFF" cx="224.6" cy="506.8" r="6.8"/>
</g>
<g id="g10_97_" transform="matrix(1.25,0,0,-1.25,0,47.5)">
	<g id="g12_115_">
		<g id="g14_120_">
			<g id="g20_106_" transform="translate(36,19)">
				<path id="path22_106_" fill="#FFCC4D" d="M85.2-386.4c0-3-2.4-5.4-5.4-5.4s-5.4,2.4-5.4,5.4s2.4,5.4,5.4,5.4
					C82.8-381,85.2-383.4,85.2-386.4"/>
			</g>
			<g id="g24_102_" transform="translate(13,19)">
				<path id="path26_102_" fill="#FF7892" d="M100.9-386.4c0-0.9-0.7-1.6-1.6-1.6s-1.6,0.7-1.6,1.6s0.7,1.6,1.6,1.6
					C100.2-384.8,100.9-385.5,100.9-386.4"/>
			</g>
			<g id="g28_74_" transform="translate(35,19)">
				<path id="path30_65_" fill="#FF7892" d="M85.9-386.4c0-0.9-0.7-1.6-1.6-1.6s-1.6,0.7-1.6,1.6s0.7,1.6,1.6,1.6
					C85.2-384.8,85.9-385.5,85.9-386.4"/>
			</g>
			<g id="g32_52_" transform="translate(28.335,15.3711)">
				<path id="path34_51_" fill="#664500" d="M90.5-383.9c-0.1,0.1-0.1,0.1-0.2,0c0,0-1.2-0.9-2.8-0.9c-1.5,0-2.8,0.9-2.8,0.9
					c-0.1,0-0.1,0-0.2,0c-0.1-0.1-0.1-0.1,0-0.2c0-0.1,1-1.7,3-1.7s3,1.6,3,1.7C90.5-384.1,90.5-384,90.5-383.9"/>
			</g>
			<g id="g36_47_" transform="translate(8.999,22)">
				<path id="path38_47_" fill="#664500" d="M103.6-388.5L103.6-388.5c-0.3,0.1-0.3,0.3-0.2,0.4c0,0,0.4,0.8,1.6,0.8
					c1.1,0,1.5-0.8,1.6-0.8c0.1-0.2,0-0.3-0.1-0.4c-0.2-0.1-0.3,0-0.4,0.1c0,0-0.3,0.5-1,0.5s-1-0.5-1-0.5
					C103.9-388.4,103.7-388.5,103.6-388.5"/>
			</g>
			<g id="g40_31_" transform="translate(29.001,22)">
				<path id="path42_31_" fill="#664500" d="M90-388.5c-0.1,0-0.2,0.1-0.3,0.2c0,0-0.3,0.5-1,0.5s-1-0.4-1-0.5
					c-0.1-0.2-0.3-0.2-0.4-0.1c-0.2,0.1-0.2,0.3-0.1,0.4c0,0,0.4,0.8,1.6,0.8c1.1,0,1.5-0.8,1.6-0.8c0.1-0.2,0-0.3-0.1-0.4
					C90.1-388.4,90-388.5,90-388.5"/>
			</g>
		</g>
	</g>
</g>
<g id="top">
</g>
<g id="tap">
</g>
<path fill="#3B88C3" d="M271.8,227.9H43.3c-7.7,0-14-6.3-14-14V83.5c0-7.7,6.3-14,14-14h228.5c7.7,0,14,6.3,14,14v130.4
	C285.8,221.6,279.5,227.9,271.8,227.9z"/>
<g>
	<path fill="#FFFFFF" d="M65.7,97.9h-5.1v17.4h5.1v3H51.6v-3h5.1V97.9h-5.1v-3h14.1V97.9z"/>
	<path fill="#FFFFFF" d="M108,102.6c1.5-1.8,3.5-2.7,5.6-2.7c3.4,0,5,2,5,5.3v13.1h-3.8v-12.5c0-2.1-0.8-3-2.6-3
		c-1.7,0-3.2,1.3-4.2,2.7v12.9h-3.8V93.2l3.8-0.4V102.6z"/>
	<path fill="#FFFFFF" d="M145.6,116.2l-0.9,2.6c-1.7-0.2-3.1-0.9-3.7-2.5c-1.3,1.7-3.4,2.5-5.7,2.5c-3.7,0-5.9-2.2-5.9-5.6
		c0-3.7,3.1-5.9,8.5-5.9h2.5v-1.2c0-2.3-1.5-3.3-4-3.3c-1.2,0-3,0.3-4.8,0.9l-1-2.7c2.2-0.8,4.5-1.2,6.3-1.2c4.8,0,7.2,2.2,7.2,6v8
		C144.2,115.3,144.6,115.9,145.6,116.2z M140.5,113.7v-4h-2.1c-3.6,0-5,1.3-5,3.4c0,1.9,1,2.9,3,2.9
		C138,116,139.6,115.1,140.5,113.7z"/>
	<path fill="#FFFFFF" d="M166.2,118.3h-4.4l-6.4-18h4.1l4.5,14.8l4.6-14.8h3.9L166.2,118.3z"/>
	<path fill="#FFFFFF" d="M191.3,115.8c1.7,0,3.2-0.5,4.7-1.6l1.6,2.3c-1.7,1.4-4,2.2-6.5,2.2c-5.6,0-8.7-3.8-8.7-9.4
		c0-5.4,3.1-9.5,8.2-9.5c4.8,0,7.8,3.4,7.8,9c0,0.6,0,1.3-0.1,1.7h-11.9C186.6,114.3,188.7,115.8,191.3,115.8z M186.3,108h8.3
		c-0.1-3.4-1.5-5.3-4-5.3C188.3,102.7,186.6,104.4,186.3,108z"/>
	<path fill="#FFFFFF" d="M66.5,157l-0.9,2.6c-1.7-0.2-3.1-0.9-3.7-2.5c-1.3,1.7-3.4,2.5-5.7,2.5c-3.7,0-5.9-2.2-5.9-5.6
		c0-3.7,3.1-5.9,8.5-5.9h2.5V147c0-2.3-1.5-3.3-4-3.3c-1.2,0-3,0.3-4.8,0.9l-1-2.7c2.2-0.8,4.5-1.2,6.3-1.2c4.8,0,7.2,2.2,7.2,6v8
		C65.2,156.1,65.6,156.7,66.5,157z M61.4,154.5v-4h-2.1c-3.6,0-5,1.3-5,3.4c0,1.9,1,2.9,3,2.9C58.9,156.8,60.5,155.9,61.4,154.5z"/>
	<path fill="#FFFFFF" d="M117.2,154.9l1.7,2.4c-1.6,1.3-3.9,2.2-6.3,2.2c-5.5,0-8.7-3.7-8.7-9.3c0-5.5,3.3-9.6,8.8-9.6
		c2.4,0,4.5,0.7,6.2,2.2l-1.8,2.4c-1.4-1-2.9-1.5-4.4-1.5c-2.9,0-4.8,2-4.8,6.5s2,6.2,4.8,6.2C114.5,156.4,115.9,155.8,117.2,154.9z
		"/>
	<path fill="#FFFFFF" d="M145.9,141.2l-0.6,6.6h-2.7v-3.7c-2.5,0.1-4.4,2.1-5.4,5.6v6.7h3.6v2.7h-10.1v-2.7h2.7v-12.5h-2.7v-2.7h5.5
		l0.7,4.1c1.4-3,3.2-4.6,6.3-4.6C144.3,140.7,145.1,140.9,145.9,141.2z"/>
	<path fill="#FFFFFF" d="M160.7,153.7c0,2.1,0.8,3,2.5,3s3.3-1.1,4.2-2.5v-13h3.8v18h-3.3l-0.2-2.3c-1.3,1.8-3.5,2.8-5.6,2.8
		c-3.5,0-5.2-2-5.2-5.4v-13h3.8V153.7z"/>
	<path fill="#FFFFFF" d="M193.6,154.3c0-1.5-0.6-2.1-4.3-3.1c-3.6-0.9-5.9-2.2-5.9-5.3s2.8-5.2,7.2-5.2c3,0,5.2,0.9,6.8,2.1
		l-1.6,2.4c-1.4-0.9-3-1.6-5.1-1.6c-2.4,0-3.4,0.8-3.4,2c0,1.4,1,1.9,4.6,2.9c3.5,1,5.8,2.2,5.8,5.6c0,3.9-3.8,5.6-7.9,5.6
		c-3.3,0-5.7-1.1-7.4-2.5l2-2.3c1.4,1.1,3.3,1.9,5.4,1.9C192.1,156.7,193.6,155.8,193.6,154.3z"/>
	<path fill="#FFFFFF" d="M213.4,143.4c1.5-1.8,3.5-2.7,5.6-2.7c3.4,0,5,2,5,5.3v13.1h-3.8v-12.5c0-2.1-0.8-3-2.6-3
		c-1.7,0-3.2,1.3-4.2,2.7v12.9h-3.8V134l3.8-0.4V143.4z"/>
	<path fill="#FFFFFF" d="M66.7,190.9c0,5.7-2.9,9.5-8.1,9.5s-8.1-3.6-8.1-9.4c0-5.6,2.9-9.5,8.2-9.5S66.7,185.2,66.7,190.9z
		 M54.5,191c0,4.5,1.4,6.5,4.1,6.5c2.8,0,4.1-2,4.1-6.5c0-4.4-1.4-6.5-4.1-6.5S54.5,186.5,54.5,191z"/>
	<path fill="#FFFFFF" d="M77.8,182h3.3l0.3,2.3c1.5-1.8,3.6-2.8,5.8-2.8c3.3,0,5,2,5,5.3v13.1h-3.8v-11.2c0-3.1-0.4-4.3-2.5-4.3
		c-1.8,0-3.3,1.3-4.2,2.6v12.9h-3.8L77.8,182L77.8,182z"/>
	<path fill="#FFFFFF" d="M140,200c-1.4,4.1-3.8,6.8-8.8,7.3l-0.5-2.9c3.6-0.6,4.8-1.9,5.7-4.5h-1.3l-6.1-18h4l4.5,15.3l4.6-15.3h3.9
		L140,200z"/>
	<path fill="#FFFFFF" d="M172.1,190.9c0,5.7-2.9,9.5-8.1,9.5c-5.2,0-8.1-3.6-8.1-9.4c0-5.6,2.9-9.5,8.2-9.5S172.1,185.2,172.1,190.9
		z M159.9,191c0,4.5,1.4,6.5,4.1,6.5c2.8,0,4.1-2,4.1-6.5c0-4.4-1.4-6.5-4.1-6.5C161.3,184.5,159.9,186.5,159.9,191z"/>
	<path fill="#FFFFFF" d="M187,194.5c0,2.1,0.8,3,2.5,3s3.3-1.1,4.2-2.5v-13h3.8v18h-3.3l-0.2-2.3c-1.3,1.8-3.5,2.8-5.6,2.8
		c-3.5,0-5.2-2-5.2-5.4v-13h3.8V194.5z"/>
</g>
<g>
	<text transform="matrix(1 0 0 1 40.8616 393.725)"><tspan x="0" y="0" fill="#FFFFFF" font-family="'FiraMono-Medium'" font-size="21.6">WRITE THE MESSAGE </tspan><tspan x="6.5" y="25.9" fill="#FFFFFF" font-family="'FiraMono-Medium'" font-size="21.6">YOU WANT TO TURN </tspan><tspan x="45.4" y="51.8" fill="#FFFFFF" font-family="'FiraMono-Medium'" font-size="21.6">INTO EMOJIS</tspan></text>
</g>
</svg>
