<?xml version="1.0" encoding="utf-8"?>
<!-- Generator: Adobe Illustrator 18.0.0, SVG Export Plug-In . SVG Version: 6.00 Build 0)  -->
<!DOCTYPE svg PUBLIC "-//W3C//DTD SVG 1.1//EN" "http://www.w3.org/Graphics/SVG/1.1/DTD/svg11.dtd">
<svg version="1.1" xmlns="http://www.w3.org/2000/svg" xmlns:xlink="http://www.w3.org/1999/xlink" x="0px" y="0px"
	 viewBox="0 0 315 560.1" enable-background="new 0 0 315 560.1" xml:space="preserve">
<g id="back">
</g>
<g id="notes">
</g>
<g id="input">
</g>
<g id="landing_pages">
</g>
<g id="onboarding">
</g>
<g id="top">
</g>
<g id="tap">
	<g>
		<polyline fill="#283344" points="0.5,560.1 0.5,0.1 314.6,0.1 314.6,560.1 		"/>
		<path fill="#3B88C3" d="M271.8,227.9H43.3c-7.7,0-14-6.3-14-14V83.5c0-7.7,6.3-14,14-14h228.5c7.7,0,14,6.3,14,14v130.4
			C285.8,221.6,279.5,227.9,271.8,227.9z"/>
		<g>
			<path fill="#FFFFFF" d="M65.7,97.9h-5.1v17.4h5.1v3H51.6v-3h5.1V97.9h-5.1v-3h14.1V97.9z"/>
			<path fill="#FFFFFF" d="M108,102.6c1.5-1.8,3.5-2.7,5.6-2.7c3.4,0,5,2,5,5.3v13.1h-3.8v-12.5c0-2.1-0.8-3-2.6-3
				c-1.7,0-3.2,1.3-4.2,2.7v12.9h-3.8V93.2l3.8-0.4V102.6z"/>
			<path fill="#FFFFFF" d="M145.6,116.2l-0.9,2.6c-1.7-0.2-3.1-0.9-3.7-2.5c-1.3,1.7-3.4,2.5-5.7,2.5c-3.7,0-5.9-2.2-5.9-5.6
				c0-3.7,3.1-5.9,8.5-5.9h2.5v-1.2c0-2.3-1.5-3.3-4-3.3c-1.2,0-3,0.3-4.8,0.9l-1-2.7c2.2-0.8,4.5-1.2,6.3-1.2c4.8,0,7.2,2.2,7.2,6
				v8C144.2,115.3,144.6,115.9,145.6,116.2z M140.5,113.7v-4h-2.1c-3.6,0-5,1.3-5,3.4c0,1.9,1,2.9,3,2.9
				C138,116,139.6,115.1,140.5,113.7z"/>
			<path fill="#FFFFFF" d="M166.2,118.3h-4.4l-6.4-18h4.1l4.5,14.8l4.6-14.8h3.9L166.2,118.3z"/>
			<path fill="#FFFFFF" d="M191.3,115.8c1.7,0,3.2-0.5,4.7-1.6l1.6,2.3c-1.7,1.4-4,2.2-6.5,2.2c-5.6,0-8.7-3.8-8.7-9.4
				c0-5.4,3.1-9.5,8.2-9.5c4.8,0,7.8,3.4,7.8,9c0,0.6,0,1.3-0.1,1.7h-11.9C186.6,114.3,188.7,115.8,191.3,115.8z M186.3,108h8.3
				c-0.1-3.4-1.5-5.3-4-5.3C188.3,102.7,186.6,104.4,186.3,108z"/>
			<path fill="#FFFFFF" d="M66.5,157l-0.9,2.6c-1.7-0.2-3.1-0.9-3.7-2.5c-1.3,1.7-3.4,2.5-5.7,2.5c-3.7,0-5.9-2.2-5.9-5.6
				c0-3.7,3.1-5.9,8.5-5.9h2.5V147c0-2.3-1.5-3.3-4-3.3c-1.2,0-3,0.3-4.8,0.9l-1-2.7c2.2-0.8,4.5-1.2,6.3-1.2c4.8,0,7.2,2.2,7.2,6v8
				C65.2,156.1,65.6,156.7,66.5,157z M61.4,154.5v-4h-2.1c-3.6,0-5,1.3-5,3.4c0,1.9,1,2.9,3,2.9C58.9,156.8,60.5,155.9,61.4,154.5z"
				/>
			<path fill="#FFFFFF" d="M117.2,154.9l1.7,2.4c-1.6,1.3-3.9,2.2-6.3,2.2c-5.5,0-8.7-3.7-8.7-9.3c0-5.5,3.3-9.6,8.8-9.6
				c2.4,0,4.5,0.7,6.2,2.2l-1.8,2.4c-1.4-1-2.9-1.5-4.4-1.5c-2.9,0-4.8,2-4.8,6.5s2,6.2,4.8,6.2
				C114.5,156.4,115.9,155.8,117.2,154.9z"/>
			<path fill="#FFFFFF" d="M145.9,141.2l-0.6,6.6h-2.7v-3.7c-2.5,0.1-4.4,2.1-5.4,5.6v6.7h3.6v2.7h-10.1v-2.7h2.7v-12.5h-2.7v-2.7
				h5.5l0.7,4.1c1.4-3,3.2-4.6,6.3-4.6C144.3,140.7,145.1,140.9,145.9,141.2z"/>
			<path fill="#FFFFFF" d="M160.7,153.7c0,2.1,0.8,3,2.5,3c1.7,0,3.3-1.1,4.2-2.5v-13h3.8v18h-3.3l-0.2-2.3
				c-1.3,1.8-3.5,2.8-5.6,2.8c-3.5,0-5.2-2-5.2-5.4v-13h3.8V153.7z"/>
			<path fill="#FFFFFF" d="M193.6,154.3c0-1.5-0.6-2.1-4.3-3.1c-3.6-0.9-5.9-2.2-5.9-5.3c0-3.1,2.8-5.2,7.2-5.2c3,0,5.2,0.9,6.8,2.1
				l-1.6,2.4c-1.4-0.9-3-1.6-5.1-1.6c-2.4,0-3.4,0.8-3.4,2c0,1.4,1,1.9,4.6,2.9c3.5,1,5.8,2.2,5.8,5.6c0,3.9-3.8,5.6-7.9,5.6
				c-3.3,0-5.7-1.1-7.4-2.5l2-2.3c1.4,1.1,3.3,1.9,5.4,1.9C192.1,156.7,193.6,155.8,193.6,154.3z"/>
			<path fill="#FFFFFF" d="M213.4,143.4c1.5-1.8,3.5-2.7,5.6-2.7c3.4,0,5,2,5,5.3v13.1h-3.8v-12.5c0-2.1-0.8-3-2.6-3
				c-1.7,0-3.2,1.3-4.2,2.7v12.9h-3.8V134l3.8-0.4V143.4z"/>
			<path fill="#FFFFFF" d="M66.7,190.9c0,5.7-2.9,9.5-8.1,9.5c-5.2,0-8.1-3.6-8.1-9.4c0-5.6,2.9-9.5,8.2-9.5S66.7,185.2,66.7,190.9z
				 M54.5,191c0,4.5,1.4,6.5,4.1,6.5c2.8,0,4.1-2,4.1-6.5c0-4.4-1.4-6.5-4.1-6.5C55.9,184.5,54.5,186.5,54.5,191z"/>
			<path fill="#FFFFFF" d="M77.8,182h3.3l0.3,2.3c1.5-1.8,3.6-2.8,5.8-2.8c3.3,0,5,2,5,5.3v13.1h-3.8v-11.2c0-3.1-0.4-4.3-2.5-4.3
				c-1.8,0-3.3,1.3-4.2,2.6v12.9h-3.8V182z"/>
			<path fill="#FFFFFF" d="M140,200c-1.4,4.1-3.8,6.8-8.8,7.3l-0.5-2.9c3.6-0.6,4.8-1.9,5.7-4.5h-1.3l-6.1-18h4l4.5,15.3l4.6-15.3
				h3.9L140,200z"/>
			<path fill="#FFFFFF" d="M172.1,190.9c0,5.7-2.9,9.5-8.1,9.5c-5.2,0-8.1-3.6-8.1-9.4c0-5.6,2.9-9.5,8.2-9.5
				S172.1,185.2,172.1,190.9z M159.9,191c0,4.5,1.4,6.5,4.1,6.5c2.8,0,4.1-2,4.1-6.5c0-4.4-1.4-6.5-4.1-6.5
				C161.3,184.5,159.9,186.5,159.9,191z"/>
			<path fill="#FFFFFF" d="M187,194.5c0,2.1,0.8,3,2.5,3c1.7,0,3.3-1.1,4.2-2.5v-13h3.8v18h-3.3l-0.2-2.3c-1.3,1.8-3.5,2.8-5.6,2.8
				c-3.5,0-5.2-2-5.2-5.4v-13h3.8V194.5z"/>
		</g>
		<g>
			<path fill="#FFFFFF" d="M67.1,418.2h-1.7v4.9h-2.3v-13.8h3.8c3.5,0,5.5,1.4,5.5,4.3C72.5,416.9,70.3,418.2,67.1,418.2z M67.1,411
				h-1.7v5.4h1.7c1.7,0,2.9-0.7,2.9-2.8C70.1,411.8,68.9,411,67.1,411z"/>
			<path fill="#FFFFFF" d="M84.4,411.1h-3v10.3h3v1.8H76v-1.8h3v-10.3h-3v-1.8h8.3V411.1z"/>
			<path fill="#FFFFFF" d="M98.5,410.4l-1.2,1.4c-0.8-0.7-1.8-1-2.9-1c-2.1,0-3.8,1.4-3.8,5.3c0,3.8,1.6,5.3,3.8,5.3
				c1.5,0,2.4-0.6,3.1-1.2l1.1,1.4c-0.9,0.9-2.3,1.6-4.3,1.6c-3.5,0-6.2-2.5-6.2-7.2c0-4.6,2.8-7.2,6.1-7.2
				C96.2,409,97.4,409.5,98.5,410.4z"/>
			<path fill="#FFFFFF" d="M102,423.1v-13.8h2.3v13.8H102z M109.2,409.3h2.6l-4.8,6.3l5.2,7.5h-2.8l-4.9-7.4L109.2,409.3z"/>
			<path fill="#FFFFFF" d="M132.2,423.4c-3.5,0-5.2-2.8-5.2-7.1c0-4.3,1.8-7.2,5.2-7.2c3.5,0,5.2,2.8,5.2,7.2
				C137.4,420.5,135.7,423.4,132.2,423.4z M132.2,410.8c-2,0-2.9,1.8-2.9,5.4c0,3.6,0.9,5.3,2.9,5.3c2,0,2.9-1.8,2.9-5.4
				S134.2,410.8,132.2,410.8z"/>
			<path fill="#FFFFFF" d="M142.4,411.4c0.1,0.8,0.3,3.2,0.3,5.5v6.3h-2.1v-13.8h3L148,421c-0.1-0.8-0.3-3-0.3-5.5v-6.3h2.1v13.8h-3
				L142.4,411.4z"/>
			<path fill="#FFFFFF" d="M156.8,415.2h5v1.7h-5v4.4h6.1v1.8h-8.4v-13.8h8.3l-0.3,1.8h-5.7V415.2z"/>
			<path fill="#FFFFFF" d="M180,423.1v-13.8h2.3v13.8H180z M187.2,409.3h2.6l-4.8,6.3l5.2,7.5h-2.8l-4.9-7.4L187.2,409.3z"/>
			<path fill="#FFFFFF" d="M195.8,415.2h5v1.7h-5v4.4h6.1v1.8h-8.4v-13.8h8.3l-0.3,1.8h-5.7V415.2z"/>
			<path fill="#FFFFFF" d="M211.4,423.1H209v-5.3l-4.6-8.5h2.6l3.3,6.5l3.3-6.5h2.4l-4.6,8.5V423.1z"/>
			<path fill="#FFFFFF" d="M237.3,423.1H235v-11.9h-4.2v-1.9h10.7l-0.2,1.9h-4V423.1z"/>
			<path fill="#FFFFFF" d="M249.2,423.4c-3.5,0-5.2-2.8-5.2-7.1c0-4.3,1.8-7.2,5.2-7.2c3.5,0,5.2,2.8,5.2,7.2
				C254.4,420.5,252.7,423.4,249.2,423.4z M249.2,410.8c-2,0-2.9,1.8-2.9,5.4c0,3.6,0.9,5.3,2.9,5.3c2,0,2.9-1.8,2.9-5.4
				S251.2,410.8,249.2,410.8z"/>
			<path fill="#FFFFFF" d="M47.4,447.4c-2.2,0-3.9-0.7-5.1-1.8l1.3-1.4c1,0.9,2.2,1.4,3.8,1.4c1.6,0,2.9-0.7,2.9-2.2
				c0-1.2-0.6-1.8-2.8-2.5c-2.9-0.9-4.5-2-4.5-4.1c0-2.3,2-3.7,4.7-3.7c2,0,3.4,0.6,4.6,1.7l-1.2,1.4c-1-0.8-2.1-1.2-3.3-1.2
				c-1.4,0-2.5,0.6-2.5,1.8c0,1.1,0.8,1.6,3.2,2.3c2.3,0.7,4.1,1.7,4.1,4.3C52.7,445.7,50.7,447.4,47.4,447.4z"/>
			<path fill="#FFFFFF" d="M66,434.4l-1.2,1.4c-0.8-0.7-1.8-1-2.9-1c-2.1,0-3.8,1.4-3.8,5.3c0,3.8,1.6,5.3,3.8,5.3
				c1.5,0,2.4-0.6,3.1-1.2l1.1,1.4c-0.9,0.9-2.3,1.6-4.3,1.6c-3.5,0-6.2-2.5-6.2-7.2c0-4.6,2.8-7.2,6.1-7.2
				C63.7,433,64.9,433.5,66,434.4z"/>
			<path fill="#FFFFFF" d="M75.5,441.1l3.9,6h-2.7l-3.5-5.7h-1.5v5.7h-2.3v-13.8h3.8c3.5,0,5.4,1.3,5.4,4
				C78.6,439.3,77.3,440.6,75.5,441.1z M73.4,435h-1.7v4.7h1.7c1.8,0,2.8-0.7,2.8-2.4C76.2,435.7,75.3,435,73.4,435z"/>
			<path fill="#FFFFFF" d="M84.2,443.8l-1,3.3h-2.4l4.4-13.8h2.9l4.4,13.8h-2.5l-1-3.3H84.2z M88.6,442l-2-6.9l-2,6.9H88.6z"/>
			<path fill="#FFFFFF" d="M105.2,447.1h-2.1l-0.3-6.7c-0.1-2-0.1-3.9,0-5l-2,9.3h-2l-2.2-9.3c0.1,1.1,0.1,3.1,0.1,5.1l-0.3,6.7
				h-2.1l0.8-13.8h2.8l2,9.2l1.9-9.2h2.8L105.2,447.1z"/>
			<path fill="#FFFFFF" d="M112.4,447.1h-4v-13.8h3.8c2.6,0,5,0.8,5,3.5c0,1.7-1.2,2.7-2.6,3c1.5,0.3,3.2,1.1,3.2,3.3
				C117.7,446.2,115.1,447.1,112.4,447.1z M112.3,435h-1.7v4h1.8c1.5,0,2.3-0.6,2.3-2C114.8,435.6,113.9,435,112.3,435z
				 M112.6,440.8h-2v4.5h1.9c1.3,0,2.8-0.3,2.8-2.2C115.3,441.3,114.1,440.8,112.6,440.8z"/>
			<path fill="#FFFFFF" d="M122.1,433.3h2.3v11.9h6.2l-0.3,1.9h-8.2V433.3z"/>
			<path fill="#FFFFFF" d="M137.3,439.2h5v1.7h-5v4.4h6.1v1.8H135v-13.8h8.3l-0.3,1.8h-5.7V439.2z"/>
			<path fill="#FFFFFF" d="M165.9,447.1h-2.3v-5.3l-4.6-8.5h2.6l3.3,6.5l3.3-6.5h2.4l-4.6,8.5V447.1z"/>
			<path fill="#FFFFFF" d="M177.7,447.4c-3.5,0-5.2-2.8-5.2-7.1c0-4.3,1.8-7.2,5.2-7.2c3.5,0,5.2,2.8,5.2,7.2
				C182.9,444.5,181.2,447.4,177.7,447.4z M177.7,434.8c-2,0-2.9,1.8-2.9,5.4c0,3.6,0.9,5.3,2.9,5.3c2,0,2.9-1.8,2.9-5.4
				S179.7,434.8,177.7,434.8z"/>
			<path fill="#FFFFFF" d="M195.5,442.6c0,2.8-1.8,4.8-4.8,4.8c-3.1,0-4.8-1.9-4.8-4.8v-9.3h2.3v8.8c0,2.3,0.7,3.4,2.4,3.4
				c1.7,0,2.5-1.1,2.5-3.4v-8.8h2.3V442.6z"/>
			<path fill="#FFFFFF" d="M205.5,441.1l3.9,6h-2.7l-3.5-5.7h-1.5v5.7h-2.3v-13.8h3.8c3.5,0,5.4,1.3,5.4,4
				C208.6,439.3,207.3,440.6,205.5,441.1z M203.4,435h-1.7v4.7h1.7c1.8,0,2.8-0.7,2.8-2.4C206.2,435.7,205.3,435,203.4,435z"/>
			<path fill="#FFFFFF" d="M230.8,447.1h-2.3v-11.9h-4.2v-1.9h10.7l-0.2,1.9h-4V447.1z"/>
			<path fill="#FFFFFF" d="M241.3,439.2h5v1.7h-5v4.4h6.1v1.8H239v-13.8h8.3l-0.3,1.8h-5.7V439.2z"/>
			<path fill="#FFFFFF" d="M253,433.3l2.7,5l2.7-5h2.5l-3.8,6.3l4.3,7.5h-2.6l-3.1-5.9l-3.1,5.9h-2.5l4.2-7.3l-3.8-6.5H253z"/>
			<path fill="#FFFFFF" d="M269.8,447.1h-2.3v-11.9h-4.2v-1.9h10.7l-0.2,1.9h-4V447.1z"/>
		</g>
		<g opacity="0.2">
			<circle fill="#FFFFFF" cx="118.2" cy="506.9" r="6.8"/>
		</g>
		<g opacity="0.2">
			<circle fill="#FFFFFF" cx="92.2" cy="506.9" r="6.8"/>
		</g>
		<g opacity="0.2">
			<circle fill="#FFFFFF" cx="144.8" cy="506.9" r="6.8"/>
		</g>
		<g opacity="0.2">
			<circle fill="#FFFFFF" cx="171.3" cy="506.9" r="6.8"/>
		</g>
		<g opacity="0.2">
			<circle fill="#FFFFFF" cx="197.6" cy="506.9" r="6.8"/>
		</g>
		<g opacity="0.2">
			<circle fill="#FFFFFF" cx="224.6" cy="506.9" r="6.8"/>
		</g>
		<rect x="0" y="0" fill="#FFFFFF" width="315" height="42"/>
		<g>
			<g>
				<path fill="#005189" d="M105.7,22.9l4.7,7.3h-3.3l-4.2-6.9h-1.8v6.9h-2.8V13.4h4.6c4.3,0,6.5,1.6,6.5,4.8
					C109.4,20.7,107.8,22.2,105.7,22.9z M103.1,15.5h-2v5.7h2.1c2.1,0,3.3-0.8,3.3-2.9C106.5,16.3,105.4,15.5,103.1,15.5z"/>
			</g>
			<g>
				<path fill="#005189" d="M134.8,24.2h-2v5.9H130V13.4h4.6c4.2,0,6.7,1.7,6.7,5.2C141.3,22.6,138.6,24.2,134.8,24.2z M134.8,15.5
					h-2V22h2.1c2.1,0,3.6-0.8,3.6-3.4C138.4,16.4,136.9,15.5,134.8,15.5z"/>
			</g>
			<g>
				<path fill="#005189" d="M152.1,30.1h-2.8V15.7h-5v-2.3h12.9l-0.3,2.3h-4.8V30.1z"/>
			</g>
			<g>
				<path fill="#005189" d="M179.1,13.4h2.8v14.3h7.5l-0.3,2.3h-10V13.4z"/>
			</g>
			<g>
				<path fill="#005189" d="M219,24.1c0,3.2-1.7,6-6.1,6c-1.8,0-3.4-0.6-4.7-1.5l1.1-1.8c1.3,0.8,2.4,1.1,3.5,1.1
					c2.1,0,3.4-1.4,3.4-3.9v-8.8h-5v-2.2h7.8V24.1z"/>
			</g>
			<g>
				<path fill="#005189" d="M120.7,30.1h-2.8v-6.4l-5.6-10.3h3.1l3.9,7.9l4-7.9h3l-5.6,10.3V30.1z"/>
			</g>
			<g>
				<path fill="#5C913B" d="M94.1,26.4l-4.7-4.8l4.8-4.7l0.6-0.6l0.7-0.7c-0.4-0.4-0.8-0.7-1.2-1c-3.9-2.7-9.2-1.7-11.8,2.1
					c-2.7,3.9-1.7,9.2,2.1,11.8c3.4,2.4,8,1.9,10.8-0.9L94.6,27L94.1,26.4z"/>
				<path fill="#FFE8B6" d="M89.3,21.6l4.8-4.7l0.6-0.6c-0.3-0.3-0.7-0.6-1.1-0.9c-3.4-2.4-8.2-1.5-10.5,1.9
					c-2.4,3.4-1.5,8.2,1.9,10.5c3,2.1,7.1,1.7,9.6-0.8l-0.6-0.6L89.3,21.6z"/>
				<g>
					<g>
						<path fill="#DD2E44" d="M94.1,16.9c-0.3-0.3-0.6-0.6-0.9-0.8c-3.1-2.1-7.3-1.4-9.4,1.7c-2.1,3.1-1.4,7.3,1.7,9.4
							c2.7,1.9,6.3,1.5,8.6-0.7l-4.7-4.8L94.1,16.9z"/>
					</g>
					<g>
						<g id="watermelon_c_6_" transform="matrix(1.25,0,0,-1.25,0,47.5)">
							<g id="g12_40_">
								<g>
									<g id="g14_40_">
										<g id="g32_18_" transform="translate(10.916,22.7227)">
											<path id="path34_18_" d="M57.5-0.3c-0.2-0.1-0.4-0.1-0.4,0c0,0.1,0.1,0.2,0.3,0.3c0.2,0.1,0.4,0.1,0.4,0
												C57.8,0,57.7-0.2,57.5-0.3"/>
										</g>
										<g id="g36_16_" transform="translate(16.916,21.7227)">
											<path id="path38_16_" d="M53.2-0.9c-0.2-0.1-0.4-0.1-0.4,0c0,0.1,0.1,0.2,0.3,0.3c0.2,0.1,0.4,0.1,0.4,0
												C53.5-0.7,53.4-0.8,53.2-0.9"/>
										</g>
										<g id="g40_12_" transform="translate(21.998,17.0449)">
											<path id="path42_12_" d="M48.7,1.2C48.6,1,48.4,0.9,48.3,1c-0.1,0.1-0.1,0.2,0,0.4c0.1,0.2,0.3,0.3,0.4,0.2
												C48.8,1.6,48.8,1.4,48.7,1.2"/>
										</g>
										<g id="g44_4_" transform="translate(12.998,19.0449)">
											<path id="path46_4_" d="M55.3,1.8c-0.1-0.2-0.3-0.3-0.4-0.2c-0.1,0.1-0.1,0.2,0,0.4c0.1,0.2,0.3,0.3,0.4,0.2
												C55.4,2.2,55.4,2,55.3,1.8"/>
										</g>
										<g id="g48_4_" transform="translate(16.8994,13.6992)">
											<path id="path50_4_" d="M51.4,4.6c-0.2-0.1-0.4,0-0.4,0.1c0,0.1,0.1,0.2,0.3,0.3c0.2,0.1,0.4,0,0.4-0.1
												C51.8,4.8,51.6,4.7,51.4,4.6"/>
										</g>
										<g id="g52_6_" transform="translate(24.9355,13.2451)">
											<path id="path54_6_" d="M45.8,3.2c0-0.2-0.1-0.4-0.2-0.4c-0.1,0-0.2,0.2-0.2,0.4c0,0.2,0.1,0.4,0.2,0.4
												C45.8,3.6,45.8,3.4,45.8,3.2"/>
										</g>
										<g id="g56_3_" transform="translate(17.918,18.2734)">
											<path id="path58_3_" d="M51.7,1.3c0-0.2-0.1-0.4-0.2-0.4c-0.1,0-0.2,0.2-0.2,0.4c0,0.2,0.1,0.4,0.2,0.4
												C51.7,1.7,51.7,1.5,51.7,1.3"/>
										</g>
										<g id="g60_9_" transform="translate(26.8994,16.6992)">
											<path id="path62_6_" d="M45.2,0.4c-0.2-0.1-0.4,0-0.4,0.1s0.1,0.2,0.3,0.3c0.2,0.1,0.4,0,0.4-0.1
												C45.6,0.6,45.4,0.4,45.2,0.4"/>
										</g>
									</g>
								</g>
							</g>
						</g>
						<g id="watermelon_c_5_" transform="matrix(1.25,0,0,-1.25,0,47.5)">
							<g id="g12_39_">
								<g>
									<g id="g14_39_">
										<g id="g40_11_" transform="translate(21.998,17.0449)">
											<path id="path42_11_" d="M50.1,5.7C50.2,5.9,50.4,6,50.5,6c0.1-0.1,0.1-0.2,0-0.4c-0.1-0.2-0.3-0.3-0.4-0.2
												C50,5.4,50,5.6,50.1,5.7"/>
										</g>
										<g id="g52_5_" transform="translate(24.9355,13.2451)">
											<path id="path54_5_" d="M47.1,11.4c0,0.2,0.1,0.4,0.2,0.4c0.1,0,0.2-0.2,0.2-0.4c0-0.2-0.1-0.4-0.2-0.4
												C47.1,11,47.1,11.2,47.1,11.4"/>
										</g>
										<g id="g60_8_" transform="translate(26.8994,16.6992)">
											<path id="path62_5_" d="M43.8,7.3c0.2,0.1,0.4,0,0.4-0.1c0-0.1-0.1-0.2-0.3-0.3c-0.2-0.1-0.4,0-0.4,0.1
												C43.4,7.1,43.6,7.2,43.8,7.3"/>
										</g>
									</g>
								</g>
							</g>
						</g>
					</g>
				</g>
			</g>
			<g id="g12_38_">
				<g>
					<g id="g14_38_">
						<g id="g20_34_" transform="translate(3.9995,17.5)">
							<path id="path22_34_" fill="#F4900C" d="M156,4.7c0-4.3,3.5-7.8,7.8-7.8s7.8,3.5,7.8,7.8c0,4.3-3.5,7.8-7.8,7.8
								S156,9.1,156,4.7"/>
						</g>
						<g id="g24_25_" transform="translate(12.4136,29.4146)">
							<path id="path26_25_" fill="#662113" d="M151.6-12.8c-0.1-0.1-0.4-0.1-0.6,0.1c-1.6-1.3-4.1-1.7-4.2-1.8
								c-0.3,0-0.5,0.1-0.5,0.4c0,0.3,0.1,0.5,0.4,0.5c0,0,2.3,0.4,3.7,1.5c-0.1,0.2-0.2,0.5,0,0.6c0.2,0.2,0.6,0,1-0.3
								S151.8-12.6,151.6-12.8"/>
						</g>
						<g id="g28_34_" transform="translate(22,36.0005)">
							<path id="path30_25_" fill="#5C913B" d="M146.5-22.5c0,0-1.5,2-3.3,2.5c-1.4,0.3-3.3,0.4-3.5-0.1c-0.2-0.4,0.7-1.9,2.4-2.6
								C143.7-23.3,146.5-22.5,146.5-22.5"/>
						</g>
					</g>
				</g>
			</g>
			<g id="orange_o_3_" transform="matrix(1.25,0,0,-1.25,0,47.5)">
				<g id="g12_37_">
					<g>
						<g id="g14_37_">
							<g id="g20_33_" transform="translate(3.9995,17.5)">
								<path id="path22_33_" fill="#F4900C" d="M149,2.7c0,3.5,2.8,6.3,6.3,6.3s6.3-2.8,6.3-6.3c0-3.5-2.8-6.3-6.3-6.3
									S149-0.8,149,2.7"/>
							</g>
							<g id="g24_24_" transform="translate(12.4136,29.4146)">
								<path id="path26_24_" fill="#662113" d="M143.8-4.7c-0.1,0.1-0.3,0.1-0.5,0c-1.3,1-3.3,1.4-3.4,1.4c-0.2,0-0.4-0.1-0.4-0.3
									c0-0.2,0.1-0.4,0.3-0.4c0,0,1.9-0.3,3-1.2c-0.1-0.2-0.1-0.4,0-0.5c0.1-0.1,0.5,0,0.8,0.3S143.9-4.8,143.8-4.7"/>
							</g>
							<g id="g28_33_" transform="translate(22,36.0005)">
								<path id="path30_24_" fill="#5C913B" d="M137.8-8.8c0,0-1.2-1.6-2.7-2c-1.1-0.3-2.6-0.3-2.8,0c-0.1,0.3,0.6,1.5,1.9,2
									C135.5-8.1,137.8-8.8,137.8-8.8"/>
							</g>
						</g>
					</g>
				</g>
			</g>
			<g id="g10_26_" transform="matrix(1.25,0,0,-1.25,0,47.5)">
				<g id="g12_36_">
					<g>
						<g id="g14_36_">
							<g id="g20_32_" transform="translate(25,31)">
								<path id="path22_32_" fill="#CCD6DD" d="M159.1-5.8c0-1.3-1-2.3-2.3-2.3c-1.3,0-2.3,1-2.3,2.3c0,1.3,1,2.3,2.3,2.3
									C158.1-3.5,159.1-4.5,159.1-5.8"/>
							</g>
							<path id="path24_3_" fill="#CCD6DD" d="M184.5,15h-5.3V23h5.3V15z"/>
						</g>
					</g>
				</g>
				<g id="g26_3_">
					<g>
						<defs>
							<rect id="SVGID_181_" x="178.5" y="14" width="6.6" height="9.9"/>
						</defs>
						<clipPath id="SVGID_2_">
							<use xlink:href="#SVGID_181_"  overflow="visible"/>
						</clipPath>
						<g id="g28_32_" clip-path="url(#SVGID_2_)">
							<g id="g34_3_" transform="translate(34.1914,15.4902)">
								<path id="path36_3_" fill="#DD2E44" d="M153.4,3.9l-8.8,4.3l0.7,1.4l8.8-4.3L153.4,3.9z"/>
							</g>
							<g id="g38_3_" transform="translate(27.1758,1.1094)">
								<path id="path40_3_" fill="#DD2E44" d="M157.7,12.8l-8.8,4.3l0.7,1.4l8.8-4.3L157.7,12.8z"/>
							</g>
							<g id="g42_8_" transform="translate(32.4375,11.8945)">
								<path id="path44_3_" fill="#FFFFFF" d="M154.5,6.1l-8.8,4.3l0.7,1.4l8.8-4.3L154.5,6.1z"/>
							</g>
							<g id="g46_3_" transform="translate(28.9297,4.7051)">
								<path id="path48_3_" fill="#FFFFFF" d="M156.7,10.6l-8.8,4.3l0.7,1.4l8.8-4.3L156.7,10.6z"/>
							</g>
							<g id="g50_3_" transform="translate(25.4219,-2.4854)">
								<path id="path52_3_" fill="#FFFFFF" d="M158.8,15.1l-8.8,4.3l0.7,1.4l8.8-4.3L158.8,15.1z"/>
							</g>
							<g id="g54_8_" transform="translate(30.6836,8.2998)">
								<path id="path56_3_" fill="#55ACEE" d="M155.6,8.4l-8.8,4.3l0.7,1.4l8.8-4.3L155.6,8.4z"/>
							</g>
						</g>
					</g>
				</g>
				<g id="g58_3_">
					<g>
						<g id="g60_7_">
							<g id="g66_3_" transform="translate(28,26)">
								<path id="path68_3_" fill="#99AAB5" d="M157.2-2.7c0-0.4-0.3-0.8-0.8-0.8h-5.3c-0.4,0-0.8,0.3-0.8,0.8s0.3,0.8,0.8,0.8h5.3
									C156.9-1.9,157.2-2.2,157.2-2.7"/>
							</g>
							<g id="g70_3_" transform="translate(28,3)">
								<path id="path72_3_" fill="#99AAB5" d="M157.2,11.7c0-0.4-0.3-0.8-0.8-0.8h-5.3c-0.4,0-0.8,0.3-0.8,0.8s0.3,0.8,0.8,0.8h5.3
									C156.9,12.4,157.2,12.1,157.2,11.7"/>
							</g>
						</g>
					</g>
				</g>
			</g>
		</g>
		<g>
			<g id="g10_6_" transform="matrix(1.25,0,0,-1.25,0,47.5)">
				<g id="g12_5_">
					<g>
						<defs>
							<rect id="SVGID_183_" x="101" y="-231" width="50" height="50"/>
						</defs>
						<clipPath id="SVGID_4_">
							<use xlink:href="#SVGID_183_"  overflow="visible"/>
						</clipPath>
						<g id="g14_5_" clip-path="url(#SVGID_4_)">
							<g id="g20_6_" transform="translate(16.373,35.978)">
								<path id="path22_6_" fill="#5C913B" d="M106.9-224.2c-1.8-1.8-7-8.8-4.4-14.9c2.6-6.1,6.2-2.4,7.9,2.6
									c0.9,2.6,0.9,6.1-0.9,11.4C108.7-222.4,106.9-224.2,106.9-224.2"/>
							</g>
							<g id="g24_6_" transform="translate(35.6768,16.6738)">
								<path id="path26_6_" fill="#5C913B" d="M107.9-225.2c-1.8-1.8-8.8-7-14.9-4.4c-6.1,2.6-2.4,6.2,2.6,7.9
									c2.6,0.9,6.1,0.9,11.4-0.9C109.7-223.4,107.9-225.2,107.9-225.2"/>
							</g>
							<g id="g28_7_" transform="translate(33.3145,30.6826)">
								<path id="path30_7_" fill="#F4900C" d="M107.8-224.4c0,0-0.2,1.8-0.8,2.4c-0.5,0.6-2.1,0.6-2.1,0.6
									c-1.8,0-21.9-2.6-25.4-20.1c-0.6-3.1,0.1-4.9,0.9-6c0-0.1,0-0.1,0-0.1c0.1-0.1,0.3-0.3,0.5-0.4c0.2-0.2,0.3-0.3,0.4-0.4
									c0,0,0.1,0,0.1,0c1.1-0.8,3-1.7,6.2-1C105-246.2,107.8-226.2,107.8-224.4"/>
							</g>
						</g>
					</g>
				</g>
				<g id="g32_10_">
					<g>
						<defs>
							<path id="SVGID_185_" d="M112.8-210.9c-0.6-3.1,0.1-4.9,0.9-6l0,0c0-0.1,0-0.1,0-0.1l0,0c0.1-0.1,0.3-0.3,0.5-0.4l0,0
								c0.2-0.2,0.3-0.3,0.4-0.4l0,0c0,0,0.1,0,0.1,0l0,0c1.1-0.8,3-1.7,6.2-1l0,0c17.5,3.5,20.3,23.5,20.3,25.2l0,0
								c0,0-0.2,1.8-0.8,2.4l0,0c-0.5,0.6-2.1,0.6-2.1,0.6l0,0C136.4-190.8,116.3-193.4,112.8-210.9"/>
						</defs>
						<clipPath id="SVGID_6_">
							<use xlink:href="#SVGID_185_"  overflow="visible"/>
						</clipPath>
						<g id="g34_4_" clip-path="url(#SVGID_6_)">
							<g id="g40_54_" transform="translate(25.7686,26.5654)">
								<path id="path42_53_" fill="#F7B82D" d="M107.4-224.6c-0.5-0.5-1.2-0.5-1.7,0l-1.7,1.7c-0.5,0.5-0.5,1.2,0,1.7
									c0.5,0.5,1.2,0.5,1.7,0l1.7-1.7C107.9-223.4,107.9-224.2,107.4-224.6"/>
							</g>
							<g id="g44_39_" transform="translate(17.6812,26.5654)">
								<path id="path46_39_" fill="#F7B82D" d="M107-224.6c-0.5-0.5-1.2-0.5-1.7,0l-1.7,1.7c-0.5,0.5-0.5,1.2,0,1.7
									c0.5,0.5,1.2,0.5,1.7,0l1.7-1.7C107.4-223.4,107.4-224.2,107-224.6"/>
							</g>
							<g id="g48_33_" transform="translate(20.1074,28.9922)">
								<path id="path50_33_" fill="#F7B82D" d="M107.1-224.5c-0.5-0.5-1.2-0.5-1.7,0l-1.7,1.7c-0.5,0.5-0.5,1.2,0,1.7
									c0.5,0.5,1.2,0.5,1.7,0l1.7-1.7C107.6-223.3,107.6-224.1,107.1-224.5"/>
							</g>
							<g id="g52_35_" transform="translate(15.2559,24.1392)">
								<path id="path54_34_" fill="#F7B82D" d="M106.8-224.8c-0.5-0.5-1.2-0.5-1.7,0l-1.7,1.7c-0.5,0.5-0.5,1.2,0,1.7
									c0.5,0.5,1.2,0.5,1.7,0l1.7-1.7C107.3-223.5,107.3-224.3,106.8-224.8"/>
							</g>
							<g id="g56_25_" transform="translate(28.1943,28.9922)">
								<path id="path58_25_" fill="#F7B82D" d="M107.5-224.5c-0.5-0.5-1.2-0.5-1.7,0l-1.7,1.7c-0.5,0.5-0.5,1.2,0,1.7
									c0.5,0.5,1.2,0.5,1.7,0l1.7-1.7C108-223.3,108-224.1,107.5-224.5"/>
							</g>
							<g id="g60_16_" transform="translate(30.6172,31.3828)">
								<path id="path62_30_" fill="#F7B82D" d="M107.6-224.4c-0.5-0.5-1.2-0.5-1.7,0l-1.7,1.7c-0.5,0.5-0.5,1.2,0,1.7
									c0.5,0.5,1.2,0.5,1.7,0l1.7-1.7C108.1-223.2,108.1-223.9,107.6-224.4"/>
							</g>
							<g id="g64_13_" transform="translate(23.3428,24.1392)">
								<path id="path66_13_" fill="#F7B82D" d="M107.3-224.8c-0.5-0.5-1.2-0.5-1.7,0l-1.7,1.7c-0.5,0.5-0.5,1.2,0,1.7
									c0.5,0.5,1.2,0.5,1.7,0l1.7-1.7C107.7-223.5,107.7-224.3,107.3-224.8"/>
							</g>
							<g id="g68_13_" transform="translate(20.915,21.7134)">
								<path id="path70_13_" fill="#F7B82D" d="M107.1-224.9c-0.5-0.5-1.2-0.5-1.7,0l-1.7,1.7c-0.5,0.5-0.5,1.2,0,1.7
									c0.5,0.5,1.2,0.5,1.7,0l1.7-1.7C107.6-223.7,107.6-224.4,107.1-224.9"/>
							</g>
							<g id="g72_13_" transform="translate(16.064,16.8613)">
								<path id="path74_13_" fill="#F7B82D" d="M106.9-225.2c-0.5-0.5-1.2-0.5-1.7,0l-1.7,1.7c-0.5,0.5-0.5,1.2,0,1.7
									c0.5,0.5,1.2,0.5,1.7,0l1.7-1.7C107.4-223.9,107.4-224.7,106.9-225.2"/>
							</g>
							<g id="g76_10_" transform="translate(18.4902,19.2871)">
								<path id="path78_10_" fill="#F7B82D" d="M107-225c-0.5-0.5-1.2-0.5-1.7,0l-1.7,1.7c-0.5,0.5-0.5,1.2,0,1.7
									c0.5,0.5,1.2,0.5,1.7,0l1.7-1.7C107.5-223.8,107.5-224.6,107-225"/>
							</g>
						</g>
					</g>
				</g>
				<g id="g80_7_">
					<g>
						<defs>
							<rect id="SVGID_187_" x="101" y="-231" width="50" height="50"/>
						</defs>
						<clipPath id="SVGID_8_">
							<use xlink:href="#SVGID_187_"  overflow="visible"/>
						</clipPath>
						<g id="g82_2_" clip-path="url(#SVGID_8_)">
							<g id="g88_6_" transform="translate(28.8662,13.4258)">
								<path id="path90_6_" fill="#77B255" d="M107.6-225.3c-7.5,2.5-15.9-0.7-20.4-3.8c3.1,4.5,6.3,12.9,3.8,20.4
									c-1,2.9-5.9,5.9-8.8,2.9c-1-1-2-2,0-2s4.9-2.9,3.9-5.9c-0.9-2.6-7.3-9.2-4.4-16.2c-0.3-0.1-0.6-0.3-0.8-0.5l-0.8-0.8
									c-1-1-1-2.5,0-3.5l0.8-0.8c1-1,2.5-1,3.5,0l0.8,0.8c0.1,0.1,0.2,0.3,0.3,0.4c7.4-4,14.5,2.9,17.2,3.9c2.9,1,5.9-2,5.9-3.9
									c0-2,1-1,2,0C113.5-231.2,110.5-226.3,107.6-225.3"/>
							</g>
						</g>
					</g>
				</g>
			</g>
			<g id="g10_4_" transform="matrix(1.25,0,0,-1.25,0,47.5)">
				<g id="g12_4_">
					<g>
						<defs>
							<rect id="SVGID_189_" x="40.8" y="-231" width="50" height="50"/>
						</defs>
						<clipPath id="SVGID_10_">
							<use xlink:href="#SVGID_189_"  overflow="visible"/>
						</clipPath>
						<g id="g14_4_" clip-path="url(#SVGID_10_)">
							<g id="g20_4_" transform="translate(37,19)">
								<path id="path22_4_" fill="#CCD6DD" d="M47.7-225c0-10.5-8.5-18.9-18.9-18.9S9.8-235.5,9.8-225s8.5,18.9,18.9,18.9
									S47.7-214.6,47.7-225"/>
							</g>
							<g id="g24_4_" transform="translate(33,19)">
								<path id="path26_4_" fill="#3B88C3" d="M47.5-225c0-8.1-6.6-14.7-14.7-14.7S18-233.2,18-225s6.6,14.7,14.7,14.7
									S47.5-216.9,47.5-225"/>
							</g>
							<g id="g28_5_" transform="translate(29,19)">
								<path id="path30_5_" fill="#DD2E44" d="M47.3-225c0-5.8-4.7-10.5-10.5-10.5c-5.8,0-10.5,4.7-10.5,10.5
									c0,5.8,4.7,10.5,10.5,10.5C42.6-214.5,47.3-219.2,47.3-225"/>
							</g>
							<g id="g32_8_" transform="translate(25,19)">
								<path id="path34_8_" fill="#FFAC33" d="M47.1-225c0-3.5-2.8-6.3-6.3-6.3c-3.5,0-6.3,2.8-6.3,6.3c0,3.5,2.8,6.3,6.3,6.3
									C44.2-218.7,47.1-221.6,47.1-225"/>
							</g>
							<g id="g36_8_" transform="translate(35.8643,7.8008)">
								<path id="path38_8_" d="M47.6-225.6c-0.4-0.3-1.3-0.6-2-0.6c-2.1,0-4.9,0.8-6.7,2.5l-3.1,4.1c-0.3,0.3-0.4,0.6-0.2,1
									c0.2,0.4-0.8,0.6-0.4,0.6h5.3c2,0,4.5-1.3,6.2-3.2l0.4-0.4c0.8-0.9,1.2-1.7,1.2-2.5C48.4-224.8,48.2-225.3,47.6-225.6"/>
							</g>
							<g id="g40_3_" transform="translate(29.3047,1.7959)">
								<path id="path42_3_" d="M47.3-226L47.3-226c-0.8,0-1.7,0.4-2.6,1.3l-0.5,0.4c-1.9,1.7-3.5,4.3-3.5,6.3v5.4
									c0,0.4,0.5-0.5,0.9-0.4c0.4,0.2,1,0.1,1.3-0.2l3.3-3.3c1.8-1.8,3.2-4.9,3.2-7c0-0.7-0.1-1.3-0.5-1.8
									C48.5-225.7,48-226,47.3-226"/>
							</g>
							<g id="g44_6_" transform="translate(32.3447,5.0361)">
								<path id="path46_6_" fill="#C1694F" d="M47.5-225.8c-0.3,0-0.5,0.1-0.7,0.3L32-210.7c-0.4,0.4-0.4,1.1,0,1.5
									c0.4,0.4,1.1,0.4,1.5,0L48.2-224c0.4-0.4,0.4-1.1,0-1.5C48-225.7,47.7-225.8,47.5-225.8"/>
							</g>
						</g>
					</g>
				</g>
			</g>
			<g id="g10_3_" transform="matrix(1.25,0,0,-1.25,0,47.5)">
				<g id="g12_3_">
					<g>
						<defs>
							<rect id="SVGID_191_" x="161.3" y="-231" width="50" height="50"/>
						</defs>
						<clipPath id="SVGID_12_">
							<use xlink:href="#SVGID_191_"  overflow="visible"/>
						</clipPath>
						<g id="g14_3_" clip-path="url(#SVGID_12_)">
							<g id="g20_3_" transform="translate(35.9639,25.0449)">
								<path id="path22_3_" fill="#FFCC4D" d="M168.2-224.7L168.2-224.7c0,0,1.1,10.5,0,11.5c-1,1-7.1-0.7-8.2-1
									c-2.6,1.3-5.7,2.1-9.7,2.1c-3.9,0-7.1-0.8-9.6-2.1c-1.1,0.3-7.3,2-8.2,1c-1.1-1.1,0-11.6,0-11.6l0,0.1
									c-0.8-2.7-1.1-5.6-1.1-8.5c0-5.8,3.6-10.3,8-13.2c0.1,6.8-2.4,14.3-6.5,14.3c-0.5,0-0.9-0.1-1.2-0.2c0.3,0.8,1,1.2,2.3,1.2
									c4.5,0,7-8.9,6.4-16c3.3-1.9,7-3,10-3c3,0,6.6,1,10,3c-0.6,7.1,1.9,16,6.4,16c1.3,0,2-0.4,2.3-1.2c-0.3,0.1-0.7,0.2-1.2,0.2
									c-4.1,0-6.6-7.5-6.5-14.3c4.4,2.9,8,7.4,8,13.3C169.3-230.3,169-227.4,168.2-224.7"/>
							</g>
							<g id="g24_3_" transform="translate(19,16)">
								<path id="path26_3_" fill="#292F33" d="M167.3-225.2c-2.3,0-4.2-1.9-4.2-4.2v-6.3c0-2.3,1.9-4.2,4.2-4.2
									c2.3,0,4.2,1.9,4.2,4.2v6.3C171.5-227.1,169.6-225.2,167.3-225.2"/>
							</g>
							<g id="g28_4_" transform="translate(18.9995,22)">
								<path id="path30_4_" fill="#67757F" d="M167.3-224.9c3.2,0,3.2-0.5,3.2-1.6s-1.6-3.2-3.2-3.2c-1.6,0-3.2,2.1-3.2,3.2
									S164.2-224.9,167.3-224.9"/>
							</g>
							<g id="g32_6_" transform="translate(30.9238,16.4941)">
								<path id="path34_5_" fill="#9AAAB4" d="M167.9-225.2l-5.3-1.1c-0.3-0.1-0.5-0.3-0.4-0.6c0.1-0.3,0.3-0.4,0.5-0.4
									c0,0,0.1,0,0.1,0l4.4,0.9C167.5-226,167.7-225.6,167.9-225.2"/>
							</g>
							<g id="g36_5_" transform="translate(34.5605,19)">
								<path id="path38_5_" fill="#9AAAB4" d="M168.1-225L168.1-225l1.7,0.6c0.3,0.1,0.4,0.4,0.3,0.7c-0.1,0.3-0.4,0.4-0.7,0.3
									l-9.5-3.2c-0.3-0.1-0.4-0.4-0.3-0.7c0.1-0.2,0.3-0.4,0.5-0.4c0.1,0,0.1,0,0.2,0l5.7,1.9C166.7-225.3,167.4-225,168.1-225"/>
							</g>
							<g id="g40_2_" transform="translate(12.0981,15.4902)">
								<path id="path42_2_" fill="#9AAAB4" d="M167-225.2l-5.3,1.1c0.2-0.4,0.5-0.8,0.7-1.2l4.4-0.9c0,0,0.1,0,0.1,0
									c0.2,0,0.5,0.2,0.5,0.4C167.4-225.6,167.2-225.3,167-225.2"/>
							</g>
							<g id="g44_1_" transform="translate(11.1582,17.4746)">
								<path id="path46_1_" fill="#9AAAB4" d="M166.9-225.1l-9.5,3.2c-0.3,0.1-0.6-0.1-0.7-0.3c-0.1-0.3,0.1-0.6,0.3-0.7l1.7-0.6
									l0,0c0.7,0,1.4-0.3,2.1-0.7l5.7-1.9c0.1,0,0.1,0,0.2,0c0.2,0,0.4,0.1,0.5,0.4C167.3-225.5,167.2-225.2,166.9-225.1"/>
							</g>
							<g id="g48_1_" transform="translate(8.3472,26.3345)">
								<path id="path50_1_" fill="#F5F8FA" d="M166.8-224.7c-1-3.3,0.1-6.6,2.5-7.3c2.4-0.7,5.1,1.4,6.1,4.8c1,3.3-0.1,6.6-2.5,7.3
									C170.5-219.2,167.8-221.3,166.8-224.7"/>
							</g>
							<g id="g52_8_" transform="translate(29.6523,26.3345)">
								<path id="path54_8_" fill="#F5F8FA" d="M167.9-224.7c1-3.3-0.1-6.6-2.5-7.3c-2.4-0.7-5.1,1.4-6.1,4.8
									c-1,3.3,0.1,6.6,2.5,7.3C164.2-219.2,166.9-221.3,167.9-224.7"/>
							</g>
							<g id="g56_5_" transform="translate(36.7529,17.8174)">
								<path id="path58_5_" fill="#FCAB40" d="M168.3-225.1c-0.3,0.1-0.7,0.2-1.2,0.2c-4.9,0-7.4-10.5-6.2-17.9h6.8
									C165.6-235.4,169.4-228,168.3-225.1"/>
							</g>
							<g id="g60_13_" transform="translate(2.4043,18)">
								<path id="path62_8_" fill="#FCAB40" d="M166.4-225.1c-0.5,0-0.9-0.1-1.2-0.2c0.1,0.2,0.2,0.4,0.3,0.5
									c-2-2.4,2.4-10.4,0.3-18.2h6.8C173.9-235.7,171.3-225.1,166.4-225.1"/>
							</g>
						</g>
					</g>
				</g>
			</g>
		</g>
		<g>
			<g>
				<path fill="none" stroke="#FFFFFF" stroke-width="1.1932" stroke-miterlimit="10" d="M182.7,332.8c21.4,15,27,44.3,12.5,66.2"/>
				<g>
					<polygon fill="#FFFFFF" points="183,339.1 184.1,338.9 183,333.1 188.9,332.5 188.8,331.3 181.6,332.1 					"/>
				</g>
			</g>
		</g>
		<g id="g10_106_" transform="matrix(1.25,0,0,-1.25,0,47.5)">
			<g id="g12_124_">
				<g id="g14_123_">
					<g id="g20_115_" transform="translate(36,19)">
						<path id="path22_115_" fill="#FFCC4D" d="M106.5-386.5c0-3-2.4-5.4-5.4-5.4c-3,0-5.4,2.4-5.4,5.4c0,3,2.4,5.4,5.4,5.4
							C104-381.1,106.5-383.5,106.5-386.5"/>
					</g>
					<g id="g24_105_" transform="translate(29.3125,21.3882)">
						<path id="path26_105_" fill="#664500" d="M111-388.1c-0.1,0-0.1,0-0.2,0c0,0-0.4-0.3-1.2-0.3c-0.8,0-1.2,0.3-1.2,0.3
							c-0.1,0-0.1,0-0.2,0c-0.1,0-0.1-0.1,0-0.2c0,0,0.5-1,1.4-1s1.4,1,1.4,1C111.1-388.3,111.1-388.2,111-388.1"/>
					</g>
					<g id="g28_75_" transform="translate(16.7021,21.4019)">
						<path id="path30_66_" fill="#664500" d="M119.6-388.2c0,0-0.4-0.3-1.2-0.3c-0.8,0-1.2,0.3-1.2,0.3c-0.1,0-0.1,0-0.2,0
							c-0.1,0-0.1-0.1,0-0.2c0,0,0.5-1,1.4-1c0.9,0,1.4,1,1.4,1c0,0.1,0,0.1,0,0.2C119.7-388.1,119.7-388.1,119.6-388.2"/>
					</g>
					<g id="g32_53_" transform="translate(30.001,24)">
						<path id="path34_52_" fill="#664500" d="M110.5-389.9c-0.1,0-0.2,0-0.3,0.1c-0.8,1.1-2.2,0.8-2.2,0.8c-0.2,0-0.3,0.1-0.4,0.2
							c0,0.2,0.1,0.3,0.2,0.4c0.1,0,1.8,0.3,2.9-1.1c0.1-0.1,0.1-0.3-0.1-0.4C110.7-389.9,110.6-389.9,110.5-389.9"/>
					</g>
					<g id="g36_48_" transform="translate(7.999,24)">
						<path id="path38_48_" fill="#664500" d="M125.5-389.9c-0.1,0-0.1,0-0.2,0.1c-0.1,0.1-0.2,0.3-0.1,0.4c1.1,1.4,2.8,1.1,2.9,1.1
							c0.2,0,0.3-0.2,0.2-0.4c0-0.2-0.2-0.3-0.4-0.2c-0.1,0-1.4,0.3-2.2-0.8C125.7-389.9,125.6-389.9,125.5-389.9"/>
					</g>
					<g id="g40_32_" transform="translate(24.2539,13.4229)">
						<path id="path42_32_" fill="#664500" d="M114.5-382.7c-0.1,0-0.1,0-0.2,0c0,0-0.3-0.3-1.5-0.3c-1.2,0-1.5,0.3-1.5,0.3
							c-0.1,0.1-0.1,0.1-0.2,0c-0.1,0-0.1-0.1-0.1-0.2c0,0,0.4-1.4,1.7-1.4c1.4,0,1.7,1.4,1.7,1.4
							C114.6-382.8,114.5-382.7,114.5-382.7"/>
					</g>
				</g>
			</g>
		</g>
		<g opacity="0.35">
			
				<image overflow="visible" opacity="0.8" width="77" height="78" xlink:href="8AFDC37263B21DC.png"  transform="matrix(1 0 0 1 134.9367 248.0587)">
			</image>
			<g>
				<circle fill="#00E7FF" cx="171.3" cy="285" r="32.3"/>
			</g>
		</g>
	</g>
</g>
</svg>
