<?xml version="1.0" encoding="utf-8"?>
<!-- Generator: Adobe Illustrator 18.0.0, SVG Export Plug-In . SVG Version: 6.00 Build 0)  -->
<!DOCTYPE svg PUBLIC "-//W3C//DTD SVG 1.1//EN" "http://www.w3.org/Graphics/SVG/1.1/DTD/svg11.dtd">
<svg version="1.1" xmlns="http://www.w3.org/2000/svg" xmlns:xlink="http://www.w3.org/1999/xlink" x="0px" y="0px"
	 viewBox="0 0 315 560.1" enable-background="new 0 0 315 560.1" xml:space="preserve">
<g id="back">
</g>
<g id="notes">
</g>
<g id="input">
</g>
<g id="landing_pages">
</g>
<g id="onboarding">
</g>
<g id="top">
	<g>
		<polyline fill="#283344" points="0.5,560.1 0.5,0.1 314.6,0.1 314.6,560.1 		"/>
		<rect x="0" y="0" fill="#FFFFFF" width="315" height="42"/>
		<g>
			<g>
				<path fill="#005189" d="M105.7,22.9l4.7,7.3h-3.3l-4.2-6.9h-1.8v6.9h-2.8V13.4h4.6c4.3,0,6.5,1.6,6.5,4.8
					C109.4,20.7,107.8,22.2,105.7,22.9z M103.1,15.5h-2v5.7h2.1c2.1,0,3.3-0.8,3.3-2.9C106.5,16.3,105.4,15.5,103.1,15.5z"/>
			</g>
			<g>
				<path fill="#005189" d="M134.8,24.2h-2v5.9H130V13.4h4.6c4.2,0,6.7,1.7,6.7,5.2C141.3,22.6,138.6,24.2,134.8,24.2z M134.8,15.5
					h-2V22h2.1c2.1,0,3.6-0.8,3.6-3.4C138.4,16.4,136.9,15.5,134.8,15.5z"/>
			</g>
			<g>
				<path fill="#005189" d="M152.1,30.1h-2.8V15.7h-5v-2.3h12.9l-0.3,2.3h-4.8V30.1z"/>
			</g>
			<g>
				<path fill="#005189" d="M179.1,13.4h2.8v14.3h7.5l-0.3,2.3h-10V13.4z"/>
			</g>
			<g>
				<path fill="#005189" d="M219,24.1c0,3.2-1.7,6-6.1,6c-1.8,0-3.4-0.6-4.7-1.5l1.1-1.8c1.3,0.8,2.4,1.1,3.5,1.1
					c2.1,0,3.4-1.4,3.4-3.9v-8.8h-5v-2.2h7.8V24.1z"/>
			</g>
			<g>
				<path fill="#005189" d="M120.7,30.1h-2.8v-6.4l-5.6-10.3h3.1l3.9,7.9l4-7.9h3l-5.6,10.3V30.1z"/>
			</g>
			<g>
				<path fill="#5C913B" d="M94.1,26.4l-4.7-4.8l4.8-4.7l0.6-0.6l0.7-0.7c-0.4-0.4-0.8-0.7-1.2-1c-3.9-2.7-9.2-1.7-11.8,2.1
					c-2.7,3.9-1.7,9.2,2.1,11.8c3.4,2.4,8,1.9,10.8-0.9L94.6,27L94.1,26.4z"/>
				<path fill="#FFE8B6" d="M89.3,21.6l4.8-4.7l0.6-0.6c-0.3-0.3-0.7-0.6-1.1-0.9c-3.4-2.4-8.2-1.5-10.5,1.9
					c-2.4,3.4-1.5,8.2,1.9,10.5c3,2.1,7.1,1.7,9.6-0.8l-0.6-0.6L89.3,21.6z"/>
				<g>
					<g>
						<path fill="#DD2E44" d="M94.1,16.9c-0.3-0.3-0.6-0.6-0.9-0.8c-3.1-2.1-7.3-1.4-9.4,1.7c-2.1,3.1-1.4,7.3,1.7,9.4
							c2.7,1.9,6.3,1.5,8.6-0.7l-4.7-4.8L94.1,16.9z"/>
					</g>
					<g>
						<g id="watermelon_c_12_" transform="matrix(1.25,0,0,-1.25,0,47.5)">
							<g id="g12_16_">
								<g>
									<g id="g14_16_">
										<g id="g32_9_" transform="translate(10.916,22.7227)">
											<path id="path34_9_" d="M57.5-0.3c-0.2-0.1-0.4-0.1-0.4,0c0,0.1,0.1,0.2,0.3,0.3c0.2,0.1,0.4,0.1,0.4,0
												C57.8,0,57.7-0.2,57.5-0.3"/>
										</g>
										<g id="g36_9_" transform="translate(16.916,21.7227)">
											<path id="path38_9_" d="M53.2-0.9c-0.2-0.1-0.4-0.1-0.4,0c0,0.1,0.1,0.2,0.3,0.3c0.2,0.1,0.4,0.1,0.4,0
												C53.5-0.7,53.4-0.8,53.2-0.9"/>
										</g>
										<g id="g40_55_" transform="translate(21.998,17.0449)">
											<path id="path42_54_" d="M48.7,1.2C48.6,1,48.4,0.9,48.3,1c-0.1,0.1-0.1,0.2,0,0.4c0.1,0.2,0.3,0.3,0.4,0.2
												C48.8,1.6,48.8,1.4,48.7,1.2"/>
										</g>
										<g id="g44_37_" transform="translate(12.998,19.0449)">
											<path id="path46_37_" d="M55.3,1.8c-0.1-0.2-0.3-0.3-0.4-0.2c-0.1,0.1-0.1,0.2,0,0.4c0.1,0.2,0.3,0.3,0.4,0.2
												C55.4,2.2,55.4,2,55.3,1.8"/>
										</g>
										<g id="g48_31_" transform="translate(16.8994,13.6992)">
											<path id="path50_31_" d="M51.4,4.6c-0.2-0.1-0.4,0-0.4,0.1c0,0.1,0.1,0.2,0.3,0.3c0.2,0.1,0.4,0,0.4-0.1
												C51.8,4.8,51.6,4.7,51.4,4.6"/>
										</g>
										<g id="g52_37_" transform="translate(24.9355,13.2451)">
											<path id="path54_36_" d="M45.8,3.2c0-0.2-0.1-0.4-0.2-0.4c-0.1,0-0.2,0.2-0.2,0.4c0,0.2,0.1,0.4,0.2,0.4
												C45.8,3.6,45.8,3.4,45.8,3.2"/>
										</g>
										<g id="g56_24_" transform="translate(17.918,18.2734)">
											<path id="path58_24_" d="M51.7,1.3c0-0.2-0.1-0.4-0.2-0.4c-0.1,0-0.2,0.2-0.2,0.4c0,0.2,0.1,0.4,0.2,0.4
												C51.7,1.7,51.7,1.5,51.7,1.3"/>
										</g>
										<g id="g60_25_" transform="translate(26.8994,16.6992)">
											<path id="path62_33_" d="M45.2,0.4c-0.2-0.1-0.4,0-0.4,0.1c0,0.1,0.1,0.2,0.3,0.3c0.2,0.1,0.4,0,0.4-0.1
												C45.6,0.6,45.4,0.4,45.2,0.4"/>
										</g>
									</g>
								</g>
							</g>
						</g>
						<g id="watermelon_c_11_" transform="matrix(1.25,0,0,-1.25,0,47.5)">
							<g id="g12_13_">
								<g>
									<g id="g14_13_">
										<g id="g40_51_" transform="translate(21.998,17.0449)">
											<path id="path42_50_" d="M50.1,5.7C50.2,5.9,50.4,6,50.5,6c0.1-0.1,0.1-0.2,0-0.4c-0.1-0.2-0.3-0.3-0.4-0.2
												C50,5.4,50,5.6,50.1,5.7"/>
										</g>
										<g id="g52_34_" transform="translate(24.9355,13.2451)">
											<path id="path54_33_" d="M47.1,11.4c0,0.2,0.1,0.4,0.2,0.4c0.1,0,0.2-0.2,0.2-0.4c0-0.2-0.1-0.4-0.2-0.4
												C47.1,11,47.1,11.2,47.1,11.4"/>
										</g>
										<g id="g60_20_" transform="translate(26.8994,16.6992)">
											<path id="path62_31_" d="M43.8,7.3c0.2,0.1,0.4,0,0.4-0.1c0-0.1-0.1-0.2-0.3-0.3c-0.2-0.1-0.4,0-0.4,0.1
												C43.4,7.1,43.6,7.2,43.8,7.3"/>
										</g>
									</g>
								</g>
							</g>
						</g>
					</g>
				</g>
			</g>
			<g id="g12_12_">
				<g>
					<g id="g14_12_">
						<g id="g20_10_" transform="translate(3.9995,17.5)">
							<path id="path22_10_" fill="#F4900C" d="M156,4.7c0-4.3,3.5-7.8,7.8-7.8s7.8,3.5,7.8,7.8c0,4.3-3.5,7.8-7.8,7.8
								S156,9.1,156,4.7"/>
						</g>
						<g id="g24_8_" transform="translate(12.4136,29.4146)">
							<path id="path26_8_" fill="#662113" d="M151.6-12.8c-0.1-0.1-0.4-0.1-0.6,0.1c-1.6-1.3-4.1-1.7-4.2-1.8
								c-0.3,0-0.5,0.1-0.5,0.4c0,0.3,0.1,0.5,0.4,0.5c0,0,2.3,0.4,3.7,1.5c-0.1,0.2-0.2,0.5,0,0.6c0.2,0.2,0.6,0,1-0.3
								C151.6-12.2,151.8-12.6,151.6-12.8"/>
						</g>
						<g id="g28_11_" transform="translate(22,36.0005)">
							<path id="path30_9_" fill="#5C913B" d="M146.5-22.5c0,0-1.5,2-3.3,2.5c-1.4,0.3-3.3,0.4-3.5-0.1c-0.2-0.4,0.7-1.9,2.4-2.6
								C143.7-23.3,146.5-22.5,146.5-22.5"/>
						</g>
					</g>
				</g>
			</g>
			<g id="orange_o_6_" transform="matrix(1.25,0,0,-1.25,0,47.5)">
				<g id="g12_11_">
					<g>
						<g id="g14_11_">
							<g id="g20_9_" transform="translate(3.9995,17.5)">
								<path id="path22_9_" fill="#F4900C" d="M149,2.7c0,3.5,2.8,6.3,6.3,6.3s6.3-2.8,6.3-6.3c0-3.5-2.8-6.3-6.3-6.3
									S149-0.8,149,2.7"/>
							</g>
							<g id="g24_7_" transform="translate(12.4136,29.4146)">
								<path id="path26_7_" fill="#662113" d="M143.8-4.7c-0.1,0.1-0.3,0.1-0.5,0c-1.3,1-3.3,1.4-3.4,1.4c-0.2,0-0.4-0.1-0.4-0.3
									c0-0.2,0.1-0.4,0.3-0.4c0,0,1.9-0.3,3-1.2c-0.1-0.2-0.1-0.4,0-0.5c0.1-0.1,0.5,0,0.8,0.3C143.8-5.2,143.9-4.8,143.8-4.7"/>
							</g>
							<g id="g28_10_" transform="translate(22,36.0005)">
								<path id="path30_8_" fill="#5C913B" d="M137.8-8.8c0,0-1.2-1.6-2.7-2c-1.1-0.3-2.6-0.3-2.8,0c-0.1,0.3,0.6,1.5,1.9,2
									C135.5-8.1,137.8-8.8,137.8-8.8"/>
							</g>
						</g>
					</g>
				</g>
			</g>
			<g id="g10_5_" transform="matrix(1.25,0,0,-1.25,0,47.5)">
				<g id="g12_10_">
					<g>
						<g id="g14_10_">
							<g id="g20_8_" transform="translate(25,31)">
								<path id="path22_8_" fill="#CCD6DD" d="M159.1-5.8c0-1.3-1-2.3-2.3-2.3c-1.3,0-2.3,1-2.3,2.3c0,1.3,1,2.3,2.3,2.3
									C158.1-3.5,159.1-4.5,159.1-5.8"/>
							</g>
							<path id="path24_6_" fill="#CCD6DD" d="M184.5,15h-5.3V23h5.3V15z"/>
						</g>
					</g>
				</g>
				<g id="g26_6_">
					<g>
						<defs>
							<rect id="SVGID_179_" x="178.5" y="14" width="6.6" height="9.9"/>
						</defs>
						<clipPath id="SVGID_2_">
							<use xlink:href="#SVGID_179_"  overflow="visible"/>
						</clipPath>
						<g id="g28_9_" clip-path="url(#SVGID_2_)">
							<g id="g34_7_" transform="translate(34.1914,15.4902)">
								<path id="path36_6_" fill="#DD2E44" d="M153.4,3.9l-8.8,4.3l0.7,1.4l8.8-4.3L153.4,3.9z"/>
							</g>
							<g id="g38_6_" transform="translate(27.1758,1.1094)">
								<path id="path40_6_" fill="#DD2E44" d="M157.7,12.8l-8.8,4.3l0.7,1.4l8.8-4.3L157.7,12.8z"/>
							</g>
							<g id="g42_2_" transform="translate(32.4375,11.8945)">
								<path id="path44_6_" fill="#FFFFFF" d="M154.5,6.1l-8.8,4.3l0.7,1.4l8.8-4.3L154.5,6.1z"/>
							</g>
							<g id="g46_6_" transform="translate(28.9297,4.7051)">
								<path id="path48_6_" fill="#FFFFFF" d="M156.7,10.6l-8.8,4.3l0.7,1.4l8.8-4.3L156.7,10.6z"/>
							</g>
							<g id="g50_6_" transform="translate(25.4219,-2.4854)">
								<path id="path52_6_" fill="#FFFFFF" d="M158.8,15.1l-8.8,4.3l0.7,1.4l8.8-4.3L158.8,15.1z"/>
							</g>
							<g id="g54_2_" transform="translate(30.6836,8.2998)">
								<path id="path56_6_" fill="#55ACEE" d="M155.6,8.4l-8.8,4.3l0.7,1.4l8.8-4.3L155.6,8.4z"/>
							</g>
						</g>
					</g>
				</g>
				<g id="g58_6_">
					<g>
						<g id="g60_19_">
							<g id="g66_6_" transform="translate(28,26)">
								<path id="path68_6_" fill="#99AAB5" d="M157.2-2.7c0-0.4-0.3-0.8-0.8-0.8h-5.3c-0.4,0-0.8,0.3-0.8,0.8s0.3,0.8,0.8,0.8h5.3
									C156.9-1.9,157.2-2.2,157.2-2.7"/>
							</g>
							<g id="g70_6_" transform="translate(28,3)">
								<path id="path72_6_" fill="#99AAB5" d="M157.2,11.7c0-0.4-0.3-0.8-0.8-0.8h-5.3c-0.4,0-0.8,0.3-0.8,0.8s0.3,0.8,0.8,0.8h5.3
									C156.9,12.4,157.2,12.1,157.2,11.7"/>
							</g>
						</g>
					</g>
				</g>
			</g>
		</g>
		<path fill="none" stroke="#FAFAFA" stroke-width="2" stroke-miterlimit="10" d="M230,502.8H83.5c-9.3,0-16.9-7.6-16.9-16.9l0,0
			c0-9.3,7.6-16.9,16.9-16.9H230c9.3,0,16.9,7.6,16.9,16.9l0,0C246.9,495.2,239.3,502.8,230,502.8z"/>
		<g>
			<path fill="#FAFAFA" d="M91.5,486.2c0-4.7,2.8-7.2,6-7.2c1.9,0,3,0.6,4.1,1.6l-1.3,1.3c-0.8-0.8-1.7-1.1-2.7-1.1
				c-1.9,0-3.7,1.4-3.7,5.3c0,3.9,1.1,5.4,3.3,5.4c0.8,0,1.6-0.2,2.3-0.6v-3.8h-2.3l-0.2-1.8h4.8v6.7c-1.3,0.7-2.7,1.3-4.6,1.3
				C93.6,493.4,91.5,491,91.5,486.2z"/>
			<path fill="#FAFAFA" d="M107.3,485.2h5v1.7h-5v4.4h6.1v1.8H105v-13.8h8.3l-0.3,1.8h-5.7V485.2z"/>
			<path fill="#FAFAFA" d="M121.9,493.1h-2.3v-11.9h-4.2v-1.9h10.7l-0.2,1.9h-4V493.1z"/>
			<path fill="#FAFAFA" d="M144.4,493.4c-2.2,0-3.9-0.7-5.1-1.8l1.3-1.4c1,0.9,2.2,1.4,3.8,1.4c1.6,0,2.9-0.7,2.9-2.2
				c0-1.2-0.6-1.8-2.8-2.5c-2.9-0.9-4.5-2-4.5-4.1c0-2.3,2-3.7,4.7-3.7c2,0,3.4,0.6,4.6,1.7l-1.2,1.4c-1-0.8-2.1-1.2-3.3-1.2
				c-1.4,0-2.5,0.6-2.5,1.8c0,1.1,0.8,1.6,3.2,2.3c2.3,0.7,4.1,1.7,4.1,4.3C149.7,491.7,147.8,493.4,144.4,493.4z"/>
			<path fill="#FAFAFA" d="M157.9,493.1h-2.3v-11.9h-4.2v-1.9h10.7l-0.2,1.9h-4V493.1z"/>
			<path fill="#FAFAFA" d="M166.2,489.8l-1,3.3h-2.4l4.4-13.8h2.9l4.4,13.8h-2.5l-1-3.3H166.2z M170.7,488l-2-6.9l-2,6.9H170.7z"/>
			<path fill="#FAFAFA" d="M182.5,487.1l3.9,6h-2.7l-3.5-5.7h-1.5v5.7h-2.3v-13.8h3.8c3.5,0,5.4,1.3,5.4,4
				C185.7,485.3,184.3,486.6,182.5,487.1z M180.4,481h-1.7v4.7h1.7c1.8,0,2.8-0.7,2.8-2.4C183.2,481.7,182.3,481,180.4,481z"/>
			<path fill="#FAFAFA" d="M193.9,493.1h-2.3v-11.9h-4.2v-1.9h10.7l-0.2,1.9h-4V493.1z"/>
			<path fill="#FAFAFA" d="M203.3,485.2h5v1.7h-5v4.4h6.1v1.8H201v-13.8h8.3l-0.3,1.8h-5.7V485.2z"/>
			<path fill="#FAFAFA" d="M215.5,493.1h-3.4v-13.8h3.2c3.4,0,6.6,1.1,6.6,6.8C222,491.9,218.6,493.1,215.5,493.1z M215.8,481.1
				h-1.3v10.3h1.3c1.9,0,3.7-1,3.7-5.2C219.5,481.8,217.6,481.1,215.8,481.1z"/>
		</g>
	</g>
</g>
<g id="tap">
</g>
</svg>
