<?xml version="1.0" encoding="utf-8"?>
<!-- Generator: Adobe Illustrator 18.0.0, SVG Export Plug-In . SVG Version: 6.00 Build 0)  -->
<!DOCTYPE svg PUBLIC "-//W3C//DTD SVG 1.1//EN" "http://www.w3.org/Graphics/SVG/1.1/DTD/svg11.dtd">
<svg version="1.1" id="Layer_1" xmlns="http://www.w3.org/2000/svg" xmlns:xlink="http://www.w3.org/1999/xlink" x="0px" y="0px"
	 viewBox="0 62 34.8 62" enable-background="new 0 62 34.8 62" xml:space="preserve">
<polyline fill="#283344" points="0,124 0,62 34.8,62 34.8,124 "/>
<g id="onboarding_slide_2_hello">
	<g id="onboarding_slide_2_A5">
		<path id="path22_87_" fill="#3B88C3" d="M32.4,76.8c0,0.3-0.2,0.6-0.6,0.6H28c-0.3,0-0.6-0.2-0.6-0.6V73c0-0.3,0.2-0.6,0.6-0.6
			h3.9c0.3,0,0.6,0.2,0.6,0.6V76.8z"/>
		<path id="path26_80_" fill="#FFFFFF" d="M30.7,74.9c0-0.5-0.3-1-0.8-1s-0.8,0.5-0.8,1s0.3,1,0.8,1C30.5,75.9,30.7,75.4,30.7,74.9
			 M28.4,74.9c0-0.9,0.6-1.6,1.5-1.6c0.9,0,1.5,0.7,1.5,1.6c0,0.9-0.6,1.6-1.5,1.6C29.1,76.5,28.4,75.8,28.4,74.9"/>
	</g>
	<g id="onboarding_slide_2_A4">
		<path id="path22_83_" fill="#3B88C3" d="M19.9,76.8c0,0.3-0.2,0.6-0.6,0.6h-3.9c-0.3,0-0.6-0.2-0.6-0.6V73c0-0.3,0.2-0.6,0.6-0.6
			h3.9c0.3,0,0.6,0.2,0.6,0.6V76.8z"/>
		<path id="path26_75_" fill="#FFFFFF" d="M16.7,73.7c0-0.2,0.1-0.3,0.3-0.3c0.2,0,0.3,0.1,0.3,0.3v2.1h0.8c0.2,0,0.3,0.2,0.3,0.3
			c0,0.1-0.1,0.3-0.3,0.3H17c-0.2,0-0.3-0.1-0.3-0.4C16.7,76.1,16.7,73.7,16.7,73.7z"/>
	</g>
	<g id="onboarding_slide_2_A3">
		<path id="path22_85_" fill="#3B88C3" d="M26.1,76.8c0,0.3-0.2,0.6-0.6,0.6h-3.9c-0.3,0-0.6-0.2-0.6-0.6V73c0-0.3,0.2-0.6,0.6-0.6
			h3.9c0.3,0,0.6,0.2,0.6,0.6V76.8z"/>
		<path id="path26_78_" fill="#FFFFFF" d="M22.9,73.7c0-0.2,0.1-0.3,0.3-0.3s0.3,0.1,0.3,0.3v2.1h0.8c0.2,0,0.3,0.2,0.3,0.3
			c0,0.1-0.1,0.3-0.3,0.3h-1.1c-0.2,0-0.3-0.1-0.3-0.4C22.9,76.1,22.9,73.7,22.9,73.7z"/>
	</g>
	<g id="onboarding_slide_2_A2">
		<path id="path22_81_" fill="#3B88C3" d="M13.6,76.8c0,0.3-0.2,0.6-0.6,0.6H9.2c-0.3,0-0.6-0.2-0.6-0.6V73c0-0.3,0.2-0.6,0.6-0.6
			h3.9c0.3,0,0.6,0.2,0.6,0.6V76.8z"/>
		<path id="path26_73_" fill="#FFFFFF" d="M10.3,73.7c0-0.2,0.1-0.4,0.3-0.4h1.1c0.2,0,0.3,0.1,0.3,0.3c0,0.1-0.1,0.3-0.3,0.3H11
			v0.6h0.7c0.2,0,0.3,0.1,0.3,0.3c0,0.1-0.1,0.3-0.3,0.3H11v0.7h0.8c0.2,0,0.3,0.1,0.3,0.3c0,0.1-0.1,0.3-0.3,0.3h-1.1
			c-0.2,0-0.3-0.1-0.3-0.3C10.3,76.1,10.3,73.7,10.3,73.7z"/>
	</g>
	<g id="onboarding_slide_2_A1">
		<path id="path22_79_" fill="#3B88C3" d="M7.3,76.8c0,0.3-0.2,0.6-0.6,0.6H2.9c-0.3,0-0.6-0.2-0.6-0.6V73c0-0.3,0.2-0.6,0.6-0.6
			h3.9c0.3,0,0.6,0.2,0.6,0.6V76.8z"/>
		<path id="path26_69_" fill="#FFFFFF" d="M5.9,73.4c-0.2,0-0.3,0.2-0.3,0.3v0.8H4.2v-0.8c0-0.2-0.2-0.3-0.3-0.3
			c-0.2,0-0.3,0.2-0.3,0.3v2.3c0,0.2,0.2,0.3,0.3,0.3c0.2,0,0.3-0.2,0.3-0.3v-0.9h1.4v0.9c0,0.2,0.2,0.3,0.3,0.3s0.3-0.2,0.3-0.3
			v-2.3C6.2,73.5,6.1,73.4,5.9,73.4"/>
	</g>
</g>
<g id="onboarding_slide1_lines">
	<path id="onboarding_slide1_line_5" fill="#FFFFFF" d="M4.8,82.5C4.8,82.4,4.8,82.4,4.8,82.5L4.8,82.5c0.1-0.1,0.2-0.1,0.2,0l0,0
		C4.9,82.5,4.9,82.6,4.8,82.5L4.8,82.5C4.8,82.6,4.8,82.5,4.8,82.5z M4.8,82.2C4.8,82.1,4.8,82.1,4.8,82.2L4.8,82.2
		c0.1-0.1,0.2-0.1,0.2,0l0,0C4.9,82.2,4.9,82.3,4.8,82.2L4.8,82.2C4.8,82.3,4.8,82.2,4.8,82.2z M4.8,81.9
		C4.8,81.8,4.8,81.8,4.8,81.9L4.8,81.9c0.1-0.1,0.2-0.1,0.2,0l0,0C4.9,81.9,4.9,81.9,4.8,81.9L4.8,81.9C4.8,81.9,4.8,81.9,4.8,81.9z
		 M4.8,81.5C4.8,81.5,4.8,81.4,4.8,81.5L4.8,81.5c0.1-0.1,0.2-0.1,0.2,0l0,0C4.9,81.6,4.9,81.6,4.8,81.5L4.8,81.5
		C4.8,81.6,4.8,81.6,4.8,81.5z M4.8,81.2C4.8,81.2,4.8,81.1,4.8,81.2L4.8,81.2c0.1-0.1,0.2-0.1,0.2,0l0,0
		C4.9,81.3,4.9,81.3,4.8,81.2L4.8,81.2C4.8,81.3,4.8,81.3,4.8,81.2z M4.8,80.9C4.8,80.8,4.8,80.8,4.8,80.9L4.8,80.9
		c0.1-0.1,0.2-0.1,0.2,0l0,0C4.9,80.9,4.9,81,4.8,80.9L4.8,80.9C4.8,81,4.8,80.9,4.8,80.9z M4.8,80.6C4.8,80.5,4.8,80.5,4.8,80.6
		L4.8,80.6c0.1-0.1,0.2-0.1,0.2,0l0,0C4.9,80.6,4.9,80.7,4.8,80.6L4.8,80.6C4.8,80.6,4.8,80.6,4.8,80.6z M4.8,80.2
		C4.8,80.2,4.8,80.2,4.8,80.2L4.8,80.2c0.1-0.1,0.2-0.1,0.2,0l0,0C4.9,80.3,4.9,80.3,4.8,80.2L4.8,80.2C4.8,80.3,4.8,80.3,4.8,80.2z
		 M4.8,79.9C4.8,79.9,4.8,79.8,4.8,79.9L4.8,79.9c0.1-0.1,0.2-0.1,0.2,0l0,0C4.9,80,4.9,80,4.8,79.9L4.8,79.9
		C4.8,80,4.8,80,4.8,79.9z M4.8,79.6C4.8,79.5,4.8,79.5,4.8,79.6L4.8,79.6c0.1-0.1,0.2-0.1,0.2,0l0,0C4.9,79.6,4.9,79.7,4.8,79.6
		L4.8,79.6C4.8,79.7,4.8,79.6,4.8,79.6z M4.8,79.3C4.8,79.2,4.8,79.2,4.8,79.3L4.8,79.3c0.1-0.1,0.2-0.1,0.2,0l0,0
		C4.9,79.3,4.9,79.4,4.8,79.3L4.8,79.3C4.8,79.4,4.8,79.3,4.8,79.3z M4.8,79C4.8,78.9,4.8,78.9,4.8,79L4.8,79c0.1-0.1,0.2-0.1,0.2,0
		l0,0C4.9,79,4.9,79,4.8,79L4.8,79C4.8,79,4.8,79,4.8,79z"/>
	<path id="onboarding_slide1_line_4" fill="#FFFFFF" d="M11,82.5C11,82.4,11.1,82.4,11,82.5L11,82.5c0.1-0.1,0.2-0.1,0.2,0l0,0
		C11.2,82.5,11.2,82.6,11,82.5L11,82.5C11.1,82.6,11,82.5,11,82.5z M11,82.2C11,82.1,11.1,82.1,11,82.2L11,82.2
		c0.1-0.1,0.2-0.1,0.2,0l0,0C11.2,82.2,11.2,82.3,11,82.2L11,82.2C11.1,82.3,11,82.2,11,82.2z M11,81.9C11,81.8,11.1,81.8,11,81.9
		L11,81.9c0.1-0.1,0.2,0,0.2,0l0,0C11.2,81.9,11.2,81.9,11,81.9L11,81.9C11.1,81.9,11,81.9,11,81.9z M11,81.5
		C11,81.5,11.1,81.4,11,81.5L11,81.5c0.1-0.1,0.2-0.1,0.2,0l0,0C11.2,81.6,11.2,81.6,11,81.5L11,81.5C11.1,81.6,11,81.6,11,81.5z
		 M11,81.2C11,81.2,11.1,81.1,11,81.2L11,81.2c0.1-0.1,0.2-0.1,0.2,0l0,0C11.2,81.3,11.2,81.3,11,81.2L11,81.2
		C11.1,81.3,11,81.3,11,81.2z M11,80.9C11,80.8,11.1,80.8,11,80.9L11,80.9c0.1-0.1,0.2-0.1,0.2,0l0,0C11.2,80.9,11.2,81,11,80.9
		L11,80.9C11.1,81,11,80.9,11,80.9z M11,80.6C11,80.5,11.1,80.5,11,80.6L11,80.6c0.1-0.1,0.2-0.1,0.2,0l0,0
		C11.2,80.6,11.2,80.7,11,80.6L11,80.6C11.1,80.6,11,80.6,11,80.6z M11,80.2C11,80.2,11.1,80.2,11,80.2L11,80.2
		c0.1-0.1,0.2-0.1,0.2,0l0,0C11.2,80.3,11.2,80.3,11,80.2L11,80.2C11.1,80.3,11,80.3,11,80.2z M11,79.9C11,79.9,11.1,79.8,11,79.9
		L11,79.9c0.1-0.1,0.2-0.1,0.2,0l0,0C11.2,80,11.2,80,11,79.9L11,79.9C11.1,80,11,80,11,79.9z M11,79.6C11,79.5,11.1,79.5,11,79.6
		L11,79.6c0.1-0.1,0.2-0.1,0.2,0l0,0C11.2,79.6,11.2,79.7,11,79.6L11,79.6C11.1,79.7,11,79.6,11,79.6z M11,79.3
		C11,79.2,11.1,79.2,11,79.3L11,79.3c0.1-0.1,0.2-0.1,0.2,0l0,0C11.2,79.3,11.2,79.4,11,79.3L11,79.3C11.1,79.4,11,79.3,11,79.3z
		 M11,79C11,78.9,11.1,78.9,11,79L11,79c0.1-0.1,0.2-0.1,0.2,0l0,0C11.2,79,11.2,79,11,79L11,79C11.1,79,11,79,11,79z"/>
	<path id="onboarding_slide1_line_3" fill="#FFFFFF" d="M17.3,82.5C17.3,82.4,17.4,82.4,17.3,82.5L17.3,82.5c0.1-0.1,0.2-0.1,0.2,0
		l0,0C17.5,82.5,17.5,82.6,17.3,82.5L17.3,82.5C17.4,82.6,17.3,82.5,17.3,82.5z M17.3,82.2C17.3,82.1,17.4,82.1,17.3,82.2L17.3,82.2
		c0.1-0.1,0.2-0.1,0.2,0l0,0C17.5,82.2,17.5,82.3,17.3,82.2L17.3,82.2C17.4,82.3,17.3,82.2,17.3,82.2z M17.3,81.9
		C17.3,81.8,17.4,81.8,17.3,81.9L17.3,81.9c0.1-0.1,0.2,0,0.2,0l0,0C17.5,81.9,17.5,81.9,17.3,81.9L17.3,81.9
		C17.4,81.9,17.3,81.9,17.3,81.9z M17.3,81.5C17.3,81.5,17.4,81.4,17.3,81.5L17.3,81.5c0.1-0.1,0.2-0.1,0.2,0l0,0
		C17.5,81.6,17.5,81.6,17.3,81.5L17.3,81.5C17.4,81.6,17.3,81.6,17.3,81.5z M17.3,81.2C17.3,81.2,17.4,81.1,17.3,81.2L17.3,81.2
		c0.1-0.1,0.2-0.1,0.2,0l0,0C17.5,81.3,17.5,81.3,17.3,81.2L17.3,81.2C17.4,81.3,17.3,81.3,17.3,81.2z M17.3,80.9
		C17.3,80.8,17.4,80.8,17.3,80.9L17.3,80.9c0.1-0.1,0.2-0.1,0.2,0l0,0C17.5,80.9,17.5,81,17.3,80.9L17.3,80.9
		C17.4,81,17.3,80.9,17.3,80.9z M17.3,80.6C17.3,80.5,17.4,80.5,17.3,80.6L17.3,80.6c0.1-0.1,0.2-0.1,0.2,0l0,0
		C17.5,80.6,17.5,80.7,17.3,80.6L17.3,80.6C17.4,80.6,17.3,80.6,17.3,80.6z M17.3,80.2C17.3,80.2,17.4,80.2,17.3,80.2L17.3,80.2
		c0.1-0.1,0.2-0.1,0.2,0l0,0C17.5,80.3,17.5,80.3,17.3,80.2L17.3,80.2C17.4,80.3,17.3,80.3,17.3,80.2z M17.3,79.9
		C17.3,79.9,17.4,79.8,17.3,79.9L17.3,79.9c0.1-0.1,0.2-0.1,0.2,0l0,0C17.5,80,17.5,80,17.3,79.9L17.3,79.9
		C17.4,80,17.3,80,17.3,79.9z M17.3,79.6C17.3,79.5,17.4,79.5,17.3,79.6L17.3,79.6c0.1-0.1,0.2-0.1,0.2,0l0,0
		C17.5,79.6,17.5,79.7,17.3,79.6L17.3,79.6C17.4,79.7,17.3,79.6,17.3,79.6z M17.3,79.3C17.3,79.2,17.4,79.2,17.3,79.3L17.3,79.3
		c0.1-0.1,0.2-0.1,0.2,0l0,0C17.5,79.3,17.5,79.4,17.3,79.3L17.3,79.3C17.4,79.4,17.3,79.3,17.3,79.3z M17.3,79
		C17.3,78.9,17.4,78.9,17.3,79L17.3,79c0.1-0.1,0.2-0.1,0.2,0l0,0C17.5,79,17.5,79,17.3,79L17.3,79C17.4,79,17.3,79,17.3,79z"/>
	<path id="onboarding_slide1_line_2" fill="#FFFFFF" d="M23.6,82.5C23.6,82.4,23.7,82.4,23.6,82.5L23.6,82.5c0.1-0.1,0.2-0.1,0.2,0
		l0,0C23.8,82.5,23.8,82.6,23.6,82.5L23.6,82.5C23.7,82.6,23.6,82.5,23.6,82.5z M23.6,82.2C23.6,82.1,23.7,82.1,23.6,82.2L23.6,82.2
		c0.1-0.1,0.2-0.1,0.2,0l0,0C23.8,82.2,23.8,82.3,23.6,82.2L23.6,82.2C23.7,82.3,23.6,82.2,23.6,82.2z M23.6,81.9
		C23.6,81.8,23.7,81.8,23.6,81.9L23.6,81.9c0.1-0.1,0.2-0.1,0.2,0l0,0C23.8,81.9,23.8,81.9,23.6,81.9L23.6,81.9
		C23.7,81.9,23.6,81.9,23.6,81.9z M23.6,81.5C23.6,81.5,23.7,81.4,23.6,81.5L23.6,81.5c0.1-0.1,0.2-0.1,0.2,0l0,0
		C23.8,81.6,23.8,81.6,23.6,81.5L23.6,81.5C23.7,81.6,23.6,81.6,23.6,81.5z M23.6,81.2C23.6,81.2,23.7,81.1,23.6,81.2L23.6,81.2
		c0.1-0.1,0.2-0.1,0.2,0l0,0C23.8,81.3,23.8,81.3,23.6,81.2L23.6,81.2C23.7,81.3,23.6,81.3,23.6,81.2z M23.6,80.9
		C23.6,80.8,23.7,80.8,23.6,80.9L23.6,80.9c0.1-0.1,0.2-0.1,0.2,0l0,0C23.8,80.9,23.8,81,23.6,80.9L23.6,80.9
		C23.7,81,23.6,80.9,23.6,80.9z M23.6,80.6C23.6,80.5,23.7,80.5,23.6,80.6L23.6,80.6c0.1-0.1,0.2-0.1,0.2,0l0,0
		C23.8,80.6,23.8,80.7,23.6,80.6L23.6,80.6C23.7,80.6,23.6,80.6,23.6,80.6z M23.6,80.2C23.6,80.2,23.7,80.2,23.6,80.2L23.6,80.2
		c0.1-0.1,0.2-0.1,0.2,0l0,0C23.8,80.3,23.8,80.3,23.6,80.2L23.6,80.2C23.7,80.3,23.6,80.3,23.6,80.2z M23.6,79.9
		C23.6,79.9,23.7,79.8,23.6,79.9L23.6,79.9c0.1-0.1,0.2-0.1,0.2,0l0,0C23.8,80,23.8,80,23.6,79.9L23.6,79.9
		C23.7,80,23.6,80,23.6,79.9z M23.6,79.6C23.6,79.5,23.7,79.5,23.6,79.6L23.6,79.6c0.1-0.1,0.2-0.1,0.2,0l0,0
		C23.8,79.6,23.8,79.7,23.6,79.6L23.6,79.6C23.7,79.7,23.6,79.6,23.6,79.6z M23.6,79.3C23.6,79.2,23.7,79.2,23.6,79.3L23.6,79.3
		c0.1-0.1,0.2-0.1,0.2,0l0,0C23.8,79.3,23.8,79.4,23.6,79.3L23.6,79.3C23.7,79.4,23.6,79.3,23.6,79.3z M23.6,79
		C23.6,78.9,23.7,78.9,23.6,79L23.6,79c0.1-0.1,0.2-0.1,0.2,0l0,0C23.8,79,23.8,79,23.6,79L23.6,79C23.7,79,23.6,79,23.6,79z"/>
	<path id="onboarding_slide1_line_1" fill="#FFFFFF" d="M29.9,82.5C29.9,82.4,29.9,82.4,29.9,82.5L29.9,82.5c0.1-0.1,0.2-0.1,0.2,0
		l0,0C30.1,82.5,30,82.6,29.9,82.5L29.9,82.5C29.9,82.6,29.9,82.5,29.9,82.5z M29.9,82.2C29.9,82.1,29.9,82.1,29.9,82.2L29.9,82.2
		c0.1-0.1,0.2-0.1,0.2,0l0,0C30.1,82.2,30,82.3,29.9,82.2L29.9,82.2C29.9,82.3,29.9,82.2,29.9,82.2z M29.9,81.9
		C29.9,81.8,29.9,81.8,29.9,81.9L29.9,81.9c0.1-0.1,0.2-0.1,0.2,0l0,0C30.1,81.9,30,81.9,29.9,81.9L29.9,81.9
		C29.9,81.9,29.9,81.9,29.9,81.9z M29.9,81.5C29.9,81.5,29.9,81.4,29.9,81.5L29.9,81.5c0.1-0.1,0.2-0.1,0.2,0l0,0
		C30.1,81.6,30,81.6,29.9,81.5L29.9,81.5C29.9,81.6,29.9,81.6,29.9,81.5z M29.9,81.2C29.9,81.2,29.9,81.1,29.9,81.2L29.9,81.2
		c0.1-0.1,0.2-0.1,0.2,0l0,0C30.1,81.3,30,81.3,29.9,81.2L29.9,81.2C29.9,81.3,29.9,81.3,29.9,81.2z M29.9,80.9
		C29.9,80.8,29.9,80.8,29.9,80.9L29.9,80.9c0.1-0.1,0.2-0.1,0.2,0l0,0C30.1,80.9,30,81,29.9,80.9L29.9,80.9
		C29.9,81,29.9,80.9,29.9,80.9z M29.9,80.6C29.9,80.5,29.9,80.5,29.9,80.6L29.9,80.6c0.1-0.1,0.2-0.1,0.2,0l0,0
		C30.1,80.6,30,80.7,29.9,80.6L29.9,80.6C29.9,80.6,29.9,80.6,29.9,80.6z M29.9,80.2C29.9,80.2,29.9,80.2,29.9,80.2L29.9,80.2
		c0.1-0.1,0.2-0.1,0.2,0l0,0C30.1,80.3,30,80.3,29.9,80.2L29.9,80.2C29.9,80.3,29.9,80.3,29.9,80.2z M29.9,79.9
		C29.9,79.9,29.9,79.8,29.9,79.9L29.9,79.9c0.1-0.1,0.2-0.1,0.2,0l0,0C30.1,80,30,80,29.9,79.9L29.9,79.9C29.9,80,29.9,80,29.9,79.9
		z M29.9,79.6C29.9,79.5,29.9,79.5,29.9,79.6L29.9,79.6c0.1-0.1,0.2-0.1,0.2,0l0,0C30.1,79.6,30,79.7,29.9,79.6L29.9,79.6
		C29.9,79.7,29.9,79.6,29.9,79.6z M29.9,79.3C29.9,79.2,29.9,79.2,29.9,79.3L29.9,79.3c0.1-0.1,0.2-0.1,0.2,0l0,0
		C30.1,79.3,30,79.4,29.9,79.3L29.9,79.3C29.9,79.4,29.9,79.3,29.9,79.3z M29.9,79C29.9,78.9,29.9,78.9,29.9,79L29.9,79
		c0.1-0.1,0.2-0.1,0.2,0l0,0C30.1,79,30,79,29.9,79L29.9,79C29.9,79,29.9,79,29.9,79z"/>
</g>
<g id="onboarding_slide_2_encrypted_hello_3">
	<g>
		<path fill="#FFCC4D" d="M31.8,86.4c0,1-0.8,1.9-1.9,1.9c-1,0-1.9-0.8-1.9-1.9c0-1,0.8-1.9,1.9-1.9C30.9,84.6,31.8,85.4,31.8,86.4"
			/>
		<ellipse fill="#664500" cx="29.9" cy="87.4" rx="0.6" ry="0.7"/>
		<path fill="#664500" d="M28.6,85.7C28.5,85.7,28.5,85.6,28.6,85.7c-0.1-0.1-0.1-0.1-0.1-0.2c0.4-0.5,0.8-0.5,0.9-0.5
			c0.1,0,0.1,0,0.1,0.1s0,0.1-0.1,0.1C29.3,85.2,28.9,85.2,28.6,85.7C28.6,85.6,28.6,85.7,28.6,85.7z"/>
		<path fill="#664500" d="M31.2,85.7C31.2,85.7,31.2,85.6,31.2,85.7c-0.4-0.4-0.8-0.4-0.8-0.4c-0.1,0-0.1-0.1-0.1-0.1
			c0-0.1,0-0.1,0.1-0.1c0,0,0.5,0,0.9,0.5C31.3,85.5,31.3,85.6,31.2,85.7C31.3,85.6,31.2,85.7,31.2,85.7z"/>
		<path fill="#664500" d="M29.4,86.2l0.2-0.2c0,0,0-0.1,0-0.2c0,0-0.1,0-0.2,0L29.3,86l-0.2-0.2c0,0-0.1,0-0.2,0c0,0,0,0.1,0,0.2
			l0.2,0.2l-0.2,0.2c0,0,0,0.1,0,0.2c0,0,0.1,0,0.1,0s0.1,0,0.1,0l0.2-0.2l0.2,0.2c0,0,0.1,0,0.1,0s0.1,0,0.1,0c0,0,0-0.1,0-0.2
			L29.4,86.2z"/>
		<path fill="#664500" d="M30.7,86.2l0.2-0.2c0,0,0-0.1,0-0.2c0,0-0.1,0-0.2,0L30.5,86l-0.2-0.2c0,0-0.1,0-0.2,0c0,0,0,0.1,0,0.2
			l0.2,0.2l-0.2,0.2c0,0,0,0.1,0,0.2c0,0,0.1,0,0.1,0s0.1,0,0.1,0l0.2-0.2l0.2,0.2c0,0,0.1,0,0.1,0c0,0,0.1,0,0.1,0c0,0,0-0.1,0-0.2
			L30.7,86.2z"/>
	</g>
	<g>
		<path fill="#553788" d="M22.8,85.8c0.3,0.6,0,1.2-0.3,1.1c-0.3-0.1-0.4,0.2-0.1,0.3c0.3,0.1,1.1-0.1,1.4-0.4
			c0.1-0.1,0.2-0.1,0.2-0.1L22.8,85.8z"/>
		<path fill="#553788" d="M24.5,85.8c-0.3,0.6,0,1.2,0.3,1.1c0.3-0.1,0.4,0.2,0.1,0.3c-0.3,0.1-1.1-0.1-1.4-0.4
			c-0.1-0.1-0.2-0.1-0.2-0.1L24.5,85.8z"/>
		<path fill="#744EAA" d="M25,86.2c-0.3,0.6,0,1.2,0.3,1.1c0.3-0.1,0.4,0.2,0.1,0.3c-0.3,0.1-1.1-0.1-1.4-0.4
			c-0.1-0.1-0.2-0.1-0.2-0.1L25,86.2z"/>
		<path fill="#744EAA" d="M22.3,86.2c0.3,0.6,0,1.2-0.3,1.1c-0.3-0.1-0.4,0.2-0.1,0.3c0.3,0.1,1.1-0.1,1.4-0.4
			c0.1-0.1,0.2-0.1,0.2-0.1L22.3,86.2z"/>
		<path fill="#9266CC" d="M25.3,87.9c-0.3,0.1-0.7-0.6-0.5-1.2c0.2-0.4,0.3-0.8,0.3-1.1c0-0.8-0.6-1.2-1.4-1.2
			c-0.8,0-1.4,0.4-1.4,1.2c0,0.3,0.1,0.7,0.3,1.1c0.2,0.6-0.2,1.3-0.5,1.2c-0.3-0.1-0.4,0.3-0.1,0.4c0.3,0.1,0.9-0.1,1.3-0.4
			c0.2-0.2,0.5-0.2,0.5-0.2s0.2,0,0.5,0.2c0.4,0.4,1,0.6,1.3,0.4C25.8,88.3,25.7,87.8,25.3,87.9z"/>
		<circle fill="#292F33" cx="23.2" cy="86.8" r="0.2"/>
		<circle fill="#292F33" cx="24.1" cy="86.8" r="0.2"/>
	</g>
	<g>
		<path fill="#553788" d="M16.5,85.8c0.3,0.6,0,1.2-0.3,1.1c-0.3-0.1-0.4,0.2-0.1,0.3c0.3,0.1,1.1-0.1,1.4-0.4
			c0.1-0.1,0.2-0.1,0.2-0.1L16.5,85.8z"/>
		<path fill="#553788" d="M18.3,85.8c-0.3,0.6,0,1.2,0.3,1.1c0.3-0.1,0.4,0.2,0.1,0.3c-0.3,0.1-1.1-0.1-1.4-0.4
			c-0.1-0.1-0.2-0.1-0.2-0.1L18.3,85.8z"/>
		<path fill="#744EAA" d="M18.7,86.2c-0.3,0.6,0,1.2,0.3,1.1c0.3-0.1,0.4,0.2,0.1,0.3c-0.3,0.1-1.1-0.1-1.4-0.4
			c-0.1-0.1-0.2-0.1-0.2-0.1L18.7,86.2z"/>
		<path fill="#744EAA" d="M16,86.2c0.3,0.6,0,1.2-0.3,1.1c-0.3-0.1-0.4,0.2-0.1,0.3c0.3,0.1,1.1-0.1,1.4-0.4
			c0.1-0.1,0.2-0.1,0.2-0.1L16,86.2z"/>
		<path fill="#9266CC" d="M19.1,87.9c-0.3,0.1-0.7-0.6-0.5-1.2c0.2-0.4,0.3-0.8,0.3-1.1c0-0.8-0.6-1.2-1.4-1.2s-1.4,0.4-1.4,1.2
			c0,0.3,0.1,0.7,0.3,1.1c0.2,0.6-0.2,1.3-0.5,1.2c-0.3-0.1-0.4,0.3-0.1,0.4c0.3,0.1,0.9-0.1,1.3-0.4c0.2-0.2,0.5-0.2,0.5-0.2
			s0.2,0,0.5,0.2c0.4,0.4,1,0.6,1.3,0.4C19.5,88.3,19.4,87.8,19.1,87.9z"/>
		<circle fill="#292F33" cx="16.9" cy="86.8" r="0.2"/>
		<circle fill="#292F33" cx="17.8" cy="86.8" r="0.2"/>
	</g>
	<g>
		<path fill="#FDD888" d="M12.7,87.1c-0.1-0.7-0.4-1.1-0.4-1.1l-0.7-0.9h-0.1h-0.3h-0.3h-0.1L10,86c0,0-0.2,0.2-0.3,0.5
			c-0.2,0.1-0.4,0.3-0.4,0.5c0,0.2,0.1,0.3,0.2,0.4c0,0.1-0.1,0.2-0.1,0.3c0,0.2,0.1,0.4,0.3,0.5c0.1,0.2,0.3,0.3,0.5,0.3H12
			c0.2,0,0.4-0.1,0.5-0.4c0.2-0.1,0.4-0.3,0.4-0.5C12.9,87.4,12.8,87.2,12.7,87.1z"/>
		<path fill="#FDD888" d="M11.1,85.1c0.1,0,0.1,0,0.2,0c0,0,0.1,0,0.2,0c0.2,0,0.4-0.3,0.4-0.4c0,0,0-0.2-0.2-0.2
			c-0.1,0-0.1,0.1-0.2,0.1c-0.1,0-0.1-0.1-0.3-0.1c-0.2,0-0.2,0.1-0.3,0.1c-0.1,0-0.1-0.1-0.2-0.1c-0.2,0-0.2,0.2-0.2,0.2
			c0,0.2,0.3,0.4,0.4,0.4c0.1,0,0.1,0,0.2,0C11,85.1,11.1,85.1,11.1,85.1z"/>
		<path fill="#BF6952" d="M11.8,85.1c0,0.1,0,0.1-0.1,0.1h-1.1c-0.1,0-0.1,0-0.1-0.1l0,0c0-0.1,0-0.1,0.1-0.1h1.1
			C11.7,85,11.8,85,11.8,85.1L11.8,85.1z"/>
		<path fill="#67757F" d="M11.8,87.2c0-0.5-1-0.5-1-0.8c0-0.1,0.1-0.2,0.3-0.2c0.3,0,0.3,0.2,0.5,0.2c0.1,0,0.1-0.1,0.1-0.1
			c0-0.1-0.2-0.3-0.4-0.3v-0.1c0-0.1-0.1-0.2-0.2-0.2c-0.1,0-0.2,0.1-0.2,0.2V86c-0.2,0.1-0.4,0.2-0.4,0.5c0,0.5,1,0.5,1,0.8
			c0,0.1-0.1,0.2-0.3,0.2c-0.3,0-0.4-0.2-0.6-0.2c-0.1,0-0.1,0.1-0.1,0.1c0,0.1,0.2,0.3,0.5,0.3l0,0v0.2c0,0.1,0.1,0.2,0.2,0.2
			c0.1,0,0.2-0.1,0.2-0.2v-0.2l0,0C11.5,87.6,11.8,87.5,11.8,87.2z"/>
	</g>
	<g>
		<path fill="#3E721D" d="M5.9,87.4c-0.9,0-0.9,0.7-0.9,0.7v-1.3H4.6v1.3c0,0,0-0.7-0.9-0.7c-0.4,0-0.8-0.3-0.8-0.3s0,1,1,1
			c0.4,0,0.7,0,0.7,0s0,0.2,0.2,0.2c0.2,0,0.2-0.2,0.2-0.2s0.2,0,0.7,0c1,0,1-1,1-1S6.4,87.4,5.9,87.4z"/>
		<path fill="#FFAC33" d="M5.2,87.5C5.2,87.5,5.1,87.5,5.2,87.5l-0.4-0.2l-0.3,0.2c0,0-0.1,0-0.1,0c0,0,0,0,0,0
			c-0.1,0-0.1,0-0.1-0.1l-0.1-0.3l-0.3,0h0c0,0-0.1,0-0.1-0.1c0,0-0.1-0.1-0.1-0.1l0-0.3l-0.3-0.1c0,0-0.1-0.1-0.1-0.1
			c0-0.1,0-0.1,0-0.2L3.5,86l-0.2-0.3c0,0,0-0.1,0-0.2c0-0.1,0-0.1,0.1-0.1l0.3-0.1l0-0.3c0-0.1,0-0.1,0.1-0.1c0,0,0.1-0.1,0.1-0.1
			h0l0.3,0l0.1-0.3c0,0,0.1-0.1,0.1-0.1c0,0,0,0,0,0c0,0,0.1,0,0.1,0l0.3,0.2l0.3-0.2c0,0,0.1,0,0.1,0c0,0,0,0,0,0
			c0.1,0,0.1,0,0.1,0.1l0.1,0.3l0.3,0h0c0,0,0.1,0,0.1,0.1C6,84.9,6,84.9,6,85l0,0.3l0.3,0.1c0,0,0.1,0.1,0.1,0.1c0,0.1,0,0.1,0,0.2
			L6.2,86l0.2,0.3c0,0,0,0.1,0,0.2c0,0.1,0,0.1-0.1,0.1L6,86.6l0,0.3C6,87,6,87,6,87.1c0,0-0.1,0.1-0.1,0.1h0l-0.3,0l-0.1,0.3
			C5.4,87.4,5.3,87.5,5.2,87.5C5.2,87.5,5.2,87.5,5.2,87.5z"/>
		<circle fill="#732700" cx="4.9" cy="86" r="0.8"/>
	</g>
</g>
<g id="onboarding_slide_2_encrypted_hello">
	<g>
		<path fill="#C6E5B3" d="M31.9,86.8c0,0.8-0.9,1.3-2,1.3c-1.1,0-2-0.5-2-1.3c0-0.8,0.9-1.7,2-1.7C31,85.2,31.9,86,31.9,86.8z"/>
		<path fill="#77B255" d="M31.4,85.8c0.2-0.1,0.2-0.3,0.2-0.5c0-0.4-0.3-0.7-0.7-0.7c-0.3,0-0.6,0.2-0.7,0.5
			C30.2,85.1,30,85,29.9,85c-0.2,0-0.3,0-0.5,0.1c-0.1-0.3-0.3-0.5-0.7-0.5c-0.4,0-0.7,0.3-0.7,0.7c0,0.2,0.1,0.4,0.2,0.5
			c-0.3,0.3-0.5,0.7-0.5,1c0,0.8,0.9,0.1,2,0.1c1.1,0,2,0.7,2-0.1C31.9,86.5,31.7,86.1,31.4,85.8z"/>
		<circle fill="#FFFFFF" cx="28.7" cy="85.2" r="0.4"/>
		<circle fill="#292F33" cx="28.7" cy="85.2" r="0.2"/>
		<circle fill="#FFFFFF" cx="31.1" cy="85.2" r="0.4"/>
		<circle fill="#292F33" cx="31.1" cy="85.2" r="0.2"/>
		<circle fill="#5C913B" cx="29.5" cy="86.6" r="0.1"/>
		<circle fill="#5C913B" cx="30.3" cy="86.6" r="0.1"/>
	</g>
	<g>
		<path fill="#292F33" d="M25.5,87.7c0,0,0.1,0.1,0.1,0.2c0,0.1-0.1,0.2-0.2,0.2c-0.1,0-1.7,0-2,0s-0.2-0.4-0.6-1.1
			c-0.3-0.7-0.7-0.2-0.7-0.2L22,88.1h-0.3c0,0,0-1.4,0-1.6c0-0.2-0.1-0.5-0.1-0.6c0-0.2,0.1-0.5,0.1-0.5l0.8,0.3L25.5,87.7z"/>
		<path fill="#9266CC" d="M21.8,85.7c0.3,0.1,1.1,0.5,1.5,1.9c0,0,0,0.2,0.3,0.2c0.3,0,1.8,0,1.8,0s0.1-0.1,0.1-0.3
			c0-0.1-0.7-0.4-0.9-0.5c-0.3-0.1-0.5-0.5-0.5-0.5s-0.5,0.2-1.3-0.7c-0.8-0.8-0.5-1.2-0.7-1.2c-0.1,0-0.4,0.4-0.5,0.8
			C21.7,85.5,21.7,85.6,21.8,85.7z"/>
	</g>
	<g>
		<path fill="#292F33" d="M19.2,87.7c0,0,0.1,0.1,0.1,0.2c0,0.1-0.1,0.2-0.2,0.2c-0.1,0-1.7,0-2,0c-0.2,0-0.2-0.4-0.6-1.1
			c-0.3-0.7-0.7-0.2-0.7-0.2l-0.1,1.4h-0.2c0,0,0-1.4,0-1.6c0-0.2-0.1-0.5-0.1-0.6c0-0.2,0.1-0.5,0.1-0.5l0.7,0.3L19.2,87.7z"/>
		<path fill="#9266CC" d="M15.6,85.7c0.3,0.1,1.1,0.5,1.6,1.9c0,0,0,0.2,0.3,0.2c0.3,0,1.8,0,1.8,0s0.1-0.1,0.1-0.3
			c0-0.1-0.7-0.4-0.9-0.5c-0.3-0.1-0.5-0.5-0.5-0.5s-0.5,0.2-1.3-0.7c-0.8-0.8-0.5-1.2-0.7-1.2c-0.1,0-0.4,0.4-0.5,0.8
			C15.4,85.5,15.5,85.6,15.6,85.7z"/>
	</g>
	<g>
		<path fill="#8899A6" d="M13.1,86.4c0,1.1-0.9,2-2,2s-2-0.9-2-2c0-1.1,0.9-2,2-2S13.1,85.3,13.1,86.4z M11.1,86.1
			c-0.2,0-0.3,0.1-0.3,0.3c0,0.2,0.1,0.3,0.3,0.3c0.2,0,0.3-0.1,0.3-0.3C11.5,86.2,11.3,86.1,11.1,86.1z"/>
		<g>
			<g>
				<defs>
					<path id="SVGID_1_" d="M12.9,86.4c0,1-0.8,1.8-1.8,1.8s-1.8-0.8-1.8-1.8c0-1,0.8-1.8,1.8-1.8S12.9,85.4,12.9,86.4z M11.1,85.9
						c-0.3,0-0.5,0.2-0.5,0.5c0,0.3,0.2,0.5,0.5,0.5c0.3,0,0.5-0.2,0.5-0.5C11.7,86.1,11.4,85.9,11.1,85.9z"/>
				</defs>
				<clipPath id="SVGID_2_">
					<use xlink:href="#SVGID_1_"  overflow="visible"/>
				</clipPath>
				<polygon clip-path="url(#SVGID_2_)" fill="#CCD6DD" points="11.1,86.4 9.1,86.2 9.1,84.5 10.9,84.5 				"/>
			</g>
			<g>
				<defs>
					<path id="SVGID_3_" d="M12.9,86.4c0,1-0.8,1.8-1.8,1.8s-1.8-0.8-1.8-1.8c0-1,0.8-1.8,1.8-1.8S12.9,85.4,12.9,86.4z M11.1,85.9
						c-0.3,0-0.5,0.2-0.5,0.5c0,0.3,0.2,0.5,0.5,0.5c0.3,0,0.5-0.2,0.5-0.5C11.7,86.1,11.4,85.9,11.1,85.9z"/>
				</defs>
				<clipPath id="SVGID_4_">
					<use xlink:href="#SVGID_3_"  overflow="visible"/>
				</clipPath>
				<polygon clip-path="url(#SVGID_4_)" fill="#CCD6DD" points="11.1,86.4 13.1,86.7 13.1,88.5 11.3,88.5 				"/>
			</g>
			<g>
				<defs>
					<path id="SVGID_5_" d="M12.9,86.4c0,1-0.8,1.8-1.8,1.8s-1.8-0.8-1.8-1.8c0-1,0.8-1.8,1.8-1.8S12.9,85.4,12.9,86.4z M11.1,85.9
						c-0.3,0-0.5,0.2-0.5,0.5c0,0.3,0.2,0.5,0.5,0.5c0.3,0,0.5-0.2,0.5-0.5C11.7,86.1,11.4,85.9,11.1,85.9z"/>
				</defs>
				<clipPath id="SVGID_6_">
					<use xlink:href="#SVGID_5_"  overflow="visible"/>
				</clipPath>
				<polygon clip-path="url(#SVGID_6_)" fill="#F5F8FA" points="11.1,86.4 11.4,88.5 13.1,88.4 				"/>
			</g>
			<g>
				<defs>
					<path id="SVGID_7_" d="M12.9,86.4c0,1-0.8,1.8-1.8,1.8s-1.8-0.8-1.8-1.8c0-1,0.8-1.8,1.8-1.8S12.9,85.4,12.9,86.4z M11.1,85.9
						c-0.3,0-0.5,0.2-0.5,0.5c0,0.3,0.2,0.5,0.5,0.5c0.3,0,0.5-0.2,0.5-0.5C11.7,86.1,11.4,85.9,11.1,85.9z"/>
				</defs>
				<clipPath id="SVGID_8_">
					<use xlink:href="#SVGID_7_"  overflow="visible"/>
				</clipPath>
				<polygon clip-path="url(#SVGID_8_)" fill="#F5F8FA" points="11.1,86.4 9.1,84.4 10.9,84.3 				"/>
			</g>
		</g>
	</g>
	<g>
		<path fill="#E75A70" d="M5.6,86.6c0-0.4-0.3-0.8-0.8-0.8c-0.3,0-0.5,0.1-0.6,0.3c-0.1-0.2-0.4-0.3-0.6-0.3c-0.4,0-0.8,0.3-0.8,0.8
			c0,0.1,0,0.1,0,0.2c0.1,0.7,0.8,1.3,1.3,1.5c0.5-0.2,1.2-0.9,1.3-1.5C5.6,86.7,5.6,86.6,5.6,86.6z"/>
		<path fill="#E75A70" d="M6.9,85c0-0.3-0.2-0.5-0.5-0.5c-0.2,0-0.3,0.1-0.4,0.2c-0.1-0.1-0.2-0.2-0.4-0.2C5.2,84.5,5,84.7,5,85
			c0,0,0,0.1,0,0.1c0.1,0.5,0.6,0.9,0.9,1.1c0.4-0.1,0.9-0.6,0.9-1.1C6.8,85.1,6.9,85.1,6.9,85z"/>
	</g>
</g>
<g id="onboarding_slide_2_encrypted_hello_2">
	<g>
		<path fill="#E1E8ED" d="M31.9,85.7c0-0.1-0.1-0.2-0.2-0.2s-0.2,0.1-0.2,0.2c0,0,0,0.4-0.3,0.4v-0.3c0-0.7-0.5-1.2-1.2-1.2
			s-1.2,0.5-1.2,1.2v0.4c-0.6,0.2-0.8,0.9-0.8,1.3c0,0.1,0.1,0.2,0.2,0.2s0.2-0.1,0.2-0.2c0,0,0-0.4,0.4-0.4
			c0.1,0.5,0.2,1.1,0.4,1.1c0,0,0.1,0,0.1,0c0.4,0,0.3,0.2,0.8,0.2c0.4,0,0.3-0.2,0.7-0.2c0.3,0,0.3,0.2,0.7,0.2
			c0.2,0,0.3-0.1,0.3-0.3c0-0.1-0.3-0.6-0.4-1C31.9,86.8,31.9,86.1,31.9,85.7z"/>
		<circle fill="#292F33" cx="29.3" cy="85.8" r="0.2"/>
		<circle fill="#292F33" cx="30.4" cy="85.8" r="0.4"/>
		<circle fill="#9AAAB4" cx="30.4" cy="85.9" r="0.2"/>
		
			<ellipse transform="matrix(-0.7999 -0.6001 0.6001 -0.7999 1.884 174.6525)" fill="#292F33" cx="30.1" cy="87" rx="0.7" ry="0.5"/>
	</g>
	<g>
		<path fill="#99AAB5" d="M24.6,88.1c0,0.2-0.2,0.3-0.4,0.3h-1.1c-0.2,0-0.4-0.1-0.4-0.3l0,0c0-0.2,0.3-0.8,0.3-1.4s1.3-0.7,1.3,0
			S24.6,87.9,24.6,88.1L24.6,88.1z"/>
		<g>
			<g>
				<defs>
					<path id="SVGID_9_" d="M23.6,84.4c-1.1,0-2,0.9-2,2c0,0.2,0.2,0.5,0.4,0.5h3.1c0.2,0,0.4-0.2,0.4-0.5
						C25.6,85.3,24.7,84.4,23.6,84.4z"/>
				</defs>
				<clipPath id="SVGID_10_">
					<use xlink:href="#SVGID_9_"  overflow="visible"/>
				</clipPath>
				<path clip-path="url(#SVGID_10_)" fill="#DD2E44" d="M23.6,84.4c-1.2,0-2.1,1-2.1,2.1c0,0.3,0.2,0.5,0.5,0.5h3.3
					c0.3,0,0.5-0.3,0.5-0.5C25.7,85.3,24.8,84.4,23.6,84.4z"/>
			</g>
			<g>
				<defs>
					<path id="SVGID_11_" d="M23.6,84.4c-1.1,0-2,0.9-2,2c0,0.2,0.2,0.5,0.4,0.5h3.1c0.2,0,0.4-0.2,0.4-0.5
						C25.6,85.3,24.7,84.4,23.6,84.4z"/>
				</defs>
				<clipPath id="SVGID_12_">
					<use xlink:href="#SVGID_11_"  overflow="visible"/>
				</clipPath>
				<g clip-path="url(#SVGID_12_)">
					<path fill="#F4ABBA" d="M22.5,86.2c-0.4,0-0.7-0.3-0.7-0.7c0-0.4,0.3-0.7,0.7-0.7c0.4,0,0.7,0.3,0.7,0.7
						C23.2,85.9,22.9,86.2,22.5,86.2z"/>
					<path fill="#F4ABBA" d="M22.5,84.9c0.4,0,0.7,0.3,0.7,0.7c0,0.4-0.3,0.7-0.7,0.7c-0.4,0-0.7-0.3-0.7-0.7
						C21.8,85.2,22.1,84.9,22.5,84.9 M22.5,84.9c-0.4,0-0.7,0.3-0.7,0.7c0,0.4,0.3,0.7,0.7,0.7c0.4,0,0.7-0.3,0.7-0.7
						C23.2,85.2,22.9,84.9,22.5,84.9L22.5,84.9z"/>
				</g>
			</g>
			<g>
				<defs>
					<path id="SVGID_13_" d="M23.6,84.4c-1.1,0-2,0.9-2,2c0,0.2,0.2,0.5,0.4,0.5h3.1c0.2,0,0.4-0.2,0.4-0.5
						C25.6,85.3,24.7,84.4,23.6,84.4z"/>
				</defs>
				<clipPath id="SVGID_14_">
					<use xlink:href="#SVGID_13_"  overflow="visible"/>
				</clipPath>
				<path clip-path="url(#SVGID_14_)" fill="#F4ABBA" d="M25.5,85.7c-0.1-0.3-0.3-0.5-0.5-0.7c-0.3,0-0.5,0.2-0.5,0.5S24.7,86,25,86
					C25.2,86,25.4,85.8,25.5,85.7z"/>
			</g>
			<g>
				<defs>
					<path id="SVGID_15_" d="M23.6,84.4c-1.1,0-2,0.9-2,2c0,0.2,0.2,0.5,0.4,0.5h3.1c0.2,0,0.4-0.2,0.4-0.5
						C25.6,85.3,24.7,84.4,23.6,84.4z"/>
				</defs>
				<clipPath id="SVGID_16_">
					<use xlink:href="#SVGID_15_"  overflow="visible"/>
				</clipPath>
				<circle clip-path="url(#SVGID_16_)" fill="#F4ABBA" cx="24" cy="86.2" r="0.5"/>
			</g>
			<g>
				<defs>
					<path id="SVGID_17_" d="M23.6,84.4c-1.1,0-2,0.9-2,2c0,0.2,0.2,0.5,0.4,0.5h3.1c0.2,0,0.4-0.2,0.4-0.5
						C25.6,85.3,24.7,84.4,23.6,84.4z"/>
				</defs>
				<clipPath id="SVGID_18_">
					<use xlink:href="#SVGID_17_"  overflow="visible"/>
				</clipPath>
				<circle clip-path="url(#SVGID_18_)" fill="#F4ABBA" cx="23.8" cy="85" r="0.3"/>
			</g>
		</g>
	</g>
	<g>
		<path fill="#99AAB5" d="M18.3,88.1c0,0.2-0.2,0.3-0.4,0.3h-1.1c-0.2,0-0.4-0.1-0.4-0.3l0,0c0-0.2,0.3-0.8,0.3-1.4s1.3-0.7,1.3,0
			S18.3,87.9,18.3,88.1L18.3,88.1z"/>
		<g>
			<g>
				<defs>
					<path id="SVGID_19_" d="M17.3,84.5c-1.1,0-2,0.9-2,2c0,0.2,0.2,0.5,0.4,0.5h3.1c0.2,0,0.4-0.2,0.4-0.5
						C19.3,85.3,18.5,84.5,17.3,84.5z"/>
				</defs>
				<clipPath id="SVGID_20_">
					<use xlink:href="#SVGID_19_"  overflow="visible"/>
				</clipPath>
				<path clip-path="url(#SVGID_20_)" fill="#DD2E44" d="M17.3,84.4c-1.2,0-2.1,1-2.1,2.1c0,0.3,0.2,0.5,0.5,0.5H19
					c0.3,0,0.5-0.2,0.5-0.5C19.5,85.3,18.5,84.4,17.3,84.4z"/>
			</g>
			<g>
				<defs>
					<path id="SVGID_21_" d="M17.3,84.5c-1.1,0-2,0.9-2,2c0,0.2,0.2,0.5,0.4,0.5h3.1c0.2,0,0.4-0.2,0.4-0.5
						C19.3,85.3,18.5,84.5,17.3,84.5z"/>
				</defs>
				<clipPath id="SVGID_22_">
					<use xlink:href="#SVGID_21_"  overflow="visible"/>
				</clipPath>
				<g clip-path="url(#SVGID_22_)">
					<path fill="#F4ABBA" d="M16.2,86.3c-0.4,0-0.7-0.3-0.7-0.7s0.3-0.7,0.7-0.7c0.4,0,0.7,0.3,0.7,0.7S16.6,86.3,16.2,86.3z"/>
					<path fill="#F4ABBA" d="M16.2,84.9c0.4,0,0.7,0.3,0.7,0.7s-0.3,0.7-0.7,0.7c-0.4,0-0.7-0.3-0.7-0.7
						C15.5,85.2,15.8,84.9,16.2,84.9 M16.2,84.9c-0.4,0-0.7,0.3-0.7,0.7c0,0.4,0.3,0.7,0.7,0.7c0.4,0,0.7-0.3,0.7-0.7
						C16.9,85.2,16.6,84.9,16.2,84.9L16.2,84.9z"/>
				</g>
			</g>
			<g>
				<defs>
					<path id="SVGID_23_" d="M17.3,84.5c-1.1,0-2,0.9-2,2c0,0.2,0.2,0.5,0.4,0.5h3.1c0.2,0,0.4-0.2,0.4-0.5
						C19.3,85.3,18.5,84.5,17.3,84.5z"/>
				</defs>
				<clipPath id="SVGID_24_">
					<use xlink:href="#SVGID_23_"  overflow="visible"/>
				</clipPath>
				<path clip-path="url(#SVGID_24_)" fill="#F4ABBA" d="M19.2,85.7c-0.1-0.3-0.3-0.5-0.5-0.7c-0.3,0-0.5,0.2-0.5,0.5
					c0,0.3,0.2,0.5,0.5,0.5C18.9,86,19.1,85.9,19.2,85.7z"/>
			</g>
			<g>
				<defs>
					<path id="SVGID_25_" d="M17.3,84.5c-1.1,0-2,0.9-2,2c0,0.2,0.2,0.5,0.4,0.5h3.1c0.2,0,0.4-0.2,0.4-0.5
						C19.3,85.3,18.5,84.5,17.3,84.5z"/>
				</defs>
				<clipPath id="SVGID_26_">
					<use xlink:href="#SVGID_25_"  overflow="visible"/>
				</clipPath>
				<circle clip-path="url(#SVGID_26_)" fill="#F4ABBA" cx="17.7" cy="86.2" r="0.5"/>
			</g>
			<g>
				<defs>
					<path id="SVGID_27_" d="M17.3,84.5c-1.1,0-2,0.9-2,2c0,0.2,0.2,0.5,0.4,0.5h3.1c0.2,0,0.4-0.2,0.4-0.5
						C19.3,85.3,18.5,84.5,17.3,84.5z"/>
				</defs>
				<clipPath id="SVGID_28_">
					<use xlink:href="#SVGID_27_"  overflow="visible"/>
				</clipPath>
				<circle clip-path="url(#SVGID_28_)" fill="#F4ABBA" cx="17.6" cy="85" r="0.3"/>
			</g>
		</g>
	</g>
	<g>
		<path fill="#FFCC4D" d="M12.3,86.4c-0.1,0.1-0.2,0.3-0.2,0.5l0.1,0.7c0,0.2-0.1,0.2-0.2,0.2l-0.7-0.3c-0.1-0.1-0.4-0.1-0.5,0
			l-0.6,0.3c-0.1,0.1-0.2,0-0.2-0.2l0.1-0.7c0-0.2-0.1-0.4-0.2-0.5l-0.5-0.5c-0.1-0.1-0.1-0.2,0.1-0.3l0.7-0.1
			c0.2,0,0.3-0.2,0.4-0.3l0.3-0.6c0.1-0.1,0.2-0.1,0.3,0l0.3,0.6c0.1,0.1,0.3,0.3,0.4,0.3l0.7,0.1c0.2,0,0.2,0.1,0.1,0.3L12.3,86.4z
			"/>
		<path fill="#FFD983" d="M10.2,84.7c0.1,0.2,0.3,0.5,0.2,0.6c-0.1,0.1-0.4-0.2-0.5-0.4c-0.1-0.2-0.1-0.3,0-0.4
			C9.9,84.5,10.1,84.5,10.2,84.7z"/>
		<path fill="#FFD983" d="M12.3,84.9c-0.1,0.2-0.4,0.4-0.5,0.4c-0.1-0.1,0.1-0.4,0.2-0.6c0.1-0.2,0.2-0.2,0.3-0.1
			S12.4,84.8,12.3,84.9z"/>
		<path fill="#FFD983" d="M10.9,88.1c0-0.2,0.1-0.6,0.2-0.6c0.1,0,0.2,0.4,0.2,0.6c0,0.2-0.1,0.3-0.2,0.3
			C11,88.4,10.9,88.3,10.9,88.1z"/>
		<path fill="#FFD983" d="M12.7,87.1c-0.2-0.1-0.5-0.3-0.5-0.4s0.4-0.1,0.6,0c0.2,0.1,0.3,0.2,0.2,0.3C13,87.1,12.9,87.2,12.7,87.1z
			"/>
		<path fill="#FFD983" d="M9.3,86.7c0.2-0.1,0.6-0.1,0.6,0c0,0.1-0.3,0.3-0.5,0.4c-0.2,0.1-0.3,0-0.3-0.1
			C9.1,86.9,9.1,86.8,9.3,86.7z"/>
	</g>
	<g>
		<path fill="#66757F" d="M6.6,88.1c0,0.1-0.1,0.2-0.2,0.2H6c-0.1,0-0.2-0.1-0.2-0.2v-0.9C5.8,87.1,5.9,87,6,87h0.3
			c0.1,0,0.2,0.1,0.2,0.2V88.1z"/>
		<path fill="#66757F" d="M3.8,88.1c0,0.1-0.1,0.2-0.2,0.2H3.3c-0.1,0-0.2-0.1-0.2-0.2v-0.9C3,87.1,3.1,87,3.3,87h0.3
			c0.1,0,0.2,0.1,0.2,0.2V88.1z"/>
		<path fill="#66757F" d="M3.4,86.2c0,0.1-0.1,0.2-0.2,0.2H3c-0.1,0-0.2-0.1-0.2-0.2l0,0C2.8,86.1,2.9,86,3,86h0.2
			C3.3,86,3.4,86.1,3.4,86.2L3.4,86.2z"/>
		<path fill="#66757F" d="M6.8,86.2c0-0.1-0.1-0.2-0.2-0.2H6.4c-0.1,0-0.2,0.1-0.2,0.2l0,0c0,0.1,0.1,0.2,0.2,0.2h0.2
			C6.7,86.4,6.8,86.3,6.8,86.2L6.8,86.2z"/>
		<path fill="#CCD6DD" d="M3.9,85c0.4-0.1,1.6-0.1,2,0c0.4,0.1,0.5,1.2,0.5,1.2s0.2,0,0.2,0.4s0,0.9,0,0.9s0,0.3-0.3,0.4
			c-0.4,0.1-0.9,0.1-1.4,0.1s-1,0-1.5-0.1C3.1,87.8,3,87.5,3,87.5v-0.9c0,0,0-0.4,0.2-0.4C3.3,86.2,3.4,85.1,3.9,85z"/>
		<path fill="#292F33" d="M4.8,86.7c-0.6,0-1.2,0-1.8,0v0.8c0,0,0,0.3,0.4,0.4c0.4,0.1,0.9,0.1,1.5,0.1s1,0,1.4-0.1
			c0.3-0.1,0.3-0.4,0.3-0.4s0-0.4,0-0.8C6.1,86.7,5.4,86.7,4.8,86.7z"/>
		<path fill="#55ACEE" d="M4.9,86.1c0.4,0,1,0,1.3,0.1l-0.1-0.6c-0.1-0.3-0.8-0.3-1.2-0.3c-0.4,0-1.1,0-1.2,0.3l-0.1,0.6
			C3.9,86.1,4.4,86.1,4.9,86.1z"/>
		<path fill="#CCD6DD" d="M4.2,87.1c0,0.1-0.1,0.2-0.2,0.2H3.5c-0.1,0-0.2-0.1-0.2-0.2l0,0c0-0.1,0.1-0.2,0.2-0.2h0.4
			C4.1,86.9,4.2,87,4.2,87.1L4.2,87.1z"/>
		<path fill="#CCD6DD" d="M6.4,87.1c0-0.1-0.1-0.2-0.2-0.2H5.7c-0.1,0-0.2,0.1-0.2,0.2l0,0c0,0.1,0.1,0.2,0.2,0.2h0.4
			C6.3,87.4,6.4,87.3,6.4,87.1L6.4,87.1z"/>
		<path fill="#66757F" d="M6,87.6c0,0.1-0.1,0.2-0.2,0.2H3.8c-0.1,0-0.2-0.1-0.2-0.2l0,0c0-0.1,0.1-0.2,0.2-0.2h2.1
			C6,87.5,6,87.5,6,87.6L6,87.6z"/>
		<path fill="#99AAB5" d="M4.2,86.7C4.2,86.7,4.2,86.7,4.2,86.7l-0.7-0.3c-0.1,0-0.1-0.1,0-0.1c0-0.1,0.1-0.1,0.1,0l0.7,0.3
			C4.3,86.5,4.3,86.6,4.2,86.7C4.3,86.7,4.3,86.7,4.2,86.7z"/>
		<path fill="#99AAB5" d="M5.5,86.7C5.5,86.7,5.5,86.7,5.5,86.7c-0.1-0.1-0.1-0.2-0.1-0.2l0.7-0.3c0.1,0,0.1,0,0.1,0
			c0,0.1,0,0.1,0,0.1L5.5,86.7C5.6,86.7,5.6,86.7,5.5,86.7z"/>
		<path fill="#DD2E44" d="M4.8,84.9C4.8,85,4.7,85,4.7,85H3.9c-0.1,0-0.2-0.1-0.2-0.2l0,0c0-0.1,0.1-0.2,0.2-0.2h0.8
			C4.7,84.7,4.8,84.8,4.8,84.9L4.8,84.9z"/>
		<path fill="#55ACEE" d="M5.9,84.9C5.9,85,5.8,85,5.8,85H5c-0.1,0-0.2-0.1-0.2-0.2l0,0c0-0.1,0.1-0.2,0.2-0.2h0.8
			C5.8,84.7,5.9,84.8,5.9,84.9L5.9,84.9z"/>
		<rect x="4.6" y="84.7" fill="#F5F8FA" width="0.4" height="0.3"/>
	</g>
</g>
<g id="onboarding_slide_2_encrypted_hello_4">
	<g>
		<path fill="#FFCC4D" d="M31.8,86.4c0,1-0.8,1.9-1.9,1.9c-1,0-1.9-0.8-1.9-1.9c0-1,0.8-1.9,1.9-1.9C30.9,84.6,31.8,85.4,31.8,86.4"
			/>
		<ellipse fill="#664500" cx="29.9" cy="87.4" rx="0.6" ry="0.7"/>
		<path fill="#664500" d="M28.6,85.7C28.5,85.7,28.5,85.6,28.6,85.7c-0.1-0.1-0.1-0.1-0.1-0.2c0.4-0.5,0.8-0.5,0.9-0.5
			c0.1,0,0.1,0,0.1,0.1s0,0.1-0.1,0.1C29.3,85.2,28.9,85.2,28.6,85.7C28.6,85.6,28.6,85.7,28.6,85.7z"/>
		<path fill="#664500" d="M31.2,85.7C31.2,85.7,31.2,85.6,31.2,85.7c-0.4-0.4-0.8-0.4-0.8-0.4c-0.1,0-0.1-0.1-0.1-0.1
			c0-0.1,0-0.1,0.1-0.1c0,0,0.5,0,0.9,0.5C31.3,85.5,31.3,85.6,31.2,85.7C31.3,85.6,31.2,85.7,31.2,85.7z"/>
		<path fill="#664500" d="M29.4,86.2l0.2-0.2c0,0,0-0.1,0-0.2c0,0-0.1,0-0.2,0L29.3,86l-0.2-0.2c0,0-0.1,0-0.2,0c0,0,0,0.1,0,0.2
			l0.2,0.2l-0.2,0.2c0,0,0,0.1,0,0.2c0,0,0.1,0,0.1,0s0.1,0,0.1,0l0.2-0.2l0.2,0.2c0,0,0.1,0,0.1,0s0.1,0,0.1,0c0,0,0-0.1,0-0.2
			L29.4,86.2z"/>
		<path fill="#664500" d="M30.7,86.2l0.2-0.2c0,0,0-0.1,0-0.2c0,0-0.1,0-0.2,0L30.5,86l-0.2-0.2c0,0-0.1,0-0.2,0c0,0,0,0.1,0,0.2
			l0.2,0.2l-0.2,0.2c0,0,0,0.1,0,0.2c0,0,0.1,0,0.1,0s0.1,0,0.1,0l0.2-0.2l0.2,0.2c0,0,0.1,0,0.1,0c0,0,0.1,0,0.1,0c0,0,0-0.1,0-0.2
			L30.7,86.2z"/>
	</g>
	<g>
		<path fill="#553788" d="M22.8,85.8c0.3,0.6,0,1.2-0.3,1.1c-0.3-0.1-0.4,0.2-0.1,0.3c0.3,0.1,1.1-0.1,1.4-0.4
			c0.1-0.1,0.2-0.1,0.2-0.1L22.8,85.8z"/>
		<path fill="#553788" d="M24.5,85.8c-0.3,0.6,0,1.2,0.3,1.1c0.3-0.1,0.4,0.2,0.1,0.3c-0.3,0.1-1.1-0.1-1.4-0.4
			c-0.1-0.1-0.2-0.1-0.2-0.1L24.5,85.8z"/>
		<path fill="#744EAA" d="M25,86.2c-0.3,0.6,0,1.2,0.3,1.1c0.3-0.1,0.4,0.2,0.1,0.3c-0.3,0.1-1.1-0.1-1.4-0.4
			c-0.1-0.1-0.2-0.1-0.2-0.1L25,86.2z"/>
		<path fill="#744EAA" d="M22.3,86.2c0.3,0.6,0,1.2-0.3,1.1c-0.3-0.1-0.4,0.2-0.1,0.3c0.3,0.1,1.1-0.1,1.4-0.4
			c0.1-0.1,0.2-0.1,0.2-0.1L22.3,86.2z"/>
		<path fill="#9266CC" d="M25.3,87.9c-0.3,0.1-0.7-0.6-0.5-1.2c0.2-0.4,0.3-0.8,0.3-1.1c0-0.8-0.6-1.2-1.4-1.2
			c-0.8,0-1.4,0.4-1.4,1.2c0,0.3,0.1,0.7,0.3,1.1c0.2,0.6-0.2,1.3-0.5,1.2c-0.3-0.1-0.4,0.3-0.1,0.4c0.3,0.1,0.9-0.1,1.3-0.4
			c0.2-0.2,0.5-0.2,0.5-0.2s0.2,0,0.5,0.2c0.4,0.4,1,0.6,1.3,0.4C25.8,88.3,25.7,87.8,25.3,87.9z"/>
		<circle fill="#292F33" cx="23.2" cy="86.8" r="0.2"/>
		<circle fill="#292F33" cx="24.1" cy="86.8" r="0.2"/>
	</g>
	<g>
		<path fill="#553788" d="M16.5,85.8c0.3,0.6,0,1.2-0.3,1.1c-0.3-0.1-0.4,0.2-0.1,0.3c0.3,0.1,1.1-0.1,1.4-0.4
			c0.1-0.1,0.2-0.1,0.2-0.1L16.5,85.8z"/>
		<path fill="#553788" d="M18.3,85.8c-0.3,0.6,0,1.2,0.3,1.1c0.3-0.1,0.4,0.2,0.1,0.3c-0.3,0.1-1.1-0.1-1.4-0.4
			c-0.1-0.1-0.2-0.1-0.2-0.1L18.3,85.8z"/>
		<path fill="#744EAA" d="M18.7,86.2c-0.3,0.6,0,1.2,0.3,1.1c0.3-0.1,0.4,0.2,0.1,0.3c-0.3,0.1-1.1-0.1-1.4-0.4
			c-0.1-0.1-0.2-0.1-0.2-0.1L18.7,86.2z"/>
		<path fill="#744EAA" d="M16,86.2c0.3,0.6,0,1.2-0.3,1.1c-0.3-0.1-0.4,0.2-0.1,0.3c0.3,0.1,1.1-0.1,1.4-0.4
			c0.1-0.1,0.2-0.1,0.2-0.1L16,86.2z"/>
		<path fill="#9266CC" d="M19.1,87.9c-0.3,0.1-0.7-0.6-0.5-1.2c0.2-0.4,0.3-0.8,0.3-1.1c0-0.8-0.6-1.2-1.4-1.2s-1.4,0.4-1.4,1.2
			c0,0.3,0.1,0.7,0.3,1.1c0.2,0.6-0.2,1.3-0.5,1.2c-0.3-0.1-0.4,0.3-0.1,0.4c0.3,0.1,0.9-0.1,1.3-0.4c0.2-0.2,0.5-0.2,0.5-0.2
			s0.2,0,0.5,0.2c0.4,0.4,1,0.6,1.3,0.4C19.5,88.3,19.4,87.8,19.1,87.9z"/>
		<circle fill="#292F33" cx="16.9" cy="86.8" r="0.2"/>
		<circle fill="#292F33" cx="17.8" cy="86.8" r="0.2"/>
	</g>
	<g>
		<path fill="#FDD888" d="M12.7,87.1c-0.1-0.7-0.4-1.1-0.4-1.1l-0.7-0.9h-0.1h-0.3h-0.3h-0.1L10,86c0,0-0.2,0.2-0.3,0.5
			c-0.2,0.1-0.4,0.3-0.4,0.5c0,0.2,0.1,0.3,0.2,0.4c0,0.1-0.1,0.2-0.1,0.3c0,0.2,0.1,0.4,0.3,0.5c0.1,0.2,0.3,0.3,0.5,0.3H12
			c0.2,0,0.4-0.1,0.5-0.4c0.2-0.1,0.4-0.3,0.4-0.5C12.9,87.4,12.8,87.2,12.7,87.1z"/>
		<path fill="#FDD888" d="M11.1,85.1c0.1,0,0.1,0,0.2,0c0,0,0.1,0,0.2,0c0.2,0,0.4-0.3,0.4-0.4c0,0,0-0.2-0.2-0.2
			c-0.1,0-0.1,0.1-0.2,0.1c-0.1,0-0.1-0.1-0.3-0.1c-0.2,0-0.2,0.1-0.3,0.1c-0.1,0-0.1-0.1-0.2-0.1c-0.2,0-0.2,0.2-0.2,0.2
			c0,0.2,0.3,0.4,0.4,0.4c0.1,0,0.1,0,0.2,0C11,85.1,11.1,85.1,11.1,85.1z"/>
		<path fill="#BF6952" d="M11.8,85.1c0,0.1,0,0.1-0.1,0.1h-1.1c-0.1,0-0.1,0-0.1-0.1l0,0c0-0.1,0-0.1,0.1-0.1h1.1
			C11.7,85,11.8,85,11.8,85.1L11.8,85.1z"/>
		<path fill="#67757F" d="M11.8,87.2c0-0.5-1-0.5-1-0.8c0-0.1,0.1-0.2,0.3-0.2c0.3,0,0.3,0.2,0.5,0.2c0.1,0,0.1-0.1,0.1-0.1
			c0-0.1-0.2-0.3-0.4-0.3v-0.1c0-0.1-0.1-0.2-0.2-0.2c-0.1,0-0.2,0.1-0.2,0.2V86c-0.2,0.1-0.4,0.2-0.4,0.5c0,0.5,1,0.5,1,0.8
			c0,0.1-0.1,0.2-0.3,0.2c-0.3,0-0.4-0.2-0.6-0.2c-0.1,0-0.1,0.1-0.1,0.1c0,0.1,0.2,0.3,0.5,0.3l0,0v0.2c0,0.1,0.1,0.2,0.2,0.2
			c0.1,0,0.2-0.1,0.2-0.2v-0.2l0,0C11.5,87.6,11.8,87.5,11.8,87.2z"/>
	</g>
	<g>
		<path fill="#3E721D" d="M5.9,87.4c-0.9,0-0.9,0.7-0.9,0.7v-1.3H4.6v1.3c0,0,0-0.7-0.9-0.7c-0.4,0-0.8-0.3-0.8-0.3s0,1,1,1
			c0.4,0,0.7,0,0.7,0s0,0.2,0.2,0.2c0.2,0,0.2-0.2,0.2-0.2s0.2,0,0.7,0c1,0,1-1,1-1S6.4,87.4,5.9,87.4z"/>
		<path fill="#FFAC33" d="M5.2,87.5C5.2,87.5,5.1,87.5,5.2,87.5l-0.4-0.2l-0.3,0.2c0,0-0.1,0-0.1,0c0,0,0,0,0,0
			c-0.1,0-0.1,0-0.1-0.1l-0.1-0.3l-0.3,0h0c0,0-0.1,0-0.1-0.1c0,0-0.1-0.1-0.1-0.1l0-0.3l-0.3-0.1c0,0-0.1-0.1-0.1-0.1
			c0-0.1,0-0.1,0-0.2L3.5,86l-0.2-0.3c0,0,0-0.1,0-0.2c0-0.1,0-0.1,0.1-0.1l0.3-0.1l0-0.3c0-0.1,0-0.1,0.1-0.1c0,0,0.1-0.1,0.1-0.1
			h0l0.3,0l0.1-0.3c0,0,0.1-0.1,0.1-0.1c0,0,0,0,0,0c0,0,0.1,0,0.1,0l0.3,0.2l0.3-0.2c0,0,0.1,0,0.1,0c0,0,0,0,0,0
			c0.1,0,0.1,0,0.1,0.1l0.1,0.3l0.3,0h0c0,0,0.1,0,0.1,0.1C6,84.9,6,84.9,6,85l0,0.3l0.3,0.1c0,0,0.1,0.1,0.1,0.1c0,0.1,0,0.1,0,0.2
			L6.2,86l0.2,0.3c0,0,0,0.1,0,0.2c0,0.1,0,0.1-0.1,0.1L6,86.6l0,0.3C6,87,6,87,6,87.1c0,0-0.1,0.1-0.1,0.1h0l-0.3,0l-0.1,0.3
			C5.4,87.4,5.3,87.5,5.2,87.5C5.2,87.5,5.2,87.5,5.2,87.5z"/>
		<circle fill="#732700" cx="4.9" cy="86" r="0.8"/>
	</g>
</g>
<g>
	<rect x="5.4" y="92.3" fill="none" width="23.9" height="20.3"/>
	<text transform="matrix(1 0 0 1 6.6204 94.113)"><tspan x="0" y="0" fill="#FFFFFF" font-family="'FiraMono-Medium'" font-size="2.3914">CYPHOLOJI SHOWS </tspan><tspan x="2.2" y="2.9" fill="#FFFFFF" font-family="'FiraMono-Medium'" font-size="2.3914">YOU HOW THAT </tspan><tspan x="-0.7" y="5.7" fill="#FFFFFF" font-family="'FiraMono-Medium'" font-size="2.3914">WORKS BY USING A </tspan><tspan x="-0.7" y="8.6" fill="#FFFFFF" font-family="'FiraMono-Medium'" font-size="2.3914">SIMPLE CIPHER TO </tspan><tspan x="4.3" y="11.5" fill="#FFFFFF" font-family="'FiraMono-Medium'" font-size="2.3914">TURN YOUR </tspan><tspan x="1.4" y="14.3" fill="#FFFFFF" font-family="'FiraMono-Medium'" font-size="2.3914">MESSAGES INTO </tspan><tspan x="6.5" y="17.2" fill="#FFFFFF" font-family="'FiraMono-Medium'" font-size="2.3914">EMOJIS</tspan></text>
</g>
</svg>
