<?xml version="1.0" encoding="utf-8"?>
<!-- Generator: Adobe Illustrator 18.0.0, SVG Export Plug-In . SVG Version: 6.00 Build 0)  -->
<!DOCTYPE svg PUBLIC "-//W3C//DTD SVG 1.1//EN" "http://www.w3.org/Graphics/SVG/1.1/DTD/svg11.dtd">
<svg version="1.1" id="Layer_1" xmlns="http://www.w3.org/2000/svg" xmlns:xlink="http://www.w3.org/1999/xlink" x="0px" y="0px"
	 viewBox="0 0 841.9 1190.6" enable-background="new 0 0 841.9 1190.6" xml:space="preserve">
<g>
	<path id="path22_21_" fill="#F4900C" d="M93,626.2C93,427,254.5,265.5,453.8,265.5S814.5,427,814.5,626.2S653.1,987,453.8,987
		S93,825.4,93,626.2"/>
	<path id="path26_16_" fill="#662113" d="M277,365.7c-5.9-5.9-17.4-4.3-29.7,2.6c-72.1-59.7-189.1-79.9-194.5-80.7
		c-12-2-23.2,6.1-25.2,17.9c-2,11.9,6,23.2,17.9,25.2c1.2,0.2,107.9,18.7,171,69.1c-6,11.5-7.1,22.1-1.6,27.7
		c8.5,8.5,29.4,1.7,46.4-15.5C278.6,394.9,285.5,374.3,277,365.7"/>
	<path id="path30_14_" fill="#5C913B" d="M486.5,221.8c0,0-67.9,94.4-153.5,115.3c-65.1,16-151.8,17.4-160.4-2.6
		c-8.6-20,34.3-86.1,108.6-118C355.7,184.6,486.5,221.8,486.5,221.8"/>
</g>
</svg>
