<?xml version="1.0" encoding="utf-8"?>
<!-- Generator: Adobe Illustrator 18.0.0, SVG Export Plug-In . SVG Version: 6.00 Build 0)  -->
<!DOCTYPE svg PUBLIC "-//W3C//DTD SVG 1.1//EN" "http://www.w3.org/Graphics/SVG/1.1/DTD/svg11.dtd">
<svg version="1.1" id="Layer_1" xmlns="http://www.w3.org/2000/svg" xmlns:xlink="http://www.w3.org/1999/xlink" x="0px" y="0px"
	 viewBox="0 0 540 70" enable-background="new 0 0 540 70" xml:space="preserve">
<g id="pagination_x5F_circle">
	<circle id="pagination_x5F_circle_x5F_1_1_" fill="#565F6C" cx="41.3" cy="35" r="23"/>
	<circle id="pagination_x5F_circle_x5F_2" fill="#565F6C" cx="132.8" cy="35" r="23"/>
	<circle id="pagination_x5F_circle_x5F_3" fill="#565F6C" cx="224.3" cy="35" r="23"/>
	<circle id="pagination_x5F_circle_x5F_4" fill="#565F6C" cx="315.7" cy="35" r="23"/>
	<circle id="pagination_x5F_circle_x5F_5" fill="#565F6C" cx="407.2" cy="35" r="23"/>
	<circle id="pagination_x5F_circle_x5F_6" fill="#565F6C" cx="498.7" cy="35" r="23"/>
</g>
<g id="pagination_x5F_emoji">
	<g id="pagination_x5F_emoji_x5F_1">
		<path id="path22_117_" fill="#FFCC4D" d="M65.5,35C65.5,48.3,54.8,59,41.5,59S17.6,48.3,17.6,35s10.6-23.9,23.9-23.9
			S65.5,21.7,65.5,35"/>
		<path id="path26_107_" fill="#292F33" d="M17.8,25.3c0.4,0.4,2.2,1.3,2.2,2.2c0.4,0.9,0.9,6.6,3.1,8.4s10.2,0.9,11.5,0.4
			c3.5-1.8,4-6.2,4.4-8.9c0.4-1.3,2.2-1.3,2.2-1.3s2.2,0,2.2,1.3c0.4,2.2,0.9,7.1,4.4,8.9c1.3,0.9,9.3,1.3,11.5-0.4s2.7-7.5,3.1-8.4
			c0.4-0.9,2.2-2.2,2.2-2.2c0.4-0.4,0.4-1.8,0-2.2c-0.9-0.9-8.9-1.3-17.3-0.4c-1.8,0-2.2,0.9-6.2,0.9s-4.9-0.4-6.2-0.9
			c-8.4-0.9-16.4-0.4-17.3,0.4C17.8,23.6,17.8,24.9,17.8,25.3"/>
		<path id="path30_68_" fill="#664500" d="M54.6,43.1c-0.4-0.4-0.4-0.4-0.9,0c0,0-5.3,4-12.4,4c-6.6,0-12.4-4-12.4-4
			c-0.4,0-0.4,0-0.9,0c-0.4,0.4-0.4,0.4,0,0.9c0,0.4,4.4,7.5,13.3,7.5s13.3-7.1,13.3-7.5C55,43.6,55,43.1,54.6,43.1"/>
	</g>
	<g id="pagination_x5F_emoji_x5F_2">
		<path id="path22_119_" fill="#FFCC4D" d="M156.9,35c0,13.3-10.6,23.9-23.9,23.9C119.7,59,109,48.3,109,35s10.6-23.9,23.9-23.9
			C146.3,11.1,156.9,21.7,156.9,35"/>
		<path id="path26_109_" fill="#664500" d="M133,39.4c-5.3,0-8.4-0.4-12.9-1.3c-0.9,0-2.7,0-2.7,2.7c0,5.8,6.6,12.9,15.5,12.9
			s15.5-7.1,15.5-12.9c0-2.7-1.8-3.1-2.7-2.7C141.4,38.6,137.9,39.4,133,39.4"/>
		<path id="path30_70_" fill="#664500" d="M121.5,27.9c0,0,0-2.7,2.7-2.7s2.7,2.7,2.7,2.7v2.7c0,0,0,2.7-2.7,2.7s-2.7-2.7-2.7-2.7
			V27.9z"/>
		<path id="path34_55_" fill="#664500" d="M138.7,27.9c0,0,0-2.7,2.7-2.7s2.7,2.7,2.7,2.7v2.7c0,0,0,2.7-2.7,2.7s-2.7-2.7-2.7-2.7
			V27.9z"/>
		<path id="path38_50_" fill="#FFFFFF" d="M120.1,40.8c0,0,4.4,1.3,12.9,1.3s12.9-1.3,12.9-1.3s-2.7,5.8-12.9,5.8
			C122.8,46.5,120.1,40.8,120.1,40.8"/>
	</g>
	<g id="pagination_x5F_emoji_x5F_3">
		<path id="path22_106_" fill="#FFCC4D" d="M248.3,35c0,13.3-10.6,23.9-23.9,23.9c-13.3,0-23.9-10.6-23.9-23.9s10.6-23.9,23.9-23.9
			C237.7,11.1,248.3,21.7,248.3,35"/>
		<path id="path26_102_" fill="#FF7892" d="M216,35c0,4-3.1,7.1-7.1,7.1c-4,0-7.1-3.1-7.1-7.1s3.1-7.1,7.1-7.1
			C212.9,27.9,216,31,216,35"/>
		<path id="path30_65_" fill="#FF7892" d="M247,35c0,4-3.1,7.1-7.1,7.1c-4,0-7.1-3.1-7.1-7.1s3.1-7.1,7.1-7.1
			C243.9,27.9,247,31,247,35"/>
		<path id="path34_51_" fill="#664500" d="M237.9,40c-0.4-0.4-0.4-0.4-0.9,0c0,0-5.3,4-12.4,4c-6.6,0-12.4-4-12.4-4
			c-0.4,0-0.4,0-0.9,0c-0.4,0.4-0.4,0.4,0,0.9c0,0.4,4.4,7.5,13.3,7.5s13.3-7.1,13.3-7.5C237.9,40.9,237.9,40.5,237.9,40"/>
		<path id="path38_47_" fill="#664500" d="M210.2,31L210.2,31c-1.3-0.4-1.3-1.3-0.9-1.8c0,0,1.8-3.5,7.1-3.5c4.9,0,6.6,3.5,7.1,3.5
			c0.4,0.9,0,1.3-0.4,1.8c-0.9,0.4-1.3,0-1.8-0.4c0,0-1.3-2.2-4.4-2.2s-4.4,2.2-4.4,2.2C211.6,30.6,210.7,31,210.2,31"/>
		<path id="path42_31_" fill="#664500" d="M238.6,31c-0.4,0-0.9-0.4-1.3-0.9c0,0-1.3-2.2-4.4-2.2s-4.4,1.8-4.4,2.2
			c-0.4,0.9-1.3,0.9-1.8,0.4c-0.9-0.4-0.9-1.3-0.4-1.8c0,0,1.8-3.5,7.1-3.5c4.9,0,6.6,3.5,7.1,3.5c0.4,0.9,0,1.3-0.4,1.8
			C239,30.6,238.6,31,238.6,31"/>
	</g>
	<g id="pagination_x5F_emoji_x5F_4">
		<path id="path22_115_" fill="#FFCC4D" d="M339.8,35c0,13.3-10.6,23.9-23.9,23.9S291.9,48.3,291.9,35s10.6-23.9,23.9-23.9
			C328.7,11.1,339.8,21.7,339.8,35"/>
		<path id="path26_105_" fill="#664500" d="M330.1,31.5c-0.4,0-0.4,0-0.9,0c0,0-1.8,1.3-5.3,1.3s-5.3-1.3-5.3-1.3
			c-0.4,0-0.4,0-0.9,0c-0.4,0-0.4,0.4,0,0.9c0,0,2.2,4.4,6.2,4.4s6.2-4.4,6.2-4.4C330.5,32.4,330.5,32,330.1,31.5"/>
		<path id="path30_66_" fill="#664500" d="M312.3,31.9c0,0-1.8,1.3-5.3,1.3c-3.5,0-5.3-1.3-5.3-1.3c-0.4,0-0.4,0-0.9,0
			c-0.4,0-0.4,0.4,0,0.9c0,0,2.2,4.4,6.2,4.4s6.2-4.4,6.2-4.4c0-0.4,0-0.4,0-0.9C312.8,31.5,312.8,31.5,312.3,31.9"/>
		<path id="path34_52_" fill="#664500" d="M330.9,27.9c-0.4,0-0.9,0-1.3-0.4c-3.5-4.9-9.8-3.5-9.8-3.5c-0.9,0-1.3-0.4-1.8-0.9
			c0-0.9,0.4-1.3,0.9-1.8c0.4,0,8-1.3,12.9,4.9C332.3,26.6,332.3,27.5,330.9,27.9C331.8,27.9,331.4,27.9,330.9,27.9"/>
		<path id="path38_48_" fill="#664500" d="M299.9,27.9c-0.4,0-0.4,0-0.9-0.4c-0.4-0.4-0.9-1.3-0.4-1.8c4.9-6.2,12.4-4.9,12.9-4.9
			c0.9,0,1.3,0.9,0.9,1.8c0,0.9-0.9,1.3-1.8,0.9c-0.4,0-6.2-1.3-9.8,3.5C300.8,27.9,300.3,27.9,299.9,27.9"/>
		<path id="path42_32_" fill="#664500" d="M323.2,42.9c-0.4,0-0.4,0-0.9,0c0,0-1.3,1.3-6.6,1.3c-5.3,0-6.6-1.3-6.6-1.3
			c-0.4-0.4-0.4-0.4-0.9,0c-0.4,0-0.4,0.4-0.4,0.9c0,0,1.8,6.2,7.5,6.2c6.2,0,7.5-6.2,7.5-6.2C323.6,43.3,323.2,42.9,323.2,42.9"/>
	</g>
	<g id="pagination_x5F_emoji_x5F_5">
		<path id="path22" fill="#FFCC4D" d="M431.2,35c0,13-10.6,23.9-23.9,23.9c-13,0-23.9-10.6-23.9-23.9c0-13,10.6-23.9,23.9-23.9
			S431.2,22,431.2,35"/>
		<path id="path26" fill="#664500" d="M401.6,32.9c0,2.8-1.4,4.9-3.5,4.9c-1.8,0-3.5-2.1-3.5-4.9s1.4-4.9,3.5-4.9
			S401.6,30.1,401.6,32.9"/>
		<path id="path30" fill="#664500" d="M420,32.9c0,2.8-1.4,4.9-3.5,4.9c-1.8,0-3.5-2.1-3.5-4.9s1.4-4.9,3.5-4.9S420,30.1,420,32.9"
			/>
		<path id="path30_1_" fill="#664500" d="M411.6,49.4c0,2.2-1.4,3.9-3.5,3.9c-1.8,0-3.5-1.7-3.5-3.9c0-2.2,1.4-3.9,3.5-3.9
			S411.6,47.2,411.6,49.4"/>
		<path id="path34" fill="#664500" d="M390.7,26.6c-0.4,0-0.7,0-0.7-0.4c-0.7-0.4-0.7-1.4-0.4-2.1c4.6-6,10.6-6.3,10.9-6.3
			c0.7,0,1.4,0.7,1.4,1.4c0,0.7-0.7,1.4-1.4,1.4c-0.4,0-4.9,0-8.8,4.9C391.4,26.2,391.1,26.6,390.7,26.6"/>
		<path id="path38" fill="#664500" d="M424.2,26.6c-0.4,0-0.7-0.4-1.1-0.7c-3.9-4.9-8.4-4.9-8.8-4.9c-0.7,0-1.4-0.7-1.4-1.4
			c0-0.7,0.7-1.4,1.4-1.4c0.4,0,6.3,0,10.9,6.3c0.4,0.7,0.4,1.4-0.4,2.1C424.9,26.6,424.5,26.6,424.2,26.6"/>
	</g>
	<g id="pagination_x5F_emoji_x5F_6">
		<path id="path22_118_" fill="#FFCC4D" d="M522.7,35c0,13-10.6,23.9-23.9,23.9c-13,0-23.9-10.6-23.9-23.9c0-13,10.6-23.9,23.9-23.9
			C511.7,11.1,522.7,22,522.7,35"/>
		<path id="path26_108_" fill="#FF7892" d="M490.3,39.2c0,3.9-3.2,7-7,7c-3.9,0-7-3.2-7-7s3.2-7,7-7
			C487.1,32.2,490.3,35.4,490.3,39.2"/>
		<path id="path30_69_" fill="#FF7892" d="M521.2,39.2c0,3.9-3.2,7-7,7c-3.9,0-7-3.2-7-7s3.2-7,7-7
			C518.1,32.2,521.2,35.4,521.2,39.2"/>
		<path id="path34_54_" fill="#664500" d="M513.2,34.6c0,0-2.1-3.2-6.3-3.2s-6,2.8-6.3,3.2c-0.4,0.4,0,0.7,0,1.1
			c0.4,0.4,0.7,0.4,1.1,0c0,0,1.8-1.4,5.3-1.4s5.3,1.4,5.3,1.4h0.4c0,0,0.4,0,0.4-0.4C513.6,35.3,513.6,34.9,513.2,34.6"/>
		<path id="path38_49_" fill="#664500" d="M490.3,31.5c-4.2,0-6,2.8-6.3,3.2c-0.4,0.4,0,0.7,0,1.1c0.4,0.4,0.7,0.4,1.1,0
			c0,0,1.8-1.4,5.3-1.4s5.3,1.4,5.3,1.4h0.4c0,0,0.4,0,0.4-0.4c0.4-0.4,0.4-0.7,0-1.1C496.3,34.7,494.5,31.5,490.3,31.5"/>
		<path id="path42_46_" fill="#664500" d="M504.2,47.7c1.8-0.7,3.5-1.8,3.5-3.5c0-3.5-7-4.2-7.7-4.2c-0.4,0-0.7,0.4-0.7,0.7
			c0,0.4,0.4,0.7,0.7,0.7c0,0,4.9,0.4,4.9,2.8S500,47,500,47l0,0c0,0-0.4,0-0.4,0.4l0,0l0,0l0,0l0,0l0,0l0,0l0,0l0,0l0,0l0,0l0,0
			l0,0l0,0l0,0c0,0,4.9,0.4,4.9,2.8c0,2.5-4.9,2.8-4.9,2.8c-0.4,0-0.7,0.4-0.7,0.7c0,0.4,0.4,0.7,0.7,0.7l0,0c0.7,0,7.7-0.7,7.7-4.2
			C507.8,49.4,506,48.4,504.2,47.7"/>
		<path id="path46_21_" fill="#664500" d="M517,32.2c-0.4,0-0.7-0.4-1.1-0.7c-3.9-4.9-8.4-4.9-8.8-4.9c-0.7,0-1.4-0.7-1.4-1.4
			c0-0.7,0.7-1.4,1.4-1.4c0.4,0,6.3,0,10.9,6.3c0.4,0.7,0.4,1.4-0.4,2.1C517.4,32.2,517,32.2,517,32.2"/>
		<path id="path50_19_" fill="#664500" d="M480.4,32.2c-0.4,0-0.7,0-0.7-0.4c-0.7-0.4-0.7-1.4-0.4-2.1c4.6-6,10.6-6.3,10.9-6.3
			c0.7,0,1.4,0.7,1.4,1.4c0,0.7-0.7,1.4-1.4,1.4c-0.4,0-4.9,0-8.8,4.9C481.5,32.2,480.8,32.2,480.4,32.2"/>
	</g>
</g>
</svg>
