<?xml version="1.0" encoding="utf-8"?>
<!-- Generator: Adobe Illustrator 18.0.0, SVG Export Plug-In . SVG Version: 6.00 Build 0)  -->
<!DOCTYPE svg PUBLIC "-//W3C//DTD SVG 1.1//EN" "http://www.w3.org/Graphics/SVG/1.1/DTD/svg11.dtd">
<svg version="1.1" id="Layer_1" xmlns="http://www.w3.org/2000/svg" xmlns:xlink="http://www.w3.org/1999/xlink" x="0px" y="0px"
	 viewBox="0 0 800 800" enable-background="new 0 0 800 800" xml:space="preserve">
<g>
	<ellipse fill="#FFCC4D" cx="400" cy="222.9" rx="271.3" ry="205.3"/>
	<ellipse fill="#F4900C" cx="400" cy="222.9" rx="216.8" ry="178.6"/>
	<g>
		<circle fill="#F4900C" cx="697.9" cy="335.7" r="89.9"/>
		<circle fill="#F4900C" cx="102.1" cy="335.7" r="89.9"/>
	</g>
	<path fill="#FFAC33" d="M734.4,455.8H65.6c-6.5,0-11.7-5.3-11.7-11.7V227.4c0-6.5,5.3-11.7,11.7-11.7h668.9
		c6.5,0,11.7,5.3,11.7,11.7v216.7C746.2,450.6,740.9,455.8,734.4,455.8z"/>
	<path fill="#226699" d="M622.1,700.6H177.9c-20,0-36.2-16.2-36.2-36.2V121c0-20,16.2-36.2,36.2-36.2h444.2
		c20,0,36.2,16.2,36.2,36.2v543.4C658.3,684.4,642.1,700.6,622.1,700.6z"/>
	<path fill="#55ACEE" d="M665,766H135c-21.7,0-39.3-17.6-39.3-39.3V189.5c0-21.7,17.6-39.3,39.3-39.3h530
		c21.7,0,39.3,17.6,39.3,39.3v537.3C704.3,748.4,686.7,766,665,766z"/>
	<path fill="#3B88C3" d="M767.2,712.9v69.5H32.8v-69.5c0-23.8,19.3-43.2,43.2-43.2h238l86,86.1l86-86.1h238
		C747.8,669.8,767.2,689.1,767.2,712.9z"/>
	<path fill="#FFFFFF" stroke="#000000" stroke-width="7.2661" stroke-miterlimit="10" d="M541.3,406.5L541.3,406.5
		c-17.9,0-32.4-14.5-32.4-32.4v-83c0-17.9,14.5-32.4,32.4-32.4h0c17.9,0,32.4,14.5,32.4,32.4v83C573.8,392,559.2,406.5,541.3,406.5z
		"/>
	<path fill="#3B88C3" d="M767.2,782.4H32.8H767.2z"/>
	<g>
		<g>
			<circle fill="#FFFFFF" cx="541.1" cy="335.7" r="99.5"/>
			<path fill="#DD2E44" d="M541.1,409.7L541.1,409.7c-17.9,0-32.4-14.5-32.4-32.4v-83c0-17.9,14.5-32.4,32.4-32.4h0
				c17.9,0,32.4,14.5,32.4,32.4v83C573.6,395.2,559,409.7,541.1,409.7z"/>
		</g>
		<g>
			<circle fill="#FFFFFF" cx="258.9" cy="335.7" r="99.5"/>
			<path fill="#DD2E44" d="M258.9,409.7L258.9,409.7c-17.9,0-32.4-14.5-32.4-32.4v-83c0-17.9,14.5-32.4,32.4-32.4h0
				c17.9,0,32.4,14.5,32.4,32.4v83C291.3,395.2,276.8,409.7,258.9,409.7z"/>
		</g>
	</g>
	<g>
		<path fill="#F5F8FA" d="M640.7,572.4c0,15.1-6.1,28.8-16.1,38.7c-7.3,7.2-16.4,12.4-26.8,14.8c-3.9,0.9-7.8,1.3-12,1.3H214.2
			c-3.9,0-7.6-0.4-11.3-1.2c-24.9-5.2-43.6-27.2-43.6-53.6c0-15.2,6.1-28.8,16.1-38.8c7.4-7.4,16.9-12.7,27.5-14.9
			c3.6-0.8,7.4-1.2,11.3-1.2h371.6c4.1,0,8.1,0.4,12,1.3C622.3,524.3,640.7,546.2,640.7,572.4z"/>
		<path fill="#CCD6DD" d="M202.9,518.7V626c-24.9-5.2-43.6-27.2-43.6-53.6c0-15.2,6.1-28.8,16.1-38.8
			C182.8,526.2,192.3,520.9,202.9,518.7z"/>
		<rect x="269" y="517.5" fill="#CCD6DD" width="43.6" height="109.6"/>
		<rect x="378.6" y="517.5" fill="#CCD6DD" width="43.6" height="109.6"/>
		<rect x="488.1" y="517.5" fill="#CCD6DD" width="43.6" height="109.6"/>
		<path fill="#CCD6DD" d="M640.7,572.4c0,15.1-6.1,28.8-16.1,38.7c-7.3,7.2-16.4,12.4-26.8,14.8v-107
			C622.3,524.3,640.7,546.2,640.7,572.4z"/>
	</g>
</g>
</svg>
