<?xml version="1.0" encoding="utf-8"?>
<!-- Generator: Adobe Illustrator 18.0.0, SVG Export Plug-In . SVG Version: 6.00 Build 0)  -->
<!DOCTYPE svg PUBLIC "-//W3C//DTD SVG 1.1//EN" "http://www.w3.org/Graphics/SVG/1.1/DTD/svg11.dtd">
<svg version="1.1" id="Layer_1" xmlns="http://www.w3.org/2000/svg" xmlns:xlink="http://www.w3.org/1999/xlink" x="0px" y="0px"
	 viewBox="-400 790.6 800 800" enable-background="new -400 790.6 800 800" xml:space="preserve">
<g>
	<path id="path22_24_" fill="#CCD6DD" d="M124.7,941.2c0,68.8-55.8,124.7-124.7,124.7s-124.7-55.8-124.7-124.7S-68.8,816.6,0,816.6
		S124.7,872.4,124.7,941.2"/>
	<polygon fill="#DD2E44" points="145.4,1088 145.4,1180.5 -89.5,1065.9 100.1,1065.9 	"/>
	<polygon fill="#DD2E44" points="145.4,1457.8 145.4,1502.2 46.7,1502.2 -145.4,1408.4 -145.4,1315.9 	"/>
	<polygon fill="#FFFFFF" points="145.4,1180.4 145.4,1272.9 -145.4,1131 -145.4,1065.9 -89.5,1065.9 	"/>
	<polygon fill="#FFFFFF" points="145.4,1365.4 145.4,1457.8 -145.4,1315.9 -145.4,1223.4 	"/>
	<polygon fill="#FFFFFF" points="46.7,1502.2 -142.8,1502.2 -145.4,1500.8 -145.4,1408.4 	"/>
	<polygon fill="#55ACEE" points="145.4,1272.9 145.4,1365.4 -145.4,1223.4 -145.4,1131 	"/>
	<path id="path68_7_" fill="#99AAB5" d="M187,1045.2c0,22.9-18.6,41.6-41.6,41.6h-290.9c-22.9,0-41.6-18.6-41.6-41.6
		c0-22.9,18.6-41.6,41.6-41.6h290.9C168.4,1003.6,187,1022.2,187,1045.2"/>
	<path id="path72_7_" fill="#99AAB5" d="M187,1522.9c0,22.9-18.6,41.6-41.6,41.6h-290.9c-22.9,0-41.6-18.6-41.6-41.6
		c0-22.9,18.6-41.6,41.6-41.6h290.9C168.4,1481.4,187,1500,187,1522.9"/>
</g>
</svg>
