<?xml version="1.0" encoding="utf-8"?>
<!-- Generator: Adobe Illustrator 18.0.0, SVG Export Plug-In . SVG Version: 6.00 Build 0)  -->
<!DOCTYPE svg PUBLIC "-//W3C//DTD SVG 1.1//EN" "http://www.w3.org/Graphics/SVG/1.1/DTD/svg11.dtd">
<svg version="1.1" id="Layer_1" xmlns="http://www.w3.org/2000/svg" xmlns:xlink="http://www.w3.org/1999/xlink" x="0px" y="0px"
	 width="393.1px" height="700px" viewBox="0 0 393.1 700" enable-background="new 0 0 393.1 700" xml:space="preserve">
<polyline fill="#283344" points="0,700 0,0 393.1,0 393.1,700 "/>
<g id="onboarding_slide_6_text">
	<text transform="matrix(1 0 0 1 103.0677 444.5771)" fill="#FFFFFF" font-family="'FiraSans-Regular'" font-size="26">When you want </text>
	<text transform="matrix(1 0 0 1 63.0905 475.7773)" fill="#FFFFFF" font-family="'FiraSans-Regular'" font-size="26">someone to read your </text>
	<text transform="matrix(1 0 0 1 77.4171 506.9775)" fill="#FFFFFF" font-family="'FiraSans-Regular'" font-size="26">message, give them </text>
	<text transform="matrix(1 0 0 1 117.0963 538.1777)" fill="#FFFFFF" font-family="'FiraSans-Regular'" font-size="26">the emoji key</text>
</g>
<g id="onboarding_slide_6_graphic">
	<path fill="#3B88C3" d="M356.6,264.3v-3.7v-13.7V98c0-9.6-7.9-17.5-17.5-17.5H54c-9.6,0-17.5,7.9-17.5,17.5v163
		c0,9.6,7.9,17.5,17.5,17.5h277.7h7.2h39.8L356.6,264.3z"/>
	<g id="onboarding_slide_6_plain_text">
		<g>
			<path fill="#FFFFFF" d="M77.7,127H67.4v14.2h-5.2V110h5.2v12.7h10.2V110h5.2v31.2h-5.2L77.7,127L77.7,127z"/>
		</g>
		<g>
			<path fill="#FFFFFF" d="M110.2,138.3l-1.1,3.4c-2.3-0.3-4.1-1.2-4.9-3.3c-1.7,2.2-4.5,3.3-7.6,3.3c-4.9,0-7.9-3-7.9-7.4
				c0-5,4.1-7.9,11.4-7.9h3.4V125c0-3.1-1.9-4.4-5.3-4.4c-1.6,0-3.9,0.3-6.3,1.2l-1.2-3.6c3-1.1,5.9-1.7,8.4-1.7c6.4,0,9.5,3,9.5,8
				v10.7C108.4,137.3,108.9,138,110.2,138.3z M103.4,135v-5.3h-2.8c-4.7,0-6.6,1.7-6.6,4.5c0,2.5,1.4,3.9,4,3.9
				C100.1,138,102.2,136.9,103.4,135z"/>
		</g>
		<g>
			<path fill="#FFFFFF" d="M129.8,141.2h-5.9l-8.5-23.8h5.5l6,19.7l6.1-19.7h5.2L129.8,141.2z"/>
		</g>
		<g>
			<path fill="#FFFFFF" d="M155.1,137.9c2.3,0,4.3-0.7,6.3-2.1l2.2,3.1c-2.2,1.8-5.3,3-8.6,3c-7.4,0-11.5-5.1-11.5-12.5
				c0-7.2,4.1-12.6,10.9-12.6c6.3,0,10.3,4.5,10.3,12c0,0.8-0.1,1.7-0.2,2.3h-15.8C148.9,135.8,151.7,137.9,155.1,137.9z
				 M148.6,127.5h11.1c-0.1-4.5-1.9-7-5.3-7C151.1,120.5,148.9,122.7,148.6,127.5z"/>
		</g>
		<g>
			<path fill="#FFFFFF" d="M218.7,138.3l-1.1,3.4c-2.3-0.3-4.1-1.2-4.9-3.3c-1.7,2.2-4.5,3.3-7.6,3.3c-4.9,0-7.9-3-7.9-7.4
				c0-5,4.1-7.9,11.4-7.9h3.4V125c0-3.1-1.9-4.4-5.3-4.4c-1.6,0-3.9,0.3-6.3,1.2l-1.2-3.6c3-1.1,5.9-1.7,8.4-1.7c6.4,0,9.5,3,9.5,8
				v10.7C216.9,137.3,217.5,138,218.7,138.3z M211.9,135v-5.3h-2.8c-4.7,0-6.6,1.7-6.6,4.5c0,2.5,1.4,3.9,4,3.9
				C208.6,138,210.7,136.9,211.9,135z"/>
		</g>
		<g>
			<path fill="#FFFFFF" d="M63.1,171.6h4.4l0.3,3.1c2-2.4,4.8-3.8,7.8-3.8c4.5,0,6.6,2.6,6.6,7.1v17.4h-5.1v-14.9
				c0-4.2-0.5-5.8-3.4-5.8c-2.4,0-4.4,1.7-5.6,3.5v17.1H63L63.1,171.6z"/>
		</g>
		<g>
			<path fill="#FFFFFF" d="M103.2,191.8h6.6v3.7H91v-3.7h7.1v-16.4h-6.9v-3.7h12V191.8z M103,163.1c0,1.8-1.4,3.1-3.3,3.1
				c-2,0-3.3-1.4-3.3-3.1s1.3-3.2,3.3-3.2C101.7,159.9,103,161.3,103,163.1z"/>
		</g>
		<g>
			<path fill="#FFFFFF" d="M134.7,189.9l2.3,3.2c-2.1,1.7-5.2,3-8.4,3c-7.3,0-11.6-4.9-11.6-12.4c0-7.3,4.4-12.7,11.7-12.7
				c3.2,0,5.9,1,8.3,2.9l-2.4,3.1c-1.8-1.2-3.8-2-5.9-2c-3.8,0-6.4,2.7-6.4,8.6c0,5.9,2.7,8.2,6.4,8.2
				C131,191.9,133,191.1,134.7,189.9z"/>
		</g>
		<g>
			<path fill="#FFFFFF" d="M155.1,192.1c2.3,0,4.3-0.7,6.3-2.1l2.2,3.1c-2.2,1.8-5.3,3-8.6,3c-7.4,0-11.5-5.1-11.5-12.5
				c0-7.2,4.1-12.6,10.9-12.6c6.3,0,10.3,4.5,10.3,12c0,0.8-0.1,1.7-0.2,2.3h-15.8C148.9,190,151.7,192.1,155.1,192.1z M148.6,181.7
				h11.1c-0.1-4.5-1.9-7-5.3-7C151.1,174.7,148.9,176.9,148.6,181.7z"/>
		</g>
		<g>
			<path fill="#FFFFFF" d="M217.8,162.1v33.5h-4.5l-0.3-3c-1.6,2.3-3.9,3.5-6.7,3.5c-6.1,0-9-5-9-12.5c0-7.3,3.6-12.6,9.4-12.6
				c2.4,0,4.5,0.9,6,2.6v-12.1L217.8,162.1z M202.6,183.6c0,6.1,1.8,8.6,5,8.6c2.3,0,3.9-1.6,5.1-3.4v-11.3
				c-1.1-1.7-2.8-2.7-4.7-2.7C204.6,174.9,202.6,177.6,202.6,183.6z"/>
		</g>
		<g>
			<path fill="#FFFFFF" d="M245.9,192.6l-1.1,3.4c-2.3-0.3-4.1-1.2-4.9-3.3c-1.7,2.2-4.5,3.3-7.6,3.3c-4.9,0-7.9-3-7.9-7.4
				c0-5,4.1-7.9,11.4-7.9h3.4v-1.6c0-3.1-1.9-4.4-5.3-4.4c-1.6,0-3.9,0.3-6.3,1.2l-1.2-3.6c3-1.1,5.9-1.7,8.4-1.7c6.4,0,9.5,3,9.5,8
				v10.8C244.1,191.5,244.6,192.2,245.9,192.6z M239,189.3V184h-2.8c-4.7,0-6.6,1.7-6.6,4.5c0,2.5,1.4,3.9,4,3.9
				C235.8,192.4,237.9,191.2,239,189.3z"/>
		</g>
		<g>
			<path fill="#FFFFFF" d="M265.6,195.6c-1.8,5.4-5,9.1-11.7,9.7l-0.6-3.8c4.8-0.8,6.4-2.5,7.6-5.9h-1.7l-8-23.8h5.4l6,20.4
				l6.1-20.4h5.2L265.6,195.6z"/>
		</g>
	</g>
	<g id="onboarding_slide_6_encrypted_emoji_1">
		<g id="g10_150_" transform="matrix(1.25,0,0,-1.25,0,47.5)">
			<g id="g12_175_">
				<g>
					<g>
						<g>
							<g id="g14_177_">
								<g id="g20_161_" transform="translate(34.7988,36.9946)">
									<path id="path22_161_" fill="#99AAB5" d="M182.8-138.6c-0.2,0.1-3.8-1.9-4.7-4.3c-0.6-1.4-0.8-2.9-0.8-3.8
										c-0.7,0.4-1.4,0.6-2.1,0.6s-1.3-0.2-2.1-0.6c0,1-0.2,2.4-0.8,3.8c-0.9,2.4-4.5,4.5-4.7,4.3c-0.2-0.1,2.1-7.7,3.3-10
										c-1.1-1.2-2.1-2.8-2.1-4.3s0.8-2.4,1.9-2.8c1.2-0.4,2.4,0.4,4.3,0.4s3.1-0.9,4.3-0.4c1.1,0.4,1.9,1.3,1.9,2.8
										s-0.9,3-2.1,4.3C180.7-146.4,183-138.8,182.8-138.6"/>
								</g>
								<g id="g24_152_" transform="translate(13.6919,19.0781)">
									<path id="path26_152_" fill="#F4ABBA" d="M193.8-129.4c-0.1,0.7-0.3,1.7-0.7,2.6c-0.7,1.9-2.8,3.5-2.9,3.5
										c-0.2-0.1,1.2-4.9,2.3-7.1C192.8-129.9,193.3-129.7,193.8-129.4"/>
								</g>
								<g id="g28_110_" transform="translate(27.0303,16.9063)">
									<path id="path30_105_" fill="#F4ABBA" d="M186.8-128.2c1,2.2,2.4,7.1,2.3,7.1c-0.2,0.1-2.1-1.5-2.9-3.5
										c-0.4-1-0.6-1.9-0.7-2.6C185.9-127.5,186.4-127.7,186.8-128.2"/>
								</g>
								<g id="g32_87_" transform="translate(26,7)">
									<path id="path34_84_" fill="#CCD6DD" d="M187.3-123c0-1.3-1.5-2.4-3.3-2.4s-3.3,1.1-3.3,2.4s1.5,2.4,3.3,2.4
										C185.9-120.6,187.3-121.7,187.3-123"/>
								</g>
								<g id="g36_78_" transform="translate(22,6.4219)">
									<path id="path38_78_" fill="#FFFFFF" d="M189.4-122.7c0-1.3-0.1-1.4-1.4-1.4c-1.3,0-1.4,0.1-1.4,1.4
										C186.6-122.2,189.4-122.2,189.4-122.7"/>
								</g>
								<g id="g40_80_" transform="translate(15,12.6719)">
									<path id="path42_78_" fill="#292F33" d="M193-126c0-0.4-0.3-0.7-0.7-0.7s-0.7,0.3-0.7,0.7s0.3,0.7,0.7,0.7
										S193-125.6,193-126"/>
								</g>
								<g id="g44_62_" transform="translate(26,12.6719)">
									<path id="path46_62_" fill="#292F33" d="M187.3-126c0-0.4-0.3-0.7-0.7-0.7s-0.7,0.3-0.7,0.7s0.3,0.7,0.7,0.7
										S187.3-125.6,187.3-126"/>
								</g>
								<g id="g48_51_" transform="translate(22,11.1719)">
									<path id="path50_51_" fill="#F4ABBA" d="M189.4-125.2c0-0.8-0.9-1.4-1.4-1.4s-1.4,0.6-1.4,1.4
										C186.6-124.4,189.4-124.4,189.4-125.2"/>
								</g>
							</g>
						</g>
					</g>
				</g>
			</g>
		</g>
		<g id="g10_1_" transform="matrix(1.25,0,0,-1.25,0,47.5)">
			<g id="g12_1_">
				<g>
					<g>
						<g>
							<g id="g14_1_">
								<g id="g20_1_" transform="translate(36,19)">
									<path id="path22_1_" fill="#FFCC4D" d="M160.4-128.3c0-4.5-3.6-8.2-8.2-8.2s-8.2,3.6-8.2,8.2s3.6,8.2,8.2,8.2
										C156.8-120.2,160.4-123.9,160.4-128.3"/>
								</g>
								<g id="g24_1_" transform="translate(29.457,19.2031)">
									<path id="path26_1_" fill="#664500" d="M163.8-128.4c0,0.1-0.7,1.6-2.1,1.6s-2.1-1.5-2.1-1.6s0-0.2,0.1-0.3s0.2-0.1,0.3,0
										c0,0,0.6,0.4,1.8,0.4s1.7-0.4,1.8-0.4h0.1c0.1,0,0.1,0,0.1,0.1C163.8-128.6,163.8-128.5,163.8-128.4"/>
								</g>
								<g id="g28_1_" transform="translate(17.457,19.2031)">
									<path id="path30_1_" fill="#664500" d="M170-128.4c0,0.1-0.7,1.6-2.1,1.6s-2.1-1.5-2.1-1.6s0-0.2,0.1-0.3s0.2-0.1,0.3,0
										c0,0,0.6,0.4,1.8,0.4s1.7-0.4,1.8-0.4h0.1c0.1,0,0.1,0,0.1,0.1C170-128.6,170.1-128.5,170-128.4"/>
								</g>
								<g id="g32_1_" transform="translate(32,20.9995)">
									<path id="path34_1_" fill="#664500" d="M162.5-129.4c-0.2,0-0.4,0.1-0.4,0.3c-0.8,2.1-3,2.6-3,2.6
										c-0.3,0.1-0.4,0.3-0.4,0.6c0.1,0.3,0.3,0.4,0.6,0.4c0.1,0,2.6-0.6,3.7-3.1c0.1-0.2,0-0.5-0.3-0.6
										C162.6-129.4,162.6-129.4,162.5-129.4"/>
								</g>
								<g id="g36_1_" transform="translate(5.9995,20.9995)">
									<path id="path38_1_" fill="#664500" d="M176-129.4c-0.1,0-0.1,0-0.2,0c-0.2,0.1-0.4,0.4-0.3,0.6c1,2.6,3.6,3.1,3.7,3.1
										c0.3,0.1,0.5-0.1,0.6-0.4s-0.1-0.5-0.4-0.6c-0.1,0-2.1-0.5-3-2.6C176.4-129.3,176.2-129.4,176-129.4"/>
								</g>
								<g id="g40_1_" transform="translate(19,15)">
									<path id="path42_1_" fill="#664500" d="M169.2-126.2c-1.7,0-2.9,0.2-4.3,0.5c-0.3,0.1-0.9,0-0.9-0.9c0-1.9,2.2-4.3,5.2-4.3
										s5.2,2.4,5.2,4.3c0,0.9-0.6,1-0.9,0.9C172.1-126,170.9-126.2,169.2-126.2"/>
								</g>
								<g id="g44_2_" transform="translate(10,14)">
									<path id="path46_2_" fill="#FFFFFF" d="M174-125.7c0,0,1.4-0.5,4.3-0.5c2.8,0,4.3,0.5,4.3,0.5s-0.9-1.9-4.3-1.9
										C174.8-127.7,174-125.7,174-125.7"/>
								</g>
								<g id="g48_2_" transform="translate(11.8472,8.7705)">
									<path id="path50_2_" fill="#5DADEC" d="M173-122.9c-0.3-1.3-1.6-2.1-2.9-1.7c-1.3,0.3-2.1,1.6-1.7,2.9s3,4.2,3.5,4
										C172.3-117.9,173.3-121.7,173-122.9"/>
								</g>
								<g id="g52_1_" transform="translate(26.1328,8.7705)">
									<path id="path54_1_" fill="#5DADEC" d="M165.5-122.9c0.3-1.3,1.6-2.1,2.9-1.7c1.3,0.3,2.1,1.6,1.7,2.9s-3,4.2-3.5,4
										C166.2-117.9,165.2-121.7,165.5-122.9"/>
								</g>
							</g>
						</g>
					</g>
				</g>
			</g>
		</g>
		<g id="g10_156_" transform="matrix(1.25,0,0,-1.25,0,47.5)">
			<g id="g12_180_">
				<g>
					<g>
						<g>
							<g id="g14_182_">
								<g id="g20_170_" transform="translate(2.7266,14.7012)">
									<path id="path22_170_" fill="#FFAC33" d="M155.2-125.7c0,0-0.6,0.6,0,1.3c0.6,0.6,1.3,0,1.3,0l3-2.8l0.2,0.4l-4.2,4
										c0,0-0.6,0.6,0,1.3c0.6,0.7,1.3,0,1.3,0l4-3.6l0.3,0.3l-4.7,4.2c0,0-0.6,0.6,0,1.3c0.6,0.6,1.3,0,1.3,0l4.7-4.2l0.3,0.3
										l-4.3,4c0,0-0.6,0.6,0,1.3c0.6,0.6,1.3,0,1.3,0s3.3-2.9,4.5-4.2c1.3-1.2,1.6-0.9,1.6-0.9l-1.2,1.1l-1.4,1.3
										c0,0-0.6,0.6,0,1.3c0.6,0.6,1.3,0,1.3,0l3.6-3.3c2.2-2.1,2.3-5.4,0.3-7.6c-2.1-2.2-5.4-2.3-7.6-0.3
										c-0.1,0.1-0.3,0.3-0.3,0.3l0,0L155.2-125.7z"/>
								</g>
								<g id="g24_157_" transform="translate(5.627,16.6504)">
									<path id="path26_157_" fill="#FFDC5D" d="M153.7-126.6c0,0-0.6,0.6,0,1.3c0.6,0.7,1.3,0,1.3,0l3-2.8l0.2,0.4l-4.2,4
										c0,0-0.6,0.6,0,1.3c0.6,0.6,1.3,0,1.3,0l4-3.6l0.3,0.3l-4.7,4.2c0,0-0.6,0.6,0,1.3c0.6,0.7,1.3,0,1.3,0l4.7-4.2l0.3,0.3
										l-4.3,4c0,0-0.6,0.6,0,1.3c0.6,0.6,1.3,0,1.3,0s3.3-2.9,4.5-4.2c1.3-1.2,1.6-0.9,1.6-0.9l-1.2,1.1l-1.4,1.3
										c0,0-0.6,0.6,0,1.3c0.6,0.6,1.3,0,1.3,0l3.6-3.3c2.2-2.1,2.3-5.4,0.3-7.6c-2.1-2.2-5.4-2.3-7.6-0.3
										c-0.1,0.1-0.3,0.3-0.3,0.3l0,0L153.7-126.6z"/>
								</g>
								<g id="g28_115_" transform="translate(25.541,30.5415)">
									<path id="path30_109_" fill="#FFAC33" d="M143-134.1c-0.1,0-0.2,0-0.3,0.1c-0.2,0.2-0.2,0.5-0.1,0.7l1.4,1.8
										c0.2,0.2,0.4,0.2,0.7,0.1c0.2-0.2,0.2-0.4,0.1-0.7l-1.4-1.8C143.4-134,143.2-134.1,143-134.1"/>
								</g>
								<g id="g32_91_" transform="translate(20,30)">
									<path id="path34_88_" fill="#FFAC33" d="M146-133.8c-0.3,0-0.5,0.2-0.5,0.5v2.3c0,0.3,0.2,0.5,0.5,0.5s0.5-0.2,0.5-0.5
										v-2.3C146.5-133.6,146.3-133.8,146-133.8"/>
								</g>
								<g id="g36_82_" transform="translate(29.417,27.333)">
									<path id="path38_82_" fill="#FFAC33" d="M141-132.3c-0.2,0-0.4,0.1-0.4,0.3c-0.1,0.2,0,0.5,0.3,0.6l2.1,0.8
										c0.2,0.1,0.5,0,0.6-0.3c0.1-0.2,0-0.5-0.3-0.6l-2.1-0.8H141"/>
								</g>
							</g>
						</g>
					</g>
				</g>
			</g>
		</g>
		<g id="g10_4_" transform="matrix(1.25,0,0,-1.25,0,47.5)">
			<g id="g12_7_">
				<g>
					<g>
						<g>
							<g id="g14_7_">
								<g id="g20_7_" transform="translate(27,28.0005)">
									<path id="path22_4_" fill="#292F33" d="M100.7-133.1c-1.7,0-3,0.8-3.8,2.3c-0.8-1.5-1.9-2.3-3.3-2.3
										c-0.3,0-0.5,0.2-0.5,0.5s0.2,0.5,0.5,0.5c1.3,0,2.3,0.9,2.9,2.8c0.1,0.2,0.2,0.3,0.5,0.3s0.4-0.1,0.5-0.3
										c0.6-1.9,1.7-2.8,3.3-2.8c0.3,0,0.5-0.2,0.5-0.5C101.2-132.9,101-133.1,100.7-133.1"/>
								</g>
								<g id="g24_7_" transform="translate(15.604,27.3462)">
									<path id="path26_4_" fill="#FFAC33" d="M106.6-132.7c1.6-1.6,0.2-2.8-1.4-4.5c-1.6-1.6-2.8-3-4.5-1.4
										c-1.6,1.6-1.6,4.2,0,5.9C102.3-131,105-131,106.6-132.7"/>
								</g>
								<g id="g28_6_" transform="translate(16.4351,26.0278)">
									<path id="path30_6_" fill="#BE1931" d="M106.1-132c0.8-0.8,0.1-2.6-1.4-4.2c-1.5-1.5-3.5-2.2-4.2-1.4
										c-0.8,0.8-0.1,2.6,1.4,4.2C103.5-131.9,105.4-131.3,106.1-132"/>
								</g>
								<g id="g32_4_" transform="translate(22.2988,27.3462)">
									<path id="path34_4_" fill="#FFAC33" d="M103.1-132.7c-1.6-1.6-0.2-2.8,1.4-4.5c1.6-1.6,2.8-3,4.5-1.4
										c1.6,1.6,1.6,4.2,0,5.9C107.3-131,104.8-131,103.1-132.7"/>
								</g>
								<g id="g36_4_" transform="translate(21.4688,26.0278)">
									<path id="path38_4_" fill="#BE1931" d="M103.5-132c-0.8-0.8-0.1-2.6,1.4-4.2c1.5-1.5,3.5-2.2,4.2-1.4
										c0.8,0.8,0.1,2.6-1.4,4.2C106.1-131.9,104.2-131.3,103.5-132"/>
								</g>
								<g id="g40_6_" transform="translate(23.4102,18.7793)">
									<path id="path42_6_" fill="#AA8DD8" d="M102.5-128.3c0.1,0.1,0.2,0.1,0.3,0.1c0.4,0,0.8-0.2,1-0.4c0.3-0.2,0.4-0.6,0.3-0.9
										c-0.1-0.6-0.6-1.1-1.6-1c-0.4,0-0.5-0.1-0.5-0.1c0-0.1,0.1-0.2,0.5-0.3c0.4,0,0.8-0.2,1-0.4c0.3-0.2,0.4-0.6,0.3-0.9
										c-0.1-0.6-0.6-1.1-1.6-1c-0.3,0-0.4,0-0.5-0.1l-0.1-0.1c0-0.1,0.1-0.2,0.5-0.3c0.3,0,0.4-0.3,0.4-0.5
										c0-0.3-0.3-0.4-0.5-0.4c-1,0.1-1.4,0.7-1.3,1.3s0.6,1.1,1.6,1c0.3,0,0.4,0,0.5,0.1l0.1,0.1c0,0.1-0.1,0.2-0.5,0.3
										c-1,0.1-1.4,0.7-1.3,1.3s0.6,1.1,1.6,1c0.3,0,0.4,0,0.5,0.1l0.1,0.1c0,0.1-0.1,0.2-0.5,0.3c-0.3,0-0.4,0.3-0.4,0.5
										C102.4-128.4,102.5-128.3,102.5-128.3"/>
								</g>
								<g id="g44_5_" transform="translate(16.2661,1.0146)">
									<path id="path46_5_" fill="#77B255" d="M106.2-119c-0.9-0.3-1.6,0.2-1.7,0.7c-0.2,0.5,0.2,1.2,1.1,1.5
										c0.4,0.1,0.5,0.3,0.5,0.3c0,0.1-0.2,0.1-0.6,0c-0.9-0.3-1.6,0.2-1.7,0.7c-0.2,0.5,0.2,1.2,1.1,1.5c0.4,0.1,0.5,0.3,0.5,0.3
										c0,0.1-0.2,0.1-0.6,0c-0.3-0.1-0.5,0.1-0.6,0.3c-0.1,0.3,0.1,0.5,0.3,0.6c0.9,0.3,1.6-0.2,1.7-0.7c0.2-0.5-0.2-1.2-1.1-1.5
										c-0.4-0.1-0.5-0.3-0.5-0.3c0-0.1,0.2-0.1,0.6,0c0.9,0.3,1.6-0.2,1.7-0.7c0.2-0.5-0.2-1.2-1.1-1.5c-0.4-0.1-0.5-0.3-0.5-0.3
										c0-0.1,0.2-0.1,0.6,0c0.3,0.1,0.5-0.1,0.6-0.3C106.6-118.7,106.5-118.9,106.2-119"/>
								</g>
								<g id="g48_5_" transform="translate(2,9.5)">
									<path id="path50_5_" fill="#5C913B" d="M113.7-123.3c0,0.4,0.3,0.7,0.7,0.7c0.4,0,0.7-0.3,0.7-0.7s-0.3-0.7-0.7-0.7
										C114-124.2,113.7-123.8,113.7-123.3"/>
								</g>
								<g id="g52_4_" transform="translate(6,6)">
									<path id="path54_4_" fill="#9266CC" d="M111.6-121.6c0,0.5,0.4,0.9,0.9,0.9s0.9-0.4,0.9-0.9s-0.4-0.9-0.9-0.9
										C111.9-122.6,111.6-122.1,111.6-121.6"/>
								</g>
								<g id="g56_2_" transform="translate(29,10)">
									<path id="path58_2_" fill="#9266CC" d="M99.5-123.7c0,0.5,0.4,0.9,0.9,0.9s0.9-0.4,0.9-0.9s-0.4-0.9-0.9-0.9
										C100.1-124.7,99.5-124.2,99.5-123.7"/>
								</g>
								<g id="g60_2_" transform="translate(25,5.5)">
									<path id="path62_2_" fill="#5C913B" d="M101.6-121.3c0,0.4,0.3,0.7,0.7,0.7c0.4,0,0.7-0.3,0.7-0.7s-0.3-0.7-0.7-0.7
										C102.1-122.1,101.6-121.7,101.6-121.3"/>
								</g>
								<g id="g64_2_" transform="translate(17,17.5)">
									<path id="path66_2_" fill="#5C913B" d="M105.8-127.5c0,0.4,0.3,0.7,0.7,0.7c0.4,0,0.7-0.3,0.7-0.7s-0.3-0.7-0.7-0.7
										C106.1-128.2,105.8-127.9,105.8-127.5"/>
								</g>
								<g id="g68_2_" transform="translate(6,14)">
									<path id="path70_2_" fill="#FFCC4D" d="M111.6-125.7c0,0.5,0.4,0.9,0.9,0.9s0.9-0.4,0.9-0.9s-0.4-0.9-0.9-0.9
										C111.9-126.8,111.6-126.3,111.6-125.7"/>
								</g>
								<g id="g72_2_" transform="translate(27,20.5)">
									<path id="path74_2_" fill="#FFCC4D" d="M100.7-129.1c0,0.4,0.3,0.7,0.7,0.7c0.4,0,0.7-0.3,0.7-0.7s-0.3-0.7-0.7-0.7
										S100.7-129.5,100.7-129.1"/>
								</g>
								<g id="g76_2_" transform="translate(12,22.5)">
									<path id="path78_2_" fill="#FFCC4D" d="M108.5-130.2c0,0.4,0.3,0.7,0.7,0.7s0.7-0.3,0.7-0.7s-0.3-0.7-0.7-0.7
										S108.5-130.6,108.5-130.2"/>
								</g>
							</g>
						</g>
					</g>
				</g>
			</g>
		</g>
		<g id="g10_149_" transform="matrix(1.25,0,0,-1.25,0,47.5)">
			<g id="g12_174_">
				<g>
					<g>
						<g>
							<g id="g14_176_">
								<g id="g20_160_" transform="translate(23.4941,31.6558)">
									<path id="path22_160_" fill="#DD2E44" d="M79.8-133.6c-0.3,0-0.6,0-0.9-0.1c-0.4,0-1.3,0.1-1.7,0.1c-4,0-7.6-1.5-7.6-6.9
										c0-4.3,3.3-7.8,8.2-7.8c4.7,0,8.6,3.5,8.6,7.8C86.3-135,81.9-133.6,79.8-133.6"/>
								</g>
								<g id="g24_151_" transform="translate(9.439,36.9087)">
									<path id="path26_151_" fill="#77B255" d="M87.1-136.3c0.8-0.8,1.3-1.1,1.6-2.3c0.1-0.7,1.1-0.7,1.1-0.7s-1.9-0.8-2.6-1.6
										c0,0,2.3,0.8,3.1,0.8c0,0,1.6-0.8,1.6-1.6c0,0,0,1.6-0.8,1.6c0,0,2.3,0,2.3-1.6c0,0,0,2.3-0.8,2.3c0,0,2.3,0.8,3.1,0
										c0,0-0.8,0.8-2.3,0.8c0,0,0.8,0.8,2.3,0.8c0,0-2.5,0.7-3.3-0.8c0,0-0.7,0.7,0.7,2.1c0,0-2.1-0.4-2.1-1.9c0,0-0.7,0-1.3,0.6
										C88.8-136.9,87.1-136.3,87.1-136.3"/>
								</g>
							</g>
						</g>
					</g>
				</g>
			</g>
		</g>
		<g id="g10_159_" transform="matrix(1.25,0,0,-1.25,0,47.5)">
			<g id="g12_183_">
				<g>
					<g>
						<g>
							<g id="g14_185_">
								<g id="g20_173_" transform="translate(35.751,15)">
									<path id="path22_173_" fill="#77B255" d="M51.9-124.9c-1.6,0-5.7-1.7-7.6-3.5v5.9c0,0.3-0.2,0.5-0.5,0.5s-0.5-0.2-0.5-0.5
										v-5.9c-1.8,1.7-5.9,3.5-7.7,3.5c-0.4,0,5.2-6.6,7.7-6.1v-0.2c0-0.3,0.2-0.5,0.5-0.5s0.5,0.2,0.5,0.5v0.2
										C46.8-131.5,52.3-124.9,51.9-124.9"/>
								</g>
								<g id="g24_160_" transform="translate(26,23.5835)">
									<path id="path26_160_" fill="#EA596E" d="M57-129.3c0-3-0.8-4.5-3.3-4.5s-3.3,1.5-3.3,4.5s2.4,6.4,3.3,6.4
										C54.5-122.9,57-126.4,57-129.3"/>
								</g>
								<g id="g28_118_" transform="translate(23.7949,35)">
									<path id="path30_111_" fill="#F4ABBA" d="M58.1-135.3c-0.2,0-1.9-6.9-2.3-9.2c-0.4,2.4-2.1,9.2-2.4,9.2
										c-0.5,0-2.8-4.3-2.8-6.3s2.8-3.8,5.2-3.8s5.2,1.9,5.2,3.8S58.7-135.3,58.1-135.3"/>
								</g>
							</g>
						</g>
					</g>
				</g>
			</g>
		</g>
		<g id="g10_153_" transform="matrix(1.25,0,0,-1.25,0,47.5)">
			<g id="g12_177_">
				<g>
					<g>
						<g>
							<g id="g14_179_">
								<g id="g20_163_" transform="translate(36,19)">
									<path id="path22_163_" fill="#FDCB58" d="M30.3-127.6c0-4.5-3.6-8.2-8.2-8.2c-4.5,0-8.2,3.6-8.2,8.2c0,4.6,3.6,8.2,8.2,8.2
										C26.7-119.5,30.3-123.2,30.3-127.6"/>
								</g>
								<g id="g24_154_" transform="translate(7,24)">
									<path id="path26_154_" fill="#664500" d="M45.4-130.1c-0.3,0-0.5,0.2-0.5,0.5s0.2,0.5,0.5,0.5c0.1,0,1.7,0,2.9,1.7
										c0.2,0.2,0.5,0.3,0.7,0.1c0.2-0.2,0.3-0.5,0.1-0.7C47.6-130.1,45.5-130.1,45.4-130.1"/>
								</g>
								<g id="g28_112_" transform="translate(31,24)">
									<path id="path30_106_" fill="#664500" d="M32.9-130.1c-0.1,0-2.2,0-3.7,2.1c-0.2,0.2-0.1,0.5,0.1,0.7
										c0.1,0.2,0.5,0.1,0.7-0.1c1.3-1.7,2.9-1.7,2.9-1.7c0.3,0,0.5-0.2,0.5-0.5C33.3-129.9,33.2-130.1,32.9-130.1"/>
								</g>
								<g id="g32_88_" transform="translate(31.5996,16.7998)">
									<path id="path34_85_" fill="#664500" d="M32.6-126.5c-0.1,0-0.9,0.7-2.2,1.1c0,0.1,0,0.1,0,0.2c0,0.2-0.1,0.3-0.2,0.5
										c0.9,0.2,1.6,0.3,1.6,0.3c0.3,0,0.5,0.2,0.5,0.5s-0.2,0.5-0.5,0.5c-0.1,0-2.6,0-4.2-1.6c-0.1-0.1-0.2-0.3-0.1-0.5
										s0.2-0.3,0.4-0.3c2.2,0,4-1.3,4-1.3c0.1-0.1,0.2-0.1,0.3-0.1s0.3,0.1,0.4,0.2C32.8-126.9,32.8-126.6,32.6-126.5"/>
								</g>
								<g id="g36_80_" transform="translate(16.707,19.707)">
									<path id="path38_80_" fill="#664500" d="M40.3-128c-1.5,1.5-4,1.6-4.2,1.6c-0.3,0-0.5-0.2-0.5-0.5s0.2-0.5,0.5-0.5
										c0,0,0.7,0,1.6-0.3c-0.1-0.1-0.2-0.3-0.2-0.5c0-0.1,0-0.1,0-0.2c-1.3-0.4-2.2-1.1-2.2-1.1c-0.2-0.2-0.3-0.5-0.1-0.7
										c0.1-0.1,0.2-0.2,0.4-0.2c0.1,0,0.2,0,0.3,0.1c0,0,1.8,1.3,4,1.3c0.2,0,0.4,0.1,0.4,0.3C40.5-128.3,40.4-128.1,40.3-128"/>
								</g>
								<g id="g40_82_" transform="translate(19,7)">
									<path id="path42_80_" fill="#664500" d="M39.1-121.3c-0.1,0-0.3,0.1-0.4,0.2l-1.5,1.9l-1.1-1.4c-0.1-0.1-0.2-0.2-0.3-0.2
										s-0.3,0-0.4,0.1l-0.5,0.5c-0.2,0.2-0.2,0.5,0,0.7s0.5,0.2,0.7,0l0.1-0.1l1.1,1.5c0.1,0.1,0.2,0.2,0.4,0.2
										c0.1,0,0.3-0.1,0.4-0.2l1.5-1.9l1.5,1.9c0.1,0.1,0.2,0.2,0.4,0.2c0.1,0,0.3-0.1,0.4-0.2l1.1-1.5l0.1,0.1
										c0.2,0.2,0.5,0.2,0.7,0s0.2-0.5,0-0.7l-0.5-0.5c-0.1-0.1-0.2-0.1-0.4-0.1c-0.1,0-0.3,0.1-0.3,0.2l-1.1,1.4l-1.5-1.9
										C39.4-121.3,39.2-121.3,39.1-121.3"/>
								</g>
							</g>
						</g>
					</g>
				</g>
			</g>
		</g>
		<g id="g10_148_" transform="matrix(1.25,0,0,-1.25,0,47.5)">
			<g id="g12_173_">
				<g>
					<g>
						<g>
							<g id="g14_175_">
								<g id="g20_159_" transform="translate(36,19)">
									<path id="path22_159_" fill="#FFCC4D" d="M138.7-84.3c0-4.5-3.6-8.2-8.2-8.2s-8.2,3.6-8.2,8.2s3.6,8.2,8.2,8.2
										C135.1-76.2,138.7-79.9,138.7-84.3"/>
								</g>
								<g id="g24_150_" transform="translate(29.457,19.2031)">
									<path id="path26_150_" fill="#664500" d="M142.1-84.4c0,0.1-0.7,1.6-2.1,1.6s-2.1-1.5-2.1-1.6s0-0.2,0.1-0.3s0.2-0.1,0.3,0
										c0,0,0.6,0.4,1.8,0.4s1.7-0.4,1.8-0.4h0.1c0.1,0,0.1,0,0.1,0.1C142.1-84.6,142.2-84.5,142.1-84.4"/>
								</g>
								<g id="g28_109_" transform="translate(17.457,19.2031)">
									<path id="path30_104_" fill="#664500" d="M148.3-84.4c0,0.1-0.7,1.6-2.1,1.6s-2.1-1.5-2.1-1.6s0-0.2,0.1-0.3
										c0.1-0.1,0.2-0.1,0.3,0c0,0,0.6,0.4,1.8,0.4s1.7-0.4,1.8-0.4h0.1c0.1,0,0.1,0,0.1,0.1C148.3-84.6,148.5-84.5,148.3-84.4"/>
								</g>
								<g id="g32_86_" transform="translate(32,20.9995)">
									<path id="path34_83_" fill="#664500" d="M140.8-85.4c-0.2,0-0.4,0.1-0.4,0.3c-0.8,2.1-3,2.6-3,2.6
										c-0.3,0.1-0.4,0.3-0.4,0.6c0.1,0.3,0.3,0.4,0.6,0.4c0.1,0,2.6-0.6,3.7-3.1c0.1-0.2,0-0.5-0.3-0.6
										C141-85.4,141-85.4,140.8-85.4"/>
								</g>
								<g id="g36_77_" transform="translate(5.9995,20.9995)">
									<path id="path38_77_" fill="#664500" d="M154.4-85.4c-0.1,0-0.1,0-0.2,0c-0.2,0.1-0.4,0.4-0.3,0.6c1,2.6,3.6,3.1,3.7,3.1
										c0.3,0.1,0.5-0.1,0.6-0.4s-0.1-0.5-0.4-0.6c-0.1,0-2.1-0.5-3-2.6C154.7-85.3,154.5-85.4,154.4-85.4"/>
								</g>
								<g id="g40_79_" transform="translate(19,15)">
									<path id="path42_77_" fill="#664500" d="M147.6-82.3c-1.7,0-2.9,0.2-4.3,0.5c-0.3,0.1-0.9,0-0.9-0.9c0-1.9,2.2-4.3,5.2-4.3
										s5.2,2.4,5.2,4.3c0,0.9-0.6,1-0.9,0.9C150.5-82,149.3-82.3,147.6-82.3"/>
								</g>
								<g id="g44_61_" transform="translate(10,14)">
									<path id="path46_61_" fill="#FFFFFF" d="M152.4-81.7c0,0,1.4-0.5,4.3-0.5c2.8,0,4.3,0.5,4.3,0.5s-0.9-1.9-4.3-1.9
										C153.2-83.7,152.4-81.7,152.4-81.7"/>
								</g>
								<g id="g48_50_" transform="translate(11.8472,8.7705)">
									<path id="path50_50_" fill="#5DADEC" d="M151.3-78.9c-0.3-1.3-1.6-2.1-2.9-1.7c-1.3,0.3-2.1,1.6-1.7,2.9s3,4.2,3.5,4
										C150.6-73.9,151.7-77.7,151.3-78.9"/>
								</g>
								<g id="g52_49_" transform="translate(26.1328,8.7705)">
									<path id="path54_47_" fill="#5DADEC" d="M143.9-78.9c0.3-1.3,1.6-2.1,2.9-1.7c1.3,0.3,2.1,1.6,1.7,2.9s-3,4.2-3.5,4
										C144.5-73.9,143.6-77.7,143.9-78.9"/>
								</g>
							</g>
						</g>
					</g>
				</g>
			</g>
		</g>
		<g id="g10_2_" transform="matrix(1.25,0,0,-1.25,0,47.5)">
			<g id="g12_2_">
				<g>
					<g>
						<g>
							<g id="g14_2_">
								<g id="g20_2_" transform="translate(27,28.0005)">
									<path id="path22_2_" fill="#292F33" d="M100.3-89.4c-1.7,0-3,0.8-3.8,2.3c-0.8-1.5-1.9-2.3-3.3-2.3c-0.3,0-0.5,0.2-0.5,0.5
										s0.2,0.5,0.5,0.5c1.3,0,2.3,0.9,2.9,2.8c0.1,0.2,0.2,0.3,0.5,0.3s0.4-0.1,0.5-0.3c0.6-1.9,1.7-2.8,3.3-2.8
										c0.3,0,0.5-0.2,0.5-0.5C100.8-89.2,100.6-89.4,100.3-89.4"/>
								</g>
								<g id="g24_2_" transform="translate(15.604,27.3462)">
									<path id="path26_2_" fill="#FFAC33" d="M106.2-89c1.6-1.6,0.2-2.8-1.4-4.5c-1.6-1.6-2.8-3-4.5-1.4c-1.6,1.6-1.6,4.2,0,5.9
										C101.9-87.3,104.6-87.3,106.2-89"/>
								</g>
								<g id="g28_2_" transform="translate(16.4351,26.0278)">
									<path id="path30_2_" fill="#BE1931" d="M105.7-88.3c0.8-0.8,0.1-2.6-1.4-4.2c-1.5-1.5-3.5-2.2-4.2-1.4
										c-0.8,0.8-0.1,2.6,1.4,4.2C103.1-88.2,105-87.6,105.7-88.3"/>
								</g>
								<g id="g32_2_" transform="translate(22.2988,27.3462)">
									<path id="path34_2_" fill="#FFAC33" d="M102.7-89c-1.6-1.6-0.2-2.8,1.4-4.5c1.6-1.6,2.8-3,4.5-1.4c1.6,1.6,1.6,4.2,0,5.9
										C106.9-87.3,104.3-87.3,102.7-89"/>
								</g>
								<g id="g36_2_" transform="translate(21.4688,26.0278)">
									<path id="path38_2_" fill="#BE1931" d="M103.1-88.3c-0.8-0.8-0.1-2.6,1.4-4.2c1.5-1.5,3.5-2.2,4.2-1.4
										c0.8,0.8,0.1,2.6-1.4,4.2C105.7-88.2,103.8-87.6,103.1-88.3"/>
								</g>
								<g id="g40_4_" transform="translate(23.4102,18.7793)">
									<path id="path42_4_" fill="#AA8DD8" d="M102.1-84.5c0.1,0.1,0.2,0.1,0.3,0.1c0.4,0,0.8-0.2,1-0.4c0.3-0.2,0.4-0.6,0.3-0.9
										c-0.1-0.6-0.6-1.1-1.6-1c-0.4,0-0.5-0.1-0.5-0.1c0-0.1,0.1-0.2,0.5-0.3c0.4,0,0.8-0.2,1-0.4c0.3-0.2,0.4-0.6,0.3-0.9
										c-0.1-0.6-0.6-1.1-1.6-1c-0.3,0-0.4,0-0.5-0.1l-0.1-0.1c0-0.1,0.1-0.2,0.5-0.3c0.3,0,0.4-0.3,0.4-0.5
										c0-0.3-0.3-0.4-0.5-0.4c-1,0.1-1.4,0.7-1.3,1.3c0.1,0.6,0.6,1.1,1.6,1c0.3,0,0.4,0,0.5,0.1l0.1,0.1c0,0.1-0.1,0.2-0.5,0.3
										c-1,0.1-1.4,0.7-1.3,1.3c0.1,0.6,0.6,1.1,1.6,1c0.3,0,0.4,0,0.5,0.1l0.1,0.1c0,0.1-0.1,0.2-0.5,0.3c-0.3,0-0.4,0.3-0.4,0.5
										C102-84.7,102-84.6,102.1-84.5"/>
								</g>
								<g id="g44_3_" transform="translate(16.2661,1.0146)">
									<path id="path46_3_" fill="#77B255" d="M105.8-75.3c-0.9-0.3-1.6,0.2-1.7,0.7c-0.2,0.5,0.2,1.2,1.1,1.5
										c0.4,0.1,0.5,0.3,0.5,0.3c0,0.1-0.2,0.1-0.6,0c-0.9-0.3-1.6,0.2-1.7,0.7c-0.2,0.5,0.2,1.2,1.1,1.5c0.4,0.1,0.5,0.3,0.5,0.3
										c0,0.1-0.2,0.1-0.6,0c-0.3-0.1-0.5,0.1-0.6,0.3c-0.1,0.3,0.1,0.5,0.3,0.6c0.9,0.3,1.6-0.2,1.7-0.7c0.2-0.5-0.2-1.2-1.1-1.5
										c-0.4-0.1-0.5-0.3-0.5-0.3c0-0.1,0.2-0.1,0.6,0c0.9,0.3,1.6-0.2,1.7-0.7c0.2-0.5-0.2-1.2-1.1-1.5c-0.4-0.1-0.5-0.3-0.5-0.3
										c0-0.1,0.2-0.1,0.6,0c0.3,0.1,0.5-0.1,0.6-0.3C106.2-75,106.1-75.2,105.8-75.3"/>
								</g>
								<g id="g48_3_" transform="translate(2,9.5)">
									<path id="path50_3_" fill="#5C913B" d="M113.3-79.6c0,0.4,0.3,0.7,0.7,0.7c0.4,0,0.7-0.3,0.7-0.7c0-0.4-0.3-0.7-0.7-0.7
										C113.5-80.5,113.3-80.1,113.3-79.6"/>
								</g>
								<g id="g52_2_" transform="translate(6,6)">
									<path id="path54_2_" fill="#9266CC" d="M111.2-77.9c0,0.5,0.4,0.9,0.9,0.9s0.9-0.4,0.9-0.9s-0.4-0.9-0.9-0.9
										C111.5-78.9,111.2-78.4,111.2-77.9"/>
								</g>
								<g id="g56_1_" transform="translate(29,10)">
									<path id="path58_1_" fill="#9266CC" d="M99.1-80c0,0.5,0.4,0.9,0.9,0.9s0.9-0.4,0.9-0.9s-0.4-0.9-0.9-0.9
										C99.7-81,99.1-80.5,99.1-80"/>
								</g>
								<g id="g60_1_" transform="translate(25,5.5)">
									<path id="path62_1_" fill="#5C913B" d="M101.2-77.6c0,0.4,0.3,0.7,0.7,0.7s0.7-0.3,0.7-0.7c0-0.4-0.3-0.7-0.7-0.7
										C101.6-78.4,101.2-78,101.2-77.6"/>
								</g>
								<g id="g64_1_" transform="translate(17,17.5)">
									<path id="path66_1_" fill="#5C913B" d="M105.4-83.8c0,0.4,0.3,0.7,0.7,0.7s0.7-0.3,0.7-0.7c0-0.4-0.3-0.7-0.7-0.7
										S105.4-84.2,105.4-83.8"/>
								</g>
								<g id="g68_1_" transform="translate(6,14)">
									<path id="path70_1_" fill="#FFCC4D" d="M111.2-82c0,0.5,0.4,0.9,0.9,0.9s0.9-0.4,0.9-0.9s-0.4-0.9-0.9-0.9
										C111.5-83.1,111.2-82.6,111.2-82"/>
								</g>
								<g id="g72_1_" transform="translate(27,20.5)">
									<path id="path74_1_" fill="#FFCC4D" d="M100.3-85.4c0,0.4,0.3,0.7,0.7,0.7s0.7-0.3,0.7-0.7c0-0.4-0.3-0.7-0.7-0.7
										S100.3-85.8,100.3-85.4"/>
								</g>
								<g id="g76_1_" transform="translate(12,22.5)">
									<path id="path78_1_" fill="#FFCC4D" d="M108.1-86.5c0,0.4,0.3,0.7,0.7,0.7s0.7-0.3,0.7-0.7c0-0.4-0.3-0.7-0.7-0.7
										S108.1-86.9,108.1-86.5"/>
								</g>
							</g>
						</g>
					</g>
				</g>
			</g>
		</g>
		<g id="g10_158_" transform="matrix(1.25,0,0,-1.25,0,47.5)">
			<g id="g12_182_">
				<g>
					<g>
						<g>
							<g id="g14_184_">
								<g id="g20_172_" transform="translate(19,33)">
									<path id="path22_172_" fill="#F4900C" d="M82.7-91.2c3.5,0,6.2-1.9,7-0.9c0.1,0.2,0.1,0.3,0.1,0.5c0,0.9-3.3,2.4-7.1,2.4
										c-4,0-7.1-1.4-7.1-2.4c0-0.2,0-0.3,0.1-0.5C76.5-93.1,79.3-91.2,82.7-91.2"/>
								</g>
								<g id="g24_159_" transform="translate(19,34)">
									<path id="path26_159_" fill="#FFCC4D" d="M82.7-91.9c-2.9,0-5-0.9-5.9-1.2c-0.2-0.1-0.3-0.4-0.2-0.6
										c0.1-0.1,5.1-12.9,5.1-12.9s0.4-0.9,0.9-0.9s0.9,0.9,0.9,0.9l5,12.9c0,0,0.1,0.4-0.3,0.6C87.6-92.6,85.6-91.9,82.7-91.9"/>
								</g>
							</g>
						</g>
					</g>
				</g>
			</g>
			<g id="g28_117_">
				<g>
					<g>
						<g>
							<g>
								<g>
									<g>
										<g>
											<g>
												<g>
													<g>
														<g>
															<g>
																<defs>
																	<path id="SVGID_1_" d="M95.9-59.1c-0.2-0.1-0.3-0.4-0.2-0.6l0,0c0.1-0.2,5-12.9,5-12.9l0,0c0,0,0.5-0.9,0.9-0.9
																		l0,0c0.5,0,0.9,0.9,0.9,0.9l0,0l5,12.9c0,0,0.1,0.4-0.3,0.6l0,0c-0.8,0.4-2.9,1.2-5.7,1.2l0,0
																		C98.8-57.9,96.6-58.6,95.9-59.1"/>
																</defs>
																<clipPath id="SVGID_2_">
																	<use xlink:href="#SVGID_1_"  overflow="visible"/>
																</clipPath>
																<g id="g30_4_" clip-path="url(#SVGID_2_)">
																	<g id="g36_83_" transform="translate(19,6)">
																		<path id="path38_83_" fill="#BE1931" d="M82.7-77.1c0-1-0.8-1.9-1.9-1.9c-1,0-1.9,0.8-1.9,1.9s0.8,1.9,1.9,1.9
																			C81.9-75.2,82.7-76,82.7-77.1"/>
																	</g>
																	<g id="g40_84_" transform="translate(18,17)">
																		<path id="path42_82_" fill="#BE1931" d="M83.2-82.9c0-1-0.8-1.9-1.9-1.9c-1,0-1.9,0.8-1.9,1.9
																			c0,1,0.8,1.9,1.9,1.9C82.4-81,83.2-81.8,83.2-82.9"/>
																	</g>
																	<g id="g44_65_" transform="translate(21,29)">
																		<path id="path46_65_" fill="#BE1931" d="M81.6-89.1c0-1-0.8-1.9-1.9-1.9c-1,0-1.9,0.8-1.9,1.9
																			c0,1,0.8,1.9,1.9,1.9C80.8-87.2,81.6-88.1,81.6-89.1"/>
																	</g>
																	<g id="g48_54_" transform="translate(30,24)">
																		<path id="path50_54_" fill="#BE1931" d="M76.9-86.6c0-1-0.8-1.9-1.9-1.9s-1.9,0.8-1.9,1.9c0,1,0.8,1.9,1.9,1.9
																			S76.9-85.5,76.9-86.6"/>
																	</g>
																	<g id="g52_52_" transform="translate(28,12)">
																		<path id="path54_50_" fill="#BE1931" d="M78-80.3c0-1-0.8-1.9-1.9-1.9s-1.9,0.8-1.9,1.9c0,1,0.8,1.9,1.9,1.9
																			S78-79.2,78-80.3"/>
																	</g>
																	<g id="g56_37_" transform="translate(11,25)">
																		<path id="path58_37_" fill="#BE1931" d="M86.9-87.1c0-1-0.8-1.9-1.9-1.9c-1,0-1.9,0.8-1.9,1.9
																			c0,1,0.8,1.9,1.9,1.9C86-85.1,86.9-86,86.9-87.1"/>
																	</g>
																</g>
															</g>
														</g>
													</g>
												</g>
											</g>
										</g>
									</g>
								</g>
							</g>
						</g>
					</g>
				</g>
			</g>
		</g>
		<g id="g10_3_" transform="matrix(1.25,0,0,-1.25,0,47.5)">
			<g id="g12_6_">
				<g>
					<g>
						<g>
							<g id="g14_6_">
								<g id="g20_5_" transform="translate(36,19)">
									<path id="path22_3_" fill="#FFCC4D" d="M52.5-83.4c0-4.5-3.6-8.2-8.2-8.2s-8.2,3.6-8.2,8.2s3.6,8.2,8.2,8.2
										C48.9-75.3,52.5-79,52.5-83.4"/>
								</g>
								<g id="g24_5_" transform="translate(29.457,19.2031)">
									<path id="path26_3_" fill="#664500" d="M55.9-83.5c0,0.1-0.7,1.6-2.1,1.6s-2.1-1.5-2.1-1.6s0-0.2,0.1-0.3
										c0.1-0.1,0.2-0.1,0.3,0c0,0,0.6,0.4,1.8,0.4s1.7-0.4,1.8-0.4h0.1c0.1,0,0.1,0,0.1,0.1C55.9-83.7,56-83.6,55.9-83.5"/>
								</g>
								<g id="g28_3_" transform="translate(17.457,19.2031)">
									<path id="path30_3_" fill="#664500" d="M62.1-83.5c0,0.1-0.7,1.6-2.1,1.6s-2.1-1.5-2.1-1.6s0-0.2,0.1-0.3
										c0.1-0.1,0.2-0.1,0.3,0c0,0,0.6,0.4,1.8,0.4s1.7-0.4,1.8-0.4H62c0.1,0,0.1,0,0.1,0.1C62.1-83.7,62.3-83.6,62.1-83.5"/>
								</g>
								<g id="g32_3_" transform="translate(32,20.9995)">
									<path id="path34_3_" fill="#664500" d="M54.6-84.5c-0.2,0-0.4,0.1-0.4,0.3c-0.8,2.1-3,2.6-3,2.6c-0.3,0.1-0.4,0.3-0.4,0.6
										c0.1,0.3,0.3,0.4,0.6,0.4c0.1,0,2.6-0.6,3.7-3.1c0.1-0.2,0-0.5-0.3-0.6C54.8-84.5,54.8-84.5,54.6-84.5"/>
								</g>
								<g id="g36_3_" transform="translate(5.9995,20.9995)">
									<path id="path38_3_" fill="#664500" d="M68.2-84.5c-0.1,0-0.1,0-0.2,0c-0.2,0.1-0.4,0.4-0.3,0.6c1,2.6,3.6,3.1,3.7,3.1
										c0.3,0.1,0.5-0.1,0.6-0.4s-0.1-0.5-0.4-0.6c-0.1,0-2.1-0.5-3-2.6C68.5-84.4,68.3-84.5,68.2-84.5"/>
								</g>
								<g id="g40_5_" transform="translate(19,15)">
									<path id="path42_5_" fill="#664500" d="M61.4-81.3c-1.7,0-2.9,0.2-4.3,0.5c-0.3,0.1-0.9,0-0.9-0.9c0-1.9,2.2-4.3,5.2-4.3
										s5.2,2.4,5.2,4.3c0,0.9-0.6,1-0.9,0.9C64.3-81.1,63.1-81.3,61.4-81.3"/>
								</g>
								<g id="g44_4_" transform="translate(10,14)">
									<path id="path46_4_" fill="#FFFFFF" d="M66.2-80.8c0,0,1.4-0.5,4.3-0.5c2.8,0,4.3,0.5,4.3,0.5s-0.9-1.9-4.3-1.9
										C67-82.7,66.2-80.8,66.2-80.8"/>
								</g>
								<g id="g48_4_" transform="translate(11.8472,8.7705)">
									<path id="path50_4_" fill="#5DADEC" d="M65.1-78c-0.3-1.3-1.6-2.1-2.9-1.7c-1.3,0.3-2.1,1.6-1.7,2.9s3,4.2,3.5,4
										C64.4-73,65.5-76.8,65.1-78"/>
								</g>
								<g id="g52_3_" transform="translate(26.1328,8.7705)">
									<path id="path54_3_" fill="#5DADEC" d="M57.7-78c0.3-1.3,1.6-2.1,2.9-1.7c1.3,0.3,2.1,1.6,1.7,2.9s-3,4.2-3.5,4
										C58.3-73,57.4-76.8,57.7-78"/>
								</g>
							</g>
						</g>
					</g>
				</g>
			</g>
		</g>
		<g id="g10_157_" transform="matrix(1.25,0,0,-1.25,0,47.5)">
			<g id="g12_181_">
				<g>
					<g>
						<g>
							<g id="g14_183_">
								<g id="g20_171_" transform="translate(18,19)">
									<path id="path22_171_" fill="#E1E8ED" d="M39.6-84.8c0-2.6-1.8-4.7-4-4.7s-4,2.1-4,4.7s1.8,4.7,4,4.7S39.6-82.2,39.6-84.8"
										/>
								</g>
								<g id="g24_158_" transform="translate(37,19)">
									<path id="path26_158_" fill="#E1E8ED" d="M29.6-84.8c0-2.6-1.8-4.7-4-4.7s-4,2.1-4,4.7s1.8,4.7,4,4.7
										C27.9-80.1,29.6-82.2,29.6-84.8"/>
								</g>
								<g id="g28_116_" transform="translate(9,15)">
									<path id="path30_110_" fill="#292F33" d="M44.2-82.7c0-0.8-0.6-1.4-1.4-1.4s-1.4,0.6-1.4,1.4s0.6,1.4,1.4,1.4
										S44.2-82,44.2-82.7"/>
								</g>
								<g id="g32_92_" transform="translate(28,15)">
									<path id="path34_89_" fill="#292F33" d="M34.4-82.7c0-0.8-0.6-1.4-1.4-1.4s-1.4,0.6-1.4,1.4s0.6,1.4,1.4,1.4
										C33.7-81.3,34.4-82,34.4-82.7"/>
								</g>
							</g>
						</g>
					</g>
				</g>
			</g>
		</g>
	</g>
	<g id="onboarding_slide_6_encrypted_emoji_2">
		<g id="g10_49_" transform="matrix(1.25,0,0,-1.25,0,47.5)">
			<g id="g12_52_">
				<g>
					<g>
						<g>
							<g id="g14_52_">
								<g id="g20_52_" transform="translate(23.4941,31.6558)">
									<path id="path22_52_" fill="#DD2E44" d="M188.3-134.4c-0.3,0-0.6,0-0.9-0.1c-0.4,0-1.3,0.1-1.7,0.1c-4,0-7.6-1.5-7.6-6.9
										c0-4.3,3.3-7.8,8.2-7.8c4.7,0,8.6,3.5,8.6,7.8C194.7-135.8,190.4-134.4,188.3-134.4"/>
								</g>
								<g id="g24_50_" transform="translate(9.439,36.9087)">
									<path id="path26_50_" fill="#77B255" d="M195.6-137.1c0.8-0.8,1.3-1.1,1.6-2.3c0.1-0.7,1.1-0.7,1.1-0.7s-1.9-0.8-2.6-1.6
										c0,0,2.3,0.8,3.1,0.8c0,0,1.6-0.8,1.6-1.6c0,0,0,1.6-0.8,1.6c0,0,2.3,0,2.3-1.6c0,0,0,2.3-0.8,2.3c0,0,2.3,0.8,3.1,0
										c0,0-0.8,0.8-2.3,0.8c0,0,0.8,0.8,2.3,0.8c0,0-2.5,0.7-3.3-0.8c0,0-0.7,0.7,0.7,2.1c0,0-2.1-0.4-2.1-1.9c0,0-0.7,0-1.3,0.6
										C197.2-137.7,195.6-137.1,195.6-137.1"/>
								</g>
							</g>
						</g>
					</g>
				</g>
			</g>
		</g>
		<g id="g10_46_" transform="matrix(1.25,0,0,-1.25,0,47.5)">
			<g id="g12_49_">
				<g>
					<g>
						<g>
							<g id="g14_49_">
								<g id="g20_49_" transform="translate(35.751,15)">
									<path id="path22_49_" fill="#77B255" d="M159.3-125.7c-1.6,0-5.7-1.7-7.6-3.5v5.9c0,0.3-0.2,0.5-0.5,0.5s-0.5-0.2-0.5-0.5
										v-5.9c-1.8,1.7-5.9,3.5-7.7,3.5c-0.4,0,5.2-6.6,7.7-6.1v-0.2c0-0.3,0.2-0.5,0.5-0.5s0.5,0.2,0.5,0.5v0.2
										C154.2-132.3,159.6-125.7,159.3-125.7"/>
								</g>
								<g id="g24_47_" transform="translate(26,23.5835)">
									<path id="path26_47_" fill="#EA596E" d="M164.3-130.1c0-3-0.8-4.5-3.3-4.5s-3.3,1.5-3.3,4.5s2.4,6.4,3.3,6.4
										C161.9-123.8,164.3-127.1,164.3-130.1"/>
								</g>
								<g id="g28_45_" transform="translate(23.7949,35)">
									<path id="path30_41_" fill="#F4ABBA" d="M165.5-136.1c-0.2,0-1.9-6.9-2.3-9.2c-0.4,2.4-2.1,9.2-2.4,9.2
										c-0.5,0-2.8-4.3-2.8-6.3s2.8-3.8,5.2-3.8c2.5,0,5.2,1.9,5.2,3.8S166-136.1,165.5-136.1"/>
								</g>
							</g>
						</g>
					</g>
				</g>
			</g>
		</g>
		<g id="g10_18_" transform="matrix(1.25,0,0,-1.25,0,47.5)">
			<g id="g12_21_">
				<g>
					<g>
						<g>
							<g id="g14_21_">
								<g id="g20_21_" transform="translate(18,19)">
									<path id="path22_21_" fill="#E1E8ED" d="M146.7-128.7c0-2.6-1.8-4.7-4-4.7s-4,2.1-4,4.7c0,2.6,1.8,4.7,4,4.7
										S146.7-126.1,146.7-128.7"/>
								</g>
								<g id="g24_20_" transform="translate(37,19)">
									<path id="path26_20_" fill="#E1E8ED" d="M136.9-128.7c0-2.6-1.8-4.7-4-4.7s-4,2.1-4,4.7c0,2.6,1.8,4.7,4,4.7
										C135.1-124,136.9-126.1,136.9-128.7"/>
								</g>
								<g id="g28_19_" transform="translate(9,15)">
									<path id="path30_17_" fill="#292F33" d="M151.5-126.6c0-0.8-0.6-1.4-1.4-1.4s-1.4,0.6-1.4,1.4s0.6,1.4,1.4,1.4
										C150.7-125.2,151.5-125.8,151.5-126.6"/>
								</g>
								<g id="g32_15_" transform="translate(28,15)">
									<path id="path34_14_" fill="#292F33" d="M141.6-126.6c0-0.8-0.6-1.4-1.4-1.4s-1.4,0.6-1.4,1.4s0.6,1.4,1.4,1.4
										S141.6-125.8,141.6-126.6"/>
								</g>
							</g>
						</g>
					</g>
				</g>
			</g>
		</g>
		<g id="g10_20_" transform="matrix(1.25,0,0,-1.25,0,47.5)">
			<g id="g12_46_">
				<g>
					<g>
						<g>
							<g id="g14_46_">
								<g id="g20_35_" transform="translate(12.9829,33.438)">
									<path id="path22_35_" fill="#FFAC33" d="M107.1-134.5c2.2,0.1,3.7-0.8,3.8-3.3c0.1-2.1-2.5-3.3-3.8-3.3
										c-1.2,0-0.6,0.9,0.3,1.1c0.7,0.2,2.1,1.1,1.7,2.1c-0.3,1.1-2.1,1.3-3-0.1c-0.4-0.6-1.7-0.4-1.9,0.2
										C103.6-136.6,104.6-134.6,107.1-134.5"/>
								</g>
								<g id="g24_28_" transform="translate(36.75,15.6162)">
									<path id="path26_28_" fill="#E1E8ED" d="M94.7-125.2c0,3.7-2.1,5.4-7,5.4c-0.5,0-1,0-1.4-0.1c-0.6,1.1-2.3,1.3-4,1.3
										c-2.1,0-4.7-2.9-4.7-5.2s1.7-2.3,3.7-2.3c0.1-1.5,0.6-2.8,1.5-3.5c0.1-0.5,0.7-2.8,1.9-2.8c0.6,0,1,0.8,1.2,1.6
										c0.5-0.1,1.1-0.1,1.8-0.1c0.8,0,1.6,0.1,2.2,0.2c0-0.8,0.3-1.7,1-1.7c1.1,0,2.1,2.4,2.3,3.1
										C94.2-128.2,94.7-126.9,94.7-125.2"/>
								</g>
								<g id="g28_37_" transform="translate(7,21.2139)">
									<path id="path30_28_" fill="#292F33" d="M110.1-128.2c0-0.4-0.3-0.7-0.7-0.7s-0.7,0.3-0.7,0.7s0.3,0.7,0.7,0.7
										S110.1-127.8,110.1-128.2"/>
								</g>
								<g id="g32_34_" transform="translate(18.5625,32.6611)">
									<path id="path34_19_" fill="#FFCC4D" d="M104.1-134.1c2.1-0.7,2.8-2.1,1.9-4.3c-0.6-1.9-3.5-2.1-4.9-1.6
										c-1.1,0.4-0.3,1.1,0.7,0.9c0.8-0.1,2.2,0.3,2.4,1.3c0.1,1.1-1.4,1.9-2.8,1c-0.6-0.4-2.8-0.2-2.6,0.5
										C99.2-134.8,101.8-133.4,104.1-134.1"/>
								</g>
							</g>
						</g>
					</g>
				</g>
			</g>
		</g>
		<g id="g10_24_" transform="matrix(1.25,0,0,-1.25,0,47.5)">
			<g id="g12_25_">
				<g>
					<g>
						<g>
							<g id="g14_25_">
								<g id="g20_25_" transform="translate(36,19)">
									<path id="path22_25_" fill="#FFCC4D" d="M73-127.8c0-4.5-3.6-8.2-8.2-8.2s-8.2,3.6-8.2,8.2c0,4.6,3.6,8.2,8.2,8.2
										C69.4-119.7,73-123.4,73-127.8"/>
								</g>
								<g id="g24_24_" transform="translate(29.457,19.2031)">
									<path id="path26_24_" fill="#664500" d="M76.4-127.9c0,0.1-0.7,1.6-2.1,1.6s-2.1-1.5-2.1-1.6s0-0.2,0.1-0.3s0.2-0.1,0.3,0
										c0,0,0.6,0.4,1.8,0.4c1.2,0,1.7-0.4,1.8-0.4h0.1c0.1,0,0.1,0,0.1,0.1C76.4-128.1,76.5-128,76.4-127.9"/>
								</g>
								<g id="g28_23_" transform="translate(17.457,19.2031)">
									<path id="path30_21_" fill="#664500" d="M82.6-127.9c0,0.1-0.7,1.6-2.1,1.6s-2.1-1.5-2.1-1.6s0-0.2,0.1-0.3s0.2-0.1,0.3,0
										c0,0,0.6,0.4,1.8,0.4c1.2,0,1.7-0.4,1.8-0.4h0.1c0.1,0,0.1,0,0.1,0.1C82.6-128.1,82.8-128,82.6-127.9"/>
								</g>
								<g id="g32_19_" transform="translate(32,20.9995)">
									<path id="path34_18_" fill="#664500" d="M75.1-128.9c-0.2,0-0.4,0.1-0.4,0.3c-0.8,2.1-3,2.6-3,2.6
										c-0.3,0.1-0.4,0.3-0.4,0.6c0.1,0.3,0.3,0.4,0.6,0.4c0.1,0,2.6-0.6,3.7-3.1c0.1-0.2,0-0.5-0.3-0.6
										C75.3-128.9,75.3-128.9,75.1-128.9"/>
								</g>
								<g id="g36_17_" transform="translate(5.9995,20.9995)">
									<path id="path38_17_" fill="#664500" d="M88.7-128.9c-0.1,0-0.1,0-0.2,0c-0.2,0.1-0.4,0.4-0.3,0.6c1,2.6,3.6,3.1,3.7,3.1
										c0.3,0.1,0.5-0.1,0.6-0.4s-0.1-0.5-0.4-0.6c-0.1,0-2.1-0.5-3-2.6C89-128.8,88.8-128.9,88.7-128.9"/>
								</g>
								<g id="g40_16_" transform="translate(19,15)">
									<path id="path42_16_" fill="#664500" d="M81.9-125.7c-1.7,0-2.9,0.2-4.3,0.5c-0.3,0.1-0.9,0-0.9-0.9c0-1.9,2.2-4.3,5.2-4.3
										s5.2,2.4,5.2,4.3c0,0.9-0.6,1-0.9,0.9C84.8-125.5,83.6-125.7,81.9-125.7"/>
								</g>
								<g id="g44_15_" transform="translate(10,14)">
									<path id="path46_15_" fill="#FFFFFF" d="M86.6-125.2c0,0,1.4-0.5,4.3-0.5c2.8,0,4.3,0.5,4.3,0.5s-0.9-1.9-4.3-1.9
										S86.6-125.2,86.6-125.2"/>
								</g>
								<g id="g48_14_" transform="translate(11.8472,8.7705)">
									<path id="path50_14_" fill="#5DADEC" d="M85.6-122.4c-0.3-1.3-1.6-2.1-2.9-1.7c-1.3,0.3-2.1,1.6-1.7,2.9s3,4.2,3.5,4
										C84.9-117.4,86-121.2,85.6-122.4"/>
								</g>
								<g id="g52_12_" transform="translate(26.1328,8.7705)">
									<path id="path54_12_" fill="#5DADEC" d="M78.2-122.4c0.3-1.3,1.6-2.1,2.9-1.7c1.3,0.3,2.1,1.6,1.7,2.9s-3,4.2-3.5,4
										C78.8-117.4,77.9-121.2,78.2-122.4"/>
								</g>
							</g>
						</g>
					</g>
				</g>
			</g>
		</g>
		<g id="g10_5_" transform="matrix(1.25,0,0,-1.25,0,47.5)">
			<g id="g12_8_">
				<g>
					<g>
						<g>
							<g id="g14_8_">
								<g id="g20_8_" transform="translate(19,33)">
									<path id="path22_5_" fill="#F4900C" d="M60.7-135.1c3.5,0,6.2-1.9,7-0.9c0.1,0.2,0.1,0.3,0.1,0.5c0,0.9-3.3,2.4-7.1,2.4
										c-4,0-7.1-1.4-7.1-2.4c0-0.2,0-0.3,0.1-0.5C54.6-137,57.3-135.1,60.7-135.1"/>
								</g>
								<g id="g24_8_" transform="translate(19,34)">
									<path id="path26_5_" fill="#FFCC4D" d="M60.7-135.8c-2.9,0-5-0.9-5.9-1.2c-0.2-0.1-0.3-0.4-0.2-0.6
										c0.1-0.1,5.1-12.9,5.1-12.9s0.4-0.9,0.9-0.9s0.9,0.9,0.9,0.9l5,12.9c0,0,0.1,0.4-0.3,0.6C65.7-136.5,63.7-135.8,60.7-135.8
										"/>
								</g>
							</g>
						</g>
					</g>
				</g>
			</g>
			<g id="g28_8_">
				<g>
					<g>
						<g>
							<g>
								<g>
									<g>
										<g>
											<g>
												<g>
													<g>
														<g>
															<g>
																<defs>
																	<path id="SVGID_3_" d="M74-103c-0.2-0.1-0.3-0.4-0.2-0.6l0,0c0.1-0.2,5-12.9,5-12.9l0,0c0,0,0.5-0.9,0.9-0.9l0,0
																		c0.5,0,0.9,0.9,0.9,0.9l0,0l5,12.9c0,0,0.1,0.4-0.3,0.6l0,0c-0.8,0.4-2.9,1.2-5.7,1.2l0,0
																		C76.8-101.8,74.7-102.6,74-103"/>
																</defs>
																<clipPath id="SVGID_4_">
																	<use xlink:href="#SVGID_3_"  overflow="visible"/>
																</clipPath>
																<g id="g30_1_" clip-path="url(#SVGID_4_)">
																	<g id="g36_6_" transform="translate(19,6)">
																		<path id="path38_6_" fill="#BE1931" d="M60.7-121c0-1-0.8-1.9-1.9-1.9c-1,0-1.9,0.8-1.9,1.9s0.8,1.9,1.9,1.9
																			S60.7-119.9,60.7-121"/>
																	</g>
																	<g id="g40_7_" transform="translate(18,17)">
																		<path id="path42_7_" fill="#BE1931" d="M61.3-126.8c0-1-0.8-1.9-1.9-1.9c-1,0-1.9,0.8-1.9,1.9
																			c0,1,0.8,1.9,1.9,1.9C60.4-124.9,61.3-125.7,61.3-126.8"/>
																	</g>
																	<g id="g44_7_" transform="translate(21,29)">
																		<path id="path46_7_" fill="#BE1931" d="M59.7-133c0-1-0.8-1.9-1.9-1.9c-1,0-1.9,0.8-1.9,1.9c0,1,0.8,1.9,1.9,1.9
																			S59.7-132.1,59.7-133"/>
																	</g>
																	<g id="g48_6_" transform="translate(30,24)">
																		<path id="path50_6_" fill="#BE1931" d="M54.9-130.5c0-1-0.8-1.9-1.9-1.9s-1.9,0.8-1.9,1.9c0,1,0.8,1.9,1.9,1.9
																			S54.9-129.4,54.9-130.5"/>
																	</g>
																	<g id="g52_5_" transform="translate(28,12)">
																		<path id="path54_5_" fill="#BE1931" d="M56.1-124.2c0-1-0.8-1.9-1.9-1.9s-1.9,0.8-1.9,1.9c0,1,0.8,1.9,1.9,1.9
																			C55.2-122.3,56.1-123.1,56.1-124.2"/>
																	</g>
																	<g id="g56_3_" transform="translate(11,25)">
																		<path id="path58_3_" fill="#BE1931" d="M65-131c0-1-0.8-1.9-1.9-1.9c-1,0-1.9,0.8-1.9,1.9c0,1,0.8,1.9,1.9,1.9
																			C64-129,65-129.9,65-131"/>
																	</g>
																</g>
															</g>
														</g>
													</g>
												</g>
											</g>
										</g>
									</g>
								</g>
							</g>
						</g>
					</g>
				</g>
			</g>
		</g>
		<g id="g10_48_" transform="matrix(1.25,0,0,-1.25,0,47.5)">
			<g id="g12_51_">
				<g>
					<g>
						<g>
							<g id="g14_51_">
								<g id="g20_51_" transform="translate(27,28.0005)">
									<path id="path22_51_" fill="#292F33" d="M34-132.4c-1.7,0-3,0.8-3.8,2.3c-0.8-1.5-1.9-2.3-3.3-2.3c-0.3,0-0.5,0.2-0.5,0.5
										s0.2,0.5,0.5,0.5c1.3,0,2.3,0.9,2.9,2.8c0.1,0.2,0.2,0.3,0.5,0.3s0.4-0.1,0.5-0.3c0.6-1.9,1.7-2.8,3.3-2.8
										c0.3,0,0.5-0.2,0.5-0.5C34.5-132.1,34.3-132.4,34-132.4"/>
								</g>
								<g id="g24_49_" transform="translate(15.604,27.3462)">
									<path id="path26_49_" fill="#FFAC33" d="M39.9-132c1.6-1.6,0.2-2.8-1.4-4.5s-2.8-3-4.5-1.4s-1.6,4.2,0,5.9
										S38.3-130.3,39.9-132"/>
								</g>
								<g id="g28_47_" transform="translate(16.4351,26.0278)">
									<path id="path30_43_" fill="#BE1931" d="M39.4-131.3c0.8-0.8,0.1-2.6-1.4-4.2c-1.5-1.5-3.5-2.2-4.2-1.4
										c-0.8,0.8-0.1,2.6,1.4,4.2C36.8-131.1,38.7-130.6,39.4-131.3"/>
								</g>
								<g id="g32_36_" transform="translate(22.2988,27.3462)">
									<path id="path34_35_" fill="#FFAC33" d="M36.5-132c-1.6-1.6-0.2-2.8,1.4-4.5s2.8-3,4.5-1.4s1.6,4.2,0,5.9
										C40.6-130.3,38.1-130.3,36.5-132"/>
								</g>
								<g id="g36_32_" transform="translate(21.4688,26.0278)">
									<path id="path38_32_" fill="#BE1931" d="M36.8-131.3c-0.8-0.8-0.1-2.6,1.4-4.2c1.5-1.5,3.5-2.2,4.2-1.4
										c0.8,0.8,0.1,2.6-1.4,4.2S37.5-130.6,36.8-131.3"/>
								</g>
								<g id="g40_30_" transform="translate(23.4102,18.7793)">
									<path id="path42_30_" fill="#AA8DD8" d="M35.8-127.5c0.1,0.1,0.2,0.1,0.3,0.1c0.4,0,0.8-0.2,1-0.4c0.3-0.2,0.4-0.6,0.3-0.9
										c-0.1-0.6-0.6-1.1-1.6-1c-0.4,0-0.5-0.1-0.5-0.1c0-0.1,0.1-0.2,0.5-0.3c0.4,0,0.8-0.2,1-0.4c0.3-0.2,0.4-0.6,0.3-0.9
										c-0.1-0.6-0.6-1.1-1.6-1c-0.3,0-0.4,0-0.5-0.1l-0.1-0.1c0-0.1,0.1-0.2,0.5-0.3c0.3,0,0.4-0.3,0.4-0.5
										c0-0.3-0.3-0.4-0.5-0.4c-1,0.1-1.4,0.7-1.3,1.3c0.1,0.6,0.6,1.1,1.6,1c0.3,0,0.4,0,0.5,0.1l0.1,0.1c0,0.1-0.1,0.2-0.5,0.3
										c-1,0.1-1.4,0.7-1.3,1.3c0.1,0.6,0.6,1.1,1.6,1c0.3,0,0.4,0,0.5,0.1l0.1,0.1c0,0.1-0.1,0.2-0.5,0.3c-0.3,0-0.4,0.3-0.4,0.5
										C35.7-127.7,35.8-127.6,35.8-127.5"/>
								</g>
								<g id="g44_28_" transform="translate(16.2661,1.0146)">
									<path id="path46_28_" fill="#77B255" d="M39.6-118.3c-0.9-0.3-1.6,0.2-1.7,0.7c-0.2,0.5,0.2,1.2,1.1,1.5
										c0.4,0.1,0.5,0.3,0.5,0.3c0,0.1-0.2,0.1-0.6,0c-0.9-0.3-1.6,0.2-1.7,0.7c-0.2,0.5,0.2,1.2,1.1,1.5c0.4,0.1,0.5,0.3,0.5,0.3
										c0,0.1-0.2,0.1-0.6,0c-0.3-0.1-0.5,0.1-0.6,0.3c-0.1,0.3,0.1,0.5,0.3,0.6c0.9,0.3,1.6-0.2,1.7-0.7c0.2-0.5-0.2-1.2-1.1-1.5
										c-0.4-0.1-0.5-0.3-0.5-0.3c0-0.1,0.2-0.1,0.6,0c0.9,0.3,1.6-0.2,1.7-0.7c0.2-0.5-0.2-1.2-1.1-1.5c-0.4-0.1-0.5-0.3-0.5-0.3
										c0-0.1,0.2-0.1,0.6,0c0.3,0.1,0.5-0.1,0.6-0.3C39.9-118,39.8-118.2,39.6-118.3"/>
								</g>
								<g id="g48_27_" transform="translate(2,9.5)">
									<path id="path50_27_" fill="#5C913B" d="M47-122.6c0,0.4,0.3,0.7,0.7,0.7s0.7-0.3,0.7-0.7s-0.3-0.7-0.7-0.7
										C47.3-123.5,47-123.1,47-122.6"/>
								</g>
								<g id="g52_22_" transform="translate(6,6)">
									<path id="path54_22_" fill="#9266CC" d="M44.9-120.9c0,0.5,0.4,0.9,0.9,0.9s0.9-0.4,0.9-0.9s-0.4-0.9-0.9-0.9
										C45.3-121.9,44.9-121.4,44.9-120.9"/>
								</g>
								<g id="g56_12_" transform="translate(29,10)">
									<path id="path58_12_" fill="#9266CC" d="M32.9-123c0,0.5,0.4,0.9,0.9,0.9s0.9-0.4,0.9-0.9s-0.4-0.9-0.9-0.9
										C33.4-124,32.9-123.5,32.9-123"/>
								</g>
								<g id="g60_7_" transform="translate(25,5.5)">
									<path id="path62_7_" fill="#5C913B" d="M35-120.6c0,0.4,0.3,0.7,0.7,0.7s0.7-0.3,0.7-0.7c0-0.4-0.3-0.7-0.7-0.7
										C35.4-121.4,35-121,35-120.6"/>
								</g>
								<g id="g64_7_" transform="translate(17,17.5)">
									<path id="path66_7_" fill="#5C913B" d="M39.1-126.8c0,0.4,0.3,0.7,0.7,0.7s0.7-0.3,0.7-0.7c0-0.4-0.3-0.7-0.7-0.7
										C39.4-127.5,39.1-127.2,39.1-126.8"/>
								</g>
								<g id="g68_7_" transform="translate(6,14)">
									<path id="path70_7_" fill="#FFCC4D" d="M44.9-125c0,0.5,0.4,0.9,0.9,0.9s0.9-0.4,0.9-0.9s-0.4-0.9-0.9-0.9
										C45.3-126.1,44.9-125.6,44.9-125"/>
								</g>
								<g id="g72_7_" transform="translate(27,20.5)">
									<path id="path74_7_" fill="#FFCC4D" d="M34-128.4c0,0.4,0.3,0.7,0.7,0.7s0.7-0.3,0.7-0.7s-0.3-0.7-0.7-0.7
										C34.3-129.1,34-128.8,34-128.4"/>
								</g>
								<g id="g76_7_" transform="translate(12,22.5)">
									<path id="path78_7_" fill="#FFCC4D" d="M41.8-129.5c0,0.4,0.3,0.7,0.7,0.7s0.7-0.3,0.7-0.7s-0.3-0.7-0.7-0.7
										S41.8-129.9,41.8-129.5"/>
								</g>
							</g>
						</g>
					</g>
				</g>
			</g>
		</g>
		<g id="g10_45_" transform="matrix(1.25,0,0,-1.25,0,47.5)">
			<g id="g12_48_">
				<g>
					<g>
						<g>
							<g id="g14_48_">
								<g id="g20_48_" transform="translate(35.751,15)">
									<path id="path22_48_" fill="#77B255" d="M138.5-82.2c-1.6,0-5.7-1.7-7.6-3.5v5.9c0,0.3-0.2,0.5-0.5,0.5s-0.5-0.2-0.5-0.5
										v-5.9c-1.8,1.7-5.9,3.5-7.7,3.5c-0.4,0,5.2-6.6,7.7-6.1v-0.2c0-0.3,0.2-0.5,0.5-0.5s0.5,0.2,0.5,0.5v0.2
										C133.4-88.8,138.9-82.2,138.5-82.2"/>
								</g>
								<g id="g24_46_" transform="translate(26,23.5835)">
									<path id="path26_46_" fill="#EA596E" d="M143.6-86.7c0-3-0.8-4.5-3.3-4.5s-3.3,1.5-3.3,4.5s2.4,6.4,3.3,6.4
										C141.1-80.3,143.6-83.6,143.6-86.7"/>
								</g>
								<g id="g28_44_" transform="translate(23.7949,35)">
									<path id="path30_40_" fill="#F4ABBA" d="M144.7-92.6c-0.2,0-1.9-6.9-2.3-9.2c-0.4,2.4-2.1,9.2-2.4,9.2
										c-0.5,0-2.8-4.3-2.8-6.3s2.8-3.8,5.2-3.8c2.5,0,5.2,1.9,5.2,3.8S145.3-92.6,144.7-92.6"/>
								</g>
							</g>
						</g>
					</g>
				</g>
			</g>
		</g>
		<g id="g10_9_" transform="matrix(1.25,0,0,-1.25,0,47.5)">
			<g id="g12_12_">
				<g>
					<g>
						<g>
							<g id="g14_12_">
								<g id="g20_12_" transform="translate(12.9829,33.438)">
									<path id="path22_12_" fill="#FFAC33" d="M107.1-91c2.2,0.1,3.7-0.8,3.8-3.3c0.1-2.1-2.5-3.3-3.8-3.3
										c-1.2,0-0.6,0.9,0.3,1.1c0.7,0.2,2.1,1.1,1.7,2.1c-0.3,1.1-2.1,1.3-3-0.1c-0.4-0.6-1.7-0.4-1.9,0.2
										C103.6-93.2,104.6-91.2,107.1-91"/>
								</g>
								<g id="g24_11_" transform="translate(36.75,15.6162)">
									<path id="path26_11_" fill="#E1E8ED" d="M94.7-81.7c0,3.7-2.1,5.4-7,5.4c-0.5,0-1,0-1.4-0.1c-0.6,1.1-2.3,1.3-4,1.3
										c-2.1,0-4.7-2.9-4.7-5.2s1.7-2.3,3.7-2.3c0.1-1.5,0.6-2.8,1.5-3.5c0.1-0.5,0.7-2.8,1.9-2.8c0.6,0,1,0.8,1.2,1.6
										c0.5-0.1,1.1-0.1,1.8-0.1c0.8,0,1.6,0.1,2.2,0.2c0-0.8,0.3-1.7,1-1.7c1.1,0,2.1,2.4,2.3,3.1C94.2-84.8,94.7-83.5,94.7-81.7
										"/>
								</g>
								<g id="g28_11_" transform="translate(7,21.2139)">
									<path id="path30_9_" fill="#292F33" d="M110.1-84.7c0-0.4-0.3-0.7-0.7-0.7s-0.7,0.3-0.7,0.7c0,0.4,0.3,0.7,0.7,0.7
										S110.1-84.3,110.1-84.7"/>
								</g>
								<g id="g32_7_" transform="translate(18.5625,32.6611)">
									<path id="path34_7_" fill="#FFCC4D" d="M104.1-90.7c2.1-0.7,2.8-2.1,1.9-4.3c-0.6-1.9-3.5-2.1-4.9-1.6
										c-1.1,0.4-0.3,1.1,0.7,0.9c0.8-0.1,2.2,0.3,2.4,1.3c0.1,1.1-1.4,1.9-2.8,1c-0.6-0.4-2.8-0.2-2.6,0.5
										C99.2-91.4,101.8-89.9,104.1-90.7"/>
								</g>
							</g>
						</g>
					</g>
				</g>
			</g>
		</g>
		<g id="g10_47_" transform="matrix(1.25,0,0,-1.25,0,47.5)">
			<g id="g12_50_">
				<g>
					<g>
						<g>
							<g id="g14_50_">
								<g id="g20_50_" transform="translate(21.1426,4.7852)">
									<path id="path22_50_" fill="#E1E8ED" d="M81.5-75.9c0-0.6-0.5-1-1-1c-0.6,0-1,0.5-1,1c0,0.6,0.5,1,1,1
										C81-74.7,81.5-75.2,81.5-75.9"/>
								</g>
								<g id="g24_48_" transform="translate(28.6426,21.3569)">
									<path id="path26_48_" fill="#E1E8ED" d="M77.7-84.5c0,2.5-2.1,4.7-4.7,4.7c-2.5,0-4.7-2.1-4.7-4.7c0-2.5-0.5-8-0.5-8
										c0-0.6,0.5-1,1-1c0.6,0,1,0.5,1,1c0-0.6,0.5-1,1-1c0.6,0,1,0.5,1,1h2.1c0-0.6,0.5-1,1-1c0.6,0,1,0.5,1,1c0-0.6,0.5-1,1-1
										c0.6,0,1,0.5,1,1C78.2-92.4,77.7-87,77.7-84.5"/>
								</g>
								<g id="g28_46_" transform="translate(21,34)">
									<path id="path30_42_" fill="#DD2E44" d="M81.7-91c0-1-0.7-2.8-0.9-2.8c-0.3,0-0.9,1.8-0.9,2.8s0.7,1.4,0.9,1.4
										S81.7-90,81.7-91"/>
								</g>
								<g id="g32_35_" transform="translate(16.6348,4)">
									<path id="path34_34_" fill="#DD2E44" d="M83.9-75.3c0,1.2,0.8,3.8,1.1,3.8s1.1-2.6,1.1-3.8s-0.8-1.4-1.1-1.4
										C84.7-76.9,83.9-76.7,83.9-75.3"/>
								</g>
								<g id="g36_31_" transform="translate(26,14.5)">
									<path id="path38_31_" fill="#F4900C" d="M79-80.9c0-0.7-2.3-2.1-3.3-2.1s-3.3,1.4-3.3,2.1s2.3,2.1,3.3,2.1
										C76.7-78.7,79-80.2,79-80.9"/>
								</g>
								<g id="g40_29_" transform="translate(26,14.5)">
									<path id="path42_29_" fill="#FFAC33" d="M79-80.9c0-0.7-6.6-0.7-6.6,0s2.3,2.1,3.3,2.1C76.7-78.7,79-80.2,79-80.9"/>
								</g>
								<g id="g44_27_" transform="translate(14,18.5)">
									<path id="path46_27_" fill="#292F33" d="M85.2-83c0-0.4-0.3-0.7-0.7-0.7c-0.4,0-0.7,0.3-0.7,0.7c0,0.4,0.3,0.7,0.7,0.7
										C84.9-82.3,85.2-82.6,85.2-83"/>
								</g>
								<g id="g48_26_" transform="translate(27,18.5)">
									<path id="path50_26_" fill="#292F33" d="M78.5-83c0-0.4-0.3-0.7-0.7-0.7c-0.4,0-0.7,0.3-0.7,0.7c0,0.4,0.3,0.7,0.7,0.7
										S78.5-82.6,78.5-83"/>
								</g>
							</g>
						</g>
					</g>
				</g>
			</g>
		</g>
		<g id="g10_22_" transform="matrix(1.25,0,0,-1.25,0,47.5)">
			<g id="g12_47_">
				<g>
					<g>
						<g>
							<g id="g14_47_">
								<g id="g20_37_" transform="translate(35.751,15)">
									<path id="path22_37_" fill="#77B255" d="M50.9-81.1c-1.6,0-5.7-1.7-7.6-3.5v5.9c0,0.3-0.2,0.5-0.5,0.5s-0.5-0.2-0.5-0.5
										v-5.9c-1.8,1.7-5.9,3.5-7.7,3.5c-0.4,0,5.2-6.6,7.7-6.1v-0.2c0-0.3,0.2-0.5,0.5-0.5s0.5,0.2,0.5,0.5v0.2
										C45.8-87.7,51.2-81.1,50.9-81.1"/>
								</g>
								<g id="g24_45_" transform="translate(26,23.5835)">
									<path id="path26_45_" fill="#EA596E" d="M55.9-85.5c0-3-0.8-4.5-3.3-4.5s-3.3,1.5-3.3,4.5s2.4,6.4,3.3,6.4
										C53.4-79.2,55.9-82.5,55.9-85.5"/>
								</g>
								<g id="g28_43_" transform="translate(23.7949,35)">
									<path id="path30_39_" fill="#F4ABBA" d="M57.1-91.5c-0.2,0-1.9-6.9-2.3-9.2c-0.4,2.4-2.1,9.2-2.4,9.2
										c-0.5,0-2.8-4.3-2.8-6.3s2.8-3.8,5.2-3.8c2.5,0,5.2,1.9,5.2,3.8S57.6-91.5,57.1-91.5"/>
								</g>
							</g>
						</g>
					</g>
				</g>
			</g>
		</g>
		<g id="g10_7_" transform="matrix(1.25,0,0,-1.25,0,47.5)">
			<g id="g12_10_">
				<g>
					<g>
						<g>
							<g id="g14_10_">
								<g id="g20_10_" transform="translate(36.8848,25.1665)">
									<path id="path22_10_" fill="#BE1931" d="M28.7-87.5c0,2.6-2.1,4.7-4.7,4.7c-1.6,0-2.9-0.8-3.8-1.9
										c-0.8,1.2-2.2,1.9-3.8,1.9c-2.6,0-4.7-2.1-4.7-4.7c0-0.4,0-0.7,0.1-1.1c0.6-4,5.2-8.3,8.4-9.5c3.3,1.2,7.7,5.4,8.4,9.5
										C28.7-88.3,28.7-87.8,28.7-87.5"/>
								</g>
							</g>
						</g>
					</g>
				</g>
			</g>
		</g>
	</g>
	<g id="onboarding_slide_6_encrypted_emoji_3">
		<g id="g10_15_" transform="matrix(1.25,0,0,-1.25,0,47.5)">
			<g id="g12_18_">
				<g>
					<g>
						<g>
							<g id="g14_18_">
								<g id="g20_18_" transform="translate(12.9829,33.438)">
									<path id="path22_18_" fill="#FFAC33" d="M194.2-136.3c2.2,0.1,3.7-0.8,3.8-3.3c0.1-2.1-2.5-3.3-3.8-3.3
										c-1.2,0-0.6,0.9,0.3,1.1c0.7,0.2,2.1,1.1,1.7,2.1c-0.3,1.1-2.1,1.3-3-0.1c-0.4-0.6-1.7-0.4-1.9,0.2
										C190.8-138.5,191.7-136.5,194.2-136.3"/>
								</g>
								<g id="g24_16_" transform="translate(36.75,15.6162)">
									<path id="path26_16_" fill="#E1E8ED" d="M181.8-127c0,3.7-2.1,5.4-7,5.4c-0.5,0-1,0-1.4-0.1c-0.6,1.1-2.3,1.3-4,1.3
										c-2.1,0-4.7-2.9-4.7-5.2s1.7-2.3,3.7-2.3c0.1-1.5,0.6-2.8,1.5-3.5c0.1-0.5,0.7-2.8,1.9-2.8c0.6,0,1,0.8,1.2,1.6
										c0.5-0.1,1.1-0.1,1.8-0.1c0.8,0,1.6,0.1,2.2,0.2c0-0.8,0.3-1.7,1-1.7c1.1,0,2.1,2.4,2.3,3.1
										C181.3-130.1,181.8-128.8,181.8-127"/>
								</g>
								<g id="g28_16_" transform="translate(7,21.2139)">
									<path id="path30_14_" fill="#292F33" d="M197.2-130c0-0.4-0.3-0.7-0.7-0.7s-0.7,0.3-0.7,0.7s0.3,0.7,0.7,0.7
										S197.2-129.7,197.2-130"/>
								</g>
								<g id="g32_13_" transform="translate(18.5625,32.6611)">
									<path id="path34_12_" fill="#FFCC4D" d="M191.2-136c2.1-0.7,2.8-2.1,1.9-4.3c-0.6-1.9-3.5-2.1-4.9-1.6
										c-1.1,0.4-0.3,1.1,0.7,0.9c0.8-0.1,2.2,0.3,2.4,1.3c0.1,1.1-1.4,1.9-2.8,1c-0.6-0.4-2.8-0.2-2.6,0.5
										C186.3-136.7,189-135.2,191.2-136"/>
								</g>
							</g>
						</g>
					</g>
				</g>
			</g>
		</g>
		<g id="g10_11_" transform="matrix(1.25,0,0,-1.25,0,47.5)">
			<g id="g12_14_">
				<g>
					<g>
						<g>
							<g id="g14_14_">
								<g id="g20_14_" transform="translate(34.7988,36.9946)">
									<path id="path22_14_" fill="#99AAB5" d="M160.5-137.2c-0.2,0.1-3.8-1.9-4.7-4.3c-0.6-1.4-0.8-2.9-0.8-3.8
										c-0.7,0.4-1.4,0.6-2.1,0.6c-0.6,0-1.3-0.2-2.1-0.6c0,1-0.2,2.4-0.8,3.8c-0.9,2.4-4.5,4.5-4.7,4.3c-0.2-0.1,2.1-7.7,3.3-10
										c-1.1-1.2-2.1-2.8-2.1-4.3s0.8-2.4,1.9-2.8c1.2-0.4,2.4,0.4,4.3,0.4s3.1-0.9,4.3-0.4c1.1,0.4,1.9,1.3,1.9,2.8
										s-0.9,3-2.1,4.3C158.5-144.9,160.7-137.3,160.5-137.2"/>
								</g>
								<g id="g24_12_" transform="translate(13.6919,19.0781)">
									<path id="path26_12_" fill="#F4ABBA" d="M171.5-127.9c-0.1,0.7-0.3,1.7-0.7,2.6c-0.7,1.9-2.8,3.5-2.9,3.5
										c-0.2-0.1,1.2-4.9,2.3-7.1C170.6-128.5,171-128.2,171.5-127.9"/>
								</g>
								<g id="g28_12_" transform="translate(27.0303,16.9063)">
									<path id="path30_10_" fill="#F4ABBA" d="M164.6-126.7c1,2.2,2.4,7.1,2.3,7.1c-0.2,0.1-2.1-1.5-2.9-3.5
										c-0.4-1-0.6-1.9-0.7-2.6C163.6-126,164.1-126.3,164.6-126.7"/>
								</g>
								<g id="g32_9_" transform="translate(26,7)">
									<path id="path34_9_" fill="#CCD6DD" d="M165.1-121.5c0-1.3-1.5-2.4-3.3-2.4s-3.3,1.1-3.3,2.4s1.5,2.4,3.3,2.4
										C163.7-119.1,165.1-120.3,165.1-121.5"/>
								</g>
								<g id="g36_10_" transform="translate(22,6.4219)">
									<path id="path38_10_" fill="#FFFFFF" d="M167.2-121.2c0-1.3-0.1-1.4-1.4-1.4c-1.3,0-1.4,0.1-1.4,1.4
										C164.3-120.7,167.2-120.7,167.2-121.2"/>
								</g>
								<g id="g40_10_" transform="translate(15,12.6719)">
									<path id="path42_10_" fill="#292F33" d="M170.8-124.5c0-0.4-0.3-0.7-0.7-0.7s-0.7,0.3-0.7,0.7c0,0.4,0.3,0.7,0.7,0.7
										S170.8-124.1,170.8-124.5"/>
								</g>
								<g id="g44_10_" transform="translate(26,12.6719)">
									<path id="path46_10_" fill="#292F33" d="M165.1-124.5c0-0.4-0.3-0.7-0.7-0.7s-0.7,0.3-0.7,0.7c0,0.4,0.3,0.7,0.7,0.7
										C164.7-123.8,165.1-124.1,165.1-124.5"/>
								</g>
								<g id="g48_9_" transform="translate(22,11.1719)">
									<path id="path50_9_" fill="#F4ABBA" d="M167.2-123.8c0-0.8-0.9-1.4-1.4-1.4s-1.4,0.6-1.4,1.4
										C164.3-122.9,167.2-122.9,167.2-123.8"/>
								</g>
							</g>
						</g>
					</g>
				</g>
			</g>
		</g>
		<g id="g10_16_" transform="matrix(1.25,0,0,-1.25,0,47.5)">
			<g id="g12_19_">
				<g>
					<g>
						<g>
							<g id="g14_19_">
								<g id="g20_19_" transform="translate(35.751,15)">
									<path id="path22_19_" fill="#77B255" d="M138.8-126.4c-1.6,0-5.7-1.7-7.6-3.5v5.9c0,0.3-0.2,0.5-0.5,0.5s-0.5-0.2-0.5-0.5
										v-5.9c-1.8,1.7-5.9,3.5-7.7,3.5c-0.4,0,5.2-6.6,7.7-6.1v-0.2c0-0.3,0.2-0.5,0.5-0.5s0.5,0.2,0.5,0.5v0.2
										C133.7-133,139.2-126.4,138.8-126.4"/>
								</g>
								<g id="g24_17_" transform="translate(26,23.5835)">
									<path id="path26_17_" fill="#EA596E" d="M143.9-130.8c0-3-0.8-4.5-3.3-4.5s-3.3,1.5-3.3,4.5s2.4,6.4,3.3,6.4
										C141.4-124.4,143.9-127.8,143.9-130.8"/>
								</g>
								<g id="g28_17_" transform="translate(23.7949,35)">
									<path id="path30_15_" fill="#F4ABBA" d="M145-136.8c-0.2,0-1.9-6.9-2.3-9.2c-0.4,2.4-2.1,9.2-2.4,9.2
										c-0.5,0-2.8-4.3-2.8-6.3s2.8-3.8,5.2-3.8c2.5,0,5.2,1.9,5.2,3.8S145.6-136.8,145-136.8"/>
								</g>
							</g>
						</g>
					</g>
				</g>
			</g>
		</g>
		<g id="g10_6_" transform="matrix(1.25,0,0,-1.25,0,47.5)">
			<g id="g12_9_">
				<g>
					<g>
						<g>
							<g id="g14_9_">
								<g id="g20_9_" transform="translate(36.8848,25.1665)">
									<path id="path22_9_" fill="#BE1931" d="M95.3-131c0,2.6-2.1,4.7-4.7,4.7c-1.6,0-2.9-0.8-3.8-1.9c-0.8,1.2-2.2,1.9-3.8,1.9
										c-2.6,0-4.7-2.1-4.7-4.7c0-0.4,0-0.7,0.1-1.1c0.6-4,5.2-8.3,8.4-9.5c3.3,1.2,7.7,5.4,8.4,9.5
										C95.3-131.7,95.3-131.3,95.3-131"/>
								</g>
							</g>
						</g>
					</g>
				</g>
			</g>
		</g>
		<g id="g10_8_" transform="matrix(1.25,0,0,-1.25,0,47.5)">
			<g id="g12_11_">
				<g>
					<g>
						<g>
							<g id="g14_11_">
								<g id="g20_11_" transform="translate(19,33)">
									<path id="path22_11_" fill="#F4900C" d="M82.8-136.2c3.5,0,6.2-1.9,7-0.9c0.1,0.2,0.1,0.3,0.1,0.5c0,0.9-3.3,2.4-7.1,2.4
										c-4,0-7.1-1.4-7.1-2.4c0-0.2,0-0.3,0.1-0.5C76.6-138.1,79.4-136.2,82.8-136.2"/>
								</g>
								<g id="g24_9_" transform="translate(19,34)">
									<path id="path26_9_" fill="#FFCC4D" d="M82.8-136.8c-2.9,0-5-0.9-5.9-1.2c-0.2-0.1-0.3-0.4-0.2-0.6
										c0.1-0.1,5.1-12.9,5.1-12.9s0.4-0.9,0.9-0.9s0.9,0.9,0.9,0.9l5,12.9c0,0,0.1,0.4-0.3,0.6C87.7-137.5,85.7-136.8,82.8-136.8
										"/>
								</g>
							</g>
						</g>
					</g>
				</g>
			</g>
			<g id="g28_9_">
				<g>
					<g>
						<g>
							<g>
								<g>
									<g>
										<g>
											<g>
												<g>
													<g>
														<g>
															<g>
																<defs>
																	<path id="SVGID_5_" d="M96-104c-0.2-0.1-0.3-0.4-0.2-0.6l0,0c0.1-0.2,5-12.9,5-12.9l0,0c0,0,0.5-0.9,0.9-0.9l0,0
																		c0.5,0,0.9,0.9,0.9,0.9l0,0l5,12.9c0,0,0.1,0.4-0.3,0.6l0,0c-0.8,0.4-2.9,1.2-5.7,1.2l0,0
																		C98.9-102.8,96.7-103.6,96-104"/>
																</defs>
																<clipPath id="SVGID_6_">
																	<use xlink:href="#SVGID_5_"  overflow="visible"/>
																</clipPath>
																<g id="g30_2_" clip-path="url(#SVGID_6_)">
																	<g id="g36_7_" transform="translate(19,6)">
																		<path id="path38_7_" fill="#BE1931" d="M82.8-122c0-1-0.8-1.9-1.9-1.9c-1,0-1.9,0.8-1.9,1.9s0.8,1.9,1.9,1.9
																			S82.8-121,82.8-122"/>
																	</g>
																	<g id="g40_8_" transform="translate(18,17)">
																		<path id="path42_8_" fill="#BE1931" d="M83.3-127.9c0-1-0.8-1.9-1.9-1.9c-1,0-1.9,0.8-1.9,1.9
																			c0,1,0.8,1.9,1.9,1.9S83.3-126.7,83.3-127.9"/>
																	</g>
																	<g id="g44_8_" transform="translate(21,29)">
																		<path id="path46_8_" fill="#BE1931" d="M81.7-134.1c0-1-0.8-1.9-1.9-1.9c-1,0-1.9,0.8-1.9,1.9
																			c0,1,0.8,1.9,1.9,1.9C80.9-132.2,81.7-133.1,81.7-134.1"/>
																	</g>
																	<g id="g48_7_" transform="translate(30,24)">
																		<path id="path50_7_" fill="#BE1931" d="M77-131.5c0-1-0.8-1.9-1.9-1.9s-1.9,0.8-1.9,1.9c0,1,0.8,1.9,1.9,1.9
																			S77-130.4,77-131.5"/>
																	</g>
																	<g id="g52_6_" transform="translate(28,12)">
																		<path id="path54_6_" fill="#BE1931" d="M78.1-125.2c0-1-0.8-1.9-1.9-1.9s-1.9,0.8-1.9,1.9c0,1,0.8,1.9,1.9,1.9
																			C77.3-123.3,78.1-124.1,78.1-125.2"/>
																	</g>
																	<g id="g56_4_" transform="translate(11,25)">
																		<path id="path58_4_" fill="#BE1931" d="M87-132c0-1-0.8-1.9-1.9-1.9c-1,0-1.9,0.8-1.9,1.9c0,1,0.8,1.9,1.9,1.9
																			C86.1-130.1,87-130.9,87-132"/>
																	</g>
																</g>
															</g>
														</g>
													</g>
												</g>
											</g>
										</g>
									</g>
								</g>
							</g>
						</g>
					</g>
				</g>
			</g>
		</g>
		<g id="g10_19_" transform="matrix(1.25,0,0,-1.25,0,47.5)">
			<g id="g12_22_">
				<g>
					<g>
						<g>
							<g id="g14_22_">
								<g id="g20_22_" transform="translate(21.1426,4.7852)">
									<path id="path22_22_" fill="#E1E8ED" d="M59.6-119.8c0-0.6-0.5-1-1-1c-0.6,0-1,0.5-1,1c0,0.6,0.5,1,1,1
										C59.1-118.6,59.6-119.1,59.6-119.8"/>
								</g>
								<g id="g24_19_" transform="translate(28.6426,21.3569)">
									<path id="path26_19_" fill="#E1E8ED" d="M55.8-128.4c0,2.5-2.1,4.7-4.7,4.7c-2.5,0-4.7-2.1-4.7-4.7c0-2.5-0.5-8-0.5-8
										c0-0.6,0.5-1,1-1c0.6,0,1,0.5,1,1c0-0.6,0.5-1,1-1c0.6,0,1,0.5,1,1H52c0-0.6,0.5-1,1-1c0.6,0,1,0.5,1,1c0-0.6,0.5-1,1-1
										c0.6,0,1,0.5,1,1C56.3-136.3,55.8-130.9,55.8-128.4"/>
								</g>
								<g id="g28_20_" transform="translate(21,34)">
									<path id="path30_18_" fill="#DD2E44" d="M59.7-134.9c0-1-0.7-2.8-0.9-2.8c-0.3,0-0.9,1.8-0.9,2.8s0.7,1.4,0.9,1.4
										S59.7-133.9,59.7-134.9"/>
								</g>
								<g id="g32_16_" transform="translate(16.6348,4)">
									<path id="path34_15_" fill="#DD2E44" d="M62-119.2c0,1.2,0.8,3.8,1.1,3.8s1.1-2.6,1.1-3.8s-0.8-1.4-1.1-1.4
										C62.8-120.8,62-120.6,62-119.2"/>
								</g>
								<g id="g36_13_" transform="translate(26,14.5)">
									<path id="path38_13_" fill="#F4900C" d="M57-124.8c0-0.7-2.3-2.1-3.3-2.1s-3.3,1.4-3.3,2.1s2.3,2.1,3.3,2.1
										C54.8-122.6,57-124.1,57-124.8"/>
								</g>
								<g id="g40_13_" transform="translate(26,14.5)">
									<path id="path42_13_" fill="#FFAC33" d="M57-124.8c0-0.7-6.6-0.7-6.6,0s2.3,2.1,3.3,2.1C54.8-122.6,57-124.1,57-124.8"/>
								</g>
								<g id="g44_13_" transform="translate(14,18.5)">
									<path id="path46_13_" fill="#292F33" d="M63.2-126.9c0-0.4-0.3-0.7-0.7-0.7s-0.7,0.3-0.7,0.7c0,0.4,0.3,0.7,0.7,0.7
										C63-126.2,63.2-126.5,63.2-126.9"/>
								</g>
								<g id="g48_12_" transform="translate(27,18.5)">
									<path id="path50_12_" fill="#292F33" d="M56.5-126.9c0-0.4-0.3-0.7-0.7-0.7s-0.7,0.3-0.7,0.7c0,0.4,0.3,0.7,0.7,0.7
										C56.3-126.2,56.5-126.5,56.5-126.9"/>
								</g>
							</g>
						</g>
					</g>
				</g>
			</g>
		</g>
		<g id="g10_17_" transform="matrix(1.25,0,0,-1.25,0,47.5)">
			<g id="g12_20_">
				<g>
					<g>
						<g>
							<g id="g14_20_">
								<g id="g20_20_" transform="translate(18,19)">
									<path id="path22_20_" fill="#E1E8ED" d="M39-128.5c0-2.6-1.8-4.7-4-4.7s-4,2.1-4,4.7c0,2.6,1.8,4.7,4,4.7
										S39-125.9,39-128.5"/>
								</g>
								<g id="g24_18_" transform="translate(37,19)">
									<path id="path26_18_" fill="#E1E8ED" d="M29.2-128.5c0-2.6-1.8-4.7-4-4.7s-4,2.1-4,4.7c0,2.6,1.8,4.7,4,4.7
										S29.2-125.9,29.2-128.5"/>
								</g>
								<g id="g28_18_" transform="translate(9,15)">
									<path id="path30_16_" fill="#292F33" d="M43.8-126.4c0-0.8-0.6-1.4-1.4-1.4c-0.8,0-1.4,0.6-1.4,1.4s0.6,1.4,1.4,1.4
										C43.1-125,43.8-125.6,43.8-126.4"/>
								</g>
								<g id="g32_14_" transform="translate(28,15)">
									<path id="path34_13_" fill="#292F33" d="M33.9-126.4c0-0.8-0.6-1.4-1.4-1.4c-0.8,0-1.4,0.6-1.4,1.4s0.6,1.4,1.4,1.4
										C33.2-125,33.9-125.6,33.9-126.4"/>
								</g>
							</g>
						</g>
					</g>
				</g>
			</g>
		</g>
		<g id="g10_10_" transform="matrix(1.25,0,0,-1.25,0,47.5)">
			<g id="g12_13_">
				<g>
					<g>
						<g>
							<g id="g14_13_">
								<g id="g20_13_" transform="translate(34.7988,36.9946)">
									<path id="path22_13_" fill="#99AAB5" d="M139.4-93.7c-0.2,0.1-3.8-1.9-4.7-4.3c-0.6-1.4-0.8-2.9-0.8-3.8
										c-0.7,0.4-1.4,0.6-2.1,0.6c-0.6,0-1.3-0.2-2.1-0.6c0,1-0.2,2.4-0.8,3.8c-0.9,2.4-4.5,4.5-4.7,4.3c-0.2-0.1,2.1-7.7,3.3-10
										c-1.1-1.2-2.1-2.8-2.1-4.3s0.8-2.4,1.9-2.8c1.2-0.4,2.4,0.4,4.3,0.4s3.1-0.9,4.3-0.4c1.1,0.4,1.9,1.3,1.9,2.8
										s-0.9,3-2.1,4.3C137.4-101.4,139.6-93.9,139.4-93.7"/>
								</g>
								<g id="g24_10_" transform="translate(13.6919,19.0781)">
									<path id="path26_10_" fill="#F4ABBA" d="M150.4-84.4c-0.1,0.7-0.3,1.7-0.7,2.6c-0.7,1.9-2.8,3.5-2.9,3.5
										c-0.2-0.1,1.2-4.9,2.3-7.1C149.5-85,149.9-84.7,150.4-84.4"/>
								</g>
								<g id="g28_10_" transform="translate(27.0303,16.9063)">
									<path id="path30_8_" fill="#F4ABBA" d="M143.5-83.2c1,2.2,2.4,7.1,2.3,7.1c-0.2,0.1-2.1-1.5-2.9-3.5
										c-0.4-1-0.6-1.9-0.7-2.6C142.5-82.5,143-82.8,143.5-83.2"/>
								</g>
								<g id="g32_5_" transform="translate(26,7)">
									<path id="path34_6_" fill="#CCD6DD" d="M144-78.1c0-1.3-1.5-2.4-3.3-2.4s-3.3,1.1-3.3,2.4s1.5,2.4,3.3,2.4
										C142.6-75.7,144-76.8,144-78.1"/>
								</g>
								<g id="g36_9_" transform="translate(22,6.4219)">
									<path id="path38_9_" fill="#FFFFFF" d="M146.1-77.8c0-1.3-0.1-1.4-1.4-1.4c-1.3,0-1.4,0.1-1.4,1.4
										C143.2-77.3,146.1-77.3,146.1-77.8"/>
								</g>
								<g id="g40_9_" transform="translate(15,12.6719)">
									<path id="path42_9_" fill="#292F33" d="M149.7-81.1c0-0.4-0.3-0.7-0.7-0.7s-0.7,0.3-0.7,0.7c0,0.4,0.3,0.7,0.7,0.7
										S149.7-80.7,149.7-81.1"/>
								</g>
								<g id="g44_9_" transform="translate(26,12.6719)">
									<path id="path46_9_" fill="#292F33" d="M144-81.1c0-0.4-0.3-0.7-0.7-0.7s-0.7,0.3-0.7,0.7c0,0.4,0.3,0.7,0.7,0.7
										C143.6-80.4,144-80.7,144-81.1"/>
								</g>
								<g id="g48_8_" transform="translate(22,11.1719)">
									<path id="path50_8_" fill="#F4ABBA" d="M146.1-80.3c0-0.8-0.9-1.4-1.4-1.4s-1.4,0.6-1.4,1.4
										C143.2-79.4,146.1-79.4,146.1-80.3"/>
								</g>
							</g>
						</g>
					</g>
				</g>
			</g>
		</g>
		<g id="g10_28_" transform="matrix(1.25,0,0,-1.25,0,47.5)">
			<g id="g12_29_">
				<g>
					<g>
						<g>
							<g id="g14_29_">
								<g id="g20_29_" transform="translate(36.8848,25.1665)">
									<path id="path22_29_" fill="#BE1931" d="M94.9-89.5c0,2.6-2.1,4.7-4.7,4.7c-1.6,0-2.9-0.8-3.8-1.9
										c-0.8,1.2-2.2,1.9-3.8,1.9c-2.6,0-4.7-2.1-4.7-4.7c0-0.4,0-0.7,0.1-1.1c0.6-4,5.2-8.3,8.4-9.5c3.3,1.2,7.7,5.4,8.4,9.5
										C94.9-90.2,94.9-89.8,94.9-89.5"/>
								</g>
							</g>
						</g>
					</g>
				</g>
			</g>
		</g>
		<g id="g10_13_" transform="matrix(1.25,0,0,-1.25,0,47.5)">
			<g id="g12_16_">
				<g>
					<g>
						<g>
							<g id="g14_16_">
								<g id="g20_16_" transform="translate(35.751,15)">
									<path id="path22_16_" fill="#77B255" d="M74-82.1c-1.6,0-5.7-1.7-7.6-3.5v5.9c0,0.3-0.2,0.5-0.5,0.5s-0.5-0.2-0.5-0.5v-5.9
										c-1.8,1.7-5.9,3.5-7.7,3.5c-0.4,0,5.2-6.6,7.7-6.1v-0.2c0-0.3,0.2-0.5,0.5-0.5s0.5,0.2,0.5,0.5v0.2
										C68.9-88.7,74.3-82.1,74-82.1"/>
								</g>
								<g id="g24_14_" transform="translate(26,23.5835)">
									<path id="path26_14_" fill="#EA596E" d="M79-86.5c0-3-0.8-4.5-3.3-4.5s-3.3,1.5-3.3,4.5s2.4,6.4,3.3,6.4
										C76.5-80.2,79-83.5,79-86.5"/>
								</g>
								<g id="g28_14_" transform="translate(23.7949,35)">
									<path id="path30_12_" fill="#F4ABBA" d="M80.2-92.5c-0.2,0-1.9-6.9-2.3-9.2c-0.4,2.4-2.1,9.2-2.4,9.2
										c-0.5,0-2.8-4.3-2.8-6.3s2.8-3.8,5.2-3.8c2.5,0,5.2,1.9,5.2,3.8S80.7-92.5,80.2-92.5"/>
								</g>
							</g>
						</g>
					</g>
				</g>
			</g>
		</g>
		<g id="g10_12_" transform="matrix(1.25,0,0,-1.25,0,47.5)">
			<g id="g12_15_">
				<g>
					<g>
						<g>
							<g id="g14_15_">
								<g id="g20_15_" transform="translate(34.7988,36.9946)">
									<path id="path22_15_" fill="#99AAB5" d="M52.5-91.2c-0.2,0.1-3.8-1.9-4.7-4.3c-0.6-1.4-0.8-2.9-0.8-3.8
										c-0.7,0.4-1.4,0.6-2.1,0.6c-0.6,0-1.3-0.2-2.1-0.6c0,1-0.2,2.4-0.8,3.8c-0.9,2.4-4.5,4.5-4.7,4.3c-0.2-0.1,2.1-7.7,3.3-10
										c-1.1-1.2-2.1-2.8-2.1-4.3s0.8-2.4,1.9-2.8c1.2-0.4,2.4,0.4,4.3,0.4s3.1-0.9,4.3-0.4c1.1,0.4,1.9,1.3,1.9,2.8
										s-0.9,3-2.1,4.3C50.5-98.9,52.7-91.4,52.5-91.2"/>
								</g>
								<g id="g24_13_" transform="translate(13.6919,19.0781)">
									<path id="path26_13_" fill="#F4ABBA" d="M63.5-81.9c-0.1,0.7-0.3,1.7-0.7,2.6c-0.7,1.9-2.8,3.5-2.9,3.5
										c-0.2-0.1,1.2-4.9,2.3-7.1C62.6-82.5,63-82.2,63.5-81.9"/>
								</g>
								<g id="g28_13_" transform="translate(27.0303,16.9063)">
									<path id="path30_11_" fill="#F4ABBA" d="M56.6-80.7c1,2.2,2.4,7.1,2.3,7.1c-0.2,0.1-2.1-1.5-2.9-3.5
										c-0.4-1-0.6-1.9-0.7-2.6C55.7-80,56.2-80.3,56.6-80.7"/>
								</g>
								<g id="g32_11_" transform="translate(26,7)">
									<path id="path34_10_" fill="#CCD6DD" d="M57.1-75.6c0-1.3-1.5-2.4-3.3-2.4s-3.3,1.1-3.3,2.4s1.5,2.4,3.3,2.4
										C55.7-73.2,57.1-74.3,57.1-75.6"/>
								</g>
								<g id="g36_11_" transform="translate(22,6.4219)">
									<path id="path38_11_" fill="#FFFFFF" d="M59.2-75.3c0-1.3-0.1-1.4-1.4-1.4s-1.4,0.1-1.4,1.4C56.4-74.8,59.2-74.8,59.2-75.3
										"/>
								</g>
								<g id="g40_11_" transform="translate(15,12.6719)">
									<path id="path42_11_" fill="#292F33" d="M62.8-78.6c0-0.4-0.3-0.7-0.7-0.7s-0.7,0.3-0.7,0.7c0,0.4,0.3,0.7,0.7,0.7
										S62.8-78.2,62.8-78.6"/>
								</g>
								<g id="g44_11_" transform="translate(26,12.6719)">
									<path id="path46_11_" fill="#292F33" d="M57.1-78.6c0-0.4-0.3-0.7-0.7-0.7s-0.7,0.3-0.7,0.7c0,0.4,0.3,0.7,0.7,0.7
										C56.7-77.9,57.1-78.2,57.1-78.6"/>
								</g>
								<g id="g48_10_" transform="translate(22,11.1719)">
									<path id="path50_10_" fill="#F4ABBA" d="M59.2-77.8c0-0.8-0.9-1.4-1.4-1.4s-1.4,0.6-1.4,1.4C56.4-76.9,59.2-76.9,59.2-77.8
										"/>
								</g>
							</g>
						</g>
					</g>
				</g>
			</g>
		</g>
		<g id="g10_14_" transform="matrix(1.25,0,0,-1.25,0,47.5)">
			<g id="g12_17_">
				<g>
					<g>
						<g>
							<g id="g14_17_">
								<g id="g20_17_" transform="translate(36,19)">
									<path id="path22_17_" fill="#FFCC4D" d="M30.5-82.9c0-4.5-3.6-8.2-8.2-8.2s-8.2,3.6-8.2,8.2c0,4.5,3.6,8.2,8.2,8.2
										C26.8-74.9,30.5-78.5,30.5-82.9"/>
								</g>
								<g id="g24_15_" transform="translate(29.457,19.2031)">
									<path id="path26_15_" fill="#664500" d="M33.8-83c0,0.1-0.7,1.6-2.1,1.6s-2.1-1.5-2.1-1.6s0-0.2,0.1-0.3s0.2-0.1,0.3,0
										c0,0,0.6,0.4,1.8,0.4s1.7-0.4,1.8-0.4h0.1c0.1,0,0.1,0,0.1,0.1C33.8-83.2,33.8-83.1,33.8-83"/>
								</g>
								<g id="g28_15_" transform="translate(17.457,19.2031)">
									<path id="path30_13_" fill="#664500" d="M40.1-83c0,0.1-0.7,1.6-2.1,1.6s-2.1-1.5-2.1-1.6s0-0.2,0.1-0.3s0.2-0.1,0.3,0
										c0,0,0.6,0.4,1.8,0.4s1.7-0.4,1.8-0.4H40c0.1,0,0.1,0,0.1,0.1C40.1-83.2,40.1-83.1,40.1-83"/>
								</g>
								<g id="g32_12_" transform="translate(32,20.9995)">
									<path id="path34_11_" fill="#664500" d="M32.6-84c-0.2,0-0.4,0.1-0.4,0.3c-0.8,2.1-3,2.6-3,2.6c-0.3,0.1-0.4,0.3-0.4,0.6
										c0.1,0.3,0.3,0.4,0.6,0.4c0.1,0,2.6-0.6,3.7-3.1c0.1-0.2,0-0.5-0.3-0.6C32.7-84,32.6-84,32.6-84"/>
								</g>
								<g id="g36_12_" transform="translate(5.9995,20.9995)">
									<path id="path38_12_" fill="#664500" d="M46-84c-0.1,0-0.1,0-0.2,0c-0.2,0.1-0.4,0.4-0.3,0.6c1,2.6,3.6,3.1,3.7,3.1
										c0.3,0.1,0.5-0.1,0.6-0.4s-0.1-0.5-0.4-0.6c-0.1,0-2.1-0.5-3-2.6C46.4-83.9,46.2-84,46-84"/>
								</g>
								<g id="g40_12_" transform="translate(19,15)">
									<path id="path42_12_" fill="#664500" d="M39.3-80.8c-1.7,0-2.9,0.2-4.3,0.5c-0.3,0.1-0.9,0-0.9-0.9c0-1.9,2.2-4.3,5.2-4.3
										s5.2,2.4,5.2,4.3c0,0.9-0.6,1-0.9,0.9C42.2-80.6,41-80.8,39.3-80.8"/>
								</g>
								<g id="g44_12_" transform="translate(10,14)">
									<path id="path46_12_" fill="#FFFFFF" d="M44-80.3c0,0,1.4-0.5,4.3-0.5c2.8,0,4.3,0.5,4.3,0.5s-0.9-1.9-4.3-1.9
										C45-82.2,44-80.3,44-80.3"/>
								</g>
								<g id="g48_11_" transform="translate(11.8472,8.7705)">
									<path id="path50_11_" fill="#5DADEC" d="M43-77.7c-0.3-1.3-1.6-2.1-2.9-1.7c-1.3,0.3-2.1,1.6-1.7,2.9c0.3,1.3,3,4.2,3.5,4
										C42.4-72.5,43.4-76.3,43-77.7"/>
								</g>
								<g id="g52_7_" transform="translate(26.1328,8.7705)">
									<path id="path54_7_" fill="#5DADEC" d="M35.5-77.7c0.3-1.3,1.6-2.1,2.9-1.7c1.3,0.3,2.1,1.6,1.7,2.9c-0.4,1.3-3,4.2-3.5,4
										C36.2-72.5,35.2-76.3,35.5-77.7"/>
								</g>
							</g>
						</g>
					</g>
				</g>
			</g>
		</g>
	</g>
	<g id="onboarding_slide_6_question_marks">
		<g id="slide_5_group_text">
			<path id="slide_5_bubble_white_text_bg" fill="#E5E5E5" d="M132,312.6H54c-9.6,0-17.5,7.9-17.5,17.5V368c0,0.5,0,1.1,0.1,1.7
				L13,385.3h39c0.6,0.1,1.4,0.1,2,0.1h78c9.6,0,17.5-7.9,17.5-17.5V330C149.5,320.4,141.6,312.6,132,312.6z"/>
			<g id="slide_5_bubble_white_text">
				<path d="M83.5,339.8c0,6.7-7.8,5.9-7.8,12.1v1.5h-3.5v-1.7c0-6.9,7.5-6.9,7.5-11.6c0-2.4-2.1-3.8-5-3.8c-2,0-4.3,1-6,3.1
					l-2.5-1.8c2.5-2.9,5.5-4.3,8.8-4.3C80.4,333.3,83.5,336.5,83.5,339.8z M77,360.5c0,1.7-1.2,2.9-2.9,2.9c-1.7,0-2.9-1.2-2.9-2.9
					c0-1.7,1.2-2.9,2.9-2.9C75.9,357.6,77,358.9,77,360.5z"/>
				<path d="M116.4,339.8c0,6.7-7.8,5.9-7.8,12.1v1.5H105v-1.7c0-6.9,7.5-6.9,7.5-11.6c0-2.4-2.1-3.8-5-3.8c-2,0-4.3,1-6,3.1
					l-2.5-1.8c2.5-2.9,5.5-4.3,8.8-4.3C113.2,333.3,116.4,336.5,116.4,339.8z M110,360.5c0,1.7-1.2,2.9-2.9,2.9s-2.9-1.2-2.9-2.9
					c0-1.7,1.2-2.9,2.9-2.9C108.7,357.6,110,358.9,110,360.5z"/>
			</g>
		</g>
	</g>
	<g id="onboarding_slide_6_delivered_text" opacity="0.5">
		<path fill="#FFFFFF" d="M304.5,446.7c0,3.5-2.1,4.4-4.3,4.4h-2.4v-8.6h2.1C302.3,442.3,304.5,443,304.5,446.7z M299.6,443.5v6.1
			h0.8c1.2,0,2.4-0.6,2.4-3.1c0-2.6-1.1-3-2.4-3H299.6z"/>
		<path fill="#FFFFFF" d="M311.9,448.1h-4.1c0.1,1.4,0.8,1.7,1.7,1.7c0.6,0,1.1-0.1,1.7-0.6l0.6,0.9c-0.6,0.5-1.5,0.9-2.5,0.9
			c-2,0-3.1-1.4-3.1-3.5c0-2,1-3.5,2.9-3.5c1.8,0,2.9,1.2,2.9,3.4C312.1,447.7,311.9,448,311.9,448.1z M310.5,447
			c0-1.1-0.3-1.7-1.2-1.7c-0.8,0-1.2,0.5-1.2,1.7H310.5L310.5,447z"/>
		<path fill="#FFFFFF" d="M314.1,449.4v-7.8l1.7-0.1v7.9c0,0.3,0.1,0.5,0.3,0.5c0.1,0,0.3,0,0.3,0l0.3,1.1c-0.3,0.1-0.6,0.3-1,0.3
			C314.7,451.1,314.1,450.5,314.1,449.4z"/>
		<path fill="#FFFFFF" d="M320.2,442c0,0.5-0.3,1-1,1s-1-0.3-1-1c0-0.5,0.3-1,1-1C319.8,441,320.2,441.4,320.2,442z M320.1,451h-1.7
			v-6.6h1.7V451z"/>
		<path fill="#FFFFFF" d="M325.7,451h-1.8l-2.1-6.6h1.7l1.4,5.3l1.5-5.3h1.7L325.7,451z"/>
		<path fill="#FFFFFF" d="M334.8,448.1h-4.1c0.1,1.4,0.8,1.7,1.7,1.7c0.6,0,1.1-0.1,1.7-0.6l0.6,0.9c-0.6,0.5-1.5,0.9-2.5,0.9
			c-2,0-3.1-1.4-3.1-3.5c0-2,1-3.5,2.9-3.5c1.8,0,2.9,1.2,2.9,3.4C334.8,447.7,334.8,448,334.8,448.1z M333.2,447
			c0-1.1-0.3-1.7-1.2-1.7c-0.8,0-1.2,0.5-1.2,1.7H333.2L333.2,447z"/>
		<path fill="#FFFFFF" d="M340.8,444.2l-0.3,1.5c-0.3,0-0.3-0.1-0.6-0.1c-0.8,0-1.2,0.6-1.5,1.7v3.5h-1.5v-6.6h1.4l0.1,1.2
			c0.3-1,1-1.5,1.7-1.5C340.4,444.1,340.6,444.1,340.8,444.2z"/>
		<path fill="#FFFFFF" d="M347.7,448.1h-4.1c0.1,1.4,0.8,1.7,1.7,1.7c0.6,0,1.1-0.1,1.7-0.6l0.6,0.9c-0.6,0.5-1.5,0.9-2.5,0.9
			c-2,0-3.1-1.4-3.1-3.5c0-2,1-3.5,2.9-3.5s2.9,1.2,2.9,3.4C347.7,447.7,347.7,448,347.7,448.1z M346.2,447c0-1.1-0.3-1.7-1.2-1.7
			c-0.8,0-1.2,0.5-1.2,1.7H346.2L346.2,447z"/>
		<path fill="#FFFFFF" d="M355.4,441.6v9.3H354l-0.1-0.9c-0.3,0.6-1,1-1.8,1c-1.7,0-2.5-1.4-2.5-3.5c0-2,1-3.5,2.6-3.5
			c0.6,0,1.2,0.3,1.7,0.8v-3.4L355.4,441.6z M353.8,449.1v-3c-0.3-0.5-0.8-0.8-1.2-0.8c-0.9,0-1.4,0.8-1.4,2.3
			c0,1.7,0.5,2.3,1.2,2.3C353,449.9,353.4,449.6,353.8,449.1z"/>
	</g>
	<g id="onboarding_slide_6_smile">
		<path id="onboarding_slide_6_smile_bubble" fill="#E5E5E5" d="M190.2,457.7H54.1c-8.2,0-15,6.7-15,15v42.4l-23.6,15.2h36.7
			c0.6,0.1,1.2,0.1,1.9,0.1h136.1c8.2,0,15-6.7,15-15v-42.9C205.2,464.4,198.4,457.7,190.2,457.7z"/>
		<g id="onboarding_slide_6_smile_content">
			<g id="onboarding_slide_6_smile_content_marks">
				<path d="M80.5,505.7c0,1.6-1.2,2.9-2.9,2.9s-2.9-1.2-2.9-2.9c0-1.6,1.2-2.9,2.9-2.9C79.3,503,80.5,504.2,80.5,505.7z
					 M79.2,498.5h-3.1l-0.4-19.6h4L79.2,498.5z"/>
				<path d="M113.4,505.7c0,1.6-1.2,2.9-2.9,2.9s-2.9-1.2-2.9-2.9c0-1.6,1.2-2.9,2.9-2.9C112.2,503,113.4,504.2,113.4,505.7z
					 M112.1,498.5H109l-0.4-19.6h4L112.1,498.5z"/>
			</g>
			<g id="onboarding_slide_6_smile_content_emoji">
				<path fill="#FFCC4D" d="M168.5,494.1c0,9.4-7.6,17-17,17s-17-7.6-17-17s7.6-17,17-17C160.8,477.1,168.5,484.7,168.5,494.1"/>
				<circle fill="#FF7892" cx="140.5" cy="494.1" r="5"/>
				<circle fill="#FF7892" cx="162.5" cy="494.1" r="5"/>
				<path fill="#664500" d="M160.8,497.7c-0.2-0.2-0.4-0.2-0.6,0c0,0-3.9,2.9-8.7,2.9s-8.7-2.9-8.7-2.9c-0.2-0.1-0.5-0.1-0.6,0
					c-0.2,0.2-0.2,0.4-0.1,0.6c0.1,0.2,3.2,5.2,9.4,5.2s9.3-5,9.4-5.2C161,498.1,161,497.9,160.8,497.7z"/>
				<path fill="#664500" d="M141.5,491.1c-0.2,0-0.3,0-0.4-0.1c-0.5-0.2-0.7-0.8-0.4-1.3c0.1-0.1,1.3-2.6,4.9-2.6
					c3.6,0,4.8,2.4,4.9,2.6c0.2,0.5,0,1.1-0.4,1.3c-0.5,0.2-1.1,0-1.3-0.4c0-0.1-0.8-1.5-3.1-1.5s-3.1,1.4-3.1,1.4
					C142.2,490.9,141.8,491.1,141.5,491.1z"/>
				<path fill="#664500" d="M161.5,491.1c-0.4,0-0.7-0.2-0.9-0.6c0,0-0.8-1.4-3.1-1.4s-3.1,1.4-3.1,1.5c-0.3,0.5-0.9,0.7-1.3,0.4
					c-0.5-0.3-0.7-0.8-0.4-1.3c0.1-0.1,1.3-2.6,4.9-2.6s4.8,2.4,4.9,2.6c0.2,0.5,0,1.1-0.4,1.3C161.8,491,161.6,491.1,161.5,491.1z"
					/>
			</g>
		</g>
	</g>
	<g>
		<path id="onboarding_slide_6_mais_bubble" fill="#3B88C3" d="M379.9,435.6l-23.5-16.1v-41.7c0-8.2-6.7-15-15-15h-83
			c-8.2,0-15,6.7-15,15v42.9c0,8.2,6.7,15,15,15h83c0.6,0,1.2,0,1.9-0.1L379.9,435.6L379.9,435.6z"/>
		<g id="onboarding_slide_6_mais">
			<path fill="#5C913B" d="M295.4,383c-1.7,1.7-6.7,8.3-4.2,14.1c2.5,5.8,5.9,2.2,7.5-2.5c0.8-2.5,0.8-5.8-0.8-10.8
				C297,381.4,295.4,383,295.4,383z"/>
			<path fill="#5C913B" d="M314.7,402.3c-1.7,1.7-8.3,6.7-14.1,4.2c-5.8-2.5-2.2-5.9,2.5-7.5c2.5-0.8,5.8-0.8,10.8,0.8
				C316.3,400.7,314.7,402.3,314.7,402.3z"/>
			<path fill="#F4900C" d="M312.3,388.3c0,0-0.1-1.7-0.8-2.3c-0.4-0.5-2-0.5-2-0.5c-1.7,0-20.8,2.5-24.1,19.1
				c-0.6,3,0.1,4.7,0.8,5.7c0,0.1,0,0.1,0,0.1c0.1,0.1,0.3,0.3,0.4,0.4c0.1,0.2,0.3,0.3,0.4,0.4h0.1c1.1,0.8,2.8,1.6,5.9,1
				C309.7,409,312.3,390,312.3,388.3z"/>
			<g>
				<g>
					<g>
						<g>
							<g>
								<defs>
									<path id="SVGID_7_" d="M312.3,388.3c0,0-0.1-1.7-0.8-2.3c-0.4-0.5-2-0.5-2-0.5c-1.7,0-20.8,2.5-24.1,19.1
										c-0.6,3,0.1,4.7,0.8,5.7c0,0.1,0,0.1,0,0.1c0.1,0.1,0.3,0.3,0.4,0.4c0.1,0.2,0.3,0.3,0.4,0.4h0.1c1.1,0.8,2.8,1.6,5.9,1
										C309.7,409,312.3,390,312.3,388.3z"/>
								</defs>
								<clipPath id="SVGID_8_">
									<use xlink:href="#SVGID_7_"  overflow="visible"/>
								</clipPath>
								<path clip-path="url(#SVGID_8_)" fill="#F7B82D" d="M304.8,392.4c-0.4,0.4-1.2,0.4-1.6,0l-1.6-1.6c-0.4-0.4-0.4-1.2,0-1.6
									l0,0c0.4-0.4,1.2-0.4,1.6,0l1.6,1.6C305.2,391.3,305.2,392,304.8,392.4L304.8,392.4z"/>
							</g>
						</g>
					</g>
				</g>
				<g>
					<g>
						<g>
							<g>
								<defs>
									<path id="SVGID_9_" d="M312.3,388.3c0,0-0.1-1.7-0.8-2.3c-0.4-0.5-2-0.5-2-0.5c-1.7,0-20.8,2.5-24.1,19.1
										c-0.6,3,0.1,4.7,0.8,5.7c0,0.1,0,0.1,0,0.1c0.1,0.1,0.3,0.3,0.4,0.4c0.1,0.2,0.3,0.3,0.4,0.4h0.1c1.1,0.8,2.8,1.6,5.9,1
										C309.7,409,312.3,390,312.3,388.3z"/>
								</defs>
								<clipPath id="SVGID_10_">
									<use xlink:href="#SVGID_9_"  overflow="visible"/>
								</clipPath>
								<path clip-path="url(#SVGID_10_)" fill="#F7B82D" d="M296.7,392.4c-0.4,0.4-1.2,0.4-1.6,0l-1.6-1.6c-0.4-0.4-0.4-1.2,0-1.6
									l0,0c0.4-0.4,1.2-0.4,1.6,0l1.6,1.6C297.1,391.3,297.1,392,296.7,392.4L296.7,392.4z"/>
							</g>
						</g>
					</g>
				</g>
				<g>
					<g>
						<g>
							<g>
								<defs>
									<path id="SVGID_11_" d="M312.3,388.3c0,0-0.1-1.7-0.8-2.3c-0.4-0.5-2-0.5-2-0.5c-1.7,0-20.8,2.5-24.1,19.1
										c-0.6,3,0.1,4.7,0.8,5.7c0,0.1,0,0.1,0,0.1c0.1,0.1,0.3,0.3,0.4,0.4c0.1,0.2,0.3,0.3,0.4,0.4h0.1c1.1,0.8,2.8,1.6,5.9,1
										C309.7,409,312.3,390,312.3,388.3z"/>
								</defs>
								<clipPath id="SVGID_12_">
									<use xlink:href="#SVGID_11_"  overflow="visible"/>
								</clipPath>
								<path clip-path="url(#SVGID_12_)" fill="#F7B82D" d="M299.1,390c-0.4,0.4-1.2,0.4-1.6,0l-1.6-1.6c-0.4-0.4-0.4-1.2,0-1.6
									l0,0c0.4-0.4,1.2-0.4,1.6,0l1.6,1.6C299.6,388.8,299.6,389.6,299.1,390L299.1,390z"/>
							</g>
						</g>
					</g>
				</g>
				<g>
					<g>
						<g>
							<g>
								<defs>
									<path id="SVGID_13_" d="M312.3,388.3c0,0-0.1-1.7-0.8-2.3c-0.4-0.5-2-0.5-2-0.5c-1.7,0-20.8,2.5-24.1,19.1
										c-0.6,3,0.1,4.7,0.8,5.7c0,0.1,0,0.1,0,0.1c0.1,0.1,0.3,0.3,0.4,0.4c0.1,0.2,0.3,0.3,0.4,0.4h0.1c1.1,0.8,2.8,1.6,5.9,1
										C309.7,409,312.3,390,312.3,388.3z"/>
								</defs>
								<clipPath id="SVGID_14_">
									<use xlink:href="#SVGID_13_"  overflow="visible"/>
								</clipPath>
								<path clip-path="url(#SVGID_14_)" fill="#F7B82D" d="M294.3,394.9c-0.4,0.4-1.2,0.4-1.6,0l-1.6-1.6c-0.4-0.4-0.4-1.2,0-1.6
									l0,0c0.4-0.4,1.2-0.4,1.6,0l1.6,1.6C294.7,393.7,294.7,394.4,294.3,394.9L294.3,394.9z"/>
							</g>
						</g>
					</g>
				</g>
				<g>
					<g>
						<g>
							<g>
								<defs>
									<path id="SVGID_15_" d="M312.3,388.3c0,0-0.1-1.7-0.8-2.3c-0.4-0.5-2-0.5-2-0.5c-1.7,0-20.8,2.5-24.1,19.1
										c-0.6,3,0.1,4.7,0.8,5.7c0,0.1,0,0.1,0,0.1c0.1,0.1,0.3,0.3,0.4,0.4c0.1,0.2,0.3,0.3,0.4,0.4h0.1c1.1,0.8,2.8,1.6,5.9,1
										C309.7,409,312.3,390,312.3,388.3z"/>
								</defs>
								<clipPath id="SVGID_16_">
									<use xlink:href="#SVGID_15_"  overflow="visible"/>
								</clipPath>
								<path clip-path="url(#SVGID_16_)" fill="#F7B82D" d="M307.2,390c-0.4,0.4-1.2,0.4-1.6,0l-1.6-1.6c-0.4-0.4-0.4-1.2,0-1.6
									l0,0c0.4-0.4,1.2-0.4,1.6,0l1.6,1.6C307.6,388.8,307.6,389.6,307.2,390L307.2,390z"/>
							</g>
						</g>
					</g>
				</g>
				<g>
					<g>
						<g>
							<g>
								<defs>
									<path id="SVGID_17_" d="M312.3,388.3c0,0-0.1-1.7-0.8-2.3c-0.4-0.5-2-0.5-2-0.5c-1.7,0-20.8,2.5-24.1,19.1
										c-0.6,3,0.1,4.7,0.8,5.7c0,0.1,0,0.1,0,0.1c0.1,0.1,0.3,0.3,0.4,0.4c0.1,0.2,0.3,0.3,0.4,0.4h0.1c1.1,0.8,2.8,1.6,5.9,1
										C309.7,409,312.3,390,312.3,388.3z"/>
								</defs>
								<clipPath id="SVGID_18_">
									<use xlink:href="#SVGID_17_"  overflow="visible"/>
								</clipPath>
								<path clip-path="url(#SVGID_18_)" fill="#F7B82D" d="M309.6,387.6c-0.4,0.4-1.2,0.4-1.6,0l-1.6-1.6c-0.4-0.4-0.4-1.2,0-1.6
									l0,0c0.4-0.4,1.2-0.4,1.6,0l1.6,1.6C310.1,386.4,310.1,387.2,309.6,387.6L309.6,387.6z"/>
							</g>
						</g>
					</g>
				</g>
				<g>
					<g>
						<g>
							<g>
								<defs>
									<path id="SVGID_19_" d="M312.3,388.3c0,0-0.1-1.7-0.8-2.3c-0.4-0.5-2-0.5-2-0.5c-1.7,0-20.8,2.5-24.1,19.1
										c-0.6,3,0.1,4.7,0.8,5.7c0,0.1,0,0.1,0,0.1c0.1,0.1,0.3,0.3,0.4,0.4c0.1,0.2,0.3,0.3,0.4,0.4h0.1c1.1,0.8,2.8,1.6,5.9,1
										C309.7,409,312.3,390,312.3,388.3z"/>
								</defs>
								<clipPath id="SVGID_20_">
									<use xlink:href="#SVGID_19_"  overflow="visible"/>
								</clipPath>
								<path clip-path="url(#SVGID_20_)" fill="#F7B82D" d="M302.3,394.9c-0.4,0.4-1.2,0.4-1.6,0l-1.6-1.6c-0.4-0.4-0.4-1.2,0-1.6
									l0,0c0.4-0.4,1.2-0.4,1.6,0l1.6,1.6C302.8,393.7,302.8,394.4,302.3,394.9L302.3,394.9z"/>
							</g>
						</g>
					</g>
				</g>
				<g>
					<g>
						<g>
							<g>
								<defs>
									<path id="SVGID_21_" d="M312.3,388.3c0,0-0.1-1.7-0.8-2.3c-0.4-0.5-2-0.5-2-0.5c-1.7,0-20.8,2.5-24.1,19.1
										c-0.6,3,0.1,4.7,0.8,5.7c0,0.1,0,0.1,0,0.1c0.1,0.1,0.3,0.3,0.4,0.4c0.1,0.2,0.3,0.3,0.4,0.4h0.1c1.1,0.8,2.8,1.6,5.9,1
										C309.7,409,312.3,390,312.3,388.3z"/>
								</defs>
								<clipPath id="SVGID_22_">
									<use xlink:href="#SVGID_21_"  overflow="visible"/>
								</clipPath>
								<path clip-path="url(#SVGID_22_)" fill="#F7B82D" d="M299.9,397.3c-0.4,0.4-1.2,0.4-1.6,0l-1.6-1.6c-0.4-0.4-0.4-1.2,0-1.6
									l0,0c0.4-0.4,1.2-0.4,1.6,0l1.6,1.6C300.4,396.1,300.4,396.8,299.9,397.3L299.9,397.3z"/>
							</g>
						</g>
					</g>
				</g>
				<g>
					<g>
						<g>
							<g>
								<defs>
									<path id="SVGID_23_" d="M312.3,388.3c0,0-0.1-1.7-0.8-2.3c-0.4-0.5-2-0.5-2-0.5c-1.7,0-20.8,2.5-24.1,19.1
										c-0.6,3,0.1,4.7,0.8,5.7c0,0.1,0,0.1,0,0.1c0.1,0.1,0.3,0.3,0.4,0.4c0.1,0.2,0.3,0.3,0.4,0.4h0.1c1.1,0.8,2.8,1.6,5.9,1
										C309.7,409,312.3,390,312.3,388.3z"/>
								</defs>
								<clipPath id="SVGID_24_">
									<use xlink:href="#SVGID_23_"  overflow="visible"/>
								</clipPath>
								<path clip-path="url(#SVGID_24_)" fill="#F7B82D" d="M295.1,402.1c-0.4,0.4-1.2,0.4-1.6,0l-1.6-1.6c-0.4-0.4-0.4-1.2,0-1.6
									l0,0c0.4-0.4,1.2-0.4,1.6,0l1.6,1.6C295.5,401,295.5,401.7,295.1,402.1L295.1,402.1z"/>
							</g>
						</g>
					</g>
				</g>
				<g>
					<g>
						<g>
							<g>
								<defs>
									<path id="SVGID_25_" d="M312.3,388.3c0,0-0.1-1.7-0.8-2.3c-0.4-0.5-2-0.5-2-0.5c-1.7,0-20.8,2.5-24.1,19.1
										c-0.6,3,0.1,4.7,0.8,5.7c0,0.1,0,0.1,0,0.1c0.1,0.1,0.3,0.3,0.4,0.4c0.1,0.2,0.3,0.3,0.4,0.4h0.1c1.1,0.8,2.8,1.6,5.9,1
										C309.7,409,312.3,390,312.3,388.3z"/>
								</defs>
								<clipPath id="SVGID_26_">
									<use xlink:href="#SVGID_25_"  overflow="visible"/>
								</clipPath>
								<path clip-path="url(#SVGID_26_)" fill="#F7B82D" d="M297.5,399.7c-0.4,0.4-1.2,0.4-1.6,0l-1.6-1.6c-0.4-0.4-0.4-1.2,0-1.6
									l0,0c0.4-0.4,1.2-0.4,1.6,0l1.6,1.6C297.9,398.5,297.9,399.3,297.5,399.7L297.5,399.7z"/>
							</g>
						</g>
					</g>
				</g>
			</g>
			<path fill="#77B255" d="M307.9,405.6c-7.1-2.4-15.1,0.7-19.4,3.6c2.9-4.3,6-12.3,3.6-19.4c-0.9-2.8-5.6-5.6-8.4-2.8
				c-0.9,0.9-1.9,1.9,0,1.9s4.7,2.8,3.7,5.6c-0.8,2.5-6.9,8.7-4.2,15.4c-0.3,0.1-0.5,0.3-0.7,0.5l-0.7,0.7c-0.9,0.9-0.9,2.4,0,3.3
				l0.7,0.7c0.9,0.9,2.4,0.9,3.3,0l0.7-0.7c0.1-0.1,0.2-0.3,0.3-0.4c7,3.8,13.7-2.8,16.4-3.7c2.8-0.9,5.6,1.9,5.6,3.7
				c0,1.9,0.9,0.9,1.9,0C313.5,411.2,310.7,406.5,307.9,405.6z"/>
		</g>
	</g>
</g>
</svg>
