<?xml version="1.0" encoding="utf-8"?>
<!-- Generator: Adobe Illustrator 18.0.0, SVG Export Plug-In . SVG Version: 6.00 Build 0)  -->
<!DOCTYPE svg PUBLIC "-//W3C//DTD SVG 1.1//EN" "http://www.w3.org/Graphics/SVG/1.1/DTD/svg11.dtd">
<svg version="1.1" id="Layer_1" xmlns="http://www.w3.org/2000/svg" xmlns:xlink="http://www.w3.org/1999/xlink" x="0px" y="0px"
	 viewBox="0 0 315 560" enable-background="new 0 0 315 560" xml:space="preserve">
<polyline fill="#283344" points="0.5,560 0.5,0 315,0 315,560 "/>
<g id="onboarding_slide_2_text">
	<path fill="#FFFFFF" d="M26.8,306.3h5v1.7h-5v4.4h6.1v1.8h-8.4v-13.8h8.3l-0.3,1.8h-5.7V306.3z"/>
	<path fill="#FFFFFF" d="M38.4,302.5c0.1,0.8,0.3,3.2,0.3,5.5v6.3h-2.1v-13.8h3l4.4,11.7c-0.1-0.8-0.3-3-0.3-5.5v-6.3h2.1v13.8h-3
		L38.4,302.5z"/>
	<path fill="#FFFFFF" d="M59.5,301.5l-1.2,1.4c-0.8-0.7-1.8-1-2.9-1c-2.1,0-3.8,1.4-3.8,5.3c0,3.8,1.6,5.3,3.8,5.3
		c1.5,0,2.4-0.6,3.1-1.2l1.1,1.4c-0.9,0.9-2.3,1.6-4.3,1.6c-3.5,0-6.2-2.5-6.2-7.2c0-4.6,2.8-7.2,6.1-7.2
		C57.2,300.1,58.4,300.6,59.5,301.5z"/>
	<path fill="#FFFFFF" d="M69,308.2l3.9,6h-2.7l-3.5-5.7h-1.5v5.7h-2.3v-13.8h3.8c3.5,0,5.4,1.3,5.4,4
		C72.1,306.4,70.8,307.7,69,308.2z M66.9,302.1h-1.7v4.7h1.7c1.8,0,2.8-0.7,2.8-2.4C69.7,302.8,68.8,302.1,66.9,302.1z"/>
	<path fill="#FFFFFF" d="M81.4,314.2H79V309l-4.6-8.5H77l3.3,6.5l3.3-6.5H86l-4.6,8.5V314.2z"/>
	<path fill="#FFFFFF" d="M93.1,309.3h-1.7v4.9h-2.3v-13.8h3.8c3.5,0,5.5,1.4,5.5,4.3C98.5,308,96.3,309.3,93.1,309.3z M93.1,302.2
		h-1.7v5.4h1.7c1.7,0,2.9-0.7,2.9-2.8C96.1,302.9,94.9,302.2,93.1,302.2z"/>
	<path fill="#FFFFFF" d="M107.3,314.2H105v-11.9h-4.2v-1.9h10.7l-0.2,1.9h-4V314.2z"/>
	<path fill="#FFFFFF" d="M123.4,302.2h-3v10.3h3v1.8H115v-1.8h3v-10.3h-3v-1.8h8.3V302.2z"/>
	<path fill="#FFFFFF" d="M132.2,314.5c-3.5,0-5.2-2.8-5.2-7.1c0-4.3,1.8-7.2,5.2-7.2c3.5,0,5.2,2.8,5.2,7.2
		C137.4,311.6,135.7,314.5,132.2,314.5z M132.2,302c-2,0-2.9,1.8-2.9,5.4c0,3.6,0.9,5.3,2.9,5.3c2,0,2.9-1.8,2.9-5.4
		S134.2,302,132.2,302z"/>
	<path fill="#FFFFFF" d="M142.4,302.5c0.1,0.8,0.3,3.2,0.3,5.5v6.3h-2.1v-13.8h3l4.4,11.7c-0.1-0.8-0.3-3-0.3-5.5v-6.3h2.1v13.8h-3
		L142.4,302.5z"/>
	<path fill="#FFFFFF" d="M175.4,302.2h-3v10.3h3v1.8H167v-1.8h3v-10.3h-3v-1.8h8.3V302.2z"/>
	<path fill="#FFFFFF" d="M183.9,314.5c-2.2,0-3.9-0.7-5.1-1.8l1.3-1.4c1,0.9,2.2,1.4,3.8,1.4c1.6,0,2.9-0.7,2.9-2.2
		c0-1.2-0.6-1.8-2.8-2.5c-2.9-0.9-4.5-2-4.5-4.1c0-2.3,2-3.7,4.7-3.7c2,0,3.4,0.6,4.6,1.7l-1.2,1.4c-1-0.8-2.1-1.2-3.3-1.2
		c-1.4,0-2.5,0.6-2.5,1.8c0,1.1,0.8,1.6,3.2,2.3c2.3,0.7,4.1,1.7,4.1,4.3C189.2,312.8,187.2,314.5,183.9,314.5z"/>
	<path fill="#FFFFFF" d="M211.3,314.2H209v-11.9h-4.2v-1.9h10.7l-0.2,1.9h-4V314.2z"/>
	<path fill="#FFFFFF" d="M225.5,307.9h-4.5v6.3h-2.3v-13.8h2.3v5.6h4.5v-5.6h2.3v13.8h-2.3V307.9z"/>
	<path fill="#FFFFFF" d="M234.8,306.3h5v1.7h-5v4.4h6.1v1.8h-8.4v-13.8h8.3l-0.3,1.8h-5.7V306.3z"/>
	<path fill="#FFFFFF" d="M259.7,310.9l-1,3.3h-2.4l4.4-13.8h2.9l4.4,13.8h-2.5l-1-3.3H259.7z M264.1,309.1l-2-6.9l-2,6.9H264.1z"/>
	<path fill="#FFFFFF" d="M277,308.2l3.9,6h-2.7l-3.5-5.7h-1.5v5.7h-2.3v-13.8h3.8c3.5,0,5.4,1.3,5.4,4
		C280.1,306.4,278.8,307.7,277,308.2z M274.9,302.1h-1.7v4.7h1.7c1.8,0,2.8-0.7,2.8-2.4C277.7,302.8,276.8,302.1,274.9,302.1z"/>
	<path fill="#FFFFFF" d="M289.3,314.2H287v-11.9h-4.2v-1.9h10.7l-0.2,1.9h-4V314.2z"/>
	<path fill="#FFFFFF" d="M41.2,338.5c-3.5,0-5.2-2.8-5.2-7.1c0-4.3,1.8-7.2,5.2-7.2c3.5,0,5.2,2.8,5.2,7.2
		C46.4,335.6,44.7,338.5,41.2,338.5z M41.2,326c-2,0-2.9,1.8-2.9,5.4c0,3.6,0.9,5.3,2.9,5.3c2,0,2.9-1.8,2.9-5.4S43.2,326,41.2,326z
		"/>
	<path fill="#FFFFFF" d="M53.1,330.6h5.2v1.8h-5.2v5.9h-2.3v-13.8h8.5l-0.2,1.8h-5.9V330.6z"/>
	<path fill="#FFFFFF" d="M81.3,338.2H79v-11.9h-4.2v-1.9h10.7l-0.2,1.9h-4V338.2z"/>
	<path fill="#FFFFFF" d="M98,333.7c0,2.8-1.8,4.8-4.8,4.8c-3.1,0-4.8-1.9-4.8-4.8v-9.3h2.3v8.8c0,2.3,0.7,3.4,2.4,3.4
		c1.7,0,2.5-1.1,2.5-3.4v-8.8H98V333.7z"/>
	<path fill="#FFFFFF" d="M108,332.2l3.9,6h-2.7l-3.5-5.7h-1.5v5.7h-2.3v-13.8h3.8c3.5,0,5.4,1.3,5.4,4
		C111.1,330.4,109.8,331.7,108,332.2z M105.9,326.1h-1.7v4.7h1.7c1.8,0,2.8-0.7,2.8-2.4C108.7,326.8,107.8,326.1,105.9,326.1z"/>
	<path fill="#FFFFFF" d="M116.4,326.5c0.1,0.8,0.3,3.2,0.3,5.5v6.3h-2.1v-13.8h3l4.4,11.7c-0.1-0.8-0.3-3-0.3-5.5v-6.3h2.1v13.8h-3
		L116.4,326.5z"/>
	<path fill="#FFFFFF" d="M136.4,326.2h-3v10.3h3v1.8H128v-1.8h3v-10.3h-3v-1.8h8.3V326.2z"/>
	<path fill="#FFFFFF" d="M142.4,326.5c0.1,0.8,0.3,3.2,0.3,5.5v6.3h-2.1v-13.8h3l4.4,11.7c-0.1-0.8-0.3-3-0.3-5.5v-6.3h2.1v13.8h-3
		L142.4,326.5z"/>
	<path fill="#FFFFFF" d="M152.9,331.3c0-4.7,2.8-7.2,6-7.2c1.9,0,3,0.6,4.1,1.6l-1.3,1.3c-0.8-0.8-1.7-1.1-2.7-1.1
		c-1.9,0-3.7,1.4-3.7,5.3c0,3.9,1.1,5.4,3.3,5.4c0.8,0,1.6-0.2,2.3-0.6v-3.8h-2.3l-0.2-1.8h4.8v6.7c-1.3,0.7-2.7,1.3-4.6,1.3
		C155,338.5,152.9,336.1,152.9,331.3z"/>
	<path fill="#FFFFFF" d="M189.7,338.2h-2.1l-0.3-6.7c-0.1-2-0.1-3.9,0-5l-2,9.3h-2l-2.2-9.3c0.1,1.1,0.1,3.1,0.1,5.1l-0.3,6.7h-2.1
		l0.8-13.8h2.8l2,9.2l1.9-9.2h2.8L189.7,338.2z"/>
	<path fill="#FFFFFF" d="M195.8,330.3h5v1.7h-5v4.4h6.1v1.8h-8.4v-13.8h8.3l-0.3,1.8h-5.7V330.3z"/>
	<path fill="#FFFFFF" d="M209.9,338.5c-2.2,0-3.9-0.7-5.1-1.8l1.3-1.4c1,0.9,2.2,1.4,3.8,1.4c1.6,0,2.9-0.7,2.9-2.2
		c0-1.2-0.6-1.8-2.8-2.5c-2.9-0.9-4.5-2-4.5-4.1c0-2.3,2-3.7,4.7-3.7c2,0,3.4,0.6,4.6,1.7l-1.2,1.4c-1-0.8-2.1-1.2-3.3-1.2
		c-1.4,0-2.5,0.6-2.5,1.8c0,1.1,0.8,1.6,3.2,2.3c2.3,0.7,4.1,1.7,4.1,4.3C215.2,336.8,213.2,338.5,209.9,338.5z"/>
	<path fill="#FFFFFF" d="M222.9,338.5c-2.2,0-3.9-0.7-5.1-1.8l1.3-1.4c1,0.9,2.2,1.4,3.8,1.4c1.6,0,2.9-0.7,2.9-2.2
		c0-1.2-0.6-1.8-2.8-2.5c-2.9-0.9-4.5-2-4.5-4.1c0-2.3,2-3.7,4.7-3.7c2,0,3.4,0.6,4.6,1.7l-1.2,1.4c-1-0.8-2.1-1.2-3.3-1.2
		c-1.4,0-2.5,0.6-2.5,1.8c0,1.1,0.8,1.6,3.2,2.3c2.3,0.7,4.1,1.7,4.1,4.3C228.2,336.8,226.2,338.5,222.9,338.5z"/>
	<path fill="#FFFFFF" d="M233.7,334.9l-1,3.3h-2.4l4.4-13.8h2.9l4.4,13.8h-2.5l-1-3.3H233.7z M238.1,333.1l-2-6.9l-2,6.9H238.1z"/>
	<path fill="#FFFFFF" d="M243.9,331.3c0-4.7,2.8-7.2,6-7.2c1.9,0,3,0.6,4.1,1.6l-1.3,1.3c-0.8-0.8-1.7-1.1-2.7-1.1
		c-1.9,0-3.7,1.4-3.7,5.3c0,3.9,1.1,5.4,3.3,5.4c0.8,0,1.6-0.2,2.3-0.6v-3.8h-2.3l-0.2-1.8h4.8v6.7c-1.3,0.7-2.7,1.3-4.6,1.3
		C246,338.5,243.9,336.1,243.9,331.3z"/>
	<path fill="#FFFFFF" d="M260.8,330.3h5v1.7h-5v4.4h6.1v1.8h-8.4v-13.8h8.3l-0.3,1.8h-5.7V330.3z"/>
	<path fill="#FFFFFF" d="M274.9,338.5c-2.2,0-3.9-0.7-5.1-1.8l1.3-1.4c1,0.9,2.2,1.4,3.8,1.4c1.6,0,2.9-0.7,2.9-2.2
		c0-1.2-0.6-1.8-2.8-2.5c-2.9-0.9-4.5-2-4.5-4.1c0-2.3,2-3.7,4.7-3.7c2,0,3.4,0.6,4.6,1.7l-1.2,1.4c-1-0.8-2.1-1.2-3.3-1.2
		c-1.4,0-2.5,0.6-2.5,1.8c0,1.1,0.8,1.6,3.2,2.3c2.3,0.7,4.1,1.7,4.1,4.3C280.2,336.8,278.2,338.5,274.9,338.5z"/>
	<path fill="#FFFFFF" d="M77.9,350.2h-3v10.3h3v1.8h-8.3v-1.8h3v-10.3h-3v-1.8h8.3V350.2z"/>
	<path fill="#FFFFFF" d="M83.9,350.5c0.1,0.8,0.3,3.2,0.3,5.5v6.3h-2.1v-13.8h3l4.4,11.7c-0.1-0.8-0.3-3-0.3-5.5v-6.3h2.1v13.8h-3
		L83.9,350.5z"/>
	<path fill="#FFFFFF" d="M100.8,362.2h-2.3v-11.9h-4.2v-1.9h10.7l-0.2,1.9h-4V362.2z"/>
	<path fill="#FFFFFF" d="M112.7,362.5c-3.5,0-5.2-2.8-5.2-7.1c0-4.3,1.8-7.2,5.2-7.2c3.5,0,5.2,2.8,5.2,7.2
		C117.9,359.6,116.2,362.5,112.7,362.5z M112.7,350c-2,0-2.9,1.8-2.9,5.4c0,3.6,0.9,5.3,2.9,5.3c2,0,2.9-1.8,2.9-5.4
		S114.7,350,112.7,350z"/>
	<path fill="#FFFFFF" d="M138.4,362.5c-2.2,0-3.9-0.7-5.1-1.8l1.3-1.4c1,0.9,2.2,1.4,3.8,1.4c1.6,0,2.9-0.7,2.9-2.2
		c0-1.2-0.6-1.8-2.8-2.5c-2.9-0.9-4.5-2-4.5-4.1c0-2.3,2-3.7,4.7-3.7c2,0,3.4,0.6,4.6,1.7l-1.2,1.4c-1-0.8-2.1-1.2-3.3-1.2
		c-1.4,0-2.5,0.6-2.5,1.8c0,1.1,0.8,1.6,3.2,2.3c2.3,0.7,4.1,1.7,4.1,4.3C143.7,360.8,141.7,362.5,138.4,362.5z"/>
	<path fill="#FFFFFF" d="M157,349.5l-1.2,1.4c-0.8-0.7-1.8-1-2.9-1c-2.1,0-3.8,1.4-3.8,5.3c0,3.8,1.6,5.3,3.8,5.3
		c1.5,0,2.4-0.6,3.1-1.2l1.1,1.4c-0.9,0.9-2.3,1.6-4.3,1.6c-3.5,0-6.2-2.5-6.2-7.2c0-4.6,2.8-7.2,6.1-7.2
		C154.7,348.1,155.9,348.6,157,349.5z"/>
	<path fill="#FFFFFF" d="M166.5,356.2l3.9,6h-2.7l-3.5-5.7h-1.5v5.7h-2.3v-13.8h3.8c3.5,0,5.4,1.3,5.4,4
		C169.6,354.4,168.3,355.7,166.5,356.2z M164.4,350.1h-1.7v4.7h1.7c1.8,0,2.8-0.7,2.8-2.4C167.2,350.8,166.3,350.1,164.4,350.1z"/>
	<path fill="#FFFFFF" d="M175.2,358.9l-1,3.3h-2.4l4.4-13.8h2.9l4.4,13.8h-2.5l-1-3.3H175.2z M179.6,357.1l-2-6.9l-2,6.9H179.6z"/>
	<path fill="#FFFFFF" d="M196.2,362.2h-2.1l-0.3-6.7c-0.1-2-0.1-3.9,0-5l-2,9.3h-2l-2.2-9.3c0.1,1.1,0.1,3.1,0.1,5.1l-0.3,6.7h-2.1
		l0.8-13.8h2.8l2,9.2l1.9-9.2h2.8L196.2,362.2z"/>
	<path fill="#FFFFFF" d="M203.4,362.2h-4v-13.8h3.8c2.6,0,5,0.8,5,3.5c0,1.7-1.2,2.7-2.6,3c1.5,0.3,3.2,1.1,3.2,3.3
		C208.7,361.3,206.1,362.2,203.4,362.2z M203.3,350.2h-1.7v4h1.8c1.5,0,2.3-0.6,2.3-2C205.8,350.7,204.9,350.2,203.3,350.2z
		 M203.6,355.9h-2v4.5h1.9c1.3,0,2.8-0.3,2.8-2.2C206.3,356.4,205.1,355.9,203.6,355.9z"/>
	<path fill="#FFFFFF" d="M213.1,348.4h2.3v11.9h6.2l-0.3,1.9h-8.2V348.4z"/>
	<path fill="#FFFFFF" d="M228.3,354.3h5v1.7h-5v4.4h6.1v1.8H226v-13.8h8.3l-0.3,1.8h-5.7V354.3z"/>
	<path fill="#FFFFFF" d="M241.5,362.2h-3.4v-13.8h3.2c3.4,0,6.6,1.1,6.6,6.8C247.9,361,244.6,362.2,241.5,362.2z M241.7,350.2h-1.3
		v10.3h1.3c1.9,0,3.7-1,3.7-5.2C245.5,350.9,243.6,350.2,241.7,350.2z"/>
	<path fill="#FFFFFF" d="M118.2,386.2h-2.1l-0.3-6.7c-0.1-2-0.1-3.9,0-5l-2,9.3h-2l-2.2-9.3c0.1,1.1,0.1,3.1,0.1,5.1l-0.3,6.7h-2.1
		l0.8-13.8h2.8l2,9.2l1.9-9.2h2.8L118.2,386.2z"/>
	<path fill="#FFFFFF" d="M124.3,378.3h5v1.7h-5v4.4h6.1v1.8H122v-13.8h8.3l-0.3,1.8h-5.7V378.3z"/>
	<path fill="#FFFFFF" d="M138.4,386.5c-2.2,0-3.9-0.7-5.1-1.8l1.3-1.4c1,0.9,2.2,1.4,3.8,1.4c1.6,0,2.9-0.7,2.9-2.2
		c0-1.2-0.6-1.8-2.8-2.5c-2.9-0.9-4.5-2-4.5-4.1c0-2.3,2-3.7,4.7-3.7c2,0,3.4,0.6,4.6,1.7l-1.2,1.4c-1-0.8-2.1-1.2-3.3-1.2
		c-1.4,0-2.5,0.6-2.5,1.8c0,1.1,0.8,1.6,3.2,2.3c2.3,0.7,4.1,1.7,4.1,4.3C143.7,384.8,141.7,386.5,138.4,386.5z"/>
	<path fill="#FFFFFF" d="M151.4,386.5c-2.2,0-3.9-0.7-5.1-1.8l1.3-1.4c1,0.9,2.2,1.4,3.8,1.4c1.6,0,2.9-0.7,2.9-2.2
		c0-1.2-0.6-1.8-2.8-2.5c-2.9-0.9-4.5-2-4.5-4.1c0-2.3,2-3.7,4.7-3.7c2,0,3.4,0.6,4.6,1.7l-1.2,1.4c-1-0.8-2.1-1.2-3.3-1.2
		c-1.4,0-2.5,0.6-2.5,1.8c0,1.1,0.8,1.6,3.2,2.3c2.3,0.7,4.1,1.7,4.1,4.3C156.7,384.8,154.7,386.5,151.4,386.5z"/>
	<path fill="#FFFFFF" d="M162.2,382.9l-1,3.3h-2.4l4.4-13.8h2.9l4.4,13.8h-2.5l-1-3.3H162.2z M166.6,381.1l-2-6.9l-2,6.9H166.6z"/>
	<path fill="#FFFFFF" d="M172.4,379.3c0-4.7,2.8-7.2,6-7.2c1.9,0,3,0.6,4.1,1.6l-1.3,1.3c-0.8-0.8-1.7-1.1-2.7-1.1
		c-1.9,0-3.7,1.4-3.7,5.3c0,3.9,1.1,5.4,3.3,5.4c0.8,0,1.6-0.2,2.3-0.6v-3.8h-2.3l-0.2-1.8h4.8v6.7c-1.3,0.7-2.7,1.3-4.6,1.3
		C174.5,386.5,172.4,384.1,172.4,379.3z"/>
	<path fill="#FFFFFF" d="M189.3,378.3h5v1.7h-5v4.4h6.1v1.8H187v-13.8h8.3l-0.3,1.8h-5.7V378.3z"/>
	<path fill="#FFFFFF" d="M203.4,386.5c-2.2,0-3.9-0.7-5.1-1.8l1.3-1.4c1,0.9,2.2,1.4,3.8,1.4c1.6,0,2.9-0.7,2.9-2.2
		c0-1.2-0.6-1.8-2.8-2.5c-2.9-0.9-4.5-2-4.5-4.1c0-2.3,2-3.7,4.7-3.7c2,0,3.4,0.6,4.6,1.7l-1.2,1.4c-1-0.8-2.1-1.2-3.3-1.2
		c-1.4,0-2.5,0.6-2.5,1.8c0,1.1,0.8,1.6,3.2,2.3c2.3,0.7,4.1,1.7,4.1,4.3C208.7,384.8,206.7,386.5,203.4,386.5z"/>
</g>
<g id="onboarding_slide_2_hello">
	<g id="onboarding_slide_2_A5">
		<path id="path22_87_" fill="#3B88C3" d="M293.2,134.1c0,2.8-2.2,5-5,5h-35c-2.8,0-5-2.2-5-5v-35c0-2.8,2.2-5,5-5h35
			c2.8,0,5,2.2,5,5V134.1z"/>
		<path id="path26_80_" fill="#FFFFFF" d="M278,116.6c0-4.7-2.4-8.9-7.3-8.9s-7.3,4.2-7.3,8.9c0,4.7,2.4,8.9,7.3,8.9
			C275.7,125.5,278,121.3,278,116.6 M257.4,116.6c0-8.1,5.4-14.3,13.3-14.3c7.8,0,13.3,6.4,13.3,14.3c0,8-5.4,14.3-13.3,14.3
			C262.9,130.8,257.4,124.6,257.4,116.6"/>
	</g>
	<g id="onboarding_slide_2_A4">
		<path id="path22_83_" fill="#3B88C3" d="M180,134.1c0,2.8-2.2,5-5,5h-35c-2.8,0-5-2.2-5-5v-35c0-2.8,2.2-5,5-5h35c2.8,0,5,2.2,5,5
			V134.1z"/>
		<path id="path26_75_" fill="#FFFFFF" d="M151,105.6c0-1.9,1.2-3,2.9-3c1.7,0,2.9,1.1,2.9,3V125h6.9c2,0,2.8,1.5,2.8,2.8
			c-0.1,1.3-1.1,2.6-2.8,2.6h-9.7c-1.9,0-3-1.2-3-3.2V105.6z"/>
	</g>
	<g id="onboarding_slide_2_A3">
		<path id="path22_85_" fill="#3B88C3" d="M236.6,134.1c0,2.8-2.2,5-5,5h-35c-2.8,0-5-2.2-5-5v-35c0-2.8,2.2-5,5-5h35
			c2.8,0,5,2.2,5,5V134.1z"/>
		<path id="path26_78_" fill="#FFFFFF" d="M207.6,105.6c0-1.9,1.2-3,2.9-3c1.7,0,2.9,1.1,2.9,3V125h6.9c2,0,2.8,1.5,2.8,2.8
			c-0.1,1.3-1.1,2.6-2.8,2.6h-9.7c-1.9,0-3-1.2-3-3.2V105.6z"/>
	</g>
	<g id="onboarding_slide_2_A2">
		<path id="path22_81_" fill="#3B88C3" d="M123.4,134.1c0,2.8-2.2,5-5,5h-35c-2.8,0-5-2.2-5-5v-35c0-2.8,2.2-5,5-5h35
			c2.8,0,5,2.2,5,5V134.1z"/>
		<path id="path26_73_" fill="#FFFFFF" d="M93.7,106.1c0-1.9,1-3.4,3-3.4h9.6c1.9,0,2.8,1.3,2.8,2.7c0,1.3-0.9,2.7-2.8,2.7h-6.8v5.7
			h6.4c1.9,0,2.8,1.3,2.8,2.7c0,1.3-1,2.7-2.8,2.7h-6.4v5.9h7.2c1.9,0,2.8,1.3,2.8,2.7c0,1.3-0.9,2.7-2.8,2.7h-10
			c-1.7,0-3-1.2-3-2.9V106.1z"/>
	</g>
	<g id="onboarding_slide_2_A1">
		<path id="path22_79_" fill="#3B88C3" d="M66.8,134.1c0,2.8-2.2,5-5,5h-35c-2.8,0-5-2.2-5-5v-35c0-2.8,2.2-5,5-5h35
			c2.8,0,5,2.2,5,5V134.1z"/>
		<path id="path26_69_" fill="#FFFFFF" d="M53.7,102.9c-1.7,0-3.1,1.4-3.1,3.1v6.9H38.1V106c0-1.7-1.4-3.1-3.1-3.1
			c-1.7,0-3.1,1.4-3.1,3.1v21.2c0,1.7,1.4,3.1,3.1,3.1c1.7,0,3.1-1.4,3.1-3.1v-8.1h12.5v8.1c0,1.7,1.4,3.1,3.1,3.1
			c1.7,0,3.1-1.4,3.1-3.1V106C56.8,104.3,55.4,102.9,53.7,102.9"/>
	</g>
</g>
<g id="onboarding_slide1_lines">
	<path id="onboarding_slide1_line_5" fill="#FFFFFF" d="M43.6,185.1c0-0.4,0.3-0.8,0.8-0.8l0,0c0.4,0,0.8,0.3,0.8,0.8l0,0
		c0,0.4-0.3,0.8-0.8,0.8l0,0C43.9,185.9,43.6,185.5,43.6,185.1z M43.6,182.2c0-0.4,0.3-0.8,0.8-0.8l0,0c0.4,0,0.8,0.3,0.8,0.8l0,0
		c0,0.4-0.3,0.8-0.8,0.8l0,0C43.9,183,43.6,182.6,43.6,182.2z M43.6,179.3c0-0.4,0.3-0.8,0.8-0.8l0,0c0.4,0,0.8,0.3,0.8,0.8l0,0
		c0,0.4-0.3,0.8-0.8,0.8l0,0C43.9,180,43.6,179.7,43.6,179.3z M43.6,176.4c0-0.4,0.3-0.8,0.8-0.8l0,0c0.4,0,0.8,0.3,0.8,0.8l0,0
		c0,0.4-0.3,0.8-0.8,0.8l0,0C43.9,177.1,43.6,176.8,43.6,176.4z M43.6,173.5c0-0.4,0.3-0.8,0.8-0.8l0,0c0.4,0,0.8,0.3,0.8,0.8l0,0
		c0,0.4-0.3,0.8-0.8,0.8l0,0C43.9,174.2,43.6,173.9,43.6,173.5z M43.6,170.6c0-0.4,0.3-0.8,0.8-0.8l0,0c0.4,0,0.8,0.3,0.8,0.8l0,0
		c0,0.4-0.3,0.8-0.8,0.8l0,0C43.9,171.3,43.6,171,43.6,170.6z M43.6,167.7c0-0.4,0.3-0.8,0.8-0.8l0,0c0.4,0,0.8,0.3,0.8,0.8l0,0
		c0,0.4-0.3,0.8-0.8,0.8l0,0C43.9,168.4,43.6,168.1,43.6,167.7z M43.6,164.8c0-0.4,0.3-0.8,0.8-0.8l0,0c0.4,0,0.8,0.3,0.8,0.8l0,0
		c0,0.4-0.3,0.8-0.8,0.8l0,0C43.9,165.5,43.6,165.2,43.6,164.8z M43.6,161.8c0-0.4,0.3-0.8,0.8-0.8l0,0c0.4,0,0.8,0.3,0.8,0.8l0,0
		c0,0.4-0.3,0.8-0.8,0.8l0,0C43.9,162.6,43.6,162.2,43.6,161.8z M43.6,158.9c0-0.4,0.3-0.8,0.8-0.8l0,0c0.4,0,0.8,0.3,0.8,0.8l0,0
		c0,0.4-0.3,0.8-0.8,0.8l0,0C43.9,159.7,43.6,159.3,43.6,158.9z M43.6,156c0-0.4,0.3-0.8,0.8-0.8l0,0c0.4,0,0.8,0.3,0.8,0.8l0,0
		c0,0.4-0.3,0.8-0.8,0.8l0,0C43.9,156.8,43.6,156.4,43.6,156z M43.6,153.1c0-0.4,0.3-0.8,0.8-0.8l0,0c0.4,0,0.8,0.3,0.8,0.8l0,0
		c0,0.4-0.3,0.8-0.8,0.8l0,0C43.9,153.9,43.6,153.5,43.6,153.1z"/>
	<path id="onboarding_slide1_line_4" fill="#FFFFFF" d="M100.3,185.1c0-0.4,0.3-0.8,0.8-0.8l0,0c0.4,0,0.8,0.3,0.8,0.8l0,0
		c0,0.4-0.3,0.8-0.8,0.8l0,0C100.7,185.9,100.3,185.5,100.3,185.1z M100.3,182.2c0-0.4,0.3-0.8,0.8-0.8l0,0c0.4,0,0.8,0.3,0.8,0.8
		l0,0c0,0.4-0.3,0.8-0.8,0.8l0,0C100.7,183,100.3,182.6,100.3,182.2z M100.3,179.3c0-0.4,0.3-0.7,0.8-0.7l0,0c0.4,0,0.8,0.3,0.8,0.7
		l0,0c0,0.4-0.3,0.8-0.8,0.8l0,0C100.7,180,100.3,179.7,100.3,179.3z M100.3,176.4c0-0.4,0.3-0.8,0.8-0.8l0,0c0.4,0,0.8,0.3,0.8,0.8
		l0,0c0,0.4-0.3,0.8-0.8,0.8l0,0C100.7,177.1,100.3,176.8,100.3,176.4z M100.3,173.5c0-0.4,0.3-0.8,0.8-0.8l0,0
		c0.4,0,0.8,0.3,0.8,0.8l0,0c0,0.4-0.3,0.8-0.8,0.8l0,0C100.7,174.2,100.3,173.9,100.3,173.5z M100.3,170.6c0-0.4,0.3-0.8,0.8-0.8
		l0,0c0.4,0,0.8,0.3,0.8,0.8l0,0c0,0.4-0.3,0.8-0.8,0.8l0,0C100.7,171.3,100.3,171,100.3,170.6z M100.3,167.7c0-0.4,0.3-0.8,0.8-0.8
		l0,0c0.4,0,0.8,0.3,0.8,0.8l0,0c0,0.4-0.3,0.8-0.8,0.8l0,0C100.7,168.4,100.3,168.1,100.3,167.7z M100.3,164.8
		c0-0.4,0.3-0.8,0.8-0.8l0,0c0.4,0,0.8,0.3,0.8,0.8l0,0c0,0.4-0.3,0.8-0.8,0.8l0,0C100.7,165.5,100.3,165.2,100.3,164.8z
		 M100.3,161.8c0-0.4,0.3-0.8,0.8-0.8l0,0c0.4,0,0.8,0.3,0.8,0.8l0,0c0,0.4-0.3,0.8-0.8,0.8l0,0
		C100.7,162.6,100.3,162.2,100.3,161.8z M100.3,158.9c0-0.4,0.3-0.8,0.8-0.8l0,0c0.4,0,0.8,0.3,0.8,0.8l0,0c0,0.4-0.3,0.8-0.8,0.8
		l0,0C100.7,159.7,100.3,159.3,100.3,158.9z M100.3,156c0-0.4,0.3-0.8,0.8-0.8l0,0c0.4,0,0.8,0.3,0.8,0.8l0,0c0,0.4-0.3,0.8-0.8,0.8
		l0,0C100.7,156.8,100.3,156.4,100.3,156z M100.3,153.1c0-0.4,0.3-0.8,0.8-0.8l0,0c0.4,0,0.8,0.3,0.8,0.8l0,0c0,0.4-0.3,0.8-0.8,0.8
		l0,0C100.7,153.9,100.3,153.5,100.3,153.1z"/>
	<path id="onboarding_slide1_line_3" fill="#FFFFFF" d="M157.1,185.1c0-0.4,0.3-0.8,0.8-0.8l0,0c0.4,0,0.8,0.3,0.8,0.8l0,0
		c0,0.4-0.3,0.8-0.8,0.8l0,0C157.4,185.9,157.1,185.5,157.1,185.1z M157.1,182.2c0-0.4,0.3-0.8,0.8-0.8l0,0c0.4,0,0.8,0.3,0.8,0.8
		l0,0c0,0.4-0.3,0.8-0.8,0.8l0,0C157.4,183,157.1,182.6,157.1,182.2z M157.1,179.3c0-0.4,0.3-0.7,0.8-0.7l0,0c0.4,0,0.8,0.3,0.8,0.7
		l0,0c0,0.4-0.3,0.8-0.8,0.8l0,0C157.4,180,157.1,179.7,157.1,179.3z M157.1,176.4c0-0.4,0.3-0.8,0.8-0.8l0,0c0.4,0,0.8,0.3,0.8,0.8
		l0,0c0,0.4-0.3,0.8-0.8,0.8l0,0C157.4,177.1,157.1,176.8,157.1,176.4z M157.1,173.5c0-0.4,0.3-0.8,0.8-0.8l0,0
		c0.4,0,0.8,0.3,0.8,0.8l0,0c0,0.4-0.3,0.8-0.8,0.8l0,0C157.4,174.2,157.1,173.9,157.1,173.5z M157.1,170.6c0-0.4,0.3-0.8,0.8-0.8
		l0,0c0.4,0,0.8,0.3,0.8,0.8l0,0c0,0.4-0.3,0.8-0.8,0.8l0,0C157.4,171.3,157.1,171,157.1,170.6z M157.1,167.7c0-0.4,0.3-0.8,0.8-0.8
		l0,0c0.4,0,0.8,0.3,0.8,0.8l0,0c0,0.4-0.3,0.8-0.8,0.8l0,0C157.4,168.4,157.1,168.1,157.1,167.7z M157.1,164.8
		c0-0.4,0.3-0.8,0.8-0.8l0,0c0.4,0,0.8,0.3,0.8,0.8l0,0c0,0.4-0.3,0.8-0.8,0.8l0,0C157.4,165.5,157.1,165.2,157.1,164.8z
		 M157.1,161.8c0-0.4,0.3-0.8,0.8-0.8l0,0c0.4,0,0.8,0.3,0.8,0.8l0,0c0,0.4-0.3,0.8-0.8,0.8l0,0
		C157.4,162.6,157.1,162.2,157.1,161.8z M157.1,158.9c0-0.4,0.3-0.8,0.8-0.8l0,0c0.4,0,0.8,0.3,0.8,0.8l0,0c0,0.4-0.3,0.8-0.8,0.8
		l0,0C157.4,159.7,157.1,159.3,157.1,158.9z M157.1,156c0-0.4,0.3-0.8,0.8-0.8l0,0c0.4,0,0.8,0.3,0.8,0.8l0,0c0,0.4-0.3,0.8-0.8,0.8
		l0,0C157.4,156.8,157.1,156.4,157.1,156z M157.1,153.1c0-0.4,0.3-0.8,0.8-0.8l0,0c0.4,0,0.8,0.3,0.8,0.8l0,0c0,0.4-0.3,0.8-0.8,0.8
		l0,0C157.4,153.9,157.1,153.5,157.1,153.1z"/>
	<path id="onboarding_slide1_line_2" fill="#FFFFFF" d="M213.9,185.1c0-0.4,0.3-0.8,0.8-0.8l0,0c0.4,0,0.8,0.3,0.8,0.8l0,0
		c0,0.4-0.3,0.8-0.8,0.8l0,0C214.2,185.9,213.9,185.5,213.9,185.1z M213.9,182.2c0-0.4,0.3-0.8,0.8-0.8l0,0c0.4,0,0.8,0.3,0.8,0.8
		l0,0c0,0.4-0.3,0.8-0.8,0.8l0,0C214.2,183,213.9,182.6,213.9,182.2z M213.9,179.3c0-0.4,0.3-0.8,0.8-0.8l0,0c0.4,0,0.8,0.3,0.8,0.8
		l0,0c0,0.4-0.3,0.8-0.8,0.8l0,0C214.2,180.1,213.9,179.7,213.9,179.3z M213.9,176.4c0-0.4,0.3-0.8,0.8-0.8l0,0
		c0.4,0,0.8,0.3,0.8,0.8l0,0c0,0.4-0.3,0.8-0.8,0.8l0,0C214.2,177.1,213.9,176.8,213.9,176.4z M213.9,173.5c0-0.4,0.3-0.8,0.8-0.8
		l0,0c0.4,0,0.8,0.3,0.8,0.8l0,0c0,0.4-0.3,0.8-0.8,0.8l0,0C214.2,174.2,213.9,173.9,213.9,173.5z M213.9,170.6
		c0-0.4,0.3-0.8,0.8-0.8l0,0c0.4,0,0.8,0.3,0.8,0.8l0,0c0,0.4-0.3,0.8-0.8,0.8l0,0C214.2,171.3,213.9,171,213.9,170.6z M213.9,167.7
		c0-0.4,0.3-0.8,0.8-0.8l0,0c0.4,0,0.8,0.3,0.8,0.8l0,0c0,0.4-0.3,0.8-0.8,0.8l0,0C214.2,168.4,213.9,168.1,213.9,167.7z
		 M213.9,164.8c0-0.4,0.3-0.8,0.8-0.8l0,0c0.4,0,0.8,0.3,0.8,0.8l0,0c0,0.4-0.3,0.8-0.8,0.8l0,0
		C214.2,165.5,213.9,165.2,213.9,164.8z M213.9,161.8c0-0.4,0.3-0.8,0.8-0.8l0,0c0.4,0,0.8,0.3,0.8,0.8l0,0c0,0.4-0.3,0.8-0.8,0.8
		l0,0C214.2,162.6,213.9,162.2,213.9,161.8z M213.9,158.9c0-0.4,0.3-0.8,0.8-0.8l0,0c0.4,0,0.8,0.3,0.8,0.8l0,0
		c0,0.4-0.3,0.8-0.8,0.8l0,0C214.2,159.7,213.9,159.3,213.9,158.9z M213.9,156c0-0.4,0.3-0.8,0.8-0.8l0,0c0.4,0,0.8,0.3,0.8,0.8l0,0
		c0,0.4-0.3,0.8-0.8,0.8l0,0C214.2,156.8,213.9,156.4,213.9,156z M213.9,153.1c0-0.4,0.3-0.8,0.8-0.8l0,0c0.4,0,0.8,0.3,0.8,0.8l0,0
		c0,0.4-0.3,0.8-0.8,0.8l0,0C214.2,153.9,213.9,153.5,213.9,153.1z"/>
	<path id="onboarding_slide1_line_1" fill="#FFFFFF" d="M270.6,185.1c0-0.4,0.3-0.8,0.8-0.8l0,0c0.4,0,0.8,0.3,0.8,0.8l0,0
		c0,0.4-0.3,0.8-0.8,0.8l0,0C270.9,185.9,270.6,185.5,270.6,185.1z M270.6,182.2c0-0.4,0.3-0.8,0.8-0.8l0,0c0.4,0,0.8,0.3,0.8,0.8
		l0,0c0,0.4-0.3,0.8-0.8,0.8l0,0C270.9,183,270.6,182.6,270.6,182.2z M270.6,179.3c0-0.4,0.3-0.8,0.8-0.8l0,0c0.4,0,0.8,0.3,0.8,0.8
		l0,0c0,0.4-0.3,0.7-0.8,0.7l0,0C270.9,180,270.6,179.7,270.6,179.3z M270.6,176.4c0-0.4,0.3-0.8,0.8-0.8l0,0c0.4,0,0.8,0.3,0.8,0.8
		l0,0c0,0.4-0.3,0.8-0.8,0.8l0,0C270.9,177.1,270.6,176.8,270.6,176.4z M270.6,173.5c0-0.4,0.3-0.8,0.8-0.8l0,0
		c0.4,0,0.8,0.3,0.8,0.8l0,0c0,0.4-0.3,0.8-0.8,0.8l0,0C270.9,174.2,270.6,173.9,270.6,173.5z M270.6,170.6c0-0.4,0.3-0.8,0.8-0.8
		l0,0c0.4,0,0.8,0.3,0.8,0.8l0,0c0,0.4-0.3,0.8-0.8,0.8l0,0C270.9,171.3,270.6,171,270.6,170.6z M270.6,167.7c0-0.4,0.3-0.8,0.8-0.8
		l0,0c0.4,0,0.8,0.3,0.8,0.8l0,0c0,0.4-0.3,0.8-0.8,0.8l0,0C270.9,168.4,270.6,168.1,270.6,167.7z M270.6,164.8
		c0-0.4,0.3-0.8,0.8-0.8l0,0c0.4,0,0.8,0.3,0.8,0.8l0,0c0,0.4-0.3,0.8-0.8,0.8l0,0C270.9,165.5,270.6,165.2,270.6,164.8z
		 M270.6,161.8c0-0.4,0.3-0.8,0.8-0.8l0,0c0.4,0,0.8,0.3,0.8,0.8l0,0c0,0.4-0.3,0.8-0.8,0.8l0,0
		C270.9,162.6,270.6,162.2,270.6,161.8z M270.6,158.9c0-0.4,0.3-0.8,0.8-0.8l0,0c0.4,0,0.8,0.3,0.8,0.8l0,0c0,0.4-0.3,0.8-0.8,0.8
		l0,0C270.9,159.7,270.6,159.3,270.6,158.9z M270.6,156c0-0.4,0.3-0.8,0.8-0.8l0,0c0.4,0,0.8,0.3,0.8,0.8l0,0c0,0.4-0.3,0.8-0.8,0.8
		l0,0C270.9,156.8,270.6,156.4,270.6,156z M270.6,153.1c0-0.4,0.3-0.8,0.8-0.8l0,0c0.4,0,0.8,0.3,0.8,0.8l0,0c0,0.4-0.3,0.8-0.8,0.8
		l0,0C270.9,153.9,270.6,153.5,270.6,153.1z"/>
</g>
<g id="onboarding_slide_2_encrypted_hello_4">
	<g>
		<path fill="#FFCC4D" d="M287.5,220.7c0,9.4-7.6,17-17,17c-9.4,0-17-7.6-17-17c0-9.4,7.6-17,17-17
			C279.9,203.7,287.5,211.3,287.5,220.7"/>
		<ellipse fill="#664500" cx="270.5" cy="229.7" rx="5" ry="6"/>
		<path fill="#664500" d="M258.5,213.7c-0.2,0-0.4-0.1-0.6-0.2c-0.4-0.3-0.5-1-0.2-1.4c3.3-4.4,7.6-4.4,7.8-4.4c0.6,0,1,0.4,1,1
			c0,0.6-0.4,1-1,1c-0.2,0-3.6,0.1-6.2,3.6C259.1,213.5,258.8,213.7,258.5,213.7z"/>
		<path fill="#664500" d="M282.5,213.7c-0.3,0-0.6-0.1-0.8-0.4c-2.6-3.5-6.1-3.6-6.2-3.6c-0.5,0-1-0.5-1-1c0-0.6,0.4-1,1-1
			c0.2,0,4.5,0,7.8,4.4c0.3,0.4,0.2,1.1-0.2,1.4C282.9,213.6,282.7,213.7,282.5,213.7z"/>
		<path fill="#664500" d="M266.4,218.2l1.8-1.8c0.4-0.4,0.4-1,0-1.4c-0.4-0.4-1-0.4-1.4,0l-1.8,1.8l-1.8-1.8c-0.4-0.4-1-0.4-1.4,0
			c-0.4,0.4-0.4,1,0,1.4l1.8,1.8l-1.8,1.8c-0.4,0.4-0.4,1,0,1.4c0.2,0.2,0.5,0.3,0.7,0.3s0.5-0.1,0.7-0.3l1.8-1.8l1.8,1.8
			c0.2,0.2,0.5,0.3,0.7,0.3s0.5-0.1,0.7-0.3c0.4-0.4,0.4-1,0-1.4L266.4,218.2z"/>
		<path fill="#664500" d="M277.4,218.2l1.8-1.8c0.4-0.4,0.4-1,0-1.4c-0.4-0.4-1-0.4-1.4,0l-1.8,1.8l-1.8-1.8c-0.4-0.4-1-0.4-1.4,0
			c-0.4,0.4-0.4,1,0,1.4l1.8,1.8l-1.8,1.8c-0.4,0.4-0.4,1,0,1.4c0.2,0.2,0.5,0.3,0.7,0.3s0.5-0.1,0.7-0.3l1.8-1.8l1.8,1.8
			c0.2,0.2,0.5,0.3,0.7,0.3s0.5-0.1,0.7-0.3c0.4-0.4,0.4-1,0-1.4L277.4,218.2z"/>
	</g>
	<g>
		<path fill="#553788" d="M206,214.8c3,5,0,10.7-3,9.7s-4,2-1,3s9.5-0.5,13-4c1-1,2-1,2-1L206,214.8z"/>
		<path fill="#553788" d="M222,214.8c-3,5,0,10.7,3,9.7s4,2,1,3s-9.5-0.5-13-4c-1-1-2-1-2-1L222,214.8z"/>
		<path fill="#744EAA" d="M226.2,218.8c-3,5,0,10.7,3,9.7s4,2,1,3s-9.5-0.5-13-4c-1-1-2-1-2-1L226.2,218.8z"/>
		<path fill="#744EAA" d="M201.8,218.8c3,5,0,10.7-3,9.7s-4,2-1,3s9.5-0.5,13-4c1-1,2-1,2-1L201.8,218.8z"/>
		<path fill="#9266CC" d="M229.2,234.2c-2.7,0.9-6.4-5.6-4.8-10.6c1.6-3.2,2.6-6.9,2.6-9.8c0-7.2-5.8-11-13-11s-13,3.8-13,11
			c0,2.9,1,6.6,2.6,9.8c1.6,5-2.1,11.5-4.8,10.6c-3-1-4,3-1,4s8.3-0.6,12-4c2.2-2,4.2-2,4.2-2s2,0,4.2,2c3.7,3.4,9,5,12,4
			S232.2,233.2,229.2,234.2z"/>
		<circle fill="#292F33" cx="210" cy="223.8" r="2"/>
		<circle fill="#292F33" cx="218" cy="223.8" r="2"/>
	</g>
	<g>
		<path fill="#553788" d="M149.4,214.8c3,5,0,10.7-3,9.7s-4,2-1,3s9.5-0.5,13-4c1-1,2-1,2-1L149.4,214.8z"/>
		<path fill="#553788" d="M165.4,214.8c-3,5,0,10.7,3,9.7s4,2,1,3s-9.5-0.5-13-4c-1-1-2-1-2-1L165.4,214.8z"/>
		<path fill="#744EAA" d="M169.6,218.8c-3,5,0,10.7,3,9.7s4,2,1,3s-9.5-0.5-13-4c-1-1-2-1-2-1L169.6,218.8z"/>
		<path fill="#744EAA" d="M145.2,218.8c3,5,0,10.7-3,9.7s-4,2-1,3s9.5-0.5,13-4c1-1,2-1,2-1L145.2,218.8z"/>
		<path fill="#9266CC" d="M172.6,234.2c-2.7,0.9-6.4-5.6-4.8-10.6c1.6-3.2,2.6-6.9,2.6-9.8c0-7.2-5.8-11-13-11s-13,3.8-13,11
			c0,2.9,1,6.6,2.6,9.8c1.6,5-2.1,11.5-4.8,10.6c-3-1-4,3-1,4s8.3-0.6,12-4c2.2-2,4.2-2,4.2-2s2,0,4.2,2c3.7,3.4,9,5,12,4
			S175.6,233.2,172.6,234.2z"/>
		<circle fill="#292F33" cx="153.4" cy="223.8" r="2"/>
		<circle fill="#292F33" cx="161.4" cy="223.8" r="2"/>
	</g>
	<g>
		<path fill="#FDD888" d="M114.8,226.6c-0.6-6.6-3.9-9.9-3.9-9.9l-6-8h-1h-3h-3h-1l-6,8c0,0-1.4,1.4-2.6,4.3c-2,0.7-3.4,2.5-3.4,4.7
			c0,1.4,0.6,2.7,1.6,3.7c-0.4,0.7-0.6,1.5-0.6,2.3c0,2,1.1,3.6,2.8,4.5c1.3,1.9,3,2.5,4.2,2.5h16c1.4,0,3.4-0.8,4.7-3.3
			c1.9-0.7,3.3-2.5,3.3-4.7C116.9,229,116.1,227.5,114.8,226.6z"/>
		<path fill="#FDD888" d="M100.9,208.7c0.5,0,1.1-0.2,1.5-0.4c0.4,0.3,1,0.4,1.5,0.4c1.7,0,4-2.3,4-4c0,0,0-2-2-2c-0.8,0-1,1-2,1
			s-1-1-3-1s-2,1-3,1s-1.2-1-2-1c-2,0-2,2-2,2c0,1.7,2.3,4,4,4c0.5,0,1.1-0.2,1.5-0.4C99.8,208.5,100.4,208.7,100.9,208.7z"/>
		<path fill="#BF6952" d="M106.9,208.7c0,0.6-0.4,1-1,1h-10c-0.6,0-1-0.4-1-1l0,0c0-0.6,0.4-1,1-1h10
			C106.5,207.7,106.9,208.1,106.9,208.7L106.9,208.7z"/>
		<path fill="#67757F" d="M106.8,227.2c0-4.5-8.6-4.2-8.6-6.9c0-1.3,1.3-1.9,2.8-1.9c2.5,0,3,1.6,4.1,1.6c0.8,0,1.2-0.5,1.2-1
			c0-1.3-2-2.3-4-2.6v-1.2c0-0.8-0.7-1.4-1.5-1.4c-0.8,0-1.5,0.6-1.5,1.4v1.3c-2.1,0.5-3.9,1.9-3.9,4.2c0,4.3,8.6,4.1,8.6,7.1
			c0,1-1.2,2.1-3.1,2.1c-2.9,0-3.9-1.9-5-1.9c-0.6,0-1.1,0.5-1.1,1.2c0,1.1,1.9,2.5,4.6,2.8c0,0,0,0,0,0v1.4c0,0.8,0.7,1.4,1.5,1.4
			c0.8,0,1.5-0.6,1.5-1.4v-1.4c0,0,0,0,0,0C104.8,231.4,106.8,229.9,106.8,227.2z"/>
	</g>
	<g>
		<path fill="#3E721D" d="M54.2,229.6c-8,0-8.2,6-8.2,6V224h-4v11.6c0,0,0.2-6-7.8-6c-4,0-6.9-2.3-6.9-2.3s0.1,8.7,9.1,8.7
			c4,0,6,0,6,0s0,2,2,2s2-2,2-2s2,0,6,0c9,0,8.9-8.7,8.9-8.7S58.2,229.6,54.2,229.6z"/>
		<path fill="#FFAC33" d="M47.6,230.3c-0.3,0-0.7-0.1-0.9-0.3l-2.3-1.6l-2.3,1.6c-0.3,0.2-0.6,0.3-0.9,0.3c-0.1,0-0.3,0-0.4-0.1
			c-0.5-0.1-0.9-0.4-1.1-0.9l-1.2-2.5l-2.8,0.2c0,0-0.1,0-0.1,0c-0.4,0-0.9-0.2-1.2-0.5c-0.3-0.3-0.5-0.8-0.5-1.3l0.2-2.8l-2.5-1.2
			c-0.4-0.2-0.8-0.6-0.9-1.1c-0.1-0.5,0-1,0.2-1.4l1.6-2.3l-1.6-2.3c-0.3-0.4-0.4-0.9-0.2-1.4c0.1-0.5,0.4-0.9,0.9-1.1l2.5-1.2
			l-0.2-2.8c0-0.5,0.1-1,0.5-1.3c0.3-0.3,0.7-0.5,1.2-0.5c0,0,0.1,0,0.1,0l2.8,0.2l1.2-2.5c0.2-0.4,0.6-0.8,1.1-0.9
			c0.1,0,0.3-0.1,0.4-0.1c0.3,0,0.7,0.1,0.9,0.3l2.3,1.6l2.3-1.6c0.3-0.2,0.6-0.3,0.9-0.3c0.1,0,0.3,0,0.4,0.1
			c0.5,0.1,0.9,0.4,1.1,0.9l1.2,2.5l2.8-0.2c0,0,0.1,0,0.1,0c0.4,0,0.9,0.2,1.2,0.5c0.3,0.3,0.5,0.8,0.5,1.3l-0.2,2.8l2.5,1.2
			c0.4,0.2,0.8,0.6,0.9,1.1c0.1,0.5,0,1-0.2,1.4l-1.6,2.3l1.6,2.3c0.3,0.4,0.4,0.9,0.2,1.4c-0.1,0.5-0.4,0.9-0.9,1.1l-2.5,1.2
			l0.2,2.8c0,0.5-0.1,0.9-0.5,1.3c-0.3,0.3-0.7,0.5-1.2,0.5c0,0-0.1,0-0.1,0l-2.8-0.2l-1.2,2.5c-0.2,0.4-0.6,0.8-1.1,0.9
			C47.9,230.3,47.8,230.3,47.6,230.3z"/>
		<circle fill="#732700" cx="44.5" cy="216.6" r="7"/>
	</g>
</g>
<g id="onboarding_slide_2_encrypted_hello_2">
	<g>
		<path fill="#E1E8ED" d="M288.5,213.8c0-1.1-0.9-2-2-2s-2,0.9-2,2c0,0,0,3.3-3,3.9v-2.9c0-6.1-4.9-11-11-11s-11,4.9-11,11v3.2
			c-5.2,1.6-7,8-7,11.8c0,1.1,0.9,2,2,2s2-0.9,2-2c0,0,0-3.5,3.3-4c0.5,4.8,1.6,10,3.7,10c0.3,0,0.6,0,1,0c4,0,3,2,7,2s3-2,6-2
			s2.4,2,6,2c1.7,0,3-1.3,3-3c0-0.7-2.3-5-3.8-9.3C288.5,224.2,288.5,217.4,288.5,213.8z"/>
		<circle fill="#292F33" cx="265.5" cy="214.8" r="2"/>
		<circle fill="#292F33" cx="275.5" cy="214.8" r="4"/>
		<circle fill="#9AAAB4" cx="275.5" cy="215.8" r="2"/>
		
			<ellipse transform="matrix(0.6001 -0.7999 0.7999 0.6001 -71.9371 307.9265)" fill="#292F33" cx="272" cy="225.9" rx="4.5" ry="6"/>
	</g>
	<g>
		<path fill="#99AAB5" d="M222.9,236c0,2.2-1.8,3-4,3h-10c-2.2,0-4-0.8-4-3l0,0c0-2.2,3-7,3-13s12-6,12,0S222.9,233.8,222.9,236
			L222.9,236z"/>
		<g>
			<defs>
				<path id="SVGID_1_" d="M213.9,202.5c-9.9,0-18,8.2-18,18.2c0,2.2,1.8,4.2,4,4.2h28c2.2,0,4-2,4-4.2
					C231.9,210.8,223.8,202.5,213.9,202.5z"/>
			</defs>
			<clipPath id="SVGID_2_">
				<use xlink:href="#SVGID_1_"  overflow="visible"/>
			</clipPath>
			<path clip-path="url(#SVGID_2_)" fill="#DD2E44" d="M213.9,201.9c-10.5,0-19,8.9-19,19.4c0,2.3,1.9,4.7,4.2,4.7h29.6
				c2.3,0,4.2-2.3,4.2-4.7C232.9,210.8,224.4,201.9,213.9,201.9z"/>
			<g clip-path="url(#SVGID_2_)">
				<path fill="#F4ABBA" d="M203.6,219c-3.4,0-6.2-2.8-6.2-6.2s2.8-6.2,6.2-6.2s6.2,2.8,6.2,6.2S207,219,203.6,219z"/>
				<path fill="#F4ABBA" d="M203.6,206.8c3.3,0,6,2.7,6,6c0,3.3-2.7,6-6,6s-6-2.7-6-6C197.5,209.5,200.3,206.8,203.6,206.8
					 M203.6,206.5c-3.5,0-6.3,2.8-6.3,6.3c0,3.5,2.8,6.3,6.3,6.3c3.5,0,6.3-2.8,6.3-6.3C209.9,209.3,207.1,206.5,203.6,206.5
					L203.6,206.5z"/>
			</g>
			<path clip-path="url(#SVGID_2_)" fill="#F4ABBA" d="M230.5,213.7c-1-2.4-2.4-4.5-4.2-6.2c-2.5,0-4.5,2-4.5,4.5
				c0,2.5,2,4.5,4.5,4.5C228.3,216.5,229.9,215.4,230.5,213.7z"/>
			<circle clip-path="url(#SVGID_2_)" fill="#F4ABBA" cx="217.4" cy="218.5" r="4.5"/>
			<circle clip-path="url(#SVGID_2_)" fill="#F4ABBA" cx="215.9" cy="207.5" r="3"/>
		</g>
	</g>
	<g>
		<path fill="#99AAB5" d="M166.2,236c0,2.2-1.8,3-4,3h-10c-2.2,0-4-0.8-4-3l0,0c0-2.2,3-7,3-13s12-6,12,0S166.2,233.8,166.2,236
			L166.2,236z"/>
		<g>
			<defs>
				<path id="SVGID_3_" d="M157.2,202.8c-9.9,0-18,8.1-18,18.1c0,2.2,1.8,4.1,4,4.1h28c2.2,0,4-1.9,4-4.1
					C175.2,210.9,167.2,202.8,157.2,202.8z"/>
			</defs>
			<clipPath id="SVGID_4_">
				<use xlink:href="#SVGID_3_"  overflow="visible"/>
			</clipPath>
			<path clip-path="url(#SVGID_4_)" fill="#DD2E44" d="M157.2,202.2c-10.5,0-19,8.7-19,19.3c0,2.3,1.9,4.5,4.2,4.5H172
				c2.3,0,4.2-2.2,4.2-4.5C176.2,210.9,167.7,202.2,157.2,202.2z"/>
			<g clip-path="url(#SVGID_4_)">
				<path fill="#F4ABBA" d="M147,219.3c-3.4,0-6.2-2.8-6.2-6.2s2.8-6.2,6.2-6.2s6.2,2.8,6.2,6.2S150.4,219.3,147,219.3z"/>
				<path fill="#F4ABBA" d="M147,207.1c3.3,0,6,2.7,6,6c0,3.3-2.7,6-6,6s-6-2.7-6-6C140.9,209.8,143.6,207.1,147,207.1 M147,206.8
					c-3.5,0-6.3,2.8-6.3,6.3s2.8,6.3,6.3,6.3c3.5,0,6.3-2.8,6.3-6.3S150.4,206.8,147,206.8L147,206.8z"/>
			</g>
			<path clip-path="url(#SVGID_4_)" fill="#F4ABBA" d="M173.9,214c-1-2.4-2.4-4.5-4.2-6.2c-2.5,0-4.5,2-4.5,4.5c0,2.5,2,4.5,4.5,4.5
				C171.6,216.8,173.2,215.7,173.9,214z"/>
			<circle clip-path="url(#SVGID_4_)" fill="#F4ABBA" cx="160.8" cy="218.8" r="4.5"/>
			<circle clip-path="url(#SVGID_4_)" fill="#F4ABBA" cx="159.2" cy="207.8" r="3"/>
		</g>
	</g>
	<g>
		<path fill="#FFCC4D" d="M111.5,220.5c-1,1-1.6,3.1-1.4,4.5l0.9,6.4c0.2,1.4-0.7,2.1-2,1.5l-5.9-2.8c-1.3-0.6-3.4-0.6-4.7,0
			l-5.8,2.8c-1.3,0.6-2.2,0-2-1.5l0.8-6.4c0.2-1.4-0.5-3.4-1.5-4.5l-4.5-4.7c-1-1-0.7-2.1,0.8-2.4l6.4-1.2c1.4-0.3,3.1-1.5,3.8-2.8
			l3.1-5.7c0.7-1.3,1.8-1.3,2.5,0l3.1,5.7c0.7,1.3,2.4,2.5,3.8,2.8l6.4,1.1c1.4,0.3,1.8,1.3,0.8,2.4L111.5,220.5z"/>
		<path fill="#FFD983" d="M92.4,205c1,1.4,2.4,4.9,1.7,5.4c-0.7,0.5-3.6-1.9-4.6-3.3c-1-1.4-0.9-2.7-0.1-3.3
			C90.2,203.3,91.4,203.6,92.4,205z"/>
		<path fill="#FFD983" d="M111.8,207.1c-1,1.4-3.9,3.9-4.6,3.3c-0.7-0.5,0.7-4,1.7-5.4c1-1.4,2.2-1.7,3-1.1
			C112.7,204.5,112.8,205.7,111.8,207.1z"/>
		<path fill="#FFD983" d="M99.2,236.1c0-1.7,0.9-5.4,1.8-5.4c0.9,0,1.8,3.7,1.8,5.4c0,1.7-0.8,2.7-1.8,2.7
			C100.1,238.8,99.2,237.9,99.2,236.1z"/>
		<path fill="#FFD983" d="M115.4,226.8c-1.7-0.5-4.9-2.5-4.6-3.4c0.3-0.9,4-0.6,5.7,0c1.7,0.5,2.3,1.6,2,2.6
			C118.2,226.9,117.1,227.4,115.4,226.8z"/>
		<path fill="#FFD983" d="M84.7,223.4c1.7-0.5,5.4-0.8,5.7,0c0.3,0.9-2.9,2.9-4.6,3.4c-1.7,0.5-2.8,0.1-3.1-0.9
			C82.4,225,83.1,224,84.7,223.4z"/>
	</g>
	<g>
		<path fill="#66757F" d="M60,236c0,1.1-0.9,2-2,2h-3c-1.1,0-2-0.9-2-2v-8c0-1.1,0.9-2,2-2h3c1.1,0,2,0.9,2,2V236z"/>
		<path fill="#66757F" d="M35,236c0,1.1-0.9,2-2,2h-3c-1.1,0-2-0.9-2-2v-8c0-1.1,0.9-2,2-2h3c1.1,0,2,0.9,2,2V236z"/>
		<path fill="#66757F" d="M31,218.5c0,0.8-0.7,1.5-1.5,1.5h-2c-0.8,0-1.5-0.7-1.5-1.5l0,0c0-0.8,0.7-1.5,1.5-1.5h2
			C30.3,217,31,217.7,31,218.5L31,218.5z"/>
		<path fill="#66757F" d="M62,218.5c0-0.8-0.7-1.5-1.5-1.5h-2c-0.8,0-1.5,0.7-1.5,1.5l0,0c0,0.8,0.7,1.5,1.5,1.5h2
			C61.3,220,62,219.3,62,218.5L62,218.5z"/>
		<path fill="#CCD6DD" d="M35.5,207.3c4-1,14-1,18,0c3.9,1,4.8,11,4.8,11s1.8,0,1.8,4s0,8,0,8s0.2,3-2.8,4c-3.9,1.3-7.9,1-12.9,1
			s-9.3,0.3-13.2-1c-3-1-3.2-4-3.2-4v-8c0,0,0.2-4,2.2-4C30.2,218.3,31.6,208.3,35.5,207.3z"/>
		<path fill="#292F33" d="M44,223.3c-5.7,0-11-0.1-16-0.3v7.3c0,0,0.2,3,3.2,4c3.9,1.3,8.1,1,13.1,1s8.9,0.3,12.8-1c3-1,2.8-4,2.8-4
			s0-3.5,0-7.3C56,223.2,49.7,223.3,44,223.3z"/>
		<path fill="#55ACEE" d="M44.5,217.3c3.9,0,8.6,0.2,12,0.6l-1-5.6c-1-3-7-3-11-3s-10,0-11,3l-1,5.6
			C35.9,217.5,40.6,217.3,44.5,217.3z"/>
		<path fill="#CCD6DD" d="M38,227c0,1.1-0.9,2-2,2h-4c-1.1,0-2-0.9-2-2l0,0c0-1.1,0.9-2,2-2h4C37.1,225,38,225.9,38,227L38,227z"/>
		<path fill="#CCD6DD" d="M58,227c0-1.1-0.9-2-2-2h-4c-1.1,0-2,0.9-2,2l0,0c0,1.1,0.9,2,2,2h4C57.1,229,58,228.1,58,227L58,227z"/>
		<path fill="#66757F" d="M55,231.5c0,0.8-0.7,1.5-1.5,1.5h-19c-0.8,0-1.5-0.7-1.5-1.5l0,0c0-0.8,0.7-1.5,1.5-1.5h19
			C54.3,230,55,230.7,55,231.5L55,231.5z"/>
		<path fill="#99AAB5" d="M38.5,223.3c-0.1,0-0.3,0-0.4-0.1l-6-3c-0.5-0.2-0.7-0.8-0.4-1.3c0.2-0.5,0.8-0.7,1.3-0.4l6,3
			c0.5,0.2,0.7,0.8,0.4,1.3C39.2,223.1,38.9,223.3,38.5,223.3z"/>
		<path fill="#99AAB5" d="M50.5,223.3c-0.4,0-0.7-0.2-0.9-0.6c-0.2-0.5,0-1.1,0.4-1.3l6-3c0.5-0.2,1.1,0,1.3,0.4
			c0.2,0.5,0,1.1-0.4,1.3l-6,3C50.8,223.3,50.7,223.3,50.5,223.3z"/>
		<path fill="#DD2E44" d="M44,206.5c0,0.8-0.7,1.5-1.5,1.5h-7c-0.8,0-1.5-0.7-1.5-1.5l0,0c0-0.8,0.7-1.5,1.5-1.5h7
			C43.3,205,44,205.7,44,206.5L44,206.5z"/>
		<path fill="#55ACEE" d="M54,206.5c0,0.8-0.7,1.5-1.5,1.5h-7c-0.8,0-1.5-0.7-1.5-1.5l0,0c0-0.8,0.7-1.5,1.5-1.5h7
			C53.3,205,54,205.7,54,206.5L54,206.5z"/>
		<rect x="42" y="205" fill="#F5F8FA" width="4" height="3"/>
	</g>
</g>
<g id="onboarding_slide_2_encrypted_hello">
	<g>
		<path fill="#C6E5B3" d="M288.5,224.2c0,7.5-8.1,12-18,12c-9.9,0-18-4.5-18-12c0-7.5,8.1-15,18-15
			C280.4,209.2,288.5,216.7,288.5,224.2z"/>
		<path fill="#77B255" d="M284.3,214.9c1.4-1.1,2.2-2.8,2.2-4.7c0-3.3-2.7-6-6-6c-2.9,0-5.2,2-5.9,4.7c-1.3-0.5-2.7-0.8-4.1-0.8
			c-1.5,0-2.9,0.3-4.1,0.8c-0.6-2.7-3-4.7-5.9-4.7c-3.3,0-6,2.7-6,6c0,1.9,0.9,3.6,2.2,4.7c-2.6,2.7-4.2,6-4.2,9.3c0,7.5,8.1,1,18,1
			c9.9,0,18,6.5,18-1C288.5,220.9,286.9,217.5,284.3,214.9z"/>
		<circle fill="#FFFFFF" cx="260" cy="209.7" r="3.5"/>
		<circle fill="#292F33" cx="260" cy="209.7" r="1.5"/>
		<circle fill="#FFFFFF" cx="281" cy="209.7" r="3.5"/>
		<circle fill="#292F33" cx="281" cy="209.7" r="1.5"/>
		<circle fill="#5C913B" cx="266.5" cy="222.2" r="1"/>
		<circle fill="#5C913B" cx="274.5" cy="222.2" r="1"/>
	</g>
	<g>
		<path fill="#292F33" d="M230.6,232c0,0,1.2,0.5,1.2,1.5c0,1-1,1.5-2.1,1.5c-1,0-15.6,0-17.7,0c-2.1,0-2.1-3.6-5.2-9.8
			c-3.1-6.3-6.3-1.9-6.3-1.9l-1,12.7H197c0,0,0-12.4,0-14.4c0-2.1-0.8-4.3-0.8-5.2c0-2.1,0.7-4.4,0.7-4.4l6.8,2.3L230.6,232z"/>
		<path fill="#9266CC" d="M197.7,213.8c3,0.7,10.3,4.1,14,17.6c0,0,0,1.6,2.4,1.6c2.4,0,16.5,0,16.5,0s1.2-0.5,1.2-2.7
			c0-1.1-5.9-3.5-8.3-4.6c-2.4-1.1-4.4-4.4-4.4-4.4s-4.2,1.6-11.3-6c-7.1-7.6-4.4-10.5-6.7-10.5c-0.5,0-3.7,3.3-4.5,7
			C196.4,212.5,196.9,213.6,197.7,213.8z"/>
	</g>
	<g>
		<path fill="#292F33" d="M174.1,232c0,0,1.2,0.5,1.2,1.5c0,1-1,1.5-2.1,1.5c-1,0-15.6,0-17.7,0c-2.1,0-2.1-3.6-5.2-9.8
			c-3.1-6.3-6.3-1.9-6.3-1.9l-1,12.7h-2c0,0,0-12.4,0-14.4c0-2.1-1.1-4.3-1.1-5.2c0-2.1,0.6-4.4,0.6-4.4l6.7,2.3L174.1,232z"/>
		<path fill="#9266CC" d="M141.2,213.8c3,0.7,10.3,4.1,14,17.6c0,0,0,1.6,2.4,1.6c2.4,0,16.5,0,16.5,0s1.2-0.5,1.2-2.7
			c0-1.1-5.9-3.5-8.3-4.6c-2.4-1.1-4.4-4.4-4.4-4.4s-4.2,1.6-11.3-6c-7.1-7.6-4.4-10.5-6.7-10.5c-0.5,0-3.7,3.3-4.5,7
			C139.9,212.5,140.4,213.6,141.2,213.8z"/>
	</g>
	<g>
		<path fill="#8899A6" d="M119,220.7c0,9.9-8.1,18-18,18c-9.9,0-18-8.1-18-18c0-9.9,8.1-18,18-18C110.9,202.7,119,210.7,119,220.7z
			 M101,217.7c-1.7,0-3,1.3-3,3c0,1.7,1.3,3,3,3c1.7,0,3-1.3,3-3C104,219,102.7,217.7,101,217.7z"/>
		<g>
			<defs>
				<path id="SVGID_5_" d="M117,220.7c0,8.8-7.2,16-16,16c-8.8,0-16-7.2-16-16c0-8.8,7.2-16,16-16C109.8,204.7,117,211.8,117,220.7z
					 M101,215.9c-2.6,0-4.8,2.1-4.8,4.8c0,2.6,2.1,4.8,4.8,4.8c2.6,0,4.8-2.1,4.8-4.8C105.8,218,103.6,215.9,101,215.9z"/>
			</defs>
			<clipPath id="SVGID_6_">
				<use xlink:href="#SVGID_5_"  overflow="visible"/>
			</clipPath>
			<polygon clip-path="url(#SVGID_6_)" fill="#CCD6DD" points="101,220.8 83,218.7 83,203 99,203 			"/>
			<polygon clip-path="url(#SVGID_6_)" fill="#CCD6DD" points="101,220.8 119,222.7 119,239 103,239 			"/>
			<polygon clip-path="url(#SVGID_6_)" fill="#F5F8FA" points="101,220.7 103.1,239.7 119,238.7 			"/>
			<polygon clip-path="url(#SVGID_6_)" fill="#F5F8FA" points="101,220.7 83,202.7 99,201.7 			"/>
		</g>
	</g>
	<g>
		<path fill="#E75A70" d="M51.3,221.9c0-3.8-3-6.8-6.8-6.8c-2.3,0-4.3,1.1-5.5,2.8c-1.2-1.7-3.2-2.8-5.5-2.8c-3.8,0-6.8,3-6.8,6.8
			c0,0.5,0.1,1,0.2,1.5c0.9,5.9,7.5,12.1,12.1,13.8c4.7-1.7,11.2-7.9,12.1-13.8C51.2,223,51.3,222.4,51.3,221.9z"/>
		<path fill="#E75A70" d="M62.4,207.9c0-2.6-2.1-4.7-4.7-4.7c-1.6,0-3,0.8-3.8,2c-0.9-1.2-2.2-2-3.8-2c-2.6,0-4.7,2.1-4.7,4.7
			c0,0.4,0,0.7,0.1,1.1c0.7,4.1,5.2,8.4,8.4,9.5c3.2-1.2,7.8-5.5,8.4-9.5C62.3,208.6,62.4,208.3,62.4,207.9z"/>
	</g>
</g>
<g id="onboarding_slide_2_encrypted_hello_3">
	<g>
		<path fill="#FFCC4D" d="M287.5,220.7c0,9.4-7.6,17-17,17c-9.4,0-17-7.6-17-17c0-9.4,7.6-17,17-17
			C279.9,203.7,287.5,211.3,287.5,220.7"/>
		<ellipse fill="#664500" cx="270.5" cy="229.7" rx="5" ry="6"/>
		<path fill="#664500" d="M258.5,213.7c-0.2,0-0.4-0.1-0.6-0.2c-0.4-0.3-0.5-1-0.2-1.4c3.3-4.4,7.6-4.4,7.8-4.4c0.6,0,1,0.4,1,1
			c0,0.6-0.4,1-1,1c-0.2,0-3.6,0.1-6.2,3.6C259.1,213.5,258.8,213.7,258.5,213.7z"/>
		<path fill="#664500" d="M282.5,213.7c-0.3,0-0.6-0.1-0.8-0.4c-2.6-3.5-6.1-3.6-6.2-3.6c-0.5,0-1-0.5-1-1c0-0.6,0.4-1,1-1
			c0.2,0,4.5,0,7.8,4.4c0.3,0.4,0.2,1.1-0.2,1.4C282.9,213.6,282.7,213.7,282.5,213.7z"/>
		<path fill="#664500" d="M266.4,218.2l1.8-1.8c0.4-0.4,0.4-1,0-1.4c-0.4-0.4-1-0.4-1.4,0l-1.8,1.8l-1.8-1.8c-0.4-0.4-1-0.4-1.4,0
			c-0.4,0.4-0.4,1,0,1.4l1.8,1.8l-1.8,1.8c-0.4,0.4-0.4,1,0,1.4c0.2,0.2,0.5,0.3,0.7,0.3s0.5-0.1,0.7-0.3l1.8-1.8l1.8,1.8
			c0.2,0.2,0.5,0.3,0.7,0.3s0.5-0.1,0.7-0.3c0.4-0.4,0.4-1,0-1.4L266.4,218.2z"/>
		<path fill="#664500" d="M277.4,218.2l1.8-1.8c0.4-0.4,0.4-1,0-1.4c-0.4-0.4-1-0.4-1.4,0l-1.8,1.8l-1.8-1.8c-0.4-0.4-1-0.4-1.4,0
			c-0.4,0.4-0.4,1,0,1.4l1.8,1.8l-1.8,1.8c-0.4,0.4-0.4,1,0,1.4c0.2,0.2,0.5,0.3,0.7,0.3s0.5-0.1,0.7-0.3l1.8-1.8l1.8,1.8
			c0.2,0.2,0.5,0.3,0.7,0.3s0.5-0.1,0.7-0.3c0.4-0.4,0.4-1,0-1.4L277.4,218.2z"/>
	</g>
	<g>
		<path fill="#553788" d="M206,214.8c3,5,0,10.7-3,9.7s-4,2-1,3s9.5-0.5,13-4c1-1,2-1,2-1L206,214.8z"/>
		<path fill="#553788" d="M222,214.8c-3,5,0,10.7,3,9.7s4,2,1,3s-9.5-0.5-13-4c-1-1-2-1-2-1L222,214.8z"/>
		<path fill="#744EAA" d="M226.2,218.8c-3,5,0,10.7,3,9.7s4,2,1,3s-9.5-0.5-13-4c-1-1-2-1-2-1L226.2,218.8z"/>
		<path fill="#744EAA" d="M201.8,218.8c3,5,0,10.7-3,9.7s-4,2-1,3s9.5-0.5,13-4c1-1,2-1,2-1L201.8,218.8z"/>
		<path fill="#9266CC" d="M229.2,234.2c-2.7,0.9-6.4-5.6-4.8-10.6c1.6-3.2,2.6-6.9,2.6-9.8c0-7.2-5.8-11-13-11s-13,3.8-13,11
			c0,2.9,1,6.6,2.6,9.8c1.6,5-2.1,11.5-4.8,10.6c-3-1-4,3-1,4s8.3-0.6,12-4c2.2-2,4.2-2,4.2-2s2,0,4.2,2c3.7,3.4,9,5,12,4
			S232.2,233.2,229.2,234.2z"/>
		<circle fill="#292F33" cx="210" cy="223.8" r="2"/>
		<circle fill="#292F33" cx="218" cy="223.8" r="2"/>
	</g>
	<g>
		<path fill="#553788" d="M149.4,214.8c3,5,0,10.7-3,9.7s-4,2-1,3s9.5-0.5,13-4c1-1,2-1,2-1L149.4,214.8z"/>
		<path fill="#553788" d="M165.4,214.8c-3,5,0,10.7,3,9.7s4,2,1,3s-9.5-0.5-13-4c-1-1-2-1-2-1L165.4,214.8z"/>
		<path fill="#744EAA" d="M169.6,218.8c-3,5,0,10.7,3,9.7s4,2,1,3s-9.5-0.5-13-4c-1-1-2-1-2-1L169.6,218.8z"/>
		<path fill="#744EAA" d="M145.2,218.8c3,5,0,10.7-3,9.7s-4,2-1,3s9.5-0.5,13-4c1-1,2-1,2-1L145.2,218.8z"/>
		<path fill="#9266CC" d="M172.6,234.2c-2.7,0.9-6.4-5.6-4.8-10.6c1.6-3.2,2.6-6.9,2.6-9.8c0-7.2-5.8-11-13-11s-13,3.8-13,11
			c0,2.9,1,6.6,2.6,9.8c1.6,5-2.1,11.5-4.8,10.6c-3-1-4,3-1,4s8.3-0.6,12-4c2.2-2,4.2-2,4.2-2s2,0,4.2,2c3.7,3.4,9,5,12,4
			S175.6,233.2,172.6,234.2z"/>
		<circle fill="#292F33" cx="153.4" cy="223.8" r="2"/>
		<circle fill="#292F33" cx="161.4" cy="223.8" r="2"/>
	</g>
	<g>
		<path fill="#FDD888" d="M114.8,226.6c-0.6-6.6-3.9-9.9-3.9-9.9l-6-8h-1h-3h-3h-1l-6,8c0,0-1.4,1.4-2.6,4.3c-2,0.7-3.4,2.5-3.4,4.7
			c0,1.4,0.6,2.7,1.6,3.7c-0.4,0.7-0.6,1.5-0.6,2.3c0,2,1.1,3.6,2.8,4.5c1.3,1.9,3,2.5,4.2,2.5h16c1.4,0,3.4-0.8,4.7-3.3
			c1.9-0.7,3.3-2.5,3.3-4.7C116.9,229,116.1,227.5,114.8,226.6z"/>
		<path fill="#FDD888" d="M100.9,208.7c0.5,0,1.1-0.2,1.5-0.4c0.4,0.3,1,0.4,1.5,0.4c1.7,0,4-2.3,4-4c0,0,0-2-2-2c-0.8,0-1,1-2,1
			s-1-1-3-1s-2,1-3,1s-1.2-1-2-1c-2,0-2,2-2,2c0,1.7,2.3,4,4,4c0.5,0,1.1-0.2,1.5-0.4C99.8,208.5,100.4,208.7,100.9,208.7z"/>
		<path fill="#BF6952" d="M106.9,208.7c0,0.6-0.4,1-1,1h-10c-0.6,0-1-0.4-1-1l0,0c0-0.6,0.4-1,1-1h10
			C106.5,207.7,106.9,208.1,106.9,208.7L106.9,208.7z"/>
		<path fill="#67757F" d="M106.8,227.2c0-4.5-8.6-4.2-8.6-6.9c0-1.3,1.3-1.9,2.8-1.9c2.5,0,3,1.6,4.1,1.6c0.8,0,1.2-0.5,1.2-1
			c0-1.3-2-2.3-4-2.6v-1.2c0-0.8-0.7-1.4-1.5-1.4c-0.8,0-1.5,0.6-1.5,1.4v1.3c-2.1,0.5-3.9,1.9-3.9,4.2c0,4.3,8.6,4.1,8.6,7.1
			c0,1-1.2,2.1-3.1,2.1c-2.9,0-3.9-1.9-5-1.9c-0.6,0-1.1,0.5-1.1,1.2c0,1.1,1.9,2.5,4.6,2.8c0,0,0,0,0,0v1.4c0,0.8,0.7,1.4,1.5,1.4
			c0.8,0,1.5-0.6,1.5-1.4v-1.4c0,0,0,0,0,0C104.8,231.4,106.8,229.9,106.8,227.2z"/>
	</g>
	<g>
		<path fill="#3E721D" d="M54.2,229.6c-8,0-8.2,6-8.2,6V224h-4v11.6c0,0,0.2-6-7.8-6c-4,0-6.9-2.3-6.9-2.3s0.1,8.7,9.1,8.7
			c4,0,6,0,6,0s0,2,2,2s2-2,2-2s2,0,6,0c9,0,8.9-8.7,8.9-8.7S58.2,229.6,54.2,229.6z"/>
		<path fill="#FFAC33" d="M47.6,230.3c-0.3,0-0.7-0.1-0.9-0.3l-2.3-1.6l-2.3,1.6c-0.3,0.2-0.6,0.3-0.9,0.3c-0.1,0-0.3,0-0.4-0.1
			c-0.5-0.1-0.9-0.4-1.1-0.9l-1.2-2.5l-2.8,0.2c0,0-0.1,0-0.1,0c-0.4,0-0.9-0.2-1.2-0.5c-0.3-0.3-0.5-0.8-0.5-1.3l0.2-2.8l-2.5-1.2
			c-0.4-0.2-0.8-0.6-0.9-1.1c-0.1-0.5,0-1,0.2-1.4l1.6-2.3l-1.6-2.3c-0.3-0.4-0.4-0.9-0.2-1.4c0.1-0.5,0.4-0.9,0.9-1.1l2.5-1.2
			l-0.2-2.8c0-0.5,0.1-1,0.5-1.3c0.3-0.3,0.7-0.5,1.2-0.5c0,0,0.1,0,0.1,0l2.8,0.2l1.2-2.5c0.2-0.4,0.6-0.8,1.1-0.9
			c0.1,0,0.3-0.1,0.4-0.1c0.3,0,0.7,0.1,0.9,0.3l2.3,1.6l2.3-1.6c0.3-0.2,0.6-0.3,0.9-0.3c0.1,0,0.3,0,0.4,0.1
			c0.5,0.1,0.9,0.4,1.1,0.9l1.2,2.5l2.8-0.2c0,0,0.1,0,0.1,0c0.4,0,0.9,0.2,1.2,0.5c0.3,0.3,0.5,0.8,0.5,1.3l-0.2,2.8l2.5,1.2
			c0.4,0.2,0.8,0.6,0.9,1.1c0.1,0.5,0,1-0.2,1.4l-1.6,2.3l1.6,2.3c0.3,0.4,0.4,0.9,0.2,1.4c-0.1,0.5-0.4,0.9-0.9,1.1l-2.5,1.2
			l0.2,2.8c0,0.5-0.1,0.9-0.5,1.3c-0.3,0.3-0.7,0.5-1.2,0.5c0,0-0.1,0-0.1,0l-2.8-0.2l-1.2,2.5c-0.2,0.4-0.6,0.8-1.1,0.9
			C47.9,230.3,47.8,230.3,47.6,230.3z"/>
		<circle fill="#732700" cx="44.5" cy="216.6" r="7"/>
	</g>
</g>
</svg>
