<?xml version="1.0" encoding="utf-8"?>
<!-- Generator: Adobe Illustrator 18.0.0, SVG Export Plug-In . SVG Version: 6.00 Build 0)  -->
<!DOCTYPE svg PUBLIC "-//W3C//DTD SVG 1.1//EN" "http://www.w3.org/Graphics/SVG/1.1/DTD/svg11.dtd">
<svg version="1.1" id="Layer_1" xmlns="http://www.w3.org/2000/svg" xmlns:xlink="http://www.w3.org/1999/xlink" x="0px" y="0px"
	 width="393.1px" height="700px" viewBox="0 0 393.1 700" enable-background="new 0 0 393.1 700" xml:space="preserve">
<polyline fill="#283344" points="0,700 0,0 393.1,0 393.1,700 "/>
<rect x="19.9" y="425" fill="none" width="353.3" height="275"/>
<text transform="matrix(1 0 0 1 84.6411 444.5776)" fill="#FFFFFF" font-family="'FiraSans-Regular'" font-size="26">Write the message </text>
<text transform="matrix(1 0 0 1 95.705 475.7776)" fill="#FFFFFF" font-family="'FiraSans-Regular'" font-size="26">you want to turn </text>
<text transform="matrix(1 0 0 1 130.4266 506.9776)" fill="#FFFFFF" font-family="'FiraSans-Regular'" font-size="26">into emojis</text>
<path id="onboarding_slide_3_plain_text_bg" fill="#3B88C3" d="M338.9,278.4h-285c-9.6,0-17.5-7.9-17.5-17.5V98
	c0-9.6,7.9-17.5,17.5-17.5H339c9.6,0,17.5,7.9,17.5,17.5v162.6C356.4,270.6,348.5,278.4,338.9,278.4z"/>
<g id="onboarding_slide_3_plain_text">
	<g>
		<path fill="#FFFFFF" d="M77.7,127H67.4v14.2h-5.2V110h5.2v12.7h10.2V110h5.2v31.2h-5.2L77.7,127L77.7,127z"/>
	</g>
	<g>
		<path fill="#FFFFFF" d="M110.2,138.3l-1.1,3.4c-2.3-0.3-4.1-1.2-4.9-3.3c-1.7,2.2-4.5,3.3-7.6,3.3c-4.9,0-7.9-3-7.9-7.4
			c0-5,4.1-7.9,11.4-7.9h3.4V125c0-3.1-1.9-4.4-5.3-4.4c-1.6,0-3.9,0.3-6.3,1.2l-1.2-3.6c3-1.1,5.9-1.7,8.4-1.7c6.4,0,9.5,3,9.5,8
			v10.7C108.4,137.3,108.9,138,110.2,138.3z M103.4,135v-5.3h-2.8c-4.7,0-6.6,1.7-6.6,4.5c0,2.5,1.4,3.9,4,3.9
			C100.1,138,102.2,136.9,103.4,135z"/>
	</g>
	<g>
		<path fill="#FFFFFF" d="M129.8,141.2h-5.9l-8.5-23.8h5.5l6,19.7l6.1-19.7h5.2L129.8,141.2z"/>
	</g>
	<g>
		<path fill="#FFFFFF" d="M155.1,137.9c2.3,0,4.3-0.7,6.3-2.1l2.2,3.1c-2.2,1.8-5.3,3-8.6,3c-7.4,0-11.5-5.1-11.5-12.5
			c0-7.2,4.1-12.6,10.9-12.6c6.3,0,10.3,4.5,10.3,12c0,0.8-0.1,1.7-0.2,2.3h-15.8C148.9,135.8,151.7,137.9,155.1,137.9z
			 M148.6,127.5h11.1c-0.1-4.5-1.9-7-5.3-7C151.1,120.5,148.9,122.7,148.6,127.5z"/>
	</g>
	<g>
		<path fill="#FFFFFF" d="M218.7,138.3l-1.1,3.4c-2.3-0.3-4.1-1.2-4.9-3.3c-1.7,2.2-4.5,3.3-7.6,3.3c-4.9,0-7.9-3-7.9-7.4
			c0-5,4.1-7.9,11.4-7.9h3.4V125c0-3.1-1.9-4.4-5.3-4.4c-1.6,0-3.9,0.3-6.3,1.2l-1.2-3.6c3-1.1,5.9-1.7,8.4-1.7c6.4,0,9.5,3,9.5,8
			v10.7C216.9,137.3,217.5,138,218.7,138.3z M211.9,135v-5.3h-2.8c-4.7,0-6.6,1.7-6.6,4.5c0,2.5,1.4,3.9,4,3.9
			C208.6,138,210.7,136.9,211.9,135z"/>
	</g>
	<g>
		<path fill="#FFFFFF" d="M63.1,171.6h4.4l0.3,3.1c2-2.4,4.8-3.8,7.8-3.8c4.5,0,6.6,2.6,6.6,7.1v17.4h-5.1v-14.9
			c0-4.2-0.5-5.8-3.4-5.8c-2.4,0-4.4,1.7-5.6,3.5v17.1H63L63.1,171.6z"/>
	</g>
	<g>
		<path fill="#FFFFFF" d="M103.2,191.8h6.6v3.7H91v-3.7h7.1v-16.4h-6.9v-3.7h12V191.8z M103,163.1c0,1.8-1.4,3.1-3.3,3.1
			c-2,0-3.3-1.4-3.3-3.1s1.3-3.2,3.3-3.2C101.7,159.9,103,161.3,103,163.1z"/>
	</g>
	<g>
		<path fill="#FFFFFF" d="M134.7,189.9l2.3,3.2c-2.1,1.7-5.2,3-8.4,3c-7.3,0-11.6-4.9-11.6-12.4c0-7.3,4.4-12.7,11.7-12.7
			c3.2,0,5.9,1,8.3,2.9l-2.4,3.1c-1.8-1.2-3.8-2-5.9-2c-3.8,0-6.4,2.7-6.4,8.6c0,5.9,2.7,8.2,6.4,8.2
			C131,191.9,133,191.1,134.7,189.9z"/>
	</g>
	<g>
		<path fill="#FFFFFF" d="M155.1,192.1c2.3,0,4.3-0.7,6.3-2.1l2.2,3.1c-2.2,1.8-5.3,3-8.6,3c-7.4,0-11.5-5.1-11.5-12.5
			c0-7.2,4.1-12.6,10.9-12.6c6.3,0,10.3,4.5,10.3,12c0,0.8-0.1,1.7-0.2,2.3h-15.8C148.9,190,151.7,192.1,155.1,192.1z M148.6,181.7
			h11.1c-0.1-4.5-1.9-7-5.3-7C151.1,174.7,148.9,176.9,148.6,181.7z"/>
	</g>
	<g>
		<path fill="#FFFFFF" d="M217.8,162.1v33.5h-4.5l-0.3-3c-1.6,2.3-3.9,3.5-6.7,3.5c-6.1,0-9-5-9-12.5c0-7.3,3.6-12.6,9.4-12.6
			c2.4,0,4.5,0.9,6,2.6v-12.1L217.8,162.1z M202.6,183.6c0,6.1,1.8,8.6,5,8.6c2.3,0,3.9-1.6,5.1-3.4v-11.3c-1.1-1.7-2.8-2.7-4.7-2.7
			C204.6,174.9,202.6,177.6,202.6,183.6z"/>
	</g>
	<g>
		<path fill="#FFFFFF" d="M245.9,192.6l-1.1,3.4c-2.3-0.3-4.1-1.2-4.9-3.3c-1.7,2.2-4.5,3.3-7.6,3.3c-4.9,0-7.9-3-7.9-7.4
			c0-5,4.1-7.9,11.4-7.9h3.4v-1.6c0-3.1-1.9-4.4-5.3-4.4c-1.6,0-3.9,0.3-6.3,1.2l-1.2-3.6c3-1.1,5.9-1.7,8.4-1.7c6.4,0,9.5,3,9.5,8
			v10.8C244.1,191.5,244.6,192.2,245.9,192.6z M239,189.3V184h-2.8c-4.7,0-6.6,1.7-6.6,4.5c0,2.5,1.4,3.9,4,3.9
			C235.8,192.4,237.9,191.2,239,189.3z"/>
	</g>
	<g>
		<path fill="#FFFFFF" d="M265.6,195.6c-1.8,5.4-5,9.1-11.7,9.7l-0.6-3.8c4.8-0.8,6.4-2.5,7.6-5.9h-1.7l-8-23.8h5.4l6,20.4l6.1-20.4
			h5.2L265.6,195.6z"/>
	</g>
</g>
</svg>
