<?xml version="1.0" encoding="utf-8"?>
<!-- Generator: Adobe Illustrator 18.0.0, SVG Export Plug-In . SVG Version: 6.00 Build 0)  -->
<!DOCTYPE svg PUBLIC "-//W3C//DTD SVG 1.1//EN" "http://www.w3.org/Graphics/SVG/1.1/DTD/svg11.dtd">
<svg version="1.1" id="Layer_1" xmlns="http://www.w3.org/2000/svg" xmlns:xlink="http://www.w3.org/1999/xlink" x="0px" y="0px"
	 width="393.1px" height="700px" viewBox="3.8 0 393.1 700" enable-background="new 3.8 0 393.1 700" xml:space="preserve">
<polyline fill="#283344" points="3.8,700 3.8,0 396.9,0 396.9,700 "/>
<path fill="#3B88C3" d="M360.4,264.3v-3.7v-13.7V98c0-9.6-7.9-17.5-17.5-17.5H57.8c-9.6,0-17.5,7.9-17.5,17.5V261
	c0,9.6,7.9,17.5,17.5,17.5h277.7h7.2h39.8L360.4,264.3z"/>
<g id="onboarding_slide_5_plain_text">
	<g>
		<path fill="#FFFFFF" d="M81.5,127H71.2v14.2H66v-31.2h5.2v12.7h10.2v-12.7h5.2v31.2h-5.2V127z"/>
	</g>
	<g>
		<path fill="#FFFFFF" d="M114,138.3l-1.1,3.4c-2.3-0.3-4.1-1.2-4.9-3.3c-1.7,2.2-4.5,3.3-7.6,3.3c-4.9,0-7.9-3-7.9-7.4
			c0-5,4.1-7.9,11.4-7.9h3.4V125c0-3.1-1.9-4.4-5.3-4.4c-1.6,0-3.9,0.3-6.3,1.2l-1.2-3.6c3-1.1,5.9-1.7,8.4-1.7c6.4,0,9.5,3,9.5,8
			v10.7C112.2,137.3,112.7,138,114,138.3z M107.2,135v-5.3h-2.8c-4.7,0-6.6,1.7-6.6,4.5c0,2.5,1.4,3.9,4,3.9
			C103.9,138,106,136.9,107.2,135z"/>
	</g>
	<g>
		<path fill="#FFFFFF" d="M133.6,141.2h-5.9l-8.5-23.8h5.5l6,19.7l6.1-19.7h5.2L133.6,141.2z"/>
	</g>
	<g>
		<path fill="#FFFFFF" d="M158.9,137.9c2.3,0,4.3-0.7,6.3-2.1l2.2,3.1c-2.2,1.8-5.3,3-8.6,3c-7.4,0-11.5-5.1-11.5-12.5
			c0-7.2,4.1-12.6,10.9-12.6c6.3,0,10.3,4.5,10.3,12c0,0.8-0.1,1.7-0.2,2.3h-15.8C152.7,135.8,155.5,137.9,158.9,137.9z
			 M152.4,127.5h11.1c-0.1-4.5-1.9-7-5.3-7C154.9,120.5,152.7,122.7,152.4,127.5z"/>
	</g>
	<g>
		<path fill="#FFFFFF" d="M222.5,138.3l-1.1,3.4c-2.3-0.3-4.1-1.2-4.9-3.3c-1.7,2.2-4.5,3.3-7.6,3.3c-4.9,0-7.9-3-7.9-7.4
			c0-5,4.1-7.9,11.4-7.9h3.4V125c0-3.1-1.9-4.4-5.3-4.4c-1.6,0-3.9,0.3-6.3,1.2l-1.2-3.6c3-1.1,5.9-1.7,8.4-1.7c6.4,0,9.5,3,9.5,8
			v10.7C220.7,137.3,221.3,138,222.5,138.3z M215.7,135v-5.3h-2.8c-4.7,0-6.6,1.7-6.6,4.5c0,2.5,1.4,3.9,4,3.9
			C212.4,138,214.5,136.9,215.7,135z"/>
	</g>
	<g>
		<path fill="#FFFFFF" d="M66.9,171.6h4.4l0.3,3.1c2-2.4,4.8-3.8,7.8-3.8c4.5,0,6.6,2.6,6.6,7.1v17.4h-5.1v-14.9
			c0-4.2-0.5-5.8-3.4-5.8c-2.4,0-4.4,1.7-5.6,3.5v17.1h-5.1L66.9,171.6z"/>
	</g>
	<g>
		<path fill="#FFFFFF" d="M107,191.8h6.6v3.7H94.8v-3.7h7.1v-16.4H95v-3.7h12L107,191.8z M106.8,163.1c0,1.8-1.4,3.1-3.3,3.1
			c-2,0-3.3-1.4-3.3-3.1s1.3-3.2,3.3-3.2C105.5,159.9,106.8,161.3,106.8,163.1z"/>
	</g>
	<g>
		<path fill="#FFFFFF" d="M138.5,189.9l2.3,3.2c-2.1,1.7-5.2,3-8.4,3c-7.3,0-11.6-4.9-11.6-12.4c0-7.3,4.4-12.7,11.7-12.7
			c3.2,0,5.9,1,8.3,2.9l-2.4,3.1c-1.8-1.2-3.8-2-5.9-2c-3.8,0-6.4,2.7-6.4,8.6c0,5.9,2.7,8.2,6.4,8.2
			C134.8,191.9,136.8,191.1,138.5,189.9z"/>
	</g>
	<g>
		<path fill="#FFFFFF" d="M158.9,192.1c2.3,0,4.3-0.7,6.3-2.1l2.2,3.1c-2.2,1.8-5.3,3-8.6,3c-7.4,0-11.5-5.1-11.5-12.5
			c0-7.2,4.1-12.6,10.9-12.6c6.3,0,10.3,4.5,10.3,12c0,0.8-0.1,1.7-0.2,2.3h-15.8C152.7,190,155.5,192.1,158.9,192.1z M152.4,181.7
			h11.1c-0.1-4.5-1.9-7-5.3-7C154.9,174.7,152.7,176.9,152.4,181.7z"/>
	</g>
	<g>
		<path fill="#FFFFFF" d="M221.6,162.1v33.5h-4.5l-0.3-3c-1.6,2.3-3.9,3.5-6.7,3.5c-6.1,0-9-5-9-12.5c0-7.3,3.6-12.6,9.4-12.6
			c2.4,0,4.5,0.9,6,2.6v-12.1L221.6,162.1z M206.4,183.6c0,6.1,1.8,8.6,5,8.6c2.3,0,3.9-1.6,5.1-3.4v-11.3c-1.1-1.7-2.8-2.7-4.7-2.7
			C208.4,174.9,206.4,177.6,206.4,183.6z"/>
	</g>
	<g>
		<path fill="#FFFFFF" d="M249.7,192.6l-1.1,3.4c-2.3-0.3-4.1-1.2-4.9-3.3c-1.7,2.2-4.5,3.3-7.6,3.3c-4.9,0-7.9-3-7.9-7.4
			c0-5,4.1-7.9,11.4-7.9h3.4v-1.6c0-3.1-1.9-4.4-5.3-4.4c-1.6,0-3.9,0.3-6.3,1.2l-1.2-3.6c3-1.1,5.9-1.7,8.4-1.7c6.4,0,9.5,3,9.5,8
			v10.8C247.9,191.5,248.4,192.2,249.7,192.6z M242.8,189.3V184H240c-4.7,0-6.6,1.7-6.6,4.5c0,2.5,1.4,3.9,4,3.9
			C239.6,192.4,241.7,191.2,242.8,189.3z"/>
	</g>
	<g>
		<path fill="#FFFFFF" d="M269.4,195.6c-1.8,5.4-5,9.1-11.7,9.7l-0.6-3.8c4.8-0.8,6.4-2.5,7.6-5.9h-1.7l-8-23.8h5.4l6,20.4l6.1-20.4
			h5.2L269.4,195.6z"/>
	</g>
</g>
<g id="onboarding_slide_5_encrypted_emoji_1">
	<g id="g10_148_" transform="matrix(1.25,0,0,-1.25,0,47.5)">
		<g id="g12_173_">
			<g>
				<g>
					<g>
						<g id="g14_175_">
							<g id="g20_159_" transform="translate(36,19)">
								<path id="path22_159_" fill="#FFCC4D" d="M141.7-84.3c0-4.5-3.6-8.2-8.2-8.2s-8.2,3.6-8.2,8.2c0,4.6,3.6,8.2,8.2,8.2
									C138.1-76.2,141.7-79.9,141.7-84.3"/>
							</g>
							<g id="g24_150_" transform="translate(29.457,19.2031)">
								<path id="path26_150_" fill="#664500" d="M145.1-84.4c0,0.1-0.7,1.6-2.1,1.6s-2.1-1.5-2.1-1.6c0-0.1,0-0.2,0.1-0.3
									s0.2-0.1,0.3,0c0,0,0.6,0.4,1.8,0.4s1.7-0.4,1.8-0.4h0.1c0.1,0,0.1,0,0.1,0.1C145.1-84.6,145.2-84.5,145.1-84.4"/>
							</g>
							<g id="g28_109_" transform="translate(17.457,19.2031)">
								<path id="path30_104_" fill="#664500" d="M151.3-84.4c0,0.1-0.7,1.6-2.1,1.6s-2.1-1.5-2.1-1.6c0-0.1,0-0.2,0.1-0.3
									c0.1-0.1,0.2-0.1,0.3,0c0,0,0.6,0.4,1.8,0.4c1.2,0,1.7-0.4,1.8-0.4h0.1c0.1,0,0.1,0,0.1,0.1
									C151.3-84.6,151.5-84.5,151.3-84.4"/>
							</g>
							<g id="g32_86_" transform="translate(32,20.9995)">
								<path id="path34_83_" fill="#664500" d="M143.8-85.4c-0.2,0-0.4,0.1-0.4,0.3c-0.8,2.1-3,2.6-3,2.6c-0.3,0.1-0.4,0.3-0.4,0.6
									c0.1,0.3,0.3,0.4,0.6,0.4c0.1,0,2.6-0.6,3.7-3.1c0.1-0.2,0-0.5-0.3-0.6C144-85.4,144-85.4,143.8-85.4"/>
							</g>
							<g id="g36_77_" transform="translate(5.9995,20.9995)">
								<path id="path38_77_" fill="#664500" d="M157.4-85.4c-0.1,0-0.1,0-0.2,0c-0.2,0.1-0.4,0.4-0.3,0.6c1,2.6,3.6,3.1,3.7,3.1
									c0.3,0.1,0.5-0.1,0.6-0.4c0.1-0.3-0.1-0.5-0.4-0.6c-0.1,0-2.1-0.5-3-2.6C157.7-85.3,157.5-85.4,157.4-85.4"/>
							</g>
							<g id="g40_79_" transform="translate(19,15)">
								<path id="path42_77_" fill="#664500" d="M150.6-82.3c-1.7,0-2.9,0.2-4.3,0.5c-0.3,0.1-0.9,0-0.9-0.9c0-1.9,2.2-4.3,5.2-4.3
									s5.2,2.4,5.2,4.3c0,0.9-0.6,1-0.9,0.9C153.5-82,152.3-82.3,150.6-82.3"/>
							</g>
							<g id="g44_61_" transform="translate(10,14)">
								<path id="path46_61_" fill="#FFFFFF" d="M155.4-81.7c0,0,1.4-0.5,4.3-0.5c2.8,0,4.3,0.5,4.3,0.5s-0.9-1.9-4.3-1.9
									C156.2-83.7,155.4-81.7,155.4-81.7"/>
							</g>
							<g id="g48_50_" transform="translate(11.8472,8.7705)">
								<path id="path50_50_" fill="#5DADEC" d="M154.3-78.9c-0.3-1.3-1.6-2.1-2.9-1.7c-1.3,0.3-2.1,1.6-1.7,2.9s3,4.2,3.5,4
									C153.6-73.9,154.7-77.7,154.3-78.9"/>
							</g>
							<g id="g52_49_" transform="translate(26.1328,8.7705)">
								<path id="path54_47_" fill="#5DADEC" d="M146.9-78.9c0.3-1.3,1.6-2.1,2.9-1.7c1.3,0.3,2.1,1.6,1.7,2.9s-3,4.2-3.5,4
									C147.5-73.9,146.6-77.7,146.9-78.9"/>
							</g>
						</g>
					</g>
				</g>
			</g>
		</g>
	</g>
	<g id="g10_1_" transform="matrix(1.25,0,0,-1.25,0,47.5)">
		<g id="g12_1_">
			<g>
				<g>
					<g>
						<g id="g14_1_">
							<g id="g20_1_" transform="translate(36,19)">
								<path id="path22_1_" fill="#FFCC4D" d="M163.4-128.3c0-4.5-3.6-8.2-8.2-8.2s-8.2,3.6-8.2,8.2s3.6,8.2,8.2,8.2
									C159.8-120.2,163.4-123.9,163.4-128.3"/>
							</g>
							<g id="g24_1_" transform="translate(29.457,19.2031)">
								<path id="path26_1_" fill="#664500" d="M166.8-128.4c0,0.1-0.7,1.6-2.1,1.6s-2.1-1.5-2.1-1.6c0-0.1,0-0.2,0.1-0.3
									s0.2-0.1,0.3,0c0,0,0.6,0.4,1.8,0.4s1.7-0.4,1.8-0.4h0.1c0.1,0,0.1,0,0.1,0.1C166.8-128.6,166.8-128.5,166.8-128.4"/>
							</g>
							<g id="g28_1_" transform="translate(17.457,19.2031)">
								<path id="path30_1_" fill="#664500" d="M173-128.4c0,0.1-0.7,1.6-2.1,1.6s-2.1-1.5-2.1-1.6c0-0.1,0-0.2,0.1-0.3
									c0.1-0.1,0.2-0.1,0.3,0c0,0,0.6,0.4,1.8,0.4c1.2,0,1.7-0.4,1.8-0.4h0.1c0.1,0,0.1,0,0.1,0.1
									C173-128.6,173.1-128.5,173-128.4"/>
							</g>
							<g id="g32_1_" transform="translate(32,20.9995)">
								<path id="path34_1_" fill="#664500" d="M165.5-129.4c-0.2,0-0.4,0.1-0.4,0.3c-0.8,2.1-3,2.6-3,2.6c-0.3,0.1-0.4,0.3-0.4,0.6
									c0.1,0.3,0.3,0.4,0.6,0.4c0.1,0,2.6-0.6,3.7-3.1c0.1-0.2,0-0.5-0.3-0.6C165.6-129.4,165.6-129.4,165.5-129.4"/>
							</g>
							<g id="g36_1_" transform="translate(5.9995,20.9995)">
								<path id="path38_1_" fill="#664500" d="M179-129.4c-0.1,0-0.1,0-0.2,0c-0.2,0.1-0.4,0.4-0.3,0.6c1,2.6,3.6,3.1,3.7,3.1
									c0.3,0.1,0.5-0.1,0.6-0.4c0.1-0.3-0.1-0.5-0.4-0.6c-0.1,0-2.1-0.5-3-2.6C179.4-129.3,179.2-129.4,179-129.4"/>
							</g>
							<g id="g40_1_" transform="translate(19,15)">
								<path id="path42_1_" fill="#664500" d="M172.2-126.2c-1.7,0-2.9,0.2-4.3,0.5c-0.3,0.1-0.9,0-0.9-0.9c0-1.9,2.2-4.3,5.2-4.3
									s5.2,2.4,5.2,4.3c0,0.9-0.6,1-0.9,0.9C175.1-126,173.9-126.2,172.2-126.2"/>
							</g>
							<g id="g44_2_" transform="translate(10,14)">
								<path id="path46_2_" fill="#FFFFFF" d="M177-125.7c0,0,1.4-0.5,4.3-0.5c2.8,0,4.3,0.5,4.3,0.5s-0.9-1.9-4.3-1.9
									C177.8-127.7,177-125.7,177-125.7"/>
							</g>
							<g id="g48_2_" transform="translate(11.8472,8.7705)">
								<path id="path50_2_" fill="#5DADEC" d="M176-122.9c-0.3-1.3-1.6-2.1-2.9-1.7c-1.3,0.3-2.1,1.6-1.7,2.9s3,4.2,3.5,4
									C175.3-117.9,176.3-121.7,176-122.9"/>
							</g>
							<g id="g52_1_" transform="translate(26.1328,8.7705)">
								<path id="path54_1_" fill="#5DADEC" d="M168.5-122.9c0.3-1.3,1.6-2.1,2.9-1.7c1.3,0.3,2.1,1.6,1.7,2.9s-3,4.2-3.5,4
									C169.2-117.9,168.2-121.7,168.5-122.9"/>
							</g>
						</g>
					</g>
				</g>
			</g>
		</g>
	</g>
	<g id="g10_3_" transform="matrix(1.25,0,0,-1.25,0,47.5)">
		<g id="g12_6_">
			<g>
				<g>
					<g>
						<g id="g14_6_">
							<g id="g20_5_" transform="translate(36,19)">
								<path id="path22_3_" fill="#FFCC4D" d="M55.5-83.4c0-4.5-3.6-8.2-8.2-8.2s-8.2,3.6-8.2,8.2s3.6,8.2,8.2,8.2
									C51.9-75.3,55.5-79,55.5-83.4"/>
							</g>
							<g id="g24_5_" transform="translate(29.457,19.2031)">
								<path id="path26_3_" fill="#664500" d="M58.9-83.5c0,0.1-0.7,1.6-2.1,1.6s-2.1-1.5-2.1-1.6c0-0.1,0-0.2,0.1-0.3
									c0.1-0.1,0.2-0.1,0.3,0c0,0,0.6,0.4,1.8,0.4c1.2,0,1.7-0.4,1.8-0.4h0.1c0.1,0,0.1,0,0.1,0.1C58.9-83.7,59-83.6,58.9-83.5"/>
							</g>
							<g id="g28_3_" transform="translate(17.457,19.2031)">
								<path id="path30_3_" fill="#664500" d="M65.1-83.5c0,0.1-0.7,1.6-2.1,1.6s-2.1-1.5-2.1-1.6c0-0.1,0-0.2,0.1-0.3
									c0.1-0.1,0.2-0.1,0.3,0c0,0,0.6,0.4,1.8,0.4s1.7-0.4,1.8-0.4H65c0.1,0,0.1,0,0.1,0.1C65.1-83.7,65.3-83.6,65.1-83.5"/>
							</g>
							<g id="g32_3_" transform="translate(32,20.9995)">
								<path id="path34_3_" fill="#664500" d="M57.6-84.5c-0.2,0-0.4,0.1-0.4,0.3c-0.8,2.1-3,2.6-3,2.6c-0.3,0.1-0.4,0.3-0.4,0.6
									c0.1,0.3,0.3,0.4,0.6,0.4c0.1,0,2.6-0.6,3.7-3.1c0.1-0.2,0-0.5-0.3-0.6C57.8-84.5,57.8-84.5,57.6-84.5"/>
							</g>
							<g id="g36_3_" transform="translate(5.9995,20.9995)">
								<path id="path38_3_" fill="#664500" d="M71.2-84.5c-0.1,0-0.1,0-0.2,0c-0.2,0.1-0.4,0.4-0.3,0.6c1,2.6,3.6,3.1,3.7,3.1
									c0.3,0.1,0.5-0.1,0.6-0.4c0.1-0.3-0.1-0.5-0.4-0.6c-0.1,0-2.1-0.5-3-2.6C71.5-84.4,71.3-84.5,71.2-84.5"/>
							</g>
							<g id="g40_5_" transform="translate(19,15)">
								<path id="path42_5_" fill="#664500" d="M64.4-81.3c-1.7,0-2.9,0.2-4.3,0.5c-0.3,0.1-0.9,0-0.9-0.9c0-1.9,2.2-4.3,5.2-4.3
									c3,0,5.2,2.4,5.2,4.3c0,0.9-0.6,1-0.9,0.9C67.3-81.1,66.1-81.3,64.4-81.3"/>
							</g>
							<g id="g44_4_" transform="translate(10,14)">
								<path id="path46_4_" fill="#FFFFFF" d="M69.2-80.8c0,0,1.4-0.5,4.3-0.5c2.8,0,4.3,0.5,4.3,0.5s-0.9-1.9-4.3-1.9
									C70-82.7,69.2-80.8,69.2-80.8"/>
							</g>
							<g id="g48_4_" transform="translate(11.8472,8.7705)">
								<path id="path50_4_" fill="#5DADEC" d="M68.1-78c-0.3-1.3-1.6-2.1-2.9-1.7c-1.3,0.3-2.1,1.6-1.7,2.9s3,4.2,3.5,4
									C67.4-73,68.5-76.8,68.1-78"/>
							</g>
							<g id="g52_3_" transform="translate(26.1328,8.7705)">
								<path id="path54_3_" fill="#5DADEC" d="M60.7-78c0.3-1.3,1.6-2.1,2.9-1.7c1.3,0.3,2.1,1.6,1.7,2.9s-3,4.2-3.5,4
									C61.3-73,60.4-76.8,60.7-78"/>
							</g>
						</g>
					</g>
				</g>
			</g>
		</g>
	</g>
	<g id="g10_150_" transform="matrix(1.25,0,0,-1.25,0,47.5)">
		<g id="g12_175_">
			<g>
				<g>
					<g>
						<g id="g14_177_">
							<g id="g20_161_" transform="translate(34.7988,36.9946)">
								<path id="path22_161_" fill="#99AAB5" d="M185.8-138.6c-0.2,0.1-3.8-1.9-4.7-4.3c-0.6-1.4-0.8-2.9-0.8-3.8
									c-0.7,0.4-1.4,0.6-2.1,0.6s-1.3-0.2-2.1-0.6c0,1-0.2,2.4-0.8,3.8c-0.9,2.4-4.5,4.5-4.7,4.3c-0.2-0.1,2.1-7.7,3.3-10
									c-1.1-1.2-2.1-2.8-2.1-4.3s0.8-2.4,1.9-2.8c1.2-0.4,2.4,0.4,4.3,0.4s3.1-0.9,4.3-0.4c1.1,0.4,1.9,1.3,1.9,2.8
									s-0.9,3-2.1,4.3C183.7-146.4,186-138.8,185.8-138.6"/>
							</g>
							<g id="g24_152_" transform="translate(13.6919,19.0781)">
								<path id="path26_152_" fill="#F4ABBA" d="M196.8-129.4c-0.1,0.7-0.3,1.7-0.7,2.6c-0.7,1.9-2.8,3.5-2.9,3.5
									c-0.2-0.1,1.2-4.9,2.3-7.1C195.8-129.9,196.3-129.7,196.8-129.4"/>
							</g>
							<g id="g28_110_" transform="translate(27.0303,16.9063)">
								<path id="path30_105_" fill="#F4ABBA" d="M189.8-128.2c1,2.2,2.4,7.1,2.3,7.1c-0.2,0.1-2.1-1.5-2.9-3.5
									c-0.4-1-0.6-1.9-0.7-2.6C188.9-127.5,189.4-127.7,189.8-128.2"/>
							</g>
							<g id="g32_87_" transform="translate(26,7)">
								<path id="path34_84_" fill="#CCD6DD" d="M190.3-123c0-1.3-1.5-2.4-3.3-2.4c-1.8,0-3.3,1.1-3.3,2.4c0,1.3,1.5,2.4,3.3,2.4
									C188.9-120.6,190.3-121.7,190.3-123"/>
							</g>
							<g id="g36_78_" transform="translate(22,6.4219)">
								<path id="path38_78_" fill="#FFFFFF" d="M192.4-122.7c0-1.3-0.1-1.4-1.4-1.4c-1.3,0-1.4,0.1-1.4,1.4
									C189.6-122.2,192.4-122.2,192.4-122.7"/>
							</g>
							<g id="g40_80_" transform="translate(15,12.6719)">
								<path id="path42_78_" fill="#292F33" d="M196-126c0-0.4-0.3-0.7-0.7-0.7c-0.4,0-0.7,0.3-0.7,0.7s0.3,0.7,0.7,0.7
									C195.7-125.3,196-125.6,196-126"/>
							</g>
							<g id="g44_62_" transform="translate(26,12.6719)">
								<path id="path46_62_" fill="#292F33" d="M190.3-126c0-0.4-0.3-0.7-0.7-0.7c-0.4,0-0.7,0.3-0.7,0.7s0.3,0.7,0.7,0.7
									C190-125.3,190.3-125.6,190.3-126"/>
							</g>
							<g id="g48_51_" transform="translate(22,11.1719)">
								<path id="path50_51_" fill="#F4ABBA" d="M192.4-125.2c0-0.8-0.9-1.4-1.4-1.4s-1.4,0.6-1.4,1.4
									C189.6-124.4,192.4-124.4,192.4-125.2"/>
							</g>
						</g>
					</g>
				</g>
			</g>
		</g>
	</g>
	<g id="g10_157_" transform="matrix(1.25,0,0,-1.25,0,47.5)">
		<g id="g12_181_">
			<g>
				<g>
					<g>
						<g id="g14_183_">
							<g id="g20_171_" transform="translate(18,19)">
								<path id="path22_171_" fill="#E1E8ED" d="M42.6-84.8c0-2.6-1.8-4.7-4-4.7s-4,2.1-4,4.7s1.8,4.7,4,4.7S42.6-82.2,42.6-84.8"
									/>
							</g>
							<g id="g24_158_" transform="translate(37,19)">
								<path id="path26_158_" fill="#E1E8ED" d="M32.6-84.8c0-2.6-1.8-4.7-4-4.7s-4,2.1-4,4.7s1.8,4.7,4,4.7
									C30.9-80.1,32.6-82.2,32.6-84.8"/>
							</g>
							<g id="g28_116_" transform="translate(9,15)">
								<path id="path30_110_" fill="#292F33" d="M47.2-82.7c0-0.8-0.6-1.4-1.4-1.4s-1.4,0.6-1.4,1.4s0.6,1.4,1.4,1.4
									S47.2-82,47.2-82.7"/>
							</g>
							<g id="g32_92_" transform="translate(28,15)">
								<path id="path34_89_" fill="#292F33" d="M37.4-82.7c0-0.8-0.6-1.4-1.4-1.4s-1.4,0.6-1.4,1.4s0.6,1.4,1.4,1.4
									C36.7-81.3,37.4-82,37.4-82.7"/>
							</g>
						</g>
					</g>
				</g>
			</g>
		</g>
	</g>
	<g id="g10_149_" transform="matrix(1.25,0,0,-1.25,0,47.5)">
		<g id="g12_174_">
			<g>
				<g>
					<g>
						<g id="g14_176_">
							<g id="g20_160_" transform="translate(23.4941,31.6558)">
								<path id="path22_160_" fill="#DD2E44" d="M82.8-133.6c-0.3,0-0.6,0-0.9-0.1c-0.4,0-1.3,0.1-1.7,0.1c-4,0-7.6-1.5-7.6-6.9
									c0-4.3,3.3-7.8,8.2-7.8c4.7,0,8.6,3.5,8.6,7.8C89.3-135,84.9-133.6,82.8-133.6"/>
							</g>
							<g id="g24_151_" transform="translate(9.439,36.9087)">
								<path id="path26_151_" fill="#77B255" d="M90.1-136.3c0.8-0.8,1.3-1.1,1.6-2.3c0.1-0.7,1.1-0.7,1.1-0.7s-1.9-0.8-2.6-1.6
									c0,0,2.3,0.8,3.1,0.8c0,0,1.6-0.8,1.6-1.6c0,0,0,1.6-0.8,1.6c0,0,2.3,0,2.3-1.6c0,0,0,2.3-0.8,2.3c0,0,2.3,0.8,3.1,0
									c0,0-0.8,0.8-2.3,0.8c0,0,0.8,0.8,2.3,0.8c0,0-2.5,0.7-3.3-0.8c0,0-0.7,0.7,0.7,2.1c0,0-2.1-0.4-2.1-1.9c0,0-0.7,0-1.3,0.6
									C91.8-136.9,90.1-136.3,90.1-136.3"/>
							</g>
						</g>
					</g>
				</g>
			</g>
		</g>
	</g>
	<g id="g10_159_" transform="matrix(1.25,0,0,-1.25,0,47.5)">
		<g id="g12_183_">
			<g>
				<g>
					<g>
						<g id="g14_185_">
							<g id="g20_173_" transform="translate(35.751,15)">
								<path id="path22_173_" fill="#77B255" d="M54.9-124.9c-1.6,0-5.7-1.7-7.6-3.5v5.9c0,0.3-0.2,0.5-0.5,0.5s-0.5-0.2-0.5-0.5
									v-5.9c-1.8,1.7-5.9,3.5-7.7,3.5c-0.4,0,5.2-6.6,7.7-6.1v-0.2c0-0.3,0.2-0.5,0.5-0.5s0.5,0.2,0.5,0.5v0.2
									C49.8-131.5,55.3-124.9,54.9-124.9"/>
							</g>
							<g id="g24_160_" transform="translate(26,23.5835)">
								<path id="path26_160_" fill="#EA596E" d="M60-129.3c0-3-0.8-4.5-3.3-4.5c-2.5,0-3.3,1.5-3.3,4.5s2.4,6.4,3.3,6.4
									C57.5-122.9,60-126.4,60-129.3"/>
							</g>
							<g id="g28_118_" transform="translate(23.7949,35)">
								<path id="path30_111_" fill="#F4ABBA" d="M61.1-135.3c-0.2,0-1.9-6.9-2.3-9.2c-0.4,2.4-2.1,9.2-2.4,9.2
									c-0.5,0-2.8-4.3-2.8-6.3c0-2,2.8-3.8,5.2-3.8s5.2,1.9,5.2,3.8S61.7-135.3,61.1-135.3"/>
							</g>
						</g>
					</g>
				</g>
			</g>
		</g>
	</g>
	<g id="g10_156_" transform="matrix(1.25,0,0,-1.25,0,47.5)">
		<g id="g12_180_">
			<g>
				<g>
					<g>
						<g id="g14_182_">
							<g id="g20_170_" transform="translate(2.7266,14.7012)">
								<path id="path22_170_" fill="#FFAC33" d="M158.2-125.7c0,0-0.6,0.6,0,1.3c0.6,0.6,1.3,0,1.3,0l3-2.8l0.2,0.4l-4.2,4
									c0,0-0.6,0.6,0,1.3c0.6,0.7,1.3,0,1.3,0l4-3.6l0.3,0.3l-4.7,4.2c0,0-0.6,0.6,0,1.3c0.6,0.6,1.3,0,1.3,0l4.7-4.2l0.3,0.3
									l-4.3,4c0,0-0.6,0.6,0,1.3c0.6,0.6,1.3,0,1.3,0s3.3-2.9,4.5-4.2c1.3-1.2,1.6-0.9,1.6-0.9l-1.2,1.1l-1.4,1.3
									c0,0-0.6,0.6,0,1.3c0.6,0.6,1.3,0,1.3,0l3.6-3.3c2.2-2.1,2.3-5.4,0.3-7.6c-2.1-2.2-5.4-2.3-7.6-0.3
									c-0.1,0.1-0.3,0.3-0.3,0.3l0,0L158.2-125.7z"/>
							</g>
							<g id="g24_157_" transform="translate(5.627,16.6504)">
								<path id="path26_157_" fill="#FFDC5D" d="M156.7-126.6c0,0-0.6,0.6,0,1.3c0.6,0.7,1.3,0,1.3,0l3-2.8l0.2,0.4l-4.2,4
									c0,0-0.6,0.6,0,1.3c0.6,0.6,1.3,0,1.3,0l4-3.6l0.3,0.3l-4.7,4.2c0,0-0.6,0.6,0,1.3c0.6,0.7,1.3,0,1.3,0l4.7-4.2l0.3,0.3
									l-4.3,4c0,0-0.6,0.6,0,1.3c0.6,0.6,1.3,0,1.3,0s3.3-2.9,4.5-4.2c1.3-1.2,1.6-0.9,1.6-0.9l-1.2,1.1l-1.4,1.3
									c0,0-0.6,0.6,0,1.3c0.6,0.6,1.3,0,1.3,0l3.6-3.3c2.2-2.1,2.3-5.4,0.3-7.6c-2.1-2.2-5.4-2.3-7.6-0.3
									c-0.1,0.1-0.3,0.3-0.3,0.3l0,0L156.7-126.6z"/>
							</g>
							<g id="g28_115_" transform="translate(25.541,30.5415)">
								<path id="path30_109_" fill="#FFAC33" d="M146-134.1c-0.1,0-0.2,0-0.3,0.1c-0.2,0.2-0.2,0.5-0.1,0.7l1.4,1.8
									c0.2,0.2,0.4,0.2,0.7,0.1c0.2-0.2,0.2-0.4,0.1-0.7l-1.4-1.8C146.4-134,146.2-134.1,146-134.1"/>
							</g>
							<g id="g32_91_" transform="translate(20,30)">
								<path id="path34_88_" fill="#FFAC33" d="M149-133.8c-0.3,0-0.5,0.2-0.5,0.5v2.3c0,0.3,0.2,0.5,0.5,0.5s0.5-0.2,0.5-0.5v-2.3
									C149.5-133.6,149.3-133.8,149-133.8"/>
							</g>
							<g id="g36_82_" transform="translate(29.417,27.333)">
								<path id="path38_82_" fill="#FFAC33" d="M144-132.3c-0.2,0-0.4,0.1-0.4,0.3c-0.1,0.2,0,0.5,0.3,0.6l2.1,0.8
									c0.2,0.1,0.5,0,0.6-0.3c0.1-0.2,0-0.5-0.3-0.6l-2.1-0.8C144.2-132.3,144-132.3,144-132.3"/>
							</g>
						</g>
					</g>
				</g>
			</g>
		</g>
	</g>
	<g id="g10_2_" transform="matrix(1.25,0,0,-1.25,0,47.5)">
		<g id="g12_2_">
			<g>
				<g>
					<g>
						<g id="g14_2_">
							<g id="g20_2_" transform="translate(27,28.0005)">
								<path id="path22_2_" fill="#292F33" d="M103.3-89.4c-1.7,0-3,0.8-3.8,2.3c-0.8-1.5-1.9-2.3-3.3-2.3c-0.3,0-0.5,0.2-0.5,0.5
									s0.2,0.5,0.5,0.5c1.3,0,2.3,0.9,2.9,2.8c0.1,0.2,0.2,0.3,0.5,0.3s0.4-0.1,0.5-0.3c0.6-1.9,1.7-2.8,3.3-2.8
									c0.3,0,0.5-0.2,0.5-0.5C103.8-89.2,103.6-89.4,103.3-89.4"/>
							</g>
							<g id="g24_2_" transform="translate(15.604,27.3462)">
								<path id="path26_2_" fill="#FFAC33" d="M109.2-89c1.6-1.6,0.2-2.8-1.4-4.5c-1.6-1.6-2.8-3-4.5-1.4c-1.6,1.6-1.6,4.2,0,5.9
									C104.9-87.3,107.6-87.3,109.2-89"/>
							</g>
							<g id="g28_2_" transform="translate(16.4351,26.0278)">
								<path id="path30_2_" fill="#BE1931" d="M108.7-88.3c0.8-0.8,0.1-2.6-1.4-4.2c-1.5-1.5-3.5-2.2-4.2-1.4
									c-0.8,0.8-0.1,2.6,1.4,4.2C106.1-88.2,108-87.6,108.7-88.3"/>
							</g>
							<g id="g32_2_" transform="translate(22.2988,27.3462)">
								<path id="path34_2_" fill="#FFAC33" d="M105.7-89c-1.6-1.6-0.2-2.8,1.4-4.5c1.6-1.6,2.8-3,4.5-1.4c1.6,1.6,1.6,4.2,0,5.9
									C109.9-87.3,107.3-87.3,105.7-89"/>
							</g>
							<g id="g36_2_" transform="translate(21.4688,26.0278)">
								<path id="path38_2_" fill="#BE1931" d="M106.1-88.3c-0.8-0.8-0.1-2.6,1.4-4.2c1.5-1.5,3.5-2.2,4.2-1.4
									c0.8,0.8,0.1,2.6-1.4,4.2C108.7-88.2,106.8-87.6,106.1-88.3"/>
							</g>
							<g id="g40_4_" transform="translate(23.4102,18.7793)">
								<path id="path42_4_" fill="#AA8DD8" d="M105.1-84.5c0.1,0.1,0.2,0.1,0.3,0.1c0.4,0,0.8-0.2,1-0.4c0.3-0.2,0.4-0.6,0.3-0.9
									c-0.1-0.6-0.6-1.1-1.6-1c-0.4,0-0.5-0.1-0.5-0.1c0-0.1,0.1-0.2,0.5-0.3c0.4,0,0.8-0.2,1-0.4c0.3-0.2,0.4-0.6,0.3-0.9
									c-0.1-0.6-0.6-1.1-1.6-1c-0.3,0-0.4,0-0.5-0.1l-0.1-0.1c0-0.1,0.1-0.2,0.5-0.3c0.3,0,0.4-0.3,0.4-0.5c0-0.3-0.3-0.4-0.5-0.4
									c-1,0.1-1.4,0.7-1.3,1.3c0.1,0.6,0.6,1.1,1.6,1c0.3,0,0.4,0,0.5,0.1l0.1,0.1c0,0.1-0.1,0.2-0.5,0.3c-1,0.1-1.4,0.7-1.3,1.3
									c0.1,0.6,0.6,1.1,1.6,1c0.3,0,0.4,0,0.5,0.1l0.1,0.1c0,0.1-0.1,0.2-0.5,0.3c-0.3,0-0.4,0.3-0.4,0.5
									C105-84.7,105-84.6,105.1-84.5"/>
							</g>
							<g id="g44_3_" transform="translate(16.2661,1.0146)">
								<path id="path46_3_" fill="#77B255" d="M108.8-75.3c-0.9-0.3-1.6,0.2-1.7,0.7c-0.2,0.5,0.2,1.2,1.1,1.5
									c0.4,0.1,0.5,0.3,0.5,0.3c0,0.1-0.2,0.1-0.6,0c-0.9-0.3-1.6,0.2-1.7,0.7c-0.2,0.5,0.2,1.2,1.1,1.5c0.4,0.1,0.5,0.3,0.5,0.3
									c0,0.1-0.2,0.1-0.6,0c-0.3-0.1-0.5,0.1-0.6,0.3c-0.1,0.3,0.1,0.5,0.3,0.6c0.9,0.3,1.6-0.2,1.7-0.7c0.2-0.5-0.2-1.2-1.1-1.5
									c-0.4-0.1-0.5-0.3-0.5-0.3c0-0.1,0.2-0.1,0.6,0c0.9,0.3,1.6-0.2,1.7-0.7c0.2-0.5-0.2-1.2-1.1-1.5c-0.4-0.1-0.5-0.3-0.5-0.3
									c0-0.1,0.2-0.1,0.6,0c0.3,0.1,0.5-0.1,0.6-0.3C109.2-75,109.1-75.2,108.8-75.3"/>
							</g>
							<g id="g48_3_" transform="translate(2,9.5)">
								<path id="path50_3_" fill="#5C913B" d="M116.3-79.6c0,0.4,0.3,0.7,0.7,0.7c0.4,0,0.7-0.3,0.7-0.7c0-0.4-0.3-0.7-0.7-0.7
									C116.5-80.5,116.3-80.1,116.3-79.6"/>
							</g>
							<g id="g52_2_" transform="translate(6,6)">
								<path id="path54_2_" fill="#9266CC" d="M114.2-77.9c0,0.5,0.4,0.9,0.9,0.9c0.5,0,0.9-0.4,0.9-0.9c0-0.5-0.4-0.9-0.9-0.9
									C114.5-78.9,114.2-78.4,114.2-77.9"/>
							</g>
							<g id="g56_1_" transform="translate(29,10)">
								<path id="path58_1_" fill="#9266CC" d="M102.1-80c0,0.5,0.4,0.9,0.9,0.9c0.5,0,0.9-0.4,0.9-0.9c0-0.5-0.4-0.9-0.9-0.9
									C102.7-81,102.1-80.5,102.1-80"/>
							</g>
							<g id="g60_1_" transform="translate(25,5.5)">
								<path id="path62_1_" fill="#5C913B" d="M104.2-77.6c0,0.4,0.3,0.7,0.7,0.7s0.7-0.3,0.7-0.7c0-0.4-0.3-0.7-0.7-0.7
									C104.6-78.4,104.2-78,104.2-77.6"/>
							</g>
							<g id="g64_1_" transform="translate(17,17.5)">
								<path id="path66_1_" fill="#5C913B" d="M108.4-83.8c0,0.4,0.3,0.7,0.7,0.7s0.7-0.3,0.7-0.7c0-0.4-0.3-0.7-0.7-0.7
									S108.4-84.2,108.4-83.8"/>
							</g>
							<g id="g68_1_" transform="translate(6,14)">
								<path id="path70_1_" fill="#FFCC4D" d="M114.2-82c0,0.5,0.4,0.9,0.9,0.9c0.5,0,0.9-0.4,0.9-0.9c0-0.5-0.4-0.9-0.9-0.9
									C114.5-83.1,114.2-82.6,114.2-82"/>
							</g>
							<g id="g72_1_" transform="translate(27,20.5)">
								<path id="path74_1_" fill="#FFCC4D" d="M103.3-85.4c0,0.4,0.3,0.7,0.7,0.7s0.7-0.3,0.7-0.7c0-0.4-0.3-0.7-0.7-0.7
									S103.3-85.8,103.3-85.4"/>
							</g>
							<g id="g76_1_" transform="translate(12,22.5)">
								<path id="path78_1_" fill="#FFCC4D" d="M111.1-86.5c0,0.4,0.3,0.7,0.7,0.7s0.7-0.3,0.7-0.7c0-0.4-0.3-0.7-0.7-0.7
									S111.1-86.9,111.1-86.5"/>
							</g>
						</g>
					</g>
				</g>
			</g>
		</g>
	</g>
	<g id="g10_4_" transform="matrix(1.25,0,0,-1.25,0,47.5)">
		<g id="g12_7_">
			<g>
				<g>
					<g>
						<g id="g14_7_">
							<g id="g20_7_" transform="translate(27,28.0005)">
								<path id="path22_4_" fill="#292F33" d="M103.7-133.1c-1.7,0-3,0.8-3.8,2.3c-0.8-1.5-1.9-2.3-3.3-2.3c-0.3,0-0.5,0.2-0.5,0.5
									s0.2,0.5,0.5,0.5c1.3,0,2.3,0.9,2.9,2.8c0.1,0.2,0.2,0.3,0.5,0.3s0.4-0.1,0.5-0.3c0.6-1.9,1.7-2.8,3.3-2.8
									c0.3,0,0.5-0.2,0.5-0.5C104.2-132.9,104-133.1,103.7-133.1"/>
							</g>
							<g id="g24_7_" transform="translate(15.604,27.3462)">
								<path id="path26_4_" fill="#FFAC33" d="M109.6-132.7c1.6-1.6,0.2-2.8-1.4-4.5c-1.6-1.6-2.8-3-4.5-1.4
									c-1.6,1.6-1.6,4.2,0,5.9C105.3-131,108-131,109.6-132.7"/>
							</g>
							<g id="g28_6_" transform="translate(16.4351,26.0278)">
								<path id="path30_6_" fill="#BE1931" d="M109.1-132c0.8-0.8,0.1-2.6-1.4-4.2c-1.5-1.5-3.5-2.2-4.2-1.4
									c-0.8,0.8-0.1,2.6,1.4,4.2C106.5-131.9,108.4-131.3,109.1-132"/>
							</g>
							<g id="g32_4_" transform="translate(22.2988,27.3462)">
								<path id="path34_4_" fill="#FFAC33" d="M106.1-132.7c-1.6-1.6-0.2-2.8,1.4-4.5c1.6-1.6,2.8-3,4.5-1.4c1.6,1.6,1.6,4.2,0,5.9
									C110.3-131,107.8-131,106.1-132.7"/>
							</g>
							<g id="g36_4_" transform="translate(21.4688,26.0278)">
								<path id="path38_4_" fill="#BE1931" d="M106.5-132c-0.8-0.8-0.1-2.6,1.4-4.2c1.5-1.5,3.5-2.2,4.2-1.4
									c0.8,0.8,0.1,2.6-1.4,4.2C109.1-131.9,107.2-131.3,106.5-132"/>
							</g>
							<g id="g40_6_" transform="translate(23.4102,18.7793)">
								<path id="path42_6_" fill="#AA8DD8" d="M105.5-128.3c0.1,0.1,0.2,0.1,0.3,0.1c0.4,0,0.8-0.2,1-0.4c0.3-0.2,0.4-0.6,0.3-0.9
									c-0.1-0.6-0.6-1.1-1.6-1c-0.4,0-0.5-0.1-0.5-0.1c0-0.1,0.1-0.2,0.5-0.3c0.4,0,0.8-0.2,1-0.4c0.3-0.2,0.4-0.6,0.3-0.9
									c-0.1-0.6-0.6-1.1-1.6-1c-0.3,0-0.4,0-0.5-0.1l-0.1-0.1c0-0.1,0.1-0.2,0.5-0.3c0.3,0,0.4-0.3,0.4-0.5c0-0.3-0.3-0.4-0.5-0.4
									c-1,0.1-1.4,0.7-1.3,1.3c0.1,0.6,0.6,1.1,1.6,1c0.3,0,0.4,0,0.5,0.1l0.1,0.1c0,0.1-0.1,0.2-0.5,0.3c-1,0.1-1.4,0.7-1.3,1.3
									c0.1,0.6,0.6,1.1,1.6,1c0.3,0,0.4,0,0.5,0.1l0.1,0.1c0,0.1-0.1,0.2-0.5,0.3c-0.3,0-0.4,0.3-0.4,0.5
									C105.4-128.4,105.5-128.3,105.5-128.3"/>
							</g>
							<g id="g44_5_" transform="translate(16.2661,1.0146)">
								<path id="path46_5_" fill="#77B255" d="M109.2-119c-0.9-0.3-1.6,0.2-1.7,0.7c-0.2,0.5,0.2,1.2,1.1,1.5
									c0.4,0.1,0.5,0.3,0.5,0.3c0,0.1-0.2,0.1-0.6,0c-0.9-0.3-1.6,0.2-1.7,0.7c-0.2,0.5,0.2,1.2,1.1,1.5c0.4,0.1,0.5,0.3,0.5,0.3
									c0,0.1-0.2,0.1-0.6,0c-0.3-0.1-0.5,0.1-0.6,0.3c-0.1,0.3,0.1,0.5,0.3,0.6c0.9,0.3,1.6-0.2,1.7-0.7c0.2-0.5-0.2-1.2-1.1-1.5
									c-0.4-0.1-0.5-0.3-0.5-0.3c0-0.1,0.2-0.1,0.6,0c0.9,0.3,1.6-0.2,1.7-0.7c0.2-0.5-0.2-1.2-1.1-1.5c-0.4-0.1-0.5-0.3-0.5-0.3
									c0-0.1,0.2-0.1,0.6,0c0.3,0.1,0.5-0.1,0.6-0.3C109.6-118.7,109.5-118.9,109.2-119"/>
							</g>
							<g id="g48_5_" transform="translate(2,9.5)">
								<path id="path50_5_" fill="#5C913B" d="M116.7-123.3c0,0.4,0.3,0.7,0.7,0.7c0.4,0,0.7-0.3,0.7-0.7s-0.3-0.7-0.7-0.7
									C117-124.2,116.7-123.8,116.7-123.3"/>
							</g>
							<g id="g52_4_" transform="translate(6,6)">
								<path id="path54_4_" fill="#9266CC" d="M114.6-121.6c0,0.5,0.4,0.9,0.9,0.9s0.9-0.4,0.9-0.9s-0.4-0.9-0.9-0.9
									C114.9-122.6,114.6-122.1,114.6-121.6"/>
							</g>
							<g id="g56_2_" transform="translate(29,10)">
								<path id="path58_2_" fill="#9266CC" d="M102.5-123.7c0,0.5,0.4,0.9,0.9,0.9s0.9-0.4,0.9-0.9s-0.4-0.9-0.9-0.9
									C103.1-124.7,102.5-124.2,102.5-123.7"/>
							</g>
							<g id="g60_2_" transform="translate(25,5.5)">
								<path id="path62_2_" fill="#5C913B" d="M104.6-121.3c0,0.4,0.3,0.7,0.7,0.7c0.4,0,0.7-0.3,0.7-0.7s-0.3-0.7-0.7-0.7
									C105.1-122.1,104.6-121.7,104.6-121.3"/>
							</g>
							<g id="g64_2_" transform="translate(17,17.5)">
								<path id="path66_2_" fill="#5C913B" d="M108.8-127.5c0,0.4,0.3,0.7,0.7,0.7c0.4,0,0.7-0.3,0.7-0.7s-0.3-0.7-0.7-0.7
									C109.1-128.2,108.8-127.9,108.8-127.5"/>
							</g>
							<g id="g68_2_" transform="translate(6,14)">
								<path id="path70_2_" fill="#FFCC4D" d="M114.6-125.7c0,0.5,0.4,0.9,0.9,0.9s0.9-0.4,0.9-0.9s-0.4-0.9-0.9-0.9
									C114.9-126.8,114.6-126.3,114.6-125.7"/>
							</g>
							<g id="g72_2_" transform="translate(27,20.5)">
								<path id="path74_2_" fill="#FFCC4D" d="M103.7-129.1c0,0.4,0.3,0.7,0.7,0.7c0.4,0,0.7-0.3,0.7-0.7s-0.3-0.7-0.7-0.7
									C104-129.8,103.7-129.5,103.7-129.1"/>
							</g>
							<g id="g76_2_" transform="translate(12,22.5)">
								<path id="path78_2_" fill="#FFCC4D" d="M111.5-130.2c0,0.4,0.3,0.7,0.7,0.7s0.7-0.3,0.7-0.7s-0.3-0.7-0.7-0.7
									S111.5-130.6,111.5-130.2"/>
							</g>
						</g>
					</g>
				</g>
			</g>
		</g>
	</g>
	<g id="g10_153_" transform="matrix(1.25,0,0,-1.25,0,47.5)">
		<g id="g12_177_">
			<g>
				<g>
					<g>
						<g id="g14_179_">
							<g id="g20_163_" transform="translate(36,19)">
								<path id="path22_163_" fill="#FDCB58" d="M33.3-127.6c0-4.5-3.6-8.2-8.2-8.2c-4.5,0-8.2,3.6-8.2,8.2c0,4.6,3.6,8.2,8.2,8.2
									C29.7-119.5,33.3-123.2,33.3-127.6"/>
							</g>
							<g id="g24_154_" transform="translate(7,24)">
								<path id="path26_154_" fill="#664500" d="M48.4-130.1c-0.3,0-0.5,0.2-0.5,0.5s0.2,0.5,0.5,0.5c0.1,0,1.7,0,2.9,1.7
									c0.2,0.2,0.5,0.3,0.7,0.1c0.2-0.2,0.3-0.5,0.1-0.7C50.6-130.1,48.5-130.1,48.4-130.1"/>
							</g>
							<g id="g28_112_" transform="translate(31,24)">
								<path id="path30_106_" fill="#664500" d="M35.9-130.1c-0.1,0-2.2,0-3.7,2.1c-0.2,0.2-0.1,0.5,0.1,0.7
									c0.1,0.2,0.5,0.1,0.7-0.1c1.3-1.7,2.9-1.7,2.9-1.7c0.3,0,0.5-0.2,0.5-0.5C36.3-129.9,36.2-130.1,35.9-130.1"/>
							</g>
							<g id="g32_88_" transform="translate(31.5996,16.7998)">
								<path id="path34_85_" fill="#664500" d="M35.6-126.5c-0.1,0-0.9,0.7-2.2,1.1c0,0.1,0,0.1,0,0.2c0,0.2-0.1,0.3-0.2,0.5
									c0.9,0.2,1.6,0.3,1.6,0.3c0.3,0,0.5,0.2,0.5,0.5c0,0.3-0.2,0.5-0.5,0.5c-0.1,0-2.6,0-4.2-1.6c-0.1-0.1-0.2-0.3-0.1-0.5
									c0.1-0.2,0.2-0.3,0.4-0.3c2.2,0,4-1.3,4-1.3c0.1-0.1,0.2-0.1,0.3-0.1s0.3,0.1,0.4,0.2C35.8-126.9,35.8-126.6,35.6-126.5"/>
							</g>
							<g id="g36_80_" transform="translate(16.707,19.707)">
								<path id="path38_80_" fill="#664500" d="M43.3-128c-1.5,1.5-4,1.6-4.2,1.6c-0.3,0-0.5-0.2-0.5-0.5s0.2-0.5,0.5-0.5
									c0,0,0.7,0,1.6-0.3c-0.1-0.1-0.2-0.3-0.2-0.5c0-0.1,0-0.1,0-0.2c-1.3-0.4-2.2-1.1-2.2-1.1c-0.2-0.2-0.3-0.5-0.1-0.7
									c0.1-0.1,0.2-0.2,0.4-0.2c0.1,0,0.2,0,0.3,0.1c0,0,1.8,1.3,4,1.3c0.2,0,0.4,0.1,0.4,0.3C43.5-128.3,43.4-128.1,43.3-128"/>
							</g>
							<g id="g40_82_" transform="translate(19,7)">
								<path id="path42_80_" fill="#664500" d="M42.1-121.3c-0.1,0-0.3,0.1-0.4,0.2l-1.5,1.9l-1.1-1.4c-0.1-0.1-0.2-0.2-0.3-0.2
									s-0.3,0-0.4,0.1l-0.5,0.5c-0.2,0.2-0.2,0.5,0,0.7s0.5,0.2,0.7,0l0.1-0.1l1.1,1.5c0.1,0.1,0.2,0.2,0.4,0.2
									c0.1,0,0.3-0.1,0.4-0.2l1.5-1.9l1.5,1.9c0.1,0.1,0.2,0.2,0.4,0.2c0.1,0,0.3-0.1,0.4-0.2l1.1-1.5l0.1,0.1
									c0.2,0.2,0.5,0.2,0.7,0s0.2-0.5,0-0.7l-0.5-0.5c-0.1-0.1-0.2-0.1-0.4-0.1c-0.1,0-0.3,0.1-0.3,0.2l-1.1,1.4l-1.5-1.9
									C42.4-121.3,42.2-121.3,42.1-121.3"/>
							</g>
						</g>
					</g>
				</g>
			</g>
		</g>
	</g>
	<g id="g10_158_" transform="matrix(1.25,0,0,-1.25,0,47.5)">
		<g id="g12_182_">
			<g>
				<g>
					<g>
						<g id="g14_184_">
							<g id="g20_172_" transform="translate(19,33)">
								<path id="path22_172_" fill="#F4900C" d="M85.7-91.2c3.5,0,6.2-1.9,7-0.9c0.1,0.2,0.1,0.3,0.1,0.5c0,0.9-3.3,2.4-7.1,2.4
									c-4,0-7.1-1.4-7.1-2.4c0-0.2,0-0.3,0.1-0.5C79.5-93.1,82.3-91.2,85.7-91.2"/>
							</g>
							<g id="g24_159_" transform="translate(19,34)">
								<path id="path26_159_" fill="#FFCC4D" d="M85.7-91.9c-2.9,0-5-0.9-5.9-1.2c-0.2-0.1-0.3-0.4-0.2-0.6
									c0.1-0.1,5.1-12.9,5.1-12.9s0.4-0.9,0.9-0.9c0.5,0,0.9,0.9,0.9,0.9l5,12.9c0,0,0.1,0.4-0.3,0.6
									C90.6-92.6,88.6-91.9,85.7-91.9"/>
							</g>
						</g>
					</g>
				</g>
			</g>
		</g>
		<g id="g28_117_">
			<g>
				<g>
					<g>
						<g>
							<g>
								<g>
									<g>
										<g>
											<defs>
												<path id="SVGID_1_" d="M98.9-59.1c-0.2-0.1-0.3-0.4-0.2-0.6l0,0c0.1-0.2,5-12.9,5-12.9l0,0c0,0,0.5-0.9,0.9-0.9l0,0
													c0.5,0,0.9,0.9,0.9,0.9l0,0l5,12.9c0,0,0.1,0.4-0.3,0.6l0,0c-0.8,0.4-2.9,1.2-5.7,1.2l0,0
													C101.8-57.9,99.6-58.6,98.9-59.1"/>
											</defs>
											<clipPath id="SVGID_2_">
												<use xlink:href="#SVGID_1_"  overflow="visible"/>
											</clipPath>
											<g id="g30_4_" clip-path="url(#SVGID_2_)">
												<g id="g36_83_" transform="translate(19,6)">
													<path id="path38_83_" fill="#BE1931" d="M85.7-77.1c0-1-0.8-1.9-1.9-1.9c-1,0-1.9,0.8-1.9,1.9c0,1.1,0.8,1.9,1.9,1.9
														C84.9-75.2,85.7-76,85.7-77.1"/>
												</g>
												<g id="g40_84_" transform="translate(18,17)">
													<path id="path42_82_" fill="#BE1931" d="M86.2-82.9c0-1-0.8-1.9-1.9-1.9c-1,0-1.9,0.8-1.9,1.9c0,1,0.8,1.9,1.9,1.9
														C85.4-81,86.2-81.8,86.2-82.9"/>
												</g>
												<g id="g44_65_" transform="translate(21,29)">
													<path id="path46_65_" fill="#BE1931" d="M84.6-89.1c0-1-0.8-1.9-1.9-1.9c-1,0-1.9,0.8-1.9,1.9c0,1,0.8,1.9,1.9,1.9
														C83.8-87.2,84.6-88.1,84.6-89.1"/>
												</g>
												<g id="g48_54_" transform="translate(30,24)">
													<path id="path50_54_" fill="#BE1931" d="M79.9-86.6c0-1-0.8-1.9-1.9-1.9c-1.1,0-1.9,0.8-1.9,1.9c0,1,0.8,1.9,1.9,1.9
														C79.1-84.7,79.9-85.5,79.9-86.6"/>
												</g>
												<g id="g52_52_" transform="translate(28,12)">
													<path id="path54_50_" fill="#BE1931" d="M81-80.3c0-1-0.8-1.9-1.9-1.9c-1.1,0-1.9,0.8-1.9,1.9c0,1,0.8,1.9,1.9,1.9
														C80.2-78.4,81-79.2,81-80.3"/>
												</g>
												<g id="g56_37_" transform="translate(11,25)">
													<path id="path58_37_" fill="#BE1931" d="M89.9-87.1c0-1-0.8-1.9-1.9-1.9c-1,0-1.9,0.8-1.9,1.9c0,1,0.8,1.9,1.9,1.9
														C89-85.1,89.9-86,89.9-87.1"/>
												</g>
											</g>
										</g>
									</g>
								</g>
							</g>
						</g>
					</g>
				</g>
			</g>
		</g>
	</g>
</g>
<g id="onboarding_slide_5_encrypted_emoji_2">
	<g id="g10_24_" transform="matrix(1.25,0,0,-1.25,0,47.5)">
		<g id="g12_25_">
			<g>
				<g>
					<g>
						<g id="g14_25_">
							<g id="g20_25_" transform="translate(36,19)">
								<path id="path22_25_" fill="#FFCC4D" d="M76-127.8c0-4.5-3.6-8.2-8.2-8.2s-8.2,3.6-8.2,8.2c0,4.6,3.6,8.2,8.2,8.2
									C72.4-119.7,76-123.4,76-127.8"/>
							</g>
							<g id="g24_24_" transform="translate(29.457,19.2031)">
								<path id="path26_24_" fill="#664500" d="M79.4-127.9c0,0.1-0.7,1.6-2.1,1.6s-2.1-1.5-2.1-1.6c0-0.1,0-0.2,0.1-0.3
									s0.2-0.1,0.3,0c0,0,0.6,0.4,1.8,0.4c1.2,0,1.7-0.4,1.8-0.4h0.1c0.1,0,0.1,0,0.1,0.1C79.4-128.1,79.5-128,79.4-127.9"/>
							</g>
							<g id="g28_23_" transform="translate(17.457,19.2031)">
								<path id="path30_21_" fill="#664500" d="M85.6-127.9c0,0.1-0.7,1.6-2.1,1.6s-2.1-1.5-2.1-1.6c0-0.1,0-0.2,0.1-0.3
									s0.2-0.1,0.3,0c0,0,0.6,0.4,1.8,0.4c1.2,0,1.7-0.4,1.8-0.4h0.1c0.1,0,0.1,0,0.1,0.1C85.6-128.1,85.8-128,85.6-127.9"/>
							</g>
							<g id="g32_19_" transform="translate(32,20.9995)">
								<path id="path34_18_" fill="#664500" d="M78.1-128.9c-0.2,0-0.4,0.1-0.4,0.3c-0.8,2.1-3,2.6-3,2.6c-0.3,0.1-0.4,0.3-0.4,0.6
									c0.1,0.3,0.3,0.4,0.6,0.4c0.1,0,2.6-0.6,3.7-3.1c0.1-0.2,0-0.5-0.3-0.6C78.3-128.9,78.3-128.9,78.1-128.9"/>
							</g>
							<g id="g36_17_" transform="translate(5.9995,20.9995)">
								<path id="path38_17_" fill="#664500" d="M91.7-128.9c-0.1,0-0.1,0-0.2,0c-0.2,0.1-0.4,0.4-0.3,0.6c1,2.6,3.6,3.1,3.7,3.1
									c0.3,0.1,0.5-0.1,0.6-0.4c0.1-0.3-0.1-0.5-0.4-0.6c-0.1,0-2.1-0.5-3-2.6C92-128.8,91.8-128.9,91.7-128.9"/>
							</g>
							<g id="g40_16_" transform="translate(19,15)">
								<path id="path42_16_" fill="#664500" d="M84.9-125.7c-1.7,0-2.9,0.2-4.3,0.5c-0.3,0.1-0.9,0-0.9-0.9c0-1.9,2.2-4.3,5.2-4.3
									s5.2,2.4,5.2,4.3c0,0.9-0.6,1-0.9,0.9C87.8-125.5,86.6-125.7,84.9-125.7"/>
							</g>
							<g id="g44_15_" transform="translate(10,14)">
								<path id="path46_15_" fill="#FFFFFF" d="M89.6-125.2c0,0,1.4-0.5,4.3-0.5c2.8,0,4.3,0.5,4.3,0.5s-0.9-1.9-4.3-1.9
									C90.5-127.1,89.6-125.2,89.6-125.2"/>
							</g>
							<g id="g48_14_" transform="translate(11.8472,8.7705)">
								<path id="path50_14_" fill="#5DADEC" d="M88.6-122.4c-0.3-1.3-1.6-2.1-2.9-1.7c-1.3,0.3-2.1,1.6-1.7,2.9s3,4.2,3.5,4
									C87.9-117.4,89-121.2,88.6-122.4"/>
							</g>
							<g id="g52_12_" transform="translate(26.1328,8.7705)">
								<path id="path54_12_" fill="#5DADEC" d="M81.2-122.4c0.3-1.3,1.6-2.1,2.9-1.7c1.3,0.3,2.1,1.6,1.7,2.9s-3,4.2-3.5,4
									C81.8-117.4,80.9-121.2,81.2-122.4"/>
							</g>
						</g>
					</g>
				</g>
			</g>
		</g>
	</g>
	<g id="g10_18_" transform="matrix(1.25,0,0,-1.25,0,47.5)">
		<g id="g12_21_">
			<g>
				<g>
					<g>
						<g id="g14_21_">
							<g id="g20_21_" transform="translate(18,19)">
								<path id="path22_21_" fill="#E1E8ED" d="M149.7-128.7c0-2.6-1.8-4.7-4-4.7s-4,2.1-4,4.7c0,2.6,1.8,4.7,4,4.7
									C147.9-124,149.7-126.1,149.7-128.7"/>
							</g>
							<g id="g24_20_" transform="translate(37,19)">
								<path id="path26_20_" fill="#E1E8ED" d="M139.9-128.7c0-2.6-1.8-4.7-4-4.7s-4,2.1-4,4.7c0,2.6,1.8,4.7,4,4.7
									C138.1-124,139.9-126.1,139.9-128.7"/>
							</g>
							<g id="g28_19_" transform="translate(9,15)">
								<path id="path30_17_" fill="#292F33" d="M154.5-126.6c0-0.8-0.6-1.4-1.4-1.4s-1.4,0.6-1.4,1.4s0.6,1.4,1.4,1.4
									C153.7-125.2,154.5-125.8,154.5-126.6"/>
							</g>
							<g id="g32_15_" transform="translate(28,15)">
								<path id="path34_14_" fill="#292F33" d="M144.6-126.6c0-0.8-0.6-1.4-1.4-1.4s-1.4,0.6-1.4,1.4s0.6,1.4,1.4,1.4
									S144.6-125.8,144.6-126.6"/>
							</g>
						</g>
					</g>
				</g>
			</g>
		</g>
	</g>
	<g id="g10_49_" transform="matrix(1.25,0,0,-1.25,0,47.5)">
		<g id="g12_52_">
			<g>
				<g>
					<g>
						<g id="g14_52_">
							<g id="g20_52_" transform="translate(23.4941,31.6558)">
								<path id="path22_52_" fill="#DD2E44" d="M191.3-134.4c-0.3,0-0.6,0-0.9-0.1c-0.4,0-1.3,0.1-1.7,0.1c-4,0-7.6-1.5-7.6-6.9
									c0-4.3,3.3-7.8,8.2-7.8c4.7,0,8.6,3.5,8.6,7.8C197.7-135.8,193.4-134.4,191.3-134.4"/>
							</g>
							<g id="g24_50_" transform="translate(9.439,36.9087)">
								<path id="path26_50_" fill="#77B255" d="M198.6-137.1c0.8-0.8,1.3-1.1,1.6-2.3c0.1-0.7,1.1-0.7,1.1-0.7s-1.9-0.8-2.6-1.6
									c0,0,2.3,0.8,3.1,0.8c0,0,1.6-0.8,1.6-1.6c0,0,0,1.6-0.8,1.6c0,0,2.3,0,2.3-1.6c0,0,0,2.3-0.8,2.3c0,0,2.3,0.8,3.1,0
									c0,0-0.8,0.8-2.3,0.8c0,0,0.8,0.8,2.3,0.8c0,0-2.5,0.7-3.3-0.8c0,0-0.7,0.7,0.7,2.1c0,0-2.1-0.4-2.1-1.9c0,0-0.7,0-1.3,0.6
									C200.2-137.7,198.6-137.1,198.6-137.1"/>
							</g>
						</g>
					</g>
				</g>
			</g>
		</g>
	</g>
	<g id="g10_22_" transform="matrix(1.25,0,0,-1.25,0,47.5)">
		<g id="g12_47_">
			<g>
				<g>
					<g>
						<g id="g14_47_">
							<g id="g20_37_" transform="translate(35.751,15)">
								<path id="path22_37_" fill="#77B255" d="M53.9-81.1c-1.6,0-5.7-1.7-7.6-3.5v5.9c0,0.3-0.2,0.5-0.5,0.5s-0.5-0.2-0.5-0.5
									v-5.9c-1.8,1.7-5.9,3.5-7.7,3.5c-0.4,0,5.2-6.6,7.7-6.1v-0.2c0-0.3,0.2-0.5,0.5-0.5s0.5,0.2,0.5,0.5v0.2
									C48.8-87.7,54.2-81.1,53.9-81.1"/>
							</g>
							<g id="g24_45_" transform="translate(26,23.5835)">
								<path id="path26_45_" fill="#EA596E" d="M58.9-85.5c0-3-0.8-4.5-3.3-4.5s-3.3,1.5-3.3,4.5s2.4,6.4,3.3,6.4
									C56.4-79.2,58.9-82.5,58.9-85.5"/>
							</g>
							<g id="g28_43_" transform="translate(23.7949,35)">
								<path id="path30_39_" fill="#F4ABBA" d="M60.1-91.5c-0.2,0-1.9-6.9-2.3-9.2c-0.4,2.4-2.1,9.2-2.4,9.2
									c-0.5,0-2.8-4.3-2.8-6.3c0-2,2.8-3.8,5.2-3.8c2.5,0,5.2,1.9,5.2,3.8S60.6-91.5,60.1-91.5"/>
							</g>
						</g>
					</g>
				</g>
			</g>
		</g>
	</g>
	<g id="g10_45_" transform="matrix(1.25,0,0,-1.25,0,47.5)">
		<g id="g12_48_">
			<g>
				<g>
					<g>
						<g id="g14_48_">
							<g id="g20_48_" transform="translate(35.751,15)">
								<path id="path22_48_" fill="#77B255" d="M141.5-82.2c-1.6,0-5.7-1.7-7.6-3.5v5.9c0,0.3-0.2,0.5-0.5,0.5
									c-0.3,0-0.5-0.2-0.5-0.5v-5.9c-1.8,1.7-5.9,3.5-7.7,3.5c-0.4,0,5.2-6.6,7.7-6.1v-0.2c0-0.3,0.2-0.5,0.5-0.5
									c0.3,0,0.5,0.2,0.5,0.5v0.2C136.4-88.8,141.9-82.2,141.5-82.2"/>
							</g>
							<g id="g24_46_" transform="translate(26,23.5835)">
								<path id="path26_46_" fill="#EA596E" d="M146.6-86.7c0-3-0.8-4.5-3.3-4.5s-3.3,1.5-3.3,4.5c0,3,2.4,6.4,3.3,6.4
									C144.1-80.3,146.6-83.6,146.6-86.7"/>
							</g>
							<g id="g28_44_" transform="translate(23.7949,35)">
								<path id="path30_40_" fill="#F4ABBA" d="M147.7-92.6c-0.2,0-1.9-6.9-2.3-9.2c-0.4,2.4-2.1,9.2-2.4,9.2
									c-0.5,0-2.8-4.3-2.8-6.3c0-2,2.8-3.8,5.2-3.8c2.5,0,5.2,1.9,5.2,3.8S148.3-92.6,147.7-92.6"/>
							</g>
						</g>
					</g>
				</g>
			</g>
		</g>
	</g>
	<g id="g10_46_" transform="matrix(1.25,0,0,-1.25,0,47.5)">
		<g id="g12_49_">
			<g>
				<g>
					<g>
						<g id="g14_49_">
							<g id="g20_49_" transform="translate(35.751,15)">
								<path id="path22_49_" fill="#77B255" d="M162.3-125.7c-1.6,0-5.7-1.7-7.6-3.5v5.9c0,0.3-0.2,0.5-0.5,0.5
									c-0.3,0-0.5-0.2-0.5-0.5v-5.9c-1.8,1.7-5.9,3.5-7.7,3.5c-0.4,0,5.2-6.6,7.7-6.1v-0.2c0-0.3,0.2-0.5,0.5-0.5
									c0.3,0,0.5,0.2,0.5,0.5v0.2C157.2-132.3,162.6-125.7,162.3-125.7"/>
							</g>
							<g id="g24_47_" transform="translate(26,23.5835)">
								<path id="path26_47_" fill="#EA596E" d="M167.3-130.1c0-3-0.8-4.5-3.3-4.5s-3.3,1.5-3.3,4.5c0,3,2.4,6.4,3.3,6.4
									C164.9-123.8,167.3-127.1,167.3-130.1"/>
							</g>
							<g id="g28_45_" transform="translate(23.7949,35)">
								<path id="path30_41_" fill="#F4ABBA" d="M168.5-136.1c-0.2,0-1.9-6.9-2.3-9.2c-0.4,2.4-2.1,9.2-2.4,9.2
									c-0.5,0-2.8-4.3-2.8-6.3c0-2,2.8-3.8,5.2-3.8c2.5,0,5.2,1.9,5.2,3.8S169-136.1,168.5-136.1"/>
							</g>
						</g>
					</g>
				</g>
			</g>
		</g>
	</g>
	<g id="g10_47_" transform="matrix(1.25,0,0,-1.25,0,47.5)">
		<g id="g12_50_">
			<g>
				<g>
					<g>
						<g id="g14_50_">
							<g id="g20_50_" transform="translate(21.1426,4.7852)">
								<path id="path22_50_" fill="#E1E8ED" d="M84.5-75.9c0-0.6-0.5-1-1-1c-0.6,0-1,0.5-1,1c0,0.6,0.5,1,1,1
									C84-74.7,84.5-75.2,84.5-75.9"/>
							</g>
							<g id="g24_48_" transform="translate(28.6426,21.3569)">
								<path id="path26_48_" fill="#E1E8ED" d="M80.7-84.5c0,2.5-2.1,4.7-4.7,4.7c-2.5,0-4.7-2.1-4.7-4.7c0-2.5-0.5-8-0.5-8
									c0-0.6,0.5-1,1-1c0.6,0,1,0.5,1,1c0-0.6,0.5-1,1-1c0.6,0,1,0.5,1,1h2.1c0-0.6,0.5-1,1-1c0.6,0,1,0.5,1,1c0-0.6,0.5-1,1-1
									c0.6,0,1,0.5,1,1C81.2-92.4,80.7-87,80.7-84.5"/>
							</g>
							<g id="g28_46_" transform="translate(21,34)">
								<path id="path30_42_" fill="#DD2E44" d="M84.7-91c0-1-0.7-2.8-0.9-2.8c-0.3,0-0.9,1.8-0.9,2.8s0.7,1.4,0.9,1.4
									S84.7-90,84.7-91"/>
							</g>
							<g id="g32_35_" transform="translate(16.6348,4)">
								<path id="path34_34_" fill="#DD2E44" d="M86.9-75.3c0,1.2,0.8,3.8,1.1,3.8s1.1-2.6,1.1-3.8s-0.8-1.4-1.1-1.4
									C87.7-76.9,86.9-76.7,86.9-75.3"/>
							</g>
							<g id="g36_31_" transform="translate(26,14.5)">
								<path id="path38_31_" fill="#F4900C" d="M82-80.9c0-0.7-2.3-2.1-3.3-2.1c-1,0-3.3,1.4-3.3,2.1s2.3,2.1,3.3,2.1
									C79.7-78.7,82-80.2,82-80.9"/>
							</g>
							<g id="g40_29_" transform="translate(26,14.5)">
								<path id="path42_29_" fill="#FFAC33" d="M82-80.9c0-0.7-6.6-0.7-6.6,0s2.3,2.1,3.3,2.1C79.7-78.7,82-80.2,82-80.9"/>
							</g>
							<g id="g44_27_" transform="translate(14,18.5)">
								<path id="path46_27_" fill="#292F33" d="M88.2-83c0-0.4-0.3-0.7-0.7-0.7c-0.4,0-0.7,0.3-0.7,0.7c0,0.4,0.3,0.7,0.7,0.7
									C87.9-82.3,88.2-82.6,88.2-83"/>
							</g>
							<g id="g48_26_" transform="translate(27,18.5)">
								<path id="path50_26_" fill="#292F33" d="M81.5-83c0-0.4-0.3-0.7-0.7-0.7c-0.4,0-0.7,0.3-0.7,0.7c0,0.4,0.3,0.7,0.7,0.7
									C81.2-82.3,81.5-82.6,81.5-83"/>
							</g>
						</g>
					</g>
				</g>
			</g>
		</g>
	</g>
	<g id="g10_48_" transform="matrix(1.25,0,0,-1.25,0,47.5)">
		<g id="g12_51_">
			<g>
				<g>
					<g>
						<g id="g14_51_">
							<g id="g20_51_" transform="translate(27,28.0005)">
								<path id="path22_51_" fill="#292F33" d="M37-132.4c-1.7,0-3,0.8-3.8,2.3c-0.8-1.5-1.9-2.3-3.3-2.3c-0.3,0-0.5,0.2-0.5,0.5
									s0.2,0.5,0.5,0.5c1.3,0,2.3,0.9,2.9,2.8c0.1,0.2,0.2,0.3,0.5,0.3s0.4-0.1,0.5-0.3c0.6-1.9,1.7-2.8,3.3-2.8
									c0.3,0,0.5-0.2,0.5-0.5C37.5-132.1,37.3-132.4,37-132.4"/>
							</g>
							<g id="g24_49_" transform="translate(15.604,27.3462)">
								<path id="path26_49_" fill="#FFAC33" d="M42.9-132c1.6-1.6,0.2-2.8-1.4-4.5s-2.8-3-4.5-1.4s-1.6,4.2,0,5.9
									S41.3-130.3,42.9-132"/>
							</g>
							<g id="g28_47_" transform="translate(16.4351,26.0278)">
								<path id="path30_43_" fill="#BE1931" d="M42.4-131.3c0.8-0.8,0.1-2.6-1.4-4.2c-1.5-1.5-3.5-2.2-4.2-1.4
									c-0.8,0.8-0.1,2.6,1.4,4.2C39.8-131.1,41.7-130.6,42.4-131.3"/>
							</g>
							<g id="g32_36_" transform="translate(22.2988,27.3462)">
								<path id="path34_35_" fill="#FFAC33" d="M39.5-132c-1.6-1.6-0.2-2.8,1.4-4.5s2.8-3,4.5-1.4s1.6,4.2,0,5.9
									C43.6-130.3,41.1-130.3,39.5-132"/>
							</g>
							<g id="g36_32_" transform="translate(21.4688,26.0278)">
								<path id="path38_32_" fill="#BE1931" d="M39.8-131.3c-0.8-0.8-0.1-2.6,1.4-4.2c1.5-1.5,3.5-2.2,4.2-1.4
									c0.8,0.8,0.1,2.6-1.4,4.2C42.5-131.1,40.5-130.6,39.8-131.3"/>
							</g>
							<g id="g40_30_" transform="translate(23.4102,18.7793)">
								<path id="path42_30_" fill="#AA8DD8" d="M38.8-127.5c0.1,0.1,0.2,0.1,0.3,0.1c0.4,0,0.8-0.2,1-0.4c0.3-0.2,0.4-0.6,0.3-0.9
									c-0.1-0.6-0.6-1.1-1.6-1c-0.4,0-0.5-0.1-0.5-0.1c0-0.1,0.1-0.2,0.5-0.3c0.4,0,0.8-0.2,1-0.4c0.3-0.2,0.4-0.6,0.3-0.9
									c-0.1-0.6-0.6-1.1-1.6-1c-0.3,0-0.4,0-0.5-0.1l-0.1-0.1c0-0.1,0.1-0.2,0.5-0.3c0.3,0,0.4-0.3,0.4-0.5c0-0.3-0.3-0.4-0.5-0.4
									c-1,0.1-1.4,0.7-1.3,1.3c0.1,0.6,0.6,1.1,1.6,1c0.3,0,0.4,0,0.5,0.1l0.1,0.1c0,0.1-0.1,0.2-0.5,0.3c-1,0.1-1.4,0.7-1.3,1.3
									c0.1,0.6,0.6,1.1,1.6,1c0.3,0,0.4,0,0.5,0.1l0.1,0.1c0,0.1-0.1,0.2-0.5,0.3c-0.3,0-0.4,0.3-0.4,0.5
									C38.7-127.7,38.8-127.6,38.8-127.5"/>
							</g>
							<g id="g44_28_" transform="translate(16.2661,1.0146)">
								<path id="path46_28_" fill="#77B255" d="M42.6-118.3c-0.9-0.3-1.6,0.2-1.7,0.7c-0.2,0.5,0.2,1.2,1.1,1.5
									c0.4,0.1,0.5,0.3,0.5,0.3c0,0.1-0.2,0.1-0.6,0c-0.9-0.3-1.6,0.2-1.7,0.7c-0.2,0.5,0.2,1.2,1.1,1.5c0.4,0.1,0.5,0.3,0.5,0.3
									c0,0.1-0.2,0.1-0.6,0c-0.3-0.1-0.5,0.1-0.6,0.3c-0.1,0.3,0.1,0.5,0.3,0.6c0.9,0.3,1.6-0.2,1.7-0.7c0.2-0.5-0.2-1.2-1.1-1.5
									c-0.4-0.1-0.5-0.3-0.5-0.3c0-0.1,0.2-0.1,0.6,0c0.9,0.3,1.6-0.2,1.7-0.7c0.2-0.5-0.2-1.2-1.1-1.5c-0.4-0.1-0.5-0.3-0.5-0.3
									c0-0.1,0.2-0.1,0.6,0c0.3,0.1,0.5-0.1,0.6-0.3C42.9-118,42.8-118.2,42.6-118.3"/>
							</g>
							<g id="g48_27_" transform="translate(2,9.5)">
								<path id="path50_27_" fill="#5C913B" d="M50-122.6c0,0.4,0.3,0.7,0.7,0.7c0.4,0,0.7-0.3,0.7-0.7s-0.3-0.7-0.7-0.7
									C50.3-123.5,50-123.1,50-122.6"/>
							</g>
							<g id="g52_22_" transform="translate(6,6)">
								<path id="path54_22_" fill="#9266CC" d="M47.9-120.9c0,0.5,0.4,0.9,0.9,0.9s0.9-0.4,0.9-0.9s-0.4-0.9-0.9-0.9
									C48.3-121.9,47.9-121.4,47.9-120.9"/>
							</g>
							<g id="g56_12_" transform="translate(29,10)">
								<path id="path58_12_" fill="#9266CC" d="M35.9-123c0,0.5,0.4,0.9,0.9,0.9c0.5,0,0.9-0.4,0.9-0.9s-0.4-0.9-0.9-0.9
									C36.4-124,35.9-123.5,35.9-123"/>
							</g>
							<g id="g60_7_" transform="translate(25,5.5)">
								<path id="path62_7_" fill="#5C913B" d="M38-120.6c0,0.4,0.3,0.7,0.7,0.7c0.4,0,0.7-0.3,0.7-0.7c0-0.4-0.3-0.7-0.7-0.7
									C38.4-121.4,38-121,38-120.6"/>
							</g>
							<g id="g64_7_" transform="translate(17,17.5)">
								<path id="path66_7_" fill="#5C913B" d="M42.1-126.8c0,0.4,0.3,0.7,0.7,0.7c0.4,0,0.7-0.3,0.7-0.7c0-0.4-0.3-0.7-0.7-0.7
									C42.4-127.5,42.1-127.2,42.1-126.8"/>
							</g>
							<g id="g68_7_" transform="translate(6,14)">
								<path id="path70_7_" fill="#FFCC4D" d="M47.9-125c0,0.5,0.4,0.9,0.9,0.9s0.9-0.4,0.9-0.9s-0.4-0.9-0.9-0.9
									C48.3-126.1,47.9-125.6,47.9-125"/>
							</g>
							<g id="g72_7_" transform="translate(27,20.5)">
								<path id="path74_7_" fill="#FFCC4D" d="M37-128.4c0,0.4,0.3,0.7,0.7,0.7c0.4,0,0.7-0.3,0.7-0.7s-0.3-0.7-0.7-0.7
									C37.3-129.1,37-128.8,37-128.4"/>
							</g>
							<g id="g76_7_" transform="translate(12,22.5)">
								<path id="path78_7_" fill="#FFCC4D" d="M44.8-129.5c0,0.4,0.3,0.7,0.7,0.7c0.4,0,0.7-0.3,0.7-0.7s-0.3-0.7-0.7-0.7
									C45.1-130.2,44.8-129.9,44.8-129.5"/>
							</g>
						</g>
					</g>
				</g>
			</g>
		</g>
	</g>
	<g id="g10_9_" transform="matrix(1.25,0,0,-1.25,0,47.5)">
		<g id="g12_12_">
			<g>
				<g>
					<g>
						<g id="g14_12_">
							<g id="g20_12_" transform="translate(12.9829,33.438)">
								<path id="path22_12_" fill="#FFAC33" d="M110.1-91c2.2,0.1,3.7-0.8,3.8-3.3c0.1-2.1-2.5-3.3-3.8-3.3c-1.2,0-0.6,0.9,0.3,1.1
									c0.7,0.2,2.1,1.1,1.7,2.1c-0.3,1.1-2.1,1.3-3-0.1c-0.4-0.6-1.7-0.4-1.9,0.2C106.6-93.2,107.6-91.2,110.1-91"/>
							</g>
							<g id="g24_11_" transform="translate(36.75,15.6162)">
								<path id="path26_11_" fill="#E1E8ED" d="M97.7-81.7c0,3.7-2.1,5.4-7,5.4c-0.5,0-1,0-1.4-0.1c-0.6,1.1-2.3,1.3-4,1.3
									c-2.1,0-4.7-2.9-4.7-5.2s1.7-2.3,3.7-2.3c0.1-1.5,0.6-2.8,1.5-3.5c0.1-0.5,0.7-2.8,1.9-2.8c0.6,0,1,0.8,1.2,1.6
									c0.5-0.1,1.1-0.1,1.8-0.1c0.8,0,1.6,0.1,2.2,0.2c0-0.8,0.3-1.7,1-1.7c1.1,0,2.1,2.4,2.3,3.1C97.2-84.8,97.7-83.5,97.7-81.7"
									/>
							</g>
							<g id="g28_11_" transform="translate(7,21.2139)">
								<path id="path30_9_" fill="#292F33" d="M113.1-84.7c0-0.4-0.3-0.7-0.7-0.7s-0.7,0.3-0.7,0.7c0,0.4,0.3,0.7,0.7,0.7
									S113.1-84.3,113.1-84.7"/>
							</g>
							<g id="g32_7_" transform="translate(18.5625,32.6611)">
								<path id="path34_7_" fill="#FFCC4D" d="M107.1-90.7c2.1-0.7,2.8-2.1,1.9-4.3c-0.6-1.9-3.5-2.1-4.9-1.6
									c-1.1,0.4-0.3,1.1,0.7,0.9c0.8-0.1,2.2,0.3,2.4,1.3c0.1,1.1-1.4,1.9-2.8,1c-0.6-0.4-2.8-0.2-2.6,0.5
									C102.2-91.4,104.8-89.9,107.1-90.7"/>
							</g>
						</g>
					</g>
				</g>
			</g>
		</g>
	</g>
	<g id="g10_20_" transform="matrix(1.25,0,0,-1.25,0,47.5)">
		<g id="g12_46_">
			<g>
				<g>
					<g>
						<g id="g14_46_">
							<g id="g20_35_" transform="translate(12.9829,33.438)">
								<path id="path22_35_" fill="#FFAC33" d="M110.1-134.5c2.2,0.1,3.7-0.8,3.8-3.3c0.1-2.1-2.5-3.3-3.8-3.3
									c-1.2,0-0.6,0.9,0.3,1.1c0.7,0.2,2.1,1.1,1.7,2.1c-0.3,1.1-2.1,1.3-3-0.1c-0.4-0.6-1.7-0.4-1.9,0.2
									C106.6-136.6,107.6-134.6,110.1-134.5"/>
							</g>
							<g id="g24_28_" transform="translate(36.75,15.6162)">
								<path id="path26_28_" fill="#E1E8ED" d="M97.7-125.2c0,3.7-2.1,5.4-7,5.4c-0.5,0-1,0-1.4-0.1c-0.6,1.1-2.3,1.3-4,1.3
									c-2.1,0-4.7-2.9-4.7-5.2s1.7-2.3,3.7-2.3c0.1-1.5,0.6-2.8,1.5-3.5c0.1-0.5,0.7-2.8,1.9-2.8c0.6,0,1,0.8,1.2,1.6
									c0.5-0.1,1.1-0.1,1.8-0.1c0.8,0,1.6,0.1,2.2,0.2c0-0.8,0.3-1.7,1-1.7c1.1,0,2.1,2.4,2.3,3.1
									C97.2-128.2,97.7-126.9,97.7-125.2"/>
							</g>
							<g id="g28_37_" transform="translate(7,21.2139)">
								<path id="path30_28_" fill="#292F33" d="M113.1-128.2c0-0.4-0.3-0.7-0.7-0.7s-0.7,0.3-0.7,0.7s0.3,0.7,0.7,0.7
									S113.1-127.8,113.1-128.2"/>
							</g>
							<g id="g32_34_" transform="translate(18.5625,32.6611)">
								<path id="path34_19_" fill="#FFCC4D" d="M107.1-134.1c2.1-0.7,2.8-2.1,1.9-4.3c-0.6-1.9-3.5-2.1-4.9-1.6
									c-1.1,0.4-0.3,1.1,0.7,0.9c0.8-0.1,2.2,0.3,2.4,1.3c0.1,1.1-1.4,1.9-2.8,1c-0.6-0.4-2.8-0.2-2.6,0.5
									C102.2-134.8,104.8-133.4,107.1-134.1"/>
							</g>
						</g>
					</g>
				</g>
			</g>
		</g>
	</g>
	<g id="g10_7_" transform="matrix(1.25,0,0,-1.25,0,47.5)">
		<g id="g12_10_">
			<g>
				<g>
					<g>
						<g id="g14_10_">
							<g id="g20_10_" transform="translate(36.8848,25.1665)">
								<path id="path22_10_" fill="#BE1931" d="M31.7-87.5c0,2.6-2.1,4.7-4.7,4.7c-1.6,0-2.9-0.8-3.8-1.9c-0.8,1.2-2.2,1.9-3.8,1.9
									c-2.6,0-4.7-2.1-4.7-4.7c0-0.4,0-0.7,0.1-1.1c0.6-4,5.2-8.3,8.4-9.5c3.3,1.2,7.7,5.4,8.4,9.5C31.7-88.3,31.7-87.8,31.7-87.5
									"/>
							</g>
						</g>
					</g>
				</g>
			</g>
		</g>
	</g>
	<g id="g10_5_" transform="matrix(1.25,0,0,-1.25,0,47.5)">
		<g id="g12_8_">
			<g>
				<g>
					<g>
						<g id="g14_8_">
							<g id="g20_8_" transform="translate(19,33)">
								<path id="path22_5_" fill="#F4900C" d="M63.7-135.1c3.5,0,6.2-1.9,7-0.9c0.1,0.2,0.1,0.3,0.1,0.5c0,0.9-3.3,2.4-7.1,2.4
									c-4,0-7.1-1.4-7.1-2.4c0-0.2,0-0.3,0.1-0.5C57.6-137,60.3-135.1,63.7-135.1"/>
							</g>
							<g id="g24_8_" transform="translate(19,34)">
								<path id="path26_5_" fill="#FFCC4D" d="M63.7-135.8c-2.9,0-5-0.9-5.9-1.2c-0.2-0.1-0.3-0.4-0.2-0.6
									c0.1-0.1,5.1-12.9,5.1-12.9s0.4-0.9,0.9-0.9c0.5,0,0.9,0.9,0.9,0.9l5,12.9c0,0,0.1,0.4-0.3,0.6
									C68.7-136.5,66.7-135.8,63.7-135.8"/>
							</g>
						</g>
					</g>
				</g>
			</g>
		</g>
		<g id="g28_8_">
			<g>
				<g>
					<g>
						<g>
							<g>
								<g>
									<g>
										<g>
											<defs>
												<path id="SVGID_3_" d="M77-103c-0.2-0.1-0.3-0.4-0.2-0.6l0,0c0.1-0.2,5-12.9,5-12.9l0,0c0,0,0.5-0.9,0.9-0.9l0,0
													c0.5,0,0.9,0.9,0.9,0.9l0,0l5,12.9c0,0,0.1,0.4-0.3,0.6l0,0c-0.8,0.4-2.9,1.2-5.7,1.2l0,0C79.8-101.8,77.7-102.6,77-103
													"/>
											</defs>
											<clipPath id="SVGID_4_">
												<use xlink:href="#SVGID_3_"  overflow="visible"/>
											</clipPath>
											<g id="g30_1_" clip-path="url(#SVGID_4_)">
												<g id="g36_6_" transform="translate(19,6)">
													<path id="path38_6_" fill="#BE1931" d="M63.7-121c0-1-0.8-1.9-1.9-1.9c-1,0-1.9,0.8-1.9,1.9c0,1.1,0.8,1.9,1.9,1.9
														S63.7-119.9,63.7-121"/>
												</g>
												<g id="g40_7_" transform="translate(18,17)">
													<path id="path42_7_" fill="#BE1931" d="M64.3-126.8c0-1-0.8-1.9-1.9-1.9c-1,0-1.9,0.8-1.9,1.9c0,1,0.8,1.9,1.9,1.9
														C63.4-124.9,64.3-125.7,64.3-126.8"/>
												</g>
												<g id="g44_7_" transform="translate(21,29)">
													<path id="path46_7_" fill="#BE1931" d="M62.7-133c0-1-0.8-1.9-1.9-1.9c-1,0-1.9,0.8-1.9,1.9c0,1,0.8,1.9,1.9,1.9
														C61.9-131.1,62.7-132.1,62.7-133"/>
												</g>
												<g id="g48_6_" transform="translate(30,24)">
													<path id="path50_6_" fill="#BE1931" d="M57.9-130.5c0-1-0.8-1.9-1.9-1.9s-1.9,0.8-1.9,1.9c0,1,0.8,1.9,1.9,1.9
														S57.9-129.4,57.9-130.5"/>
												</g>
												<g id="g52_5_" transform="translate(28,12)">
													<path id="path54_5_" fill="#BE1931" d="M59.1-124.2c0-1-0.8-1.9-1.9-1.9s-1.9,0.8-1.9,1.9c0,1,0.8,1.9,1.9,1.9
														C58.2-122.3,59.1-123.1,59.1-124.2"/>
												</g>
												<g id="g56_3_" transform="translate(11,25)">
													<path id="path58_3_" fill="#BE1931" d="M68-131c0-1-0.8-1.9-1.9-1.9c-1,0-1.9,0.8-1.9,1.9c0,1,0.8,1.9,1.9,1.9
														C67-129,68-129.9,68-131"/>
												</g>
											</g>
										</g>
									</g>
								</g>
							</g>
						</g>
					</g>
				</g>
			</g>
		</g>
	</g>
</g>
<g id="onboarding_slide_5_encrypted_emoji_3">
	<g id="g10_14_" transform="matrix(1.25,0,0,-1.25,0,47.5)">
		<g id="g12_17_">
			<g>
				<g>
					<g>
						<g id="g14_17_">
							<g id="g20_17_" transform="translate(36,19)">
								<path id="path22_17_" fill="#FFCC4D" d="M33.5-82.9c0-4.5-3.6-8.2-8.2-8.2s-8.2,3.6-8.2,8.2c0,4.5,3.6,8.2,8.2,8.2
									C29.8-74.9,33.5-78.5,33.5-82.9"/>
							</g>
							<g id="g24_15_" transform="translate(29.457,19.2031)">
								<path id="path26_15_" fill="#664500" d="M36.8-83c0,0.1-0.7,1.6-2.1,1.6c-1.4,0-2.1-1.5-2.1-1.6s0-0.2,0.1-0.3
									s0.2-0.1,0.3,0c0,0,0.6,0.4,1.8,0.4c1.2,0,1.7-0.4,1.8-0.4h0.1c0.1,0,0.1,0,0.1,0.1C36.8-83.2,36.8-83.1,36.8-83"/>
							</g>
							<g id="g28_15_" transform="translate(17.457,19.2031)">
								<path id="path30_13_" fill="#664500" d="M43.1-83c0,0.1-0.7,1.6-2.1,1.6s-2.1-1.5-2.1-1.6s0-0.2,0.1-0.3s0.2-0.1,0.3,0
									c0,0,0.6,0.4,1.8,0.4s1.7-0.4,1.8-0.4H43c0.1,0,0.1,0,0.1,0.1C43.1-83.2,43.1-83.1,43.1-83"/>
							</g>
							<g id="g32_12_" transform="translate(32,20.9995)">
								<path id="path34_11_" fill="#664500" d="M35.6-84c-0.2,0-0.4,0.1-0.4,0.3c-0.8,2.1-3,2.6-3,2.6c-0.3,0.1-0.4,0.3-0.4,0.6
									c0.1,0.3,0.3,0.4,0.6,0.4c0.1,0,2.6-0.6,3.7-3.1c0.1-0.2,0-0.5-0.3-0.6C35.7-84,35.6-84,35.6-84"/>
							</g>
							<g id="g36_12_" transform="translate(5.9995,20.9995)">
								<path id="path38_12_" fill="#664500" d="M49-84c-0.1,0-0.1,0-0.2,0c-0.2,0.1-0.4,0.4-0.3,0.6c1,2.6,3.6,3.1,3.7,3.1
									c0.3,0.1,0.5-0.1,0.6-0.4c0.1-0.3-0.1-0.5-0.4-0.6c-0.1,0-2.1-0.5-3-2.6C49.4-83.9,49.2-84,49-84"/>
							</g>
							<g id="g40_12_" transform="translate(19,15)">
								<path id="path42_12_" fill="#664500" d="M42.3-80.8c-1.7,0-2.9,0.2-4.3,0.5c-0.3,0.1-0.9,0-0.9-0.9c0-1.9,2.2-4.3,5.2-4.3
									c3,0,5.2,2.4,5.2,4.3c0,0.9-0.6,1-0.9,0.9C45.2-80.6,44-80.8,42.3-80.8"/>
							</g>
							<g id="g44_12_" transform="translate(10,14)">
								<path id="path46_12_" fill="#FFFFFF" d="M47-80.3c0,0,1.4-0.5,4.3-0.5c2.8,0,4.3,0.5,4.3,0.5s-0.9-1.9-4.3-1.9
									C48-82.2,47-80.3,47-80.3"/>
							</g>
							<g id="g48_11_" transform="translate(11.8472,8.7705)">
								<path id="path50_11_" fill="#5DADEC" d="M46-77.7c-0.3-1.3-1.6-2.1-2.9-1.7c-1.3,0.3-2.1,1.6-1.7,2.9c0.3,1.3,3,4.2,3.5,4
									C45.4-72.5,46.4-76.3,46-77.7"/>
							</g>
							<g id="g52_7_" transform="translate(26.1328,8.7705)">
								<path id="path54_7_" fill="#5DADEC" d="M38.5-77.7c0.3-1.3,1.6-2.1,2.9-1.7c1.3,0.3,2.1,1.6,1.7,2.9c-0.4,1.3-3,4.2-3.5,4
									C39.2-72.5,38.2-76.3,38.5-77.7"/>
							</g>
						</g>
					</g>
				</g>
			</g>
		</g>
	</g>
	<g id="g10_10_" transform="matrix(1.25,0,0,-1.25,0,47.5)">
		<g id="g12_13_">
			<g>
				<g>
					<g>
						<g id="g14_13_">
							<g id="g20_13_" transform="translate(34.7988,36.9946)">
								<path id="path22_13_" fill="#99AAB5" d="M142.4-93.7c-0.2,0.1-3.8-1.9-4.7-4.3c-0.6-1.4-0.8-2.9-0.8-3.8
									c-0.7,0.4-1.4,0.6-2.1,0.6c-0.6,0-1.3-0.2-2.1-0.6c0,1-0.2,2.4-0.8,3.8c-0.9,2.4-4.5,4.5-4.7,4.3c-0.2-0.1,2.1-7.7,3.3-10
									c-1.1-1.2-2.1-2.8-2.1-4.3c0-1.5,0.8-2.4,1.9-2.8c1.2-0.4,2.4,0.4,4.3,0.4s3.1-0.9,4.3-0.4c1.1,0.4,1.9,1.3,1.9,2.8
									c0,1.5-0.9,3-2.1,4.3C140.4-101.4,142.6-93.9,142.4-93.7"/>
							</g>
							<g id="g24_10_" transform="translate(13.6919,19.0781)">
								<path id="path26_10_" fill="#F4ABBA" d="M153.4-84.4c-0.1,0.7-0.3,1.7-0.7,2.6c-0.7,1.9-2.8,3.5-2.9,3.5
									c-0.2-0.1,1.2-4.9,2.3-7.1C152.5-85,152.9-84.7,153.4-84.4"/>
							</g>
							<g id="g28_10_" transform="translate(27.0303,16.9063)">
								<path id="path30_8_" fill="#F4ABBA" d="M146.5-83.2c1,2.2,2.4,7.1,2.3,7.1c-0.2,0.1-2.1-1.5-2.9-3.5c-0.4-1-0.6-1.9-0.7-2.6
									C145.5-82.5,146-82.8,146.5-83.2"/>
							</g>
							<g id="g32_5_" transform="translate(26,7)">
								<path id="path34_6_" fill="#CCD6DD" d="M147-78.1c0-1.3-1.5-2.4-3.3-2.4c-1.8,0-3.3,1.1-3.3,2.4s1.5,2.4,3.3,2.4
									C145.6-75.7,147-76.8,147-78.1"/>
							</g>
							<g id="g36_9_" transform="translate(22,6.4219)">
								<path id="path38_9_" fill="#FFFFFF" d="M149.1-77.8c0-1.3-0.1-1.4-1.4-1.4c-1.3,0-1.4,0.1-1.4,1.4
									C146.2-77.3,149.1-77.3,149.1-77.8"/>
							</g>
							<g id="g40_9_" transform="translate(15,12.6719)">
								<path id="path42_9_" fill="#292F33" d="M152.7-81.1c0-0.4-0.3-0.7-0.7-0.7c-0.4,0-0.7,0.3-0.7,0.7c0,0.4,0.3,0.7,0.7,0.7
									C152.4-80.4,152.7-80.7,152.7-81.1"/>
							</g>
							<g id="g44_9_" transform="translate(26,12.6719)">
								<path id="path46_9_" fill="#292F33" d="M147-81.1c0-0.4-0.3-0.7-0.7-0.7c-0.4,0-0.7,0.3-0.7,0.7c0,0.4,0.3,0.7,0.7,0.7
									C146.6-80.4,147-80.7,147-81.1"/>
							</g>
							<g id="g48_8_" transform="translate(22,11.1719)">
								<path id="path50_8_" fill="#F4ABBA" d="M149.1-80.3c0-0.8-0.9-1.4-1.4-1.4c-0.5,0-1.4,0.6-1.4,1.4
									C146.2-79.4,149.1-79.4,149.1-80.3"/>
							</g>
						</g>
					</g>
				</g>
			</g>
		</g>
	</g>
	<g id="g10_11_" transform="matrix(1.25,0,0,-1.25,0,47.5)">
		<g id="g12_14_">
			<g>
				<g>
					<g>
						<g id="g14_14_">
							<g id="g20_14_" transform="translate(34.7988,36.9946)">
								<path id="path22_14_" fill="#99AAB5" d="M163.5-137.2c-0.2,0.1-3.8-1.9-4.7-4.3c-0.6-1.4-0.8-2.9-0.8-3.8
									c-0.7,0.4-1.4,0.6-2.1,0.6c-0.6,0-1.3-0.2-2.1-0.6c0,1-0.2,2.4-0.8,3.8c-0.9,2.4-4.5,4.5-4.7,4.3c-0.2-0.1,2.1-7.7,3.3-10
									c-1.1-1.2-2.1-2.8-2.1-4.3s0.8-2.4,1.9-2.8c1.2-0.4,2.4,0.4,4.3,0.4s3.1-0.9,4.3-0.4c1.1,0.4,1.9,1.3,1.9,2.8
									s-0.9,3-2.1,4.3C161.5-144.9,163.7-137.3,163.5-137.2"/>
							</g>
							<g id="g24_12_" transform="translate(13.6919,19.0781)">
								<path id="path26_12_" fill="#F4ABBA" d="M174.5-127.9c-0.1,0.7-0.3,1.7-0.7,2.6c-0.7,1.9-2.8,3.5-2.9,3.5
									c-0.2-0.1,1.2-4.9,2.3-7.1C173.6-128.5,174-128.2,174.5-127.9"/>
							</g>
							<g id="g28_12_" transform="translate(27.0303,16.9063)">
								<path id="path30_10_" fill="#F4ABBA" d="M167.6-126.7c1,2.2,2.4,7.1,2.3,7.1c-0.2,0.1-2.1-1.5-2.9-3.5
									c-0.4-1-0.6-1.9-0.7-2.6C166.6-126,167.1-126.3,167.6-126.7"/>
							</g>
							<g id="g32_9_" transform="translate(26,7)">
								<path id="path34_9_" fill="#CCD6DD" d="M168.1-121.5c0-1.3-1.5-2.4-3.3-2.4c-1.8,0-3.3,1.1-3.3,2.4s1.5,2.4,3.3,2.4
									C166.7-119.1,168.1-120.3,168.1-121.5"/>
							</g>
							<g id="g36_10_" transform="translate(22,6.4219)">
								<path id="path38_10_" fill="#FFFFFF" d="M170.2-121.2c0-1.3-0.1-1.4-1.4-1.4c-1.3,0-1.4,0.1-1.4,1.4
									C167.3-120.7,170.2-120.7,170.2-121.2"/>
							</g>
							<g id="g40_10_" transform="translate(15,12.6719)">
								<path id="path42_10_" fill="#292F33" d="M173.8-124.5c0-0.4-0.3-0.7-0.7-0.7c-0.4,0-0.7,0.3-0.7,0.7c0,0.4,0.3,0.7,0.7,0.7
									C173.5-123.8,173.8-124.1,173.8-124.5"/>
							</g>
							<g id="g44_10_" transform="translate(26,12.6719)">
								<path id="path46_10_" fill="#292F33" d="M168.1-124.5c0-0.4-0.3-0.7-0.7-0.7c-0.4,0-0.7,0.3-0.7,0.7c0,0.4,0.3,0.7,0.7,0.7
									C167.7-123.8,168.1-124.1,168.1-124.5"/>
							</g>
							<g id="g48_9_" transform="translate(22,11.1719)">
								<path id="path50_9_" fill="#F4ABBA" d="M170.2-123.8c0-0.8-0.9-1.4-1.4-1.4c-0.5,0-1.4,0.6-1.4,1.4
									C167.3-122.9,170.2-122.9,170.2-123.8"/>
							</g>
						</g>
					</g>
				</g>
			</g>
		</g>
	</g>
	<g id="g10_12_" transform="matrix(1.25,0,0,-1.25,0,47.5)">
		<g id="g12_15_">
			<g>
				<g>
					<g>
						<g id="g14_15_">
							<g id="g20_15_" transform="translate(34.7988,36.9946)">
								<path id="path22_15_" fill="#99AAB5" d="M55.5-91.2c-0.2,0.1-3.8-1.9-4.7-4.3c-0.6-1.4-0.8-2.9-0.8-3.8
									c-0.7,0.4-1.4,0.6-2.1,0.6c-0.6,0-1.3-0.2-2.1-0.6c0,1-0.2,2.4-0.8,3.8c-0.9,2.4-4.5,4.5-4.7,4.3c-0.2-0.1,2.1-7.7,3.3-10
									c-1.1-1.2-2.1-2.8-2.1-4.3c0-1.5,0.8-2.4,1.9-2.8c1.2-0.4,2.4,0.4,4.3,0.4s3.1-0.9,4.3-0.4c1.1,0.4,1.9,1.3,1.9,2.8
									c0,1.5-0.9,3-2.1,4.3C53.5-98.9,55.7-91.4,55.5-91.2"/>
							</g>
							<g id="g24_13_" transform="translate(13.6919,19.0781)">
								<path id="path26_13_" fill="#F4ABBA" d="M66.5-81.9c-0.1,0.7-0.3,1.7-0.7,2.6c-0.7,1.9-2.8,3.5-2.9,3.5
									c-0.2-0.1,1.2-4.9,2.3-7.1C65.6-82.5,66-82.2,66.5-81.9"/>
							</g>
							<g id="g28_13_" transform="translate(27.0303,16.9063)">
								<path id="path30_11_" fill="#F4ABBA" d="M59.6-80.7c1,2.2,2.4,7.1,2.3,7.1c-0.2,0.1-2.1-1.5-2.9-3.5c-0.4-1-0.6-1.9-0.7-2.6
									C58.7-80,59.2-80.3,59.6-80.7"/>
							</g>
							<g id="g32_11_" transform="translate(26,7)">
								<path id="path34_10_" fill="#CCD6DD" d="M60.1-75.6c0-1.3-1.5-2.4-3.3-2.4c-1.8,0-3.3,1.1-3.3,2.4s1.5,2.4,3.3,2.4
									C58.7-73.2,60.1-74.3,60.1-75.6"/>
							</g>
							<g id="g36_11_" transform="translate(22,6.4219)">
								<path id="path38_11_" fill="#FFFFFF" d="M62.2-75.3c0-1.3-0.1-1.4-1.4-1.4s-1.4,0.1-1.4,1.4C59.4-74.8,62.2-74.8,62.2-75.3"
									/>
							</g>
							<g id="g40_11_" transform="translate(15,12.6719)">
								<path id="path42_11_" fill="#292F33" d="M65.8-78.6c0-0.4-0.3-0.7-0.7-0.7s-0.7,0.3-0.7,0.7c0,0.4,0.3,0.7,0.7,0.7
									S65.8-78.2,65.8-78.6"/>
							</g>
							<g id="g44_11_" transform="translate(26,12.6719)">
								<path id="path46_11_" fill="#292F33" d="M60.1-78.6c0-0.4-0.3-0.7-0.7-0.7s-0.7,0.3-0.7,0.7c0,0.4,0.3,0.7,0.7,0.7
									C59.7-77.9,60.1-78.2,60.1-78.6"/>
							</g>
							<g id="g48_10_" transform="translate(22,11.1719)">
								<path id="path50_10_" fill="#F4ABBA" d="M62.2-77.8c0-0.8-0.9-1.4-1.4-1.4s-1.4,0.6-1.4,1.4C59.4-76.9,62.2-76.9,62.2-77.8"
									/>
							</g>
						</g>
					</g>
				</g>
			</g>
		</g>
	</g>
	<g id="g10_17_" transform="matrix(1.25,0,0,-1.25,0,47.5)">
		<g id="g12_20_">
			<g>
				<g>
					<g>
						<g id="g14_20_">
							<g id="g20_20_" transform="translate(18,19)">
								<path id="path22_20_" fill="#E1E8ED" d="M42-128.5c0-2.6-1.8-4.7-4-4.7s-4,2.1-4,4.7c0,2.6,1.8,4.7,4,4.7
									C40.2-123.8,42-125.9,42-128.5"/>
							</g>
							<g id="g24_18_" transform="translate(37,19)">
								<path id="path26_18_" fill="#E1E8ED" d="M32.2-128.5c0-2.6-1.8-4.7-4-4.7c-2.2,0-4,2.1-4,4.7c0,2.6,1.8,4.7,4,4.7
									C30.4-123.8,32.2-125.9,32.2-128.5"/>
							</g>
							<g id="g28_18_" transform="translate(9,15)">
								<path id="path30_16_" fill="#292F33" d="M46.8-126.4c0-0.8-0.6-1.4-1.4-1.4c-0.8,0-1.4,0.6-1.4,1.4c0,0.8,0.6,1.4,1.4,1.4
									C46.1-125,46.8-125.6,46.8-126.4"/>
							</g>
							<g id="g32_14_" transform="translate(28,15)">
								<path id="path34_13_" fill="#292F33" d="M36.9-126.4c0-0.8-0.6-1.4-1.4-1.4c-0.8,0-1.4,0.6-1.4,1.4c0,0.8,0.6,1.4,1.4,1.4
									C36.2-125,36.9-125.6,36.9-126.4"/>
							</g>
						</g>
					</g>
				</g>
			</g>
		</g>
	</g>
	<g id="g10_16_" transform="matrix(1.25,0,0,-1.25,0,47.5)">
		<g id="g12_19_">
			<g>
				<g>
					<g>
						<g id="g14_19_">
							<g id="g20_19_" transform="translate(35.751,15)">
								<path id="path22_19_" fill="#77B255" d="M141.8-126.4c-1.6,0-5.7-1.7-7.6-3.5v5.9c0,0.3-0.2,0.5-0.5,0.5
									c-0.3,0-0.5-0.2-0.5-0.5v-5.9c-1.8,1.7-5.9,3.5-7.7,3.5c-0.4,0,5.2-6.6,7.7-6.1v-0.2c0-0.3,0.2-0.5,0.5-0.5
									c0.3,0,0.5,0.2,0.5,0.5v0.2C136.7-133,142.2-126.4,141.8-126.4"/>
							</g>
							<g id="g24_17_" transform="translate(26,23.5835)">
								<path id="path26_17_" fill="#EA596E" d="M146.9-130.8c0-3-0.8-4.5-3.3-4.5c-2.5,0-3.3,1.5-3.3,4.5c0,3,2.4,6.4,3.3,6.4
									C144.4-124.4,146.9-127.8,146.9-130.8"/>
							</g>
							<g id="g28_17_" transform="translate(23.7949,35)">
								<path id="path30_15_" fill="#F4ABBA" d="M148-136.8c-0.2,0-1.9-6.9-2.3-9.2c-0.4,2.4-2.1,9.2-2.4,9.2
									c-0.5,0-2.8-4.3-2.8-6.3c0-2,2.8-3.8,5.2-3.8c2.5,0,5.2,1.9,5.2,3.8S148.6-136.8,148-136.8"/>
							</g>
						</g>
					</g>
				</g>
			</g>
		</g>
	</g>
	<g id="g10_13_" transform="matrix(1.25,0,0,-1.25,0,47.5)">
		<g id="g12_16_">
			<g>
				<g>
					<g>
						<g id="g14_16_">
							<g id="g20_16_" transform="translate(35.751,15)">
								<path id="path22_16_" fill="#77B255" d="M77-82.1c-1.6,0-5.7-1.7-7.6-3.5v5.9c0,0.3-0.2,0.5-0.5,0.5s-0.5-0.2-0.5-0.5v-5.9
									c-1.8,1.7-5.9,3.5-7.7,3.5c-0.4,0,5.2-6.6,7.7-6.1v-0.2c0-0.3,0.2-0.5,0.5-0.5s0.5,0.2,0.5,0.5v0.2
									C71.9-88.7,77.3-82.1,77-82.1"/>
							</g>
							<g id="g24_14_" transform="translate(26,23.5835)">
								<path id="path26_14_" fill="#EA596E" d="M82-86.5c0-3-0.8-4.5-3.3-4.5c-2.5,0-3.3,1.5-3.3,4.5c0,3,2.4,6.4,3.3,6.4
									C79.5-80.2,82-83.5,82-86.5"/>
							</g>
							<g id="g28_14_" transform="translate(23.7949,35)">
								<path id="path30_12_" fill="#F4ABBA" d="M83.2-92.5c-0.2,0-1.9-6.9-2.3-9.2c-0.4,2.4-2.1,9.2-2.4,9.2
									c-0.5,0-2.8-4.3-2.8-6.3c0-2,2.8-3.8,5.2-3.8c2.5,0,5.2,1.9,5.2,3.8S83.7-92.5,83.2-92.5"/>
							</g>
						</g>
					</g>
				</g>
			</g>
		</g>
	</g>
	<g id="g10_19_" transform="matrix(1.25,0,0,-1.25,0,47.5)">
		<g id="g12_22_">
			<g>
				<g>
					<g>
						<g id="g14_22_">
							<g id="g20_22_" transform="translate(21.1426,4.7852)">
								<path id="path22_22_" fill="#E1E8ED" d="M62.6-119.8c0-0.6-0.5-1-1-1c-0.6,0-1,0.5-1,1c0,0.6,0.5,1,1,1
									C62.1-118.6,62.6-119.1,62.6-119.8"/>
							</g>
							<g id="g24_19_" transform="translate(28.6426,21.3569)">
								<path id="path26_19_" fill="#E1E8ED" d="M58.8-128.4c0,2.5-2.1,4.7-4.7,4.7c-2.5,0-4.7-2.1-4.7-4.7c0-2.5-0.5-8-0.5-8
									c0-0.6,0.5-1,1-1c0.6,0,1,0.5,1,1c0-0.6,0.5-1,1-1c0.6,0,1,0.5,1,1H55c0-0.6,0.5-1,1-1c0.6,0,1,0.5,1,1c0-0.6,0.5-1,1-1
									c0.6,0,1,0.5,1,1C59.3-136.3,58.8-130.9,58.8-128.4"/>
							</g>
							<g id="g28_20_" transform="translate(21,34)">
								<path id="path30_18_" fill="#DD2E44" d="M62.7-134.9c0-1-0.7-2.8-0.9-2.8c-0.3,0-0.9,1.8-0.9,2.8s0.7,1.4,0.9,1.4
									C62-133.5,62.7-133.9,62.7-134.9"/>
							</g>
							<g id="g32_16_" transform="translate(16.6348,4)">
								<path id="path34_15_" fill="#DD2E44" d="M65-119.2c0,1.2,0.8,3.8,1.1,3.8s1.1-2.6,1.1-3.8s-0.8-1.4-1.1-1.4
									C65.8-120.8,65-120.6,65-119.2"/>
							</g>
							<g id="g36_13_" transform="translate(26,14.5)">
								<path id="path38_13_" fill="#F4900C" d="M60-124.8c0-0.7-2.3-2.1-3.3-2.1c-1,0-3.3,1.4-3.3,2.1s2.3,2.1,3.3,2.1
									C57.8-122.6,60-124.1,60-124.8"/>
							</g>
							<g id="g40_13_" transform="translate(26,14.5)">
								<path id="path42_13_" fill="#FFAC33" d="M60-124.8c0-0.7-6.6-0.7-6.6,0s2.3,2.1,3.3,2.1C57.8-122.6,60-124.1,60-124.8"/>
							</g>
							<g id="g44_13_" transform="translate(14,18.5)">
								<path id="path46_13_" fill="#292F33" d="M66.2-126.9c0-0.4-0.3-0.7-0.7-0.7c-0.4,0-0.7,0.3-0.7,0.7c0,0.4,0.3,0.7,0.7,0.7
									C66-126.2,66.2-126.5,66.2-126.9"/>
							</g>
							<g id="g48_12_" transform="translate(27,18.5)">
								<path id="path50_12_" fill="#292F33" d="M59.5-126.9c0-0.4-0.3-0.7-0.7-0.7c-0.4,0-0.7,0.3-0.7,0.7c0,0.4,0.3,0.7,0.7,0.7
									C59.3-126.2,59.5-126.5,59.5-126.9"/>
							</g>
						</g>
					</g>
				</g>
			</g>
		</g>
	</g>
	<g id="g10_15_" transform="matrix(1.25,0,0,-1.25,0,47.5)">
		<g id="g12_18_">
			<g>
				<g>
					<g>
						<g id="g14_18_">
							<g id="g20_18_" transform="translate(12.9829,33.438)">
								<path id="path22_18_" fill="#FFAC33" d="M197.2-136.3c2.2,0.1,3.7-0.8,3.8-3.3c0.1-2.1-2.5-3.3-3.8-3.3
									c-1.2,0-0.6,0.9,0.3,1.1c0.7,0.2,2.1,1.1,1.7,2.1c-0.3,1.1-2.1,1.3-3-0.1c-0.4-0.6-1.7-0.4-1.9,0.2
									C193.8-138.5,194.7-136.5,197.2-136.3"/>
							</g>
							<g id="g24_16_" transform="translate(36.75,15.6162)">
								<path id="path26_16_" fill="#E1E8ED" d="M184.8-127c0,3.7-2.1,5.4-7,5.4c-0.5,0-1,0-1.4-0.1c-0.6,1.1-2.3,1.3-4,1.3
									c-2.1,0-4.7-2.9-4.7-5.2s1.7-2.3,3.7-2.3c0.1-1.5,0.6-2.8,1.5-3.5c0.1-0.5,0.7-2.8,1.9-2.8c0.6,0,1,0.8,1.2,1.6
									c0.5-0.1,1.1-0.1,1.8-0.1c0.8,0,1.6,0.1,2.2,0.2c0-0.8,0.3-1.7,1-1.7c1.1,0,2.1,2.4,2.3,3.1
									C184.3-130.1,184.8-128.8,184.8-127"/>
							</g>
							<g id="g28_16_" transform="translate(7,21.2139)">
								<path id="path30_14_" fill="#292F33" d="M200.2-130c0-0.4-0.3-0.7-0.7-0.7s-0.7,0.3-0.7,0.7s0.3,0.7,0.7,0.7
									S200.2-129.7,200.2-130"/>
							</g>
							<g id="g32_13_" transform="translate(18.5625,32.6611)">
								<path id="path34_12_" fill="#FFCC4D" d="M194.2-136c2.1-0.7,2.8-2.1,1.9-4.3c-0.6-1.9-3.5-2.1-4.9-1.6
									c-1.1,0.4-0.3,1.1,0.7,0.9c0.8-0.1,2.2,0.3,2.4,1.3c0.1,1.1-1.4,1.9-2.8,1c-0.6-0.4-2.8-0.2-2.6,0.5
									C189.3-136.7,192-135.2,194.2-136"/>
							</g>
						</g>
					</g>
				</g>
			</g>
		</g>
	</g>
	<g id="g10_28_" transform="matrix(1.25,0,0,-1.25,0,47.5)">
		<g id="g12_29_">
			<g>
				<g>
					<g>
						<g id="g14_29_">
							<g id="g20_29_" transform="translate(36.8848,25.1665)">
								<path id="path22_29_" fill="#BE1931" d="M97.9-89.5c0,2.6-2.1,4.7-4.7,4.7c-1.6,0-2.9-0.8-3.8-1.9c-0.8,1.2-2.2,1.9-3.8,1.9
									c-2.6,0-4.7-2.1-4.7-4.7c0-0.4,0-0.7,0.1-1.1c0.6-4,5.2-8.3,8.4-9.5c3.3,1.2,7.7,5.4,8.4,9.5C97.9-90.2,97.9-89.8,97.9-89.5
									"/>
							</g>
						</g>
					</g>
				</g>
			</g>
		</g>
	</g>
	<g id="g10_6_" transform="matrix(1.25,0,0,-1.25,0,47.5)">
		<g id="g12_9_">
			<g>
				<g>
					<g>
						<g id="g14_9_">
							<g id="g20_9_" transform="translate(36.8848,25.1665)">
								<path id="path22_9_" fill="#BE1931" d="M98.3-131c0,2.6-2.1,4.7-4.7,4.7c-1.6,0-2.9-0.8-3.8-1.9c-0.8,1.2-2.2,1.9-3.8,1.9
									c-2.6,0-4.7-2.1-4.7-4.7c0-0.4,0-0.7,0.1-1.1c0.6-4,5.2-8.3,8.4-9.5c3.3,1.2,7.7,5.4,8.4,9.5
									C98.3-131.7,98.3-131.3,98.3-131"/>
							</g>
						</g>
					</g>
				</g>
			</g>
		</g>
	</g>
	<g id="g10_8_" transform="matrix(1.25,0,0,-1.25,0,47.5)">
		<g id="g12_11_">
			<g>
				<g>
					<g>
						<g id="g14_11_">
							<g id="g20_11_" transform="translate(19,33)">
								<path id="path22_11_" fill="#F4900C" d="M85.8-136.2c3.5,0,6.2-1.9,7-0.9c0.1,0.2,0.1,0.3,0.1,0.5c0,0.9-3.3,2.4-7.1,2.4
									c-4,0-7.1-1.4-7.1-2.4c0-0.2,0-0.3,0.1-0.5C79.6-138.1,82.4-136.2,85.8-136.2"/>
							</g>
							<g id="g24_9_" transform="translate(19,34)">
								<path id="path26_9_" fill="#FFCC4D" d="M85.8-136.8c-2.9,0-5-0.9-5.9-1.2c-0.2-0.1-0.3-0.4-0.2-0.6
									c0.1-0.1,5.1-12.9,5.1-12.9s0.4-0.9,0.9-0.9s0.9,0.9,0.9,0.9l5,12.9c0,0,0.1,0.4-0.3,0.6C90.7-137.5,88.7-136.8,85.8-136.8"
									/>
							</g>
						</g>
					</g>
				</g>
			</g>
		</g>
		<g id="g28_9_">
			<g>
				<g>
					<g>
						<g>
							<g>
								<g>
									<g>
										<g>
											<defs>
												<path id="SVGID_5_" d="M99-104c-0.2-0.1-0.3-0.4-0.2-0.6l0,0c0.1-0.2,5-12.9,5-12.9l0,0c0,0,0.5-0.9,0.9-0.9l0,0
													c0.5,0,0.9,0.9,0.9,0.9l0,0l5,12.9c0,0,0.1,0.4-0.3,0.6l0,0c-0.8,0.4-2.9,1.2-5.7,1.2l0,0
													C101.9-102.8,99.7-103.6,99-104"/>
											</defs>
											<clipPath id="SVGID_6_">
												<use xlink:href="#SVGID_5_"  overflow="visible"/>
											</clipPath>
											<g id="g30_2_" clip-path="url(#SVGID_6_)">
												<g id="g36_7_" transform="translate(19,6)">
													<path id="path38_7_" fill="#BE1931" d="M85.8-122c0-1-0.8-1.9-1.9-1.9c-1,0-1.9,0.8-1.9,1.9c0,1.1,0.8,1.9,1.9,1.9
														S85.8-121,85.8-122"/>
												</g>
												<g id="g40_8_" transform="translate(18,17)">
													<path id="path42_8_" fill="#BE1931" d="M86.3-127.9c0-1-0.8-1.9-1.9-1.9c-1,0-1.9,0.8-1.9,1.9c0,1,0.8,1.9,1.9,1.9
														C85.5-126,86.3-126.7,86.3-127.9"/>
												</g>
												<g id="g44_8_" transform="translate(21,29)">
													<path id="path46_8_" fill="#BE1931" d="M84.7-134.1c0-1-0.8-1.9-1.9-1.9c-1,0-1.9,0.8-1.9,1.9c0,1,0.8,1.9,1.9,1.9
														C83.9-132.2,84.7-133.1,84.7-134.1"/>
												</g>
												<g id="g48_7_" transform="translate(30,24)">
													<path id="path50_7_" fill="#BE1931" d="M80-131.5c0-1-0.8-1.9-1.9-1.9c-1.1,0-1.9,0.8-1.9,1.9c0,1,0.8,1.9,1.9,1.9
														C79.2-129.6,80-130.4,80-131.5"/>
												</g>
												<g id="g52_6_" transform="translate(28,12)">
													<path id="path54_6_" fill="#BE1931" d="M81.1-125.2c0-1-0.8-1.9-1.9-1.9s-1.9,0.8-1.9,1.9c0,1,0.8,1.9,1.9,1.9
														C80.3-123.3,81.1-124.1,81.1-125.2"/>
												</g>
												<g id="g56_4_" transform="translate(11,25)">
													<path id="path58_4_" fill="#BE1931" d="M90-132c0-1-0.8-1.9-1.9-1.9c-1,0-1.9,0.8-1.9,1.9c0,1,0.8,1.9,1.9,1.9
														C89.1-130.1,90-130.9,90-132"/>
												</g>
											</g>
										</g>
									</g>
								</g>
							</g>
						</g>
					</g>
				</g>
			</g>
		</g>
	</g>
</g>
<rect x="23.7" y="425" fill="none" width="353.3" height="275"/>
<text id="onboarding_slide_5_text" transform="matrix(1 0 0 1 75.5519 444.5776)"><tspan x="0" y="0" fill="#FFFFFF" font-family="'FiraMono-Medium'" font-size="26">SHARE YOUR EMOJI </tspan><tspan x="-7.8" y="31.2" fill="#FFFFFF" font-family="'FiraMono-Medium'" font-size="26">MESSAGE WITH YOUR </tspan><tspan x="-31.2" y="62.4" fill="#FFFFFF" font-family="'FiraMono-Medium'" font-size="26">FRIENDS AND LET THEM </tspan><tspan x="-31.2" y="93.6" fill="#FFFFFF" font-family="'FiraMono-Medium'" font-size="26">TRY TO UNSCRAMBLE IT</tspan></text>
<g id="onboarding_slide_5_delivered_text" opacity="0.5">
	<path fill="#FFFFFF" d="M308.3,298.8c0,3.5-2.1,4.4-4.3,4.4h-2.4v-8.6h2.1C306.1,294.4,308.3,295.1,308.3,298.8z M303.4,295.6v6.1
		h0.8c1.2,0,2.4-0.6,2.4-3.1c0-2.6-1.1-3-2.4-3H303.4z"/>
	<path fill="#FFFFFF" d="M315.7,300.2h-4.1c0.1,1.4,0.8,1.7,1.7,1.7c0.6,0,1.1-0.1,1.7-0.6l0.6,0.9c-0.6,0.5-1.5,0.9-2.5,0.9
		c-2,0-3.1-1.4-3.1-3.5c0-2,1-3.5,2.9-3.5c1.8,0,2.9,1.2,2.9,3.4C315.9,299.8,315.7,300.1,315.7,300.2z M314.3,299.1
		c0-1.1-0.3-1.7-1.2-1.7c-0.8,0-1.2,0.5-1.2,1.7H314.3L314.3,299.1z"/>
	<path fill="#FFFFFF" d="M317.9,301.5v-7.8l1.7-0.1v7.9c0,0.3,0.1,0.5,0.3,0.5c0.1,0,0.3,0,0.3,0l0.3,1.1c-0.3,0.1-0.6,0.3-1,0.3
		C318.5,303.2,317.9,302.6,317.9,301.5z"/>
	<path fill="#FFFFFF" d="M324,294.1c0,0.5-0.3,1-1,1s-1-0.3-1-1c0-0.5,0.3-1,1-1C323.6,293.1,324,293.5,324,294.1z M323.9,303.1
		h-1.7v-6.6h1.7V303.1z"/>
	<path fill="#FFFFFF" d="M329.5,303.1h-1.8l-2.1-6.6h1.7l1.4,5.3l1.5-5.3h1.7L329.5,303.1z"/>
	<path fill="#FFFFFF" d="M338.6,300.2h-4.1c0.1,1.4,0.8,1.7,1.7,1.7c0.6,0,1.1-0.1,1.7-0.6l0.6,0.9c-0.6,0.5-1.5,0.9-2.5,0.9
		c-2,0-3.1-1.4-3.1-3.5c0-2,1-3.5,2.9-3.5c1.8,0,2.9,1.2,2.9,3.4C338.6,299.8,338.6,300.1,338.6,300.2z M337,299.1
		c0-1.1-0.3-1.7-1.2-1.7c-0.8,0-1.2,0.5-1.2,1.7H337L337,299.1z"/>
	<path fill="#FFFFFF" d="M344.6,296.3l-0.3,1.5c-0.3,0-0.3-0.1-0.6-0.1c-0.8,0-1.2,0.6-1.5,1.7v3.5h-1.5v-6.6h1.4l0.1,1.2
		c0.3-1,1-1.5,1.7-1.5C344.2,296.2,344.4,296.2,344.6,296.3z"/>
	<path fill="#FFFFFF" d="M351.5,300.2h-4.1c0.1,1.4,0.8,1.7,1.7,1.7c0.6,0,1.1-0.1,1.7-0.6l0.6,0.9c-0.6,0.5-1.5,0.9-2.5,0.9
		c-2,0-3.1-1.4-3.1-3.5c0-2,1-3.5,2.9-3.5c1.9,0,2.9,1.2,2.9,3.4C351.5,299.8,351.5,300.1,351.5,300.2z M350,299.1
		c0-1.1-0.3-1.7-1.2-1.7c-0.8,0-1.2,0.5-1.2,1.7H350L350,299.1z"/>
	<path fill="#FFFFFF" d="M359.2,293.7v9.3h-1.4l-0.1-0.9c-0.3,0.6-1,1-1.8,1c-1.7,0-2.5-1.4-2.5-3.5c0-2,1-3.5,2.6-3.5
		c0.6,0,1.2,0.3,1.7,0.8v-3.4L359.2,293.7z M357.6,301.2v-3c-0.3-0.5-0.8-0.8-1.2-0.8c-0.9,0-1.4,0.8-1.4,2.3c0,1.7,0.5,2.3,1.2,2.3
		C356.8,302,357.2,301.7,357.6,301.2z"/>
</g>
<g id="onboarding_slide_5_group_text">
	<path id="slide_5_bubble_white_text_bg" fill="#E5E5E5" d="M135.8,312.6h-78c-9.6,0-17.5,7.9-17.5,17.5v37.9c0,0.5,0,1.1,0.1,1.7
		l-23.6,15.6h39c0.6,0.1,1.4,0.1,2,0.1h78c9.6,0,17.5-7.9,17.5-17.5v-37.9C153.3,320.4,145.4,312.6,135.8,312.6z"/>
	<g id="slide_5_bubble_white_text">
		<path d="M87.3,339.8c0,6.7-7.8,5.9-7.8,12.1v1.5H76v-1.7c0-6.9,7.5-6.9,7.5-11.6c0-2.4-2.1-3.8-5-3.8c-2,0-4.3,1-6,3.1l-2.5-1.8
			c2.5-2.9,5.5-4.3,8.8-4.3C84.2,333.3,87.3,336.5,87.3,339.8z M80.8,360.5c0,1.7-1.2,2.9-2.9,2.9c-1.7,0-2.9-1.2-2.9-2.9
			c0-1.7,1.2-2.9,2.9-2.9C79.7,357.6,80.8,358.9,80.8,360.5z"/>
		<path d="M120.2,339.8c0,6.7-7.8,5.9-7.8,12.1v1.5h-3.6v-1.7c0-6.9,7.5-6.9,7.5-11.6c0-2.4-2.1-3.8-5-3.8c-2,0-4.3,1-6,3.1
			l-2.5-1.8c2.5-2.9,5.5-4.3,8.8-4.3C117,333.3,120.2,336.5,120.2,339.8z M113.8,360.5c0,1.7-1.2,2.9-2.9,2.9s-2.9-1.2-2.9-2.9
			c0-1.7,1.2-2.9,2.9-2.9C112.5,357.6,113.8,358.9,113.8,360.5z"/>
	</g>
</g>
<g id="onboarding_slide_5_group_dots">
	<path id="slide_5_bubble_white_dots_bg" fill="#E5E5E5" d="M135.8,340.5h-78c-9.6,0-17.5,7.9-17.5,17.5v6.4v3.6v0.8l0,0
		c0.4,9.2,8.1,16.6,17.5,16.6h78c9.3,0,16.9-7.4,17.4-16.6h0.1v-0.9v-3.5v-6.5C153.3,348.4,145.4,340.5,135.8,340.5z"/>
	<g id="slide_5_bubble_white_dots">
		<circle fill="#283344" cx="70.6" cy="370.5" r="5.9"/>
		<circle fill="#283344" cx="96.8" cy="370.5" r="5.9"/>
		<circle fill="#283344" cx="123" cy="370.5" r="5.9"/>
	</g>
</g>
</svg>
