<?xml version="1.0" encoding="utf-8"?>
<!-- Generator: Adobe Illustrator 18.0.0, SVG Export Plug-In . SVG Version: 6.00 Build 0)  -->
<!DOCTYPE svg PUBLIC "-//W3C//DTD SVG 1.1//EN" "http://www.w3.org/Graphics/SVG/1.1/DTD/svg11.dtd">
<svg version="1.1" id="Layer_1" xmlns="http://www.w3.org/2000/svg" xmlns:xlink="http://www.w3.org/1999/xlink" x="0px" y="0px"
	 viewBox="350 0 450 800" enable-background="new 350 0 450 800" xml:space="preserve">
<g>
	<polyline fill="#283344" points="350,800 350,0 800,0 800,800 	"/>
	<g id="back">
	</g>
	<g id="notes">
	</g>
	<g id="input">
	</g>
	<g id="landing_pages">
	</g>
	<g opacity="0.2">
		<circle fill="#FFFFFF" cx="518.9" cy="724" r="9.9"/>
	</g>
	<g opacity="0.2">
		<circle fill="#FFFFFF" cx="481.9" cy="724" r="9.9"/>
	</g>
	<g opacity="0.2">
		<circle fill="#FFFFFF" cx="556.9" cy="724" r="9.9"/>
	</g>
	<g opacity="0.2">
		<circle fill="#FFFFFF" cx="594.9" cy="724" r="9.9"/>
	</g>
	<g opacity="0.2">
		<circle fill="#FFFFFF" cx="632.1" cy="724" r="9.9"/>
	</g>
	<g opacity="0.2">
		<circle fill="#FFFFFF" cx="670.9" cy="724" r="9.9"/>
	</g>
	<g id="g10_97_" transform="matrix(1.25,0,0,-1.25,0,47.5)">
		<g id="g12_115_">
			<g id="g14_120_">
				<g id="g20_106_" transform="translate(36,19)">
					<path id="path22_106_" fill="#FFCC4D" d="M417.1-560.1c0-4.1-3.4-7.9-7.9-7.9c-4.1,0-7.9,3.4-7.9,7.9s3.4,7.9,7.9,7.9
						C413.7-552.3,417.1-555.9,417.1-560.1"/>
				</g>
				<g id="g24_102_" transform="translate(13,19)">
					<path id="path26_102_" fill="#FF7892" d="M429.9-560.1c0-1.1-1-2.1-2.1-2.1s-2.1,1-2.1,2.1c0,1.1,1,2.1,2.1,2.1
						C428.9-557.9,429.9-558.9,429.9-560.1"/>
				</g>
				<g id="g28_74_" transform="translate(35,19)">
					<path id="path30_65_" fill="#FF7892" d="M417.9-560.1c0-1.1-1-2.1-2.1-2.1s-2.1,1-2.1,2.1c0,1.1,1,2.1,2.1,2.1
						S417.9-558.9,417.9-560.1"/>
				</g>
				<g id="g32_52_" transform="translate(28.335,15.3711)">
					<path id="path34_51_" fill="#664500" d="M421.3-558c-0.1,0.1-0.1,0.1-0.1,0c0,0-1.9-1.1-4-1.1s-4,1.1-4,1.1c-0.1,0-0.1,0-0.1,0
						c-0.1-0.1-0.1-0.1,0-0.1c0-0.1,1.4-2.4,4.1-2.4c2.9,0,4.1,2.1,4.1,2.4C421.3-558.4,421.3-558.3,421.3-558"/>
				</g>
				<g id="g36_47_" transform="translate(8.999,22)">
					<path id="path38_47_" fill="#664500" d="M431.9-561.9L431.9-561.9c-0.4,0.1-0.4,0.4-0.1,0.6c0,0,0.6,1.1,2.1,1.1
						c1.6,0,2.1-1.1,2.1-1.1c0.1-0.1,0-0.4-0.1-0.6c-0.1-0.1-0.4,0-0.6,0.1c0,0-0.4,0.9-1.4,0.9s-1.4-0.9-1.4-0.9
						C432.1-561.9,432-561.9,431.9-561.9"/>
				</g>
				<g id="g40_31_" transform="translate(29.001,22)">
					<path id="path42_31_" fill="#664500" d="M421-561.9c-0.1,0-0.1,0.1-0.4,0.1c0,0-0.4,0.9-1.4,0.9s-1.4-0.6-1.4-0.9
						c-0.1-0.1-0.4-0.1-0.6-0.1c-0.1,0.1-0.1,0.4-0.1,0.6c0,0,0.6,1.1,2.1,1.1c1.6,0,2.1-1.1,2.1-1.1c0.1-0.1,0-0.4-0.1-0.6H421"/>
				</g>
			</g>
		</g>
	</g>
	<g id="top">
	</g>
	<g id="tap">
	</g>
	<path fill="#3B88C3" d="M738.1,325.6H411.9c-11,0-20-9-20-20V119.1c0-11,9-20,20-20h326.4c11,0,20,9,20,20v186.1
		C758.1,316.6,749.1,325.6,738.1,325.6z"/>
	<g>
		<text transform="matrix(1 0 0 1 408.3732 562.4642)" fill="#FFFFFF" font-family="'FiraMono-Medium'" font-size="30.8571">WRITE THE MESSAGE </text>
		<text transform="matrix(1 0 0 1 417.659 599.465)" fill="#FFFFFF" font-family="'FiraMono-Medium'" font-size="30.8571">YOU WANT TO TURN </text>
		<text transform="matrix(1 0 0 1 473.2306 636.4649)" fill="#FFFFFF" font-family="'FiraMono-Medium'" font-size="30.8571">INTO EMOJIS</text>
	</g>
	<g id="slide_4_plain_text">
		<path fill="#FFFFFF" d="M439,152.3h-11.7v16.3h-6v-35.7h6v14.5H439v-14.5h6v35.7h-6V152.3z"/>
		<path fill="#FFFFFF" d="M476.3,165.2l-1.3,3.9c-2.6-0.3-4.7-1.4-5.6-3.8c-2,2.5-5.2,3.8-8.7,3.8c-5.6,0-9-3.4-9-8.5
			c0-5.7,4.7-9,13-9h3.9V150c0-3.6-2.2-5-6.1-5c-1.8,0-4.5,0.4-7.2,1.4l-1.4-4.1c3.4-1.3,6.8-1.9,9.6-1.9c7.3,0,10.9,3.4,10.9,9.2
			v12.2C474.2,164,474.8,164.8,476.3,165.2z M468.5,161.4v-6.1h-3.2c-5.4,0-7.6,1.9-7.6,5.1c0,2.9,1.6,4.5,4.6,4.5
			C464.7,164.9,467.1,163.6,468.5,161.4z"/>
		<path fill="#FFFFFF" d="M498.7,168.5h-6.7l-9.7-27.3h6.3l6.9,22.5l7-22.5h6L498.7,168.5z"/>
		<path fill="#FFFFFF" d="M527.7,164.7c2.6,0,4.9-0.8,7.2-2.4l2.5,3.5c-2.5,2.1-6.1,3.4-9.9,3.4c-8.5,0-13.2-5.8-13.2-14.3
			c0-8.2,4.7-14.4,12.5-14.4c7.2,0,11.8,5.2,11.8,13.7c0,0.9-0.1,1.9-0.2,2.6h-18.1C520.6,162.3,523.8,164.7,527.7,164.7z
			 M520.2,152.8h12.7c-0.1-5.2-2.2-8-6.1-8C523.1,144.8,520.5,147.3,520.2,152.8z"/>
		<path fill="#FFFFFF" d="M600.5,165.2l-1.3,3.9c-2.6-0.3-4.7-1.4-5.6-3.8c-2,2.5-5.2,3.8-8.7,3.8c-5.6,0-9-3.4-9-8.5
			c0-5.7,4.7-9,13-9h3.9V150c0-3.6-2.2-5-6.1-5c-1.8,0-4.5,0.4-7.2,1.4l-1.4-4.1c3.4-1.3,6.8-1.9,9.6-1.9c7.3,0,10.9,3.4,10.9,9.2
			v12.2C598.4,164,599.1,164.8,600.5,165.2z M592.7,161.4v-6.1h-3.2c-5.4,0-7.6,1.9-7.6,5.1c0,2.9,1.6,4.5,4.6,4.5
			C588.9,164.9,591.3,163.6,592.7,161.4z"/>
		<path fill="#FFFFFF" d="M422.3,203.3h5l0.4,3.6c2.3-2.8,5.5-4.3,8.9-4.3c5.1,0,7.6,3,7.6,8.1v19.9h-5.8v-17c0-4.8-0.6-6.6-3.9-6.6
			c-2.7,0-5,1.9-6.4,4v19.6h-5.8V203.3z"/>
		<path fill="#FFFFFF" d="M468.2,226.4h7.5v4.2h-21.4v-4.2h8.1v-18.8h-7.9v-4.2h13.7V226.4z M468,193.6c0,2.1-1.6,3.6-3.8,3.6
			c-2.3,0-3.8-1.6-3.8-3.6s1.5-3.7,3.8-3.7C466.5,189.9,468,191.5,468,193.6z"/>
		<path fill="#FFFFFF" d="M504.3,224.2l2.6,3.7c-2.4,2-6,3.4-9.6,3.4c-8.4,0-13.3-5.6-13.3-14.2c0-8.3,5-14.5,13.4-14.5
			c3.7,0,6.8,1.1,9.5,3.3l-2.7,3.6c-2.1-1.4-4.3-2.3-6.7-2.3c-4.3,0-7.3,3.1-7.3,9.9s3.1,9.4,7.3,9.4
			C500.1,226.6,502.3,225.6,504.3,224.2z"/>
		<path fill="#FFFFFF" d="M527.7,226.8c2.6,0,4.9-0.8,7.2-2.4l2.5,3.5c-2.5,2.1-6.1,3.4-9.9,3.4c-8.5,0-13.2-5.8-13.2-14.3
			c0-8.2,4.7-14.4,12.5-14.4c7.2,0,11.8,5.2,11.8,13.7c0,0.9-0.1,1.9-0.2,2.6h-18.1C520.6,224.4,523.8,226.8,527.7,226.8z
			 M520.2,214.9h12.7c-0.1-5.2-2.2-8-6.1-8C523.1,206.9,520.5,209.4,520.2,214.9z"/>
		<path fill="#FFFFFF" d="M599.4,192.4v38.3h-5.1l-0.4-3.4c-1.8,2.6-4.5,4-7.7,4c-7,0-10.3-5.7-10.3-14.3c0-8.3,4.1-14.4,10.8-14.4
			c2.8,0,5.1,1,6.9,3v-13.9L599.4,192.4z M582,217c0,7,2.1,9.9,5.7,9.9c2.6,0,4.5-1.8,5.8-3.9v-12.9c-1.3-1.9-3.2-3.1-5.4-3.1
			C584.3,207.1,582,210.2,582,217z"/>
		<path fill="#FFFFFF" d="M631.6,227.4l-1.3,3.9c-2.6-0.3-4.7-1.4-5.6-3.8c-2,2.5-5.2,3.8-8.7,3.8c-5.6,0-9-3.4-9-8.5
			c0-5.7,4.7-9,13-9h3.9v-1.8c0-3.6-2.2-5-6.1-5c-1.8,0-4.5,0.4-7.2,1.4l-1.4-4.1c3.4-1.3,6.8-1.9,9.6-1.9c7.3,0,10.9,3.4,10.9,9.2
			V224C629.5,226.1,630.1,226.9,631.6,227.4z M623.7,223.6v-6.1h-3.2c-5.4,0-7.6,1.9-7.6,5.1c0,2.9,1.6,4.5,4.6,4.5
			C620,227.1,622.4,225.8,623.7,223.6z"/>
		<path fill="#FFFFFF" d="M654.1,230.8c-2.1,6.2-5.7,10.4-13.4,11.1l-0.7-4.3c5.5-0.9,7.3-2.9,8.7-6.8h-2l-9.2-27.3h6.2l6.9,23.3
			l7-23.3h6L654.1,230.8z"/>
	</g>
</g>
</svg>
