<?xml version="1.0" encoding="utf-8"?>
<!-- Generator: Adobe Illustrator 18.0.0, SVG Export Plug-In . SVG Version: 6.00 Build 0)  -->
<!DOCTYPE svg PUBLIC "-//W3C//DTD SVG 1.1//EN" "http://www.w3.org/Graphics/SVG/1.1/DTD/svg11.dtd">
<svg version="1.1" id="Layer_1" xmlns="http://www.w3.org/2000/svg" xmlns:xlink="http://www.w3.org/1999/xlink" x="0px" y="0px"
	 width="393.1px" height="700px" viewBox="0 0 393.1 700" enable-background="new 0 0 393.1 700" xml:space="preserve">
<polyline fill="#283344" points="0,700 0,0 393.1,0 393.1,700 "/>
<g id="onboarding_slide_2_hello">
	<g id="onboarding_slide_2_A5">
		<path id="path22_5_" fill="#3B88C3" d="M365.9,167.6c0,3.5-2.7,6.2-6.2,6.2H316c-3.5,0-6.2-2.7-6.2-6.2v-43.7
			c0-3.5,2.7-6.2,6.2-6.2h43.7c3.5,0,6.2,2.7,6.2,6.2L365.9,167.6L365.9,167.6z"/>
		<path id="path26_5_" fill="#FFFFFF" d="M346.9,145.8c0-5.9-3-11.1-9.1-11.1s-9.1,5.2-9.1,11.1c0,5.9,3,11.1,9.1,11.1
			C344,156.9,346.9,151.6,346.9,145.8 M321.1,145.8c0-10.1,6.7-17.9,16.6-17.9c9.7,0,16.6,8,16.6,17.9c0,10-6.7,17.9-16.6,17.9
			C328,163.5,321.1,155.8,321.1,145.8"/>
	</g>
	<g id="onboarding_slide_2_A4">
		<path id="path22_4_" fill="#3B88C3" d="M224.4,167.6c0,3.5-2.7,6.2-6.2,6.2h-43.7c-3.5,0-6.2-2.7-6.2-6.2v-43.7
			c0-3.5,2.7-6.2,6.2-6.2h43.7c3.5,0,6.2,2.7,6.2,6.2V167.6z"/>
		<path id="path26_4_" fill="#FFFFFF" d="M188.1,132c0-2.4,1.5-3.7,3.6-3.7s3.6,1.4,3.6,3.7v24.2h8.6c2.5,0,3.5,1.9,3.5,3.5
			c-0.1,1.6-1.4,3.2-3.5,3.2h-12.1c-2.4,0-3.7-1.5-3.7-4L188.1,132z"/>
	</g>
	<g id="onboarding_slide_2_A3">
		<path id="path22_3_" fill="#3B88C3" d="M295.1,167.6c0,3.5-2.7,6.2-6.2,6.2h-43.7c-3.5,0-6.2-2.7-6.2-6.2v-43.7
			c0-3.5,2.7-6.2,6.2-6.2h43.7c3.5,0,6.2,2.7,6.2,6.2V167.6z"/>
		<path id="path26_3_" fill="#FFFFFF" d="M258.9,132c0-2.4,1.5-3.7,3.6-3.7s3.6,1.4,3.6,3.7v24.2h8.6c2.5,0,3.5,1.9,3.5,3.5
			c-0.1,1.6-1.4,3.2-3.5,3.2h-12.1c-2.4,0-3.7-1.5-3.7-4V132z"/>
	</g>
	<g id="onboarding_slide_2_A2">
		<path id="path22_2_" fill="#3B88C3" d="M153.6,167.6c0,3.5-2.7,6.2-6.2,6.2h-43.7c-3.5,0-6.2-2.7-6.2-6.2v-43.7
			c0-3.5,2.7-6.2,6.2-6.2h43.7c3.5,0,6.2,2.7,6.2,6.2V167.6z"/>
		<path id="path26_2_" fill="#FFFFFF" d="M116.5,132.6c0-2.4,1.2-4.2,3.7-4.2h12c2.4,0,3.5,1.6,3.5,3.4c0,1.6-1.1,3.4-3.5,3.4h-8.5
			v7.1h8c2.4,0,3.5,1.6,3.5,3.4c0,1.6-1.2,3.4-3.5,3.4h-8v7.4h9c2.4,0,3.5,1.6,3.5,3.4c0,1.6-1.1,3.4-3.5,3.4h-12.5
			c-2.1,0-3.7-1.5-3.7-3.6V132.6z"/>
	</g>
	<g id="onboarding_slide_2_A1">
		<path id="path22_1_" fill="#3B88C3" d="M82.9,167.6c0,3.5-2.7,6.2-6.2,6.2H32.9c-3.5,0-6.2-2.7-6.2-6.2v-43.7
			c0-3.5,2.7-6.2,6.2-6.2h43.7c3.5,0,6.2,2.7,6.2,6.2L82.9,167.6L82.9,167.6z"/>
		<path id="path26_1_" fill="#FFFFFF" d="M66.5,128.6c-2.1,0-3.9,1.7-3.9,3.9v8.6H47v-8.6c0-2.1-1.7-3.9-3.9-3.9
			c-2.1,0-3.9,1.7-3.9,3.9V159c0,2.1,1.7,3.9,3.9,3.9c2.1,0,3.9-1.7,3.9-3.9v-10.1h15.6V159c0,2.1,1.7,3.9,3.9,3.9
			c2.1,0,3.9-1.7,3.9-3.9v-26.5C70.4,130.4,68.6,128.6,66.5,128.6"/>
	</g>
</g>
<g id="onboarding_slide_2_lines">
	<path id="onboarding_slide1_line_5_1_" fill="#FFFFFF" d="M53.9,231.4c0-0.5,0.4-1,1-1l0,0c0.5,0,1,0.4,1,1l0,0c0,0.5-0.4,1-1,1
		l0,0C54.2,232.4,53.9,231.9,53.9,231.4z M53.9,227.8c0-0.5,0.4-1,1-1l0,0c0.5,0,1,0.4,1,1l0,0c0,0.5-0.4,1-1,1l0,0
		C54.2,228.8,53.9,228.3,53.9,227.8z M53.9,224.1c0-0.5,0.4-1,1-1l0,0c0.5,0,1,0.4,1,1l0,0c0,0.5-0.4,1-1,1l0,0
		C54.2,225,53.9,224.6,53.9,224.1z M53.9,220.5c0-0.5,0.4-1,1-1l0,0c0.5,0,1,0.4,1,1l0,0c0,0.5-0.4,1-1,1l0,0
		C54.2,221.4,53.9,221,53.9,220.5z M53.9,216.9c0-0.5,0.4-1,1-1l0,0c0.5,0,1,0.4,1,1l0,0c0,0.5-0.4,1-1,1l0,0
		C54.2,217.8,53.9,217.4,53.9,216.9z M53.9,213.3c0-0.5,0.4-1,1-1l0,0c0.5,0,1,0.4,1,1l0,0c0,0.5-0.4,1-1,1l0,0
		C54.2,214.1,53.9,213.8,53.9,213.3z M53.9,209.6c0-0.5,0.4-1,1-1l0,0c0.5,0,1,0.4,1,1l0,0c0,0.5-0.4,1-1,1l0,0
		C54.2,210.5,53.9,210.1,53.9,209.6z M53.9,206c0-0.5,0.4-1,1-1l0,0c0.5,0,1,0.4,1,1l0,0c0,0.5-0.4,1-1,1l0,0
		C54.2,206.9,53.9,206.5,53.9,206z M53.9,202.3c0-0.5,0.4-1,1-1l0,0c0.5,0,1,0.4,1,1l0,0c0,0.5-0.4,1-1,1l0,0
		C54.2,203.3,53.9,202.8,53.9,202.3z M53.9,198.6c0-0.5,0.4-1,1-1l0,0c0.5,0,1,0.4,1,1l0,0c0,0.5-0.4,1-1,1l0,0
		C54.2,199.6,53.9,199.1,53.9,198.6z M53.9,195c0-0.5,0.4-1,1-1l0,0c0.5,0,1,0.4,1,1l0,0c0,0.5-0.4,1-1,1l0,0
		C54.2,196,53.9,195.5,53.9,195z M53.9,191.4c0-0.5,0.4-1,1-1l0,0c0.5,0,1,0.4,1,1l0,0c0,0.5-0.4,1-1,1l0,0
		C54.2,192.4,53.9,191.9,53.9,191.4z"/>
	<path id="onboarding_slide1_line_4_1_" fill="#FFFFFF" d="M124.7,231.4c0-0.5,0.4-1,1-1l0,0c0.5,0,1,0.4,1,1l0,0c0,0.5-0.4,1-1,1
		l0,0C125.2,232.4,124.7,231.9,124.7,231.4z M124.7,227.8c0-0.5,0.4-1,1-1l0,0c0.5,0,1,0.4,1,1l0,0c0,0.5-0.4,1-1,1l0,0
		C125.2,228.8,124.7,228.3,124.7,227.8z M124.7,224.1c0-0.5,0.4-0.9,1-0.9l0,0c0.5,0,1,0.4,1,0.9l0,0c0,0.5-0.4,1-1,1l0,0
		C125.2,225,124.7,224.6,124.7,224.1z M124.7,220.5c0-0.5,0.4-1,1-1l0,0c0.5,0,1,0.4,1,1l0,0c0,0.5-0.4,1-1,1l0,0
		C125.2,221.4,124.7,221,124.7,220.5z M124.7,216.9c0-0.5,0.4-1,1-1l0,0c0.5,0,1,0.4,1,1l0,0c0,0.5-0.4,1-1,1l0,0
		C125.2,217.8,124.7,217.4,124.7,216.9z M124.7,213.3c0-0.5,0.4-1,1-1l0,0c0.5,0,1,0.4,1,1l0,0c0,0.5-0.4,1-1,1l0,0
		C125.2,214.1,124.7,213.8,124.7,213.3z M124.7,209.6c0-0.5,0.4-1,1-1l0,0c0.5,0,1,0.4,1,1l0,0c0,0.5-0.4,1-1,1l0,0
		C125.2,210.5,124.7,210.1,124.7,209.6z M124.7,206c0-0.5,0.4-1,1-1l0,0c0.5,0,1,0.4,1,1l0,0c0,0.5-0.4,1-1,1l0,0
		C125.2,206.9,124.7,206.5,124.7,206z M124.7,202.3c0-0.5,0.4-1,1-1l0,0c0.5,0,1,0.4,1,1l0,0c0,0.5-0.4,1-1,1l0,0
		C125.2,203.3,124.7,202.8,124.7,202.3z M124.7,198.6c0-0.5,0.4-1,1-1l0,0c0.5,0,1,0.4,1,1l0,0c0,0.5-0.4,1-1,1l0,0
		C125.2,199.6,124.7,199.1,124.7,198.6z M124.7,195c0-0.5,0.4-1,1-1l0,0c0.5,0,1,0.4,1,1l0,0c0,0.5-0.4,1-1,1l0,0
		C125.2,196,124.7,195.5,124.7,195z M124.7,191.4c0-0.5,0.4-1,1-1l0,0c0.5,0,1,0.4,1,1l0,0c0,0.5-0.4,1-1,1l0,0
		C125.2,192.4,124.7,191.9,124.7,191.4z"/>
	<path id="onboarding_slide1_line_3_1_" fill="#FFFFFF" d="M195.7,231.4c0-0.5,0.4-1,1-1l0,0c0.5,0,1,0.4,1,1l0,0c0,0.5-0.4,1-1,1
		l0,0C196.1,232.4,195.7,231.9,195.7,231.4z M195.7,227.8c0-0.5,0.4-1,1-1l0,0c0.5,0,1,0.4,1,1l0,0c0,0.5-0.4,1-1,1l0,0
		C196.1,228.8,195.7,228.3,195.7,227.8z M195.7,224.1c0-0.5,0.4-0.9,1-0.9l0,0c0.5,0,1,0.4,1,0.9l0,0c0,0.5-0.4,1-1,1l0,0
		C196.1,225,195.7,224.6,195.7,224.1z M195.7,220.5c0-0.5,0.4-1,1-1l0,0c0.5,0,1,0.4,1,1l0,0c0,0.5-0.4,1-1,1l0,0
		C196.1,221.4,195.7,221,195.7,220.5z M195.7,216.9c0-0.5,0.4-1,1-1l0,0c0.5,0,1,0.4,1,1l0,0c0,0.5-0.4,1-1,1l0,0
		C196.1,217.8,195.7,217.4,195.7,216.9z M195.7,213.3c0-0.5,0.4-1,1-1l0,0c0.5,0,1,0.4,1,1l0,0c0,0.5-0.4,1-1,1l0,0
		C196.1,214.1,195.7,213.8,195.7,213.3z M195.7,209.6c0-0.5,0.4-1,1-1l0,0c0.5,0,1,0.4,1,1l0,0c0,0.5-0.4,1-1,1l0,0
		C196.1,210.5,195.7,210.1,195.7,209.6z M195.7,206c0-0.5,0.4-1,1-1l0,0c0.5,0,1,0.4,1,1l0,0c0,0.5-0.4,1-1,1l0,0
		C196.1,206.9,195.7,206.5,195.7,206z M195.7,202.3c0-0.5,0.4-1,1-1l0,0c0.5,0,1,0.4,1,1l0,0c0,0.5-0.4,1-1,1l0,0
		C196.1,203.3,195.7,202.8,195.7,202.3z M195.7,198.6c0-0.5,0.4-1,1-1l0,0c0.5,0,1,0.4,1,1l0,0c0,0.5-0.4,1-1,1l0,0
		C196.1,199.6,195.7,199.1,195.7,198.6z M195.7,195c0-0.5,0.4-1,1-1l0,0c0.5,0,1,0.4,1,1l0,0c0,0.5-0.4,1-1,1l0,0
		C196.1,196,195.7,195.5,195.7,195z M195.7,191.4c0-0.5,0.4-1,1-1l0,0c0.5,0,1,0.4,1,1l0,0c0,0.5-0.4,1-1,1l0,0
		C196.1,192.4,195.7,191.9,195.7,191.4z"/>
	<path id="onboarding_slide1_line_2_1_" fill="#FFFFFF" d="M266.7,231.4c0-0.5,0.4-1,1-1l0,0c0.5,0,1,0.4,1,1l0,0c0,0.5-0.4,1-1,1
		l0,0C267.1,232.4,266.7,231.9,266.7,231.4z M266.7,227.8c0-0.5,0.4-1,1-1l0,0c0.5,0,1,0.4,1,1l0,0c0,0.5-0.4,1-1,1l0,0
		C267.1,228.8,266.7,228.3,266.7,227.8z M266.7,224.1c0-0.5,0.4-1,1-1l0,0c0.5,0,1,0.4,1,1l0,0c0,0.5-0.4,1-1,1l0,0
		C267.1,225.1,266.7,224.6,266.7,224.1z M266.7,220.5c0-0.5,0.4-1,1-1l0,0c0.5,0,1,0.4,1,1l0,0c0,0.5-0.4,1-1,1l0,0
		C267.1,221.4,266.7,221,266.7,220.5z M266.7,216.9c0-0.5,0.4-1,1-1l0,0c0.5,0,1,0.4,1,1l0,0c0,0.5-0.4,1-1,1l0,0
		C267.1,217.8,266.7,217.4,266.7,216.9z M266.7,213.3c0-0.5,0.4-1,1-1l0,0c0.5,0,1,0.4,1,1l0,0c0,0.5-0.4,1-1,1l0,0
		C267.1,214.1,266.7,213.8,266.7,213.3z M266.7,209.6c0-0.5,0.4-1,1-1l0,0c0.5,0,1,0.4,1,1l0,0c0,0.5-0.4,1-1,1l0,0
		C267.1,210.5,266.7,210.1,266.7,209.6z M266.7,206c0-0.5,0.4-1,1-1l0,0c0.5,0,1,0.4,1,1l0,0c0,0.5-0.4,1-1,1l0,0
		C267.1,206.9,266.7,206.5,266.7,206z M266.7,202.3c0-0.5,0.4-1,1-1l0,0c0.5,0,1,0.4,1,1l0,0c0,0.5-0.4,1-1,1l0,0
		C267.1,203.3,266.7,202.8,266.7,202.3z M266.7,198.6c0-0.5,0.4-1,1-1l0,0c0.5,0,1,0.4,1,1l0,0c0,0.5-0.4,1-1,1l0,0
		C267.1,199.6,266.7,199.1,266.7,198.6z M266.7,195c0-0.5,0.4-1,1-1l0,0c0.5,0,1,0.4,1,1l0,0c0,0.5-0.4,1-1,1l0,0
		C267.1,196,266.7,195.5,266.7,195z M266.7,191.4c0-0.5,0.4-1,1-1l0,0c0.5,0,1,0.4,1,1l0,0c0,0.5-0.4,1-1,1l0,0
		C267.1,192.4,266.7,191.9,266.7,191.4z"/>
	<path id="onboarding_slide1_line_1_1_" fill="#FFFFFF" d="M337.6,231.4c0-0.5,0.4-1,1-1l0,0c0.5,0,1,0.4,1,1l0,0c0,0.5-0.4,1-1,1
		l0,0C338,232.4,337.6,231.9,337.6,231.4z M337.6,227.8c0-0.5,0.4-1,1-1l0,0c0.5,0,1,0.4,1,1l0,0c0,0.5-0.4,1-1,1l0,0
		C338,228.8,337.6,228.3,337.6,227.8z M337.6,224.1c0-0.5,0.4-1,1-1l0,0c0.5,0,1,0.4,1,1l0,0c0,0.5-0.4,0.9-1,0.9l0,0
		C338,225,337.6,224.6,337.6,224.1z M337.6,220.5c0-0.5,0.4-1,1-1l0,0c0.5,0,1,0.4,1,1l0,0c0,0.5-0.4,1-1,1l0,0
		C338,221.4,337.6,221,337.6,220.5z M337.6,216.9c0-0.5,0.4-1,1-1l0,0c0.5,0,1,0.4,1,1l0,0c0,0.5-0.4,1-1,1l0,0
		C338,217.8,337.6,217.4,337.6,216.9z M337.6,213.3c0-0.5,0.4-1,1-1l0,0c0.5,0,1,0.4,1,1l0,0c0,0.5-0.4,1-1,1l0,0
		C338,214.1,337.6,213.8,337.6,213.3z M337.6,209.6c0-0.5,0.4-1,1-1l0,0c0.5,0,1,0.4,1,1l0,0c0,0.5-0.4,1-1,1l0,0
		C338,210.5,337.6,210.1,337.6,209.6z M337.6,206c0-0.5,0.4-1,1-1l0,0c0.5,0,1,0.4,1,1l0,0c0,0.5-0.4,1-1,1l0,0
		C338,206.9,337.6,206.5,337.6,206z M337.6,202.3c0-0.5,0.4-1,1-1l0,0c0.5,0,1,0.4,1,1l0,0c0,0.5-0.4,1-1,1l0,0
		C338,203.3,337.6,202.8,337.6,202.3z M337.6,198.6c0-0.5,0.4-1,1-1l0,0c0.5,0,1,0.4,1,1l0,0c0,0.5-0.4,1-1,1l0,0
		C338,199.6,337.6,199.1,337.6,198.6z M337.6,195c0-0.5,0.4-1,1-1l0,0c0.5,0,1,0.4,1,1l0,0c0,0.5-0.4,1-1,1l0,0
		C338,196,337.6,195.5,337.6,195z M337.6,191.4c0-0.5,0.4-1,1-1l0,0c0.5,0,1,0.4,1,1l0,0c0,0.5-0.4,1-1,1l0,0
		C338,192.4,337.6,191.9,337.6,191.4z"/>
</g>
<g id="onboarding_slide_2_encrypted_hello_3">
	<g>
		<path fill="#FFCC4D" d="M358.7,275.9c0,11.7-9.5,21.2-21.2,21.2s-21.2-9.5-21.2-21.2s9.5-21.2,21.2-21.2S358.7,264.1,358.7,275.9"
			/>
		<ellipse fill="#664500" cx="337.5" cy="287.1" rx="6.2" ry="7.5"/>
		<path fill="#664500" d="M322.5,267.1c-0.2,0-0.5-0.1-0.7-0.2c-0.5-0.4-0.6-1.2-0.2-1.7c4.1-5.5,9.5-5.5,9.7-5.5
			c0.7,0,1.2,0.5,1.2,1.2s-0.5,1.2-1.2,1.2c-0.2,0-4.5,0.1-7.7,4.5C323.2,266.9,322.9,267.1,322.5,267.1z"/>
		<path fill="#664500" d="M352.5,267.1c-0.4,0-0.7-0.1-1-0.5c-3.2-4.4-7.6-4.5-7.7-4.5c-0.6,0-1.2-0.6-1.2-1.2
			c0-0.7,0.5-1.2,1.2-1.2c0.2,0,5.6,0,9.7,5.5c0.4,0.5,0.2,1.4-0.2,1.7C353,267,352.7,267.1,352.5,267.1z"/>
		<path fill="#664500" d="M332.4,272.8l2.2-2.2c0.5-0.5,0.5-1.2,0-1.7s-1.2-0.5-1.7,0l-2.2,2.2l-2.2-2.2c-0.5-0.5-1.2-0.5-1.7,0
			s-0.5,1.2,0,1.7l2.2,2.2l-2.2,2.2c-0.5,0.5-0.5,1.2,0,1.7c0.2,0.2,0.6,0.4,0.9,0.4s0.6-0.1,0.9-0.4l2.2-2.2l2.2,2.2
			c0.2,0.2,0.6,0.4,0.9,0.4s0.6-0.1,0.9-0.4c0.5-0.5,0.5-1.2,0-1.7L332.4,272.8z"/>
		<path fill="#664500" d="M346.1,272.8l2.2-2.2c0.5-0.5,0.5-1.2,0-1.7s-1.2-0.5-1.7,0l-2.2,2.2l-2.2-2.2c-0.5-0.5-1.2-0.5-1.7,0
			s-0.5,1.2,0,1.7l2.2,2.2l-2.2,2.2c-0.5,0.5-0.5,1.2,0,1.7c0.2,0.2,0.6,0.4,0.9,0.4s0.6-0.1,0.9-0.4l2.2-2.2l2.2,2.2
			c0.2,0.2,0.6,0.4,0.9,0.4s0.6-0.1,0.9-0.4c0.5-0.5,0.5-1.2,0-1.7L346.1,272.8z"/>
	</g>
	<g>
		<path fill="#553788" d="M256.9,268.5c3.7,6.2,0,13.4-3.7,12.1c-3.7-1.2-5,2.5-1.2,3.7c3.7,1.2,11.9-0.6,16.2-5
			c1.2-1.2,2.5-1.2,2.5-1.2L256.9,268.5z"/>
		<path fill="#553788" d="M276.9,268.5c-3.7,6.2,0,13.4,3.7,12.1c3.7-1.2,5,2.5,1.2,3.7c-3.7,1.2-11.9-0.6-16.2-5
			c-1.2-1.2-2.5-1.2-2.5-1.2L276.9,268.5z"/>
		<path fill="#744EAA" d="M282.1,273.5c-3.7,6.2,0,13.4,3.7,12.1c3.7-1.2,5,2.5,1.2,3.7c-3.7,1.2-11.9-0.6-16.2-5
			c-1.2-1.2-2.5-1.2-2.5-1.2L282.1,273.5z"/>
		<path fill="#744EAA" d="M251.6,273.5c3.7,6.2,0,13.4-3.7,12.1c-3.7-1.2-5,2.5-1.2,3.7c3.7,1.2,11.9-0.6,16.2-5
			c1.2-1.2,2.5-1.2,2.5-1.2L251.6,273.5z"/>
		<path fill="#9266CC" d="M285.9,292.8c-3.4,1.1-8-7-6-13.2c2-4,3.2-8.6,3.2-12.2c0-9-7.2-13.7-16.2-13.7s-16.2,4.7-16.2,13.7
			c0,3.6,1.2,8.2,3.2,12.2c2,6.2-2.6,14.4-6,13.2c-3.7-1.2-5,3.7-1.2,5c3.7,1.2,10.4-0.7,15-5c2.7-2.5,5.2-2.5,5.2-2.5
			s2.5,0,5.2,2.5c4.6,4.2,11.2,6.2,15,5C290.9,296.5,289.6,291.5,285.9,292.8z"/>
		<circle fill="#292F33" cx="261.9" cy="279.8" r="2.5"/>
		<circle fill="#292F33" cx="271.9" cy="279.8" r="2.5"/>
	</g>
	<g>
		<path fill="#553788" d="M186.1,268.5c3.7,6.2,0,13.4-3.7,12.1c-3.7-1.2-5,2.5-1.2,3.7c3.7,1.2,11.9-0.6,16.2-5
			c1.2-1.2,2.5-1.2,2.5-1.2L186.1,268.5z"/>
		<path fill="#553788" d="M206.1,268.5c-3.7,6.2,0,13.4,3.7,12.1c3.7-1.2,5,2.5,1.2,3.7c-3.7,1.2-11.9-0.6-16.2-5
			c-1.2-1.2-2.5-1.2-2.5-1.2L206.1,268.5z"/>
		<path fill="#744EAA" d="M211.4,273.5c-3.7,6.2,0,13.4,3.7,12.1c3.7-1.2,5,2.5,1.2,3.7c-3.7,1.2-11.9-0.6-16.2-5
			c-1.2-1.2-2.5-1.2-2.5-1.2L211.4,273.5z"/>
		<path fill="#744EAA" d="M180.9,273.5c3.7,6.2,0,13.4-3.7,12.1c-3.7-1.2-5,2.5-1.2,3.7c3.7,1.2,11.9-0.6,16.2-5
			c1.2-1.2,2.5-1.2,2.5-1.2L180.9,273.5z"/>
		<path fill="#9266CC" d="M215.1,292.8c-3.4,1.1-8-7-6-13.2c2-4,3.2-8.6,3.2-12.2c0-9-7.2-13.7-16.2-13.7s-16.2,4.7-16.2,13.7
			c0,3.6,1.2,8.2,3.2,12.2c2,6.2-2.6,14.4-6,13.2c-3.7-1.2-5,3.7-1.2,5c3.7,1.2,10.4-0.7,15-5c2.7-2.5,5.2-2.5,5.2-2.5
			s2.5,0,5.2,2.5c4.6,4.2,11.2,6.2,15,5C220.1,296.5,218.9,291.5,215.1,292.8z"/>
		<circle fill="#292F33" cx="191.1" cy="279.8" r="2.5"/>
		<circle fill="#292F33" cx="201.1" cy="279.8" r="2.5"/>
	</g>
	<g>
		<path fill="#FDD888" d="M142.9,283.3c-0.7-8.2-4.9-12.4-4.9-12.4l-7.5-10h-1.3h-3.7h-3.7h-1.2l-7.5,10c0,0-1.7,1.7-3.2,5.4
			c-2.5,0.9-4.2,3.1-4.2,5.9c0,1.7,0.7,3.4,2,4.6c-0.5,0.9-0.7,1.9-0.7,2.9c0,2.5,1.4,4.5,3.5,5.6c1.6,2.4,3.7,3.1,5.2,3.1h20
			c1.7,0,4.2-1,5.9-4.1c2.4-0.9,4.1-3.1,4.1-5.9C145.5,286.3,144.5,284.4,142.9,283.3z"/>
		<path fill="#FDD888" d="M125.5,260.9c0.6,0,1.4-0.2,1.9-0.5c0.5,0.4,1.2,0.5,1.9,0.5c2.1,0,5-2.9,5-5c0,0,0-2.5-2.5-2.5
			c-1,0-1.2,1.2-2.5,1.2s-1.2-1.2-3.7-1.2s-2.5,1.2-3.7,1.2s-1.5-1.2-2.5-1.2c-2.5,0-2.5,2.5-2.5,2.5c0,2.1,2.9,5,5,5
			c0.6,0,1.4-0.2,1.9-0.5C124.1,260.6,124.9,260.9,125.5,260.9z"/>
		<path fill="#BF6952" d="M133,260.9c0,0.7-0.5,1.2-1.2,1.2h-12.6c-0.7,0-1.2-0.5-1.2-1.2l0,0c0-0.7,0.5-1.2,1.2-1.2h12.5
			C132.5,259.6,133,260.1,133,260.9L133,260.9z"/>
		<path fill="#67757F" d="M132.9,284c0-5.6-10.7-5.2-10.7-8.6c0-1.6,1.6-2.4,3.5-2.4c3.1,0,3.7,2,5.1,2c1,0,1.5-0.6,1.5-1.2
			c0-1.6-2.5-2.9-5-3.2V269c0-1-0.9-1.7-1.9-1.7s-1.9,0.7-1.9,1.7v1.6c-2.6,0.6-4.9,2.4-4.9,5.2c0,5.4,10.7,5.1,10.7,8.9
			c0,1.2-1.5,2.6-3.9,2.6c-3.6,0-4.9-2.4-6.2-2.4c-0.7,0-1.4,0.6-1.4,1.5c0,1.4,2.4,3.1,5.7,3.5l0,0v1.7c0,1,0.9,1.7,1.9,1.7
			s1.9-0.7,1.9-1.7V290l0,0C130.4,289.3,132.9,287.4,132.9,284z"/>
	</g>
	<g>
		<path fill="#3E721D" d="M67.1,287c-10,0-10.2,7.5-10.2,7.5V280h-5v14.5c0,0,0.2-7.5-9.7-7.5c-5,0-8.6-2.9-8.6-2.9
			s0,10.9,11.3,10.9c5,0,7.5,0,7.5,0s0,2.5,2.5,2.5s2.5-2.5,2.5-2.5s2.5,0,7.5,0c11.2,0,11.1-10.9,11.1-10.9S72.1,287,67.1,287z"/>
		<path fill="#FFAC33" d="M58.9,287.9c-0.4,0-0.9-0.1-1.1-0.4l-2.9-2l-2.9,2c-0.4,0.2-0.7,0.4-1.1,0.4c-0.1,0-0.4,0-0.5-0.1
			c-0.6-0.1-1.1-0.5-1.4-1.1l-1.5-3.1l-3.5,0.2h-0.1c-0.5,0-1.1-0.2-1.5-0.6s-0.6-1-0.6-1.6l0.2-3.5l-3.1-1.5
			c-0.5-0.2-1-0.7-1.1-1.4c-0.1-0.6,0-1.2,0.2-1.7l2-2.9l-2-2.9c-0.4-0.5-0.5-1.1-0.2-1.7c0.1-0.6,0.5-1.1,1.1-1.4l3.1-1.5l-0.2-3.5
			c0-0.6,0.1-1.2,0.6-1.6c0.4-0.4,0.9-0.6,1.5-0.6H44l3.5,0.2l1.5-3.1c0.2-0.5,0.7-1,1.4-1.1c0.1,0,0.4-0.1,0.5-0.1
			c0.4,0,0.9,0.1,1.1,0.4l2.9,2l2.9-2c0.4-0.2,0.7-0.4,1.1-0.4c0.1,0,0.4,0,0.5,0.1c0.6,0.1,1.1,0.5,1.4,1.1l1.5,3.1l3.5-0.2h0.1
			c0.5,0,1.1,0.2,1.5,0.6s0.6,1,0.6,1.6l-0.2,3.5l3.1,1.5c0.5,0.2,1,0.7,1.1,1.4s0,1.2-0.2,1.7l-2,2.9l2,2.9
			c0.4,0.5,0.5,1.1,0.2,1.7c-0.1,0.6-0.5,1.1-1.1,1.4l-3.1,1.5l0.2,3.5c0,0.6-0.1,1.1-0.6,1.6c-0.4,0.4-0.9,0.6-1.5,0.6h-0.1
			l-3.5-0.2l-1.5,3.1c-0.2,0.5-0.7,1-1.4,1.1C59.2,287.9,59.1,287.9,58.9,287.9z"/>
		<circle fill="#732700" cx="55" cy="270.8" r="8.7"/>
	</g>
</g>
<g id="onboarding_slide_2_encrypted_hello_1">
	<g>
		<path fill="#C6E5B3" d="M360,280.3c0,9.4-10.1,15-22.5,15s-22.5-5.6-22.5-15s10.1-18.7,22.5-18.7S360,270.9,360,280.3z"/>
		<path fill="#77B255" d="M354.7,268.6c1.7-1.4,2.7-3.5,2.7-5.9c0-4.1-3.4-7.5-7.5-7.5c-3.6,0-6.5,2.5-7.4,5.9c-1.6-0.6-3.4-1-5.1-1
			c-1.9,0-3.6,0.4-5.1,1c-0.7-3.4-3.7-5.9-7.4-5.9c-4.1,0-7.5,3.4-7.5,7.5c0,2.4,1.1,4.5,2.7,5.9c-3.2,3.4-5.2,7.5-5.2,11.6
			c0,9.4,10.1,1.2,22.5,1.2s22.5,8.1,22.5-1.2C360,276.1,358,271.9,354.7,268.6z"/>
		<circle fill="#FFFFFF" cx="324.4" cy="262.1" r="4.4"/>
		<circle fill="#292F33" cx="324.4" cy="262.1" r="1.9"/>
		<circle fill="#FFFFFF" cx="350.6" cy="262.1" r="4.4"/>
		<circle fill="#292F33" cx="350.6" cy="262.1" r="1.9"/>
		<circle fill="#5C913B" cx="332.5" cy="277.8" r="1.2"/>
		<circle fill="#5C913B" cx="342.5" cy="277.8" r="1.2"/>
	</g>
	<g>
		<path fill="#292F33" d="M287.6,290c0,0,1.5,0.6,1.5,1.9c0,1.2-1.2,1.9-2.6,1.9c-1.2,0-19.5,0-22.1,0s-2.6-4.5-6.5-12.2
			c-3.9-7.9-7.9-2.4-7.9-2.4l-1.2,15.9h-3.1c0,0,0-15.5,0-18c0-2.6-1-5.4-1-6.5c0-2.6,0.9-5.5,0.9-5.5l8.5,2.9L287.6,290z"/>
		<path fill="#9266CC" d="M246.5,267.3c3.7,0.9,12.9,5.1,17.5,22c0,0,0,2,3,2s20.6,0,20.6,0s1.5-0.6,1.5-3.4c0-1.4-7.4-4.4-10.4-5.7
			s-5.5-5.5-5.5-5.5s-5.2,2-14.1-7.5s-5.5-13.1-8.4-13.1c-0.6,0-4.6,4.1-5.6,8.7C244.9,265.6,245.5,267,246.5,267.3z"/>
	</g>
	<g>
		<path fill="#292F33" d="M217,290c0,0,1.5,0.6,1.5,1.9c0,1.2-1.2,1.9-2.6,1.9c-1.2,0-19.5,0-22.1,0s-2.6-4.5-6.5-12.2
			c-3.9-7.9-7.9-2.4-7.9-2.4l-1.2,15.9h-2.5c0,0,0-15.5,0-18c0-2.6-1.4-5.4-1.4-6.5c0-2.6,0.7-5.5,0.7-5.5l8.4,2.9L217,290z"/>
		<path fill="#9266CC" d="M175.9,267.3c3.7,0.9,12.9,5.1,17.5,22c0,0,0,2,3,2s20.6,0,20.6,0s1.5-0.6,1.5-3.4c0-1.4-7.4-4.4-10.4-5.7
			c-3-1.4-5.5-5.5-5.5-5.5s-5.2,2-14.1-7.5c-8.9-9.5-5.5-13.1-8.4-13.1c-0.6,0-4.6,4.1-5.6,8.7C174.2,265.6,174.9,267,175.9,267.3z"
			/>
	</g>
	<g>
		<path fill="#8899A6" d="M148.1,275.9c0,12.4-10.1,22.5-22.5,22.5s-22.5-10.1-22.5-22.5s10.1-22.5,22.5-22.5
			S148.1,263.4,148.1,275.9z M125.6,272.1c-2.1,0-3.7,1.6-3.7,3.7s1.6,3.7,3.7,3.7s3.7-1.6,3.7-3.7
			C129.4,273.8,127.7,272.1,125.6,272.1z"/>
		<g>
			<g>
				<g>
					<g>
						<defs>
							<path id="SVGID_1_" d="M145.6,275.9c0,11-9,20-20,20s-20-9-20-20s9-20,20-20S145.6,264.8,145.6,275.9z M125.6,269.9
								c-3.2,0-6,2.6-6,6c0,3.2,2.6,6,6,6c3.2,0,6-2.6,6-6S128.9,269.9,125.6,269.9z"/>
						</defs>
						<clipPath id="SVGID_2_">
							<use xlink:href="#SVGID_1_"  overflow="visible"/>
						</clipPath>
						<polygon clip-path="url(#SVGID_2_)" fill="#CCD6DD" points="125.6,276 103.1,273.4 103.1,253.8 123.1,253.8 						"/>
					</g>
				</g>
			</g>
			<g>
				<g>
					<g>
						<defs>
							<path id="SVGID_3_" d="M145.6,275.9c0,11-9,20-20,20s-20-9-20-20s9-20,20-20S145.6,264.8,145.6,275.9z M125.6,269.9
								c-3.2,0-6,2.6-6,6c0,3.2,2.6,6,6,6c3.2,0,6-2.6,6-6S128.9,269.9,125.6,269.9z"/>
						</defs>
						<clipPath id="SVGID_4_">
							<use xlink:href="#SVGID_3_"  overflow="visible"/>
						</clipPath>
						<polygon clip-path="url(#SVGID_4_)" fill="#CCD6DD" points="125.6,276 148.1,278.4 148.1,298.8 128.1,298.8 						"/>
					</g>
				</g>
			</g>
			<g>
				<g>
					<g>
						<defs>
							<path id="SVGID_5_" d="M145.6,275.9c0,11-9,20-20,20s-20-9-20-20s9-20,20-20S145.6,264.8,145.6,275.9z M125.6,269.9
								c-3.2,0-6,2.6-6,6c0,3.2,2.6,6,6,6c3.2,0,6-2.6,6-6S128.9,269.9,125.6,269.9z"/>
						</defs>
						<clipPath id="SVGID_6_">
							<use xlink:href="#SVGID_5_"  overflow="visible"/>
						</clipPath>
						<polygon clip-path="url(#SVGID_6_)" fill="#F5F8FA" points="125.6,275.9 128.2,299.6 148.1,298.4 						"/>
					</g>
				</g>
			</g>
			<g>
				<g>
					<g>
						<defs>
							<path id="SVGID_7_" d="M145.6,275.9c0,11-9,20-20,20s-20-9-20-20s9-20,20-20S145.6,264.8,145.6,275.9z M125.6,269.9
								c-3.2,0-6,2.6-6,6c0,3.2,2.6,6,6,6c3.2,0,6-2.6,6-6S128.9,269.9,125.6,269.9z"/>
						</defs>
						<clipPath id="SVGID_8_">
							<use xlink:href="#SVGID_7_"  overflow="visible"/>
						</clipPath>
						<polygon clip-path="url(#SVGID_8_)" fill="#F5F8FA" points="125.6,275.9 103.1,253.4 123.1,252.1 						"/>
					</g>
				</g>
			</g>
		</g>
	</g>
	<g>
		<path fill="#E75A70" d="M63.5,277.4c0-4.7-3.7-8.5-8.5-8.5c-2.9,0-5.4,1.4-6.9,3.5c-1.5-2.1-4-3.5-6.9-3.5c-4.7,0-8.5,3.7-8.5,8.5
			c0,0.6,0.1,1.2,0.2,1.9c1.1,7.4,9.4,15.1,15.1,17.2c5.9-2.1,14-9.9,15.1-17.2C63.4,278.8,63.5,278,63.5,277.4z"/>
		<path fill="#E75A70" d="M77.4,259.9c0-3.2-2.6-5.9-5.9-5.9c-2,0-3.7,1-4.7,2.5c-1.1-1.5-2.7-2.5-4.7-2.5c-3.2,0-5.9,2.6-5.9,5.9
			c0,0.5,0,0.9,0.1,1.4c0.9,5.1,6.5,10.5,10.5,11.9c4-1.5,9.7-6.9,10.5-11.9C77.2,260.8,77.4,260.4,77.4,259.9z"/>
	</g>
</g>
<g id="onboarding_slide_2_encrypted_hello_2">
	<g>
		<path fill="#E1E8ED" d="M360,267.3c0-1.4-1.1-2.5-2.5-2.5s-2.5,1.1-2.5,2.5c0,0,0,4.1-3.7,4.9v-3.6c0-7.6-6.1-13.7-13.7-13.7
			s-13.7,6.1-13.7,13.7v4c-6.5,2-8.7,10-8.7,14.7c0,1.4,1.1,2.5,2.5,2.5s2.5-1.1,2.5-2.5c0,0,0-4.4,4.1-5c0.6,6,2,12.5,4.6,12.5
			c0.4,0,0.7,0,1.2,0c5,0,3.7,2.5,8.7,2.5s3.7-2.5,7.5-2.5s3,2.5,7.5,2.5c2.1,0,3.7-1.6,3.7-3.7c0-0.9-2.9-6.2-4.7-11.6
			C360,280.3,360,271.8,360,267.3z"/>
		<circle fill="#292F33" cx="331.2" cy="268.5" r="2.5"/>
		<circle fill="#292F33" cx="343.7" cy="268.5" r="5"/>
		<circle fill="#9AAAB4" cx="343.7" cy="269.8" r="2.5"/>
		
			<ellipse transform="matrix(0.7999 0.6001 -0.6001 0.7999 237.4198 -147.1514)" fill="#292F33" cx="339.4" cy="282.5" rx="7.5" ry="5.6"/>
	</g>
	<g>
		<path fill="#99AAB5" d="M278,295c0,2.7-2.2,3.7-5,3.7h-12.5c-2.7,0-5-1-5-3.7l0,0c0-2.7,3.7-8.7,3.7-16.2s15-7.5,15,0
			S278,292.3,278,295L278,295z"/>
		<g>
			<g>
				<g>
					<g>
						<defs>
							<path id="SVGID_9_" d="M266.7,253.1c-12.4,0-22.5,10.2-22.5,22.7c0,2.7,2.2,5.2,5,5.2h35c2.7,0,5-2.5,5-5.2
								C289.2,263.5,279.1,253.1,266.7,253.1z"/>
						</defs>
						<clipPath id="SVGID_10_">
							<use xlink:href="#SVGID_9_"  overflow="visible"/>
						</clipPath>
						<path clip-path="url(#SVGID_10_)" fill="#DD2E44" d="M266.7,252.4c-13.1,0-23.7,11.1-23.7,24.2c0,2.9,2.4,5.9,5.2,5.9h37
							c2.9,0,5.2-2.9,5.2-5.9C290.5,263.5,279.9,252.4,266.7,252.4z"/>
					</g>
				</g>
			</g>
			<g>
				<g>
					<g>
						<defs>
							<path id="SVGID_11_" d="M266.7,253.1c-12.4,0-22.5,10.2-22.5,22.7c0,2.7,2.2,5.2,5,5.2h35c2.7,0,5-2.5,5-5.2
								C289.2,263.5,279.1,253.1,266.7,253.1z"/>
						</defs>
						<clipPath id="SVGID_12_">
							<use xlink:href="#SVGID_11_"  overflow="visible"/>
						</clipPath>
						<g clip-path="url(#SVGID_12_)">
							<path fill="#F4ABBA" d="M253.9,273.8c-4.2,0-7.7-3.5-7.7-7.7s3.5-7.7,7.7-7.7c4.2,0,7.7,3.5,7.7,7.7S258.1,273.8,253.9,273.8
								z"/>
							<path fill="#F4ABBA" d="M253.9,258.5c4.1,0,7.5,3.4,7.5,7.5s-3.4,7.5-7.5,7.5s-7.5-3.4-7.5-7.5
								C246.2,261.9,249.7,258.5,253.9,258.5 M253.9,258.1c-4.4,0-7.9,3.5-7.9,7.9s3.5,7.9,7.9,7.9s7.9-3.5,7.9-7.9
								S258.2,258.1,253.9,258.1L253.9,258.1z"/>
						</g>
					</g>
				</g>
			</g>
			<g>
				<g>
					<g>
						<defs>
							<path id="SVGID_13_" d="M266.7,253.1c-12.4,0-22.5,10.2-22.5,22.7c0,2.7,2.2,5.2,5,5.2h35c2.7,0,5-2.5,5-5.2
								C289.2,263.5,279.1,253.1,266.7,253.1z"/>
						</defs>
						<clipPath id="SVGID_14_">
							<use xlink:href="#SVGID_13_"  overflow="visible"/>
						</clipPath>
						<path clip-path="url(#SVGID_14_)" fill="#F4ABBA" d="M287.5,267.1c-1.2-3-3-5.6-5.2-7.7c-3.1,0-5.6,2.5-5.6,5.6
							s2.5,5.6,5.6,5.6C284.7,270.6,286.7,269.3,287.5,267.1z"/>
					</g>
				</g>
			</g>
			<g>
				<g>
					<g>
						<defs>
							<path id="SVGID_15_" d="M266.7,253.1c-12.4,0-22.5,10.2-22.5,22.7c0,2.7,2.2,5.2,5,5.2h35c2.7,0,5-2.5,5-5.2
								C289.2,263.5,279.1,253.1,266.7,253.1z"/>
						</defs>
						<clipPath id="SVGID_16_">
							<use xlink:href="#SVGID_15_"  overflow="visible"/>
						</clipPath>
						<circle clip-path="url(#SVGID_16_)" fill="#F4ABBA" cx="271.1" cy="273.1" r="5.6"/>
					</g>
				</g>
			</g>
			<g>
				<g>
					<g>
						<defs>
							<path id="SVGID_17_" d="M266.7,253.1c-12.4,0-22.5,10.2-22.5,22.7c0,2.7,2.2,5.2,5,5.2h35c2.7,0,5-2.5,5-5.2
								C289.2,263.5,279.1,253.1,266.7,253.1z"/>
						</defs>
						<clipPath id="SVGID_18_">
							<use xlink:href="#SVGID_17_"  overflow="visible"/>
						</clipPath>
						<circle clip-path="url(#SVGID_18_)" fill="#F4ABBA" cx="269.2" cy="259.4" r="3.7"/>
					</g>
				</g>
			</g>
		</g>
	</g>
	<g>
		<path fill="#99AAB5" d="M207.1,295c0,2.7-2.2,3.7-5,3.7h-12.5c-2.7,0-5-1-5-3.7l0,0c0-2.7,3.7-8.7,3.7-16.2s15-7.5,15,0
			C203.4,286.3,207.1,292.3,207.1,295L207.1,295z"/>
		<g>
			<g>
				<g>
					<g>
						<defs>
							<path id="SVGID_19_" d="M195.9,253.5c-12.4,0-22.5,10.1-22.5,22.6c0,2.7,2.2,5.1,5,5.1h35c2.7,0,5-2.4,5-5.1
								C218.4,263.6,208.4,253.5,195.9,253.5z"/>
						</defs>
						<clipPath id="SVGID_20_">
							<use xlink:href="#SVGID_19_"  overflow="visible"/>
						</clipPath>
						<path clip-path="url(#SVGID_20_)" fill="#DD2E44" d="M195.9,252.8c-13.1,0-23.7,10.9-23.7,24.1c0,2.9,2.4,5.6,5.2,5.6h37
							c2.9,0,5.2-2.7,5.2-5.6C219.6,263.6,209,252.8,195.9,252.8z"/>
					</g>
				</g>
			</g>
			<g>
				<g>
					<g>
						<defs>
							<path id="SVGID_21_" d="M195.9,253.5c-12.4,0-22.5,10.1-22.5,22.6c0,2.7,2.2,5.1,5,5.1h35c2.7,0,5-2.4,5-5.1
								C218.4,263.6,208.4,253.5,195.9,253.5z"/>
						</defs>
						<clipPath id="SVGID_22_">
							<use xlink:href="#SVGID_21_"  overflow="visible"/>
						</clipPath>
						<g clip-path="url(#SVGID_22_)">
							<path fill="#F4ABBA" d="M183.1,274.1c-4.2,0-7.7-3.5-7.7-7.7s3.5-7.7,7.7-7.7s7.7,3.5,7.7,7.7
								C190.9,270.6,187.4,274.1,183.1,274.1z"/>
							<path fill="#F4ABBA" d="M183.1,258.9c4.1,0,7.5,3.4,7.5,7.5s-3.4,7.5-7.5,7.5s-7.5-3.4-7.5-7.5
								C175.5,262.3,178.9,258.9,183.1,258.9 M183.1,258.5c-4.4,0-7.9,3.5-7.9,7.9s3.5,7.9,7.9,7.9s7.9-3.5,7.9-7.9
								S187.4,258.5,183.1,258.5L183.1,258.5z"/>
						</g>
					</g>
				</g>
			</g>
			<g>
				<g>
					<g>
						<defs>
							<path id="SVGID_23_" d="M195.9,253.5c-12.4,0-22.5,10.1-22.5,22.6c0,2.7,2.2,5.1,5,5.1h35c2.7,0,5-2.4,5-5.1
								C218.4,263.6,208.4,253.5,195.9,253.5z"/>
						</defs>
						<clipPath id="SVGID_24_">
							<use xlink:href="#SVGID_23_"  overflow="visible"/>
						</clipPath>
						<path clip-path="url(#SVGID_24_)" fill="#F4ABBA" d="M216.7,267.5c-1.2-3-3-5.6-5.2-7.7c-3.1,0-5.6,2.5-5.6,5.6
							s2.5,5.6,5.6,5.6C213.9,271,215.9,269.6,216.7,267.5z"/>
					</g>
				</g>
			</g>
			<g>
				<g>
					<g>
						<defs>
							<path id="SVGID_25_" d="M195.9,253.5c-12.4,0-22.5,10.1-22.5,22.6c0,2.7,2.2,5.1,5,5.1h35c2.7,0,5-2.4,5-5.1
								C218.4,263.6,208.4,253.5,195.9,253.5z"/>
						</defs>
						<clipPath id="SVGID_26_">
							<use xlink:href="#SVGID_25_"  overflow="visible"/>
						</clipPath>
						<circle clip-path="url(#SVGID_26_)" fill="#F4ABBA" cx="200.4" cy="273.5" r="5.6"/>
					</g>
				</g>
			</g>
			<g>
				<g>
					<g>
						<defs>
							<path id="SVGID_27_" d="M195.9,253.5c-12.4,0-22.5,10.1-22.5,22.6c0,2.7,2.2,5.1,5,5.1h35c2.7,0,5-2.4,5-5.1
								C218.4,263.6,208.4,253.5,195.9,253.5z"/>
						</defs>
						<clipPath id="SVGID_28_">
							<use xlink:href="#SVGID_27_"  overflow="visible"/>
						</clipPath>
						<circle clip-path="url(#SVGID_28_)" fill="#F4ABBA" cx="198.4" cy="259.8" r="3.7"/>
					</g>
				</g>
			</g>
		</g>
	</g>
	<g>
		<path fill="#FFCC4D" d="M138.7,275.6c-1.2,1.2-2,3.9-1.7,5.6l1.1,8c0.2,1.7-0.9,2.6-2.5,1.9l-7.4-3.5c-1.6-0.7-4.2-0.7-5.9,0
			l-7.2,3.5c-1.6,0.7-2.7,0-2.5-1.9l1-8c0.2-1.7-0.6-4.2-1.9-5.6l-5.6-5.9c-1.2-1.2-0.9-2.6,1-3l8-1.5c1.7-0.4,3.9-1.9,4.7-3.5
			l3.9-7.1c0.9-1.6,2.2-1.6,3.1,0l3.9,7.1c0.9,1.6,3,3.1,4.7,3.5l8,1.4c1.7,0.4,2.2,1.6,1,3L138.7,275.6z"/>
		<path fill="#FFD983" d="M114.9,256.3c1.2,1.7,3,6.1,2.1,6.7s-4.5-2.4-5.7-4.1s-1.1-3.4-0.1-4.1
			C112.1,254.1,113.6,254.5,114.9,256.3z"/>
		<path fill="#FFD983" d="M139.1,258.9c-1.2,1.7-4.9,4.9-5.7,4.1c-0.9-0.6,0.9-5,2.1-6.7s2.7-2.1,3.7-1.4S140.4,257.1,139.1,258.9z"
			/>
		<path fill="#FFD983" d="M123.4,295.1c0-2.1,1.1-6.7,2.2-6.7s2.2,4.6,2.2,6.7s-1,3.4-2.2,3.4C124.5,298.5,123.4,297.4,123.4,295.1z
			"/>
		<path fill="#FFD983" d="M143.6,283.5c-2.1-0.6-6.1-3.1-5.7-4.2c0.4-1.1,5-0.7,7.1,0c2.1,0.6,2.9,2,2.5,3.2
			C147.1,283.6,145.7,284.3,143.6,283.5z"/>
		<path fill="#FFD983" d="M105.2,279.3c2.1-0.6,6.7-1,7.1,0c0.4,1.1-3.6,3.6-5.7,4.2s-3.5,0.1-3.9-1.1
			C102.4,281.3,103.2,280,105.2,279.3z"/>
	</g>
	<g>
		<path fill="#66757F" d="M74.4,295c0,1.4-1.1,2.5-2.5,2.5h-3.7c-1.4,0-2.5-1.1-2.5-2.5v-10c0-1.4,1.1-2.5,2.5-2.5h3.7
			c1.4,0,2.5,1.1,2.5,2.5V295z"/>
		<path fill="#66757F" d="M43.1,295c0,1.4-1.1,2.5-2.5,2.5h-3.7c-1.4,0-2.5-1.1-2.5-2.5v-10c0-1.4,1.1-2.5,2.5-2.5h3.7
			c1.4,0,2.5,1.1,2.5,2.5V295z"/>
		<path fill="#66757F" d="M38.1,273.1c0,1-0.9,1.9-1.9,1.9h-2.5c-1,0-1.9-0.9-1.9-1.9l0,0c0-1,0.9-1.9,1.9-1.9h2.5
			C37.2,271.3,38.1,272.1,38.1,273.1L38.1,273.1z"/>
		<path fill="#66757F" d="M76.9,273.1c0-1-0.9-1.9-1.9-1.9h-2.5c-1,0-1.9,0.9-1.9,1.9l0,0c0,1,0.9,1.9,1.9,1.9H75
			C76,275,76.9,274.1,76.9,273.1L76.9,273.1z"/>
		<path fill="#CCD6DD" d="M43.7,259.1c5-1.2,17.5-1.2,22.5,0c4.9,1.2,6,13.7,6,13.7s2.2,0,2.2,5s0,10,0,10s0.2,3.7-3.5,5
			C66,294.4,61,294,54.8,294s-11.6,0.4-16.5-1.2c-3.7-1.2-4-5-4-5v-10c0,0,0.2-5,2.7-5C37.1,272.9,38.9,260.4,43.7,259.1z"/>
		<path fill="#292F33" d="M54.4,279.1c-7.1,0-13.7-0.1-20-0.4v9.1c0,0,0.2,3.7,4,5c4.9,1.6,10.1,1.2,16.4,1.2s11.1,0.4,16-1.2
			c3.7-1.2,3.5-5,3.5-5s0-4.4,0-9.1C69.4,279,61.5,279.1,54.4,279.1z"/>
		<path fill="#55ACEE" d="M55,271.6c4.9,0,10.7,0.2,15,0.7l-1.2-7c-1.2-3.7-8.7-3.7-13.7-3.7s-12.5,0-13.7,3.7l-1.2,7
			C44.2,271.9,50.1,271.6,55,271.6z"/>
		<path fill="#CCD6DD" d="M46.9,283.8c0,1.4-1.1,2.5-2.5,2.5h-5c-1.4,0-2.5-1.1-2.5-2.5l0,0c0-1.4,1.1-2.5,2.5-2.5h5
			C45.7,281.3,46.9,282.4,46.9,283.8L46.9,283.8z"/>
		<path fill="#CCD6DD" d="M71.9,283.8c0-1.4-1.1-2.5-2.5-2.5h-5c-1.4,0-2.5,1.1-2.5,2.5l0,0c0,1.4,1.1,2.5,2.5,2.5h5
			C70.7,286.3,71.9,285.1,71.9,283.8L71.9,283.8z"/>
		<path fill="#66757F" d="M68.1,289.4c0,1-0.9,1.9-1.9,1.9H42.5c-1,0-1.9-0.9-1.9-1.9l0,0c0-1,0.9-1.9,1.9-1.9h23.7
			C67.2,287.5,68.1,288.4,68.1,289.4L68.1,289.4z"/>
		<path fill="#99AAB5" d="M47.5,279.1c-0.1,0-0.4,0-0.5-0.1l-7.5-3.7c-0.6-0.2-0.9-1-0.5-1.6c0.2-0.6,1-0.9,1.6-0.5l7.5,3.7
			c0.6,0.2,0.9,1,0.5,1.6C48.4,278.9,48,279.1,47.5,279.1z"/>
		<path fill="#99AAB5" d="M62.5,279.1c-0.5,0-0.9-0.2-1.1-0.7c-0.2-0.6,0-1.4,0.5-1.6l7.5-3.7c0.6-0.2,1.4,0,1.6,0.5
			c0.2,0.6,0,1.4-0.5,1.6l-7.5,3.7C62.9,279.1,62.7,279.1,62.5,279.1z"/>
		<path fill="#DD2E44" d="M54.4,258.1c0,1-0.9,1.9-1.9,1.9h-8.7c-1,0-1.9-0.9-1.9-1.9l0,0c0-1,0.9-1.9,1.9-1.9h8.7
			C53.5,256.3,54.4,257.1,54.4,258.1L54.4,258.1z"/>
		<path fill="#55ACEE" d="M66.9,258.1c0,1-0.9,1.9-1.9,1.9h-8.8c-1,0-1.9-0.9-1.9-1.9l0,0c0-1,0.9-1.9,1.9-1.9h8.7
			C66,256.3,66.9,257.1,66.9,258.1L66.9,258.1z"/>
		<rect x="51.9" y="256.3" fill="#F5F8FA" width="5" height="3.7"/>
	</g>
</g>
<g id="onboarding_slide_2_encrypted_hello_4">
	<g>
		<path fill="#FFCC4D" d="M358.7,275.9c0,11.7-9.5,21.2-21.2,21.2s-21.2-9.5-21.2-21.2s9.5-21.2,21.2-21.2S358.7,264.1,358.7,275.9"
			/>
		<ellipse fill="#664500" cx="337.5" cy="287.1" rx="6.2" ry="7.5"/>
		<path fill="#664500" d="M322.5,267.1c-0.2,0-0.5-0.1-0.7-0.2c-0.5-0.4-0.6-1.2-0.2-1.7c4.1-5.5,9.5-5.5,9.7-5.5
			c0.7,0,1.2,0.5,1.2,1.2s-0.5,1.2-1.2,1.2c-0.2,0-4.5,0.1-7.7,4.5C323.2,266.9,322.9,267.1,322.5,267.1z"/>
		<path fill="#664500" d="M352.5,267.1c-0.4,0-0.7-0.1-1-0.5c-3.2-4.4-7.6-4.5-7.7-4.5c-0.6,0-1.2-0.6-1.2-1.2
			c0-0.7,0.5-1.2,1.2-1.2c0.2,0,5.6,0,9.7,5.5c0.4,0.5,0.2,1.4-0.2,1.7C353,267,352.7,267.1,352.5,267.1z"/>
		<path fill="#664500" d="M332.4,272.8l2.2-2.2c0.5-0.5,0.5-1.2,0-1.7s-1.2-0.5-1.7,0l-2.2,2.2l-2.2-2.2c-0.5-0.5-1.2-0.5-1.7,0
			s-0.5,1.2,0,1.7l2.2,2.2l-2.2,2.2c-0.5,0.5-0.5,1.2,0,1.7c0.2,0.2,0.6,0.4,0.9,0.4s0.6-0.1,0.9-0.4l2.2-2.2l2.2,2.2
			c0.2,0.2,0.6,0.4,0.9,0.4s0.6-0.1,0.9-0.4c0.5-0.5,0.5-1.2,0-1.7L332.4,272.8z"/>
		<path fill="#664500" d="M346.1,272.8l2.2-2.2c0.5-0.5,0.5-1.2,0-1.7s-1.2-0.5-1.7,0l-2.2,2.2l-2.2-2.2c-0.5-0.5-1.2-0.5-1.7,0
			s-0.5,1.2,0,1.7l2.2,2.2l-2.2,2.2c-0.5,0.5-0.5,1.2,0,1.7c0.2,0.2,0.6,0.4,0.9,0.4s0.6-0.1,0.9-0.4l2.2-2.2l2.2,2.2
			c0.2,0.2,0.6,0.4,0.9,0.4s0.6-0.1,0.9-0.4c0.5-0.5,0.5-1.2,0-1.7L346.1,272.8z"/>
	</g>
	<g>
		<path fill="#553788" d="M256.9,268.5c3.7,6.2,0,13.4-3.7,12.1c-3.7-1.2-5,2.5-1.2,3.7c3.7,1.2,11.9-0.6,16.2-5
			c1.2-1.2,2.5-1.2,2.5-1.2L256.9,268.5z"/>
		<path fill="#553788" d="M276.9,268.5c-3.7,6.2,0,13.4,3.7,12.1c3.7-1.2,5,2.5,1.2,3.7c-3.7,1.2-11.9-0.6-16.2-5
			c-1.2-1.2-2.5-1.2-2.5-1.2L276.9,268.5z"/>
		<path fill="#744EAA" d="M282.1,273.5c-3.7,6.2,0,13.4,3.7,12.1c3.7-1.2,5,2.5,1.2,3.7c-3.7,1.2-11.9-0.6-16.2-5
			c-1.2-1.2-2.5-1.2-2.5-1.2L282.1,273.5z"/>
		<path fill="#744EAA" d="M251.6,273.5c3.7,6.2,0,13.4-3.7,12.1c-3.7-1.2-5,2.5-1.2,3.7c3.7,1.2,11.9-0.6,16.2-5
			c1.2-1.2,2.5-1.2,2.5-1.2L251.6,273.5z"/>
		<path fill="#9266CC" d="M285.9,292.8c-3.4,1.1-8-7-6-13.2c2-4,3.2-8.6,3.2-12.2c0-9-7.2-13.7-16.2-13.7s-16.2,4.7-16.2,13.7
			c0,3.6,1.2,8.2,3.2,12.2c2,6.2-2.6,14.4-6,13.2c-3.7-1.2-5,3.7-1.2,5c3.7,1.2,10.4-0.7,15-5c2.7-2.5,5.2-2.5,5.2-2.5
			s2.5,0,5.2,2.5c4.6,4.2,11.2,6.2,15,5C290.9,296.5,289.6,291.5,285.9,292.8z"/>
		<circle fill="#292F33" cx="261.9" cy="279.8" r="2.5"/>
		<circle fill="#292F33" cx="271.9" cy="279.8" r="2.5"/>
	</g>
	<g>
		<path fill="#553788" d="M186.1,268.5c3.7,6.2,0,13.4-3.7,12.1c-3.7-1.2-5,2.5-1.2,3.7c3.7,1.2,11.9-0.6,16.2-5
			c1.2-1.2,2.5-1.2,2.5-1.2L186.1,268.5z"/>
		<path fill="#553788" d="M206.1,268.5c-3.7,6.2,0,13.4,3.7,12.1c3.7-1.2,5,2.5,1.2,3.7c-3.7,1.2-11.9-0.6-16.2-5
			c-1.2-1.2-2.5-1.2-2.5-1.2L206.1,268.5z"/>
		<path fill="#744EAA" d="M211.4,273.5c-3.7,6.2,0,13.4,3.7,12.1c3.7-1.2,5,2.5,1.2,3.7c-3.7,1.2-11.9-0.6-16.2-5
			c-1.2-1.2-2.5-1.2-2.5-1.2L211.4,273.5z"/>
		<path fill="#744EAA" d="M180.9,273.5c3.7,6.2,0,13.4-3.7,12.1c-3.7-1.2-5,2.5-1.2,3.7c3.7,1.2,11.9-0.6,16.2-5
			c1.2-1.2,2.5-1.2,2.5-1.2L180.9,273.5z"/>
		<path fill="#9266CC" d="M215.1,292.8c-3.4,1.1-8-7-6-13.2c2-4,3.2-8.6,3.2-12.2c0-9-7.2-13.7-16.2-13.7s-16.2,4.7-16.2,13.7
			c0,3.6,1.2,8.2,3.2,12.2c2,6.2-2.6,14.4-6,13.2c-3.7-1.2-5,3.7-1.2,5c3.7,1.2,10.4-0.7,15-5c2.7-2.5,5.2-2.5,5.2-2.5
			s2.5,0,5.2,2.5c4.6,4.2,11.2,6.2,15,5C220.1,296.5,218.9,291.5,215.1,292.8z"/>
		<circle fill="#292F33" cx="191.1" cy="279.8" r="2.5"/>
		<circle fill="#292F33" cx="201.1" cy="279.8" r="2.5"/>
	</g>
	<g>
		<path fill="#FDD888" d="M142.9,283.3c-0.7-8.2-4.9-12.4-4.9-12.4l-7.5-10h-1.3h-3.7h-3.7h-1.2l-7.5,10c0,0-1.7,1.7-3.2,5.4
			c-2.5,0.9-4.2,3.1-4.2,5.9c0,1.7,0.7,3.4,2,4.6c-0.5,0.9-0.7,1.9-0.7,2.9c0,2.5,1.4,4.5,3.5,5.6c1.6,2.4,3.7,3.1,5.2,3.1h20
			c1.7,0,4.2-1,5.9-4.1c2.4-0.9,4.1-3.1,4.1-5.9C145.5,286.3,144.5,284.4,142.9,283.3z"/>
		<path fill="#FDD888" d="M125.5,260.9c0.6,0,1.4-0.2,1.9-0.5c0.5,0.4,1.2,0.5,1.9,0.5c2.1,0,5-2.9,5-5c0,0,0-2.5-2.5-2.5
			c-1,0-1.2,1.2-2.5,1.2s-1.2-1.2-3.7-1.2s-2.5,1.2-3.7,1.2s-1.5-1.2-2.5-1.2c-2.5,0-2.5,2.5-2.5,2.5c0,2.1,2.9,5,5,5
			c0.6,0,1.4-0.2,1.9-0.5C124.1,260.6,124.9,260.9,125.5,260.9z"/>
		<path fill="#BF6952" d="M133,260.9c0,0.7-0.5,1.2-1.2,1.2h-12.6c-0.7,0-1.2-0.5-1.2-1.2l0,0c0-0.7,0.5-1.2,1.2-1.2h12.5
			C132.5,259.6,133,260.1,133,260.9L133,260.9z"/>
		<path fill="#67757F" d="M132.9,284c0-5.6-10.7-5.2-10.7-8.6c0-1.6,1.6-2.4,3.5-2.4c3.1,0,3.7,2,5.1,2c1,0,1.5-0.6,1.5-1.2
			c0-1.6-2.5-2.9-5-3.2V269c0-1-0.9-1.7-1.9-1.7s-1.9,0.7-1.9,1.7v1.6c-2.6,0.6-4.9,2.4-4.9,5.2c0,5.4,10.7,5.1,10.7,8.9
			c0,1.2-1.5,2.6-3.9,2.6c-3.6,0-4.9-2.4-6.2-2.4c-0.7,0-1.4,0.6-1.4,1.5c0,1.4,2.4,3.1,5.7,3.5l0,0v1.7c0,1,0.9,1.7,1.9,1.7
			s1.9-0.7,1.9-1.7V290l0,0C130.4,289.3,132.9,287.4,132.9,284z"/>
	</g>
	<g>
		<path fill="#3E721D" d="M67.1,287c-10,0-10.2,7.5-10.2,7.5V280h-5v14.5c0,0,0.2-7.5-9.7-7.5c-5,0-8.6-2.9-8.6-2.9
			s0,10.9,11.3,10.9c5,0,7.5,0,7.5,0s0,2.5,2.5,2.5s2.5-2.5,2.5-2.5s2.5,0,7.5,0c11.2,0,11.1-10.9,11.1-10.9S72.1,287,67.1,287z"/>
		<path fill="#FFAC33" d="M58.9,287.9c-0.4,0-0.9-0.1-1.1-0.4l-2.9-2l-2.9,2c-0.4,0.2-0.7,0.4-1.1,0.4c-0.1,0-0.4,0-0.5-0.1
			c-0.6-0.1-1.1-0.5-1.4-1.1l-1.5-3.1l-3.5,0.2h-0.1c-0.5,0-1.1-0.2-1.5-0.6s-0.6-1-0.6-1.6l0.2-3.5l-3.1-1.5
			c-0.5-0.2-1-0.7-1.1-1.4c-0.1-0.6,0-1.2,0.2-1.7l2-2.9l-2-2.9c-0.4-0.5-0.5-1.1-0.2-1.7c0.1-0.6,0.5-1.1,1.1-1.4l3.1-1.5l-0.2-3.5
			c0-0.6,0.1-1.2,0.6-1.6c0.4-0.4,0.9-0.6,1.5-0.6H44l3.5,0.2l1.5-3.1c0.2-0.5,0.7-1,1.4-1.1c0.1,0,0.4-0.1,0.5-0.1
			c0.4,0,0.9,0.1,1.1,0.4l2.9,2l2.9-2c0.4-0.2,0.7-0.4,1.1-0.4c0.1,0,0.4,0,0.5,0.1c0.6,0.1,1.1,0.5,1.4,1.1l1.5,3.1l3.5-0.2h0.1
			c0.5,0,1.1,0.2,1.5,0.6s0.6,1,0.6,1.6l-0.2,3.5l3.1,1.5c0.5,0.2,1,0.7,1.1,1.4s0,1.2-0.2,1.7l-2,2.9l2,2.9
			c0.4,0.5,0.5,1.1,0.2,1.7c-0.1,0.6-0.5,1.1-1.1,1.4l-3.1,1.5l0.2,3.5c0,0.6-0.1,1.1-0.6,1.6c-0.4,0.4-0.9,0.6-1.5,0.6h-0.1
			l-3.5-0.2l-1.5,3.1c-0.2,0.5-0.7,1-1.4,1.1C59.2,287.9,59.1,287.9,58.9,287.9z"/>
		<circle fill="#732700" cx="55" cy="270.8" r="8.7"/>
	</g>
</g>
<rect x="19.9" y="375" fill="none" width="353.3" height="325"/>
<text transform="matrix(1 0 0 1 73.4373 394.5776)" fill="#FFFFFF" font-family="'FiraSans-Regular'" font-size="26">Cypholoji shows you </text>
<text transform="matrix(1 0 0 1 85.8149 425.7776)" fill="#FFFFFF" font-family="'FiraSans-Regular'" font-size="26">how that works by </text>
<text transform="matrix(1 0 0 1 67.2672 456.9776)" fill="#FFFFFF" font-family="'FiraSans-Regular'" font-size="26">using a simple cipher </text>
<text transform="matrix(1 0 0 1 62.0494 488.1776)" fill="#FFFFFF" font-family="'FiraSans-Regular'" font-size="26">to turn your messages </text>
<text transform="matrix(1 0 0 1 130.4264 519.3776)" fill="#FFFFFF" font-family="'FiraSans-Regular'" font-size="26">into emojis</text>
</svg>
