<?xml version="1.0" encoding="utf-8"?>
<!-- Generator: Adobe Illustrator 18.0.0, SVG Export Plug-In . SVG Version: 6.00 Build 0)  -->
<!DOCTYPE svg PUBLIC "-//W3C//DTD SVG 1.1//EN" "http://www.w3.org/Graphics/SVG/1.1/DTD/svg11.dtd">
<svg version="1.1" id="Layer_1" xmlns="http://www.w3.org/2000/svg" xmlns:xlink="http://www.w3.org/1999/xlink" x="0px" y="0px"
	 viewBox="0.1 -336.6 412.9 735.3" enable-background="new 0.1 -336.6 412.9 735.3" xml:space="preserve">
<polyline fill="#283344" points="0.1,398.6 0.1,-336.6 413,-336.6 413,398.6 "/>
<g id="onboarding_slide_2_hello">
	<g id="onboarding_slide_2_A5">
		<path id="path22_87_" fill="#3B88C3" d="M384.4-160.6c0,3.7-2.9,6.6-6.6,6.6h-46c-3.7,0-6.6-2.9-6.6-6.6v-46
			c0-3.7,2.9-6.6,6.6-6.6h46c3.7,0,6.6,2.9,6.6,6.6V-160.6z"/>
		<path id="path26_80_" fill="#FFFFFF" d="M364.4-183.5c0-6.2-3.2-11.7-9.6-11.7s-9.6,5.5-9.6,11.7s3.2,11.7,9.6,11.7
			C361.4-171.9,364.4-177.4,364.4-183.5 M337.4-183.5c0-10.6,7.1-18.8,17.5-18.8c10.2,0,17.5,8.4,17.5,18.8
			c0,10.5-7.1,18.8-17.5,18.8C344.6-164.9,337.4-173,337.4-183.5"/>
	</g>
	<g id="onboarding_slide_2_A4">
		<path id="path22_83_" fill="#3B88C3" d="M235.7-160.6c0,3.7-2.9,6.6-6.6,6.6h-46c-3.7,0-6.6-2.9-6.6-6.6v-46
			c0-3.7,2.9-6.6,6.6-6.6h46c3.7,0,6.6,2.9,6.6,6.6V-160.6z"/>
		<path id="path26_75_" fill="#FFFFFF" d="M197.7-198c0-2.5,1.6-3.9,3.8-3.9s3.8,1.4,3.8,3.9v25.5h9.1c2.6,0,3.7,2,3.7,3.7
			c-0.1,1.7-1.4,3.4-3.7,3.4h-12.7c-2.5,0-3.9-1.6-3.9-4.2C197.7-169.6,197.7-198,197.7-198z"/>
	</g>
	<g id="onboarding_slide_2_A3">
		<path id="path22_85_" fill="#3B88C3" d="M310.1-160.6c0,3.7-2.9,6.6-6.6,6.6h-46c-3.7,0-6.6-2.9-6.6-6.6v-46
			c0-3.7,2.9-6.6,6.6-6.6h46c3.7,0,6.6,2.9,6.6,6.6V-160.6z"/>
		<path id="path26_78_" fill="#FFFFFF" d="M272-198c0-2.5,1.6-3.9,3.8-3.9s3.8,1.4,3.8,3.9v25.5h9.1c2.6,0,3.7,2,3.7,3.7
			c-0.1,1.7-1.4,3.4-3.7,3.4h-12.7c-2.5,0-3.9-1.6-3.9-4.2C272-169.6,272-198,272-198z"/>
	</g>
	<g id="onboarding_slide_2_A2">
		<path id="path22_81_" fill="#3B88C3" d="M161.4-160.6c0,3.7-2.9,6.6-6.6,6.6h-46c-3.7,0-6.6-2.9-6.6-6.6v-46
			c0-3.7,2.9-6.6,6.6-6.6h46c3.7,0,6.6,2.9,6.6,6.6V-160.6z"/>
		<path id="path26_73_" fill="#FFFFFF" d="M122.4-197.3c0-2.5,1.3-4.5,3.9-4.5H139c2.5,0,3.7,1.7,3.7,3.5c0,1.7-1.2,3.5-3.7,3.5H130
			v7.5h8.4c2.5,0,3.7,1.7,3.7,3.5c0,1.7-1.3,3.5-3.7,3.5H130v7.7h9.5c2.5,0,3.7,1.7,3.7,3.5c0,1.7-1.2,3.5-3.7,3.5h-13.1
			c-2.2,0-3.9-1.6-3.9-3.8C122.4-169.1,122.4-197.3,122.4-197.3z"/>
	</g>
	<g id="onboarding_slide_2_A1">
		<path id="path22_79_" fill="#3B88C3" d="M87.1-160.6c0,3.7-2.9,6.6-6.6,6.6h-46c-3.7,0-6.6-2.9-6.6-6.6v-46c0-3.7,2.9-6.6,6.6-6.6
			h46c3.7,0,6.6,2.9,6.6,6.6V-160.6z"/>
		<path id="path26_69_" fill="#FFFFFF" d="M69.9-201.5c-2.2,0-4.1,1.8-4.1,4.1v9.1H49.4v-9.1c0-2.2-1.8-4.1-4.1-4.1
			s-4.1,1.8-4.1,4.1v27.8c0,2.2,1.8,4.1,4.1,4.1c2.2,0,4.1-1.8,4.1-4.1v-10.6h16.4v10.6c0,2.2,1.8,4.1,4.1,4.1
			c2.2,0,4.1-1.8,4.1-4.1v-27.8C74-199.7,72.1-201.5,69.9-201.5"/>
	</g>
</g>
<g id="onboarding_slide1_lines">
	<path id="onboarding_slide1_line_5" fill="#FFFFFF" d="M56.6-93.6c0-0.5,0.4-1.1,1.1-1.1l0,0c0.5,0,1.1,0.4,1.1,1.1l0,0
		c0,0.5-0.4,1.1-1.1,1.1l0,0C57-92.6,56.6-93.1,56.6-93.6z M56.6-97.4c0-0.5,0.4-1.1,1.1-1.1l0,0c0.5,0,1.1,0.4,1.1,1.1l0,0
		c0,0.5-0.4,1.1-1.1,1.1l0,0C57-96.4,56.6-96.9,56.6-97.4z M56.6-101.2c0-0.5,0.4-1.1,1.1-1.1l0,0c0.5,0,1.1,0.4,1.1,1.1l0,0
		c0,0.5-0.4,1.1-1.1,1.1l0,0C57-100.3,56.6-100.7,56.6-101.2z M56.6-105c0-0.5,0.4-1.1,1.1-1.1l0,0c0.5,0,1.1,0.4,1.1,1.1l0,0
		c0,0.5-0.4,1.1-1.1,1.1l0,0C57-104.1,56.6-104.5,56.6-105z M56.6-108.8c0-0.5,0.4-1.1,1.1-1.1l0,0c0.5,0,1.1,0.4,1.1,1.1l0,0
		c0,0.5-0.4,1.1-1.1,1.1l0,0C57-107.9,56.6-108.3,56.6-108.8z M56.6-112.6c0-0.5,0.4-1.1,1.1-1.1l0,0c0.5,0,1.1,0.4,1.1,1.1l0,0
		c0,0.5-0.4,1.1-1.1,1.1l0,0C57-111.7,56.6-112.1,56.6-112.6z M56.6-116.5c0-0.5,0.4-1.1,1.1-1.1l0,0c0.5,0,1.1,0.4,1.1,1.1l0,0
		c0,0.5-0.4,1.1-1.1,1.1l0,0C57-115.5,56.6-115.9,56.6-116.5z M56.6-120.3c0-0.5,0.4-1.1,1.1-1.1l0,0c0.5,0,1.1,0.4,1.1,1.1l0,0
		c0,0.5-0.4,1.1-1.1,1.1l0,0C57-119.3,56.6-119.7,56.6-120.3z M56.6-124.2c0-0.5,0.4-1.1,1.1-1.1l0,0c0.5,0,1.1,0.4,1.1,1.1l0,0
		c0,0.5-0.4,1.1-1.1,1.1l0,0C57-123.1,56.6-123.7,56.6-124.2z M56.6-128c0-0.5,0.4-1.1,1.1-1.1l0,0c0.5,0,1.1,0.4,1.1,1.1l0,0
		c0,0.5-0.4,1.1-1.1,1.1l0,0C57-127,56.6-127.5,56.6-128z M56.6-131.8c0-0.5,0.4-1.1,1.1-1.1l0,0c0.5,0,1.1,0.4,1.1,1.1l0,0
		c0,0.5-0.4,1.1-1.1,1.1l0,0C57-130.8,56.6-131.3,56.6-131.8z M56.6-135.6c0-0.5,0.4-1.1,1.1-1.1l0,0c0.5,0,1.1,0.4,1.1,1.1l0,0
		c0,0.5-0.4,1.1-1.1,1.1l0,0C57-134.6,56.6-135.1,56.6-135.6z"/>
	<path id="onboarding_slide1_line_4" fill="#FFFFFF" d="M131.1-93.6c0-0.5,0.4-1.1,1.1-1.1l0,0c0.5,0,1.1,0.4,1.1,1.1l0,0
		c0,0.5-0.4,1.1-1.1,1.1l0,0C131.6-92.6,131.1-93.1,131.1-93.6z M131.1-97.4c0-0.5,0.4-1.1,1.1-1.1l0,0c0.5,0,1.1,0.4,1.1,1.1l0,0
		c0,0.5-0.4,1.1-1.1,1.1l0,0C131.6-96.4,131.1-96.9,131.1-97.4z M131.1-101.2c0-0.5,0.4-0.9,1.1-0.9l0,0c0.5,0,1.1,0.4,1.1,0.9l0,0
		c0,0.5-0.4,1.1-1.1,1.1l0,0C131.6-100.3,131.1-100.7,131.1-101.2z M131.1-105c0-0.5,0.4-1.1,1.1-1.1l0,0c0.5,0,1.1,0.4,1.1,1.1l0,0
		c0,0.5-0.4,1.1-1.1,1.1l0,0C131.6-104.1,131.1-104.5,131.1-105z M131.1-108.8c0-0.5,0.4-1.1,1.1-1.1l0,0c0.5,0,1.1,0.4,1.1,1.1l0,0
		c0,0.5-0.4,1.1-1.1,1.1l0,0C131.6-107.9,131.1-108.3,131.1-108.8z M131.1-112.6c0-0.5,0.4-1.1,1.1-1.1l0,0c0.5,0,1.1,0.4,1.1,1.1
		l0,0c0,0.5-0.4,1.1-1.1,1.1l0,0C131.6-111.7,131.1-112.1,131.1-112.6z M131.1-116.5c0-0.5,0.4-1.1,1.1-1.1l0,0
		c0.5,0,1.1,0.4,1.1,1.1l0,0c0,0.5-0.4,1.1-1.1,1.1l0,0C131.6-115.5,131.1-115.9,131.1-116.5z M131.1-120.3c0-0.5,0.4-1.1,1.1-1.1
		l0,0c0.5,0,1.1,0.4,1.1,1.1l0,0c0,0.5-0.4,1.1-1.1,1.1l0,0C131.6-119.3,131.1-119.7,131.1-120.3z M131.1-124.2
		c0-0.5,0.4-1.1,1.1-1.1l0,0c0.5,0,1.1,0.4,1.1,1.1l0,0c0,0.5-0.4,1.1-1.1,1.1l0,0C131.6-123.1,131.1-123.7,131.1-124.2z M131.1-128
		c0-0.5,0.4-1.1,1.1-1.1l0,0c0.5,0,1.1,0.4,1.1,1.1l0,0c0,0.5-0.4,1.1-1.1,1.1l0,0C131.6-127,131.1-127.5,131.1-128z M131.1-131.8
		c0-0.5,0.4-1.1,1.1-1.1l0,0c0.5,0,1.1,0.4,1.1,1.1l0,0c0,0.5-0.4,1.1-1.1,1.1l0,0C131.6-130.8,131.1-131.3,131.1-131.8z
		 M131.1-135.6c0-0.5,0.4-1.1,1.1-1.1l0,0c0.5,0,1.1,0.4,1.1,1.1l0,0c0,0.5-0.4,1.1-1.1,1.1l0,0
		C131.6-134.6,131.1-135.1,131.1-135.6z"/>
	<path id="onboarding_slide1_line_3" fill="#FFFFFF" d="M205.7-93.6c0-0.5,0.4-1.1,1.1-1.1l0,0c0.5,0,1.1,0.4,1.1,1.1l0,0
		c0,0.5-0.4,1.1-1.1,1.1l0,0C206.1-92.6,205.7-93.1,205.7-93.6z M205.7-97.4c0-0.5,0.4-1.1,1.1-1.1l0,0c0.5,0,1.1,0.4,1.1,1.1l0,0
		c0,0.5-0.4,1.1-1.1,1.1l0,0C206.1-96.4,205.7-96.9,205.7-97.4z M205.7-101.2c0-0.5,0.4-0.9,1.1-0.9l0,0c0.5,0,1.1,0.4,1.1,0.9l0,0
		c0,0.5-0.4,1.1-1.1,1.1l0,0C206.1-100.3,205.7-100.7,205.7-101.2z M205.7-105c0-0.5,0.4-1.1,1.1-1.1l0,0c0.5,0,1.1,0.4,1.1,1.1l0,0
		c0,0.5-0.4,1.1-1.1,1.1l0,0C206.1-104.1,205.7-104.5,205.7-105z M205.7-108.8c0-0.5,0.4-1.1,1.1-1.1l0,0c0.5,0,1.1,0.4,1.1,1.1l0,0
		c0,0.5-0.4,1.1-1.1,1.1l0,0C206.1-107.9,205.7-108.3,205.7-108.8z M205.7-112.6c0-0.5,0.4-1.1,1.1-1.1l0,0c0.5,0,1.1,0.4,1.1,1.1
		l0,0c0,0.5-0.4,1.1-1.1,1.1l0,0C206.1-111.7,205.7-112.1,205.7-112.6z M205.7-116.5c0-0.5,0.4-1.1,1.1-1.1l0,0
		c0.5,0,1.1,0.4,1.1,1.1l0,0c0,0.5-0.4,1.1-1.1,1.1l0,0C206.1-115.5,205.7-115.9,205.7-116.5z M205.7-120.3c0-0.5,0.4-1.1,1.1-1.1
		l0,0c0.5,0,1.1,0.4,1.1,1.1l0,0c0,0.5-0.4,1.1-1.1,1.1l0,0C206.1-119.3,205.7-119.7,205.7-120.3z M205.7-124.2
		c0-0.5,0.4-1.1,1.1-1.1l0,0c0.5,0,1.1,0.4,1.1,1.1l0,0c0,0.5-0.4,1.1-1.1,1.1l0,0C206.1-123.1,205.7-123.7,205.7-124.2z M205.7-128
		c0-0.5,0.4-1.1,1.1-1.1l0,0c0.5,0,1.1,0.4,1.1,1.1l0,0c0,0.5-0.4,1.1-1.1,1.1l0,0C206.1-127,205.7-127.5,205.7-128z M205.7-131.8
		c0-0.5,0.4-1.1,1.1-1.1l0,0c0.5,0,1.1,0.4,1.1,1.1l0,0c0,0.5-0.4,1.1-1.1,1.1l0,0C206.1-130.8,205.7-131.3,205.7-131.8z
		 M205.7-135.6c0-0.5,0.4-1.1,1.1-1.1l0,0c0.5,0,1.1,0.4,1.1,1.1l0,0c0,0.5-0.4,1.1-1.1,1.1l0,0
		C206.1-134.6,205.7-135.1,205.7-135.6z"/>
	<path id="onboarding_slide1_line_2" fill="#FFFFFF" d="M280.3-93.6c0-0.5,0.4-1.1,1.1-1.1l0,0c0.5,0,1.1,0.4,1.1,1.1l0,0
		c0,0.5-0.4,1.1-1.1,1.1l0,0C280.6-92.6,280.3-93.1,280.3-93.6z M280.3-97.4c0-0.5,0.4-1.1,1.1-1.1l0,0c0.5,0,1.1,0.4,1.1,1.1l0,0
		c0,0.5-0.4,1.1-1.1,1.1l0,0C280.6-96.4,280.3-96.9,280.3-97.4z M280.3-101.2c0-0.5,0.4-1.1,1.1-1.1l0,0c0.5,0,1.1,0.4,1.1,1.1l0,0
		c0,0.5-0.4,1.1-1.1,1.1l0,0C280.6-100.2,280.3-100.7,280.3-101.2z M280.3-105c0-0.5,0.4-1.1,1.1-1.1l0,0c0.5,0,1.1,0.4,1.1,1.1l0,0
		c0,0.5-0.4,1.1-1.1,1.1l0,0C280.6-104.1,280.3-104.5,280.3-105z M280.3-108.8c0-0.5,0.4-1.1,1.1-1.1l0,0c0.5,0,1.1,0.4,1.1,1.1l0,0
		c0,0.5-0.4,1.1-1.1,1.1l0,0C280.6-107.9,280.3-108.3,280.3-108.8z M280.3-112.6c0-0.5,0.4-1.1,1.1-1.1l0,0c0.5,0,1.1,0.4,1.1,1.1
		l0,0c0,0.5-0.4,1.1-1.1,1.1l0,0C280.6-111.7,280.3-112.1,280.3-112.6z M280.3-116.5c0-0.5,0.4-1.1,1.1-1.1l0,0
		c0.5,0,1.1,0.4,1.1,1.1l0,0c0,0.5-0.4,1.1-1.1,1.1l0,0C280.6-115.5,280.3-115.9,280.3-116.5z M280.3-120.3c0-0.5,0.4-1.1,1.1-1.1
		l0,0c0.5,0,1.1,0.4,1.1,1.1l0,0c0,0.5-0.4,1.1-1.1,1.1l0,0C280.6-119.3,280.3-119.7,280.3-120.3z M280.3-124.2
		c0-0.5,0.4-1.1,1.1-1.1l0,0c0.5,0,1.1,0.4,1.1,1.1l0,0c0,0.5-0.4,1.1-1.1,1.1l0,0C280.6-123.1,280.3-123.7,280.3-124.2z M280.3-128
		c0-0.5,0.4-1.1,1.1-1.1l0,0c0.5,0,1.1,0.4,1.1,1.1l0,0c0,0.5-0.4,1.1-1.1,1.1l0,0C280.6-127,280.3-127.5,280.3-128z M280.3-131.8
		c0-0.5,0.4-1.1,1.1-1.1l0,0c0.5,0,1.1,0.4,1.1,1.1l0,0c0,0.5-0.4,1.1-1.1,1.1l0,0C280.6-130.8,280.3-131.3,280.3-131.8z
		 M280.3-135.6c0-0.5,0.4-1.1,1.1-1.1l0,0c0.5,0,1.1,0.4,1.1,1.1l0,0c0,0.5-0.4,1.1-1.1,1.1l0,0
		C280.6-134.6,280.3-135.1,280.3-135.6z"/>
	<path id="onboarding_slide1_line_1" fill="#FFFFFF" d="M354.7-93.6c0-0.5,0.4-1.1,1.1-1.1l0,0c0.5,0,1.1,0.4,1.1,1.1l0,0
		c0,0.5-0.4,1.1-1.1,1.1l0,0C355.1-92.6,354.7-93.1,354.7-93.6z M354.7-97.4c0-0.5,0.4-1.1,1.1-1.1l0,0c0.5,0,1.1,0.4,1.1,1.1l0,0
		c0,0.5-0.4,1.1-1.1,1.1l0,0C355.1-96.4,354.7-96.9,354.7-97.4z M354.7-101.2c0-0.5,0.4-1.1,1.1-1.1l0,0c0.5,0,1.1,0.4,1.1,1.1l0,0
		c0,0.5-0.4,0.9-1.1,0.9l0,0C355.1-100.3,354.7-100.7,354.7-101.2z M354.7-105c0-0.5,0.4-1.1,1.1-1.1l0,0c0.5,0,1.1,0.4,1.1,1.1l0,0
		c0,0.5-0.4,1.1-1.1,1.1l0,0C355.1-104.1,354.7-104.5,354.7-105z M354.7-108.8c0-0.5,0.4-1.1,1.1-1.1l0,0c0.5,0,1.1,0.4,1.1,1.1l0,0
		c0,0.5-0.4,1.1-1.1,1.1l0,0C355.1-107.9,354.7-108.3,354.7-108.8z M354.7-112.6c0-0.5,0.4-1.1,1.1-1.1l0,0c0.5,0,1.1,0.4,1.1,1.1
		l0,0c0,0.5-0.4,1.1-1.1,1.1l0,0C355.1-111.7,354.7-112.1,354.7-112.6z M354.7-116.5c0-0.5,0.4-1.1,1.1-1.1l0,0
		c0.5,0,1.1,0.4,1.1,1.1l0,0c0,0.5-0.4,1.1-1.1,1.1l0,0C355.1-115.5,354.7-115.9,354.7-116.5z M354.7-120.3c0-0.5,0.4-1.1,1.1-1.1
		l0,0c0.5,0,1.1,0.4,1.1,1.1l0,0c0,0.5-0.4,1.1-1.1,1.1l0,0C355.1-119.3,354.7-119.7,354.7-120.3z M354.7-124.2
		c0-0.5,0.4-1.1,1.1-1.1l0,0c0.5,0,1.1,0.4,1.1,1.1l0,0c0,0.5-0.4,1.1-1.1,1.1l0,0C355.1-123.1,354.7-123.7,354.7-124.2z M354.7-128
		c0-0.5,0.4-1.1,1.1-1.1l0,0c0.5,0,1.1,0.4,1.1,1.1l0,0c0,0.5-0.4,1.1-1.1,1.1l0,0C355.1-127,354.7-127.5,354.7-128z M354.7-131.8
		c0-0.5,0.4-1.1,1.1-1.1l0,0c0.5,0,1.1,0.4,1.1,1.1l0,0c0,0.5-0.4,1.1-1.1,1.1l0,0C355.1-130.8,354.7-131.3,354.7-131.8z
		 M354.7-135.6c0-0.5,0.4-1.1,1.1-1.1l0,0c0.5,0,1.1,0.4,1.1,1.1l0,0c0,0.5-0.4,1.1-1.1,1.1l0,0
		C355.1-134.6,354.7-135.1,354.7-135.6z"/>
</g>
<g id="onboarding_slide_2_encrypted_hello_3">
	<g>
		<path fill="#FFCC4D" d="M376.9-46.9c0,12.3-10,22.3-22.3,22.3s-22.3-10-22.3-22.3s10-22.3,22.3-22.3S376.9-59.2,376.9-46.9"/>
		<ellipse fill="#664500" cx="354.6" cy="-35" rx="6.6" ry="7.9"/>
		<path fill="#664500" d="M338.8-56.1c-0.3,0-0.5-0.1-0.8-0.3c-0.5-0.4-0.7-1.3-0.3-1.8c4.3-5.8,10-5.8,10.2-5.8
			c0.8,0,1.3,0.5,1.3,1.3s-0.5,1.3-1.3,1.3c-0.3,0-4.7,0.1-8.1,4.7C339.6-56.3,339.2-56.1,338.8-56.1z"/>
		<path fill="#664500" d="M370.3-56.1c-0.4,0-0.8-0.1-1.1-0.5c-3.4-4.6-8-4.7-8.1-4.7c-0.7,0-1.3-0.7-1.3-1.3c0-0.8,0.5-1.3,1.3-1.3
			c0.3,0,5.9,0,10.2,5.8c0.4,0.5,0.3,1.4-0.3,1.8C370.9-56.2,370.6-56.1,370.3-56.1z"/>
		<path fill="#664500" d="M349.2-50.1l2.4-2.4c0.5-0.5,0.5-1.3,0-1.8s-1.3-0.5-1.8,0l-2.4,2.4l-2.4-2.4c-0.5-0.5-1.3-0.5-1.8,0
			c-0.5,0.5-0.5,1.3,0,1.8l2.4,2.4l-2.4,2.4c-0.5,0.5-0.5,1.3,0,1.8c0.3,0.3,0.7,0.4,0.9,0.4c0.3,0,0.7-0.1,0.9-0.4l2.4-2.4l2.4,2.4
			c0.3,0.3,0.7,0.4,0.9,0.4c0.3,0,0.7-0.1,0.9-0.4c0.5-0.5,0.5-1.3,0-1.8L349.2-50.1z"/>
		<path fill="#664500" d="M363.6-50.1l2.4-2.4c0.5-0.5,0.5-1.3,0-1.8c-0.5-0.5-1.3-0.5-1.8,0l-2.4,2.4l-2.4-2.4
			c-0.5-0.5-1.3-0.5-1.8,0s-0.5,1.3,0,1.8l2.4,2.4l-2.4,2.4c-0.5,0.5-0.5,1.3,0,1.8c0.3,0.3,0.7,0.4,0.9,0.4c0.3,0,0.7-0.1,0.9-0.4
			l2.4-2.4l2.4,2.4c0.3,0.3,0.7,0.4,0.9,0.4c0.3,0,0.7-0.1,0.9-0.4c0.5-0.5,0.5-1.3,0-1.8L363.6-50.1z"/>
	</g>
	<g>
		<path fill="#553788" d="M269.9-54.6c3.9,6.6,0,14-3.9,12.7s-5.3,2.6-1.3,3.9c3.9,1.3,12.5-0.7,17.1-5.3c1.3-1.3,2.6-1.3,2.6-1.3
			L269.9-54.6z"/>
		<path fill="#553788" d="M290.9-54.6c-3.9,6.6,0,14,3.9,12.7s5.3,2.6,1.3,3.9c-3.9,1.3-12.5-0.7-17.1-5.3c-1.3-1.3-2.6-1.3-2.6-1.3
			L290.9-54.6z"/>
		<path fill="#744EAA" d="M296.4-49.4c-3.9,6.6,0,14,3.9,12.7s5.3,2.6,1.3,3.9c-3.9,1.3-12.5-0.7-17.1-5.3c-1.3-1.3-2.6-1.3-2.6-1.3
			L296.4-49.4z"/>
		<path fill="#744EAA" d="M264.4-49.4c3.9,6.6,0,14-3.9,12.7s-5.3,2.6-1.3,3.9c3.9,1.3,12.5-0.7,17.1-5.3c1.3-1.3,2.6-1.3,2.6-1.3
			L264.4-49.4z"/>
		<path fill="#9266CC" d="M300.3-29.1c-3.5,1.2-8.4-7.4-6.3-13.9c2.1-4.2,3.4-9.1,3.4-12.9c0-9.5-7.6-14.4-17.1-14.4
			s-17.1,5-17.1,14.4c0,3.8,1.3,8.7,3.4,12.9c2.1,6.6-2.8,15.1-6.3,13.9c-3.9-1.3-5.3,3.9-1.3,5.3c3.9,1.3,10.9-0.8,15.8-5.3
			c2.9-2.6,5.5-2.6,5.5-2.6s2.6,0,5.5,2.6c4.9,4.5,11.8,6.6,15.8,5.3C305.6-25.2,304.3-30.4,300.3-29.1z"/>
		<circle fill="#292F33" cx="275.1" cy="-42.8" r="2.6"/>
		<circle fill="#292F33" cx="285.6" cy="-42.8" r="2.6"/>
	</g>
	<g>
		<path fill="#553788" d="M195.6-54.6c3.9,6.6,0,14-3.9,12.7c-3.9-1.3-5.3,2.6-1.3,3.9c3.9,1.3,12.5-0.7,17.1-5.3
			c1.3-1.3,2.6-1.3,2.6-1.3L195.6-54.6z"/>
		<path fill="#553788" d="M216.6-54.6c-3.9,6.6,0,14,3.9,12.7c3.9-1.3,5.3,2.6,1.3,3.9c-3.9,1.3-12.5-0.7-17.1-5.3
			c-1.3-1.3-2.6-1.3-2.6-1.3L216.6-54.6z"/>
		<path fill="#744EAA" d="M222.1-49.4c-3.9,6.6,0,14,3.9,12.7s5.3,2.6,1.3,3.9c-3.9,1.3-12.5-0.7-17.1-5.3c-1.3-1.3-2.6-1.3-2.6-1.3
			L222.1-49.4z"/>
		<path fill="#744EAA" d="M190-49.4c3.9,6.6,0,14-3.9,12.7c-3.9-1.3-5.3,2.6-1.3,3.9c3.9,1.3,12.5-0.7,17.1-5.3
			c1.3-1.3,2.6-1.3,2.6-1.3L190-49.4z"/>
		<path fill="#9266CC" d="M226-29.1c-3.5,1.2-8.4-7.4-6.3-13.9c2.1-4.2,3.4-9.1,3.4-12.9c0-9.5-7.6-14.4-17.1-14.4
			s-17.1,5-17.1,14.4c0,3.8,1.3,8.7,3.4,12.9c2.1,6.6-2.8,15.1-6.3,13.9c-3.9-1.3-5.3,3.9-1.3,5.3c3.9,1.3,10.9-0.8,15.8-5.3
			c2.9-2.6,5.5-2.6,5.5-2.6s2.6,0,5.5,2.6c4.9,4.5,11.8,6.6,15.8,5.3C231.3-25.2,230-30.4,226-29.1z"/>
		<circle fill="#292F33" cx="200.8" cy="-42.8" r="2.6"/>
		<circle fill="#292F33" cx="211.3" cy="-42.8" r="2.6"/>
	</g>
	<g>
		<path fill="#FDD888" d="M150.1-39.1c-0.8-8.7-5.1-13-5.1-13l-7.9-10.5h-1.3h-3.9h-3.9h-1.3l-7.9,10.5c0,0-1.8,1.8-3.4,5.6
			c-2.6,0.9-4.5,3.3-4.5,6.2c0,1.8,0.8,3.5,2.1,4.9c-0.5,0.9-0.8,2-0.8,3c0,2.6,1.4,4.7,3.7,5.9c1.7,2.5,3.9,3.3,5.5,3.3h21
			c1.8,0,4.5-1.1,6.2-4.3c2.5-0.9,4.3-3.3,4.3-6.2C152.9-36,151.8-37.9,150.1-39.1z"/>
		<path fill="#FDD888" d="M131.9-62.6c0.7,0,1.4-0.3,2-0.5c0.5,0.4,1.3,0.5,2,0.5c2.2,0,5.3-3,5.3-5.3c0,0,0-2.6-2.6-2.6
			c-1.1,0-1.3,1.3-2.6,1.3s-1.3-1.3-3.9-1.3s-2.6,1.3-3.9,1.3c-1.3,0-1.6-1.3-2.6-1.3c-2.6,0-2.6,2.6-2.6,2.6c0,2.2,3,5.3,5.3,5.3
			c0.7,0,1.4-0.3,2-0.5C130.4-62.9,131.2-62.6,131.9-62.6z"/>
		<path fill="#BF6952" d="M139.8-62.6c0,0.8-0.5,1.3-1.3,1.3h-13.1c-0.8,0-1.3-0.5-1.3-1.3l0,0c0-0.8,0.5-1.3,1.3-1.3h13.1
			C139.2-63.9,139.8-63.4,139.8-62.6L139.8-62.6z"/>
		<path fill="#67757F" d="M139.6-38.3c0-5.9-11.3-5.5-11.3-9.1c0-1.7,1.7-2.5,3.7-2.5c3.3,0,3.9,2.1,5.4,2.1c1.1,0,1.6-0.7,1.6-1.3
			c0-1.7-2.6-3-5.3-3.4v-1.6c0-1.1-0.9-1.8-2-1.8s-2,0.8-2,1.8v1.7c-2.8,0.7-5.1,2.5-5.1,5.5c0,5.6,11.3,5.4,11.3,9.3
			c0,1.3-1.6,2.8-4.1,2.8c-3.8,0-5.1-2.5-6.6-2.5c-0.8,0-1.4,0.7-1.4,1.6c0,1.4,2.5,3.3,6,3.7l0,0v1.8c0,1.1,0.9,1.8,2,1.8
			s2-0.8,2-1.8V-32l0,0C137-32.8,139.6-34.8,139.6-38.3z"/>
	</g>
	<g>
		<path fill="#3E721D" d="M70.6-35.2c-10.5,0-10.8,7.9-10.8,7.9v-15.2h-5.3v15.2c0,0,0.3-7.9-10.2-7.9c-5.3,0-9.1-3-9.1-3
			s0.1,11.4,11.9,11.4c5.3,0,7.9,0,7.9,0s0,2.6,2.6,2.6c2.6,0,2.6-2.6,2.6-2.6s2.6,0,7.9,0c11.8,0,11.7-11.4,11.7-11.4
			S75.8-35.2,70.6-35.2z"/>
		<path fill="#FFAC33" d="M61.9-34.3c-0.4,0-0.9-0.1-1.2-0.4l-3-2.1l-3,2.1c-0.4,0.3-0.8,0.4-1.2,0.4c-0.1,0-0.4,0-0.5-0.1
			c-0.7-0.1-1.2-0.5-1.4-1.2L50-38.9l-3.7,0.3h-0.1c-0.5,0-1.2-0.3-1.6-0.7c-0.4-0.4-0.7-1.1-0.7-1.7l0.3-3.7l-3.3-1.6
			c-0.5-0.3-1.1-0.8-1.2-1.4s0-1.3,0.3-1.8l2.1-3l-2.1-3c-0.4-0.5-0.5-1.2-0.3-1.8c0.1-0.7,0.5-1.2,1.2-1.4l3.3-1.6l-0.3-3.7
			c0-0.7,0.1-1.3,0.7-1.7c0.4-0.4,0.9-0.7,1.6-0.7h0.1l3.7,0.3l1.6-3.3c0.3-0.5,0.8-1.1,1.4-1.2c0.1,0,0.4-0.1,0.5-0.1
			c0.4,0,0.9,0.1,1.2,0.4l3,2.1l3-2.1c0.4-0.3,0.8-0.4,1.2-0.4c0.1,0,0.4,0,0.5,0.1c0.7,0.1,1.2,0.5,1.4,1.2l1.6,3.3l3.7-0.3h0.1
			c0.5,0,1.2,0.3,1.6,0.7c0.4,0.4,0.7,1.1,0.7,1.7l-0.3,3.7l3.3,1.6c0.5,0.3,1.1,0.8,1.2,1.4s0,1.3-0.3,1.8l-2.1,3l2.1,3
			c0.4,0.5,0.5,1.2,0.3,1.8c-0.1,0.7-0.5,1.2-1.2,1.4l-3.3,1.6l0.3,3.7c0,0.7-0.1,1.2-0.7,1.7c-0.4,0.4-0.9,0.7-1.6,0.7h-0.1
			l-3.7-0.3l-1.6,3.3c-0.3,0.5-0.8,1.1-1.4,1.2C62.3-34.3,62.2-34.3,61.9-34.3z"/>
		<circle fill="#732700" cx="57.8" cy="-52.2" r="9.2"/>
	</g>
</g>
<g id="onboarding_slide_2_encrypted_hello">
	<g>
		<path fill="#C6E5B3" d="M378.2-42.3c0,9.8-10.6,15.8-23.6,15.8c-13,0-23.6-5.9-23.6-15.8S341.6-62,354.6-62
			C367.6-62,378.2-52.1,378.2-42.3z"/>
		<path fill="#77B255" d="M372.7-54.5c1.8-1.4,2.9-3.7,2.9-6.2c0-4.3-3.5-7.9-7.9-7.9c-3.8,0-6.8,2.6-7.7,6.2
			c-1.7-0.7-3.5-1.1-5.4-1.1c-2,0-3.8,0.4-5.4,1.1c-0.8-3.5-3.9-6.2-7.7-6.2c-4.3,0-7.9,3.5-7.9,7.9c0,2.5,1.2,4.7,2.9,6.2
			c-3.4,3.5-5.5,7.9-5.5,12.2c0,9.8,10.6,1.3,23.6,1.3c13,0,23.6,8.5,23.6-1.3C378.2-46.6,376.1-51.1,372.7-54.5z"/>
		<circle fill="#FFFFFF" cx="340.8" cy="-61.3" r="4.6"/>
		<circle fill="#292F33" cx="340.8" cy="-61.3" r="2"/>
		<circle fill="#FFFFFF" cx="368.4" cy="-61.3" r="4.6"/>
		<circle fill="#292F33" cx="368.4" cy="-61.3" r="2"/>
		<circle fill="#5C913B" cx="349.3" cy="-44.9" r="1.3"/>
		<circle fill="#5C913B" cx="359.8" cy="-44.9" r="1.3"/>
	</g>
	<g>
		<path fill="#292F33" d="M302.2-32c0,0,1.6,0.7,1.6,2c0,1.3-1.3,2-2.8,2c-1.3,0-20.5,0-23.2,0c-2.8,0-2.8-4.7-6.8-12.9
			c-4.1-8.3-8.3-2.5-8.3-2.5l-1.3,16.7h-3.3c0,0,0-16.3,0-18.9c0-2.8-1.1-5.6-1.1-6.8c0-2.8,0.9-5.8,0.9-5.8l8.9,3L302.2-32z"/>
		<path fill="#9266CC" d="M259-55.9c3.9,0.9,13.5,5.4,18.4,23.1c0,0,0,2.1,3.2,2.1c3.2,0,21.7,0,21.7,0s1.6-0.7,1.6-3.5
			c0-1.4-7.7-4.6-10.9-6c-3.2-1.4-5.8-5.8-5.8-5.8s-5.5,2.1-14.8-7.9s-5.8-13.8-8.8-13.8c-0.7,0-4.9,4.3-5.9,9.2
			C257.3-57.6,257.9-56.2,259-55.9z"/>
	</g>
	<g>
		<path fill="#292F33" d="M228-32c0,0,1.6,0.7,1.6,2c0,1.3-1.3,2-2.8,2c-1.3,0-20.5,0-23.2,0s-2.8-4.7-6.8-12.9
			c-4.1-8.3-8.3-2.5-8.3-2.5l-1.3,16.7h-2.6c0,0,0-16.3,0-18.9c0-2.8-1.4-5.6-1.4-6.8c0-2.8,0.8-5.8,0.8-5.8l8.8,3L228-32z"/>
		<path fill="#9266CC" d="M184.8-55.9c3.9,0.9,13.5,5.4,18.4,23.1c0,0,0,2.1,3.2,2.1c3.2,0,21.7,0,21.7,0s1.6-0.7,1.6-3.5
			c0-1.4-7.7-4.6-10.9-6c-3.2-1.4-5.8-5.8-5.8-5.8s-5.5,2.1-14.8-7.9s-5.8-13.8-8.8-13.8c-0.7,0-4.9,4.3-5.9,9.2
			C183.1-57.6,183.7-56.2,184.8-55.9z"/>
	</g>
	<g>
		<path fill="#8899A6" d="M155.6-46.9c0,13-10.6,23.6-23.6,23.6c-13,0-23.6-10.6-23.6-23.6S119-70.5,132-70.5
			C145-70.5,155.6-60,155.6-46.9z M132-50.8c-2.2,0-3.9,1.7-3.9,3.9c0,2.2,1.7,3.9,3.9,3.9s3.9-1.7,3.9-3.9
			C136-49.1,134.2-50.8,132-50.8z"/>
		<g>
			<g>
				<defs>
					<path id="SVGID_1_" d="M153-46.9c0,11.6-9.5,21-21,21c-11.6,0-21-9.5-21-21s9.5-21,21-21C143.6-67.9,153-58.5,153-46.9z
						 M132-53.2c-3.4,0-6.3,2.8-6.3,6.3c0,3.4,2.8,6.3,6.3,6.3c3.4,0,6.3-2.8,6.3-6.3C138.3-50.4,135.4-53.2,132-53.2z"/>
				</defs>
				<clipPath id="SVGID_2_">
					<use xlink:href="#SVGID_1_"  overflow="visible"/>
				</clipPath>
				<polygon clip-path="url(#SVGID_2_)" fill="#CCD6DD" points="132,-46.7 108.4,-49.5 108.4,-70.1 129.4,-70.1 				"/>
			</g>
			<g>
				<defs>
					<path id="SVGID_3_" d="M153-46.9c0,11.6-9.5,21-21,21c-11.6,0-21-9.5-21-21s9.5-21,21-21C143.6-67.9,153-58.5,153-46.9z
						 M132-53.2c-3.4,0-6.3,2.8-6.3,6.3c0,3.4,2.8,6.3,6.3,6.3c3.4,0,6.3-2.8,6.3-6.3C138.3-50.4,135.4-53.2,132-53.2z"/>
				</defs>
				<clipPath id="SVGID_4_">
					<use xlink:href="#SVGID_3_"  overflow="visible"/>
				</clipPath>
				<polygon clip-path="url(#SVGID_4_)" fill="#CCD6DD" points="132,-46.7 155.6,-44.2 155.6,-22.8 134.6,-22.8 				"/>
			</g>
			<g>
				<defs>
					<path id="SVGID_5_" d="M153-46.9c0,11.6-9.5,21-21,21c-11.6,0-21-9.5-21-21s9.5-21,21-21C143.6-67.9,153-58.5,153-46.9z
						 M132-53.2c-3.4,0-6.3,2.8-6.3,6.3c0,3.4,2.8,6.3,6.3,6.3c3.4,0,6.3-2.8,6.3-6.3C138.3-50.4,135.4-53.2,132-53.2z"/>
				</defs>
				<clipPath id="SVGID_6_">
					<use xlink:href="#SVGID_5_"  overflow="visible"/>
				</clipPath>
				<polygon clip-path="url(#SVGID_6_)" fill="#F5F8FA" points="132,-46.9 134.8,-21.9 155.6,-23.2 				"/>
			</g>
			<g>
				<defs>
					<path id="SVGID_7_" d="M153-46.9c0,11.6-9.5,21-21,21c-11.6,0-21-9.5-21-21s9.5-21,21-21C143.6-67.9,153-58.5,153-46.9z
						 M132-53.2c-3.4,0-6.3,2.8-6.3,6.3c0,3.4,2.8,6.3,6.3,6.3c3.4,0,6.3-2.8,6.3-6.3C138.3-50.4,135.4-53.2,132-53.2z"/>
				</defs>
				<clipPath id="SVGID_8_">
					<use xlink:href="#SVGID_7_"  overflow="visible"/>
				</clipPath>
				<polygon clip-path="url(#SVGID_8_)" fill="#F5F8FA" points="132,-46.9 108.4,-70.5 129.4,-71.8 				"/>
			</g>
		</g>
	</g>
	<g>
		<path fill="#E75A70" d="M66.8-45.3c0-5-3.9-8.9-8.9-8.9c-3,0-5.6,1.4-7.2,3.7c-1.6-2.2-4.2-3.7-7.2-3.7c-5,0-8.9,3.9-8.9,8.9
			c0,0.7,0.1,1.3,0.3,2c1.2,7.7,9.8,15.9,15.9,18.1c6.2-2.2,14.7-10.4,15.9-18.1C66.6-43.8,66.8-44.6,66.8-45.3z"/>
		<path fill="#E75A70" d="M81.3-63.7c0-3.4-2.8-6.2-6.2-6.2c-2.1,0-3.9,1.1-5,2.6c-1.2-1.6-2.9-2.6-5-2.6c-3.4,0-6.2,2.8-6.2,6.2
			c0,0.5,0,0.9,0.1,1.4c0.9,5.4,6.8,11,11,12.5c4.2-1.6,10.2-7.2,11-12.5C81.2-62.7,81.3-63.1,81.3-63.7z"/>
	</g>
</g>
<g id="onboarding_slide_2_encrypted_hello_2">
	<g>
		<path fill="#E1E8ED" d="M378.2-55.9c0-1.4-1.2-2.6-2.6-2.6s-2.6,1.2-2.6,2.6c0,0,0,4.3-3.9,5.1v-3.8c0-8-6.4-14.4-14.4-14.4
			c-8,0-14.4,6.4-14.4,14.4v4.2c-6.8,2.1-9.2,10.5-9.2,15.5c0,1.4,1.2,2.6,2.6,2.6s2.6-1.2,2.6-2.6c0,0,0-4.6,4.3-5.3
			c0.7,6.3,2.1,13.1,4.9,13.1c0.4,0,0.8,0,1.3,0c5.3,0,3.9,2.6,9.2,2.6c5.3,0,3.9-2.6,7.9-2.6s3.2,2.6,7.9,2.6
			c2.2,0,3.9-1.7,3.9-3.9c0-0.9-3-6.6-5-12.2C378.2-42.3,378.2-51.2,378.2-55.9z"/>
		<circle fill="#292F33" cx="348" cy="-54.6" r="2.6"/>
		<circle fill="#292F33" cx="361.1" cy="-54.6" r="5.3"/>
		<circle fill="#9AAAB4" cx="361.1" cy="-53.3" r="2.6"/>
		
			<ellipse transform="matrix(-0.7999 -0.6001 0.6001 -0.7999 665.725 141.9342)" fill="#292F33" cx="356.5" cy="-40" rx="7.9" ry="5.9"/>
	</g>
	<g>
		<path fill="#99AAB5" d="M292.1-26.8c0,2.9-2.4,3.9-5.3,3.9h-13.1c-2.9,0-5.3-1.1-5.3-3.9l0,0c0-2.9,3.9-9.2,3.9-17.1
			s15.8-7.9,15.8,0S292.1-29.7,292.1-26.8L292.1-26.8z"/>
		<g>
			<g>
				<defs>
					<path id="SVGID_9_" d="M280.3-70.8c-13,0-23.6,10.8-23.6,23.9c0,2.9,2.4,5.5,5.3,5.5h36.8c2.9,0,5.3-2.6,5.3-5.5
						C303.9-59.9,293.3-70.8,280.3-70.8z"/>
				</defs>
				<clipPath id="SVGID_10_">
					<use xlink:href="#SVGID_9_"  overflow="visible"/>
				</clipPath>
				<path clip-path="url(#SVGID_10_)" fill="#DD2E44" d="M280.3-71.5c-13.8,0-24.9,11.7-24.9,25.5c0,3,2.5,6.2,5.5,6.2h38.9
					c3,0,5.5-3,5.5-6.2C305.2-59.9,294-71.5,280.3-71.5z"/>
			</g>
			<g>
				<defs>
					<path id="SVGID_11_" d="M280.3-70.8c-13,0-23.6,10.8-23.6,23.9c0,2.9,2.4,5.5,5.3,5.5h36.8c2.9,0,5.3-2.6,5.3-5.5
						C303.9-59.9,293.3-70.8,280.3-70.8z"/>
				</defs>
				<clipPath id="SVGID_12_">
					<use xlink:href="#SVGID_11_"  overflow="visible"/>
				</clipPath>
				<g clip-path="url(#SVGID_12_)">
					<path fill="#F4ABBA" d="M266.7-49.1c-4.5,0-8.1-3.7-8.1-8.1s3.7-8.1,8.1-8.1c4.5,0,8.1,3.7,8.1,8.1S271.2-49.1,266.7-49.1z"/>
					<path fill="#F4ABBA" d="M266.7-65.1c4.3,0,7.9,3.5,7.9,7.9s-3.5,7.9-7.9,7.9c-4.3,0-7.9-3.5-7.9-7.9
						C258.7-61.6,262.4-65.1,266.7-65.1 M266.7-65.5c-4.6,0-8.3,3.7-8.3,8.3s3.7,8.3,8.3,8.3c4.6,0,8.3-3.7,8.3-8.3
						S271.3-65.5,266.7-65.5L266.7-65.5z"/>
				</g>
			</g>
			<g>
				<defs>
					<path id="SVGID_13_" d="M280.3-70.8c-13,0-23.6,10.8-23.6,23.9c0,2.9,2.4,5.5,5.3,5.5h36.8c2.9,0,5.3-2.6,5.3-5.5
						C303.9-59.9,293.3-70.8,280.3-70.8z"/>
				</defs>
				<clipPath id="SVGID_14_">
					<use xlink:href="#SVGID_13_"  overflow="visible"/>
				</clipPath>
				<path clip-path="url(#SVGID_14_)" fill="#F4ABBA" d="M302-56.1c-1.3-3.2-3.2-5.9-5.5-8.1c-3.3,0-5.9,2.6-5.9,5.9
					c0,3.3,2.6,5.9,5.9,5.9C299.2-52.4,301.3-53.8,302-56.1z"/>
			</g>
			<g>
				<defs>
					<path id="SVGID_15_" d="M280.3-70.8c-13,0-23.6,10.8-23.6,23.9c0,2.9,2.4,5.5,5.3,5.5h36.8c2.9,0,5.3-2.6,5.3-5.5
						C303.9-59.9,293.3-70.8,280.3-70.8z"/>
				</defs>
				<clipPath id="SVGID_16_">
					<use xlink:href="#SVGID_15_"  overflow="visible"/>
				</clipPath>
				<circle clip-path="url(#SVGID_16_)" fill="#F4ABBA" cx="284.8" cy="-49.8" r="5.9"/>
			</g>
			<g>
				<defs>
					<path id="SVGID_17_" d="M280.3-70.8c-13,0-23.6,10.8-23.6,23.9c0,2.9,2.4,5.5,5.3,5.5h36.8c2.9,0,5.3-2.6,5.3-5.5
						C303.9-59.9,293.3-70.8,280.3-70.8z"/>
				</defs>
				<clipPath id="SVGID_18_">
					<use xlink:href="#SVGID_17_"  overflow="visible"/>
				</clipPath>
				<circle clip-path="url(#SVGID_18_)" fill="#F4ABBA" cx="282.9" cy="-64.2" r="3.9"/>
			</g>
		</g>
	</g>
	<g>
		<path fill="#99AAB5" d="M217.6-26.8c0,2.9-2.4,3.9-5.3,3.9h-13.1c-2.9,0-5.3-1.1-5.3-3.9l0,0c0-2.9,3.9-9.2,3.9-17.1
			s15.8-7.9,15.8,0S217.6-29.7,217.6-26.8L217.6-26.8z"/>
		<g>
			<g>
				<defs>
					<path id="SVGID_19_" d="M205.8-70.4c-13,0-23.6,10.6-23.6,23.8c0,2.9,2.4,5.4,5.3,5.4h36.8c2.9,0,5.3-2.5,5.3-5.4
						C229.4-59.7,218.9-70.4,205.8-70.4z"/>
				</defs>
				<clipPath id="SVGID_20_">
					<use xlink:href="#SVGID_19_"  overflow="visible"/>
				</clipPath>
				<path clip-path="url(#SVGID_20_)" fill="#DD2E44" d="M205.8-71.2c-13.8,0-24.9,11.4-24.9,25.3c0,3,2.5,5.9,5.5,5.9h38.9
					c3,0,5.5-2.9,5.5-5.9C230.8-59.7,219.6-71.2,205.8-71.2z"/>
			</g>
			<g>
				<defs>
					<path id="SVGID_21_" d="M205.8-70.4c-13,0-23.6,10.6-23.6,23.8c0,2.9,2.4,5.4,5.3,5.4h36.8c2.9,0,5.3-2.5,5.3-5.4
						C229.4-59.7,218.9-70.4,205.8-70.4z"/>
				</defs>
				<clipPath id="SVGID_22_">
					<use xlink:href="#SVGID_21_"  overflow="visible"/>
				</clipPath>
				<g clip-path="url(#SVGID_22_)">
					<path fill="#F4ABBA" d="M192.4-48.7c-4.5,0-8.1-3.7-8.1-8.1s3.7-8.1,8.1-8.1s8.1,3.7,8.1,8.1S196.9-48.7,192.4-48.7z"/>
					<path fill="#F4ABBA" d="M192.4-64.7c4.3,0,7.9,3.5,7.9,7.9s-3.5,7.9-7.9,7.9s-7.9-3.5-7.9-7.9
						C184.4-61.2,187.9-64.7,192.4-64.7 M192.4-65.1c-4.6,0-8.3,3.7-8.3,8.3s3.7,8.3,8.3,8.3s8.3-3.7,8.3-8.3S196.9-65.1,192.4-65.1
						L192.4-65.1z"/>
				</g>
			</g>
			<g>
				<defs>
					<path id="SVGID_23_" d="M205.8-70.4c-13,0-23.6,10.6-23.6,23.8c0,2.9,2.4,5.4,5.3,5.4h36.8c2.9,0,5.3-2.5,5.3-5.4
						C229.4-59.7,218.9-70.4,205.8-70.4z"/>
				</defs>
				<clipPath id="SVGID_24_">
					<use xlink:href="#SVGID_23_"  overflow="visible"/>
				</clipPath>
				<path clip-path="url(#SVGID_24_)" fill="#F4ABBA" d="M227.7-55.7c-1.3-3.2-3.2-5.9-5.5-8.1c-3.3,0-5.9,2.6-5.9,5.9
					c0,3.3,2.6,5.9,5.9,5.9C224.7-52,226.8-53.4,227.7-55.7z"/>
			</g>
			<g>
				<defs>
					<path id="SVGID_25_" d="M205.8-70.4c-13,0-23.6,10.6-23.6,23.8c0,2.9,2.4,5.4,5.3,5.4h36.8c2.9,0,5.3-2.5,5.3-5.4
						C229.4-59.7,218.9-70.4,205.8-70.4z"/>
				</defs>
				<clipPath id="SVGID_26_">
					<use xlink:href="#SVGID_25_"  overflow="visible"/>
				</clipPath>
				<circle clip-path="url(#SVGID_26_)" fill="#F4ABBA" cx="210.5" cy="-49.4" r="5.9"/>
			</g>
			<g>
				<defs>
					<path id="SVGID_27_" d="M205.8-70.4c-13,0-23.6,10.6-23.6,23.8c0,2.9,2.4,5.4,5.3,5.4h36.8c2.9,0,5.3-2.5,5.3-5.4
						C229.4-59.7,218.9-70.4,205.8-70.4z"/>
				</defs>
				<clipPath id="SVGID_28_">
					<use xlink:href="#SVGID_27_"  overflow="visible"/>
				</clipPath>
				<circle clip-path="url(#SVGID_28_)" fill="#F4ABBA" cx="208.4" cy="-63.8" r="3.9"/>
			</g>
		</g>
	</g>
	<g>
		<path fill="#FFCC4D" d="M145.8-47.1c-1.3,1.3-2.1,4.1-1.8,5.9l1.2,8.4c0.3,1.8-0.9,2.8-2.6,2l-7.7-3.7c-1.7-0.8-4.5-0.8-6.2,0
			l-7.6,3.7c-1.7,0.8-2.9,0-2.6-2l1.1-8.4c0.3-1.8-0.7-4.5-2-5.9l-5.9-6.2c-1.3-1.3-0.9-2.8,1.1-3.2L121-58c1.8-0.4,4.1-2,5-3.7
			l4.1-7.5c0.9-1.7,2.4-1.7,3.3,0l4.1,7.5c0.9,1.7,3.2,3.3,5,3.7l8.4,1.4c1.8,0.4,2.4,1.7,1.1,3.2L145.8-47.1z"/>
		<path fill="#FFD983" d="M120.7-67.5c1.3,1.8,3.2,6.4,2.2,7.1s-4.7-2.5-6-4.3c-1.3-1.8-1.2-3.5-0.1-4.3
			C117.8-69.7,119.4-69.3,120.7-67.5z"/>
		<path fill="#FFD983" d="M146.2-64.7c-1.3,1.8-5.1,5.1-6,4.3c-0.9-0.7,0.9-5.3,2.2-7.1s2.9-2.2,3.9-1.4
			C147.4-68.1,147.5-66.6,146.2-64.7z"/>
		<path fill="#FFD983" d="M129.7-26.6c0-2.2,1.2-7.1,2.4-7.1s2.4,4.9,2.4,7.1s-1.1,3.5-2.4,3.5C130.8-23.1,129.7-24.3,129.7-26.6z"
			/>
		<path fill="#FFD983" d="M150.9-38.9c-2.2-0.7-6.4-3.3-6-4.5c0.4-1.2,5.3-0.8,7.5,0c2.2,0.7,3,2.1,2.6,3.4
			C154.6-38.7,153.2-38.1,150.9-38.9z"/>
		<path fill="#FFD983" d="M110.6-43.3c2.2-0.7,7.1-1.1,7.5,0c0.4,1.2-3.8,3.8-6,4.5c-2.2,0.7-3.7,0.1-4.1-1.2
			C107.6-41.2,108.5-42.5,110.6-43.3z"/>
	</g>
	<g>
		<path fill="#66757F" d="M78.2-26.8c0,1.4-1.2,2.6-2.6,2.6h-3.9c-1.4,0-2.6-1.2-2.6-2.6v-10.5c0-1.4,1.2-2.6,2.6-2.6h3.9
			c1.4,0,2.6,1.2,2.6,2.6V-26.8z"/>
		<path fill="#66757F" d="M45.4-26.8c0,1.4-1.2,2.6-2.6,2.6h-3.9c-1.4,0-2.6-1.2-2.6-2.6v-10.5c0-1.4,1.2-2.6,2.6-2.6h3.9
			c1.4,0,2.6,1.2,2.6,2.6V-26.8z"/>
		<path fill="#66757F" d="M40.1-49.8c0,1.1-0.9,2-2,2h-2.6c-1.1,0-2-0.9-2-2l0,0c0-1.1,0.9-2,2-2h2.6C39.2-51.7,40.1-50.8,40.1-49.8
			L40.1-49.8z"/>
		<path fill="#66757F" d="M80.8-49.8c0-1.1-0.9-2-2-2h-2.6c-1.1,0-2,0.9-2,2l0,0c0,1.1,0.9,2,2,2h2.6C79.9-47.8,80.8-48.7,80.8-49.8
			L80.8-49.8z"/>
		<path fill="#CCD6DD" d="M46-64.5c5.3-1.3,18.4-1.3,23.6,0c5.1,1.3,6.3,14.4,6.3,14.4s2.4,0,2.4,5.3s0,10.5,0,10.5s0.3,3.9-3.7,5.3
			c-5.1,1.7-10.4,1.3-16.9,1.3S45.5-27.3,40.4-29c-3.9-1.3-4.2-5.3-4.2-5.3v-10.5c0,0,0.3-5.3,2.9-5.3C39.1-50,40.9-63.1,46-64.5z"
			/>
		<path fill="#292F33" d="M57.2-43.4c-7.5,0-14.4-0.1-21-0.4v9.6c0,0,0.3,3.9,4.2,5.3c5.1,1.7,10.6,1.3,17.2,1.3s11.7,0.4,16.8-1.3
			c3.9-1.3,3.7-5.3,3.7-5.3s0-4.6,0-9.6C72.9-43.6,64.7-43.4,57.2-43.4z"/>
		<path fill="#55ACEE" d="M57.8-51.3c5.1,0,11.3,0.3,15.8,0.8l-1.3-7.4c-1.3-3.9-9.2-3.9-14.4-3.9s-13.1,0-14.4,3.9l-1.3,7.4
			C46.5-51.1,52.7-51.3,57.8-51.3z"/>
		<path fill="#CCD6DD" d="M49.3-38.6c0,1.4-1.2,2.6-2.6,2.6h-5.3c-1.4,0-2.6-1.2-2.6-2.6l0,0c0-1.4,1.2-2.6,2.6-2.6h5.3
			C48.1-41.2,49.3-40,49.3-38.6L49.3-38.6z"/>
		<path fill="#CCD6DD" d="M75.6-38.6c0-1.4-1.2-2.6-2.6-2.6h-5.3c-1.4,0-2.6,1.2-2.6,2.6l0,0c0,1.4,1.2,2.6,2.6,2.6h5.3
			C74.4-36,75.6-37.1,75.6-38.6L75.6-38.6z"/>
		<path fill="#66757F" d="M71.6-32.7c0,1.1-0.9,2-2,2H44.7c-1.1,0-2-0.9-2-2l0,0c0-1.1,0.9-2,2-2h24.9
			C70.7-34.7,71.6-33.7,71.6-32.7L71.6-32.7z"/>
		<path fill="#99AAB5" d="M50-43.4c-0.1,0-0.4,0-0.5-0.1l-7.9-3.9c-0.7-0.3-0.9-1.1-0.5-1.7c0.3-0.7,1.1-0.9,1.7-0.5l7.9,3.9
			c0.7,0.3,0.9,1.1,0.5,1.7C50.9-43.7,50.5-43.4,50-43.4z"/>
		<path fill="#99AAB5" d="M65.7-43.4c-0.5,0-0.9-0.3-1.2-0.8c-0.3-0.7,0-1.4,0.5-1.7l7.9-3.9c0.7-0.3,1.4,0,1.7,0.5
			c0.3,0.7,0,1.4-0.5,1.7l-7.9,3.9C66.1-43.4,66-43.4,65.7-43.4z"/>
		<path fill="#DD2E44" d="M57.2-65.5c0,1.1-0.9,2-2,2H46c-1.1,0-2-0.9-2-2l0,0c0-1.1,0.9-2,2-2h9.2C56.3-67.5,57.2-66.6,57.2-65.5
			L57.2-65.5z"/>
		<path fill="#55ACEE" d="M70.3-65.5c0,1.1-0.9,2-2,2h-9.2c-1.1,0-2-0.9-2-2l0,0c0-1.1,0.9-2,2-2h9.2C69.4-67.5,70.3-66.6,70.3-65.5
			L70.3-65.5z"/>
		<rect x="54.5" y="-67.5" fill="#F5F8FA" width="5.3" height="3.9"/>
	</g>
</g>
<g id="onboarding_slide_2_encrypted_hello_4">
	<g>
		<path fill="#FFCC4D" d="M376.9-46.9c0,12.3-10,22.3-22.3,22.3s-22.3-10-22.3-22.3s10-22.3,22.3-22.3S376.9-59.2,376.9-46.9"/>
		<ellipse fill="#664500" cx="354.6" cy="-35" rx="6.6" ry="7.9"/>
		<path fill="#664500" d="M338.8-56.1c-0.3,0-0.5-0.1-0.8-0.3c-0.5-0.4-0.7-1.3-0.3-1.8c4.3-5.8,10-5.8,10.2-5.8
			c0.8,0,1.3,0.5,1.3,1.3s-0.5,1.3-1.3,1.3c-0.3,0-4.7,0.1-8.1,4.7C339.6-56.3,339.2-56.1,338.8-56.1z"/>
		<path fill="#664500" d="M370.3-56.1c-0.4,0-0.8-0.1-1.1-0.5c-3.4-4.6-8-4.7-8.1-4.7c-0.7,0-1.3-0.7-1.3-1.3c0-0.8,0.5-1.3,1.3-1.3
			c0.3,0,5.9,0,10.2,5.8c0.4,0.5,0.3,1.4-0.3,1.8C370.9-56.2,370.6-56.1,370.3-56.1z"/>
		<path fill="#664500" d="M349.2-50.1l2.4-2.4c0.5-0.5,0.5-1.3,0-1.8s-1.3-0.5-1.8,0l-2.4,2.4l-2.4-2.4c-0.5-0.5-1.3-0.5-1.8,0
			c-0.5,0.5-0.5,1.3,0,1.8l2.4,2.4l-2.4,2.4c-0.5,0.5-0.5,1.3,0,1.8c0.3,0.3,0.7,0.4,0.9,0.4c0.3,0,0.7-0.1,0.9-0.4l2.4-2.4l2.4,2.4
			c0.3,0.3,0.7,0.4,0.9,0.4c0.3,0,0.7-0.1,0.9-0.4c0.5-0.5,0.5-1.3,0-1.8L349.2-50.1z"/>
		<path fill="#664500" d="M363.6-50.1l2.4-2.4c0.5-0.5,0.5-1.3,0-1.8c-0.5-0.5-1.3-0.5-1.8,0l-2.4,2.4l-2.4-2.4
			c-0.5-0.5-1.3-0.5-1.8,0s-0.5,1.3,0,1.8l2.4,2.4l-2.4,2.4c-0.5,0.5-0.5,1.3,0,1.8c0.3,0.3,0.7,0.4,0.9,0.4c0.3,0,0.7-0.1,0.9-0.4
			l2.4-2.4l2.4,2.4c0.3,0.3,0.7,0.4,0.9,0.4c0.3,0,0.7-0.1,0.9-0.4c0.5-0.5,0.5-1.3,0-1.8L363.6-50.1z"/>
	</g>
	<g>
		<path fill="#553788" d="M269.9-54.6c3.9,6.6,0,14-3.9,12.7s-5.3,2.6-1.3,3.9c3.9,1.3,12.5-0.7,17.1-5.3c1.3-1.3,2.6-1.3,2.6-1.3
			L269.9-54.6z"/>
		<path fill="#553788" d="M290.9-54.6c-3.9,6.6,0,14,3.9,12.7s5.3,2.6,1.3,3.9c-3.9,1.3-12.5-0.7-17.1-5.3c-1.3-1.3-2.6-1.3-2.6-1.3
			L290.9-54.6z"/>
		<path fill="#744EAA" d="M296.4-49.4c-3.9,6.6,0,14,3.9,12.7s5.3,2.6,1.3,3.9c-3.9,1.3-12.5-0.7-17.1-5.3c-1.3-1.3-2.6-1.3-2.6-1.3
			L296.4-49.4z"/>
		<path fill="#744EAA" d="M264.4-49.4c3.9,6.6,0,14-3.9,12.7s-5.3,2.6-1.3,3.9c3.9,1.3,12.5-0.7,17.1-5.3c1.3-1.3,2.6-1.3,2.6-1.3
			L264.4-49.4z"/>
		<path fill="#9266CC" d="M300.3-29.1c-3.5,1.2-8.4-7.4-6.3-13.9c2.1-4.2,3.4-9.1,3.4-12.9c0-9.5-7.6-14.4-17.1-14.4
			s-17.1,5-17.1,14.4c0,3.8,1.3,8.7,3.4,12.9c2.1,6.6-2.8,15.1-6.3,13.9c-3.9-1.3-5.3,3.9-1.3,5.3c3.9,1.3,10.9-0.8,15.8-5.3
			c2.9-2.6,5.5-2.6,5.5-2.6s2.6,0,5.5,2.6c4.9,4.5,11.8,6.6,15.8,5.3C305.6-25.2,304.3-30.4,300.3-29.1z"/>
		<circle fill="#292F33" cx="275.1" cy="-42.8" r="2.6"/>
		<circle fill="#292F33" cx="285.6" cy="-42.8" r="2.6"/>
	</g>
	<g>
		<path fill="#553788" d="M195.6-54.6c3.9,6.6,0,14-3.9,12.7c-3.9-1.3-5.3,2.6-1.3,3.9c3.9,1.3,12.5-0.7,17.1-5.3
			c1.3-1.3,2.6-1.3,2.6-1.3L195.6-54.6z"/>
		<path fill="#553788" d="M216.6-54.6c-3.9,6.6,0,14,3.9,12.7c3.9-1.3,5.3,2.6,1.3,3.9c-3.9,1.3-12.5-0.7-17.1-5.3
			c-1.3-1.3-2.6-1.3-2.6-1.3L216.6-54.6z"/>
		<path fill="#744EAA" d="M222.1-49.4c-3.9,6.6,0,14,3.9,12.7s5.3,2.6,1.3,3.9c-3.9,1.3-12.5-0.7-17.1-5.3c-1.3-1.3-2.6-1.3-2.6-1.3
			L222.1-49.4z"/>
		<path fill="#744EAA" d="M190-49.4c3.9,6.6,0,14-3.9,12.7c-3.9-1.3-5.3,2.6-1.3,3.9c3.9,1.3,12.5-0.7,17.1-5.3
			c1.3-1.3,2.6-1.3,2.6-1.3L190-49.4z"/>
		<path fill="#9266CC" d="M226-29.1c-3.5,1.2-8.4-7.4-6.3-13.9c2.1-4.2,3.4-9.1,3.4-12.9c0-9.5-7.6-14.4-17.1-14.4
			s-17.1,5-17.1,14.4c0,3.8,1.3,8.7,3.4,12.9c2.1,6.6-2.8,15.1-6.3,13.9c-3.9-1.3-5.3,3.9-1.3,5.3c3.9,1.3,10.9-0.8,15.8-5.3
			c2.9-2.6,5.5-2.6,5.5-2.6s2.6,0,5.5,2.6c4.9,4.5,11.8,6.6,15.8,5.3C231.3-25.2,230-30.4,226-29.1z"/>
		<circle fill="#292F33" cx="200.8" cy="-42.8" r="2.6"/>
		<circle fill="#292F33" cx="211.3" cy="-42.8" r="2.6"/>
	</g>
	<g>
		<path fill="#FDD888" d="M150.1-39.1c-0.8-8.7-5.1-13-5.1-13l-7.9-10.5h-1.3h-3.9h-3.9h-1.3l-7.9,10.5c0,0-1.8,1.8-3.4,5.6
			c-2.6,0.9-4.5,3.3-4.5,6.2c0,1.8,0.8,3.5,2.1,4.9c-0.5,0.9-0.8,2-0.8,3c0,2.6,1.4,4.7,3.7,5.9c1.7,2.5,3.9,3.3,5.5,3.3h21
			c1.8,0,4.5-1.1,6.2-4.3c2.5-0.9,4.3-3.3,4.3-6.2C152.9-36,151.8-37.9,150.1-39.1z"/>
		<path fill="#FDD888" d="M131.9-62.6c0.7,0,1.4-0.3,2-0.5c0.5,0.4,1.3,0.5,2,0.5c2.2,0,5.3-3,5.3-5.3c0,0,0-2.6-2.6-2.6
			c-1.1,0-1.3,1.3-2.6,1.3s-1.3-1.3-3.9-1.3s-2.6,1.3-3.9,1.3c-1.3,0-1.6-1.3-2.6-1.3c-2.6,0-2.6,2.6-2.6,2.6c0,2.2,3,5.3,5.3,5.3
			c0.7,0,1.4-0.3,2-0.5C130.4-62.9,131.2-62.6,131.9-62.6z"/>
		<path fill="#BF6952" d="M139.8-62.6c0,0.8-0.5,1.3-1.3,1.3h-13.1c-0.8,0-1.3-0.5-1.3-1.3l0,0c0-0.8,0.5-1.3,1.3-1.3h13.1
			C139.2-63.9,139.8-63.4,139.8-62.6L139.8-62.6z"/>
		<path fill="#67757F" d="M139.6-38.3c0-5.9-11.3-5.5-11.3-9.1c0-1.7,1.7-2.5,3.7-2.5c3.3,0,3.9,2.1,5.4,2.1c1.1,0,1.6-0.7,1.6-1.3
			c0-1.7-2.6-3-5.3-3.4v-1.6c0-1.1-0.9-1.8-2-1.8s-2,0.8-2,1.8v1.7c-2.8,0.7-5.1,2.5-5.1,5.5c0,5.6,11.3,5.4,11.3,9.3
			c0,1.3-1.6,2.8-4.1,2.8c-3.8,0-5.1-2.5-6.6-2.5c-0.8,0-1.4,0.7-1.4,1.6c0,1.4,2.5,3.3,6,3.7l0,0v1.8c0,1.1,0.9,1.8,2,1.8
			s2-0.8,2-1.8V-32l0,0C137-32.8,139.6-34.8,139.6-38.3z"/>
	</g>
	<g>
		<path fill="#3E721D" d="M70.6-35.2c-10.5,0-10.8,7.9-10.8,7.9v-15.2h-5.3v15.2c0,0,0.3-7.9-10.2-7.9c-5.3,0-9.1-3-9.1-3
			s0.1,11.4,11.9,11.4c5.3,0,7.9,0,7.9,0s0,2.6,2.6,2.6c2.6,0,2.6-2.6,2.6-2.6s2.6,0,7.9,0c11.8,0,11.7-11.4,11.7-11.4
			S75.8-35.2,70.6-35.2z"/>
		<path fill="#FFAC33" d="M61.9-34.3c-0.4,0-0.9-0.1-1.2-0.4l-3-2.1l-3,2.1c-0.4,0.3-0.8,0.4-1.2,0.4c-0.1,0-0.4,0-0.5-0.1
			c-0.7-0.1-1.2-0.5-1.4-1.2L50-38.9l-3.7,0.3h-0.1c-0.5,0-1.2-0.3-1.6-0.7c-0.4-0.4-0.7-1.1-0.7-1.7l0.3-3.7l-3.3-1.6
			c-0.5-0.3-1.1-0.8-1.2-1.4s0-1.3,0.3-1.8l2.1-3l-2.1-3c-0.4-0.5-0.5-1.2-0.3-1.8c0.1-0.7,0.5-1.2,1.2-1.4l3.3-1.6l-0.3-3.7
			c0-0.7,0.1-1.3,0.7-1.7c0.4-0.4,0.9-0.7,1.6-0.7h0.1l3.7,0.3l1.6-3.3c0.3-0.5,0.8-1.1,1.4-1.2c0.1,0,0.4-0.1,0.5-0.1
			c0.4,0,0.9,0.1,1.2,0.4l3,2.1l3-2.1c0.4-0.3,0.8-0.4,1.2-0.4c0.1,0,0.4,0,0.5,0.1c0.7,0.1,1.2,0.5,1.4,1.2l1.6,3.3l3.7-0.3h0.1
			c0.5,0,1.2,0.3,1.6,0.7c0.4,0.4,0.7,1.1,0.7,1.7l-0.3,3.7l3.3,1.6c0.5,0.3,1.1,0.8,1.2,1.4s0,1.3-0.3,1.8l-2.1,3l2.1,3
			c0.4,0.5,0.5,1.2,0.3,1.8c-0.1,0.7-0.5,1.2-1.2,1.4l-3.3,1.6l0.3,3.7c0,0.7-0.1,1.2-0.7,1.7c-0.4,0.4-0.9,0.7-1.6,0.7h-0.1
			l-3.7-0.3l-1.6,3.3c-0.3,0.5-0.8,1.1-1.4,1.2C62.3-34.3,62.2-34.3,61.9-34.3z"/>
		<circle fill="#732700" cx="57.8" cy="-52.2" r="9.2"/>
	</g>
</g>
<g>
	<rect x="64.4" y="22.7" fill="none" width="283.6" height="241.1"/>
	<text transform="matrix(1 0 0 1 78.5778 44.0516)"><tspan x="0" y="0" fill="#FFFFFF" font-family="'FiraMono-Medium'" font-size="28.3612">CYPHOLOJI SHOWS </tspan><tspan x="25.5" y="34" fill="#FFFFFF" font-family="'FiraMono-Medium'" font-size="28.3612">YOU HOW THAT </tspan><tspan x="8.5" y="68.1" fill="#FFFFFF" font-family="'FiraMono-Medium'" font-size="28.3612">WORKS BY USING </tspan><tspan x="0" y="102.1" fill="#FFFFFF" font-family="'FiraMono-Medium'" font-size="28.3612">A SIMPLE CIPHER </tspan><tspan x="25.5" y="136.1" fill="#FFFFFF" font-family="'FiraMono-Medium'" font-size="28.3612">TO TURN YOUR </tspan><tspan x="17" y="170.2" fill="#FFFFFF" font-family="'FiraMono-Medium'" font-size="28.3612">MESSAGES INTO </tspan><tspan x="76.6" y="204.2" fill="#FFFFFF" font-family="'FiraMono-Medium'" font-size="28.3612">EMOJIS</tspan></text>
</g>
</svg>
