<?xml version="1.0" encoding="utf-8"?>
<!-- Generator: Adobe Illustrator 18.0.0, SVG Export Plug-In . SVG Version: 6.00 Build 0)  -->
<!DOCTYPE svg PUBLIC "-//W3C//DTD SVG 1.1//EN" "http://www.w3.org/Graphics/SVG/1.1/DTD/svg11.dtd">
<svg version="1.1" id="Layer_1" xmlns="http://www.w3.org/2000/svg" xmlns:xlink="http://www.w3.org/1999/xlink" x="0px" y="0px"
	 width="393.1px" height="700px" viewBox="0 0 393.1 700" enable-background="new 0 0 393.1 700" xml:space="preserve">
<polyline fill="#283344" points="0,700 0,0 393.1,0 393.1,700 "/>
<text transform="matrix(1 0 0 1 89.046 294.5773)" fill="#FFFFFF" font-family="'FiraSans-Regular'" font-size="26">That&apos;s it. Now you </text>
<text transform="matrix(1 0 0 1 98.9231 325.7775)" fill="#FFFFFF" font-family="'FiraSans-Regular'" font-size="26">know the basics </text>
<text transform="matrix(1 0 0 1 110.4629 356.9777)" fill="#FFFFFF" font-family="'FiraSans-Regular'" font-size="26">of how simple </text>
<text transform="matrix(1 0 0 1 118.2328 388.1769)" fill="#FFFFFF" font-family="'FiraSans-Regular'" font-size="26">ciphers work.</text>
<text transform="matrix(1 0 0 1 193.1098 419.3771)" fill="#FFFFFF" font-family="'FiraSans-Regular'" font-size="26"> </text>
<text transform="matrix(1 0 0 1 113.0532 450.5773)" fill="#FFFFFF" font-family="'FiraSans-Regular'" font-size="26">Try it yourself </text>
<text transform="matrix(1 0 0 1 105.6895 481.7775)" fill="#FFFFFF" font-family="'FiraSans-Regular'" font-size="26">and share with </text>
<text transform="matrix(1 0 0 1 121.9968 512.9777)" fill="#FFFFFF" font-family="'FiraSans-Regular'" font-size="26">your friends.</text>
</svg>
