<?xml version="1.0" encoding="utf-8"?>
<!-- Generator: Adobe Illustrator 16.0.0, SVG Export Plug-In . SVG Version: 6.00 Build 0)  -->
<!DOCTYPE svg PUBLIC "-//W3C//DTD SVG 1.1//EN" "http://www.w3.org/Graphics/SVG/1.1/DTD/svg11.dtd">
<svg version="1.1" id="s3" xmlns="http://www.w3.org/2000/svg" xmlns:xlink="http://www.w3.org/1999/xlink" x="0px" y="0px"
	 width="393.1px" height="700px" viewBox="0 0 393.1 700" enable-background="new 0 0 393.1 700" xml:space="preserve">
<polyline fill="#283344" points="0,700 0,0 393.1,0 393.1,700 "/>
<g id="tt1">
	<text transform="matrix(1 0 0 1 84.6411 444.5771)" fill="#FFFFFF" font-family="'FiraSans-Regular'" font-size="26">Write the message </text>
</g>
<g id="tt2">
	<text transform="matrix(1 0 0 1 95.7051 475.7773)" fill="#FFFFFF" font-family="'FiraSans-Regular'" font-size="26">you want to turn </text>
</g>
<g id="tt3">
	<text transform="matrix(1 0 0 1 130.4268 506.9775)" fill="#FFFFFF" font-family="'FiraSans-Regular'" font-size="26">into emojis</text>
</g>
<path id="bubble" fill="#005189" d="M338.9,269.4h-285c-9.6,0-17.5-7.9-17.5-17.5V111c0-9.6,7.9-17.5,17.5-17.5H339
	c9.6,0,17.5,7.9,17.5,17.5v140.6C356.4,261.6,348.5,269.4,338.9,269.4z"/>
<g id="txt">
	<g>
		<path fill="#FFFFFF" d="M78.533,138.3H65.021v18.627H58.2V116h6.821v16.66h13.38V116h6.821v40.927h-6.821L78.533,138.3
			L78.533,138.3z"/>
	</g>
	<g>
		<path fill="#FFFFFF" d="M121.165,153.123l-1.443,4.46c-3.018-0.394-5.378-1.574-6.427-4.329c-2.23,2.886-5.903,4.329-9.97,4.329
			c-6.428,0-10.363-3.935-10.363-9.708c0-6.559,5.378-10.363,14.954-10.363h4.46v-1.836c0-4.066-2.493-5.771-6.952-5.771
			c-2.099,0-5.117,0.393-8.265,1.574l-1.574-4.722c3.935-1.443,7.739-2.23,11.019-2.23c8.396,0,12.462,3.936,12.462,10.494v14.036
			C118.803,151.811,119.459,152.729,121.165,153.123z M112.245,148.794v-6.952h-3.673c-6.166,0-8.658,2.23-8.658,5.903
			c0,3.279,1.836,5.116,5.247,5.116C107.916,152.729,110.671,151.286,112.245,148.794z"/>
	</g>
	<g>
		<path fill="#FFFFFF" d="M146.875,156.927h-7.739l-11.15-31.22h7.215l7.871,25.842l8.002-25.842h6.821L146.875,156.927z"/>
	</g>
	<g>
		<path fill="#FFFFFF" d="M180.063,152.598c3.017,0,5.64-0.918,8.264-2.755l2.886,4.066c-2.886,2.362-6.953,3.936-11.281,3.936
			c-9.707,0-15.085-6.69-15.085-16.397c0-9.444,5.378-16.528,14.298-16.528c8.264,0,13.511,5.903,13.511,15.741
			c0,1.05-0.131,2.23-0.262,3.017h-20.726C171.93,149.843,175.603,152.598,180.063,152.598z M171.537,138.956h14.561
			c-0.131-5.903-2.493-9.183-6.953-9.183C174.816,129.773,171.93,132.66,171.537,138.956z"/>
	</g>
	<g>
		<path fill="#FFFFFF" d="M263.491,153.123l-1.442,4.46c-3.019-0.394-5.379-1.574-6.429-4.329c-2.229,2.886-5.902,4.329-9.969,4.329
			c-6.428,0-10.363-3.935-10.363-9.708c0-6.559,5.378-10.363,14.955-10.363h4.459v-1.836c0-4.066-2.492-5.771-6.952-5.771
			c-2.099,0-5.116,0.393-8.266,1.574l-1.572-4.722c3.935-1.443,7.739-2.23,11.019-2.23c8.395,0,12.462,3.936,12.462,10.494v14.036
			C261.129,151.811,261.917,152.729,263.491,153.123z M254.57,148.794v-6.952h-3.672c-6.167,0-8.658,2.23-8.658,5.903
			c0,3.279,1.836,5.116,5.247,5.116C250.243,152.729,252.997,151.286,254.57,148.794z"/>
	</g>
	<g>
		<path fill="#FFFFFF" d="M59.381,196.805h5.771l0.393,4.066c2.624-3.148,6.297-4.985,10.232-4.985c5.903,0,8.658,3.411,8.658,9.313
			v22.825h-6.69v-19.545c0-5.51-0.656-7.608-4.459-7.608c-3.149,0-5.772,2.23-7.346,4.591v22.431h-6.69L59.381,196.805z"/>
	</g>
	<g>
		<path fill="#FFFFFF" d="M111.982,223.302h8.657v4.854H95.979v-4.854h9.314v-21.513h-9.051v-4.853h15.741V223.302z M111.72,185.655
			c0,2.361-1.836,4.066-4.329,4.066c-2.624,0-4.329-1.837-4.329-4.066c0-2.23,1.706-4.198,4.329-4.198
			S111.72,183.293,111.72,185.655z"/>
	</g>
	<g>
		<path fill="#FFFFFF" d="M153.303,220.81l3.017,4.198c-2.755,2.229-6.821,3.935-11.019,3.935c-9.576,0-15.217-6.427-15.217-16.266
			c0-9.576,5.771-16.66,15.348-16.66c4.197,0,7.739,1.312,10.887,3.804l-3.148,4.067c-2.362-1.575-4.985-2.624-7.739-2.624
			c-4.985,0-8.396,3.542-8.396,11.281s3.542,10.756,8.396,10.756C148.449,223.433,151.073,222.384,153.303,220.81z"/>
	</g>
	<g>
		<path fill="#FFFFFF" d="M180.063,223.696c3.017,0,5.64-0.918,8.264-2.755l2.886,4.067c-2.886,2.361-6.953,3.935-11.281,3.935
			c-9.707,0-15.085-6.69-15.085-16.397c0-9.445,5.378-16.528,14.298-16.528c8.264,0,13.511,5.903,13.511,15.741
			c0,1.049-0.131,2.23-0.262,3.017h-20.726C171.93,220.941,175.603,223.696,180.063,223.696z M171.537,210.054h14.561
			c-0.131-5.903-2.493-9.183-6.953-9.183C174.816,200.871,171.93,203.757,171.537,210.054z"/>
	</g>
	<g>
		<path fill="#FFFFFF" d="M262.31,184.343v43.944h-5.902l-0.394-3.936c-2.1,3.017-5.115,4.591-8.789,4.591
			c-8.001,0-11.806-6.559-11.806-16.397c0-9.576,4.722-16.528,12.331-16.528c3.148,0,5.903,1.181,7.87,3.411v-15.873L262.31,184.343
			z M242.372,212.546c0,8.002,2.359,11.281,6.559,11.281c3.016,0,5.115-2.099,6.689-4.46v-14.823
			c-1.442-2.23-3.674-3.542-6.165-3.542C244.996,201.133,242.372,204.675,242.372,212.546z"/>
	</g>
	<g>
		<path fill="#FFFFFF" d="M299.17,224.352l-1.442,4.46c-3.017-0.393-5.378-1.574-6.428-4.329c-2.229,2.886-5.903,4.329-9.969,4.329
			c-6.429,0-10.364-3.935-10.364-9.707c0-6.559,5.379-10.363,14.955-10.363h4.46v-2.099c0-4.067-2.492-5.772-6.953-5.772
			c-2.098,0-5.115,0.394-8.263,1.574l-1.575-4.723c3.936-1.442,7.74-2.229,11.02-2.229c8.396,0,12.461,3.935,12.461,10.494v14.167
			C296.811,222.909,297.466,223.827,299.17,224.352z M290.12,220.022v-6.952h-3.673c-6.166,0-8.657,2.23-8.657,5.903
			c0,3.279,1.836,5.115,5.247,5.115C285.922,224.089,288.676,222.516,290.12,220.022z"/>
	</g>
	<g>
		<path fill="#FFFFFF" d="M325.014,228.287c-2.362,7.083-6.56,11.937-15.35,12.724l-0.786-4.984
			c6.297-1.049,8.396-3.279,9.969-7.739h-2.229l-10.494-31.22h7.084l7.871,26.76l8.001-26.76h6.82L325.014,228.287z"/>
	</g>
</g>
<line id="cur" fill="none" stroke="#FFFFFF" stroke-miterlimit="10" x1="58.2" y1="112.5" x2="58.2" y2="161.5"/>
</svg>
