<?xml version="1.0" encoding="utf-8"?>
<!-- Generator: Adobe Illustrator 18.0.0, SVG Export Plug-In . SVG Version: 6.00 Build 0)  -->
<!DOCTYPE svg PUBLIC "-//W3C//DTD SVG 1.1//EN" "http://www.w3.org/Graphics/SVG/1.1/DTD/svg11.dtd">
<svg version="1.1" id="s7" xmlns="http://www.w3.org/2000/svg" xmlns:xlink="http://www.w3.org/1999/xlink" x="0px" y="0px"
	 width="393.1px" height="700px" viewBox="0 0 393.1 700" enable-background="new 0 0 393.1 700" xml:space="preserve">
<polyline fill="#283344" points="0,700 0,0 393.1,0 393.1,700 "/>
<g id="tt1">
	<text transform="matrix(1 0 0 1 64.417 222.3767)" fill="#FFFFFF" font-family="'FiraSans-Regular'" font-size="26">Codemoji is a fun way </text>
</g>
<g id="tt2">
	<text transform="matrix(1 0 0 1 50.1919 253.577)" fill="#FFFFFF" font-family="'FiraSans-Regular'" font-size="26">for you and your friends </text>
</g>
<g id="tt3">
	<text transform="matrix(1 0 0 1 62.1001 284.7769)" fill="#FFFFFF" font-family="'FiraSans-Regular'" font-size="26">to learn about ciphers.</text>
</g>
<g id="tt4">
	<text transform="matrix(1 0 0 1 128.395 347.1769)" fill="#FFFFFF" font-family="'FiraSans-Regular'" font-size="26">Thankfully, </text>
</g>
<g id="tt5">
	<text transform="matrix(1 0 0 1 36.5127 378.377)" fill="#FFFFFF" font-family="'FiraSans-Regular'" font-size="26">modern encryption is a lot </text>
</g>
<g id="tt6">
	<text transform="matrix(1 0 0 1 29.6001 409.577)" fill="#FFFFFF" font-family="'FiraSans-Regular'" font-size="26">stronger than emoji ciphers.</text>
</g>
<g id="tt7">
	<text transform="matrix(1 0 0 1 92.5054 471.977)" fill="#FFFFFF" font-family="'FiraSans-Regular'" font-size="26">Create and share </text>
</g>
<g id="tt8">
	<text transform="matrix(1 0 0 1 35.1924 503.1769)" fill="#FFFFFF" font-family="'FiraSans-Regular'" font-size="26">a message so more people </text>
</g>
<g id="tt9">
	<text transform="matrix(1 0 0 1 53.4863 534.377)" fill="#FFFFFF" font-family="'FiraSans-Regular'" font-size="26">can learn about ciphers.</text>
</g>
</svg>
