<?xml version="1.0" encoding="utf-8"?>
<!-- Generator: Adobe Illustrator 18.0.0, SVG Export Plug-In . SVG Version: 6.00 Build 0)  -->
<!DOCTYPE svg PUBLIC "-//W3C//DTD SVG 1.1//EN" "http://www.w3.org/Graphics/SVG/1.1/DTD/svg11.dtd">
<svg version="1.1" id="Layer_1" xmlns="http://www.w3.org/2000/svg" xmlns:xlink="http://www.w3.org/1999/xlink" x="0px" y="0px"
	 viewBox="350 0 450 800" enable-background="new 350 0 450 800" xml:space="preserve">
<g id="back">
</g>
<g id="notes">
</g>
<g id="input">
</g>
<g id="landing_pages">
</g>
<g id="top">
</g>
<g id="tap">
</g>
<polyline fill="#283344" points="350,800 350,0 800,0 800,800 "/>
<g id="slide_6_delivered_text" opacity="0.5">
	<path fill="#FFFFFF" d="M698.6,343.9c0,4-2.4,5-4.9,5H691V339h2.4C696.1,338.9,698.6,339.7,698.6,343.9z M693,340.3v7h0.9
		c1.4,0,2.7-0.7,2.7-3.6c0-3-1.3-3.4-2.7-3.4H693z"/>
	<path fill="#FFFFFF" d="M707.1,345.6h-4.7c0.1,1.6,0.9,2,1.9,2c0.7,0,1.3-0.1,1.9-0.7l0.7,1c-0.7,0.6-1.7,1-2.9,1
		c-2.3,0-3.6-1.6-3.6-4c0-2.3,1.1-4,3.3-4c2.1,0,3.3,1.4,3.3,3.9C707.3,345.1,707.1,345.4,707.1,345.6z M705.4,344.3
		c0-1.3-0.4-2-1.4-2c-0.9,0-1.4,0.6-1.4,2H705.4L705.4,344.3z"/>
	<path fill="#FFFFFF" d="M709.6,347v-8.9l1.9-0.1v9c0,0.3,0.1,0.6,0.4,0.6c0.1,0,0.3,0,0.4,0l0.4,1.3c-0.3,0.1-0.7,0.3-1.1,0.3
		C710.3,349,709.6,348.3,709.6,347z"/>
	<path fill="#FFFFFF" d="M716.6,338.6c0,0.6-0.4,1.1-1.1,1.1s-1.1-0.4-1.1-1.1c0-0.6,0.4-1.1,1.1-1.1
		C716.1,337.4,716.6,337.9,716.6,338.6z M716.4,348.9h-1.9v-7.6h1.9V348.9z"/>
	<path fill="#FFFFFF" d="M722.9,348.9h-2.1l-2.4-7.6h2l1.6,6.1l1.7-6.1h1.9L722.9,348.9z"/>
	<path fill="#FFFFFF" d="M733.3,345.6h-4.7c0.1,1.6,0.9,2,1.9,2c0.7,0,1.3-0.1,1.9-0.7l0.7,1c-0.7,0.6-1.7,1-2.9,1
		c-2.3,0-3.6-1.6-3.6-4c0-2.3,1.1-4,3.3-4c2.1,0,3.3,1.4,3.3,3.9C733.3,345.1,733.3,345.4,733.3,345.6z M731.4,344.3
		c0-1.3-0.4-2-1.4-2c-0.9,0-1.4,0.6-1.4,2H731.4L731.4,344.3z"/>
	<path fill="#FFFFFF" d="M740.1,341.1l-0.3,1.7c-0.3,0-0.4-0.1-0.7-0.1c-0.9,0-1.4,0.7-1.7,2v4h-1.7v-7.6h1.6l0.1,1.4
		c0.3-1.1,1.1-1.7,2-1.7C739.7,341,739.9,341,740.1,341.1z"/>
	<path fill="#FFFFFF" d="M748,345.6h-4.7c0.1,1.6,0.9,2,1.9,2c0.7,0,1.3-0.1,1.9-0.7l0.7,1c-0.7,0.6-1.7,1-2.9,1
		c-2.3,0-3.6-1.6-3.6-4c0-2.3,1.1-4,3.3-4s3.3,1.4,3.3,3.9C748,345.1,748,345.4,748,345.6z M746.3,344.3c0-1.3-0.4-2-1.4-2
		c-0.9,0-1.4,0.6-1.4,2H746.3L746.3,344.3z"/>
	<path fill="#FFFFFF" d="M756.9,338.1v10.6h-1.6l-0.1-1c-0.4,0.7-1.1,1.1-2.1,1.1c-1.9,0-2.9-1.6-2.9-4c0-2.3,1.1-4,3-4
		c0.7,0,1.4,0.3,1.9,0.9v-3.9L756.9,338.1z M755,346.7v-3.4c-0.4-0.6-0.9-0.9-1.4-0.9c-1,0-1.6,0.9-1.6,2.6c0,2,0.6,2.6,1.4,2.6
		C754.1,347.6,754.6,347.3,755,346.7z"/>
</g>
<g opacity="0.2">
	<circle fill="#FFFFFF" cx="518.9" cy="724" r="9.7"/>
</g>
<g opacity="0.2">
	<circle fill="#FFFFFF" cx="481.7" cy="724" r="9.7"/>
</g>
<g opacity="0.2">
	<circle fill="#FFFFFF" cx="556.9" cy="724" r="9.7"/>
</g>
<g opacity="0.2">
	<circle fill="#FFFFFF" cx="594.7" cy="724" r="9.7"/>
</g>
<g opacity="0.2">
	<circle fill="#FFFFFF" cx="632.3" cy="724" r="9.7"/>
</g>
<g opacity="0.2">
	<circle fill="#FFFFFF" cx="670.9" cy="724" r="9.7"/>
</g>
<path fill="#3B88C3" id="slide_6_emoji_bg" d="M782.1,325.9l-24.3-16.1c0.3-1.3,0.4-190.3,0.4-190.3c0-11-9-20-20-20H411.9c-11,0-20,9-20,20v186.3
	c0,11,9,20,20,20L782.1,325.9z"/>
<g id="g12">
	<g>
		<g id="g14">
			<g id="g20" transform="translate(36,19)">
				<path id="path22" fill="#FFCC4D" d="M606,705c0,5.3-4.3,9.7-9.7,9.7c-5.3,0-9.7-4.3-9.7-9.7c0-5.3,4.3-9.7,9.7-9.7
					S606,699.7,606,705"/>
			</g>
			<g id="g24" transform="translate(15,20.5)">
				<path id="path26" fill="#664500" d="M615,702.6c0,1.1-0.6,2-1.4,2c-0.7,0-1.4-0.9-1.4-2s0.6-2,1.4-2
					C614.4,700.6,615,701.5,615,702.6"/>
			</g>
			<g id="g28" transform="translate(28,20.5)">
				<path id="path30" fill="#664500" d="M609.4,702.6c0,1.1-0.6,2-1.4,2c-0.7,0-1.4-0.9-1.4-2s0.6-2,1.4-2S609.4,701.5,609.4,702.6"
					/>
			</g>
			<g id="g32" transform="translate(6.999,25)">
				<path id="path34" fill="#664500" d="M618.6,695.6c-0.1,0-0.3,0-0.3-0.1c-0.3-0.1-0.3-0.6-0.1-0.9c1.9-2.4,4.3-2.6,4.4-2.6
					c0.3,0,0.6,0.3,0.6,0.6s-0.3,0.6-0.6,0.6c-0.1,0-2,0-3.6,2C618.9,695.4,618.7,695.6,618.6,695.6"/>
			</g>
			<g id="g36" transform="translate(31.001,25)">
				<path id="path38" fill="#664500" d="M608.1,695.6c-0.1,0-0.3-0.1-0.4-0.3c-1.6-2-3.4-2-3.6-2c-0.3,0-0.6-0.3-0.6-0.6
					s0.3-0.6,0.6-0.6c0.1,0,2.6,0,4.4,2.6c0.1,0.3,0.1,0.6-0.1,0.9C608.4,695.6,608.3,695.6,608.1,695.6"/>
			</g>
			<g id="g40" transform="translate(24.4854,9.1211)">
				<path id="path42" fill="#664500" d="M610.9,720.5c0,0-0.7-2.4-3.1-2.4c-2.4,0-3.1,2.4-3.1,2.4c0,0.1,0,0.3,0.1,0.3
					c0.1,0,0.3,0,0.3,0s0.6-0.4,2.7-0.4c2,0,2.6,0.4,2.7,0.4l0.1,0.1h0.1C610.9,720.8,610.9,720.6,610.9,720.5"/>
			</g>
		</g>
	</g>
</g>
<g id="slide_6_group_text">
	<path id="slide_6_bubble_white_text_bg" fill="#E5E5E5" d="M501.1,359.7h-89.3c-11,0-20,9-20,20v43.4c0,0.6,0,1.3,0.1,1.9l-27,17.9
		h44.6c0.7,0.1,1.6,0.1,2.3,0.1h89.3c11,0,20-9,20-20v-43.4C521.1,368.7,512.1,359.7,501.1,359.7z"/>
	<g id="slide_6_bubble_white_text">
		<path d="M445.6,390.9c0,7.7-8.9,6.7-8.9,13.9v1.7h-4.1v-1.9c0-7.9,8.6-7.9,8.6-13.3c0-2.7-2.4-4.4-5.7-4.4c-2.3,0-4.9,1.1-6.9,3.6
			l-2.9-2.1c2.9-3.3,6.3-4.9,10.1-4.9C442,383.4,445.6,387.1,445.6,390.9z M438.1,414.6c0,1.9-1.4,3.3-3.3,3.3s-3.3-1.4-3.3-3.3
			s1.4-3.3,3.3-3.3C436.9,411.3,438.1,412.7,438.1,414.6z"/>
		<path d="M483.3,390.9c0,7.7-8.9,6.7-8.9,13.9v1.7h-4.1v-1.9c0-7.9,8.6-7.9,8.6-13.3c0-2.7-2.4-4.4-5.7-4.4c-2.3,0-4.9,1.1-6.9,3.6
			l-2.9-2.1c2.9-3.3,6.3-4.9,10.1-4.9C479.6,383.4,483.3,387.1,483.3,390.9z M475.9,414.6c0,1.9-1.4,3.3-3.3,3.3s-3.3-1.4-3.3-3.3
			s1.4-3.3,3.3-3.3C474.4,411.3,475.9,412.7,475.9,414.6z"/>
	</g>
</g>
<g id="slide_6_group_dots">
	<path id="slide_6_bubble_white_dots_bg" fill="#E5E5E5" d="M501.1,391.7h-89.3c-11,0-20,9-20,20v7.3v4.1v0.9h0
		c0.5,10.5,9.3,19,20,19h89.3c10.7,0,19.4-8.5,19.9-19h0.1v-1v-4v-7.4C521.1,400.7,512.1,391.7,501.1,391.7z"/>
	<g id="slide_6_bubble_white_dots">
		<circle fill="#283344" cx="426.5" cy="426" r="6.7"/>
		<circle fill="#283344" cx="456.5" cy="426" r="6.7"/>
		<circle fill="#283344" cx="486.5" cy="426" r="6.7"/>
	</g>
</g>
<g id="g10_147_" transform="matrix(1.25,0,0,-1.25,0,47.5)">
	<g id="g12_172_">
		<g>
			<g>
				<g>
					<g id="g14_174_">
						<g id="g20_158_" transform="translate(36,19)">
							<path id="path22_158_" fill="#FFCC4D" d="M412.3-102.9c0-6.4-5.1-11.6-11.6-11.6c-6.4,0-11.6,5.1-11.6,11.6
								c0,6.4,5.1,11.6,11.6,11.6C407-91.4,412.3-96.6,412.3-102.9"/>
						</g>
						<g id="g24_149_" transform="translate(29.457,19.2031)">
							<path id="path26_149_" fill="#664500" d="M414.3-102.9c0,0.1-1,2.3-3,2.3s-3-2.1-3-2.3c0-0.1,0-0.3,0.1-0.4s0.3-0.1,0.4,0
								c0,0,0.9,0.6,2.6,0.6s2.4-0.6,2.6-0.6h0.1c0.1,0,0.1,0,0.1,0.1C414.3-103.2,414.3-103.1,414.3-102.9"/>
						</g>
						<g id="g28_108_" transform="translate(17.457,19.2031)">
							<path id="path30_103_" fill="#664500" d="M418.2-102.9c0,0.1-1,2.3-3,2.3s-3-2.1-3-2.3c0-0.1,0-0.3,0.1-0.4s0.3-0.1,0.4,0
								c0,0,0.9,0.6,2.6,0.6s2.4-0.6,2.6-0.6h0.1c0.1,0,0.1,0,0.1,0.1C418.2-103.2,418.2-103.1,418.2-102.9"/>
						</g>
						<g id="g32_85_" transform="translate(32,20.9995)">
							<path id="path34_82_" fill="#664500" d="M413.6-103.6c-0.3,0-0.6,0.1-0.6,0.4c-1.1,3-4.3,3.7-4.3,3.7
								c-0.4,0.1-0.6,0.4-0.6,0.9c0.1,0.4,0.4,0.6,0.9,0.6c0.1,0,3.7-0.9,5.3-4.4c0.1-0.3,0-0.7-0.4-0.9
								C413.7-103.6,413.6-103.6,413.6-103.6"/>
						</g>
						<g id="g36_76_" transform="translate(5.9995,20.9995)">
							<path id="path38_76_" fill="#664500" d="M421.9-103.6c-0.1,0-0.1,0-0.3,0c-0.3,0.1-0.6,0.6-0.4,0.9c1.4,3.7,5.1,4.4,5.3,4.4
								c0.4,0.1,0.7-0.1,0.9-0.6s-0.1-0.7-0.6-0.9c-0.1,0-3-0.7-4.3-3.7C422.4-103.4,422.1-103.6,421.9-103.6"/>
						</g>
						<g id="g40_78_" transform="translate(19,15)">
							<path id="path42_76_" fill="#664500" d="M417.7-101.6c-2.4,0-4.1,0.3-6.1,0.7c-0.4,0.1-1.3,0-1.3-1.3c0-2.7,3.1-6.1,7.4-6.1
								s7.4,3.4,7.4,6.1c0,1.3-0.9,1.4-1.3,1.3C421.9-101.3,420.1-101.6,417.7-101.6"/>
						</g>
						<g id="g44_60_" transform="translate(10,14)">
							<path id="path46_60_" fill="#FFFFFF" d="M420.6-101.3c0,0,2-0.7,6.1-0.7c4,0,6.1,0.7,6.1,0.7s-1.3-2.7-6.1-2.7
								C422-104,420.6-101.3,420.6-101.3"/>
						</g>
						<g id="g48_49_" transform="translate(11.8472,8.7705)">
							<path id="path50_49_" fill="#5DADEC" d="M419.9-99.7c-0.4-1.9-2.3-2.9-4.1-2.4c-1.9,0.4-2.9,2.3-2.4,4.1
								c0.4,1.9,4.3,5.9,5,5.7S420.5-97.8,419.9-99.7"/>
						</g>
						<g id="g52_48_" transform="translate(26.1328,8.7705)">
							<path id="path54_46_" fill="#5DADEC" d="M415.3-99.7c0.4-1.9,2.3-2.9,4.1-2.4c1.9,0.4,2.9,2.3,2.4,4.1s-4.3,5.9-5,5.7
								C416.3-92.4,414.9-97.8,415.3-99.7"/>
						</g>
					</g>
				</g>
			</g>
		</g>
	</g>
</g>
<g id="g10_148_" transform="matrix(1.25,0,0,-1.25,0,47.5)">
	<g id="g12_173_">
		<g>
			<g>
				<g>
					<g id="g14_175_">
						<g id="g20_159_" transform="translate(36,19)">
							<path id="path22_159_" fill="#FFCC4D" d="M322.1-153.1c0-6.4-5.1-11.6-11.6-11.6s-11.6,5.1-11.6,11.6
								c0,6.4,5.1,11.6,11.6,11.6C317-141.7,322.1-146.9,322.1-153.1"/>
						</g>
						<g id="g24_150_" transform="translate(29.457,19.2031)">
							<path id="path26_150_" fill="#664500" d="M324.2-153.2c0,0.1-1,2.3-3,2.3s-3-2.1-3-2.3s0-0.3,0.1-0.4c0.1-0.1,0.3-0.1,0.4,0
								c0,0,0.9,0.6,2.6,0.6s2.4-0.6,2.6-0.6h0.1c0.1,0,0.1,0,0.1,0.1C324.2-153.5,324.3-153.3,324.2-153.2"/>
						</g>
						<g id="g28_109_" transform="translate(17.457,19.2031)">
							<path id="path30_104_" fill="#664500" d="M328.1-153.2c0,0.1-1,2.3-3,2.3s-3-2.1-3-2.3s0-0.3,0.1-0.4c0.1-0.1,0.3-0.1,0.4,0
								c0,0,0.9,0.6,2.6,0.6c1.7,0,2.4-0.6,2.6-0.6h0.1c0.1,0,0.1,0,0.1,0.1C328.1-153.5,328.2-153.3,328.1-153.2"/>
						</g>
						<g id="g32_86_" transform="translate(32,20.9995)">
							<path id="path34_83_" fill="#664500" d="M323.4-153.9c-0.3,0-0.6,0.1-0.6,0.4c-1.1,3-4.3,3.7-4.3,3.7
								c-0.4,0.1-0.6,0.4-0.6,0.9c0.1,0.4,0.4,0.6,0.9,0.6c0.1,0,3.7-0.9,5.3-4.4c0.1-0.3,0-0.7-0.4-0.9
								C323.6-153.9,323.6-153.9,323.4-153.9"/>
						</g>
						<g id="g36_77_" transform="translate(5.9995,20.9995)">
							<path id="path38_77_" fill="#664500" d="M331.9-153.9c-0.1,0-0.1,0-0.3,0c-0.3,0.1-0.6,0.6-0.4,0.9c1.4,3.7,5.1,4.4,5.3,4.4
								c0.4,0.1,0.7-0.1,0.9-0.6c0.1-0.4-0.1-0.7-0.6-0.9c-0.1,0-3-0.7-4.3-3.7C332.3-153.7,332-153.9,331.9-153.9"/>
						</g>
						<g id="g40_79_" transform="translate(19,15)">
							<path id="path42_77_" fill="#664500" d="M327.6-151.9c-2.4,0-4.1,0.3-6.1,0.7c-0.4,0.1-1.3,0-1.3-1.3c0-2.7,3.1-6.1,7.4-6.1
								c4.3,0,7.4,3.4,7.4,6.1c0,1.3-0.9,1.4-1.3,1.3C331.7-151.6,330-151.9,327.6-151.9"/>
						</g>
						<g id="g44_61_" transform="translate(10,14)">
							<path id="path46_61_" fill="#FFFFFF" d="M330.6-151.6c0,0,2-0.7,6.1-0.7c4,0,6.1,0.7,6.1,0.7s-1.3-2.7-6.1-2.7
								C331.9-154.3,330.6-151.6,330.6-151.6"/>
						</g>
						<g id="g48_50_" transform="translate(11.8472,8.7705)">
							<path id="path50_50_" fill="#5DADEC" d="M329.9-149.8c-0.4-1.9-2.3-2.9-4.1-2.4c-1.9,0.4-2.9,2.3-2.4,4.1s4.3,5.9,5,5.7
								C328.9-142.7,330.4-148.1,329.9-149.8"/>
						</g>
						<g id="g52_49_" transform="translate(26.1328,8.7705)">
							<path id="path54_47_" fill="#5DADEC" d="M325.3-149.8c0.4-1.9,2.3-2.9,4.1-2.4c1.9,0.4,2.9,2.3,2.4,4.1s-4.3,5.9-5,5.7
								C326.2-142.7,324.9-148.1,325.3-149.8"/>
						</g>
					</g>
				</g>
			</g>
		</g>
	</g>
</g>
<g id="g10_150_" transform="matrix(1.25,0,0,-1.25,0,47.5)">
	<g id="g12_175_">
		<g>
			<g>
				<g>
					<g id="g14_177_">
						<g id="g20_161_" transform="translate(34.7988,36.9946)">
							<path id="path22_161_" fill="#99AAB5" d="M472.5-108.7c-0.3,0.1-5.4-2.7-6.7-6.1c-0.9-2-1.1-4.1-1.1-5.4
								c-1,0.6-2,0.9-2.9,0.9s-1.9-0.3-2.9-0.9c0,1.4-0.3,3.4-1.1,5.4c-1.3,3.4-6.4,6.3-6.7,6.1s2.9-10.9,4.7-14.1
								c-1.6-1.7-2.9-4-2.9-6.1c0-2.1,1.1-3.4,2.7-4c1.7-0.6,3.4,0.6,6.1,0.6s4.4-1.3,6.1-0.6c1.6,0.6,2.7,1.9,2.7,4
								c0,2.1-1.3,4.3-2.9,6.1C469.6-119.6,472.8-108.9,472.5-108.7"/>
						</g>
						<g id="g24_152_" transform="translate(13.6919,19.0781)">
							<path id="path26_152_" fill="#F4ABBA" d="M479.3-103c-0.1,1-0.4,2.4-1,3.7c-1,2.7-3.9,4.9-4.1,4.9c-0.3-0.1,1.7-6.9,3.3-10.1
								C478-103.8,478.6-103.4,479.3-103"/>
						</g>
						<g id="g28_110_" transform="translate(27.0303,16.9063)">
							<path id="path30_105_" fill="#F4ABBA" d="M475-102.2c1.4,3.1,3.4,10,3.3,10.1c-0.3,0.1-3-2.1-4.1-4.9c-0.6-1.4-0.9-2.7-1-3.7
								C473.7-101.2,474.4-101.6,475-102.2"/>
						</g>
						<g id="g32_87_" transform="translate(26,7)">
							<path id="path34_84_" fill="#CCD6DD" d="M475.3-99c0-1.9-2.1-3.4-4.6-3.4c-2.6,0-4.6,1.6-4.6,3.4c0,1.9,2.1,3.4,4.6,3.4
								C473.3-95.6,475.3-97.1,475.3-99"/>
						</g>
						<g id="g36_78_" transform="translate(22,6.4219)">
							<path id="path38_78_" fill="#FFFFFF" d="M476.6-98.8c0-1.9-0.1-2-2-2s-2,0.1-2,2C472.6-98.1,476.6-98.1,476.6-98.8"/>
						</g>
						<g id="g40_80_" transform="translate(15,12.6719)">
							<path id="path42_78_" fill="#292F33" d="M478.9-100.9c0-0.6-0.4-1-1-1s-1,0.4-1,1s0.4,1,1,1S478.9-100.3,478.9-100.9"/>
						</g>
						<g id="g44_62_" transform="translate(26,12.6719)">
							<path id="path46_62_" fill="#292F33" d="M475.3-100.9c0-0.6-0.4-1-1-1s-1,0.4-1,1s0.4,1,1,1S475.3-100.3,475.3-100.9"/>
						</g>
						<g id="g48_51_" transform="translate(22,11.1719)">
							<path id="path50_51_" fill="#F4ABBA" d="M476.6-100.4c0-1.1-1.3-2-2-2s-2,0.9-2,2C472.6-99.2,476.6-99.2,476.6-100.4"/>
						</g>
					</g>
				</g>
			</g>
		</g>
	</g>
</g>
<g id="g10_154_" transform="matrix(1.25,0,0,-1.25,0,47.5)">
	<g id="g12_178_">
		<g>
			<g>
				<g>
					<g id="g14_180_">
						<g id="g20_168_" transform="translate(18,19)">
							<path id="path22_168_" fill="#E1E8ED" d="M327.9-198.3c0-3.7-2.6-6.7-5.7-6.7c-3.1,0-5.7,3-5.7,6.7s2.6,6.7,5.7,6.7
								C325.3-191.6,327.9-194.6,327.9-198.3"/>
						</g>
						<g id="g24_155_" transform="translate(37,19)">
							<path id="path26_155_" fill="#E1E8ED" d="M321.9-198.3c0-3.7-2.6-6.7-5.7-6.7c-3.1,0-5.7,3-5.7,6.7s2.6,6.7,5.7,6.7
								C319.3-191.6,321.9-194.6,321.9-198.3"/>
						</g>
						<g id="g28_113_" transform="translate(9,15)">
							<path id="path30_107_" fill="#292F33" d="M330.9-197c0-1.1-0.9-2-2-2s-2,0.9-2,2s0.9,2,2,2C329.9-195,330.9-195.9,330.9-197"
								/>
						</g>
						<g id="g32_89_" transform="translate(28,15)">
							<path id="path34_86_" fill="#292F33" d="M324.7-197c0-1.1-0.9-2-2-2c-1.1,0-2,0.9-2,2s0.9,2,2,2
								C323.9-195,324.7-195.9,324.7-197"/>
						</g>
					</g>
				</g>
			</g>
		</g>
	</g>
</g>
<g id="g10_157_" transform="matrix(1.25,0,0,-1.25,0,47.5)">
	<g id="g12_181_">
		<g>
			<g>
				<g>
					<g id="g14_183_">
						<g id="g20_171_" transform="translate(18,19)">
							<path id="path22_171_" fill="#E1E8ED" d="M448-198.3c0-3.7-2.6-6.7-5.7-6.7s-5.7,3-5.7,6.7s2.6,6.7,5.7,6.7
								S448-194.6,448-198.3"/>
						</g>
						<g id="g24_158_" transform="translate(37,19)">
							<path id="path26_158_" fill="#E1E8ED" d="M441.9-198.3c0-3.7-2.6-6.7-5.7-6.7s-5.7,3-5.7,6.7s2.6,6.7,5.7,6.7
								S441.9-194.6,441.9-198.3"/>
						</g>
						<g id="g28_116_" transform="translate(9,15)">
							<path id="path30_110_" fill="#292F33" d="M450.9-197c0-1.1-0.9-2-2-2s-2,0.9-2,2s0.9,2,2,2S450.9-195.9,450.9-197"/>
						</g>
						<g id="g32_92_" transform="translate(28,15)">
							<path id="path34_89_" fill="#292F33" d="M444.9-197c0-1.1-0.9-2-2-2s-2,0.9-2,2s0.9,2,2,2C443.9-195,444.9-195.9,444.9-197"
								/>
						</g>
					</g>
				</g>
			</g>
		</g>
	</g>
</g>
<g id="g10_149_" transform="matrix(1.25,0,0,-1.25,0,47.5)">
	<g id="g12_174_">
		<g>
			<g>
				<g>
					<g id="g14_176_">
						<g id="g20_160_" transform="translate(23.4941,31.6558)">
							<path id="path22_160_" fill="#DD2E44" d="M446.2-107c-0.4,0-0.9,0-1.3-0.1c-0.6,0-1.9,0.1-2.4,0.1c-5.7,0-10.7-2.1-10.7-9.7
								c0-6.1,4.7-11.1,11.6-11.1c6.7,0,12.1,5,12.1,11.1C455.4-109,449.1-107,446.2-107"/>
						</g>
						<g id="g24_151_" transform="translate(9.439,36.9087)">
							<path id="path26_151_" fill="#77B255" d="M450.8-108.6c1.1-1.1,1.9-1.6,2.3-3.3c0.1-1,1.6-1,1.6-1s-2.7-1.1-3.7-2.3
								c0,0,3.3,1.1,4.4,1.1c0,0,2.3-1.1,2.3-2.3c0,0,0,2.3-1.1,2.3c0,0,3.3,0,3.3-2.3c0,0,0,3.3-1.1,3.3c0,0,3.3,1.1,4.4,0
								c0,0-1.1,1.1-3.3,1.1c0,0,1.1,1.1,3.3,1.1c0,0-3.6,1-4.7-1.1c0,0-1,1,1,2.9c0,0-2.9-0.6-2.9-2.7c0,0-1,0-1.9,0.9
								C453-109.5,450.8-108.6,450.8-108.6"/>
						</g>
					</g>
				</g>
			</g>
		</g>
	</g>
</g>
<g id="g10_159_" transform="matrix(1.25,0,0,-1.25,0,47.5)">
	<g id="g12_183_">
		<g>
			<g>
				<g>
					<g id="g14_185_">
						<g id="g20_173_" transform="translate(35.751,15)">
							<path id="path22_173_" fill="#77B255" d="M382.2-101.6c-2.3,0-8-2.4-10.7-4.9v8.3c0,0.4-0.3,0.7-0.7,0.7s-0.7-0.3-0.7-0.7
								v-8.4c-2.6,2.4-8.4,5-10.9,5c-0.6,0,7.4-9.4,10.9-8.6v-0.3c0-0.4,0.3-0.7,0.7-0.7s0.7,0.3,0.7,0.7v0.3
								C375-110.9,382.8-101.6,382.2-101.6"/>
						</g>
						<g id="g24_160_" transform="translate(26,23.5835)">
							<path id="path26_160_" fill="#EA596E" d="M385.3-104.3c0-4.3-1.1-6.4-4.7-6.4s-4.7,2.1-4.7,6.4s3.4,9.1,4.7,9.1
								C381.9-95.2,385.3-100,385.3-104.3"/>
						</g>
						<g id="g28_118_" transform="translate(23.7949,35)">
							<path id="path30_111_" fill="#F4ABBA" d="M386.1-108c-0.3,0-2.7-9.7-3.3-13c-0.6,3.4-3,13-3.4,13c-0.7,0-4-6.1-4-8.9
								c0-2.7,3.9-5.4,7.4-5.4s7.3,2.7,7.3,5.4C390.1-114.1,386.8-108,386.1-108"/>
						</g>
					</g>
				</g>
			</g>
		</g>
	</g>
</g>
<g id="g10_146_" transform="matrix(1.25,0,0,-1.25,0,47.5)">
	<g id="g12_171_">
		<g>
			<g>
				<g>
					<g id="g14_173_">
						<g id="g20_157_" transform="translate(35.751,15)">
							<path id="path22_157_" fill="#77B255" d="M502.2-151.9c-2.3,0-8-2.4-10.7-4.9v8.3c0,0.4-0.3,0.7-0.7,0.7
								c-0.4,0-0.7-0.3-0.7-0.7v-8.4c-2.6,2.4-8.4,5-10.9,5c-0.6,0,7.4-9.4,10.9-8.6v-0.3c0-0.4,0.3-0.7,0.7-0.7
								c0.4,0,0.7,0.3,0.7,0.7v0.3C495-161.1,502.8-151.9,502.2-151.9"/>
						</g>
						<g id="g24_148_" transform="translate(26,23.5835)">
							<path id="path26_148_" fill="#EA596E" d="M505.3-154.6c0-4.3-1.1-6.4-4.7-6.4s-4.7,2.1-4.7,6.4c0,4.3,3.4,9.1,4.7,9.1
								C501.9-145.6,505.3-150.3,505.3-154.6"/>
						</g>
						<g id="g28_107_" transform="translate(23.7949,35)">
							<path id="path30_102_" fill="#F4ABBA" d="M506.1-158.3c-0.3,0-2.7-9.7-3.3-13c-0.6,3.4-3,13-3.4,13c-0.7,0-4-6.1-4-8.9
								c0-2.7,3.9-5.4,7.4-5.4c3.6,0,7.3,2.7,7.3,5.4C510.1-164.4,506.8-158.3,506.1-158.3"/>
						</g>
					</g>
				</g>
			</g>
		</g>
	</g>
</g>
<g id="g10_156_" transform="matrix(1.25,0,0,-1.25,0,47.5)">
	<g id="g12_180_">
		<g>
			<g>
				<g>
					<g id="g14_182_">
						<g id="g20_170_" transform="translate(2.7266,14.7012)">
							<path id="path22_170_" fill="#FFAC33" d="M422.9-197.1c0,0-0.9,0.9,0,1.9c0.9,0.9,1.9,0,1.9,0l4.3-4l0.3,0.6l-6,5.6
								c0,0-0.9,0.9,0,1.9s1.9,0,1.9,0l5.6-5.1l0.4,0.4l-6.6,6c0,0-0.9,0.9,0,1.9c0.9,0.9,1.9,0,1.9,0l6.6-6l0.4,0.4l-6.1,5.7
								c0,0-0.9,0.9,0,1.9c0.9,0.9,1.9,0,1.9,0s4.6-4.1,6.4-6c1.9-1.7,2.3-1.3,2.3-1.3l-1.7,1.6l-2,1.9c0,0-0.9,0.9,0,1.9
								c0.9,0.9,1.9,0,1.9,0l5.1-4.7c3.1-2.9,3.3-7.7,0.4-10.7c-2.9-3.1-7.7-3.3-10.7-0.4c-0.1,0.1-0.4,0.4-0.4,0.4l0,0L422.9-197.1
								z"/>
						</g>
						<g id="g24_157_" transform="translate(5.627,16.6504)">
							<path id="path26_157_" fill="#FFDC5D" d="M422-197.7c0,0-0.9,0.9,0,1.9s1.9,0,1.9,0l4.3-4l0.3,0.6l-6,5.6c0,0-0.9,0.9,0,1.9
								c0.9,0.9,1.9,0,1.9,0l5.6-5.1l0.4,0.4l-6.6,6c0,0-0.9,0.9,0,1.9s1.9,0,1.9,0l6.6-6l0.4,0.4l-6.1,5.7c0,0-0.9,0.9,0,1.9
								c0.9,0.9,1.9,0,1.9,0s4.6-4.1,6.4-6c1.9-1.7,2.3-1.3,2.3-1.3l-1.7,1.6l-2,1.9c0,0-0.9,0.9,0,1.9c0.9,0.9,1.9,0,1.9,0l5.1-4.7
								c3.1-2.9,3.3-7.7,0.4-10.7c-2.9-3.1-7.7-3.3-10.7-0.4c-0.1,0.1-0.4,0.4-0.4,0.4l0,0L422-197.7z"/>
						</g>
						<g id="g28_115_" transform="translate(25.541,30.5415)">
							<path id="path30_109_" fill="#FFAC33" d="M415.2-202.5c-0.1,0-0.3,0-0.4,0.1c-0.3,0.3-0.3,0.7-0.1,1l2,2.6
								c0.3,0.3,0.6,0.3,1,0.1c0.3-0.3,0.3-0.6,0.1-1l-2-2.6C415.7-202.3,415.5-202.5,415.2-202.5"/>
						</g>
						<g id="g32_91_" transform="translate(20,30)">
							<path id="path34_88_" fill="#FFAC33" d="M417.1-202.3c-0.4,0-0.7,0.3-0.7,0.7v3.3c0,0.4,0.3,0.7,0.7,0.7
								c0.4,0,0.7-0.3,0.7-0.7v-3.3C417.9-202,417.6-202.3,417.1-202.3"/>
						</g>
						<g id="g36_82_" transform="translate(29.417,27.333)">
							<path id="path38_82_" fill="#FFAC33" d="M414-201.3c-0.3,0-0.6,0.1-0.6,0.4c-0.1,0.3,0,0.7,0.4,0.9l3,1.1
								c0.3,0.1,0.7,0,0.9-0.4c0.1-0.3,0-0.7-0.4-0.9l-3-1.1C414.2-201.3,414-201.3,414-201.3"/>
						</g>
					</g>
				</g>
			</g>
		</g>
	</g>
</g>
<g id="g10_144_" transform="matrix(1.25,0,0,-1.25,0,47.5)">
	<g id="g12_169_">
		<g>
			<g>
				<g>
					<g id="g14_171_">
						<g id="g20_155_" transform="translate(21.1426,4.7852)">
							<path id="path22_155_" fill="#E1E8ED" d="M326.9-98.4c0-0.9-0.7-1.4-1.4-1.4c-0.9,0-1.4,0.7-1.4,1.4c0,0.9,0.7,1.4,1.4,1.4
								C326.2-96.8,326.9-97.5,326.9-98.4"/>
						</g>
						<g id="g24_146_" transform="translate(28.6426,21.3569)">
							<path id="path26_146_" fill="#E1E8ED" d="M324.6-103.7c0,3.6-2.9,6.6-6.6,6.6c-3.6,0-6.6-2.9-6.6-6.6
								c0-3.6-0.7-11.3-0.7-11.3c0-0.9,0.7-1.4,1.4-1.4c0.9,0,1.4,0.7,1.4,1.4c0-0.9,0.7-1.4,1.4-1.4c0.9,0,1.4,0.7,1.4,1.4h2.9
								c0-0.9,0.7-1.4,1.4-1.4c0.9,0,1.4,0.7,1.4,1.4c0-0.9,0.7-1.4,1.4-1.4c0.9,0,1.4,0.7,1.4,1.4
								C325.3-114.8,324.6-107.3,324.6-103.7"/>
						</g>
						<g id="g28_105_" transform="translate(21,34)">
							<path id="path30_100_" fill="#DD2E44" d="M327-107.7c0-1.4-1-4-1.3-4c-0.4,0-1.3,2.6-1.3,4s1,2,1.3,2
								C326-105.7,327-106.3,327-107.7"/>
						</g>
						<g id="g32_84_" transform="translate(16.6348,4)">
							<path id="path34_81_" fill="#DD2E44" d="M328.4-98c0,1.7,1.1,5.4,1.6,5.4s1.6-3.7,1.6-5.4s-1.1-2-1.6-2
								C329.6-100.1,328.4-99.9,328.4-98"/>
						</g>
						<g id="g36_75_" transform="translate(26,14.5)">
							<path id="path38_75_" fill="#F4900C" d="M325.3-101.5c0-1-3.3-3-4.7-3s-4.7,2-4.7,3s3.3,3,4.7,3
								C322.1-98.4,325.3-100.5,325.3-101.5"/>
						</g>
						<g id="g40_77_" transform="translate(26,14.5)">
							<path id="path42_75_" fill="#FFAC33" d="M325.3-101.5c0-1-9.4-1-9.4,0s3.3,3,4.7,3C322.1-98.4,325.3-100.5,325.3-101.5"/>
						</g>
						<g id="g44_59_" transform="translate(14,18.5)">
							<path id="path46_59_" fill="#292F33" d="M329.1-102.8c0-0.6-0.4-1-1-1s-1,0.4-1,1s0.4,1,1,1S329.1-102.2,329.1-102.8"/>
						</g>
						<g id="g48_48_" transform="translate(27,18.5)">
							<path id="path50_48_" fill="#292F33" d="M325-102.8c0-0.6-0.4-1-1-1s-1,0.4-1,1s0.4,1,1,1S325-102.2,325-102.8"/>
						</g>
					</g>
				</g>
			</g>
		</g>
	</g>
</g>
<g id="g10_155_" transform="matrix(1.25,0,0,-1.25,0,47.5)">
	<g id="g12_179_">
		<g>
			<g>
				<g>
					<g id="g14_181_">
						<g id="g20_169_" transform="translate(27,28.0005)">
							<path id="path22_169_" fill="#292F33" d="M356.6-201.3c-2.4,0-4.3,1.1-5.4,3.3c-1.1-2.1-2.7-3.3-4.7-3.3
								c-0.4,0-0.7,0.3-0.7,0.7s0.3,0.7,0.7,0.7c1.9,0,3.3,1.3,4.1,4c0.1,0.3,0.3,0.4,0.7,0.4s0.6-0.1,0.7-0.4c0.9-2.7,2.4-4,4.7-4
								c0.4,0,0.7-0.3,0.7-0.7C357.3-201,357-201.3,356.6-201.3"/>
						</g>
						<g id="g24_156_" transform="translate(15.604,27.3462)">
							<path id="path26_156_" fill="#FFAC33" d="M360.3-201c2.3-2.3,0.3-4-2-6.3c-2.3-2.3-4-4.3-6.3-2c-2.3,2.3-2.3,6,0,8.3
								C354.3-198.7,358-198.7,360.3-201"/>
						</g>
						<g id="g28_114_" transform="translate(16.4351,26.0278)">
							<path id="path30_108_" fill="#BE1931" d="M359.9-200.6c1.1-1.1,0.1-3.7-2-5.9c-2.1-2.1-4.9-3.1-5.9-2c-1.1,1.1-0.1,3.7,2,5.9
								C356.2-200.4,358.9-199.6,359.9-200.6"/>
						</g>
						<g id="g32_90_" transform="translate(22.2988,27.3462)">
							<path id="path34_87_" fill="#FFAC33" d="M358.1-201c-2.3-2.3-0.3-4,2-6.3c2.3-2.3,4-4.3,6.3-2c2.3,2.3,2.3,6,0,8.3
								C364-198.7,360.4-198.7,358.1-201"/>
						</g>
						<g id="g36_81_" transform="translate(21.4688,26.0278)">
							<path id="path38_81_" fill="#BE1931" d="M358.3-200.6c-1.1-1.1-0.1-3.7,2-5.9c2.1-2.1,4.9-3.1,5.9-2c1.1,1.1,0.1,3.7-2,5.9
								C362.1-200.4,359.3-199.6,358.3-200.6"/>
						</g>
						<g id="g40_83_" transform="translate(23.4102,18.7793)">
							<path id="path42_81_" fill="#AA8DD8" d="M357.7-198.2c0.1,0.1,0.3,0.1,0.4,0.1c0.6,0,1.1-0.3,1.4-0.6
								c0.4-0.3,0.6-0.9,0.4-1.3c-0.1-0.9-0.9-1.6-2.3-1.4c-0.6,0-0.7-0.1-0.7-0.1c0-0.1,0.1-0.3,0.7-0.4c0.6,0,1.1-0.3,1.4-0.6
								c0.4-0.3,0.6-0.9,0.4-1.3c-0.1-0.9-0.9-1.6-2.3-1.4c-0.4,0-0.6,0-0.7-0.1l-0.1-0.1c0-0.1,0.1-0.3,0.7-0.4
								c0.4,0,0.6-0.4,0.6-0.7c0-0.4-0.4-0.6-0.7-0.6c-1.4,0.1-2,1-1.9,1.9s0.9,1.6,2.3,1.4c0.4,0,0.6,0,0.7,0.1l0.1,0.1
								c0,0.1-0.1,0.3-0.7,0.4c-1.4,0.1-2,1-1.9,1.9s0.9,1.6,2.3,1.4c0.4,0,0.6,0,0.7,0.1l0.1,0.1c0,0.1-0.1,0.3-0.7,0.4
								c-0.4,0-0.6,0.4-0.6,0.7C357.5-198.5,357.6-198.4,357.7-198.2"/>
						</g>
						<g id="g44_64_" transform="translate(16.2661,1.0146)">
							<path id="path46_64_" fill="#77B255" d="M360-192.6c-1.3-0.4-2.3,0.3-2.4,1c-0.3,0.7,0.3,1.7,1.6,2.1
								c0.6,0.1,0.7,0.4,0.7,0.4c0,0.1-0.3,0.1-0.9,0c-1.3-0.4-2.3,0.3-2.4,1c-0.3,0.7,0.3,1.7,1.6,2.1c0.6,0.1,0.7,0.4,0.7,0.4
								c0,0.1-0.3,0.1-0.9,0c-0.4-0.1-0.7,0.1-0.9,0.4c-0.1,0.4,0.1,0.7,0.4,0.9c1.3,0.4,2.3-0.3,2.4-1c0.3-0.7-0.3-1.7-1.6-2.1
								c-0.6-0.1-0.7-0.4-0.7-0.4c0-0.1,0.3-0.1,0.9,0c1.3,0.4,2.3-0.3,2.4-1c0.3-0.7-0.3-1.7-1.6-2.1c-0.6-0.1-0.7-0.4-0.7-0.4
								c0-0.1,0.3-0.1,0.9,0c0.4,0.1,0.7-0.1,0.9-0.4C360.5-192.1,360.4-192.4,360-192.6"/>
						</g>
						<g id="g48_53_" transform="translate(2,9.5)">
							<path id="path50_53_" fill="#5C913B" d="M364.6-195.2c0,0.6,0.4,1,1,1s1-0.4,1-1s-0.4-1-1-1
								C365-196.4,364.6-195.8,364.6-195.2"/>
						</g>
						<g id="g52_51_" transform="translate(6,6)">
							<path id="path54_49_" fill="#9266CC" d="M363.3-194.1c0,0.7,0.6,1.3,1.3,1.3s1.3-0.6,1.3-1.3s-0.6-1.3-1.3-1.3
								C363.9-195.6,363.3-194.9,363.3-194.1"/>
						</g>
						<g id="g56_36_" transform="translate(29,10)">
							<path id="path58_36_" fill="#9266CC" d="M355.9-195.4c0,0.7,0.6,1.3,1.3,1.3c0.7,0,1.3-0.6,1.3-1.3s-0.6-1.3-1.3-1.3
								C356.6-196.9,355.9-196.1,355.9-195.4"/>
						</g>
						<g id="g60_48_" transform="translate(25,5.5)">
							<path id="path62_41_" fill="#5C913B" d="M357.1-193.9c0,0.6,0.4,1,1,1s1-0.4,1-1s-0.4-1-1-1
								C357.7-195.1,357.1-194.5,357.1-193.9"/>
						</g>
						<g id="g64_24_" transform="translate(17,17.5)">
							<path id="path66_24_" fill="#5C913B" d="M359.7-197.8c0,0.6,0.4,1,1,1c0.6,0,1-0.4,1-1s-0.4-1-1-1
								C360.1-198.8,359.7-198.4,359.7-197.8"/>
						</g>
						<g id="g68_24_" transform="translate(6,14)">
							<path id="path70_24_" fill="#FFCC4D" d="M363.3-196.7c0,0.7,0.6,1.3,1.3,1.3s1.3-0.6,1.3-1.3s-0.6-1.3-1.3-1.3
								C363.9-198.1,363.3-197.4,363.3-196.7"/>
						</g>
						<g id="g72_22_" transform="translate(27,20.5)">
							<path id="path74_22_" fill="#FFCC4D" d="M356.6-198.8c0,0.6,0.4,1,1,1s1-0.4,1-1s-0.4-1-1-1S356.6-199.4,356.6-198.8"/>
						</g>
						<g id="g76_20_" transform="translate(12,22.5)">
							<path id="path78_20_" fill="#FFCC4D" d="M361.4-199.5c0,0.6,0.4,1,1,1s1-0.4,1-1s-0.4-1-1-1
								C361.9-200.5,361.4-200.1,361.4-199.5"/>
						</g>
					</g>
				</g>
			</g>
		</g>
	</g>
</g>
<g id="g10_22_" transform="matrix(1.25,0,0,-1.25,0,47.5)">
	<g id="g12_49_">
		<g>
			<g>
				<g>
					<g id="g14_49_">
						<g id="g20_37_" transform="translate(12.9829,33.438)">
							<path id="path22_37_" fill="#FFAC33" d="M389.6-157.8c3.1,0.1,5.3-1.1,5.4-4.6c0.1-2.9-3.6-4.6-5.4-4.7
								c-1.7,0-0.9,1.3,0.4,1.6c1,0.3,2.9,1.6,2.4,3c-0.4,1.6-2.9,1.9-4.3-0.1c-0.6-0.9-2.4-0.6-2.7,0.3
								C384.7-160.8,386.1-158,389.6-157.8"/>
						</g>
						<g id="g24_28_" transform="translate(36.75,15.6162)">
							<path id="path26_28_" fill="#E1E8ED" d="M381.9-152c0,5.3-3,7.7-9.9,7.7c-0.7,0-1.4,0-2-0.1c-0.9,1.6-3.3,1.9-5.6,1.9
								c-2.9,0-6.7-4.1-6.7-7.3s2.4-3.3,5.3-3.3c0.1-2.1,0.9-3.9,2.1-4.9c0.1-0.7,1-3.9,2.7-3.9c0.9,0,1.4,1.1,1.7,2.3
								c0.7-0.1,1.6-0.1,2.6-0.1c1.1,0,2.3,0.1,3.1,0.3c0-1.1,0.4-2.4,1.4-2.4c1.6,0,2.9,3.4,3.3,4.4
								C381.2-156.3,381.9-154.5,381.9-152"/>
						</g>
						<g id="g28_37_" transform="translate(7,21.2139)">
							<path id="path30_28_" fill="#292F33" d="M391.4-153.9c0-0.6-0.4-1-1-1s-1,0.4-1,1s0.4,1,1,1S391.4-153.3,391.4-153.9"/>
						</g>
						<g id="g32_60_" transform="translate(18.5625,32.6611)">
							<path id="path34_19_" fill="#FFCC4D" d="M387.7-157.6c2.9-1,3.9-2.9,2.7-6.1c-0.9-2.7-5-3-6.9-2.3c-1.6,0.6-0.4,1.6,1,1.3
								c1.1-0.1,3.1,0.4,3.4,1.9c0.1,1.6-2,2.7-4,1.4c-0.9-0.6-3.9-0.3-3.7,0.7C380.7-158.6,384.5-156.4,387.7-157.6"/>
						</g>
					</g>
				</g>
			</g>
		</g>
	</g>
</g>
<g id="g10_153_" transform="matrix(1.25,0,0,-1.25,0,47.5)">
	<g id="g12_177_">
		<g>
			<g>
				<g>
					<g id="g14_179_">
						<g id="g20_163_" transform="translate(36,19)">
							<path id="path22_163_" fill="#FDCB58" d="M472.1-153.1c0-6.4-5.1-11.6-11.6-11.6c-6.4,0-11.6,5.1-11.6,11.6
								c0,6.4,5.1,11.6,11.6,11.6C467-141.7,472.1-146.9,472.1-153.1"/>
						</g>
						<g id="g24_154_" transform="translate(7,24)">
							<path id="path26_154_" fill="#664500" d="M481.4-154.7c-0.4,0-0.7,0.3-0.7,0.7s0.3,0.7,0.7,0.7c0.1,0,2.4,0,4.1,2.4
								c0.3,0.3,0.7,0.4,1,0.1c0.3-0.3,0.4-0.7,0.1-1C484.6-154.7,481.6-154.7,481.4-154.7"/>
						</g>
						<g id="g28_112_" transform="translate(31,24)">
							<path id="path30_106_" fill="#664500" d="M473.7-154.7c-0.1,0-3.1,0-5.3,3c-0.3,0.3-0.1,0.7,0.1,1s0.7,0.1,1-0.1
								c1.9-2.4,4.1-2.4,4.1-2.4c0.4,0,0.7-0.3,0.7-0.7S474.1-154.7,473.7-154.7"/>
						</g>
						<g id="g32_88_" transform="translate(31.5996,16.7998)">
							<path id="path34_85_" fill="#664500" d="M473.5-152.5c-0.1,0-1.3,1-3.1,1.6c0,0.1,0,0.1,0,0.3c0,0.3-0.1,0.4-0.3,0.7
								c1.3,0.3,2.3,0.4,2.3,0.4c0.4,0,0.7,0.3,0.7,0.7s-0.3,0.7-0.7,0.7c-0.1,0-3.7,0-5.9-2.3c-0.1-0.1-0.3-0.4-0.1-0.7
								c0.1-0.3,0.3-0.4,0.6-0.4c3.1,0,5.7-1.9,5.7-1.9c0.1-0.1,0.3-0.1,0.4-0.1s0.4,0.1,0.6,0.3
								C473.8-153.1,473.8-152.7,473.5-152.5"/>
						</g>
						<g id="g36_80_" transform="translate(16.707,19.707)">
							<path id="path38_80_" fill="#664500" d="M478.3-153.4c-2.1,2.1-5.7,2.3-5.9,2.3c-0.4,0-0.7-0.3-0.7-0.7s0.3-0.7,0.7-0.7
								c0,0,1,0,2.3-0.4c-0.1-0.1-0.3-0.4-0.3-0.7c0-0.1,0-0.1,0-0.3c-1.9-0.6-3.1-1.6-3.1-1.6c-0.3-0.3-0.4-0.7-0.1-1
								c0.1-0.1,0.3-0.3,0.6-0.3c0.1,0,0.3,0,0.4,0.1c0,0,2.6,1.9,5.7,1.9c0.3,0,0.6,0.1,0.6,0.4
								C478.6-153.8,478.4-153.6,478.3-153.4"/>
						</g>
						<g id="g40_82_" transform="translate(19,7)">
							<path id="path42_80_" fill="#664500" d="M477.6-149.3c-0.1,0-0.4,0.1-0.6,0.3l-2.1,2.7l-1.6-2c-0.1-0.1-0.3-0.3-0.4-0.3
								s-0.4,0-0.6,0.1l-0.7,0.7c-0.3,0.3-0.3,0.7,0,1s0.7,0.3,1,0l0.1-0.1l1.6,2.1c0.1,0.1,0.3,0.3,0.6,0.3c0.1,0,0.4-0.1,0.6-0.3
								l2.1-2.7l2.1,2.7c0.1,0.1,0.3,0.3,0.6,0.3c0.1,0,0.4-0.1,0.6-0.3l1.6-2.1l0.1,0.1c0.3,0.3,0.7,0.3,1,0s0.3-0.7,0-1l-0.7-0.7
								c-0.1-0.1-0.3-0.1-0.6-0.1c-0.1,0-0.4,0.1-0.4,0.3l-1.6,2l-2.1-2.7C478-149.1,477.7-149.3,477.6-149.3"/>
						</g>
					</g>
				</g>
			</g>
		</g>
	</g>
</g>
<g id="g10_20_" transform="matrix(1.25,0,0,-1.25,0,47.5)">
	<g id="g12_47_">
		<g>
			<g>
				<g>
					<g id="g14_47_">
						<g id="g20_35_" transform="translate(36.8848,25.1665)">
							<path id="path22_35_" fill="#BE1931" d="M411.7-155.4c0,3.7-3,6.6-6.6,6.6c-2.3,0-4.1-1.1-5.4-2.7c-1.1,1.7-3.1,2.7-5.4,2.7
								c-3.7,0-6.6-3-6.6-6.6c0-0.6,0-1,0.1-1.6c0.9-5.7,7.3-11.7,11.9-13.4c4.6,1.7,10.9,7.7,11.9,13.4
								C411.7-156.4,411.7-155.8,411.7-155.4"/>
						</g>
					</g>
				</g>
			</g>
		</g>
	</g>
</g>
<g id="g10_152_" transform="matrix(1.25,0,0,-1.25,0,47.5)">
	<g id="g12_176_">
		<g>
			<g>
				<g>
					<g id="g14_178_">
						<g id="g20_162_" transform="translate(19,33)">
							<path id="path22_162_" fill="#F4900C" d="M447.6-157.9c4.9,0,8.7-2.7,9.9-1.3c0.1,0.3,0.1,0.4,0.1,0.7
								c0,1.3-4.6,3.4-10.1,3.4c-5.6,0-10.1-2-10.1-3.4c0-0.3,0-0.4,0.1-0.7C438.9-160.6,442.7-157.9,447.6-157.9"/>
						</g>
						<g id="g24_153_" transform="translate(19,34)">
							<path id="path26_153_" fill="#FFCC4D" d="M447.6-158.1c-4.1,0-7.1-1.3-8.3-1.7c-0.3-0.1-0.4-0.6-0.3-0.9
								c0.1-0.3,7.1-18.3,7.1-18.3s0.6-1.3,1.3-1.3c0.7,0,1.3,1.3,1.3,1.3l7.1,18.3c0,0,0.1,0.6-0.4,0.9
								C454.6-159.3,451.7-158.1,447.6-158.1"/>
						</g>
					</g>
				</g>
			</g>
		</g>
	</g>
	<g id="g28_111_">
		<g>
			<g>
				<g>
					<g>
						<g>
							<g>
								<defs>
									<path id="SVGID_1_" d="M458.3-126c-0.3-0.1-0.4-0.6-0.3-0.9l0,0c0.1-0.3,7.1-18.3,7.1-18.3l0,0c0,0,0.7-1.3,1.3-1.3l0,0
										c0.7,0,1.3,1.3,1.3,1.3l0,0l7.1,18.3c0,0,0.1,0.6-0.4,0.9l0,0c-1.1,0.6-4.1,1.7-8.1,1.7l0,0
										C462.4-124.1,459.4-125.4,458.3-126"/>
								</defs>
								<clipPath id="SVGID_2_">
									<use xlink:href="#SVGID_1_"  overflow="visible"/>
								</clipPath>
								<g id="g30_3_" clip-path="url(#SVGID_2_)">
									<g id="g36_79_" transform="translate(19,6)">
										<path id="path38_79_" fill="#BE1931" d="M447.6-149c0-1.4-1.1-2.7-2.7-2.7s-2.7,1.1-2.7,2.7c0,1.4,1.1,2.7,2.7,2.7
											C446.4-146.3,447.6-147.6,447.6-149"/>
									</g>
									<g id="g40_81_" transform="translate(18,17)">
										<path id="path42_79_" fill="#BE1931" d="M447.9-152.6c0-1.4-1.1-2.7-2.7-2.7c-1.4,0-2.7,1.1-2.7,2.7
											c0,1.4,1.1,2.7,2.7,2.7C446.7-150,447.9-151.1,447.9-152.6"/>
									</g>
									<g id="g44_63_" transform="translate(21,29)">
										<path id="path46_63_" fill="#BE1931" d="M446.9-156.6c0-1.4-1.1-2.7-2.7-2.7c-1.4,0-2.7,1.1-2.7,2.7s1.1,2.7,2.7,2.7
											C445.7-153.9,446.9-155.1,446.9-156.6"/>
									</g>
									<g id="g48_52_" transform="translate(30,24)">
										<path id="path50_52_" fill="#BE1931" d="M444-154.9c0-1.4-1.1-2.7-2.7-2.7s-2.7,1.1-2.7,2.7c0,1.4,1.1,2.7,2.7,2.7
											C442.9-152.1,444-153.4,444-154.9"/>
									</g>
									<g id="g52_50_" transform="translate(28,12)">
										<path id="path54_48_" fill="#BE1931" d="M444.6-151c0-1.4-1.1-2.7-2.7-2.7s-2.7,1.1-2.7,2.7c0,1.4,1.1,2.7,2.7,2.7
											C443.4-148.3,444.6-149.6,444.6-151"/>
									</g>
									<g id="g56_35_" transform="translate(11,25)">
										<path id="path58_35_" fill="#BE1931" d="M450.1-155.3c0-1.4-1.1-2.7-2.7-2.7c-1.4,0-2.7,1.1-2.7,2.7
											c0,1.4,1.1,2.7,2.7,2.7S450.1-153.7,450.1-155.3"/>
									</g>
								</g>
							</g>
						</g>
					</g>
				</g>
			</g>
		</g>
	</g>
</g>
<g id="g10_158_" transform="matrix(1.25,0,0,-1.25,0,47.5)">
	<g id="g12_182_">
		<g>
			<g>
				<g>
					<g id="g14_184_">
						<g id="g20_172_" transform="translate(19,33)">
							<path id="path22_172_" fill="#F4900C" d="M477.4-203c4.9,0,8.7-2.7,9.9-1.3c0.1,0.3,0.1,0.4,0.1,0.7c0,1.3-4.6,3.4-10.1,3.4
								c-5.6,0-10.1-2-10.1-3.4c0-0.3,0-0.4,0.1-0.7C468.7-205.7,472.6-203,477.4-203"/>
						</g>
						<g id="g24_159_" transform="translate(19,34)">
							<path id="path26_159_" fill="#FFCC4D" d="M477.4-203.4c-4.1,0-7.1-1.3-8.3-1.7c-0.3-0.1-0.4-0.6-0.3-0.9
								c0.1-0.3,7.1-18.3,7.1-18.3s0.6-1.3,1.3-1.3s1.3,1.3,1.3,1.3l7.1,18.3c0,0,0.1,0.6-0.4,0.9
								C484.4-204.4,481.6-203.4,477.4-203.4"/>
						</g>
					</g>
				</g>
			</g>
		</g>
	</g>
	<g id="g28_117_">
		<g>
			<g>
				<g>
					<g>
						<g>
							<g>
								<defs>
									<path id="SVGID_3_" d="M488.3-171.1c-0.3-0.1-0.4-0.6-0.3-0.9l0,0c0.1-0.3,7.1-18.3,7.1-18.3l0,0c0,0,0.7-1.3,1.3-1.3l0,0
										c0.7,0,1.3,1.3,1.3,1.3l0,0l7.1,18.3c0,0,0.1,0.6-0.4,0.9l0,0c-1.1,0.6-4.1,1.7-8.1,1.7l0,0
										C492.3-169.4,489.3-170.6,488.3-171.1"/>
								</defs>
								<clipPath id="SVGID_4_">
									<use xlink:href="#SVGID_3_"  overflow="visible"/>
								</clipPath>
								<g id="g30_4_" clip-path="url(#SVGID_4_)">
									<g id="g36_83_" transform="translate(19,6)">
										<path id="path38_83_" fill="#BE1931" d="M477.4-194.1c0-1.4-1.1-2.7-2.7-2.7c-1.4,0-2.7,1.1-2.7,2.7s1.1,2.7,2.7,2.7
											S477.4-192.7,477.4-194.1"/>
									</g>
									<g id="g40_84_" transform="translate(18,17)">
										<path id="path42_82_" fill="#BE1931" d="M477.9-197.9c0-1.4-1.1-2.7-2.7-2.7c-1.4,0-2.7,1.1-2.7,2.7
											c0,1.4,1.1,2.7,2.7,2.7C476.6-195.1,477.9-196.3,477.9-197.9"/>
									</g>
									<g id="g44_65_" transform="translate(21,29)">
										<path id="path46_65_" fill="#BE1931" d="M476.9-201.7c0-1.4-1.1-2.7-2.7-2.7c-1.4,0-2.7,1.1-2.7,2.7
											c0,1.4,1.1,2.7,2.7,2.7C475.6-199,476.9-200.3,476.9-201.7"/>
									</g>
									<g id="g48_54_" transform="translate(30,24)">
										<path id="path50_54_" fill="#BE1931" d="M473.9-200.1c0-1.4-1.1-2.7-2.7-2.7s-2.7,1.1-2.7,2.7c0,1.4,1.1,2.7,2.7,2.7
											C472.7-197.4,473.9-198.6,473.9-200.1"/>
									</g>
									<g id="g52_52_" transform="translate(28,12)">
										<path id="path54_50_" fill="#BE1931" d="M474.6-196.1c0-1.4-1.1-2.7-2.7-2.7s-2.7,1.1-2.7,2.7c0,1.4,1.1,2.7,2.7,2.7
											C473.4-193.4,474.6-194.7,474.6-196.1"/>
									</g>
									<g id="g56_37_" transform="translate(11,25)">
										<path id="path58_37_" fill="#BE1931" d="M480.1-200.4c0-1.4-1.1-2.7-2.7-2.7c-1.4,0-2.7,1.1-2.7,2.7
											c0,1.4,1.1,2.7,2.7,2.7C478.9-197.7,480.1-198.9,480.1-200.4"/>
									</g>
								</g>
							</g>
						</g>
					</g>
				</g>
			</g>
		</g>
	</g>
</g>
<g>
	<text transform="matrix(1 0 0 1 424.3878 524.7824)" fill="#FFFFFF" font-family="'FiraMono-Medium'" font-size="30.8571">SHARE YOUR EMOJI</text>
	<text transform="matrix(1 0 0 1 415.1019 561.7825)" fill="#FFFFFF" font-family="'FiraMono-Medium'" font-size="30.8571">MESSAGE WITH YOUR</text>
	<text transform="matrix(1 0 0 1 433.6739 598.7833)" fill="#FFFFFF" font-family="'FiraMono-Medium'" font-size="30.8571">FRIENDS AND LET</text>
	<text transform="matrix(1 0 0 1 470.6735 635.9258)" fill="#FFFFFF" font-family="'FiraMono-Medium'" font-size="30.8571">THEM TRY TO</text>
	<text transform="matrix(1 0 0 1 452.1021 672.926)" fill="#FFFFFF" font-family="'FiraMono-Medium'" font-size="30.8571">UNSCRAMBLE IT</text>
</g>
</svg>
