
<?xml version="1.0" encoding="utf-8"?>
<!-- Generator: Adobe Illustrator 18.0.0, SVG Export Plug-In . SVG Version: 6.00 Build 0)  -->
<!DOCTYPE svg PUBLIC "-//W3C//DTD SVG 1.1//EN" "http://www.w3.org/Graphics/SVG/1.1/DTD/svg11.dtd">
<svg version="1.1" id="Layer_1" xmlns="http://www.w3.org/2000/svg" xmlns:xlink="http://www.w3.org/1999/xlink" x="0px" y="0px"
	 width="393.1px" height="700px" viewBox="3.8 0 393.1 700" enable-background="new 3.8 0 393.1 700" xml:space="preserve">
<polyline fill="#283344" points="3.8,700 3.8,0 396.9,0 396.9,700 "/>
<g id="onboarding_slide_2_hello">
	<g id="onboarding_slide_2_A5">
		<path id="path22_5_" fill="#3B88C3" d="M369.7,167.6c0,3.5-2.7,6.2-6.2,6.2h-43.7c-3.5,0-6.2-2.7-6.2-6.2v-43.7
			c0-3.5,2.7-6.2,6.2-6.2h43.7c3.5,0,6.2,2.7,6.2,6.2V167.6z"/>
		<path id="path26_5_" fill="#FFFFFF" d="M350.7,145.8c0-5.9-3-11.1-9.1-11.1s-9.1,5.2-9.1,11.1c0,5.9,3,11.1,9.1,11.1
			C347.8,156.9,350.7,151.6,350.7,145.8 M324.9,145.8c0-10.1,6.7-17.9,16.6-17.9c9.7,0,16.6,8,16.6,17.9c0,10-6.7,17.9-16.6,17.9
			C331.8,163.5,324.9,155.8,324.9,145.8"/>
	</g>
	<g id="onboarding_slide_2_A4">
		<path id="path22_4_" fill="#3B88C3" d="M228.2,167.6c0,3.5-2.7,6.2-6.2,6.2h-43.7c-3.5,0-6.2-2.7-6.2-6.2v-43.7
			c0-3.5,2.7-6.2,6.2-6.2h43.7c3.5,0,6.2,2.7,6.2,6.2V167.6z"/>
		<path id="path26_4_" fill="#FFFFFF" d="M191.9,132c0-2.4,1.5-3.7,3.6-3.7s3.6,1.4,3.6,3.7v24.2h8.6c2.5,0,3.5,1.9,3.5,3.5
			c-0.1,1.6-1.4,3.2-3.5,3.2h-12.1c-2.4,0-3.7-1.5-3.7-4L191.9,132z"/>
	</g>
	<g id="onboarding_slide_2_A3">
		<path id="path22_3_" fill="#3B88C3" d="M298.9,167.6c0,3.5-2.7,6.2-6.2,6.2h-43.7c-3.5,0-6.2-2.7-6.2-6.2v-43.7
			c0-3.5,2.7-6.2,6.2-6.2h43.7c3.5,0,6.2,2.7,6.2,6.2V167.6z"/>
		<path id="path26_3_" fill="#FFFFFF" d="M262.7,132c0-2.4,1.5-3.7,3.6-3.7c2.1,0,3.6,1.4,3.6,3.7v24.2h8.6c2.5,0,3.5,1.9,3.5,3.5
			c-0.1,1.6-1.4,3.2-3.5,3.2h-12.1c-2.4,0-3.7-1.5-3.7-4L262.7,132z"/>
	</g>
	<g id="onboarding_slide_2_A2">
		<path id="path22_2_" fill="#3B88C3" d="M157.4,167.6c0,3.5-2.7,6.2-6.2,6.2h-43.7c-3.5,0-6.2-2.7-6.2-6.2v-43.7
			c0-3.5,2.7-6.2,6.2-6.2h43.7c3.5,0,6.2,2.7,6.2,6.2V167.6z"/>
		<path id="path26_2_" fill="#FFFFFF" d="M120.3,132.6c0-2.4,1.2-4.2,3.7-4.2h12c2.4,0,3.5,1.6,3.5,3.4c0,1.6-1.1,3.4-3.5,3.4h-8.5
			v7.1h8c2.4,0,3.5,1.6,3.5,3.4c0,1.6-1.2,3.4-3.5,3.4h-8v7.4h9c2.4,0,3.5,1.6,3.5,3.4c0,1.6-1.1,3.4-3.5,3.4H124
			c-2.1,0-3.7-1.5-3.7-3.6L120.3,132.6z"/>
	</g>
	<g id="onboarding_slide_2_A1">
		<path id="path22_1_" fill="#3B88C3" d="M86.7,167.6c0,3.5-2.7,6.2-6.2,6.2H36.7c-3.5,0-6.2-2.7-6.2-6.2v-43.7
			c0-3.5,2.7-6.2,6.2-6.2h43.7c3.5,0,6.2,2.7,6.2,6.2V167.6z"/>
		<path id="path26_1_" fill="#FFFFFF" d="M70.3,128.6c-2.1,0-3.9,1.7-3.9,3.9v8.6H50.8v-8.6c0-2.1-1.7-3.9-3.9-3.9
			c-2.1,0-3.9,1.7-3.9,3.9V159c0,2.1,1.7,3.9,3.9,3.9c2.1,0,3.9-1.7,3.9-3.9v-10.1h15.6V159c0,2.1,1.7,3.9,3.9,3.9
			c2.1,0,3.9-1.7,3.9-3.9v-26.5C74.2,130.4,72.4,128.6,70.3,128.6"/>
	</g>
</g>
<g id="onboarding_slide_2_lines">
	<path id="onboarding_slide1_line_5_1_" fill="#FFFFFF" d="M57.7,231.4c0-0.5,0.4-1,1-1l0,0c0.5,0,1,0.4,1,1l0,0c0,0.5-0.4,1-1,1
		l0,0C58,232.4,57.7,231.9,57.7,231.4z M57.7,227.8c0-0.5,0.4-1,1-1l0,0c0.5,0,1,0.4,1,1l0,0c0,0.5-0.4,1-1,1l0,0
		C58,228.8,57.7,228.3,57.7,227.8z M57.7,224.1c0-0.5,0.4-1,1-1l0,0c0.5,0,1,0.4,1,1l0,0c0,0.5-0.4,1-1,1l0,0
		C58,225,57.7,224.6,57.7,224.1z M57.7,220.5c0-0.5,0.4-1,1-1l0,0c0.5,0,1,0.4,1,1l0,0c0,0.5-0.4,1-1,1l0,0
		C58,221.4,57.7,221,57.7,220.5z M57.7,216.9c0-0.5,0.4-1,1-1l0,0c0.5,0,1,0.4,1,1l0,0c0,0.5-0.4,1-1,1l0,0
		C58,217.8,57.7,217.4,57.7,216.9z M57.7,213.3c0-0.5,0.4-1,1-1l0,0c0.5,0,1,0.4,1,1l0,0c0,0.5-0.4,1-1,1l0,0
		C58,214.1,57.7,213.8,57.7,213.3z M57.7,209.6c0-0.5,0.4-1,1-1l0,0c0.5,0,1,0.4,1,1l0,0c0,0.5-0.4,1-1,1l0,0
		C58,210.5,57.7,210.1,57.7,209.6z M57.7,206c0-0.5,0.4-1,1-1l0,0c0.5,0,1,0.4,1,1l0,0c0,0.5-0.4,1-1,1l0,0
		C58,206.9,57.7,206.5,57.7,206z M57.7,202.3c0-0.5,0.4-1,1-1l0,0c0.5,0,1,0.4,1,1l0,0c0,0.5-0.4,1-1,1l0,0
		C58,203.3,57.7,202.8,57.7,202.3z M57.7,198.6c0-0.5,0.4-1,1-1l0,0c0.5,0,1,0.4,1,1l0,0c0,0.5-0.4,1-1,1l0,0
		C58,199.6,57.7,199.1,57.7,198.6z M57.7,195c0-0.5,0.4-1,1-1l0,0c0.5,0,1,0.4,1,1l0,0c0,0.5-0.4,1-1,1l0,0
		C58,196,57.7,195.5,57.7,195z M57.7,191.4c0-0.5,0.4-1,1-1l0,0c0.5,0,1,0.4,1,1l0,0c0,0.5-0.4,1-1,1l0,0
		C58,192.4,57.7,191.9,57.7,191.4z"/>
	<path id="onboarding_slide1_line_4_1_" fill="#FFFFFF" d="M128.5,231.4c0-0.5,0.4-1,1-1l0,0c0.5,0,1,0.4,1,1l0,0c0,0.5-0.4,1-1,1
		l0,0C129,232.4,128.5,231.9,128.5,231.4z M128.5,227.8c0-0.5,0.4-1,1-1l0,0c0.5,0,1,0.4,1,1l0,0c0,0.5-0.4,1-1,1l0,0
		C129,228.8,128.5,228.3,128.5,227.8z M128.5,224.1c0-0.5,0.4-0.9,1-0.9l0,0c0.5,0,1,0.4,1,0.9l0,0c0,0.5-0.4,1-1,1l0,0
		C129,225,128.5,224.6,128.5,224.1z M128.5,220.5c0-0.5,0.4-1,1-1l0,0c0.5,0,1,0.4,1,1l0,0c0,0.5-0.4,1-1,1l0,0
		C129,221.4,128.5,221,128.5,220.5z M128.5,216.9c0-0.5,0.4-1,1-1l0,0c0.5,0,1,0.4,1,1l0,0c0,0.5-0.4,1-1,1l0,0
		C129,217.8,128.5,217.4,128.5,216.9z M128.5,213.3c0-0.5,0.4-1,1-1l0,0c0.5,0,1,0.4,1,1l0,0c0,0.5-0.4,1-1,1l0,0
		C129,214.1,128.5,213.8,128.5,213.3z M128.5,209.6c0-0.5,0.4-1,1-1l0,0c0.5,0,1,0.4,1,1l0,0c0,0.5-0.4,1-1,1l0,0
		C129,210.5,128.5,210.1,128.5,209.6z M128.5,206c0-0.5,0.4-1,1-1l0,0c0.5,0,1,0.4,1,1l0,0c0,0.5-0.4,1-1,1l0,0
		C129,206.9,128.5,206.5,128.5,206z M128.5,202.3c0-0.5,0.4-1,1-1l0,0c0.5,0,1,0.4,1,1l0,0c0,0.5-0.4,1-1,1l0,0
		C129,203.3,128.5,202.8,128.5,202.3z M128.5,198.6c0-0.5,0.4-1,1-1l0,0c0.5,0,1,0.4,1,1l0,0c0,0.5-0.4,1-1,1l0,0
		C129,199.6,128.5,199.1,128.5,198.6z M128.5,195c0-0.5,0.4-1,1-1l0,0c0.5,0,1,0.4,1,1l0,0c0,0.5-0.4,1-1,1l0,0
		C129,196,128.5,195.5,128.5,195z M128.5,191.4c0-0.5,0.4-1,1-1l0,0c0.5,0,1,0.4,1,1l0,0c0,0.5-0.4,1-1,1l0,0
		C129,192.4,128.5,191.9,128.5,191.4z"/>
	<path id="onboarding_slide1_line_3_1_" fill="#FFFFFF" d="M199.5,231.4c0-0.5,0.4-1,1-1l0,0c0.5,0,1,0.4,1,1l0,0c0,0.5-0.4,1-1,1
		l0,0C199.9,232.4,199.5,231.9,199.5,231.4z M199.5,227.8c0-0.5,0.4-1,1-1l0,0c0.5,0,1,0.4,1,1l0,0c0,0.5-0.4,1-1,1l0,0
		C199.9,228.8,199.5,228.3,199.5,227.8z M199.5,224.1c0-0.5,0.4-0.9,1-0.9l0,0c0.5,0,1,0.4,1,0.9l0,0c0,0.5-0.4,1-1,1l0,0
		C199.9,225,199.5,224.6,199.5,224.1z M199.5,220.5c0-0.5,0.4-1,1-1l0,0c0.5,0,1,0.4,1,1l0,0c0,0.5-0.4,1-1,1l0,0
		C199.9,221.4,199.5,221,199.5,220.5z M199.5,216.9c0-0.5,0.4-1,1-1l0,0c0.5,0,1,0.4,1,1l0,0c0,0.5-0.4,1-1,1l0,0
		C199.9,217.8,199.5,217.4,199.5,216.9z M199.5,213.3c0-0.5,0.4-1,1-1l0,0c0.5,0,1,0.4,1,1l0,0c0,0.5-0.4,1-1,1l0,0
		C199.9,214.1,199.5,213.8,199.5,213.3z M199.5,209.6c0-0.5,0.4-1,1-1l0,0c0.5,0,1,0.4,1,1l0,0c0,0.5-0.4,1-1,1l0,0
		C199.9,210.5,199.5,210.1,199.5,209.6z M199.5,206c0-0.5,0.4-1,1-1l0,0c0.5,0,1,0.4,1,1l0,0c0,0.5-0.4,1-1,1l0,0
		C199.9,206.9,199.5,206.5,199.5,206z M199.5,202.3c0-0.5,0.4-1,1-1l0,0c0.5,0,1,0.4,1,1l0,0c0,0.5-0.4,1-1,1l0,0
		C199.9,203.3,199.5,202.8,199.5,202.3z M199.5,198.6c0-0.5,0.4-1,1-1l0,0c0.5,0,1,0.4,1,1l0,0c0,0.5-0.4,1-1,1l0,0
		C199.9,199.6,199.5,199.1,199.5,198.6z M199.5,195c0-0.5,0.4-1,1-1l0,0c0.5,0,1,0.4,1,1l0,0c0,0.5-0.4,1-1,1l0,0
		C199.9,196,199.5,195.5,199.5,195z M199.5,191.4c0-0.5,0.4-1,1-1l0,0c0.5,0,1,0.4,1,1l0,0c0,0.5-0.4,1-1,1l0,0
		C199.9,192.4,199.5,191.9,199.5,191.4z"/>
	<path id="onboarding_slide1_line_2_1_" fill="#FFFFFF" d="M270.5,231.4c0-0.5,0.4-1,1-1l0,0c0.5,0,1,0.4,1,1l0,0c0,0.5-0.4,1-1,1
		l0,0C270.9,232.4,270.5,231.9,270.5,231.4z M270.5,227.8c0-0.5,0.4-1,1-1l0,0c0.5,0,1,0.4,1,1l0,0c0,0.5-0.4,1-1,1l0,0
		C270.9,228.8,270.5,228.3,270.5,227.8z M270.5,224.1c0-0.5,0.4-1,1-1l0,0c0.5,0,1,0.4,1,1l0,0c0,0.5-0.4,1-1,1l0,0
		C270.9,225.1,270.5,224.6,270.5,224.1z M270.5,220.5c0-0.5,0.4-1,1-1l0,0c0.5,0,1,0.4,1,1l0,0c0,0.5-0.4,1-1,1l0,0
		C270.9,221.4,270.5,221,270.5,220.5z M270.5,216.9c0-0.5,0.4-1,1-1l0,0c0.5,0,1,0.4,1,1l0,0c0,0.5-0.4,1-1,1l0,0
		C270.9,217.8,270.5,217.4,270.5,216.9z M270.5,213.3c0-0.5,0.4-1,1-1l0,0c0.5,0,1,0.4,1,1l0,0c0,0.5-0.4,1-1,1l0,0
		C270.9,214.1,270.5,213.8,270.5,213.3z M270.5,209.6c0-0.5,0.4-1,1-1l0,0c0.5,0,1,0.4,1,1l0,0c0,0.5-0.4,1-1,1l0,0
		C270.9,210.5,270.5,210.1,270.5,209.6z M270.5,206c0-0.5,0.4-1,1-1l0,0c0.5,0,1,0.4,1,1l0,0c0,0.5-0.4,1-1,1l0,0
		C270.9,206.9,270.5,206.5,270.5,206z M270.5,202.3c0-0.5,0.4-1,1-1l0,0c0.5,0,1,0.4,1,1l0,0c0,0.5-0.4,1-1,1l0,0
		C270.9,203.3,270.5,202.8,270.5,202.3z M270.5,198.6c0-0.5,0.4-1,1-1l0,0c0.5,0,1,0.4,1,1l0,0c0,0.5-0.4,1-1,1l0,0
		C270.9,199.6,270.5,199.1,270.5,198.6z M270.5,195c0-0.5,0.4-1,1-1l0,0c0.5,0,1,0.4,1,1l0,0c0,0.5-0.4,1-1,1l0,0
		C270.9,196,270.5,195.5,270.5,195z M270.5,191.4c0-0.5,0.4-1,1-1l0,0c0.5,0,1,0.4,1,1l0,0c0,0.5-0.4,1-1,1l0,0
		C270.9,192.4,270.5,191.9,270.5,191.4z"/>
	<path id="onboarding_slide1_line_1_1_" fill="#FFFFFF" d="M341.4,231.4c0-0.5,0.4-1,1-1l0,0c0.5,0,1,0.4,1,1l0,0c0,0.5-0.4,1-1,1
		l0,0C341.8,232.4,341.4,231.9,341.4,231.4z M341.4,227.8c0-0.5,0.4-1,1-1l0,0c0.5,0,1,0.4,1,1l0,0c0,0.5-0.4,1-1,1l0,0
		C341.8,228.8,341.4,228.3,341.4,227.8z M341.4,224.1c0-0.5,0.4-1,1-1l0,0c0.5,0,1,0.4,1,1l0,0c0,0.5-0.4,0.9-1,0.9l0,0
		C341.8,225,341.4,224.6,341.4,224.1z M341.4,220.5c0-0.5,0.4-1,1-1l0,0c0.5,0,1,0.4,1,1l0,0c0,0.5-0.4,1-1,1l0,0
		C341.8,221.4,341.4,221,341.4,220.5z M341.4,216.9c0-0.5,0.4-1,1-1l0,0c0.5,0,1,0.4,1,1l0,0c0,0.5-0.4,1-1,1l0,0
		C341.8,217.8,341.4,217.4,341.4,216.9z M341.4,213.3c0-0.5,0.4-1,1-1l0,0c0.5,0,1,0.4,1,1l0,0c0,0.5-0.4,1-1,1l0,0
		C341.8,214.1,341.4,213.8,341.4,213.3z M341.4,209.6c0-0.5,0.4-1,1-1l0,0c0.5,0,1,0.4,1,1l0,0c0,0.5-0.4,1-1,1l0,0
		C341.8,210.5,341.4,210.1,341.4,209.6z M341.4,206c0-0.5,0.4-1,1-1l0,0c0.5,0,1,0.4,1,1l0,0c0,0.5-0.4,1-1,1l0,0
		C341.8,206.9,341.4,206.5,341.4,206z M341.4,202.3c0-0.5,0.4-1,1-1l0,0c0.5,0,1,0.4,1,1l0,0c0,0.5-0.4,1-1,1l0,0
		C341.8,203.3,341.4,202.8,341.4,202.3z M341.4,198.6c0-0.5,0.4-1,1-1l0,0c0.5,0,1,0.4,1,1l0,0c0,0.5-0.4,1-1,1l0,0
		C341.8,199.6,341.4,199.1,341.4,198.6z M341.4,195c0-0.5,0.4-1,1-1l0,0c0.5,0,1,0.4,1,1l0,0c0,0.5-0.4,1-1,1l0,0
		C341.8,196,341.4,195.5,341.4,195z M341.4,191.4c0-0.5,0.4-1,1-1l0,0c0.5,0,1,0.4,1,1l0,0c0,0.5-0.4,1-1,1l0,0
		C341.8,192.4,341.4,191.9,341.4,191.4z"/>
</g>
<g id="onboarding_slide_2_encrypted_hello_3">
	<g>
		<path fill="#FFCC4D" d="M362.5,275.9c0,11.7-9.5,21.2-21.2,21.2s-21.2-9.5-21.2-21.2c0-11.7,9.5-21.2,21.2-21.2
			S362.5,264.1,362.5,275.9"/>
		<ellipse fill="#664500" cx="341.3" cy="287.1" rx="6.2" ry="7.5"/>
		<path fill="#664500" d="M326.3,267.1c-0.2,0-0.5-0.1-0.7-0.2c-0.5-0.4-0.6-1.2-0.2-1.7c4.1-5.5,9.5-5.5,9.7-5.5
			c0.7,0,1.2,0.5,1.2,1.2c0,0.7-0.5,1.2-1.2,1.2c-0.2,0-4.5,0.1-7.7,4.5C327,266.9,326.7,267.1,326.3,267.1z"/>
		<path fill="#664500" d="M356.3,267.1c-0.4,0-0.7-0.1-1-0.5c-3.2-4.4-7.6-4.5-7.7-4.5c-0.6,0-1.2-0.6-1.2-1.2
			c0-0.7,0.5-1.2,1.2-1.2c0.2,0,5.6,0,9.7,5.5c0.4,0.5,0.2,1.4-0.2,1.7C356.8,267,356.5,267.1,356.3,267.1z"/>
		<path fill="#664500" d="M336.2,272.8l2.2-2.2c0.5-0.5,0.5-1.2,0-1.7c-0.5-0.5-1.2-0.5-1.7,0l-2.2,2.2l-2.2-2.2
			c-0.5-0.5-1.2-0.5-1.7,0c-0.5,0.5-0.5,1.2,0,1.7l2.2,2.2l-2.2,2.2c-0.5,0.5-0.5,1.2,0,1.7c0.2,0.2,0.6,0.4,0.9,0.4
			s0.6-0.1,0.9-0.4l2.2-2.2l2.2,2.2c0.2,0.2,0.6,0.4,0.9,0.4s0.6-0.1,0.9-0.4c0.5-0.5,0.5-1.2,0-1.7L336.2,272.8z"/>
		<path fill="#664500" d="M349.9,272.8l2.2-2.2c0.5-0.5,0.5-1.2,0-1.7c-0.5-0.5-1.2-0.5-1.7,0l-2.2,2.2l-2.2-2.2
			c-0.5-0.5-1.2-0.5-1.7,0c-0.5,0.5-0.5,1.2,0,1.7l2.2,2.2l-2.2,2.2c-0.5,0.5-0.5,1.2,0,1.7c0.2,0.2,0.6,0.4,0.9,0.4
			s0.6-0.1,0.9-0.4l2.2-2.2l2.2,2.2c0.2,0.2,0.6,0.4,0.9,0.4s0.6-0.1,0.9-0.4c0.5-0.5,0.5-1.2,0-1.7L349.9,272.8z"/>
	</g>
	<g>
		<path fill="#553788" d="M260.7,268.5c3.7,6.2,0,13.4-3.7,12.1c-3.7-1.2-5,2.5-1.2,3.7c3.7,1.2,11.9-0.6,16.2-5
			c1.2-1.2,2.5-1.2,2.5-1.2L260.7,268.5z"/>
		<path fill="#553788" d="M280.7,268.5c-3.7,6.2,0,13.4,3.7,12.1c3.7-1.2,5,2.5,1.2,3.7c-3.7,1.2-11.9-0.6-16.2-5
			c-1.2-1.2-2.5-1.2-2.5-1.2L280.7,268.5z"/>
		<path fill="#744EAA" d="M285.9,273.5c-3.7,6.2,0,13.4,3.7,12.1c3.7-1.2,5,2.5,1.2,3.7c-3.7,1.2-11.9-0.6-16.2-5
			c-1.2-1.2-2.5-1.2-2.5-1.2L285.9,273.5z"/>
		<path fill="#744EAA" d="M255.4,273.5c3.7,6.2,0,13.4-3.7,12.1c-3.7-1.2-5,2.5-1.2,3.7c3.7,1.2,11.9-0.6,16.2-5
			c1.2-1.2,2.5-1.2,2.5-1.2L255.4,273.5z"/>
		<path fill="#9266CC" d="M289.7,292.8c-3.4,1.1-8-7-6-13.2c2-4,3.2-8.6,3.2-12.2c0-9-7.2-13.7-16.2-13.7s-16.2,4.7-16.2,13.7
			c0,3.6,1.2,8.2,3.2,12.2c2,6.2-2.6,14.4-6,13.2c-3.7-1.2-5,3.7-1.2,5c3.7,1.2,10.4-0.7,15-5c2.7-2.5,5.2-2.5,5.2-2.5
			s2.5,0,5.2,2.5c4.6,4.2,11.2,6.2,15,5C294.7,296.5,293.4,291.5,289.7,292.8z"/>
		<circle fill="#292F33" cx="265.7" cy="279.8" r="2.5"/>
		<circle fill="#292F33" cx="275.7" cy="279.8" r="2.5"/>
	</g>
	<g>
		<path fill="#553788" d="M189.9,268.5c3.7,6.2,0,13.4-3.7,12.1c-3.7-1.2-5,2.5-1.2,3.7c3.7,1.2,11.9-0.6,16.2-5
			c1.2-1.2,2.5-1.2,2.5-1.2L189.9,268.5z"/>
		<path fill="#553788" d="M209.9,268.5c-3.7,6.2,0,13.4,3.7,12.1c3.7-1.2,5,2.5,1.2,3.7c-3.7,1.2-11.9-0.6-16.2-5
			c-1.2-1.2-2.5-1.2-2.5-1.2L209.9,268.5z"/>
		<path fill="#744EAA" d="M215.2,273.5c-3.7,6.2,0,13.4,3.7,12.1c3.7-1.2,5,2.5,1.2,3.7c-3.7,1.2-11.9-0.6-16.2-5
			c-1.2-1.2-2.5-1.2-2.5-1.2L215.2,273.5z"/>
		<path fill="#744EAA" d="M184.7,273.5c3.7,6.2,0,13.4-3.7,12.1c-3.7-1.2-5,2.5-1.2,3.7c3.7,1.2,11.9-0.6,16.2-5
			c1.2-1.2,2.5-1.2,2.5-1.2L184.7,273.5z"/>
		<path fill="#9266CC" d="M218.9,292.8c-3.4,1.1-8-7-6-13.2c2-4,3.2-8.6,3.2-12.2c0-9-7.2-13.7-16.2-13.7s-16.2,4.7-16.2,13.7
			c0,3.6,1.2,8.2,3.2,12.2c2,6.2-2.6,14.4-6,13.2c-3.7-1.2-5,3.7-1.2,5c3.7,1.2,10.4-0.7,15-5c2.7-2.5,5.2-2.5,5.2-2.5
			s2.5,0,5.2,2.5c4.6,4.2,11.2,6.2,15,5C223.9,296.5,222.7,291.5,218.9,292.8z"/>
		<circle fill="#292F33" cx="194.9" cy="279.8" r="2.5"/>
		<circle fill="#292F33" cx="204.9" cy="279.8" r="2.5"/>
	</g>
	<g>
		<path fill="#FDD888" d="M146.7,283.3c-0.7-8.2-4.9-12.4-4.9-12.4l-7.5-10H133h-3.7h-3.7h-1.2l-7.5,10c0,0-1.7,1.7-3.2,5.4
			c-2.5,0.9-4.2,3.1-4.2,5.9c0,1.7,0.7,3.4,2,4.6c-0.5,0.9-0.7,1.9-0.7,2.9c0,2.5,1.4,4.5,3.5,5.6c1.6,2.4,3.7,3.1,5.2,3.1h20
			c1.7,0,4.2-1,5.9-4.1c2.4-0.9,4.1-3.1,4.1-5.9C149.3,286.3,148.3,284.4,146.7,283.3z"/>
		<path fill="#FDD888" d="M129.3,260.9c0.6,0,1.4-0.2,1.9-0.5c0.5,0.4,1.2,0.5,1.9,0.5c2.1,0,5-2.9,5-5c0,0,0-2.5-2.5-2.5
			c-1,0-1.2,1.2-2.5,1.2s-1.2-1.2-3.7-1.2c-2.5,0-2.5,1.2-3.7,1.2c-1.2,0-1.5-1.2-2.5-1.2c-2.5,0-2.5,2.5-2.5,2.5c0,2.1,2.9,5,5,5
			c0.6,0,1.4-0.2,1.9-0.5C127.9,260.6,128.7,260.9,129.3,260.9z"/>
		<path fill="#BF6952" d="M136.8,260.9c0,0.7-0.5,1.2-1.2,1.2H123c-0.7,0-1.2-0.5-1.2-1.2l0,0c0-0.7,0.5-1.2,1.2-1.2h12.5
			C136.3,259.6,136.8,260.1,136.8,260.9L136.8,260.9z"/>
		<path fill="#67757F" d="M136.7,284c0-5.6-10.7-5.2-10.7-8.6c0-1.6,1.6-2.4,3.5-2.4c3.1,0,3.7,2,5.1,2c1,0,1.5-0.6,1.5-1.2
			c0-1.6-2.5-2.9-5-3.2V269c0-1-0.9-1.7-1.9-1.7s-1.9,0.7-1.9,1.7v1.6c-2.6,0.6-4.9,2.4-4.9,5.2c0,5.4,10.7,5.1,10.7,8.9
			c0,1.2-1.5,2.6-3.9,2.6c-3.6,0-4.9-2.4-6.2-2.4c-0.7,0-1.4,0.6-1.4,1.5c0,1.4,2.4,3.1,5.7,3.5l0,0v1.7c0,1,0.9,1.7,1.9,1.7
			s1.9-0.7,1.9-1.7V290l0,0C134.2,289.3,136.7,287.4,136.7,284z"/>
	</g>
	<g>
		<path fill="#3E721D" d="M70.9,287c-10,0-10.2,7.5-10.2,7.5V280h-5v14.5c0,0,0.2-7.5-9.7-7.5c-5,0-8.6-2.9-8.6-2.9
			S37.4,295,48.7,295c5,0,7.5,0,7.5,0s0,2.5,2.5,2.5c2.5,0,2.5-2.5,2.5-2.5s2.5,0,7.5,0c11.2,0,11.1-10.9,11.1-10.9
			S75.9,287,70.9,287z"/>
		<path fill="#FFAC33" d="M62.7,287.9c-0.4,0-0.9-0.1-1.1-0.4l-2.9-2l-2.9,2c-0.4,0.2-0.7,0.4-1.1,0.4c-0.1,0-0.4,0-0.5-0.1
			c-0.6-0.1-1.1-0.5-1.4-1.1l-1.5-3.1l-3.5,0.2h-0.1c-0.5,0-1.1-0.2-1.5-0.6c-0.4-0.4-0.6-1-0.6-1.6l0.2-3.5l-3.1-1.5
			c-0.5-0.2-1-0.7-1.1-1.4c-0.1-0.6,0-1.2,0.2-1.7l2-2.9l-2-2.9c-0.4-0.5-0.5-1.1-0.2-1.7c0.1-0.6,0.5-1.1,1.1-1.4l3.1-1.5l-0.2-3.5
			c0-0.6,0.1-1.2,0.6-1.6c0.4-0.4,0.9-0.6,1.5-0.6h0.1l3.5,0.2l1.5-3.1c0.2-0.5,0.7-1,1.4-1.1c0.1,0,0.4-0.1,0.5-0.1
			c0.4,0,0.9,0.1,1.1,0.4l2.9,2l2.9-2c0.4-0.2,0.7-0.4,1.1-0.4c0.1,0,0.4,0,0.5,0.1c0.6,0.1,1.1,0.5,1.4,1.1l1.5,3.1l3.5-0.2h0.1
			c0.5,0,1.1,0.2,1.5,0.6c0.4,0.4,0.6,1,0.6,1.6l-0.2,3.5l3.1,1.5c0.5,0.2,1,0.7,1.1,1.4s0,1.2-0.2,1.7l-2,2.9l2,2.9
			c0.4,0.5,0.5,1.1,0.2,1.7c-0.1,0.6-0.5,1.1-1.1,1.4l-3.1,1.5l0.2,3.5c0,0.6-0.1,1.1-0.6,1.6c-0.4,0.4-0.9,0.6-1.5,0.6h-0.1
			l-3.5-0.2l-1.5,3.1c-0.2,0.5-0.7,1-1.4,1.1C63,287.9,62.9,287.9,62.7,287.9z"/>
		<circle fill="#732700" cx="58.8" cy="270.8" r="8.7"/>
	</g>
</g>
<g id="onboarding_slide_2_encrypted_hello_1">
	<g>
		<path fill="#C6E5B3" d="M363.8,280.3c0,9.4-10.1,15-22.5,15s-22.5-5.6-22.5-15c0-9.4,10.1-18.7,22.5-18.7S363.8,270.9,363.8,280.3
			z"/>
		<path fill="#77B255" d="M358.5,268.6c1.7-1.4,2.7-3.5,2.7-5.9c0-4.1-3.4-7.5-7.5-7.5c-3.6,0-6.5,2.5-7.4,5.9c-1.6-0.6-3.4-1-5.1-1
			c-1.9,0-3.6,0.4-5.1,1c-0.7-3.4-3.7-5.9-7.4-5.9c-4.1,0-7.5,3.4-7.5,7.5c0,2.4,1.1,4.5,2.7,5.9c-3.2,3.4-5.2,7.5-5.2,11.6
			c0,9.4,10.1,1.2,22.5,1.2s22.5,8.1,22.5-1.2C363.8,276.1,361.8,271.9,358.5,268.6z"/>
		<circle fill="#FFFFFF" cx="328.2" cy="262.1" r="4.4"/>
		<circle fill="#292F33" cx="328.2" cy="262.1" r="1.9"/>
		<circle fill="#FFFFFF" cx="354.4" cy="262.1" r="4.4"/>
		<circle fill="#292F33" cx="354.4" cy="262.1" r="1.9"/>
		<circle fill="#5C913B" cx="336.3" cy="277.8" r="1.2"/>
		<circle fill="#5C913B" cx="346.3" cy="277.8" r="1.2"/>
	</g>
	<g>
		<path fill="#292F33" d="M291.4,290c0,0,1.5,0.6,1.5,1.9c0,1.2-1.2,1.9-2.6,1.9c-1.2,0-19.5,0-22.1,0c-2.6,0-2.6-4.5-6.5-12.2
			c-3.9-7.9-7.9-2.4-7.9-2.4l-1.2,15.9h-3.1c0,0,0-15.5,0-18c0-2.6-1-5.4-1-6.5c0-2.6,0.9-5.5,0.9-5.5l8.5,2.9L291.4,290z"/>
		<path fill="#9266CC" d="M250.3,267.3c3.7,0.9,12.9,5.1,17.5,22c0,0,0,2,3,2c3,0,20.6,0,20.6,0s1.5-0.6,1.5-3.4
			c0-1.4-7.4-4.4-10.4-5.7s-5.5-5.5-5.5-5.5s-5.2,2-14.1-7.5c-8.9-9.5-5.5-13.1-8.4-13.1c-0.6,0-4.6,4.1-5.6,8.7
			C248.7,265.6,249.3,267,250.3,267.3z"/>
	</g>
	<g>
		<path fill="#292F33" d="M220.8,290c0,0,1.5,0.6,1.5,1.9c0,1.2-1.2,1.9-2.6,1.9c-1.2,0-19.5,0-22.1,0c-2.6,0-2.6-4.5-6.5-12.2
			c-3.9-7.9-7.9-2.4-7.9-2.4l-1.2,15.9h-2.5c0,0,0-15.5,0-18c0-2.6-1.4-5.4-1.4-6.5c0-2.6,0.7-5.5,0.7-5.5l8.4,2.9L220.8,290z"/>
		<path fill="#9266CC" d="M179.7,267.3c3.7,0.9,12.9,5.1,17.5,22c0,0,0,2,3,2s20.6,0,20.6,0s1.5-0.6,1.5-3.4c0-1.4-7.4-4.4-10.4-5.7
			c-3-1.4-5.5-5.5-5.5-5.5s-5.2,2-14.1-7.5c-8.9-9.5-5.5-13.1-8.4-13.1c-0.6,0-4.6,4.1-5.6,8.7C178,265.6,178.7,267,179.7,267.3z"/>
	</g>
	<g>
		<path fill="#8899A6" d="M151.9,275.9c0,12.4-10.1,22.5-22.5,22.5s-22.5-10.1-22.5-22.5s10.1-22.5,22.5-22.5
			S151.9,263.4,151.9,275.9z M129.4,272.1c-2.1,0-3.7,1.6-3.7,3.7c0,2.1,1.6,3.7,3.7,3.7s3.7-1.6,3.7-3.7
			C133.2,273.8,131.5,272.1,129.4,272.1z"/>
		<g>
			<g>
				<defs>
					<path id="SVGID_1_" d="M149.4,275.9c0,11-9,20-20,20s-20-9-20-20c0-11,9-20,20-20S149.4,264.8,149.4,275.9z M129.4,269.9
						c-3.2,0-6,2.6-6,6c0,3.2,2.6,6,6,6c3.2,0,6-2.6,6-6S132.7,269.9,129.4,269.9z"/>
				</defs>
				<clipPath id="SVGID_2_">
					<use xlink:href="#SVGID_1_"  overflow="visible"/>
				</clipPath>
				<polygon clip-path="url(#SVGID_2_)" fill="#CCD6DD" points="129.4,276 106.9,273.4 106.9,253.8 126.9,253.8 				"/>
			</g>
			<g>
				<defs>
					<path id="SVGID_3_" d="M149.4,275.9c0,11-9,20-20,20s-20-9-20-20c0-11,9-20,20-20S149.4,264.8,149.4,275.9z M129.4,269.9
						c-3.2,0-6,2.6-6,6c0,3.2,2.6,6,6,6c3.2,0,6-2.6,6-6S132.7,269.9,129.4,269.9z"/>
				</defs>
				<clipPath id="SVGID_4_">
					<use xlink:href="#SVGID_3_"  overflow="visible"/>
				</clipPath>
				<polygon clip-path="url(#SVGID_4_)" fill="#CCD6DD" points="129.4,276 151.9,278.4 151.9,298.8 131.9,298.8 				"/>
			</g>
			<g>
				<defs>
					<path id="SVGID_5_" d="M149.4,275.9c0,11-9,20-20,20s-20-9-20-20c0-11,9-20,20-20S149.4,264.8,149.4,275.9z M129.4,269.9
						c-3.2,0-6,2.6-6,6c0,3.2,2.6,6,6,6c3.2,0,6-2.6,6-6S132.7,269.9,129.4,269.9z"/>
				</defs>
				<clipPath id="SVGID_6_">
					<use xlink:href="#SVGID_5_"  overflow="visible"/>
				</clipPath>
				<polygon clip-path="url(#SVGID_6_)" fill="#F5F8FA" points="129.4,275.9 132,299.6 151.9,298.4 				"/>
			</g>
			<g>
				<defs>
					<path id="SVGID_7_" d="M149.4,275.9c0,11-9,20-20,20s-20-9-20-20c0-11,9-20,20-20S149.4,264.8,149.4,275.9z M129.4,269.9
						c-3.2,0-6,2.6-6,6c0,3.2,2.6,6,6,6c3.2,0,6-2.6,6-6S132.7,269.9,129.4,269.9z"/>
				</defs>
				<clipPath id="SVGID_8_">
					<use xlink:href="#SVGID_7_"  overflow="visible"/>
				</clipPath>
				<polygon clip-path="url(#SVGID_8_)" fill="#F5F8FA" points="129.4,275.9 106.9,253.4 126.9,252.1 				"/>
			</g>
		</g>
	</g>
	<g>
		<path fill="#E75A70" d="M67.3,277.4c0-4.7-3.7-8.5-8.5-8.5c-2.9,0-5.4,1.4-6.9,3.5c-1.5-2.1-4-3.5-6.9-3.5c-4.7,0-8.5,3.7-8.5,8.5
			c0,0.6,0.1,1.2,0.2,1.9c1.1,7.4,9.4,15.1,15.1,17.2c5.9-2.1,14-9.9,15.1-17.2C67.2,278.8,67.3,278,67.3,277.4z"/>
		<path fill="#E75A70" d="M81.2,259.9c0-3.2-2.6-5.9-5.9-5.9c-2,0-3.7,1-4.7,2.5c-1.1-1.5-2.7-2.5-4.7-2.5c-3.2,0-5.9,2.6-5.9,5.9
			c0,0.5,0,0.9,0.1,1.4c0.9,5.1,6.5,10.5,10.5,11.9c4-1.5,9.7-6.9,10.5-11.9C81,260.8,81.2,260.4,81.2,259.9z"/>
	</g>
</g>
<g id="onboarding_slide_2_encrypted_hello_2">
	<g>
		<path fill="#E1E8ED" d="M363.8,267.3c0-1.4-1.1-2.5-2.5-2.5c-1.4,0-2.5,1.1-2.5,2.5c0,0,0,4.1-3.7,4.9v-3.6
			c0-7.6-6.1-13.7-13.7-13.7s-13.7,6.1-13.7,13.7v4c-6.5,2-8.7,10-8.7,14.7c0,1.4,1.1,2.5,2.5,2.5c1.4,0,2.5-1.1,2.5-2.5
			c0,0,0-4.4,4.1-5c0.6,6,2,12.5,4.6,12.5c0.4,0,0.7,0,1.2,0c5,0,3.7,2.5,8.7,2.5c5,0,3.7-2.5,7.5-2.5s3,2.5,7.5,2.5
			c2.1,0,3.7-1.6,3.7-3.7c0-0.9-2.9-6.2-4.7-11.6C363.8,280.3,363.8,271.8,363.8,267.3z"/>
		<circle fill="#292F33" cx="335" cy="268.5" r="2.5"/>
		<circle fill="#292F33" cx="347.5" cy="268.5" r="5"/>
		<circle fill="#9AAAB4" cx="347.5" cy="269.8" r="2.5"/>
		
			<ellipse transform="matrix(-0.7999 -0.6001 0.6001 -0.7999 448.1477 714.2168)" fill="#292F33" cx="343.1" cy="282.4" rx="7.5" ry="5.6"/>
	</g>
	<g>
		<path fill="#99AAB5" d="M281.8,295c0,2.7-2.2,3.7-5,3.7h-12.5c-2.7,0-5-1-5-3.7l0,0c0-2.7,3.7-8.7,3.7-16.2c0-7.5,15-7.5,15,0
			C278,286.3,281.8,292.3,281.8,295L281.8,295z"/>
		<g>
			<g>
				<defs>
					<path id="SVGID_9_" d="M270.5,253.1c-12.4,0-22.5,10.2-22.5,22.7c0,2.7,2.2,5.2,5,5.2h35c2.7,0,5-2.5,5-5.2
						C293,263.5,282.9,253.1,270.5,253.1z"/>
				</defs>
				<clipPath id="SVGID_10_">
					<use xlink:href="#SVGID_9_"  overflow="visible"/>
				</clipPath>
				<path clip-path="url(#SVGID_10_)" fill="#DD2E44" d="M270.5,252.4c-13.1,0-23.7,11.1-23.7,24.2c0,2.9,2.4,5.9,5.2,5.9h37
					c2.9,0,5.2-2.9,5.2-5.9C294.3,263.5,283.7,252.4,270.5,252.4z"/>
			</g>
			<g>
				<defs>
					<path id="SVGID_11_" d="M270.5,253.1c-12.4,0-22.5,10.2-22.5,22.7c0,2.7,2.2,5.2,5,5.2h35c2.7,0,5-2.5,5-5.2
						C293,263.5,282.9,253.1,270.5,253.1z"/>
				</defs>
				<clipPath id="SVGID_12_">
					<use xlink:href="#SVGID_11_"  overflow="visible"/>
				</clipPath>
				<g clip-path="url(#SVGID_12_)">
					<path fill="#F4ABBA" d="M257.7,273.8c-4.2,0-7.7-3.5-7.7-7.7s3.5-7.7,7.7-7.7c4.2,0,7.7,3.5,7.7,7.7S261.9,273.8,257.7,273.8z"
						/>
					<path fill="#F4ABBA" d="M257.7,258.5c4.1,0,7.5,3.4,7.5,7.5c0,4.1-3.4,7.5-7.5,7.5c-4.1,0-7.5-3.4-7.5-7.5
						C250,261.9,253.5,258.5,257.7,258.5 M257.7,258.1c-4.4,0-7.9,3.5-7.9,7.9s3.5,7.9,7.9,7.9c4.4,0,7.9-3.5,7.9-7.9
						S262,258.1,257.7,258.1L257.7,258.1z"/>
				</g>
			</g>
			<g>
				<defs>
					<path id="SVGID_13_" d="M270.5,253.1c-12.4,0-22.5,10.2-22.5,22.7c0,2.7,2.2,5.2,5,5.2h35c2.7,0,5-2.5,5-5.2
						C293,263.5,282.9,253.1,270.5,253.1z"/>
				</defs>
				<clipPath id="SVGID_14_">
					<use xlink:href="#SVGID_13_"  overflow="visible"/>
				</clipPath>
				<path clip-path="url(#SVGID_14_)" fill="#F4ABBA" d="M291.3,267.1c-1.2-3-3-5.6-5.2-7.7c-3.1,0-5.6,2.5-5.6,5.6
					c0,3.1,2.5,5.6,5.6,5.6C288.5,270.6,290.5,269.3,291.3,267.1z"/>
			</g>
			<g>
				<defs>
					<path id="SVGID_15_" d="M270.5,253.1c-12.4,0-22.5,10.2-22.5,22.7c0,2.7,2.2,5.2,5,5.2h35c2.7,0,5-2.5,5-5.2
						C293,263.5,282.9,253.1,270.5,253.1z"/>
				</defs>
				<clipPath id="SVGID_16_">
					<use xlink:href="#SVGID_15_"  overflow="visible"/>
				</clipPath>
				<circle clip-path="url(#SVGID_16_)" fill="#F4ABBA" cx="274.9" cy="273.1" r="5.6"/>
			</g>
			<g>
				<defs>
					<path id="SVGID_17_" d="M270.5,253.1c-12.4,0-22.5,10.2-22.5,22.7c0,2.7,2.2,5.2,5,5.2h35c2.7,0,5-2.5,5-5.2
						C293,263.5,282.9,253.1,270.5,253.1z"/>
				</defs>
				<clipPath id="SVGID_18_">
					<use xlink:href="#SVGID_17_"  overflow="visible"/>
				</clipPath>
				<circle clip-path="url(#SVGID_18_)" fill="#F4ABBA" cx="273" cy="259.4" r="3.7"/>
			</g>
		</g>
	</g>
	<g>
		<path fill="#99AAB5" d="M210.9,295c0,2.7-2.2,3.7-5,3.7h-12.5c-2.7,0-5-1-5-3.7l0,0c0-2.7,3.7-8.7,3.7-16.2c0-7.5,15-7.5,15,0
			C207.2,286.3,210.9,292.3,210.9,295L210.9,295z"/>
		<g>
			<g>
				<defs>
					<path id="SVGID_19_" d="M199.7,253.5c-12.4,0-22.5,10.1-22.5,22.6c0,2.7,2.2,5.1,5,5.1h35c2.7,0,5-2.4,5-5.1
						C222.2,263.6,212.2,253.5,199.7,253.5z"/>
				</defs>
				<clipPath id="SVGID_20_">
					<use xlink:href="#SVGID_19_"  overflow="visible"/>
				</clipPath>
				<path clip-path="url(#SVGID_20_)" fill="#DD2E44" d="M199.7,252.8c-13.1,0-23.7,10.9-23.7,24.1c0,2.9,2.4,5.6,5.2,5.6h37
					c2.9,0,5.2-2.7,5.2-5.6C223.4,263.6,212.8,252.8,199.7,252.8z"/>
			</g>
			<g>
				<defs>
					<path id="SVGID_21_" d="M199.7,253.5c-12.4,0-22.5,10.1-22.5,22.6c0,2.7,2.2,5.1,5,5.1h35c2.7,0,5-2.4,5-5.1
						C222.2,263.6,212.2,253.5,199.7,253.5z"/>
				</defs>
				<clipPath id="SVGID_22_">
					<use xlink:href="#SVGID_21_"  overflow="visible"/>
				</clipPath>
				<g clip-path="url(#SVGID_22_)">
					<path fill="#F4ABBA" d="M186.9,274.1c-4.2,0-7.7-3.5-7.7-7.7c0-4.2,3.5-7.7,7.7-7.7c4.2,0,7.7,3.5,7.7,7.7
						C194.7,270.6,191.2,274.1,186.9,274.1z"/>
					<path fill="#F4ABBA" d="M186.9,258.9c4.1,0,7.5,3.4,7.5,7.5c0,4.1-3.4,7.5-7.5,7.5s-7.5-3.4-7.5-7.5
						C179.3,262.3,182.7,258.9,186.9,258.9 M186.9,258.5c-4.4,0-7.9,3.5-7.9,7.9c0,4.4,3.5,7.9,7.9,7.9c4.4,0,7.9-3.5,7.9-7.9
						C194.8,262,191.2,258.5,186.9,258.5L186.9,258.5z"/>
				</g>
			</g>
			<g>
				<defs>
					<path id="SVGID_23_" d="M199.7,253.5c-12.4,0-22.5,10.1-22.5,22.6c0,2.7,2.2,5.1,5,5.1h35c2.7,0,5-2.4,5-5.1
						C222.2,263.6,212.2,253.5,199.7,253.5z"/>
				</defs>
				<clipPath id="SVGID_24_">
					<use xlink:href="#SVGID_23_"  overflow="visible"/>
				</clipPath>
				<path clip-path="url(#SVGID_24_)" fill="#F4ABBA" d="M220.5,267.5c-1.2-3-3-5.6-5.2-7.7c-3.1,0-5.6,2.5-5.6,5.6
					c0,3.1,2.5,5.6,5.6,5.6C217.7,271,219.7,269.6,220.5,267.5z"/>
			</g>
			<g>
				<defs>
					<path id="SVGID_25_" d="M199.7,253.5c-12.4,0-22.5,10.1-22.5,22.6c0,2.7,2.2,5.1,5,5.1h35c2.7,0,5-2.4,5-5.1
						C222.2,263.6,212.2,253.5,199.7,253.5z"/>
				</defs>
				<clipPath id="SVGID_26_">
					<use xlink:href="#SVGID_25_"  overflow="visible"/>
				</clipPath>
				<circle clip-path="url(#SVGID_26_)" fill="#F4ABBA" cx="204.2" cy="273.5" r="5.6"/>
			</g>
			<g>
				<defs>
					<path id="SVGID_27_" d="M199.7,253.5c-12.4,0-22.5,10.1-22.5,22.6c0,2.7,2.2,5.1,5,5.1h35c2.7,0,5-2.4,5-5.1
						C222.2,263.6,212.2,253.5,199.7,253.5z"/>
				</defs>
				<clipPath id="SVGID_28_">
					<use xlink:href="#SVGID_27_"  overflow="visible"/>
				</clipPath>
				<circle clip-path="url(#SVGID_28_)" fill="#F4ABBA" cx="202.2" cy="259.8" r="3.7"/>
			</g>
		</g>
	</g>
	<g>
		<path fill="#FFCC4D" d="M142.5,275.6c-1.2,1.2-2,3.9-1.7,5.6l1.1,8c0.2,1.7-0.9,2.6-2.5,1.9l-7.4-3.5c-1.6-0.7-4.2-0.7-5.9,0
			l-7.2,3.5c-1.6,0.7-2.7,0-2.5-1.9l1-8c0.2-1.7-0.6-4.2-1.9-5.6l-5.6-5.9c-1.2-1.2-0.9-2.6,1-3l8-1.5c1.7-0.4,3.9-1.9,4.7-3.5
			l3.9-7.1c0.9-1.6,2.2-1.6,3.1,0l3.9,7.1c0.9,1.6,3,3.1,4.7,3.5l8,1.4c1.7,0.4,2.2,1.6,1,3L142.5,275.6z"/>
		<path fill="#FFD983" d="M118.7,256.3c1.2,1.7,3,6.1,2.1,6.7c-0.9,0.6-4.5-2.4-5.7-4.1c-1.2-1.7-1.1-3.4-0.1-4.1
			C115.9,254.1,117.4,254.5,118.7,256.3z"/>
		<path fill="#FFD983" d="M142.9,258.9c-1.2,1.7-4.9,4.9-5.7,4.1c-0.9-0.6,0.9-5,2.1-6.7s2.7-2.1,3.7-1.4S144.2,257.1,142.9,258.9z"
			/>
		<path fill="#FFD983" d="M127.2,295.1c0-2.1,1.1-6.7,2.2-6.7c1.1,0,2.2,4.6,2.2,6.7c0,2.1-1,3.4-2.2,3.4
			C128.3,298.5,127.2,297.4,127.2,295.1z"/>
		<path fill="#FFD983" d="M147.4,283.5c-2.1-0.6-6.1-3.1-5.7-4.2c0.4-1.1,5-0.7,7.1,0c2.1,0.6,2.9,2,2.5,3.2
			C150.9,283.6,149.5,284.3,147.4,283.5z"/>
		<path fill="#FFD983" d="M109,279.3c2.1-0.6,6.7-1,7.1,0c0.4,1.1-3.6,3.6-5.7,4.2s-3.5,0.1-3.9-1.1C106.2,281.3,107,280,109,279.3z
			"/>
	</g>
	<g>
		<path fill="#66757F" d="M78.2,295c0,1.4-1.1,2.5-2.5,2.5h-3.7c-1.4,0-2.5-1.1-2.5-2.5v-10c0-1.4,1.1-2.5,2.5-2.5h3.7
			c1.4,0,2.5,1.1,2.5,2.5V295z"/>
		<path fill="#66757F" d="M46.9,295c0,1.4-1.1,2.5-2.5,2.5h-3.7c-1.4,0-2.5-1.1-2.5-2.5v-10c0-1.4,1.1-2.5,2.5-2.5h3.7
			c1.4,0,2.5,1.1,2.5,2.5V295z"/>
		<path fill="#66757F" d="M41.9,273.1c0,1-0.9,1.9-1.9,1.9h-2.5c-1,0-1.9-0.9-1.9-1.9l0,0c0-1,0.9-1.9,1.9-1.9H40
			C41,271.3,41.9,272.1,41.9,273.1L41.9,273.1z"/>
		<path fill="#66757F" d="M80.7,273.1c0-1-0.9-1.9-1.9-1.9h-2.5c-1,0-1.9,0.9-1.9,1.9l0,0c0,1,0.9,1.9,1.9,1.9h2.5
			C79.8,275,80.7,274.1,80.7,273.1L80.7,273.1z"/>
		<path fill="#CCD6DD" d="M47.5,259.1c5-1.2,17.5-1.2,22.5,0c4.9,1.2,6,13.7,6,13.7s2.2,0,2.2,5c0,5,0,10,0,10s0.2,3.7-3.5,5
			c-4.9,1.6-9.9,1.2-16.1,1.2s-11.6,0.4-16.5-1.2c-3.7-1.2-4-5-4-5v-10c0,0,0.2-5,2.7-5C40.9,272.9,42.7,260.4,47.5,259.1z"/>
		<path fill="#292F33" d="M58.2,279.1c-7.1,0-13.7-0.1-20-0.4v9.1c0,0,0.2,3.7,4,5c4.9,1.6,10.1,1.2,16.4,1.2s11.1,0.4,16-1.2
			c3.7-1.2,3.5-5,3.5-5s0-4.4,0-9.1C73.2,279,65.3,279.1,58.2,279.1z"/>
		<path fill="#55ACEE" d="M58.8,271.6c4.9,0,10.7,0.2,15,0.7l-1.2-7c-1.2-3.7-8.7-3.7-13.7-3.7s-12.5,0-13.7,3.7l-1.2,7
			C48,271.9,53.9,271.6,58.8,271.6z"/>
		<path fill="#CCD6DD" d="M50.7,283.8c0,1.4-1.1,2.5-2.5,2.5h-5c-1.4,0-2.5-1.1-2.5-2.5l0,0c0-1.4,1.1-2.5,2.5-2.5h5
			C49.5,281.3,50.7,282.4,50.7,283.8L50.7,283.8z"/>
		<path fill="#CCD6DD" d="M75.7,283.8c0-1.4-1.1-2.5-2.5-2.5h-5c-1.4,0-2.5,1.1-2.5,2.5l0,0c0,1.4,1.1,2.5,2.5,2.5h5
			C74.5,286.3,75.7,285.1,75.7,283.8L75.7,283.8z"/>
		<path fill="#66757F" d="M71.9,289.4c0,1-0.9,1.9-1.9,1.9H46.3c-1,0-1.9-0.9-1.9-1.9l0,0c0-1,0.9-1.9,1.9-1.9H70
			C71,287.5,71.9,288.4,71.9,289.4L71.9,289.4z"/>
		<path fill="#99AAB5" d="M51.3,279.1c-0.1,0-0.4,0-0.5-0.1l-7.5-3.7c-0.6-0.2-0.9-1-0.5-1.6c0.2-0.6,1-0.9,1.6-0.5l7.5,3.7
			c0.6,0.2,0.9,1,0.5,1.6C52.2,278.9,51.8,279.1,51.3,279.1z"/>
		<path fill="#99AAB5" d="M66.3,279.1c-0.5,0-0.9-0.2-1.1-0.7c-0.2-0.6,0-1.4,0.5-1.6l7.5-3.7c0.6-0.2,1.4,0,1.6,0.5
			c0.2,0.6,0,1.4-0.5,1.6l-7.5,3.7C66.7,279.1,66.5,279.1,66.3,279.1z"/>
		<path fill="#DD2E44" d="M58.2,258.1c0,1-0.9,1.9-1.9,1.9h-8.7c-1,0-1.9-0.9-1.9-1.9l0,0c0-1,0.9-1.9,1.9-1.9h8.7
			C57.3,256.3,58.2,257.1,58.2,258.1L58.2,258.1z"/>
		<path fill="#55ACEE" d="M70.7,258.1c0,1-0.9,1.9-1.9,1.9H60c-1,0-1.9-0.9-1.9-1.9l0,0c0-1,0.9-1.9,1.9-1.9h8.7
			C69.8,256.3,70.7,257.1,70.7,258.1L70.7,258.1z"/>
		<rect x="55.7" y="256.3" fill="#F5F8FA" width="5" height="3.7"/>
	</g>
</g>
<g id="onboarding_slide_2_encrypted_hello_4">
	<g>
		<path fill="#FFCC4D" d="M362.5,275.9c0,11.7-9.5,21.2-21.2,21.2s-21.2-9.5-21.2-21.2c0-11.7,9.5-21.2,21.2-21.2
			S362.5,264.1,362.5,275.9"/>
		<ellipse fill="#664500" cx="341.3" cy="287.1" rx="6.2" ry="7.5"/>
		<path fill="#664500" d="M326.3,267.1c-0.2,0-0.5-0.1-0.7-0.2c-0.5-0.4-0.6-1.2-0.2-1.7c4.1-5.5,9.5-5.5,9.7-5.5
			c0.7,0,1.2,0.5,1.2,1.2c0,0.7-0.5,1.2-1.2,1.2c-0.2,0-4.5,0.1-7.7,4.5C327,266.9,326.7,267.1,326.3,267.1z"/>
		<path fill="#664500" d="M356.3,267.1c-0.4,0-0.7-0.1-1-0.5c-3.2-4.4-7.6-4.5-7.7-4.5c-0.6,0-1.2-0.6-1.2-1.2
			c0-0.7,0.5-1.2,1.2-1.2c0.2,0,5.6,0,9.7,5.5c0.4,0.5,0.2,1.4-0.2,1.7C356.8,267,356.5,267.1,356.3,267.1z"/>
		<path fill="#664500" d="M336.2,272.8l2.2-2.2c0.5-0.5,0.5-1.2,0-1.7c-0.5-0.5-1.2-0.5-1.7,0l-2.2,2.2l-2.2-2.2
			c-0.5-0.5-1.2-0.5-1.7,0c-0.5,0.5-0.5,1.2,0,1.7l2.2,2.2l-2.2,2.2c-0.5,0.5-0.5,1.2,0,1.7c0.2,0.2,0.6,0.4,0.9,0.4
			s0.6-0.1,0.9-0.4l2.2-2.2l2.2,2.2c0.2,0.2,0.6,0.4,0.9,0.4s0.6-0.1,0.9-0.4c0.5-0.5,0.5-1.2,0-1.7L336.2,272.8z"/>
		<path fill="#664500" d="M349.9,272.8l2.2-2.2c0.5-0.5,0.5-1.2,0-1.7c-0.5-0.5-1.2-0.5-1.7,0l-2.2,2.2l-2.2-2.2
			c-0.5-0.5-1.2-0.5-1.7,0c-0.5,0.5-0.5,1.2,0,1.7l2.2,2.2l-2.2,2.2c-0.5,0.5-0.5,1.2,0,1.7c0.2,0.2,0.6,0.4,0.9,0.4
			s0.6-0.1,0.9-0.4l2.2-2.2l2.2,2.2c0.2,0.2,0.6,0.4,0.9,0.4s0.6-0.1,0.9-0.4c0.5-0.5,0.5-1.2,0-1.7L349.9,272.8z"/>
	</g>
	<g>
		<path fill="#553788" d="M260.7,268.5c3.7,6.2,0,13.4-3.7,12.1c-3.7-1.2-5,2.5-1.2,3.7c3.7,1.2,11.9-0.6,16.2-5
			c1.2-1.2,2.5-1.2,2.5-1.2L260.7,268.5z"/>
		<path fill="#553788" d="M280.7,268.5c-3.7,6.2,0,13.4,3.7,12.1c3.7-1.2,5,2.5,1.2,3.7c-3.7,1.2-11.9-0.6-16.2-5
			c-1.2-1.2-2.5-1.2-2.5-1.2L280.7,268.5z"/>
		<path fill="#744EAA" d="M285.9,273.5c-3.7,6.2,0,13.4,3.7,12.1c3.7-1.2,5,2.5,1.2,3.7c-3.7,1.2-11.9-0.6-16.2-5
			c-1.2-1.2-2.5-1.2-2.5-1.2L285.9,273.5z"/>
		<path fill="#744EAA" d="M255.4,273.5c3.7,6.2,0,13.4-3.7,12.1c-3.7-1.2-5,2.5-1.2,3.7c3.7,1.2,11.9-0.6,16.2-5
			c1.2-1.2,2.5-1.2,2.5-1.2L255.4,273.5z"/>
		<path fill="#9266CC" d="M289.7,292.8c-3.4,1.1-8-7-6-13.2c2-4,3.2-8.6,3.2-12.2c0-9-7.2-13.7-16.2-13.7s-16.2,4.7-16.2,13.7
			c0,3.6,1.2,8.2,3.2,12.2c2,6.2-2.6,14.4-6,13.2c-3.7-1.2-5,3.7-1.2,5c3.7,1.2,10.4-0.7,15-5c2.7-2.5,5.2-2.5,5.2-2.5
			s2.5,0,5.2,2.5c4.6,4.2,11.2,6.2,15,5C294.7,296.5,293.4,291.5,289.7,292.8z"/>
		<circle fill="#292F33" cx="265.7" cy="279.8" r="2.5"/>
		<circle fill="#292F33" cx="275.7" cy="279.8" r="2.5"/>
	</g>
	<g>
		<path fill="#553788" d="M189.9,268.5c3.7,6.2,0,13.4-3.7,12.1c-3.7-1.2-5,2.5-1.2,3.7c3.7,1.2,11.9-0.6,16.2-5
			c1.2-1.2,2.5-1.2,2.5-1.2L189.9,268.5z"/>
		<path fill="#553788" d="M209.9,268.5c-3.7,6.2,0,13.4,3.7,12.1c3.7-1.2,5,2.5,1.2,3.7c-3.7,1.2-11.9-0.6-16.2-5
			c-1.2-1.2-2.5-1.2-2.5-1.2L209.9,268.5z"/>
		<path fill="#744EAA" d="M215.2,273.5c-3.7,6.2,0,13.4,3.7,12.1c3.7-1.2,5,2.5,1.2,3.7c-3.7,1.2-11.9-0.6-16.2-5
			c-1.2-1.2-2.5-1.2-2.5-1.2L215.2,273.5z"/>
		<path fill="#744EAA" d="M184.7,273.5c3.7,6.2,0,13.4-3.7,12.1c-3.7-1.2-5,2.5-1.2,3.7c3.7,1.2,11.9-0.6,16.2-5
			c1.2-1.2,2.5-1.2,2.5-1.2L184.7,273.5z"/>
		<path fill="#9266CC" d="M218.9,292.8c-3.4,1.1-8-7-6-13.2c2-4,3.2-8.6,3.2-12.2c0-9-7.2-13.7-16.2-13.7s-16.2,4.7-16.2,13.7
			c0,3.6,1.2,8.2,3.2,12.2c2,6.2-2.6,14.4-6,13.2c-3.7-1.2-5,3.7-1.2,5c3.7,1.2,10.4-0.7,15-5c2.7-2.5,5.2-2.5,5.2-2.5
			s2.5,0,5.2,2.5c4.6,4.2,11.2,6.2,15,5C223.9,296.5,222.7,291.5,218.9,292.8z"/>
		<circle fill="#292F33" cx="194.9" cy="279.8" r="2.5"/>
		<circle fill="#292F33" cx="204.9" cy="279.8" r="2.5"/>
	</g>
	<g>
		<path fill="#FDD888" d="M146.7,283.3c-0.7-8.2-4.9-12.4-4.9-12.4l-7.5-10H133h-3.7h-3.7h-1.2l-7.5,10c0,0-1.7,1.7-3.2,5.4
			c-2.5,0.9-4.2,3.1-4.2,5.9c0,1.7,0.7,3.4,2,4.6c-0.5,0.9-0.7,1.9-0.7,2.9c0,2.5,1.4,4.5,3.5,5.6c1.6,2.4,3.7,3.1,5.2,3.1h20
			c1.7,0,4.2-1,5.9-4.1c2.4-0.9,4.1-3.1,4.1-5.9C149.3,286.3,148.3,284.4,146.7,283.3z"/>
		<path fill="#FDD888" d="M129.3,260.9c0.6,0,1.4-0.2,1.9-0.5c0.5,0.4,1.2,0.5,1.9,0.5c2.1,0,5-2.9,5-5c0,0,0-2.5-2.5-2.5
			c-1,0-1.2,1.2-2.5,1.2s-1.2-1.2-3.7-1.2c-2.5,0-2.5,1.2-3.7,1.2c-1.2,0-1.5-1.2-2.5-1.2c-2.5,0-2.5,2.5-2.5,2.5c0,2.1,2.9,5,5,5
			c0.6,0,1.4-0.2,1.9-0.5C127.9,260.6,128.7,260.9,129.3,260.9z"/>
		<path fill="#BF6952" d="M136.8,260.9c0,0.7-0.5,1.2-1.2,1.2H123c-0.7,0-1.2-0.5-1.2-1.2l0,0c0-0.7,0.5-1.2,1.2-1.2h12.5
			C136.3,259.6,136.8,260.1,136.8,260.9L136.8,260.9z"/>
		<path fill="#67757F" d="M136.7,284c0-5.6-10.7-5.2-10.7-8.6c0-1.6,1.6-2.4,3.5-2.4c3.1,0,3.7,2,5.1,2c1,0,1.5-0.6,1.5-1.2
			c0-1.6-2.5-2.9-5-3.2V269c0-1-0.9-1.7-1.9-1.7s-1.9,0.7-1.9,1.7v1.6c-2.6,0.6-4.9,2.4-4.9,5.2c0,5.4,10.7,5.1,10.7,8.9
			c0,1.2-1.5,2.6-3.9,2.6c-3.6,0-4.9-2.4-6.2-2.4c-0.7,0-1.4,0.6-1.4,1.5c0,1.4,2.4,3.1,5.7,3.5l0,0v1.7c0,1,0.9,1.7,1.9,1.7
			s1.9-0.7,1.9-1.7V290l0,0C134.2,289.3,136.7,287.4,136.7,284z"/>
	</g>
	<g>
		<path fill="#3E721D" d="M70.9,287c-10,0-10.2,7.5-10.2,7.5V280h-5v14.5c0,0,0.2-7.5-9.7-7.5c-5,0-8.6-2.9-8.6-2.9
			S37.4,295,48.7,295c5,0,7.5,0,7.5,0s0,2.5,2.5,2.5c2.5,0,2.5-2.5,2.5-2.5s2.5,0,7.5,0c11.2,0,11.1-10.9,11.1-10.9
			S75.9,287,70.9,287z"/>
		<path fill="#FFAC33" d="M62.7,287.9c-0.4,0-0.9-0.1-1.1-0.4l-2.9-2l-2.9,2c-0.4,0.2-0.7,0.4-1.1,0.4c-0.1,0-0.4,0-0.5-0.1
			c-0.6-0.1-1.1-0.5-1.4-1.1l-1.5-3.1l-3.5,0.2h-0.1c-0.5,0-1.1-0.2-1.5-0.6c-0.4-0.4-0.6-1-0.6-1.6l0.2-3.5l-3.1-1.5
			c-0.5-0.2-1-0.7-1.1-1.4c-0.1-0.6,0-1.2,0.2-1.7l2-2.9l-2-2.9c-0.4-0.5-0.5-1.1-0.2-1.7c0.1-0.6,0.5-1.1,1.1-1.4l3.1-1.5l-0.2-3.5
			c0-0.6,0.1-1.2,0.6-1.6c0.4-0.4,0.9-0.6,1.5-0.6h0.1l3.5,0.2l1.5-3.1c0.2-0.5,0.7-1,1.4-1.1c0.1,0,0.4-0.1,0.5-0.1
			c0.4,0,0.9,0.1,1.1,0.4l2.9,2l2.9-2c0.4-0.2,0.7-0.4,1.1-0.4c0.1,0,0.4,0,0.5,0.1c0.6,0.1,1.1,0.5,1.4,1.1l1.5,3.1l3.5-0.2h0.1
			c0.5,0,1.1,0.2,1.5,0.6c0.4,0.4,0.6,1,0.6,1.6l-0.2,3.5l3.1,1.5c0.5,0.2,1,0.7,1.1,1.4s0,1.2-0.2,1.7l-2,2.9l2,2.9
			c0.4,0.5,0.5,1.1,0.2,1.7c-0.1,0.6-0.5,1.1-1.1,1.4l-3.1,1.5l0.2,3.5c0,0.6-0.1,1.1-0.6,1.6c-0.4,0.4-0.9,0.6-1.5,0.6h-0.1
			l-3.5-0.2l-1.5,3.1c-0.2,0.5-0.7,1-1.4,1.1C63,287.9,62.9,287.9,62.7,287.9z"/>
		<circle fill="#732700" cx="58.8" cy="270.8" r="8.7"/>
	</g>
</g>
<rect x="23.7" y="375" fill="none" width="353.3" height="325"/>
<text id="onboarding_slide_2_text" transform="matrix(1 0 0 1 52.1525 394.5776)"><tspan x="0" y="0" fill="#FFFFFF" font-family="'FiraMono-Medium'" font-size="26">CYPHOLOJI SHOWS YOU </tspan><tspan x="15.6" y="31.2" fill="#FFFFFF" font-family="'FiraMono-Medium'" font-size="26">HOW THAT WORKS BY </tspan><tspan x="-15.6" y="62.4" fill="#FFFFFF" font-family="'FiraMono-Medium'" font-size="26">USING A SIMPLE CIPHER </tspan><tspan x="-15.6" y="93.6" fill="#FFFFFF" font-family="'FiraMono-Medium'" font-size="26">TO TURN YOUR MESSAGES </tspan><tspan x="62.4" y="124.8" fill="#FFFFFF" font-family="'FiraMono-Medium'" font-size="26">INTO EMOJIS</tspan></text>
</svg>
