<?xml version="1.0" encoding="utf-8"?>
<!-- Generator: Adobe Illustrator 18.0.0, SVG Export Plug-In . SVG Version: 6.00 Build 0)  -->
<!DOCTYPE svg PUBLIC "-//W3C//DTD SVG 1.1//EN" "http://www.w3.org/Graphics/SVG/1.1/DTD/svg11.dtd">
<svg version="1.1" id="Layer_1" xmlns="http://www.w3.org/2000/svg" xmlns:xlink="http://www.w3.org/1999/xlink" x="0px" y="0px"
	 viewBox="0 0 315 560" enable-background="new 0 0 315 560" xml:space="preserve">
<polyline fill="#283344" points="0.5,560 0.5,0 315,0 315,560 "/>
<g id="onboarding_slide_1_text">
	<path fill="#FFFFFF" d="M26.8,306.3h5v1.7h-5v4.4h6.1v1.8h-8.4v-13.8h8.3l-0.3,1.8h-5.7V306.3z"/>
	<path fill="#FFFFFF" d="M38.4,302.5c0.1,0.8,0.3,3.2,0.3,5.5v6.3h-2.1v-13.8h3l4.4,11.7c-0.1-0.8-0.3-3-0.3-5.5v-6.3h2.1v13.8h-3
		L38.4,302.5z"/>
	<path fill="#FFFFFF" d="M59.5,301.5l-1.2,1.4c-0.8-0.7-1.8-1-2.9-1c-2.1,0-3.8,1.4-3.8,5.3c0,3.8,1.6,5.3,3.8,5.3
		c1.5,0,2.4-0.6,3.1-1.2l1.1,1.4c-0.9,0.9-2.3,1.6-4.3,1.6c-3.5,0-6.2-2.5-6.2-7.2c0-4.6,2.8-7.2,6.1-7.2
		C57.2,300.1,58.4,300.6,59.5,301.5z"/>
	<path fill="#FFFFFF" d="M69,308.2l3.9,6h-2.7l-3.5-5.7h-1.5v5.7h-2.3v-13.8h3.8c3.5,0,5.4,1.3,5.4,4
		C72.1,306.4,70.8,307.7,69,308.2z M66.9,302.1h-1.7v4.7h1.7c1.8,0,2.8-0.7,2.8-2.4C69.7,302.8,68.8,302.1,66.9,302.1z"/>
	<path fill="#FFFFFF" d="M81.4,314.2H79V309l-4.6-8.5H77l3.3,6.5l3.3-6.5H86l-4.6,8.5V314.2z"/>
	<path fill="#FFFFFF" d="M93.1,309.3h-1.7v4.9h-2.3v-13.8h3.8c3.5,0,5.5,1.4,5.5,4.3C98.5,308,96.3,309.3,93.1,309.3z M93.1,302.2
		h-1.7v5.4h1.7c1.7,0,2.9-0.7,2.9-2.8C96.1,302.9,94.9,302.2,93.1,302.2z"/>
	<path fill="#FFFFFF" d="M107.3,314.2H105v-11.9h-4.2v-1.9h10.7l-0.2,1.9h-4V314.2z"/>
	<path fill="#FFFFFF" d="M123.4,302.2h-3v10.3h3v1.8H115v-1.8h3v-10.3h-3v-1.8h8.3V302.2z"/>
	<path fill="#FFFFFF" d="M132.2,314.5c-3.5,0-5.2-2.8-5.2-7.1c0-4.3,1.8-7.2,5.2-7.2c3.5,0,5.2,2.8,5.2,7.2
		C137.4,311.6,135.7,314.5,132.2,314.5z M132.2,302c-2,0-2.9,1.8-2.9,5.4c0,3.6,0.9,5.3,2.9,5.3c2,0,2.9-1.8,2.9-5.4
		S134.2,302,132.2,302z"/>
	<path fill="#FFFFFF" d="M142.4,302.5c0.1,0.8,0.3,3.2,0.3,5.5v6.3h-2.1v-13.8h3l4.4,11.7c-0.1-0.8-0.3-3-0.3-5.5v-6.3h2.1v13.8h-3
		L142.4,302.5z"/>
	<path fill="#FFFFFF" d="M175.4,302.2h-3v10.3h3v1.8H167v-1.8h3v-10.3h-3v-1.8h8.3V302.2z"/>
	<path fill="#FFFFFF" d="M183.9,314.5c-2.2,0-3.9-0.7-5.1-1.8l1.3-1.4c1,0.9,2.2,1.4,3.8,1.4c1.6,0,2.9-0.7,2.9-2.2
		c0-1.2-0.6-1.8-2.8-2.5c-2.9-0.9-4.5-2-4.5-4.1c0-2.3,2-3.7,4.7-3.7c2,0,3.4,0.6,4.6,1.7l-1.2,1.4c-1-0.8-2.1-1.2-3.3-1.2
		c-1.4,0-2.5,0.6-2.5,1.8c0,1.1,0.8,1.6,3.2,2.3c2.3,0.7,4.1,1.7,4.1,4.3C189.2,312.8,187.2,314.5,183.9,314.5z"/>
	<path fill="#FFFFFF" d="M211.3,314.2H209v-11.9h-4.2v-1.9h10.7l-0.2,1.9h-4V314.2z"/>
	<path fill="#FFFFFF" d="M225.5,307.9h-4.5v6.3h-2.3v-13.8h2.3v5.6h4.5v-5.6h2.3v13.8h-2.3V307.9z"/>
	<path fill="#FFFFFF" d="M234.8,306.3h5v1.7h-5v4.4h6.1v1.8h-8.4v-13.8h8.3l-0.3,1.8h-5.7V306.3z"/>
	<path fill="#FFFFFF" d="M259.7,310.9l-1,3.3h-2.4l4.4-13.8h2.9l4.4,13.8h-2.5l-1-3.3H259.7z M264.1,309.1l-2-6.9l-2,6.9H264.1z"/>
	<path fill="#FFFFFF" d="M277,308.2l3.9,6h-2.7l-3.5-5.7h-1.5v5.7h-2.3v-13.8h3.8c3.5,0,5.4,1.3,5.4,4
		C280.1,306.4,278.8,307.7,277,308.2z M274.9,302.1h-1.7v4.7h1.7c1.8,0,2.8-0.7,2.8-2.4C277.7,302.8,276.8,302.1,274.9,302.1z"/>
	<path fill="#FFFFFF" d="M289.3,314.2H287v-11.9h-4.2v-1.9h10.7l-0.2,1.9h-4V314.2z"/>
	<path fill="#FFFFFF" d="M41.2,338.5c-3.5,0-5.2-2.8-5.2-7.1c0-4.3,1.8-7.2,5.2-7.2c3.5,0,5.2,2.8,5.2,7.2
		C46.4,335.6,44.7,338.5,41.2,338.5z M41.2,326c-2,0-2.9,1.8-2.9,5.4c0,3.6,0.9,5.3,2.9,5.3c2,0,2.9-1.8,2.9-5.4S43.2,326,41.2,326z
		"/>
	<path fill="#FFFFFF" d="M53.1,330.6h5.2v1.8h-5.2v5.9h-2.3v-13.8h8.5l-0.2,1.8h-5.9V330.6z"/>
	<path fill="#FFFFFF" d="M81.3,338.2H79v-11.9h-4.2v-1.9h10.7l-0.2,1.9h-4V338.2z"/>
	<path fill="#FFFFFF" d="M98,333.7c0,2.8-1.8,4.8-4.8,4.8c-3.1,0-4.8-1.9-4.8-4.8v-9.3h2.3v8.8c0,2.3,0.7,3.4,2.4,3.4
		c1.7,0,2.5-1.1,2.5-3.4v-8.8H98V333.7z"/>
	<path fill="#FFFFFF" d="M108,332.2l3.9,6h-2.7l-3.5-5.7h-1.5v5.7h-2.3v-13.8h3.8c3.5,0,5.4,1.3,5.4,4
		C111.1,330.4,109.8,331.7,108,332.2z M105.9,326.1h-1.7v4.7h1.7c1.8,0,2.8-0.7,2.8-2.4C108.7,326.8,107.8,326.1,105.9,326.1z"/>
	<path fill="#FFFFFF" d="M116.4,326.5c0.1,0.8,0.3,3.2,0.3,5.5v6.3h-2.1v-13.8h3l4.4,11.7c-0.1-0.8-0.3-3-0.3-5.5v-6.3h2.1v13.8h-3
		L116.4,326.5z"/>
	<path fill="#FFFFFF" d="M136.4,326.2h-3v10.3h3v1.8H128v-1.8h3v-10.3h-3v-1.8h8.3V326.2z"/>
	<path fill="#FFFFFF" d="M142.4,326.5c0.1,0.8,0.3,3.2,0.3,5.5v6.3h-2.1v-13.8h3l4.4,11.7c-0.1-0.8-0.3-3-0.3-5.5v-6.3h2.1v13.8h-3
		L142.4,326.5z"/>
	<path fill="#FFFFFF" d="M152.9,331.3c0-4.7,2.8-7.2,6-7.2c1.9,0,3,0.6,4.1,1.6l-1.3,1.3c-0.8-0.8-1.7-1.1-2.7-1.1
		c-1.9,0-3.7,1.4-3.7,5.3c0,3.9,1.1,5.4,3.3,5.4c0.8,0,1.6-0.2,2.3-0.6v-3.8h-2.3l-0.2-1.8h4.8v6.7c-1.3,0.7-2.7,1.3-4.6,1.3
		C155,338.5,152.9,336.1,152.9,331.3z"/>
	<path fill="#FFFFFF" d="M189.7,338.2h-2.1l-0.3-6.7c-0.1-2-0.1-3.9,0-5l-2,9.3h-2l-2.2-9.3c0.1,1.1,0.1,3.1,0.1,5.1l-0.3,6.7h-2.1
		l0.8-13.8h2.8l2,9.2l1.9-9.2h2.8L189.7,338.2z"/>
	<path fill="#FFFFFF" d="M195.8,330.3h5v1.7h-5v4.4h6.1v1.8h-8.4v-13.8h8.3l-0.3,1.8h-5.7V330.3z"/>
	<path fill="#FFFFFF" d="M209.9,338.5c-2.2,0-3.9-0.7-5.1-1.8l1.3-1.4c1,0.9,2.2,1.4,3.8,1.4c1.6,0,2.9-0.7,2.9-2.2
		c0-1.2-0.6-1.8-2.8-2.5c-2.9-0.9-4.5-2-4.5-4.1c0-2.3,2-3.7,4.7-3.7c2,0,3.4,0.6,4.6,1.7l-1.2,1.4c-1-0.8-2.1-1.2-3.3-1.2
		c-1.4,0-2.5,0.6-2.5,1.8c0,1.1,0.8,1.6,3.2,2.3c2.3,0.7,4.1,1.7,4.1,4.3C215.2,336.8,213.2,338.5,209.9,338.5z"/>
	<path fill="#FFFFFF" d="M222.9,338.5c-2.2,0-3.9-0.7-5.1-1.8l1.3-1.4c1,0.9,2.2,1.4,3.8,1.4c1.6,0,2.9-0.7,2.9-2.2
		c0-1.2-0.6-1.8-2.8-2.5c-2.9-0.9-4.5-2-4.5-4.1c0-2.3,2-3.7,4.7-3.7c2,0,3.4,0.6,4.6,1.7l-1.2,1.4c-1-0.8-2.1-1.2-3.3-1.2
		c-1.4,0-2.5,0.6-2.5,1.8c0,1.1,0.8,1.6,3.2,2.3c2.3,0.7,4.1,1.7,4.1,4.3C228.2,336.8,226.2,338.5,222.9,338.5z"/>
	<path fill="#FFFFFF" d="M233.7,334.9l-1,3.3h-2.4l4.4-13.8h2.9l4.4,13.8h-2.5l-1-3.3H233.7z M238.1,333.1l-2-6.9l-2,6.9H238.1z"/>
	<path fill="#FFFFFF" d="M243.9,331.3c0-4.7,2.8-7.2,6-7.2c1.9,0,3,0.6,4.1,1.6l-1.3,1.3c-0.8-0.8-1.7-1.1-2.7-1.1
		c-1.9,0-3.7,1.4-3.7,5.3c0,3.9,1.1,5.4,3.3,5.4c0.8,0,1.6-0.2,2.3-0.6v-3.8h-2.3l-0.2-1.8h4.8v6.7c-1.3,0.7-2.7,1.3-4.6,1.3
		C246,338.5,243.9,336.1,243.9,331.3z"/>
	<path fill="#FFFFFF" d="M260.8,330.3h5v1.7h-5v4.4h6.1v1.8h-8.4v-13.8h8.3l-0.3,1.8h-5.7V330.3z"/>
	<path fill="#FFFFFF" d="M274.9,338.5c-2.2,0-3.9-0.7-5.1-1.8l1.3-1.4c1,0.9,2.2,1.4,3.8,1.4c1.6,0,2.9-0.7,2.9-2.2
		c0-1.2-0.6-1.8-2.8-2.5c-2.9-0.9-4.5-2-4.5-4.1c0-2.3,2-3.7,4.7-3.7c2,0,3.4,0.6,4.6,1.7l-1.2,1.4c-1-0.8-2.1-1.2-3.3-1.2
		c-1.4,0-2.5,0.6-2.5,1.8c0,1.1,0.8,1.6,3.2,2.3c2.3,0.7,4.1,1.7,4.1,4.3C280.2,336.8,278.2,338.5,274.9,338.5z"/>
	<path fill="#FFFFFF" d="M77.9,350.2h-3v10.3h3v1.8h-8.3v-1.8h3v-10.3h-3v-1.8h8.3V350.2z"/>
	<path fill="#FFFFFF" d="M83.9,350.5c0.1,0.8,0.3,3.2,0.3,5.5v6.3h-2.1v-13.8h3l4.4,11.7c-0.1-0.8-0.3-3-0.3-5.5v-6.3h2.1v13.8h-3
		L83.9,350.5z"/>
	<path fill="#FFFFFF" d="M100.8,362.2h-2.3v-11.9h-4.2v-1.9h10.7l-0.2,1.9h-4V362.2z"/>
	<path fill="#FFFFFF" d="M112.7,362.5c-3.5,0-5.2-2.8-5.2-7.1c0-4.3,1.8-7.2,5.2-7.2c3.5,0,5.2,2.8,5.2,7.2
		C117.9,359.6,116.2,362.5,112.7,362.5z M112.7,350c-2,0-2.9,1.8-2.9,5.4c0,3.6,0.9,5.3,2.9,5.3c2,0,2.9-1.8,2.9-5.4
		S114.7,350,112.7,350z"/>
	<path fill="#FFFFFF" d="M138.4,362.5c-2.2,0-3.9-0.7-5.1-1.8l1.3-1.4c1,0.9,2.2,1.4,3.8,1.4c1.6,0,2.9-0.7,2.9-2.2
		c0-1.2-0.6-1.8-2.8-2.5c-2.9-0.9-4.5-2-4.5-4.1c0-2.3,2-3.7,4.7-3.7c2,0,3.4,0.6,4.6,1.7l-1.2,1.4c-1-0.8-2.1-1.2-3.3-1.2
		c-1.4,0-2.5,0.6-2.5,1.8c0,1.1,0.8,1.6,3.2,2.3c2.3,0.7,4.1,1.7,4.1,4.3C143.7,360.8,141.7,362.5,138.4,362.5z"/>
	<path fill="#FFFFFF" d="M157,349.5l-1.2,1.4c-0.8-0.7-1.8-1-2.9-1c-2.1,0-3.8,1.4-3.8,5.3c0,3.8,1.6,5.3,3.8,5.3
		c1.5,0,2.4-0.6,3.1-1.2l1.1,1.4c-0.9,0.9-2.3,1.6-4.3,1.6c-3.5,0-6.2-2.5-6.2-7.2c0-4.6,2.8-7.2,6.1-7.2
		C154.7,348.1,155.9,348.6,157,349.5z"/>
	<path fill="#FFFFFF" d="M166.5,356.2l3.9,6h-2.7l-3.5-5.7h-1.5v5.7h-2.3v-13.8h3.8c3.5,0,5.4,1.3,5.4,4
		C169.6,354.4,168.3,355.7,166.5,356.2z M164.4,350.1h-1.7v4.7h1.7c1.8,0,2.8-0.7,2.8-2.4C167.2,350.8,166.3,350.1,164.4,350.1z"/>
	<path fill="#FFFFFF" d="M175.2,358.9l-1,3.3h-2.4l4.4-13.8h2.9l4.4,13.8h-2.5l-1-3.3H175.2z M179.6,357.1l-2-6.9l-2,6.9H179.6z"/>
	<path fill="#FFFFFF" d="M196.2,362.2h-2.1l-0.3-6.7c-0.1-2-0.1-3.9,0-5l-2,9.3h-2l-2.2-9.3c0.1,1.1,0.1,3.1,0.1,5.1l-0.3,6.7h-2.1
		l0.8-13.8h2.8l2,9.2l1.9-9.2h2.8L196.2,362.2z"/>
	<path fill="#FFFFFF" d="M203.4,362.2h-4v-13.8h3.8c2.6,0,5,0.8,5,3.5c0,1.7-1.2,2.7-2.6,3c1.5,0.3,3.2,1.1,3.2,3.3
		C208.7,361.3,206.1,362.2,203.4,362.2z M203.3,350.2h-1.7v4h1.8c1.5,0,2.3-0.6,2.3-2C205.8,350.7,204.9,350.2,203.3,350.2z
		 M203.6,355.9h-2v4.5h1.9c1.3,0,2.8-0.3,2.8-2.2C206.3,356.4,205.1,355.9,203.6,355.9z"/>
	<path fill="#FFFFFF" d="M213.1,348.4h2.3v11.9h6.2l-0.3,1.9h-8.2V348.4z"/>
	<path fill="#FFFFFF" d="M228.3,354.3h5v1.7h-5v4.4h6.1v1.8H226v-13.8h8.3l-0.3,1.8h-5.7V354.3z"/>
	<path fill="#FFFFFF" d="M241.5,362.2h-3.4v-13.8h3.2c3.4,0,6.6,1.1,6.6,6.8C247.9,361,244.6,362.2,241.5,362.2z M241.7,350.2h-1.3
		v10.3h1.3c1.9,0,3.7-1,3.7-5.2C245.5,350.9,243.6,350.2,241.7,350.2z"/>
	<path fill="#FFFFFF" d="M118.2,386.2h-2.1l-0.3-6.7c-0.1-2-0.1-3.9,0-5l-2,9.3h-2l-2.2-9.3c0.1,1.1,0.1,3.1,0.1,5.1l-0.3,6.7h-2.1
		l0.8-13.8h2.8l2,9.2l1.9-9.2h2.8L118.2,386.2z"/>
	<path fill="#FFFFFF" d="M124.3,378.3h5v1.7h-5v4.4h6.1v1.8H122v-13.8h8.3l-0.3,1.8h-5.7V378.3z"/>
	<path fill="#FFFFFF" d="M138.4,386.5c-2.2,0-3.9-0.7-5.1-1.8l1.3-1.4c1,0.9,2.2,1.4,3.8,1.4c1.6,0,2.9-0.7,2.9-2.2
		c0-1.2-0.6-1.8-2.8-2.5c-2.9-0.9-4.5-2-4.5-4.1c0-2.3,2-3.7,4.7-3.7c2,0,3.4,0.6,4.6,1.7l-1.2,1.4c-1-0.8-2.1-1.2-3.3-1.2
		c-1.4,0-2.5,0.6-2.5,1.8c0,1.1,0.8,1.6,3.2,2.3c2.3,0.7,4.1,1.7,4.1,4.3C143.7,384.8,141.7,386.5,138.4,386.5z"/>
	<path fill="#FFFFFF" d="M151.4,386.5c-2.2,0-3.9-0.7-5.1-1.8l1.3-1.4c1,0.9,2.2,1.4,3.8,1.4c1.6,0,2.9-0.7,2.9-2.2
		c0-1.2-0.6-1.8-2.8-2.5c-2.9-0.9-4.5-2-4.5-4.1c0-2.3,2-3.7,4.7-3.7c2,0,3.4,0.6,4.6,1.7l-1.2,1.4c-1-0.8-2.1-1.2-3.3-1.2
		c-1.4,0-2.5,0.6-2.5,1.8c0,1.1,0.8,1.6,3.2,2.3c2.3,0.7,4.1,1.7,4.1,4.3C156.7,384.8,154.7,386.5,151.4,386.5z"/>
	<path fill="#FFFFFF" d="M162.2,382.9l-1,3.3h-2.4l4.4-13.8h2.9l4.4,13.8h-2.5l-1-3.3H162.2z M166.6,381.1l-2-6.9l-2,6.9H166.6z"/>
	<path fill="#FFFFFF" d="M172.4,379.3c0-4.7,2.8-7.2,6-7.2c1.9,0,3,0.6,4.1,1.6l-1.3,1.3c-0.8-0.8-1.7-1.1-2.7-1.1
		c-1.9,0-3.7,1.4-3.7,5.3c0,3.9,1.1,5.4,3.3,5.4c0.8,0,1.6-0.2,2.3-0.6v-3.8h-2.3l-0.2-1.8h4.8v6.7c-1.3,0.7-2.7,1.3-4.6,1.3
		C174.5,386.5,172.4,384.1,172.4,379.3z"/>
	<path fill="#FFFFFF" d="M189.3,378.3h5v1.7h-5v4.4h6.1v1.8H187v-13.8h8.3l-0.3,1.8h-5.7V378.3z"/>
	<path fill="#FFFFFF" d="M203.4,386.5c-2.2,0-3.9-0.7-5.1-1.8l1.3-1.4c1,0.9,2.2,1.4,3.8,1.4c1.6,0,2.9-0.7,2.9-2.2
		c0-1.2-0.6-1.8-2.8-2.5c-2.9-0.9-4.5-2-4.5-4.1c0-2.3,2-3.7,4.7-3.7c2,0,3.4,0.6,4.6,1.7l-1.2,1.4c-1-0.8-2.1-1.2-3.3-1.2
		c-1.4,0-2.5,0.6-2.5,1.8c0,1.1,0.8,1.6,3.2,2.3c2.3,0.7,4.1,1.7,4.1,4.3C208.7,384.8,206.7,386.5,203.4,386.5z"/>
</g>
<g id="onboarding_slide_1_hello">
	<g id="onboarding_slide_1_A5">
		<path id="path22_87_" fill="#3B88C3" d="M293.2,134.1c0,2.8-2.2,5-5,5h-35c-2.8,0-5-2.2-5-5v-35c0-2.8,2.2-5,5-5h35
			c2.8,0,5,2.2,5,5V134.1z"/>
		<path id="path26_80_" fill="#FFFFFF" d="M278,116.6c0-4.7-2.4-8.9-7.3-8.9s-7.3,4.2-7.3,8.9c0,4.7,2.4,8.9,7.3,8.9
			C275.7,125.5,278,121.3,278,116.6 M257.4,116.6c0-8.1,5.4-14.3,13.3-14.3c7.8,0,13.3,6.4,13.3,14.3c0,8-5.4,14.3-13.3,14.3
			C262.9,130.8,257.4,124.6,257.4,116.6"/>
	</g>
	<g id="onboarding_slide_1_A4">
		<path id="path22_83_" fill="#3B88C3" d="M180,134.1c0,2.8-2.2,5-5,5h-35c-2.8,0-5-2.2-5-5v-35c0-2.8,2.2-5,5-5h35c2.8,0,5,2.2,5,5
			V134.1z"/>
		<path id="path26_75_" fill="#FFFFFF" d="M151,105.6c0-1.9,1.2-3,2.9-3c1.7,0,2.9,1.1,2.9,3V125h6.9c2,0,2.8,1.5,2.8,2.8
			c-0.1,1.3-1.1,2.6-2.8,2.6h-9.7c-1.9,0-3-1.2-3-3.2V105.6z"/>
	</g>
	<g id="onboarding_slide_1_A3">
		<path id="path22_85_" fill="#3B88C3" d="M236.6,134.1c0,2.8-2.2,5-5,5h-35c-2.8,0-5-2.2-5-5v-35c0-2.8,2.2-5,5-5h35
			c2.8,0,5,2.2,5,5V134.1z"/>
		<path id="path26_78_" fill="#FFFFFF" d="M207.6,105.6c0-1.9,1.2-3,2.9-3c1.7,0,2.9,1.1,2.9,3V125h6.9c2,0,2.8,1.5,2.8,2.8
			c-0.1,1.3-1.1,2.6-2.8,2.6h-9.7c-1.9,0-3-1.2-3-3.2V105.6z"/>
	</g>
	<g id="onboarding_slide_1_A2">
		<path id="path22_81_" fill="#3B88C3" d="M123.4,134.1c0,2.8-2.2,5-5,5h-35c-2.8,0-5-2.2-5-5v-35c0-2.8,2.2-5,5-5h35
			c2.8,0,5,2.2,5,5V134.1z"/>
		<path id="path26_73_" fill="#FFFFFF" d="M93.7,106.1c0-1.9,1-3.4,3-3.4h9.6c1.9,0,2.8,1.3,2.8,2.7c0,1.3-0.9,2.7-2.8,2.7h-6.8v5.7
			h6.4c1.9,0,2.8,1.3,2.8,2.7c0,1.3-1,2.7-2.8,2.7h-6.4v5.9h7.2c1.9,0,2.8,1.3,2.8,2.7c0,1.3-0.9,2.7-2.8,2.7h-10
			c-1.7,0-3-1.2-3-2.9V106.1z"/>
	</g>
	<g id="onboarding_slide_1_A1">
		<path id="path22_79_" fill="#3B88C3" d="M66.8,134.1c0,2.8-2.2,5-5,5h-35c-2.8,0-5-2.2-5-5v-35c0-2.8,2.2-5,5-5h35
			c2.8,0,5,2.2,5,5V134.1z"/>
		<path id="path26_69_" fill="#FFFFFF" d="M53.7,102.9c-1.7,0-3.1,1.4-3.1,3.1v6.9H38.1V106c0-1.7-1.4-3.1-3.1-3.1
			c-1.7,0-3.1,1.4-3.1,3.1v21.2c0,1.7,1.4,3.1,3.1,3.1c1.7,0,3.1-1.4,3.1-3.1v-8.1h12.5v8.1c0,1.7,1.4,3.1,3.1,3.1
			c1.7,0,3.1-1.4,3.1-3.1V106C56.8,104.3,55.4,102.9,53.7,102.9"/>
	</g>
</g>
<g id="onboarding_slide1_lines">
	<path id="onboarding_slide1_line_5" fill="#FFFFFF" d="M43.6,185.1c0-0.4,0.3-0.8,0.8-0.8l0,0c0.4,0,0.8,0.3,0.8,0.8l0,0
		c0,0.4-0.3,0.8-0.8,0.8l0,0C43.9,185.9,43.6,185.5,43.6,185.1z M43.6,182.2c0-0.4,0.3-0.8,0.8-0.8l0,0c0.4,0,0.8,0.3,0.8,0.8l0,0
		c0,0.4-0.3,0.8-0.8,0.8l0,0C43.9,183,43.6,182.6,43.6,182.2z M43.6,179.3c0-0.4,0.3-0.8,0.8-0.8l0,0c0.4,0,0.8,0.3,0.8,0.8l0,0
		c0,0.4-0.3,0.8-0.8,0.8l0,0C43.9,180,43.6,179.7,43.6,179.3z M43.6,176.4c0-0.4,0.3-0.8,0.8-0.8l0,0c0.4,0,0.8,0.3,0.8,0.8l0,0
		c0,0.4-0.3,0.8-0.8,0.8l0,0C43.9,177.1,43.6,176.8,43.6,176.4z M43.6,173.5c0-0.4,0.3-0.8,0.8-0.8l0,0c0.4,0,0.8,0.3,0.8,0.8l0,0
		c0,0.4-0.3,0.8-0.8,0.8l0,0C43.9,174.2,43.6,173.9,43.6,173.5z M43.6,170.6c0-0.4,0.3-0.8,0.8-0.8l0,0c0.4,0,0.8,0.3,0.8,0.8l0,0
		c0,0.4-0.3,0.8-0.8,0.8l0,0C43.9,171.3,43.6,171,43.6,170.6z M43.6,167.7c0-0.4,0.3-0.8,0.8-0.8l0,0c0.4,0,0.8,0.3,0.8,0.8l0,0
		c0,0.4-0.3,0.8-0.8,0.8l0,0C43.9,168.4,43.6,168.1,43.6,167.7z M43.6,164.8c0-0.4,0.3-0.8,0.8-0.8l0,0c0.4,0,0.8,0.3,0.8,0.8l0,0
		c0,0.4-0.3,0.8-0.8,0.8l0,0C43.9,165.5,43.6,165.2,43.6,164.8z M43.6,161.8c0-0.4,0.3-0.8,0.8-0.8l0,0c0.4,0,0.8,0.3,0.8,0.8l0,0
		c0,0.4-0.3,0.8-0.8,0.8l0,0C43.9,162.6,43.6,162.2,43.6,161.8z M43.6,158.9c0-0.4,0.3-0.8,0.8-0.8l0,0c0.4,0,0.8,0.3,0.8,0.8l0,0
		c0,0.4-0.3,0.8-0.8,0.8l0,0C43.9,159.7,43.6,159.3,43.6,158.9z M43.6,156c0-0.4,0.3-0.8,0.8-0.8l0,0c0.4,0,0.8,0.3,0.8,0.8l0,0
		c0,0.4-0.3,0.8-0.8,0.8l0,0C43.9,156.8,43.6,156.4,43.6,156z M43.6,153.1c0-0.4,0.3-0.8,0.8-0.8l0,0c0.4,0,0.8,0.3,0.8,0.8l0,0
		c0,0.4-0.3,0.8-0.8,0.8l0,0C43.9,153.9,43.6,153.5,43.6,153.1z"/>
	<path id="onboarding_slide1_line_4" fill="#FFFFFF" d="M100.3,185.1c0-0.4,0.3-0.8,0.8-0.8l0,0c0.4,0,0.8,0.3,0.8,0.8l0,0
		c0,0.4-0.3,0.8-0.8,0.8l0,0C100.7,185.9,100.3,185.5,100.3,185.1z M100.3,182.2c0-0.4,0.3-0.8,0.8-0.8l0,0c0.4,0,0.8,0.3,0.8,0.8
		l0,0c0,0.4-0.3,0.8-0.8,0.8l0,0C100.7,183,100.3,182.6,100.3,182.2z M100.3,179.3c0-0.4,0.3-0.7,0.8-0.7l0,0c0.4,0,0.8,0.3,0.8,0.7
		l0,0c0,0.4-0.3,0.8-0.8,0.8l0,0C100.7,180,100.3,179.7,100.3,179.3z M100.3,176.4c0-0.4,0.3-0.8,0.8-0.8l0,0c0.4,0,0.8,0.3,0.8,0.8
		l0,0c0,0.4-0.3,0.8-0.8,0.8l0,0C100.7,177.1,100.3,176.8,100.3,176.4z M100.3,173.5c0-0.4,0.3-0.8,0.8-0.8l0,0
		c0.4,0,0.8,0.3,0.8,0.8l0,0c0,0.4-0.3,0.8-0.8,0.8l0,0C100.7,174.2,100.3,173.9,100.3,173.5z M100.3,170.6c0-0.4,0.3-0.8,0.8-0.8
		l0,0c0.4,0,0.8,0.3,0.8,0.8l0,0c0,0.4-0.3,0.8-0.8,0.8l0,0C100.7,171.3,100.3,171,100.3,170.6z M100.3,167.7c0-0.4,0.3-0.8,0.8-0.8
		l0,0c0.4,0,0.8,0.3,0.8,0.8l0,0c0,0.4-0.3,0.8-0.8,0.8l0,0C100.7,168.4,100.3,168.1,100.3,167.7z M100.3,164.8
		c0-0.4,0.3-0.8,0.8-0.8l0,0c0.4,0,0.8,0.3,0.8,0.8l0,0c0,0.4-0.3,0.8-0.8,0.8l0,0C100.7,165.5,100.3,165.2,100.3,164.8z
		 M100.3,161.8c0-0.4,0.3-0.8,0.8-0.8l0,0c0.4,0,0.8,0.3,0.8,0.8l0,0c0,0.4-0.3,0.8-0.8,0.8l0,0
		C100.7,162.6,100.3,162.2,100.3,161.8z M100.3,158.9c0-0.4,0.3-0.8,0.8-0.8l0,0c0.4,0,0.8,0.3,0.8,0.8l0,0c0,0.4-0.3,0.8-0.8,0.8
		l0,0C100.7,159.7,100.3,159.3,100.3,158.9z M100.3,156c0-0.4,0.3-0.8,0.8-0.8l0,0c0.4,0,0.8,0.3,0.8,0.8l0,0c0,0.4-0.3,0.8-0.8,0.8
		l0,0C100.7,156.8,100.3,156.4,100.3,156z M100.3,153.1c0-0.4,0.3-0.8,0.8-0.8l0,0c0.4,0,0.8,0.3,0.8,0.8l0,0c0,0.4-0.3,0.8-0.8,0.8
		l0,0C100.7,153.9,100.3,153.5,100.3,153.1z"/>
	<path id="onboarding_slide1_line_3" fill="#FFFFFF" d="M157.1,185.1c0-0.4,0.3-0.8,0.8-0.8l0,0c0.4,0,0.8,0.3,0.8,0.8l0,0
		c0,0.4-0.3,0.8-0.8,0.8l0,0C157.4,185.9,157.1,185.5,157.1,185.1z M157.1,182.2c0-0.4,0.3-0.8,0.8-0.8l0,0c0.4,0,0.8,0.3,0.8,0.8
		l0,0c0,0.4-0.3,0.8-0.8,0.8l0,0C157.4,183,157.1,182.6,157.1,182.2z M157.1,179.3c0-0.4,0.3-0.7,0.8-0.7l0,0c0.4,0,0.8,0.3,0.8,0.7
		l0,0c0,0.4-0.3,0.8-0.8,0.8l0,0C157.4,180,157.1,179.7,157.1,179.3z M157.1,176.4c0-0.4,0.3-0.8,0.8-0.8l0,0c0.4,0,0.8,0.3,0.8,0.8
		l0,0c0,0.4-0.3,0.8-0.8,0.8l0,0C157.4,177.1,157.1,176.8,157.1,176.4z M157.1,173.5c0-0.4,0.3-0.8,0.8-0.8l0,0
		c0.4,0,0.8,0.3,0.8,0.8l0,0c0,0.4-0.3,0.8-0.8,0.8l0,0C157.4,174.2,157.1,173.9,157.1,173.5z M157.1,170.6c0-0.4,0.3-0.8,0.8-0.8
		l0,0c0.4,0,0.8,0.3,0.8,0.8l0,0c0,0.4-0.3,0.8-0.8,0.8l0,0C157.4,171.3,157.1,171,157.1,170.6z M157.1,167.7c0-0.4,0.3-0.8,0.8-0.8
		l0,0c0.4,0,0.8,0.3,0.8,0.8l0,0c0,0.4-0.3,0.8-0.8,0.8l0,0C157.4,168.4,157.1,168.1,157.1,167.7z M157.1,164.8
		c0-0.4,0.3-0.8,0.8-0.8l0,0c0.4,0,0.8,0.3,0.8,0.8l0,0c0,0.4-0.3,0.8-0.8,0.8l0,0C157.4,165.5,157.1,165.2,157.1,164.8z
		 M157.1,161.8c0-0.4,0.3-0.8,0.8-0.8l0,0c0.4,0,0.8,0.3,0.8,0.8l0,0c0,0.4-0.3,0.8-0.8,0.8l0,0
		C157.4,162.6,157.1,162.2,157.1,161.8z M157.1,158.9c0-0.4,0.3-0.8,0.8-0.8l0,0c0.4,0,0.8,0.3,0.8,0.8l0,0c0,0.4-0.3,0.8-0.8,0.8
		l0,0C157.4,159.7,157.1,159.3,157.1,158.9z M157.1,156c0-0.4,0.3-0.8,0.8-0.8l0,0c0.4,0,0.8,0.3,0.8,0.8l0,0c0,0.4-0.3,0.8-0.8,0.8
		l0,0C157.4,156.8,157.1,156.4,157.1,156z M157.1,153.1c0-0.4,0.3-0.8,0.8-0.8l0,0c0.4,0,0.8,0.3,0.8,0.8l0,0c0,0.4-0.3,0.8-0.8,0.8
		l0,0C157.4,153.9,157.1,153.5,157.1,153.1z"/>
	<path id="onboarding_slide1_line_2" fill="#FFFFFF" d="M213.9,185.1c0-0.4,0.3-0.8,0.8-0.8l0,0c0.4,0,0.8,0.3,0.8,0.8l0,0
		c0,0.4-0.3,0.8-0.8,0.8l0,0C214.2,185.9,213.9,185.5,213.9,185.1z M213.9,182.2c0-0.4,0.3-0.8,0.8-0.8l0,0c0.4,0,0.8,0.3,0.8,0.8
		l0,0c0,0.4-0.3,0.8-0.8,0.8l0,0C214.2,183,213.9,182.6,213.9,182.2z M213.9,179.3c0-0.4,0.3-0.8,0.8-0.8l0,0c0.4,0,0.8,0.3,0.8,0.8
		l0,0c0,0.4-0.3,0.8-0.8,0.8l0,0C214.2,180.1,213.9,179.7,213.9,179.3z M213.9,176.4c0-0.4,0.3-0.8,0.8-0.8l0,0
		c0.4,0,0.8,0.3,0.8,0.8l0,0c0,0.4-0.3,0.8-0.8,0.8l0,0C214.2,177.1,213.9,176.8,213.9,176.4z M213.9,173.5c0-0.4,0.3-0.8,0.8-0.8
		l0,0c0.4,0,0.8,0.3,0.8,0.8l0,0c0,0.4-0.3,0.8-0.8,0.8l0,0C214.2,174.2,213.9,173.9,213.9,173.5z M213.9,170.6
		c0-0.4,0.3-0.8,0.8-0.8l0,0c0.4,0,0.8,0.3,0.8,0.8l0,0c0,0.4-0.3,0.8-0.8,0.8l0,0C214.2,171.3,213.9,171,213.9,170.6z M213.9,167.7
		c0-0.4,0.3-0.8,0.8-0.8l0,0c0.4,0,0.8,0.3,0.8,0.8l0,0c0,0.4-0.3,0.8-0.8,0.8l0,0C214.2,168.4,213.9,168.1,213.9,167.7z
		 M213.9,164.8c0-0.4,0.3-0.8,0.8-0.8l0,0c0.4,0,0.8,0.3,0.8,0.8l0,0c0,0.4-0.3,0.8-0.8,0.8l0,0
		C214.2,165.5,213.9,165.2,213.9,164.8z M213.9,161.8c0-0.4,0.3-0.8,0.8-0.8l0,0c0.4,0,0.8,0.3,0.8,0.8l0,0c0,0.4-0.3,0.8-0.8,0.8
		l0,0C214.2,162.6,213.9,162.2,213.9,161.8z M213.9,158.9c0-0.4,0.3-0.8,0.8-0.8l0,0c0.4,0,0.8,0.3,0.8,0.8l0,0
		c0,0.4-0.3,0.8-0.8,0.8l0,0C214.2,159.7,213.9,159.3,213.9,158.9z M213.9,156c0-0.4,0.3-0.8,0.8-0.8l0,0c0.4,0,0.8,0.3,0.8,0.8l0,0
		c0,0.4-0.3,0.8-0.8,0.8l0,0C214.2,156.8,213.9,156.4,213.9,156z M213.9,153.1c0-0.4,0.3-0.8,0.8-0.8l0,0c0.4,0,0.8,0.3,0.8,0.8l0,0
		c0,0.4-0.3,0.8-0.8,0.8l0,0C214.2,153.9,213.9,153.5,213.9,153.1z"/>
	<path id="onboarding_slide1_line_1" fill="#FFFFFF" d="M270.6,185.1c0-0.4,0.3-0.8,0.8-0.8l0,0c0.4,0,0.8,0.3,0.8,0.8l0,0
		c0,0.4-0.3,0.8-0.8,0.8l0,0C270.9,185.9,270.6,185.5,270.6,185.1z M270.6,182.2c0-0.4,0.3-0.8,0.8-0.8l0,0c0.4,0,0.8,0.3,0.8,0.8
		l0,0c0,0.4-0.3,0.8-0.8,0.8l0,0C270.9,183,270.6,182.6,270.6,182.2z M270.6,179.3c0-0.4,0.3-0.8,0.8-0.8l0,0c0.4,0,0.8,0.3,0.8,0.8
		l0,0c0,0.4-0.3,0.7-0.8,0.7l0,0C270.9,180,270.6,179.7,270.6,179.3z M270.6,176.4c0-0.4,0.3-0.8,0.8-0.8l0,0c0.4,0,0.8,0.3,0.8,0.8
		l0,0c0,0.4-0.3,0.8-0.8,0.8l0,0C270.9,177.1,270.6,176.8,270.6,176.4z M270.6,173.5c0-0.4,0.3-0.8,0.8-0.8l0,0
		c0.4,0,0.8,0.3,0.8,0.8l0,0c0,0.4-0.3,0.8-0.8,0.8l0,0C270.9,174.2,270.6,173.9,270.6,173.5z M270.6,170.6c0-0.4,0.3-0.8,0.8-0.8
		l0,0c0.4,0,0.8,0.3,0.8,0.8l0,0c0,0.4-0.3,0.8-0.8,0.8l0,0C270.9,171.3,270.6,171,270.6,170.6z M270.6,167.7c0-0.4,0.3-0.8,0.8-0.8
		l0,0c0.4,0,0.8,0.3,0.8,0.8l0,0c0,0.4-0.3,0.8-0.8,0.8l0,0C270.9,168.4,270.6,168.1,270.6,167.7z M270.6,164.8
		c0-0.4,0.3-0.8,0.8-0.8l0,0c0.4,0,0.8,0.3,0.8,0.8l0,0c0,0.4-0.3,0.8-0.8,0.8l0,0C270.9,165.5,270.6,165.2,270.6,164.8z
		 M270.6,161.8c0-0.4,0.3-0.8,0.8-0.8l0,0c0.4,0,0.8,0.3,0.8,0.8l0,0c0,0.4-0.3,0.8-0.8,0.8l0,0
		C270.9,162.6,270.6,162.2,270.6,161.8z M270.6,158.9c0-0.4,0.3-0.8,0.8-0.8l0,0c0.4,0,0.8,0.3,0.8,0.8l0,0c0,0.4-0.3,0.8-0.8,0.8
		l0,0C270.9,159.7,270.6,159.3,270.6,158.9z M270.6,156c0-0.4,0.3-0.8,0.8-0.8l0,0c0.4,0,0.8,0.3,0.8,0.8l0,0c0,0.4-0.3,0.8-0.8,0.8
		l0,0C270.9,156.8,270.6,156.4,270.6,156z M270.6,153.1c0-0.4,0.3-0.8,0.8-0.8l0,0c0.4,0,0.8,0.3,0.8,0.8l0,0c0,0.4-0.3,0.8-0.8,0.8
		l0,0C270.9,153.9,270.6,153.5,270.6,153.1z"/>
</g>
<g id="onboarding_slide_1_encrypted_hello_4">
	<g>
		<path fill="#F4900C" d="M293,239c0,2.8-2.2,5-5,5h-35c-2.8,0-5-2.2-5-5v-35c0-2.8,2.2-5,5-5h35c2.8,0,5,2.2,5,5V239z"/>
		<path fill="#FFFFFF" d="M267,211.1c0.7-1.8,2.2-3.2,4.1-3.2c2.1,0,3.5,1.4,4.1,3.2l7.6,21.1c0.2,0.6,0.3,1.2,0.3,1.4
			c0,1.5-1.2,2.6-2.7,2.6c-1.6,0-2.4-0.9-2.8-2l-1.2-3.6h-10.8l-1.2,3.6c-0.4,1.2-1.2,2.1-2.8,2.1c-1.6,0-2.9-1.2-2.9-2.7
			c0-0.6,0.2-1.1,0.3-1.3L267,211.1z M267.5,225.1h7.4l-3.6-11.2h-0.1L267.5,225.1z"/>
	</g>
	<g>
		<path fill="#F4900C" d="M236,239c0,2.8-2.2,5-5,5h-35c-2.8,0-5-2.2-5-5v-35c0-2.8,2.2-5,5-5h35c2.8,0,5,2.2,5,5V239z"/>
		<path fill="#FFFFFF" d="M210.8,221.1l-6.3-8.5c-0.4-0.5-0.6-1.1-0.6-1.7c0-1.7,1.3-2.8,2.9-2.8c1,0,2,0.7,2.5,1.4l4.8,6.8l4.8-6.8
			c0.5-0.8,1.6-1.4,2.5-1.4c1.7,0,2.9,1.1,2.9,2.8c0,0.6-0.2,1.2-0.6,1.7l-6.3,8.5l7.7,10.3c0.3,0.4,0.7,1.2,0.7,2
			c0,1.6-1.2,2.7-2.9,2.7c-1,0-1.8-0.5-2.4-1.3l-6.4-8.8l-6.4,8.8c-0.6,0.8-1.4,1.3-2.4,1.3c-1.7,0-2.9-1.1-2.9-2.7
			c0-0.8,0.3-1.6,0.7-2L210.8,221.1z"/>
	</g>
	<g>
		<path fill="#F4900C" d="M180,239c0,2.8-2.2,5-5,5h-35c-2.8,0-5-2.2-5-5v-35c0-2.8,2.2-5,5-5h35c2.8,0,5,2.2,5,5V239z"/>
		<path fill="#FFFFFF" d="M153.8,221.1l-6.3-8.5c-0.4-0.5-0.6-1.1-0.6-1.7c0-1.7,1.3-2.8,2.9-2.8c1,0,2,0.7,2.5,1.4l4.8,6.8l4.8-6.8
			c0.5-0.8,1.6-1.4,2.5-1.4c1.7,0,2.9,1.1,2.9,2.8c0,0.6-0.2,1.2-0.6,1.7l-6.3,8.5l7.7,10.3c0.3,0.4,0.7,1.2,0.7,2
			c0,1.6-1.2,2.7-2.9,2.7c-1,0-1.8-0.5-2.4-1.3l-6.4-8.8l-6.4,8.8c-0.6,0.8-1.4,1.3-2.4,1.3c-1.7,0-2.9-1.1-2.9-2.7
			c0-0.8,0.3-1.6,0.7-2L153.8,221.1z"/>
	</g>
	<g>
		<path fill="#F4900C" d="M123,239c0,2.8-2.2,5-5,5H83c-2.8,0-5-2.2-5-5v-35c0-2.8,2.2-5,5-5h35c2.8,0,5,2.2,5,5V239z"/>
		<path fill="#FFFFFF" d="M107.9,234.7c-1.9,1.1-4.2,1.7-6.8,1.7c-7.9,0-13.3-6.2-13.3-14.3c0-8.1,5.4-14.3,13.3-14.3
			c7.8,0,13.3,6.4,13.3,14.3c0,3.4-0.9,6.5-2.6,9l2.2,1.9c0.7,0.7,1.4,1.3,1.4,2.4c0,1.4-1.4,2.4-2.7,2.4c-0.9,0-1.6-0.3-2.6-1.2
			L107.9,234.7z M107.5,227.1c0.7-1.5,0.9-3.2,0.9-5c0-4.6-2.4-8.9-7.3-8.9c-4.8,0-7.3,4.2-7.3,8.9c0,4.7,2.4,8.9,7.3,8.9
			c0.9,0,1.7-0.1,2.5-0.3l-1.4-1.4c-0.4-0.4-0.7-1-0.7-1.6c0-1.5,1-2.8,2.6-2.8c0.5,0,1,0.2,1.5,0.5L107.5,227.1z"/>
	</g>
	<g>
		<path fill="#F4900C" d="M67,239c0,2.8-2.2,5-5,5H27c-2.8,0-5-2.2-5-5v-35c0-2.8,2.2-5,5-5h35c2.8,0,5,2.2,5,5V239z"/>
		<path fill="#FFFFFF" d="M41.1,213.7h-4.2c-1.9,0-2.6-1.4-2.6-2.7c0-1.4,1-2.7,2.6-2.7h14.3c1.7,0,2.6,1.3,2.6,2.7
			c0,1.3-0.8,2.7-2.6,2.7h-4.2v19.5c0,1.9-1.2,3-2.9,3c-1.7,0-2.9-1.1-2.9-3V213.7z"/>
	</g>
</g>
<g id="onboarding_slide_1_encrypted_hello_2">
	<g>
		<path fill="#FFCC4D" d="M293,239c0,2.8-2.2,5-5,5h-35c-2.8,0-5-2.2-5-5v-35c0-2.8,2.2-5,5-5h35c2.8,0,5,2.2,5,5V239z"/>
		<path fill="#FFFFFF" d="M277.5,227.9c0,6.5-4.1,8.2-7.7,8.2c-2.7,0-7.1-1-7.1-4.4c0-1,0.9-2.4,2.2-2.4c1.6,0,2.9,1.4,4.7,1.4
			c2.2,0,2.2-2,2.2-3.3v-16.7c0-1.9,1.2-3,2.9-3c1.7,0,2.9,1.1,2.9,3V227.9z"/>
	</g>
	<g>
		<path fill="#FFCC4D" d="M236,239c0,2.8-2.2,5-5,5h-35c-2.8,0-5-2.2-5-5v-35c0-2.8,2.2-5,5-5h35c2.8,0,5,2.2,5,5V239z"/>
		<path fill="#FFFFFF" d="M223.5,219c2.4,0,3.4,1.2,3.4,3.7c0,7.5-4.9,13.1-12.6,13.1c-7.9,0-13.3-6.2-13.3-14.3
			c0-8.1,5.4-14.3,13.3-14.3c5.9,0,10.7,2.8,10.7,5.5c0,1.7-1,2.7-2.4,2.7c-2.6,0-3.2-2.8-8.3-2.8c-4.8,0-7.3,4.2-7.3,8.9
			c0,4.7,2.4,8.9,7.3,8.9c3.1,0,6.6-1.7,6.6-6.1h-4c-1.6,0-2.7-1.1-2.7-2.7c0-1.6,1.2-2.6,2.7-2.6H223.5z"/>
	</g>
	<g>
		<path fill="#FFCC4D" d="M180,239c0,2.8-2.2,5-5,5h-35c-2.8,0-5-2.2-5-5v-35c0-2.8,2.2-5,5-5h35c2.8,0,5,2.2,5,5V239z"/>
		<path fill="#FFFFFF" d="M167.5,219c2.4,0,3.4,1.2,3.4,3.7c0,7.5-4.9,13.1-12.6,13.1c-7.9,0-13.3-6.2-13.3-14.3
			c0-8.1,5.4-14.3,13.3-14.3c5.9,0,10.7,2.8,10.7,5.5c0,1.7-1,2.7-2.4,2.7c-2.6,0-3.2-2.8-8.3-2.8c-4.8,0-7.3,4.2-7.3,8.9
			c0,4.7,2.4,8.9,7.3,8.9c3.1,0,6.6-1.7,6.6-6.1h-4c-1.6,0-2.7-1.1-2.7-2.7c0-1.6,1.2-2.6,2.7-2.6H167.5z"/>
	</g>
	<g>
		<path fill="#FFCC4D" d="M123,239c0,2.8-2.2,5-5,5H83c-2.8,0-5-2.2-5-5v-35c0-2.8,2.2-5,5-5h35c2.8,0,5,2.2,5,5V239z"/>
		<path fill="#FFFFFF" d="M108.7,230.2c1.6,0,2.8,0.9,2.8,2.6c0,1.5-1.4,2.6-2.8,2.6H93.5c-2.1,0-3.3-1.2-3.3-2.8
			c0-0.8,0.3-1.6,0.8-2.2l12.5-17.4H93.3c-1.6,0-2.7-0.9-2.7-2.5c0-1.5,1.2-2.6,2.7-2.6h14.2c2.2,0,3.3,1.4,3.3,2.8
			c0,0.9-0.3,1.8-0.9,2.5l-12.4,17.2H108.7z"/>
	</g>
	<g>
		<path fill="#FFCC4D" d="M67,239c0,2.8-2.2,5-5,5H27c-2.8,0-5-2.2-5-5v-35c0-2.8,2.2-5,5-5h35c2.8,0,5,2.2,5,5V239z"/>
		<path fill="#FFFFFF" d="M46.1,207.3c2.8,0,8.3,0.9,8.3,4.3c0,1.4-1,2.6-2.4,2.6c-1.6,0-2.7-1.4-5.9-1.4c-4.8,0-7.3,4.1-7.3,8.8
			c0,4.6,2.5,8.6,7.3,8.6c3.3,0,4.6-1.6,6.2-1.6c1.7,0,2.6,1.7,2.6,2.6c0,3.7-5.9,4.6-8.7,4.6c-7.9,0-13.3-6.2-13.3-14.3
			C32.8,213.5,38.2,207.3,46.1,207.3z"/>
	</g>
</g>
<g id="onboarding_slide_1_encrypted_hello">
	<g>
		<path fill="#F46060" d="M293,239c0,2.8-2.2,5-5,5h-35c-2.8,0-5-2.2-5-5v-35c0-2.8,2.2-5,5-5h35c2.8,0,5,2.2,5,5V239z"/>
		<path fill="#FFFFFF" d="M268.2,213.1H264c-1.9,0-2.6-1.4-2.6-2.7c0-1.4,1-2.7,2.6-2.7h14.3c1.7,0,2.6,1.3,2.6,2.7
			c0,1.3-0.8,2.7-2.6,2.7H274v19.5c0,1.9-1.2,3-2.9,3c-1.7,0-2.9-1.1-2.9-3V213.1z"/>
	</g>
	<g>
		<path fill="#F46060" d="M236,239c0,2.8-2.2,5-5,5h-35c-2.8,0-5-2.2-5-5v-35c0-2.8,2.2-5,5-5h35c2.8,0,5,2.2,5,5V239z"/>
		<path fill="#FFFFFF" d="M220.9,233.9c-1.9,1.1-4.2,1.7-6.8,1.7c-7.9,0-13.3-6.2-13.3-14.3c0-8.1,5.4-14.3,13.3-14.3
			c7.8,0,13.3,6.4,13.3,14.3c0,3.4-0.9,6.5-2.6,9l2.2,1.9c0.7,0.7,1.4,1.3,1.4,2.4c0,1.4-1.4,2.4-2.7,2.4c-0.9,0-1.6-0.3-2.6-1.2
			L220.9,233.9z M220.5,226.3c0.7-1.5,0.9-3.2,0.9-5c0-4.6-2.4-8.9-7.3-8.9c-4.8,0-7.3,4.2-7.3,8.9c0,4.7,2.4,8.9,7.3,8.9
			c0.9,0,1.7-0.1,2.5-0.3l-1.4-1.4c-0.4-0.4-0.7-1-0.7-1.6c0-1.5,1-2.8,2.6-2.8c0.5,0,1,0.2,1.5,0.5L220.5,226.3z"/>
	</g>
	<g>
		<path fill="#F46060" d="M180,239c0,2.8-2.2,5-5,5h-35c-2.8,0-5-2.2-5-5v-35c0-2.8,2.2-5,5-5h35c2.8,0,5,2.2,5,5V239z"/>
		<path fill="#FFFFFF" d="M163.9,233.9c-1.9,1.1-4.2,1.7-6.8,1.7c-7.9,0-13.3-6.2-13.3-14.3c0-8.1,5.4-14.3,13.3-14.3
			c7.8,0,13.3,6.4,13.3,14.3c0,3.4-0.9,6.5-2.6,9l2.2,1.9c0.7,0.7,1.4,1.3,1.4,2.4c0,1.4-1.4,2.4-2.7,2.4c-0.9,0-1.6-0.3-2.6-1.2
			L163.9,233.9z M163.5,226.3c0.7-1.5,0.9-3.2,0.9-5c0-4.6-2.4-8.9-7.3-8.9c-4.8,0-7.3,4.2-7.3,8.9c0,4.7,2.4,8.9,7.3,8.9
			c0.9,0,1.7-0.1,2.5-0.3l-1.4-1.4c-0.4-0.4-0.7-1-0.7-1.6c0-1.5,1-2.8,2.6-2.8c0.5,0,1,0.2,1.5,0.5L163.5,226.3z"/>
	</g>
	<g>
		<path fill="#F46060" d="M123,239c0,2.8-2.2,5-5,5H83c-2.8,0-5-2.2-5-5v-35c0-2.8,2.2-5,5-5h35c2.8,0,5,2.2,5,5V239z"/>
		<path fill="#FFFFFF" d="M107.5,227.4c0,6.5-4.1,8.2-7.7,8.2c-2.7,0-7.1-1-7.1-4.4c0-1,0.9-2.4,2.2-2.4c1.6,0,2.9,1.4,4.7,1.4
			c2.2,0,2.2-2,2.2-3.3v-16.7c0-1.9,1.2-3,2.9-3c1.7,0,2.9,1.1,2.9,3V227.4z"/>
	</g>
	<g>
		<path fill="#F46060" d="M67,239c0,2.8-2.2,5-5,5H27c-2.8,0-5-2.2-5-5v-35c0-2.8,2.2-5,5-5h35c2.8,0,5,2.2,5,5V239z"/>
		<path fill="#FFFFFF" d="M31.7,210.3c0.2-1.4,1.7-3,3.8-3c1.9,0,3.4,1.4,3.9,2.8l4.6,15.3H44l4.6-15.3c0.4-1.4,1.9-2.8,3.9-2.8
			c2.1,0,3.6,1.6,3.8,3l3.6,21.6c0,0.2,0,0.5,0,0.7c0,1.7-1.2,2.8-2.8,2.8c-2,0-2.8-0.9-3-2.7l-2.3-15.8h-0.1l-4.7,16.2
			c-0.3,0.9-1,2.2-3.1,2.2c-2.1,0-2.8-1.3-3.1-2.2l-4.7-16.2h-0.1l-2.3,15.8c-0.3,1.8-1,2.7-3,2.7c-1.6,0-2.8-1.1-2.8-2.8
			c0-0.2,0-0.4,0-0.7L31.7,210.3z"/>
	</g>
</g>
<g id="onboarding_slide_1_encrypted_hello_3">
	<g>
		<path fill="#F4900C" d="M293,239c0,2.8-2.2,5-5,5h-35c-2.8,0-5-2.2-5-5v-35c0-2.8,2.2-5,5-5h35c2.8,0,5,2.2,5,5V239z"/>
		<path fill="#FFFFFF" d="M267,211.1c0.7-1.8,2.2-3.2,4.1-3.2c2.1,0,3.5,1.4,4.1,3.2l7.6,21.1c0.2,0.6,0.3,1.2,0.3,1.4
			c0,1.5-1.2,2.6-2.7,2.6c-1.6,0-2.4-0.9-2.8-2l-1.2-3.6h-10.8l-1.2,3.6c-0.4,1.2-1.2,2.1-2.8,2.1c-1.6,0-2.9-1.2-2.9-2.7
			c0-0.6,0.2-1.1,0.3-1.3L267,211.1z M267.5,225.1h7.4l-3.6-11.2h-0.1L267.5,225.1z"/>
	</g>
	<g>
		<path fill="#F4900C" d="M236,239c0,2.8-2.2,5-5,5h-35c-2.8,0-5-2.2-5-5v-35c0-2.8,2.2-5,5-5h35c2.8,0,5,2.2,5,5V239z"/>
		<path fill="#FFFFFF" d="M210.8,221.1l-6.3-8.5c-0.4-0.5-0.6-1.1-0.6-1.7c0-1.7,1.3-2.8,2.9-2.8c1,0,2,0.7,2.5,1.4l4.8,6.8l4.8-6.8
			c0.5-0.8,1.6-1.4,2.5-1.4c1.7,0,2.9,1.1,2.9,2.8c0,0.6-0.2,1.2-0.6,1.7l-6.3,8.5l7.7,10.3c0.3,0.4,0.7,1.2,0.7,2
			c0,1.6-1.2,2.7-2.9,2.7c-1,0-1.8-0.5-2.4-1.3l-6.4-8.8l-6.4,8.8c-0.6,0.8-1.4,1.3-2.4,1.3c-1.7,0-2.9-1.1-2.9-2.7
			c0-0.8,0.3-1.6,0.7-2L210.8,221.1z"/>
	</g>
	<g>
		<path fill="#F4900C" d="M180,239c0,2.8-2.2,5-5,5h-35c-2.8,0-5-2.2-5-5v-35c0-2.8,2.2-5,5-5h35c2.8,0,5,2.2,5,5V239z"/>
		<path fill="#FFFFFF" d="M153.8,221.1l-6.3-8.5c-0.4-0.5-0.6-1.1-0.6-1.7c0-1.7,1.3-2.8,2.9-2.8c1,0,2,0.7,2.5,1.4l4.8,6.8l4.8-6.8
			c0.5-0.8,1.6-1.4,2.5-1.4c1.7,0,2.9,1.1,2.9,2.8c0,0.6-0.2,1.2-0.6,1.7l-6.3,8.5l7.7,10.3c0.3,0.4,0.7,1.2,0.7,2
			c0,1.6-1.2,2.7-2.9,2.7c-1,0-1.8-0.5-2.4-1.3l-6.4-8.8l-6.4,8.8c-0.6,0.8-1.4,1.3-2.4,1.3c-1.7,0-2.9-1.1-2.9-2.7
			c0-0.8,0.3-1.6,0.7-2L153.8,221.1z"/>
	</g>
	<g>
		<path fill="#F4900C" d="M123,239c0,2.8-2.2,5-5,5H83c-2.8,0-5-2.2-5-5v-35c0-2.8,2.2-5,5-5h35c2.8,0,5,2.2,5,5V239z"/>
		<path fill="#FFFFFF" d="M107.9,234.7c-1.9,1.1-4.2,1.7-6.8,1.7c-7.9,0-13.3-6.2-13.3-14.3c0-8.1,5.4-14.3,13.3-14.3
			c7.8,0,13.3,6.4,13.3,14.3c0,3.4-0.9,6.5-2.6,9l2.2,1.9c0.7,0.7,1.4,1.3,1.4,2.4c0,1.4-1.4,2.4-2.7,2.4c-0.9,0-1.6-0.3-2.6-1.2
			L107.9,234.7z M107.5,227.1c0.7-1.5,0.9-3.2,0.9-5c0-4.6-2.4-8.9-7.3-8.9c-4.8,0-7.3,4.2-7.3,8.9c0,4.7,2.4,8.9,7.3,8.9
			c0.9,0,1.7-0.1,2.5-0.3l-1.4-1.4c-0.4-0.4-0.7-1-0.7-1.6c0-1.5,1-2.8,2.6-2.8c0.5,0,1,0.2,1.5,0.5L107.5,227.1z"/>
	</g>
	<g>
		<path fill="#F4900C" d="M67,239c0,2.8-2.2,5-5,5H27c-2.8,0-5-2.2-5-5v-35c0-2.8,2.2-5,5-5h35c2.8,0,5,2.2,5,5V239z"/>
		<path fill="#FFFFFF" d="M41.1,213.7h-4.2c-1.9,0-2.6-1.4-2.6-2.7c0-1.4,1-2.7,2.6-2.7h14.3c1.7,0,2.6,1.3,2.6,2.7
			c0,1.3-0.8,2.7-2.6,2.7h-4.2v19.5c0,1.9-1.2,3-2.9,3c-1.7,0-2.9-1.1-2.9-3V213.7z"/>
	</g>
</g>
</svg>
