<?xml version="1.0" encoding="utf-8"?>
<!-- Generator: Adobe Illustrator 18.0.0, SVG Export Plug-In . SVG Version: 6.00 Build 0)  -->
<!DOCTYPE svg PUBLIC "-//W3C//DTD SVG 1.1//EN" "http://www.w3.org/Graphics/SVG/1.1/DTD/svg11.dtd">
<svg version="1.1" id="s5" xmlns="http://www.w3.org/2000/svg" xmlns:xlink="http://www.w3.org/1999/xlink" x="0px" y="0px"
	 width="393.1px" height="700px" viewBox="0 0 393.1 700" enable-background="new 0 0 393.1 700" xml:space="preserve">
<polyline fill="#283344" points="0,700 0,0 393.1,0 393.1,700 "/>
<path id="bubble_trig" fill="#005189" d="M356.6,255.3v-3.7v-13.7V111c0-9.6-7.9-17.5-17.5-17.5H54c-9.6,0-17.5,7.9-17.5,17.5v141
	c0,9.6,7.9,17.5,17.5,17.5h277.7h7.2h39.8L356.6,255.3z"/>
<path id="bubble" fill="#005189" d="M338.9,269.4h-285c-9.6,0-17.5-7.9-17.5-17.5V111c0-9.6,7.9-17.5,17.5-17.5H339
	c9.6,0,17.5,7.9,17.5,17.5v140.6C356.4,261.6,348.5,269.4,338.9,269.4z"/>
<g id="g3">
	<g id="g10_15_" transform="matrix(1.25,0,0,-1.25,0,47.5)">
		<g id="g12_18_">
			<g>
				<g>
					<g>
						<g id="g14_18_">
							<g id="g20_18_" transform="translate(12.9829,33.438)">
								<path id="path22_18_" fill="#FFAC33" d="M240.6-156.1c3.5,0.2,5.8-1.3,6-5.2c0.2-3.3-3.9-5.2-6-5.2c-1.9,0-0.9,1.4,0.5,1.7
									c1.1,0.3,3.3,1.7,2.7,3.3c-0.5,1.7-3.3,2-4.7-0.2c-0.6-0.9-2.7-0.6-3,0.3C235.2-159.6,236.6-156.4,240.6-156.1"/>
							</g>
							<g id="g24_16_" transform="translate(36.75,15.6162)">
								<path id="path26_16_" fill="#E1E8ED" d="M234.7-151.7c0,5.8-3.3,8.5-11,8.5c-0.8,0-1.6,0-2.2-0.2c-0.9,1.7-3.6,2-6.3,2
									c-3.3,0-7.4-4.6-7.4-8.2c0-3.6,2.7-3.6,5.8-3.6c0.2-2.4,0.9-4.4,2.4-5.5c0.2-0.8,1.1-4.4,3-4.4c0.9,0,1.6,1.3,1.9,2.5
									c0.8-0.2,1.7-0.2,2.8-0.2c1.3,0,2.5,0.2,3.5,0.3c0-1.3,0.5-2.7,1.6-2.7c1.7,0,3.3,3.8,3.6,4.9
									C233.9-156.6,234.7-154.6,234.7-151.7"/>
							</g>
							<g id="g28_16_" transform="translate(7,21.2139)">
								<path id="path30_14_" fill="#292F33" d="M241.9-153.2c0-0.6-0.5-1.1-1.1-1.1c-0.6,0-1.1,0.5-1.1,1.1c0,0.6,0.5,1.1,1.1,1.1
									C241.4-152.1,241.9-152.8,241.9-153.2"/>
							</g>
							<g id="g32_13_" transform="translate(18.5625,32.6611)">
								<path id="path34_12_" fill="#FFCC4D" d="M239.1-156.1c3.3-1.1,4.4-3.3,3-6.8c-0.9-3-5.5-3.3-7.7-2.5
									c-1.7,0.6-0.5,1.7,1.1,1.4c1.3-0.2,3.5,0.5,3.8,2c0.2,1.7-2.2,3-4.4,1.6c-0.9-0.6-4.4-0.3-4.1,0.8
									C231.3-157.2,235.6-154.8,239.1-156.1"/>
							</g>
						</g>
					</g>
				</g>
			</g>
		</g>
	</g>
	<g id="g10_11_" transform="matrix(1.25,0,0,-1.25,0,47.5)">
		<g id="g12_14_">
			<g>
				<g>
					<g>
						<g id="g14_14_">
							<g id="g20_14_" transform="translate(34.7988,36.9946)">
								<path id="path22_14_" fill="#99AAB5" d="M205.9-155.6c-0.3,0.2-6-3-7.5-6.8c-1-2.2-1.3-4.6-1.3-6c-1.1,0.6-2.2,1-3.3,1
									c-1,0-2.1-0.3-3.3-1c0,1.6-0.3,3.8-1.3,6c-1.4,3.8-7.2,7.2-7.5,6.8c-0.3-0.2,3.3-12.2,5.2-15.9c-1.8-1.9-3.3-4.5-3.3-6.8
									s1.3-3.8,3-4.5c1.9-0.6,3.8,0.6,6.8,0.6s4.9-1.4,6.8-0.6c1.7,0.6,3,2.1,3,4.5s-1.4,4.8-3.3,6.8
									C202.7-167.8,206.2-155.7,205.9-155.6"/>
							</g>
							<g id="g24_12_" transform="translate(13.6919,19.0781)">
								<path id="path26_12_" fill="#F4ABBA" d="M210.9-151.3c-0.2,1.1-0.5,2.7-1.1,4.1c-1.1,3-4.5,5.6-4.6,5.6
									c-0.3-0.2,1.9-7.8,3.7-11.3C209.5-152.3,210.2-151.8,210.9-151.3"/>
							</g>
							<g id="g28_12_" transform="translate(27.0303,16.9063)">
								<path id="path30_10_" fill="#F4ABBA" d="M207.9-150.7c1.6,3.5,3.8,11.3,3.7,11.3c-0.3,0.2-3.3-2.4-4.6-5.6
									c-0.6-1.6-1-3-1.1-4.1C206.3-149.6,207.1-150.1,207.9-150.7"/>
							</g>
							<g id="g32_9_" transform="translate(26,7)">
								<path id="path34_9_" fill="#CCD6DD" d="M208-148.3c0-2.1-2.4-3.8-5.2-3.8s-5.2,1.8-5.2,3.8s2.4,3.8,5.2,3.8
									C205.8-144.5,208-146.4,208-148.3"/>
							</g>
							<g id="g36_10_" transform="translate(22,6.4219)">
								<path id="path38_10_" fill="#FFFFFF" d="M209-148.2c0-2.1-0.2-2.2-2.2-2.2c-2.1,0-2.2,0.2-2.2,2.2
									C204.4-147.4,209-147.4,209-148.2"/>
							</g>
							<g id="g40_10_" transform="translate(15,12.6719)">
								<path id="path42_10_" fill="#292F33" d="M210.6-149.7c0-0.6-0.5-1.1-1.1-1.1c-0.6,0-1.1,0.5-1.1,1.1c0,0.6,0.5,1.1,1.1,1.1
									S210.6-149.1,210.6-149.7"/>
							</g>
							<g id="g44_10_" transform="translate(26,12.6719)">
								<path id="path46_10_" fill="#292F33" d="M208-149.7c0-0.6-0.5-1.1-1.1-1.1s-1.1,0.5-1.1,1.1c0,0.6,0.5,1.1,1.1,1.1
									C207.4-148.6,208-149.1,208-149.7"/>
							</g>
							<g id="g48_9_" transform="translate(22,11.1719)">
								<path id="path50_9_" fill="#F4ABBA" d="M209-149.5c0-1.3-1.4-2.2-2.2-2.2s-2.2,1-2.2,2.2C204.4-148.1,209-148.1,209-149.5"
									/>
							</g>
						</g>
					</g>
				</g>
			</g>
		</g>
	</g>
	<g id="g10_16_" transform="matrix(1.25,0,0,-1.25,0,47.5)">
		<g id="g12_19_">
			<g>
				<g>
					<g>
						<g id="g14_19_">
							<g id="g20_19_" transform="translate(35.751,15)">
								<path id="path22_19_" fill="#77B255" d="M177-151c-2.4,0-8.5-2.5-11.3-5.2v8.8c0,0.4-0.3,0.7-0.7,0.7
									c-0.4,0-0.7-0.3-0.7-0.7v-8.8c-2.7,2.5-8.8,5.2-11.4,5.2c-0.6,0,7.7-9.8,11.4-9.1v-0.3c0-0.4,0.3-0.7,0.7-0.7
									c0.4,0,0.7,0.3,0.7,0.7v0.3C169.4-160.8,177.6-151,177-151"/>
							</g>
							<g id="g24_17_" transform="translate(26,23.5835)">
								<path id="path26_17_" fill="#EA596E" d="M179.8-153.4c0-4.5-1.2-6.7-4.9-6.7c-3.7,0-4.9,2.2-4.9,6.7s3.6,9.5,4.9,9.5
									C176.1-143.9,179.8-148.9,179.8-153.4"/>
							</g>
							<g id="g28_17_" transform="translate(23.7949,35)">
								<path id="path30_15_" fill="#F4ABBA" d="M180.4-156.8c-0.3,0-2.8-10.2-3.4-13.7c-0.6,3.6-3.1,13.7-3.6,13.7
									c-0.7,0-4.2-6.4-4.2-9.3s4.2-5.6,7.7-5.6c3.7,0,7.7,2.8,7.7,5.6C184.7-163.3,181.3-156.8,180.4-156.8"/>
							</g>
						</g>
					</g>
				</g>
			</g>
		</g>
	</g>
	<g id="g10_6_" transform="matrix(1.25,0,0,-1.25,0,47.5)">
		<g id="g12_9_">
			<g>
				<g>
					<g>
						<g id="g14_9_">
							<g id="g20_9_" transform="translate(36.8848,25.1665)">
								<path id="path22_9_" fill="#BE1931" d="M120.5-152.6c0,4-3.3,7.3-7.3,7.3c-2.5,0-4.5-1.2-5.9-2.9c-1.2,1.9-3.4,2.9-5.9,2.9
									c-4,0-7.3-3.3-7.3-7.3c0-0.6,0-1.1,0.2-1.7c0.9-6.2,8.1-12.9,13-14.7c5.1,1.9,12,8.4,13,14.7
									C120.5-153.7,120.5-153.1,120.5-152.6"/>
							</g>
						</g>
					</g>
				</g>
			</g>
		</g>
	</g>
	<g id="g10_8_" transform="matrix(1.25,0,0,-1.25,0,47.5)">
		<g id="g12_11_">
			<g>
				<g>
					<g>
						<g id="g14_11_">
							<g id="g20_11_" transform="translate(19,33)">
								<path id="path22_11_" fill="#F4900C" d="M96.4-156.9c5.2,0,9.2-2.8,10.4-1.3c0.1,0.3,0.1,0.4,0.1,0.7
									c0,1.3-4.9,3.6-10.6,3.6c-6,0-10.6-2.1-10.6-3.6c0-0.3,0-0.4,0.1-0.7C87.1-159.7,91.3-156.9,96.4-156.9"/>
							</g>
							<g id="g24_9_" transform="translate(19,34)">
								<path id="path26_9_" fill="#FFCC4D" d="M96.4-157.3c-4.3,0-7.5-1.3-8.8-1.8c-0.3-0.1-0.4-0.6-0.3-0.9
									c0.1-0.1,7.6-19.2,7.6-19.2s0.6-1.3,1.3-1.3c0.7,0,1.3,1.3,1.3,1.3L105-160c0,0,0.1,0.6-0.4,0.9
									C103.7-158.3,100.7-157.3,96.4-157.3"/>
							</g>
						</g>
					</g>
				</g>
			</g>
		</g>
		<g id="g28_9_">
			<g>
				<g>
					<g>
						<g>
							<g>
								<g>
									<g>
										<g>
											<g>
												<g>
													<g>
														<g>
															<g>
																<g>
																	<g>
																		<g>
																			<g>
																				<g>
																					<g>
																						<g>
																							<g>
																								<defs>
																									<path id="SVGID_1_" d="M106.7-125.1c-0.3-0.1-0.4-0.6-0.3-0.9l0,0c0.1-0.3,7.5-19.2,7.5-19.2l0,0
																										c0,0,0.7-1.3,1.3-1.3l0,0c0.7,0,1.3,1.3,1.3,1.3l0,0L124-126c0,0,0.1,0.6-0.4,0.9l0,0
																										c-1.2,0.6-4.3,1.8-8.5,1.8l0,0C111.1-123.3,107.8-124.5,106.7-125.1"/>
																								</defs>
																								<clipPath id="SVGID_2_">
																									<use xlink:href="#SVGID_1_"  overflow="visible"/>
																								</clipPath>
																								<g id="g30_2_" clip-path="url(#SVGID_2_)">
																									<g id="g36_7_" transform="translate(19,6)">
																										<path id="path38_7_" fill="#BE1931" d="M96.4-148.9c0-1.5-1.2-2.8-2.8-2.8c-1.5,0-2.8,1.2-2.8,2.8
																											s1.2,2.8,2.8,2.8C95.2-146.1,96.4-147.5,96.4-148.9"/>
																									</g>
																									<g id="g40_8_" transform="translate(18,17)">
																										<path id="path42_8_" fill="#BE1931" d="M96.6-152.3c0-1.5-1.2-2.8-2.8-2.8c-1.5,0-2.8,1.2-2.8,2.8
																											c0,1.5,1.2,2.8,2.8,2.8C95.4-149.5,96.6-150.6,96.6-152.3"/>
																									</g>
																									<g id="g44_8_" transform="translate(21,29)">
																										<path id="path46_8_" fill="#BE1931" d="M95.7-155.7c0-1.5-1.2-2.8-2.8-2.8c-1.5,0-2.8,1.2-2.8,2.8
																											c0,1.5,1.2,2.8,2.8,2.8S95.7-154.2,95.7-155.7"/>
																									</g>
																									<g id="g48_7_" transform="translate(30,24)">
																										<path id="path50_7_" fill="#BE1931" d="M93.1-154.3c0-1.5-1.2-2.8-2.8-2.8c-1.6,0-2.8,1.2-2.8,2.8
																											c0,1.5,1.2,2.8,2.8,2.8C91.9-151.4,93.1-152.6,93.1-154.3"/>
																									</g>
																									<g id="g52_6_" transform="translate(28,12)">
																										<path id="path54_6_" fill="#BE1931" d="M93.8-150.8c0-1.5-1.2-2.8-2.8-2.8c-1.6,0-2.8,1.2-2.8,2.8
																											c0,1.5,1.2,2.8,2.8,2.8C92.6-147.9,93.8-149.1,93.8-150.8"/>
																									</g>
																									<g id="g56_4_" transform="translate(11,25)">
																										<path id="path58_4_" fill="#BE1931" d="M98.7-154.5c0-1.5-1.2-2.8-2.8-2.8c-1.5,0-2.8,1.2-2.8,2.8
																											c0,1.5,1.2,2.8,2.8,2.8C97.4-151.7,98.7-152.9,98.7-154.5"/>
																									</g>
																								</g>
																							</g>
																						</g>
																					</g>
																				</g>
																			</g>
																		</g>
																	</g>
																</g>
															</g>
														</g>
													</g>
												</g>
											</g>
										</g>
									</g>
								</g>
							</g>
						</g>
					</g>
				</g>
			</g>
		</g>
	</g>
	<g id="g10_19_" transform="matrix(1.25,0,0,-1.25,0,47.5)">
		<g id="g12_22_">
			<g>
				<g>
					<g>
						<g id="g14_22_">
							<g id="g20_22_" transform="translate(21.1426,4.7852)">
								<path id="path22_22_" fill="#E1E8ED" d="M66.7-147c0-1-0.8-1.6-1.6-1.6c-1,0-1.6,0.8-1.6,1.6c0,1,0.8,1.6,1.6,1.6
									C65.9-145.1,66.7-145.9,66.7-147"/>
							</g>
							<g id="g24_19_" transform="translate(28.6426,21.3569)">
								<path id="path26_19_" fill="#E1E8ED" d="M65.1-150.9c0,4-3.3,7.5-7.5,7.5c-4,0-7.5-3.3-7.5-7.5c0-4-0.8-12.7-0.8-12.7
									c0-1,0.8-1.6,1.6-1.6c1,0,1.6,0.8,1.6,1.6c0-1,0.8-1.6,1.6-1.6c1,0,1.6,0.8,1.6,1.6H59c0-1,0.8-1.6,1.6-1.6
									c1,0,1.6,0.8,1.6,1.6c0-1,0.8-1.6,1.6-1.6c1,0,1.6,0.8,1.6,1.6C65.9-163.4,65.1-154.9,65.1-150.9"/>
							</g>
							<g id="g28_20_" transform="translate(21,34)">
								<path id="path30_18_" fill="#DD2E44" d="M66.8-153.8c0-1.6-1.1-4.4-1.4-4.4c-0.5,0-1.4,2.9-1.4,4.4c0,1.6,1.1,2.2,1.4,2.2
									C65.7-151.6,66.8-152.2,66.8-153.8"/>
							</g>
							<g id="g32_16_" transform="translate(16.6348,4)">
								<path id="path34_15_" fill="#DD2E44" d="M67.9-146.5c0,1.9,1.3,6,1.7,6c0.5,0,1.7-4.1,1.7-6c0-1.9-1.3-2.2-1.7-2.2
									C69.1-149,67.9-148.7,67.9-146.5"/>
							</g>
							<g id="g36_13_" transform="translate(26,14.5)">
								<path id="path38_13_" fill="#F4900C" d="M65.4-149.2c0-1.1-3.6-3.3-5.2-3.3c-1.6,0-5.2,2.2-5.2,3.3c0,1.1,3.6,3.3,5.2,3.3
									C61.9-145.7,65.4-148.1,65.4-149.2"/>
							</g>
							<g id="g40_13_" transform="translate(26,14.5)">
								<path id="path42_13_" fill="#FFAC33" d="M65.4-149.2c0-1.1-10.5-1.1-10.5,0c0,1.1,3.6,3.3,5.2,3.3
									C61.9-145.7,65.4-148.1,65.4-149.2"/>
							</g>
							<g id="g44_13_" transform="translate(14,18.5)">
								<path id="path46_13_" fill="#292F33" d="M68.2-150.2c0-0.6-0.5-1.1-1.1-1.1s-1.1,0.5-1.1,1.1c0,0.6,0.5,1.1,1.1,1.1
									C67.9-149.1,68.2-149.6,68.2-150.2"/>
							</g>
							<g id="g48_12_" transform="translate(27,18.5)">
								<path id="path50_12_" fill="#292F33" d="M65.2-150.2c0-0.6-0.5-1.1-1.1-1.1c-0.6,0-1.1,0.5-1.1,1.1c0,0.6,0.5,1.1,1.1,1.1
									C64.9-149.1,65.2-149.6,65.2-150.2"/>
							</g>
						</g>
					</g>
				</g>
			</g>
		</g>
	</g>
	<g id="g10_17_" transform="matrix(1.25,0,0,-1.25,0,47.5)">
		<g id="g12_20_">
			<g>
				<g>
					<g>
						<g id="g14_20_">
							<g id="g20_20_" transform="translate(18,19)">
								<path id="path22_20_" fill="#E1E8ED" d="M38.2-152.2c0-3.8-2.6-6.8-5.8-6.8c-3.2,0-5.8,3-5.8,6.8s2.6,6.8,5.8,6.8
									C35.6-145.4,38.2-148.5,38.2-152.2"/>
							</g>
							<g id="g24_18_" transform="translate(37,19)">
								<path id="path26_18_" fill="#E1E8ED" d="M32.4-152.2c0-3.8-2.6-6.8-5.8-6.8s-5.8,3-5.8,6.8s2.6,6.8,5.8,6.8
									C29.8-145.4,32.4-148.5,32.4-152.2"/>
							</g>
							<g id="g28_18_" transform="translate(9,15)">
								<path id="path30_16_" fill="#292F33" d="M41.1-151c0-1.2-0.9-2-2-2c-1.2,0-2,0.9-2,2c0,1.2,0.9,2,2,2
									C40.1-149,41.1-149.8,41.1-151"/>
							</g>
							<g id="g32_14_" transform="translate(28,15)">
								<path id="path34_13_" fill="#292F33" d="M35.2-151c0-1.2-0.9-2-2-2c-1.2,0-2,0.9-2,2c0,1.2,0.9,2,2,2
									C34.2-149,35.2-149.8,35.2-151"/>
							</g>
						</g>
					</g>
				</g>
			</g>
		</g>
	</g>
	<g id="g10_10_" transform="matrix(1.25,0,0,-1.25,0,47.5)">
		<g id="g12_13_">
			<g>
				<g>
					<g>
						<g id="g14_13_">
							<g id="g20_13_" transform="translate(34.7988,36.9946)">
								<path id="path22_13_" fill="#99AAB5" d="M178.4-97.8c-0.3,0.2-6.2-3.1-7.7-7c-1-2.3-1.3-4.7-1.3-6.2c-1.1,0.7-2.3,1-3.4,1
									c-1,0-2.1-0.3-3.4-1c0,1.6-0.3,3.9-1.3,6.2c-1.5,3.9-7.3,7.3-7.7,7c-0.3-0.2,3.4-12.5,5.4-16.3c-1.8-2-3.4-4.6-3.4-7
									c0-2.4,1.3-3.9,3.1-4.6c2-0.7,3.9,0.7,7,0.7c3.1,0,5.1-1.5,7-0.7c1.8,0.7,3.1,2.1,3.1,4.6s-1.5,4.9-3.4,7
									C175.2-110.4,178.8-98.2,178.4-97.8"/>
							</g>
							<g id="g24_10_" transform="translate(13.6919,19.0781)">
								<path id="path26_10_" fill="#F4ABBA" d="M183.1-94c-0.2,1.1-0.5,2.8-1.1,4.2c-1.1,3.1-4.6,5.7-4.7,5.7
									c-0.3-0.2,2-8,3.7-11.6C181.6-94.9,182.2-94.4,183.1-94"/>
							</g>
							<g id="g28_10_" transform="translate(27.0303,16.9063)">
								<path id="path30_8_" fill="#F4ABBA" d="M180.2-93.4c1.6,3.6,3.9,11.6,3.7,11.6c-0.3,0.2-3.4-2.4-4.7-5.7
									c-0.7-1.6-1-3.1-1.1-4.2C178.6-92.2,179.4-92.7,180.2-93.4"/>
							</g>
							<g id="g32_5_" transform="translate(26,7)">
								<path id="path34_6_" fill="#CCD6DD" d="M180.4-91.3c0-2.1-2.4-3.9-5.4-3.9s-5.4,1.8-5.4,3.9c0,2.1,2.4,3.9,5.4,3.9
									C178.1-87.4,180.4-89.2,180.4-91.3"/>
							</g>
							<g id="g36_9_" transform="translate(22,6.4219)">
								<path id="path38_9_" fill="#FFFFFF" d="M181.3-91.2c0-2.1-0.2-2.3-2.3-2.3s-2.3,0.2-2.3,2.3
									C176.6-90.3,181.3-90.3,181.3-91.2"/>
							</g>
							<g id="g40_9_" transform="translate(15,12.6719)">
								<path id="path42_9_" fill="#292F33" d="M182.7-92.6c0-0.7-0.5-1.1-1.1-1.1c-0.7,0-1.1,0.5-1.1,1.1s0.5,1.1,1.1,1.1
									S182.7-92,182.7-92.6"/>
							</g>
							<g id="g44_9_" transform="translate(26,12.6719)">
								<path id="path46_9_" fill="#292F33" d="M180.4-92.6c0-0.7-0.5-1.1-1.1-1.1c-0.6,0-1.1,0.5-1.1,1.1s0.5,1.1,1.1,1.1
									C179.7-91.5,180.4-92,180.4-92.6"/>
							</g>
							<g id="g48_8_" transform="translate(22,11.1719)">
								<path id="path50_8_" fill="#F4ABBA" d="M181.3-92.2c0-1.3-1.5-2.3-2.3-2.3c-0.8,0-2.3,1-2.3,2.3
									C176.6-90.8,181.3-90.8,181.3-92.2"/>
							</g>
						</g>
					</g>
				</g>
			</g>
		</g>
	</g>
	<g id="g10_28_" transform="matrix(1.25,0,0,-1.25,0,47.5)">
		<g id="g12_29_">
			<g>
				<g>
					<g>
						<g id="g14_29_">
							<g id="g20_29_" transform="translate(36.8848,25.1665)">
								<path id="path22_29_" fill="#BE1931" d="M120-98.3c0,4.1-3.3,7.3-7.3,7.3c-2.5,0-4.5-1.2-5.9-3c-1.2,1.9-3.4,3-5.9,3
									c-4.1,0-7.3-3.3-7.3-7.3c0-0.6,0-1.1,0.2-1.7c0.9-6.2,8.1-13,13.1-14.8c5.2,1.9,12,8.4,13.1,14.8
									C120-99.4,120-98.8,120-98.3"/>
							</g>
						</g>
					</g>
				</g>
			</g>
		</g>
	</g>
	<g id="g10_13_" transform="matrix(1.25,0,0,-1.25,0,47.5)">
		<g id="g12_16_">
			<g>
				<g>
					<g>
						<g id="g14_16_">
							<g id="g20_16_" transform="translate(35.751,15)">
								<path id="path22_16_" fill="#77B255" d="M91.9-92.8c-2.5,0-8.8-2.6-11.8-5.4v9.1c0,0.5-0.3,0.8-0.8,0.8
									c-0.5,0-0.8-0.3-0.8-0.8v-9.1c-2.8,2.6-9.1,5.4-11.9,5.4c-0.6,0,8-10.2,11.9-9.4v-0.3c0-0.5,0.3-0.8,0.8-0.8
									s0.8,0.3,0.8,0.8v0.3C84-103,92.4-92.8,91.9-92.8"/>
							</g>
							<g id="g24_14_" transform="translate(26,23.5835)">
								<path id="path26_14_" fill="#EA596E" d="M94.3-94.9c0-4.6-1.2-7-5.1-7s-5.1,2.3-5.1,7s3.7,9.9,5.1,9.9
									C90.4-85.1,94.3-90.2,94.3-94.9"/>
							</g>
							<g id="g28_14_" transform="translate(23.7949,35)">
								<path id="path30_12_" fill="#F4ABBA" d="M94.9-97.9c-0.3,0-2.9-10.7-3.6-14.2c-0.6,3.7-3.2,14.2-3.7,14.2
									c-0.8,0-4.3-6.7-4.3-9.8s4.3-5.9,8-5.9c3.9,0,8,2.9,8,5.9C99.4-104.7,95.7-97.9,94.9-97.9"/>
							</g>
						</g>
					</g>
				</g>
			</g>
		</g>
	</g>
	<g id="g10_12_" transform="matrix(1.25,0,0,-1.25,0,47.5)">
		<g id="g12_15_">
			<g>
				<g>
					<g>
						<g id="g14_15_">
							<g id="g20_15_" transform="translate(34.7988,36.9946)">
								<path id="path22_15_" fill="#99AAB5" d="M62.5-95.8c-0.3,0.1-5.6-2.8-6.9-6.3c-0.9-2.1-1.2-4.2-1.2-5.6
									c-1,0.6-2.1,0.9-3.1,0.9c-0.9,0-1.9-0.3-3.1-0.9c0,1.5-0.3,3.5-1.2,5.6c-1.3,3.5-6.6,6.6-6.9,6.3
									c-0.3-0.1,3.1-11.3,4.8-14.7c-1.6-1.8-3.1-4.1-3.1-6.3c0-2.2,1.2-3.5,2.8-4.1c1.8-0.6,3.5,0.6,6.3,0.6
									c2.8,0,4.5-1.3,6.3-0.6c1.6,0.6,2.8,1.9,2.8,4.1s-1.3,4.4-3.1,6.3C59.6-107.1,62.8-96.1,62.5-95.8"/>
							</g>
							<g id="g24_13_" transform="translate(13.6919,19.0781)">
								<path id="path26_13_" fill="#F4ABBA" d="M68.8-90.6c-0.1,1-0.4,2.5-1,3.8c-1,2.8-4.1,5.1-4.2,5.1c-0.3-0.1,1.8-7.2,3.4-10.4
									C67.5-91.4,68.1-91,68.8-90.6"/>
							</g>
							<g id="g28_13_" transform="translate(27.0303,16.9063)">
								<path id="path30_11_" fill="#F4ABBA" d="M64.9-89.8c1.5,3.2,3.5,10.4,3.4,10.4c-0.3,0.1-3.1-2.2-4.2-5.1
									c-0.6-1.5-0.9-2.8-1-3.8C63.6-88.8,64.3-89.2,64.9-89.8"/>
							</g>
							<g id="g32_11_" transform="translate(26,7)">
								<path id="path34_10_" fill="#CCD6DD" d="M65.2-86.9c0-1.9-2.2-3.5-4.8-3.5c-2.6,0-4.8,1.6-4.8,3.5c0,1.9,2.2,3.5,4.8,3.5
									C63.1-83.4,65.2-85,65.2-86.9"/>
							</g>
							<g id="g36_11_" transform="translate(22,6.4219)">
								<path id="path38_11_" fill="#FFFFFF" d="M66.4-86.8c0-1.9-0.1-2.1-2.1-2.1c-1.9,0-2.1,0.1-2.1,2.1
									C62.3-86,66.4-86,66.4-86.8"/>
							</g>
							<g id="g40_11_" transform="translate(15,12.6719)">
								<path id="path42_11_" fill="#292F33" d="M68.4-88.7c0-0.6-0.4-1-1-1s-1,0.4-1,1s0.4,1,1,1C68-87.7,68.4-88.1,68.4-88.7"/>
							</g>
							<g id="g44_11_" transform="translate(26,12.6719)">
								<path id="path46_11_" fill="#292F33" d="M65.2-88.7c0-0.6-0.4-1-1-1s-1,0.4-1,1s0.4,1,1,1C64.6-87.7,65.2-88.1,65.2-88.7"/>
							</g>
							<g id="g48_10_" transform="translate(22,11.1719)">
								<path id="path50_10_" fill="#F4ABBA" d="M66.4-88.2c0-1.2-1.3-2.1-2.1-2.1c-0.7,0-2.1,0.9-2.1,2.1
									C62.3-86.9,66.4-86.9,66.4-88.2"/>
							</g>
						</g>
					</g>
				</g>
			</g>
		</g>
	</g>
	<g id="g10_14_" transform="matrix(1.25,0,0,-1.25,0,47.5)">
		<g id="g12_17_">
			<g>
				<g>
					<g>
						<g id="g14_17_">
							<g id="g20_17_" transform="translate(36,19)">
								<path id="path22_17_" fill="#FFCC4D" d="M34.3-91.9c0-6.7-5.4-12.3-12.3-12.3c-6.9,0-12.3,5.4-12.3,12.3
									c0,6.7,5.4,12.3,12.3,12.3C28.8-80,34.3-85.3,34.3-91.9"/>
							</g>
							<g id="g24_15_" transform="translate(29.457,19.2031)">
								<path id="path26_15_" fill="#664500" d="M36-92c0,0.2-1,2.4-3.1,2.4s-3.1-2.2-3.1-2.4c0-0.1,0-0.3,0.1-0.4
									c0.1-0.2,0.3-0.2,0.4,0c0,0,0.9,0.6,2.7,0.6c1.8,0,2.5-0.6,2.7-0.6h0.2c0.2,0,0.2,0,0.2,0.2C36-92.3,36-92.1,36-92"/>
							</g>
							<g id="g28_15_" transform="translate(17.457,19.2031)">
								<path id="path30_13_" fill="#664500" d="M39.5-92c0,0.2-1,2.4-3.1,2.4c-2.1,0-3.1-2.2-3.1-2.4c0-0.1,0-0.3,0.2-0.4
									c0.1-0.2,0.3-0.2,0.4,0c0,0,0.9,0.6,2.7,0.6s2.5-0.6,2.7-0.6h0.1c0.2,0,0.2,0,0.2,0.2C39.5-92.3,39.5-92.1,39.5-92"/>
							</g>
							<g id="g32_12_" transform="translate(32,20.9995)">
								<path id="path34_11_" fill="#664500" d="M35.5-92.6c-0.3,0-0.6,0.2-0.6,0.4c-1.2,3.1-4.5,3.9-4.5,3.9
									c-0.4,0.1-0.6,0.4-0.6,0.9c0.1,0.4,0.4,0.6,0.9,0.6c0.1,0,3.9-0.9,5.5-4.6c0.2-0.3,0-0.7-0.4-0.9
									C35.6-92.6,35.5-92.6,35.5-92.6"/>
							</g>
							<g id="g36_12_" transform="translate(5.9995,20.9995)">
								<path id="path38_12_" fill="#664500" d="M42.6-92.6c-0.1,0-0.1,0-0.3,0c-0.3,0.2-0.6,0.6-0.4,0.9c1.5,3.9,5.4,4.6,5.5,4.6
									c0.4,0.2,0.7-0.1,0.9-0.6c0.1-0.4-0.2-0.7-0.6-0.9c-0.2,0-3.1-0.7-4.5-3.9C43.2-92.4,42.9-92.6,42.6-92.6"/>
							</g>
							<g id="g40_12_" transform="translate(19,15)">
								<path id="path42_12_" fill="#664500" d="M39-90.8c-2.5,0-4.3,0.3-6.4,0.7c-0.4,0.2-1.3,0-1.3-1.3c0-2.8,3.3-6.4,7.8-6.4
									c4.5,0,7.8,3.6,7.8,6.4c0,1.3-0.9,1.5-1.3,1.3C43.4-90.5,41.6-90.8,39-90.8"/>
							</g>
							<g id="g44_12_" transform="translate(10,14)">
								<path id="path46_12_" fill="#FFFFFF" d="M41.6-90.5c0,0,2.1-0.7,6.4-0.7c4.2,0,6.4,0.7,6.4,0.7s-1.3-2.8-6.4-2.8
									C43.1-93.4,41.6-90.5,41.6-90.5"/>
							</g>
							<g id="g48_11_" transform="translate(11.8472,8.7705)">
								<path id="path50_11_" fill="#5DADEC" d="M41-89.2c-0.4-1.9-2.4-3.1-4.3-2.5c-1.9,0.4-3.1,2.4-2.5,4.3c0.4,1.9,4.5,6.3,5.2,6
									C40.1-81.4,41.6-87.1,41-89.2"/>
							</g>
							<g id="g52_7_" transform="translate(26.1328,8.7705)">
								<path id="path54_7_" fill="#5DADEC" d="M36.9-89.2c0.4-1.9,2.4-3.1,4.3-2.5c1.9,0.4,3.1,2.4,2.5,4.3c-0.6,1.9-4.5,6.3-5.2,6
									C37.9-81.4,36.4-87.1,36.9-89.2"/>
							</g>
						</g>
					</g>
				</g>
			</g>
		</g>
	</g>
</g>
<g id="tt1">
	<text transform="matrix(1 0 0 1 92.8799 444.5771)" fill="#FFFFFF" font-family="'FiraSans-Regular'" font-size="26">Share your emoji </text>
</g>
<g id="tt2">
	<text transform="matrix(1 0 0 1 83.3081 475.7773)" fill="#FFFFFF" font-family="'FiraSans-Regular'" font-size="26">message with your </text>
</g>
<g id="tt3">
	<text transform="matrix(1 0 0 1 72.5801 506.9775)" fill="#FFFFFF" font-family="'FiraSans-Regular'" font-size="26">friends and let them </text>
</g>
<g id="tt4">
	<text transform="matrix(1 0 0 1 80.5259 538.1777)" fill="#FFFFFF" font-family="'FiraSans-Regular'" font-size="26">try to unscramble it.</text>
</g>
<g id="deli" opacity="0.5">
	<path fill="#FFFFFF" d="M304.5,281.5c0,3.5-2.1,4.4-4.3,4.4h-2.4v-8.6h2.1C302.3,277.1,304.5,277.8,304.5,281.5z M299.6,278.3v6.1
		h0.8c1.2,0,2.4-0.6,2.4-3.1c0-2.6-1.1-3-2.4-3H299.6z"/>
	<path fill="#FFFFFF" d="M311.9,282.9h-4.1c0.1,1.4,0.8,1.7,1.7,1.7c0.6,0,1.1-0.1,1.7-0.6l0.6,0.9c-0.6,0.5-1.5,0.9-2.5,0.9
		c-2,0-3.1-1.4-3.1-3.5c0-2,1-3.5,2.9-3.5c1.8,0,2.9,1.2,2.9,3.4C312.1,282.5,311.9,282.8,311.9,282.9z M310.5,281.8
		c0-1.1-0.3-1.7-1.2-1.7c-0.8,0-1.2,0.5-1.2,1.7H310.5L310.5,281.8z"/>
	<path fill="#FFFFFF" d="M314.1,284.2v-7.8l1.7-0.1v7.9c0,0.3,0.1,0.5,0.3,0.5c0.1,0,0.3,0,0.3,0l0.3,1.1c-0.3,0.1-0.6,0.3-1,0.3
		C314.7,285.9,314.1,285.3,314.1,284.2z"/>
	<path fill="#FFFFFF" d="M320.2,276.8c0,0.5-0.3,1-1,1s-1-0.3-1-1c0-0.5,0.3-1,1-1C319.8,275.8,320.2,276.2,320.2,276.8z
		 M320.1,285.8h-1.7v-6.6h1.7L320.1,285.8L320.1,285.8z"/>
	<path fill="#FFFFFF" d="M325.7,285.8h-1.8l-2.1-6.6h1.7l1.4,5.3l1.5-5.3h1.7L325.7,285.8z"/>
	<path fill="#FFFFFF" d="M334.8,282.9h-4.1c0.1,1.4,0.8,1.7,1.7,1.7c0.6,0,1.1-0.1,1.7-0.6l0.6,0.9c-0.6,0.5-1.5,0.9-2.5,0.9
		c-2,0-3.1-1.4-3.1-3.5c0-2,1-3.5,2.9-3.5c1.8,0,2.9,1.2,2.9,3.4C334.8,282.5,334.8,282.8,334.8,282.9z M333.2,281.8
		c0-1.1-0.3-1.7-1.2-1.7c-0.8,0-1.2,0.5-1.2,1.7H333.2L333.2,281.8z"/>
	<path fill="#FFFFFF" d="M340.8,279l-0.3,1.5c-0.3,0-0.3-0.1-0.6-0.1c-0.8,0-1.2,0.6-1.5,1.7v3.5h-1.5V279h1.4l0.1,1.2
		c0.3-1,1-1.5,1.7-1.5C340.4,278.9,340.6,278.9,340.8,279z"/>
	<path fill="#FFFFFF" d="M347.7,282.9h-4.1c0.1,1.4,0.8,1.7,1.7,1.7c0.6,0,1.1-0.1,1.7-0.6l0.6,0.9c-0.6,0.5-1.5,0.9-2.5,0.9
		c-2,0-3.1-1.4-3.1-3.5c0-2,1-3.5,2.9-3.5c1.9,0,2.9,1.2,2.9,3.4C347.7,282.5,347.7,282.8,347.7,282.9z M346.2,281.8
		c0-1.1-0.3-1.7-1.2-1.7c-0.8,0-1.2,0.5-1.2,1.7H346.2L346.2,281.8z"/>
	<path fill="#FFFFFF" d="M355.4,276.4v9.3H354l-0.1-0.9c-0.3,0.6-1,1-1.8,1c-1.7,0-2.5-1.4-2.5-3.5c0-2,1-3.5,2.6-3.5
		c0.6,0,1.2,0.3,1.7,0.8v-3.4L355.4,276.4z M353.8,283.9v-3c-0.3-0.5-0.8-0.8-1.2-0.8c-0.9,0-1.4,0.8-1.4,2.3c0,1.7,0.5,2.3,1.2,2.3
		C353,284.7,353.4,284.4,353.8,283.9z"/>
</g>
<g id="d1">
	<path id="slide_5_bubble_white_dots_bg" fill="#E5E5E5" d="M157.4,298.6H54c-9.6,0-17.5,7.9-17.5,17.5v18.3v3.6v0.8l0,0
		c0.4,9.2,8.1,16.6,17.5,16.6h103.4c9.3,0,16.9-7.4,17.4-16.6h0.1v-0.9v-3.5V316C174.9,306.5,167,298.6,157.4,298.6z"/>
	<g id="dots">
		<g>
			<circle fill="#283344" cx="79.3" cy="339" r="5.9"/>
		</g>
		<g>
			<circle fill="#283344" cx="105.5" cy="339" r="5.9"/>
		</g>
		<g>
			<circle fill="#283344" cx="131.7" cy="339" r="5.9"/>
		</g>
	</g>
</g>
<g id="d2">
	<path id="slide_5_bubble_white_text_bg_2_" fill="#E5E5E5" d="M157.4,355.4c9.6,0,17.5-7.9,17.5-17.5V316c0-9.6-7.9-17.4-17.5-17.4
		H54c-9.6,0-17.5,7.9-17.5,17.5V338c0,0.5,0,1.1,0.1,1.7L13,355.3"/>
	<text transform="matrix(1 0 0 1 59.98 337.832)" fill="#4C4C4E" font-family="'FiraSans-Regular'" font-size="32">What?</text>
</g>
<text id="tt5" transform="matrix(1 0 0 1 42.016 595.2211)" fill="#FFFFFF" font-family="'FiraSans-Regular'" font-size="26">Ciphers are math at work. </text>
</svg>
