<?xml version="1.0" encoding="utf-8"?>
<!-- Generator: Adobe Illustrator 18.0.0, SVG Export Plug-In . SVG Version: 6.00 Build 0)  -->
<!DOCTYPE svg PUBLIC "-//W3C//DTD SVG 1.1//EN" "http://www.w3.org/Graphics/SVG/1.1/DTD/svg11.dtd">
<svg version="1.1" id="Layer_1" xmlns="http://www.w3.org/2000/svg" xmlns:xlink="http://www.w3.org/1999/xlink" x="0px" y="0px"
	 viewBox="0 800 450 800" enable-background="new 0 800 450 800" xml:space="preserve">
<g id="back">
</g>
<g id="notes">
</g>
<g id="input">
</g>
<g id="landing_pages">
</g>
<g id="onboarding">
</g>
<g id="top">
</g>
<g id="slide_4_to_hide" display="none">
	<g display="inline">
		<g>
			<path fill="none" stroke="#FFFFFF" stroke-width="1.1932" stroke-miterlimit="10" d="M261,1275.1c26.1,9,38.4,28.1,31,54"/>
			<g>
				<polygon fill="#FFFFFF" points="263.6,1283.9 264.9,1283 260.9,1275.9 268.4,1272.1 267.9,1270.6 258.1,1275 				"/>
			</g>
		</g>
	</g>
	<g display="inline" opacity="0.35">
		<g>
			<circle fill="#00E7FF" cx="244.9" cy="1207" r="46.1"/>
		</g>
	</g>
</g>
<g>
	<polyline fill="#283344" points="0,1600 0,800 450,800 450,1600 	"/>
	<g id="slide_4_emoji_1" transform="matrix(1.25,0,0,-1.25,0,47.5)">
		<g id="g12_4_">
			<g>
				<g>
					<g>
						<g>
							<g id="g14_4_">
								<g id="g20_4_" transform="translate(37,19)">
									<path id="path22_4_" fill="#CCD6DD" d="M84-969.6c0-15-12.1-27-27-27s-27.1,12-27.1,27s12.1,27,27,27
										C71.7-942.6,84-954.9,84-969.6"/>
								</g>
								<g id="g24_4_" transform="translate(33,19)">
									<path id="path26_4_" fill="#3B88C3" d="M82-969.6c0-11.6-9.4-21-21-21s-21.1,9.1-21.1,21c0,11.9,9.4,21,21,21
										S82-958,82-969.6"/>
								</g>
								<g id="g28_5_" transform="translate(29,19)">
									<path id="path30_5_" fill="#DD2E44" d="M80-969.6c0-8.1-6.9-15-15-15s-15,6.9-15,15c0,8.1,6.9,15,15,15S80-961.1,80-969.6"
										/>
								</g>
								<g id="g32_8_" transform="translate(25,19)">
									<path id="path34_8_" fill="#FFAC33" d="M78-969.6c0-5-4-9-9-9s-9,4-9,9s4,9,9,9C73.9-960.6,78-964.9,78-969.6"/>
								</g>
								<g id="g36_8_" transform="translate(35.8643,7.8008)">
									<path id="path38_8_" d="M83.5-975.2c-0.6-0.4-1.9-0.9-2.9-0.9c-3,0-7,1.1-9.6,3.6l-4.4,5.9c-0.4,0.4-0.6,0.9-0.1,1.4
										c0.1,0.6-1.1,0.9-0.6,0.9h7.6c2.9,0,6.4-1.9,8.9-4.6l0.6-0.6c1.1-1.1,1.9-2.4,1.9-3.6C84.5-973.9,84.2-974.8,83.5-975.2"/>
								</g>
								<g id="g40_3_" transform="translate(29.3047,1.7959)">
									<path id="path42_3_" d="M80.1-978.4L80.1-978.4c-1.1,0-2.4,0.6-3.9,1.9l-0.9,0.6c-2.9,2.4-5,6.1-5,9v7.9
										c0,0.6,0.9-0.9,1.1-0.6c0.6,0.1,1.4,0.1,1.9-0.1l4.9-4.9c2.6-2.6,4.6-7,4.6-10c0-1-0.1-1.9-0.9-2.6
										C81.8-977.9,81.1-978.4,80.1-978.4"/>
								</g>
								<g id="g44_6_" transform="translate(32.3447,5.0361)">
									<path id="path46_6_" fill="#C1694F" d="M81.7-976.7c-0.4,0-0.9,0.1-1,0.4l-21.1,21.1c-0.6,0.6-0.6,1.6,0,2.1
										c0.6,0.6,1.6,0.6,2.1,0l21-21.1c0.6-0.6,0.6-1.6,0-2.1C82.3-976.6,82-976.7,81.7-976.7"/>
								</g>
							</g>
						</g>
					</g>
				</g>
			</g>
		</g>
	</g>
	<g id="slide_4_emoji_2" transform="matrix(1.25,0,0,-1.25,0,47.5)">
		<g id="g12_5_">
			<g>
				<g>
					<g>
						<g>
							<g id="g14_5_">
								<g id="g20_6_" transform="translate(16.373,35.978)">
									<path id="path22_6_" fill="#5C913B" d="M159.7-961.2c-2.6-2.6-10-12.6-6.1-21.1c3.9-8.9,8.9-3.4,11.1,3.9
										c1.1,3.9,1.1,8.9-1.1,16.1C162.3-958.6,159.7-961.2,159.7-961.2"/>
								</g>
								<g id="g24_6_" transform="translate(35.6768,16.6738)">
									<path id="path26_6_" fill="#5C913B" d="M169.4-971c-2.6-2.6-12.6-10-21.1-6.1c-8.6,3.9-3.4,8.9,3.9,11.1
										c3.9,1.1,8.9,1.1,16.1-1.1C172.1-968.3,169.4-971,169.4-971"/>
								</g>
								<g id="g28_7_" transform="translate(33.3145,30.6826)">
									<path id="path30_7_" fill="#F4900C" d="M168.3-963.7c0,0-0.1,2.6-1.1,3.4c-0.9,0.9-3,0.9-3,0.9c-2.6,0-31.1-3.9-36.1-28.9
										c-0.9-4.4,0.1-7,1.1-8.6c0-0.1,0-0.1,0-0.1c0.1-0.1,0.4-0.4,0.9-0.6c0.1-0.1,0.4-0.4,0.6-0.6h0.1c1.6-1.1,4.1-2.4,8.9-1.4
										C164.3-994.9,168.3-966.3,168.3-963.7"/>
								</g>
							</g>
						</g>
					</g>
				</g>
			</g>
		</g>
		<g id="g32_10_">
			<g>
				<g>
					<g>
						<g>
							<g>
								<g>
									<g>
										<g>
											<g>
												<defs>
													<path id="SVGID_1_" d="M161.1-957.6c-0.9-4.4,0.1-7,1.1-8.6l0,0c0-0.1,0-0.1,0-0.1l0,0c0.1-0.1,0.4-0.4,0.9-0.6l0,0
														c0.1-0.1,0.4-0.4,0.6-0.6l0,0h0.1l0,0c1.6-1.1,4.1-2.4,8.9-1.4l0,0c25,5,29,33.6,29,36l0,0c0,0-0.1,2.6-1.1,3.4l0,0
														c-0.9,0.9-3,0.9-3,0.9l0,0C194.9-928.9,166.1-932.6,161.1-957.6"/>
												</defs>
												<clipPath id="SVGID_2_">
													<use xlink:href="#SVGID_1_"  overflow="visible"/>
												</clipPath>
												<g id="g34_4_" clip-path="url(#SVGID_2_)">
													<g id="g40_54_" transform="translate(25.7686,26.5654)">
														<path id="path42_53_" fill="#F7B82D" d="M164.6-965.9c-0.9-0.9-1.9-0.9-2.4,0l-2.4,2.4c-0.9,0.9-0.9,1.9,0,2.4
															c0.9,0.9,1.9,0.9,2.4,0l2.4-2.4C165.2-964,165.2-965.2,164.6-965.9"/>
													</g>
													<g id="g44_39_" transform="translate(17.6812,26.5654)">
														<path id="path46_39_" fill="#F7B82D" d="M160.4-965.9c-0.9-0.9-1.9-0.9-2.4,0l-2.4,2.4c-0.9,0.9-0.9,1.9,0,2.4
															c0.9,0.6,1.9,0.9,2.4,0l2.4-2.4C161.1-964,161.1-965.2,160.4-965.9"/>
													</g>
													<g id="g48_33_" transform="translate(20.1074,28.9922)">
														<path id="path50_33_" fill="#F7B82D" d="M161.8-964.6c-0.9-0.9-1.9-0.9-2.4,0l-2.4,2.4c-0.9,0.9-0.9,1.9,0,2.4
															c0.9,0.9,1.9,0.9,2.4,0l2.4-2.4C162.3-962.9,162.3-964,161.8-964.6"/>
													</g>
													<g id="g52_35_" transform="translate(15.2559,24.1392)">
														<path id="path54_34_" fill="#F7B82D" d="M159.1-967.1c-0.9-0.9-1.9-0.9-2.4,0l-2.4,2.4c-0.9,0.9-0.9,1.9,0,2.4
															c0.9,0.9,1.9,0.9,2.4,0l2.4-2.4C159.8-965.2,159.8-966.5,159.1-967.1"/>
													</g>
													<g id="g56_25_" transform="translate(28.1943,28.9922)">
														<path id="path58_25_" fill="#F7B82D" d="M165.7-964.6c-0.9-0.9-1.9-0.9-2.4,0l-2.4,2.4c-0.9,0.9-0.9,1.9,0,2.4
															c0.9,0.9,1.9,0.9,2.4,0l2.4-2.4C166.4-962.9,166.4-964,165.7-964.6"/>
													</g>
													<g id="g60_16_" transform="translate(30.6172,31.3828)">
														<path id="path62_30_" fill="#F7B82D" d="M166.8-963.4c-0.9-0.9-1.9-0.9-2.4,0L162-961c-0.9,0.9-0.9,1.9,0,2.4
															c0.9,0.9,1.9,0.9,2.4,0l2.4-2.4C167.6-961.6,167.6-962.6,166.8-963.4"/>
													</g>
													<g id="g64_13_" transform="translate(23.3428,24.1392)">
														<path id="path66_13_" fill="#F7B82D" d="M163.3-967.1c-0.9-0.9-1.9-0.9-2.4,0l-2.4,2.4c-0.9,0.9-0.9,1.9,0,2.4
															c0.9,0.9,1.9,0.9,2.4,0l2.4-2.4C164-965.2,164-966.5,163.3-967.1"/>
													</g>
													<g id="g68_13_" transform="translate(20.915,21.7134)">
														<path id="path70_13_" fill="#F7B82D" d="M162-968.3c-0.9-0.9-1.9-0.9-2.4,0l-2.4,2.4c-0.9,0.9-0.9,1.9,0,2.4
															c0.9,0.9,1.9,0.9,2.4,0l2.4-2.4C162.7-966.6,162.7-967.6,162-968.3"/>
													</g>
													<g id="g72_13_" transform="translate(16.064,16.8613)">
														<path id="path74_13_" fill="#F7B82D" d="M159.6-970.8c-0.9-0.9-1.9-0.9-2.4,0l-2.4,2.4c-0.9,0.9-0.9,1.9,0,2.4
															c0.9,0.9,1.9,0.9,2.4,0l2.4-2.4C160.3-968.9,160.3-970.2,159.6-970.8"/>
													</g>
													<g id="g76_10_" transform="translate(18.4902,19.2871)">
														<path id="path78_10_" fill="#F7B82D" d="M160.6-969.4c-0.9-0.9-1.9-0.9-2.4,0l-2.4,2.4c-0.9,0.9-0.9,1.9,0,2.4
															c0.9,0.9,1.9,0.9,2.4,0l2.4-2.4C161.5-967.7,161.5-968.9,160.6-969.4"/>
													</g>
												</g>
											</g>
										</g>
									</g>
								</g>
							</g>
						</g>
					</g>
				</g>
			</g>
		</g>
		<g id="g80_7_">
			<g>
				<g>
					<g>
						<g>
							<g id="g82_2_">
								<g id="g88_6_" transform="translate(28.8662,13.4258)">
									<path id="path90_6_" fill="#77B255" d="M166.1-972.4c-10.9,3.6-22.9-1-29.1-5.4c4.4,6.4,9,18.4,5.4,29.1
										c-1.4,4.1-8.4,8.4-12.6,4.1c-1.4-1.4-2.9-2.9,0-2.9s7-4.1,5.6-8.4c-1.1-3.9-10.4-13.1-6.1-23.1c-0.4-0.1-0.9-0.4-1.1-0.9
										l-1.1-1.1c-1.4-1.4-1.4-3.6,0-5l1.1-1.1c1.4-1.4,3.6-1.4,5,0l1.1,1.1c0.1,0.1,0.1,0.4,0.4,0.6c10.6-5.9,20.9,4.1,24.6,5.6
										c4.1,1.4,8.4-2.9,8.4-5.6c0-2.9,1.4-1.4,2.9,0C174.5-980.8,170.2-973.8,166.1-972.4"/>
								</g>
							</g>
						</g>
					</g>
				</g>
			</g>
		</g>
	</g>
	<g id="slide_4_emoji_3" transform="matrix(1.25,0,0,-1.25,0,47.5)">
		<g id="g12_3_">
			<g>
				<g>
					<g>
						<g>
							<g id="g14_3_">
								<g id="g20_3_" transform="translate(35.9639,25.0449)">
									<path id="path22_3_" fill="#FFCC4D" d="M255.7-966.6L255.7-966.6c0,0,1.6,15,0,16.4c-1.4,1.4-10.1-1-11.9-1.4
										c-3.9,1.9-8.1,3-13.9,3c-5.6,0-10.1-1.1-13.9-3c-1.6,0.4-10.4,2.9-11.9,1.4c-1.6-1.6,0-16.6,0-16.6v0.1
										c-1.1-3.9-1.6-8-1.6-12.1c0-8.1,5.1-14.9,11.4-18.9c0.1,9.9-3.4,20.4-9.1,20.4c-0.9,0-1.1-0.1-1.9-0.1
										c0.4,1.1,1.4,1.9,3.1,1.9c6.4,0,10-12.9,9.1-22.9c4.9-2.9,10-4.1,14.1-4.1s9.4,1.4,14.1,4.1c-0.9,10.1,2.9,22.9,9.1,22.9
										c1.9,0,2.9-0.6,3.1-1.9c-0.4,0.1-1,0.1-1.9,0.1c-5.9,0-9.4-10.9-9.1-20.4c6.1,4.1,11.4,10.6,11.4,19
										C257.4-974.6,256.7-970.4,255.7-966.6"/>
								</g>
								<g id="g24_3_" transform="translate(19,16)">
									<path id="path26_3_" fill="#292F33" d="M247.1-971.1c-3.1,0-6-2.9-6-6v-9c0-3.1,2.9-6,6-6s6,2.9,6,6v9
										C253.1-973.9,250.4-971.1,247.1-971.1"/>
								</g>
								<g id="g28_4_" transform="translate(18.9995,22)">
									<path id="path30_4_" fill="#67757F" d="M247.1-968.1c4.6,0,4.6-0.9,4.6-2.1c0-1.4-2.1-4.6-4.6-4.6c-2.1,0-4.6,3-4.6,4.6
										C242.6-968.9,242.9-968.1,247.1-968.1"/>
								</g>
								<g id="g32_6_" transform="translate(30.9238,16.4941)">
									<path id="path34_5_" fill="#9AAAB4" d="M253.1-970.9l-7.6-1.6c-0.4-0.1-0.9-0.4-0.6-0.9c0.3-0.4,0.4-0.6,0.9-0.6h0.1
										l6.1,1.1C252.5-972.1,253-971.5,253.1-970.9"/>
								</g>
								<g id="g36_5_" transform="translate(34.5605,19)">
									<path id="path38_5_" fill="#9AAAB4" d="M255-969.6L255-969.6l2.4,0.9c0.4,0.1,0.6,0.6,0.4,1c-0.1,0.4-0.6,0.6-1,0.4
										l-13.6-4.6c-0.4-0.1-0.6-0.6-0.4-1c0.1-0.1,0.4-0.6,0.9-0.6c0.1,0,0.1,0,0.1,0l8.1,2.9C253-970,254-969.6,255-969.6"/>
								</g>
								<g id="g40_2_" transform="translate(12.0981,15.4902)">
									<path id="path42_2_" fill="#9AAAB4" d="M243.8-971.4l-7.6,1.6c0.1-0.6,0.9-1.1,1-1.9l6.1-1.1h0.1c0.1,0,0.9,0.1,0.9,0.6
										C244.3-971.6,244-971.5,243.8-971.4"/>
								</g>
								<g id="g44_1_" transform="translate(11.1582,17.4746)">
									<path id="path46_1_" fill="#9AAAB4" d="M243.2-970.4l-13.6,4.6c-0.4,0.1-0.9-0.1-1-0.4c-0.1-0.4,0.1-0.9,0.4-1l2.4-0.9l0,0
										c1,0,2-0.4,3-1l8.1-2.9c0.1,0,0.1,0,0.1,0c0.1,0,0.6,0.1,0.9,0.6C243.8-970.9,243.5-970.5,243.2-970.4"/>
								</g>
								<g id="g48_1_" transform="translate(8.3472,26.3345)">
									<path id="path50_1_" fill="#F5F8FA" d="M242-966c-1.4-4.9,0.1-9.4,3.6-10.4s7.1,2,8.9,6.9c1.4,4.9-0.1,9.4-3.6,10.4
										C247.1-958,243.3-961,242-966"/>
								</g>
								<g id="g52_8_" transform="translate(29.6523,26.3345)">
									<path id="path54_8_" fill="#F5F8FA" d="M252.7-966c1.4-4.9-0.1-9.4-3.6-10.4c-3.4-1-7.1,2-8.9,6.9
										c-1.4,4.9,0.1,9.4,3.6,10.4C247.3-958,251-961,252.7-966"/>
								</g>
								<g id="g56_5_" transform="translate(36.7529,17.8174)">
									<path id="path58_5_" fill="#FCAB40" d="M256.2-970.2c-0.4,0.1-1,0.1-1.9,0.1c-7,0-10.6-15-8.9-25.6h9.9
										C252.3-984.9,257.8-974.4,256.2-970.2"/>
								</g>
								<g id="g60_13_" transform="translate(2.4043,18)">
									<path id="path62_8_" fill="#FCAB40" d="M238.7-970.1c-0.9,0-1.1-0.1-1.9-0.1c0.1,0.1,0.1,0.6,0.4,0.9
										c-2.9-3.4,3.4-14.9,0.4-26h9.9C249.5-985.1,245.7-970.1,238.7-970.1"/>
								</g>
							</g>
						</g>
					</g>
				</g>
			</g>
		</g>
	</g>
	<g>
		<text transform="matrix(1 0 0 1 58.3751 1362.4641)" fill="#FFFFFF" font-family="'FiraMono-Medium'" font-size="30.8571">PICK AN EMOJI KEY </text>
		<text transform="matrix(1 0 0 1 67.6593 1399.4651)" fill="#FFFFFF" font-family="'FiraMono-Medium'" font-size="30.8571">TO SCRAMBLE YOUR </text>
		<text transform="matrix(1 0 0 1 160.2316 1436.4648)" fill="#FFFFFF" font-family="'FiraMono-Medium'" font-size="30.8571">MESSAGE</text>
	</g>
	<path id="slide_5_emoji_selector" fill="#F46060" d="M254,1300.3h-57c-4,0-7.3-3.3-7.3-7.3l0,0c0-4,3.3-7.3,7.3-7.3h57
		c4,0,7.3,3.3,7.3,7.3l0,0C261.3,1297,258,1300.3,254,1300.3z"/>
	<path fill="#3B88C3" d="M388.1,1125.6H61.9c-11,0-20-9-20-20V919.1c0-11,9-20,20-20h326.4c11,0,20,9,20,20v186.1
		C408.1,1116.6,399.1,1125.6,388.1,1125.6z"/>
	<g id="slide_4_plain_text">
		<path fill="#FFFFFF" d="M89,952.3H77.3v16.3h-6v-35.7h6v14.5H89v-14.5h6v35.7h-6V952.3z"/>
		<path fill="#FFFFFF" d="M126.3,965.2l-1.3,3.9c-2.6-0.3-4.7-1.4-5.6-3.8c-2,2.5-5.2,3.8-8.7,3.8c-5.6,0-9-3.4-9-8.5
			c0-5.7,4.7-9,13-9h3.9V950c0-3.6-2.2-5-6.1-5c-1.8,0-4.5,0.4-7.2,1.4l-1.4-4.1c3.4-1.3,6.8-1.9,9.6-1.9c7.3,0,10.9,3.4,10.9,9.2
			v12.2C124.2,964,124.8,964.8,126.3,965.2z M118.5,961.4v-6.1h-3.2c-5.4,0-7.6,1.9-7.6,5.1c0,2.9,1.6,4.5,4.6,4.5
			C114.7,964.9,117.1,963.6,118.5,961.4z"/>
		<path fill="#FFFFFF" d="M148.7,968.5H142l-9.7-27.3h6.3l6.9,22.5l7-22.5h6L148.7,968.5z"/>
		<path fill="#FFFFFF" d="M177.7,964.7c2.6,0,4.9-0.8,7.2-2.4l2.5,3.5c-2.5,2.1-6.1,3.4-9.9,3.4c-8.5,0-13.2-5.8-13.2-14.3
			c0-8.2,4.7-14.4,12.5-14.4c7.2,0,11.8,5.2,11.8,13.7c0,0.9-0.1,1.9-0.2,2.6h-18.1C170.6,962.3,173.8,964.7,177.7,964.7z
			 M170.2,952.8h12.7c-0.1-5.2-2.2-8-6.1-8C173.1,944.8,170.5,947.3,170.2,952.8z"/>
		<path fill="#FFFFFF" d="M250.5,965.2l-1.3,3.9c-2.6-0.3-4.7-1.4-5.6-3.8c-2,2.5-5.2,3.8-8.7,3.8c-5.6,0-9-3.4-9-8.5
			c0-5.7,4.7-9,13-9h3.9V950c0-3.6-2.2-5-6.1-5c-1.8,0-4.5,0.4-7.2,1.4l-1.4-4.1c3.4-1.3,6.8-1.9,9.6-1.9c7.3,0,10.9,3.4,10.9,9.2
			v12.2C248.4,964,249.1,964.8,250.5,965.2z M242.7,961.4v-6.1h-3.2c-5.4,0-7.6,1.9-7.6,5.1c0,2.9,1.6,4.5,4.6,4.5
			C238.9,964.9,241.3,963.6,242.7,961.4z"/>
		<path fill="#FFFFFF" d="M72.3,1003.3h5l0.4,3.6c2.3-2.8,5.5-4.3,8.9-4.3c5.1,0,7.6,3,7.6,8.1v19.9h-5.8v-17c0-4.8-0.6-6.6-3.9-6.6
			c-2.7,0-5,1.9-6.4,4v19.6h-5.8L72.3,1003.3L72.3,1003.3z"/>
		<path fill="#FFFFFF" d="M118.2,1026.4h7.5v4.2h-21.4v-4.2h8.1v-18.8h-7.9v-4.2h13.7L118.2,1026.4L118.2,1026.4z M118,993.6
			c0,2.1-1.6,3.6-3.8,3.6c-2.3,0-3.8-1.6-3.8-3.6s1.5-3.7,3.8-3.7S118,991.5,118,993.6z"/>
		<path fill="#FFFFFF" d="M154.3,1024.2l2.6,3.7c-2.4,2-6,3.4-9.6,3.4c-8.4,0-13.3-5.6-13.3-14.2c0-8.3,5-14.5,13.4-14.5
			c3.7,0,6.8,1.1,9.5,3.3l-2.7,3.6c-2.1-1.4-4.3-2.3-6.7-2.3c-4.3,0-7.3,3.1-7.3,9.9s3.1,9.4,7.3,9.4
			C150.1,1026.6,152.3,1025.6,154.3,1024.2z"/>
		<path fill="#FFFFFF" d="M177.7,1026.8c2.6,0,4.9-0.8,7.2-2.4l2.5,3.5c-2.5,2.1-6.1,3.4-9.9,3.4c-8.5,0-13.2-5.8-13.2-14.3
			c0-8.2,4.7-14.4,12.5-14.4c7.2,0,11.8,5.2,11.8,13.7c0,0.9-0.1,1.9-0.2,2.6h-18.1C170.6,1024.4,173.8,1026.8,177.7,1026.8z
			 M170.2,1014.9h12.7c-0.1-5.2-2.2-8-6.1-8C173.1,1006.9,170.5,1009.4,170.2,1014.9z"/>
		<path fill="#FFFFFF" d="M249.4,992.4v38.3h-5.1l-0.4-3.4c-1.8,2.6-4.5,4-7.7,4c-7,0-10.3-5.7-10.3-14.3c0-8.3,4.1-14.4,10.8-14.4
			c2.8,0,5.1,1,6.9,3v-13.9L249.4,992.4z M232,1017c0,7,2.1,9.9,5.7,9.9c2.6,0,4.5-1.8,5.8-3.9v-12.9c-1.3-1.9-3.2-3.1-5.4-3.1
			C234.3,1007.1,232,1010.2,232,1017z"/>
		<path fill="#FFFFFF" d="M281.6,1027.4l-1.3,3.9c-2.6-0.3-4.7-1.4-5.6-3.8c-2,2.5-5.2,3.8-8.7,3.8c-5.6,0-9-3.4-9-8.5
			c0-5.7,4.7-9,13-9h3.9v-1.8c0-3.6-2.2-5-6.1-5c-1.8,0-4.5,0.4-7.2,1.4l-1.4-4.1c3.4-1.3,6.8-1.9,9.6-1.9c7.3,0,10.9,3.4,10.9,9.2
			v12.4C279.5,1026.1,280.1,1026.9,281.6,1027.4z M273.7,1023.6v-6.1h-3.2c-5.4,0-7.6,1.9-7.6,5.1c0,2.9,1.6,4.5,4.6,4.5
			C270,1027.1,272.4,1025.8,273.7,1023.6z"/>
		<path fill="#FFFFFF" d="M304.1,1030.8c-2.1,6.2-5.7,10.4-13.4,11.1l-0.7-4.3c5.5-0.9,7.3-2.9,8.7-6.8h-2l-9.2-27.3h6.2l6.9,23.3
			l7-23.3h6L304.1,1030.8z"/>
	</g>
	<g id="slide_4_encrypted_emoji">
		<g id="g10_147_" transform="matrix(1.25,0,0,-1.25,0,47.5)">
			<g id="g12_172_">
				<g>
					<g>
						<g>
							<g id="g14_174_">
								<g id="g20_158_" transform="translate(36,19)">
									<path id="path22_158_" fill="#FFCC4D" d="M137.3-743.6c0-6.4-5.1-11.6-11.6-11.6s-11.6,5.1-11.6,11.6
										c0,6.4,5.1,11.6,11.6,11.6C132-732.2,137.3-737.3,137.3-743.6"/>
								</g>
								<g id="g24_149_" transform="translate(29.457,19.2031)">
									<path id="path26_149_" fill="#664500" d="M139.3-743.6c0,0.1-1,2.3-3,2.3s-3-2.1-3-2.3s0-0.3,0.1-0.4s0.3-0.1,0.4,0
										c0,0,0.9,0.6,2.6,0.6s2.4-0.6,2.6-0.6h0.1c0.1,0,0.1,0,0.1,0.1C139.3-743.9,139.3-743.8,139.3-743.6"/>
								</g>
								<g id="g28_108_" transform="translate(17.457,19.2031)">
									<path id="path30_103_" fill="#664500" d="M143.2-743.6c0,0.1-1,2.3-3,2.3s-3-2.1-3-2.3s0-0.3,0.1-0.4s0.3-0.1,0.4,0
										c0,0,0.9,0.6,2.6,0.6s2.4-0.6,2.6-0.6h0.1c0.1,0,0.1,0,0.1,0.1C143.2-743.9,143.2-743.8,143.2-743.6"/>
								</g>
								<g id="g32_85_" transform="translate(32,20.9995)">
									<path id="path34_82_" fill="#664500" d="M138.6-744.3c-0.3,0-0.6,0.1-0.6,0.4c-1.1,3-4.3,3.7-4.3,3.7
										c-0.4,0.1-0.6,0.4-0.6,0.9c0.1,0.4,0.4,0.6,0.9,0.6c0.1,0,3.7-0.9,5.3-4.4c0.1-0.3,0-0.7-0.4-0.9
										C138.7-744.3,138.6-744.3,138.6-744.3"/>
								</g>
								<g id="g36_76_" transform="translate(5.9995,20.9995)">
									<path id="path38_76_" fill="#664500" d="M146.8-744.3c-0.1,0-0.1,0-0.3,0c-0.3,0.1-0.6,0.6-0.4,0.9
										c1.4,3.7,5.1,4.4,5.3,4.4c0.4,0.1,0.7-0.1,0.9-0.6c0.1-0.4-0.1-0.7-0.6-0.9c-0.1,0-3-0.7-4.3-3.7
										C147.4-744.2,147.1-744.3,146.8-744.3"/>
								</g>
								<g id="g40_78_" transform="translate(19,15)">
									<path id="path42_76_" fill="#664500" d="M142.7-742.3c-2.4,0-4.1,0.3-6.1,0.7c-0.4,0.1-1.3,0-1.3-1.3
										c0-2.7,3.1-6.1,7.4-6.1s7.4,3.4,7.4,6.1c0,1.3-0.9,1.4-1.3,1.3C146.8-742,145.1-742.3,142.7-742.3"/>
								</g>
								<g id="g44_60_" transform="translate(10,14)">
									<path id="path46_60_" fill="#FFFFFF" d="M145.6-742c0,0,2-0.7,6.1-0.7c4,0,6.1,0.7,6.1,0.7s-1.3-2.7-6.1-2.7
										C147-744.7,145.6-742,145.6-742"/>
								</g>
								<g id="g48_49_" transform="translate(11.8472,8.7705)">
									<path id="path50_49_" fill="#5DADEC" d="M144.9-740.4c-0.4-1.9-2.3-2.9-4.1-2.4c-1.9,0.4-2.9,2.3-2.4,4.1
										c0.4,1.9,4.3,5.9,5,5.7C144.1-733.1,145.5-738.5,144.9-740.4"/>
								</g>
								<g id="g52_48_" transform="translate(26.1328,8.7705)">
									<path id="path54_46_" fill="#5DADEC" d="M140.3-740.4c0.4-1.9,2.3-2.9,4.1-2.4c1.9,0.4,2.9,2.3,2.4,4.1s-4.3,5.9-5,5.7
										C141.3-733.1,139.9-738.5,140.3-740.4"/>
								</g>
							</g>
						</g>
					</g>
				</g>
			</g>
		</g>
		<g id="g10_148_" transform="matrix(1.25,0,0,-1.25,0,47.5)">
			<g id="g12_173_">
				<g>
					<g>
						<g>
							<g id="g14_175_">
								<g id="g20_159_" transform="translate(36,19)">
									<path id="path22_159_" fill="#FFCC4D" d="M47.1-793.9c0-6.4-5.1-11.6-11.6-11.6s-11.6,5.1-11.6,11.6s5.1,11.6,11.6,11.6
										C42-782.4,47.1-787.6,47.1-793.9"/>
								</g>
								<g id="g24_150_" transform="translate(29.457,19.2031)">
									<path id="path26_150_" fill="#664500" d="M49.2-793.9c0,0.1-1,2.3-3,2.3s-3-2.1-3-2.3c0-0.1,0-0.3,0.1-0.4s0.3-0.1,0.4,0
										c0,0,0.9,0.6,2.6,0.6s2.4-0.6,2.6-0.6H49c0.1,0,0.1,0,0.1,0.1C49.2-794.2,49.3-794.1,49.2-793.9"/>
								</g>
								<g id="g28_109_" transform="translate(17.457,19.2031)">
									<path id="path30_104_" fill="#664500" d="M53-793.9c0,0.1-1,2.3-3,2.3s-3-2.1-3-2.3c0-0.1,0-0.3,0.1-0.4s0.3-0.1,0.4,0
										c0,0,0.9,0.6,2.6,0.6c1.7,0,2.4-0.6,2.6-0.6h0.1c0.1,0,0.1,0,0.1,0.1C53-794.2,53.2-794.1,53-793.9"/>
								</g>
								<g id="g32_86_" transform="translate(32,20.9995)">
									<path id="path34_83_" fill="#664500" d="M48.4-794.6c-0.3,0-0.6,0.1-0.6,0.4c-1.1,3-4.3,3.7-4.3,3.7
										c-0.4,0.1-0.6,0.4-0.6,0.9c0.1,0.4,0.4,0.6,0.9,0.6c0.1,0,3.7-0.9,5.3-4.4c0.1-0.3,0-0.7-0.4-0.9
										C48.6-794.6,48.6-794.6,48.4-794.6"/>
								</g>
								<g id="g36_77_" transform="translate(5.9995,20.9995)">
									<path id="path38_77_" fill="#664500" d="M56.8-794.6c-0.1,0-0.1,0-0.3,0c-0.3,0.1-0.6,0.6-0.4,0.9c1.4,3.7,5.1,4.4,5.3,4.4
										c0.4,0.1,0.7-0.1,0.9-0.6c0.1-0.4-0.1-0.7-0.6-0.9c-0.1,0-3-0.7-4.3-3.7C57.3-794.4,57-794.6,56.8-794.6"/>
								</g>
								<g id="g40_79_" transform="translate(19,15)">
									<path id="path42_77_" fill="#664500" d="M52.6-792.6c-2.4,0-4.1,0.3-6.1,0.7c-0.4,0.1-1.3,0-1.3-1.3c0-2.7,3.1-6.1,7.4-6.1
										c4.3,0,7.4,3.4,7.4,6.1c0,1.3-0.9,1.4-1.3,1.3C56.7-792.3,55-792.6,52.6-792.6"/>
								</g>
								<g id="g44_61_" transform="translate(10,14)">
									<path id="path46_61_" fill="#FFFFFF" d="M55.6-792.3c0,0,2-0.7,6.1-0.7c4,0,6.1,0.7,6.1,0.7s-1.3-2.7-6.1-2.7
										C56.8-795,55.6-792.3,55.6-792.3"/>
								</g>
								<g id="g48_50_" transform="translate(11.8472,8.7705)">
									<path id="path50_50_" fill="#5DADEC" d="M54.9-790.5c-0.4-1.9-2.3-2.9-4.1-2.4c-1.9,0.4-2.9,2.3-2.4,4.1s4.3,5.9,5,5.7
										C53.9-783.4,55.4-788.8,54.9-790.5"/>
								</g>
								<g id="g52_49_" transform="translate(26.1328,8.7705)">
									<path id="path54_47_" fill="#5DADEC" d="M50.3-790.5c0.4-1.9,2.3-2.9,4.1-2.4c1.9,0.4,2.9,2.3,2.4,4.1s-4.3,5.9-5,5.7
										C51.2-783.4,49.9-788.8,50.3-790.5"/>
								</g>
							</g>
						</g>
					</g>
				</g>
			</g>
		</g>
		<g id="g10_150_" transform="matrix(1.25,0,0,-1.25,0,47.5)">
			<g id="g12_175_">
				<g>
					<g>
						<g>
							<g id="g14_177_">
								<g id="g20_161_" transform="translate(34.7988,36.9946)">
									<path id="path22_161_" fill="#99AAB5" d="M197.5-749.4c-0.3,0.1-5.4-2.7-6.7-6.1c-0.9-2-1.1-4.1-1.1-5.4
										c-1,0.6-2,0.9-2.9,0.9s-1.9-0.3-2.9-0.9c0,1.4-0.3,3.4-1.1,5.4c-1.3,3.4-6.4,6.3-6.7,6.1c-0.3-0.1,2.9-10.9,4.7-14.1
										c-1.6-1.7-2.9-4-2.9-6.1c0-2.1,1.1-3.4,2.7-4c1.7-0.6,3.4,0.6,6.1,0.6s4.4-1.3,6.1-0.6c1.6,0.6,2.7,1.9,2.7,4
										c0,2.1-1.3,4.3-2.9,6.1C194.6-760.3,197.8-749.6,197.5-749.4"/>
								</g>
								<g id="g24_152_" transform="translate(13.6919,19.0781)">
									<path id="path26_152_" fill="#F4ABBA" d="M204.3-743.7c-0.1,1-0.4,2.4-1,3.7c-1,2.7-3.9,4.9-4.1,4.9
										c-0.3-0.1,1.7-6.9,3.3-10.1C203-744.5,203.6-744.1,204.3-743.7"/>
								</g>
								<g id="g28_110_" transform="translate(27.0303,16.9063)">
									<path id="path30_105_" fill="#F4ABBA" d="M200-742.9c1.4,3.1,3.4,10,3.3,10.1c-0.3,0.1-3-2.1-4.1-4.9
										c-0.6-1.4-0.9-2.7-1-3.7C198.7-741.9,199.4-742.3,200-742.9"/>
								</g>
								<g id="g32_87_" transform="translate(26,7)">
									<path id="path34_84_" fill="#CCD6DD" d="M200.3-739.7c0-1.9-2.1-3.4-4.6-3.4c-2.6,0-4.6,1.6-4.6,3.4s2.1,3.4,4.6,3.4
										C198.3-736.3,200.3-737.9,200.3-739.7"/>
								</g>
								<g id="g36_78_" transform="translate(22,6.4219)">
									<path id="path38_78_" fill="#FFFFFF" d="M201.6-739.5c0-1.9-0.1-2-2-2s-2,0.1-2,2C197.6-738.8,201.6-738.8,201.6-739.5"/>
								</g>
								<g id="g40_80_" transform="translate(15,12.6719)">
									<path id="path42_78_" fill="#292F33" d="M203.8-741.6c0-0.6-0.4-1-1-1s-1,0.4-1,1c0,0.6,0.4,1,1,1S203.8-741,203.8-741.6"
										/>
								</g>
								<g id="g44_62_" transform="translate(26,12.6719)">
									<path id="path46_62_" fill="#292F33" d="M200.3-741.6c0-0.6-0.4-1-1-1s-1,0.4-1,1c0,0.6,0.4,1,1,1
										C199.8-740.6,200.3-741,200.3-741.6"/>
								</g>
								<g id="g48_51_" transform="translate(22,11.1719)">
									<path id="path50_51_" fill="#F4ABBA" d="M201.6-741.1c0-1.1-1.3-2-2-2s-2,0.9-2,2C197.6-739.9,201.6-739.9,201.6-741.1"/>
								</g>
							</g>
						</g>
					</g>
				</g>
			</g>
		</g>
		<g id="g10_154_" transform="matrix(1.25,0,0,-1.25,0,47.5)">
			<g id="g12_178_">
				<g>
					<g>
						<g>
							<g id="g14_180_">
								<g id="g20_168_" transform="translate(18,19)">
									<path id="path22_168_" fill="#E1E8ED" d="M52.8-839c0-3.7-2.6-6.7-5.7-6.7c-3.1,0-5.7,3-5.7,6.7s2.6,6.7,5.7,6.7
										C50.3-832.3,52.8-835.3,52.8-839"/>
								</g>
								<g id="g24_155_" transform="translate(37,19)">
									<path id="path26_155_" fill="#E1E8ED" d="M46.8-839c0-3.7-2.6-6.7-5.7-6.7c-3.1,0-5.7,3-5.7,6.7s2.6,6.7,5.7,6.7
										C44.3-832.3,46.8-835.3,46.8-839"/>
								</g>
								<g id="g28_113_" transform="translate(9,15)">
									<path id="path30_107_" fill="#292F33" d="M55.8-837.7c0-1.1-0.9-2-2-2s-2,0.9-2,2c0,1.1,0.9,2,2,2
										C54.8-835.7,55.8-836.6,55.8-837.7"/>
								</g>
								<g id="g32_89_" transform="translate(28,15)">
									<path id="path34_86_" fill="#292F33" d="M49.7-837.7c0-1.1-0.9-2-2-2s-2,0.9-2,2c0,1.1,0.9,2,2,2S49.7-836.6,49.7-837.7"/>
								</g>
							</g>
						</g>
					</g>
				</g>
			</g>
		</g>
		<g id="g10_157_" transform="matrix(1.25,0,0,-1.25,0,47.5)">
			<g id="g12_181_">
				<g>
					<g>
						<g>
							<g id="g14_183_">
								<g id="g20_171_" transform="translate(18,19)">
									<path id="path22_171_" fill="#E1E8ED" d="M173-839c0-3.7-2.6-6.7-5.7-6.7s-5.7,3-5.7,6.7s2.6,6.7,5.7,6.7
										S173-835.3,173-839"/>
								</g>
								<g id="g24_158_" transform="translate(37,19)">
									<path id="path26_158_" fill="#E1E8ED" d="M166.8-839c0-3.7-2.6-6.7-5.7-6.7s-5.7,3-5.7,6.7s2.6,6.7,5.7,6.7
										C164.3-832.3,166.8-835.3,166.8-839"/>
								</g>
								<g id="g28_116_" transform="translate(9,15)">
									<path id="path30_110_" fill="#292F33" d="M175.8-837.7c0-1.1-0.9-2-2-2s-2,0.9-2,2c0,1.1,0.9,2,2,2
										S175.8-836.6,175.8-837.7"/>
								</g>
								<g id="g32_92_" transform="translate(28,15)">
									<path id="path34_89_" fill="#292F33" d="M169.8-837.7c0-1.1-0.9-2-2-2s-2,0.9-2,2c0,1.1,0.9,2,2,2
										C168.8-835.7,169.8-836.6,169.8-837.7"/>
								</g>
							</g>
						</g>
					</g>
				</g>
			</g>
		</g>
		<g id="g10_149_" transform="matrix(1.25,0,0,-1.25,0,47.5)">
			<g id="g12_174_">
				<g>
					<g>
						<g>
							<g id="g14_176_">
								<g id="g20_160_" transform="translate(23.4941,31.6558)">
									<path id="path22_160_" fill="#DD2E44" d="M171.2-747.7c-0.4,0-0.9,0-1.3-0.1c-0.6,0-1.9,0.1-2.4,0.1
										c-5.7,0-10.7-2.1-10.7-9.7c0-6.1,4.7-11.1,11.6-11.1c6.7,0,12.1,5,12.1,11.1C180.3-749.7,174.1-747.7,171.2-747.7"/>
								</g>
								<g id="g24_151_" transform="translate(9.439,36.9087)">
									<path id="path26_151_" fill="#77B255" d="M175.7-749.3c1.1-1.1,1.9-1.6,2.3-3.3c0.1-1,1.6-1,1.6-1s-2.7-1.1-3.7-2.3
										c0,0,3.3,1.1,4.4,1.1c0,0,2.3-1.1,2.3-2.3c0,0,0,2.3-1.1,2.3c0,0,3.3,0,3.3-2.3c0,0,0,3.3-1.1,3.3c0,0,3.3,1.1,4.4,0
										c0,0-1.1,1.1-3.3,1.1c0,0,1.1,1.1,3.3,1.1c0,0-3.6,1-4.7-1.1c0,0-1,1,1,2.9c0,0-2.9-0.6-2.9-2.7c0,0-1,0-1.9,0.9
										C178-750.2,175.7-749.3,175.7-749.3"/>
								</g>
							</g>
						</g>
					</g>
				</g>
			</g>
		</g>
		<g id="g10_159_" transform="matrix(1.25,0,0,-1.25,0,47.5)">
			<g id="g12_183_">
				<g>
					<g>
						<g>
							<g id="g14_185_">
								<g id="g20_173_" transform="translate(35.751,15)">
									<path id="path22_173_" fill="#77B255" d="M107.2-742.3c-2.3,0-8-2.4-10.7-4.9v8.3c0,0.4-0.3,0.7-0.7,0.7s-0.7-0.3-0.7-0.7
										v-8.4c-2.6,2.4-8.4,5-10.9,5c-0.6,0,7.4-9.4,10.9-8.6v-0.3c0-0.4,0.3-0.7,0.7-0.7s0.7,0.3,0.7,0.7v0.3
										C100-751.6,107.7-742.3,107.2-742.3"/>
								</g>
								<g id="g24_160_" transform="translate(26,23.5835)">
									<path id="path26_160_" fill="#EA596E" d="M110.3-745c0-4.3-1.1-6.4-4.7-6.4c-3.6,0-4.7,2.1-4.7,6.4s3.4,9.1,4.7,9.1
										C106.8-735.9,110.3-740.8,110.3-745"/>
								</g>
								<g id="g28_118_" transform="translate(23.7949,35)">
									<path id="path30_111_" fill="#F4ABBA" d="M111-748.7c-0.3,0-2.7-9.7-3.3-13c-0.6,3.4-3,13-3.4,13c-0.7,0-4-6.1-4-8.9
										c0-2.8,3.9-5.4,7.4-5.4s7.3,2.7,7.3,5.4C115-754.9,111.8-748.7,111-748.7"/>
								</g>
							</g>
						</g>
					</g>
				</g>
			</g>
		</g>
		<g id="g10_146_" transform="matrix(1.25,0,0,-1.25,0,47.5)">
			<g id="g12_171_">
				<g>
					<g>
						<g>
							<g id="g14_173_">
								<g id="g20_157_" transform="translate(35.751,15)">
									<path id="path22_157_" fill="#77B255" d="M227.2-792.6c-2.3,0-8-2.4-10.7-4.9v8.3c0,0.4-0.3,0.7-0.7,0.7
										c-0.4,0-0.7-0.3-0.7-0.7v-8.4c-2.6,2.4-8.4,5-10.9,5c-0.6,0,7.4-9.4,10.9-8.6v-0.3c0-0.4,0.3-0.7,0.7-0.7
										c0.4,0,0.7,0.3,0.7,0.7v0.3C220-801.9,227.7-792.6,227.2-792.6"/>
								</g>
								<g id="g24_148_" transform="translate(26,23.5835)">
									<path id="path26_148_" fill="#EA596E" d="M230.3-795.3c0-4.3-1.1-6.4-4.7-6.4s-4.7,2.1-4.7,6.4s3.4,9.1,4.7,9.1
										C226.8-786.3,230.3-791,230.3-795.3"/>
								</g>
								<g id="g28_107_" transform="translate(23.7949,35)">
									<path id="path30_102_" fill="#F4ABBA" d="M231-799c-0.3,0-2.7-9.7-3.3-13c-0.6,3.4-3,13-3.4,13c-0.7,0-4-6.1-4-8.9
										c0-2.8,3.9-5.4,7.4-5.4c3.6,0,7.3,2.7,7.3,5.4C235-805.2,231.8-799,231-799"/>
								</g>
							</g>
						</g>
					</g>
				</g>
			</g>
		</g>
		<g id="g10_156_" transform="matrix(1.25,0,0,-1.25,0,47.5)">
			<g id="g12_180_">
				<g>
					<g>
						<g>
							<g id="g14_182_">
								<g id="g20_170_" transform="translate(2.7266,14.7012)">
									<path id="path22_170_" fill="#FFAC33" d="M147.9-837.9c0,0-0.9,0.9,0,1.9c0.9,0.9,1.9,0,1.9,0l4.3-4l0.3,0.6l-6,5.6
										c0,0-0.9,0.9,0,1.9s1.9,0,1.9,0l5.6-5.1l0.4,0.4l-6.6,6c0,0-0.9,0.9,0,1.9c0.9,0.9,1.9,0,1.9,0l6.6-6l0.4,0.4l-6.1,5.7
										c0,0-0.9,0.9,0,1.9c0.9,0.9,1.9,0,1.9,0s4.6-4.1,6.4-6c1.9-1.7,2.3-1.3,2.3-1.3l-1.7,1.6l-2,1.9c0,0-0.9,0.9,0,1.9
										c0.9,0.9,1.9,0,1.9,0l5.1-4.7c3.1-2.9,3.3-7.7,0.4-10.7c-2.9-3.1-7.7-3.3-10.7-0.4c-0.1,0.1-0.4,0.4-0.4,0.4l0,0
										L147.9-837.9z"/>
								</g>
								<g id="g24_157_" transform="translate(5.627,16.6504)">
									<path id="path26_157_" fill="#FFDC5D" d="M147-838.4c0,0-0.9,0.9,0,1.9s1.9,0,1.9,0l4.3-4l0.3,0.6l-6,5.6
										c0,0-0.9,0.9,0,1.9c0.9,0.9,1.9,0,1.9,0l5.6-5.1l0.4,0.4l-6.6,6c0,0-0.9,0.9,0,1.9s1.9,0,1.9,0l6.6-6l0.4,0.4l-6.1,5.7
										c0,0-0.9,0.9,0,1.9c0.9,0.9,1.9,0,1.9,0s4.6-4.1,6.4-6c1.9-1.7,2.3-1.3,2.3-1.3l-1.7,1.6l-2,1.9c0,0-0.9,0.9,0,1.9
										c0.9,0.9,1.9,0,1.9,0l5.1-4.7c3.1-2.9,3.3-7.7,0.4-10.7c-2.9-3.1-7.7-3.3-10.7-0.4c-0.1,0.1-0.4,0.4-0.4,0.4l0,0L147-838.4
										z"/>
								</g>
								<g id="g28_115_" transform="translate(25.541,30.5415)">
									<path id="path30_109_" fill="#FFAC33" d="M140.2-843.2c-0.1,0-0.3,0-0.4,0.1c-0.3,0.3-0.3,0.7-0.1,1l2,2.6
										c0.3,0.3,0.6,0.3,1,0.1c0.3-0.3,0.3-0.6,0.1-1l-2-2.6C140.7-843.1,140.5-843.2,140.2-843.2"/>
								</g>
								<g id="g32_91_" transform="translate(20,30)">
									<path id="path34_88_" fill="#FFAC33" d="M142.1-843c-0.4,0-0.7,0.3-0.7,0.7v3.3c0,0.4,0.3,0.7,0.7,0.7
										c0.4,0,0.7-0.3,0.7-0.7v-3.3C142.8-842.7,142.6-843,142.1-843"/>
								</g>
								<g id="g36_82_" transform="translate(29.417,27.333)">
									<path id="path38_82_" fill="#FFAC33" d="M139-842c-0.3,0-0.6,0.1-0.6,0.4c-0.1,0.3,0,0.7,0.4,0.9l3,1.1
										c0.3,0.1,0.7,0,0.9-0.4c0.1-0.3,0-0.7-0.4-0.9l-3-1.1C139.2-842,139-842,139-842"/>
								</g>
							</g>
						</g>
					</g>
				</g>
			</g>
		</g>
		<g id="g10_144_" transform="matrix(1.25,0,0,-1.25,0,47.5)">
			<g id="g12_169_">
				<g>
					<g>
						<g>
							<g id="g14_171_">
								<g id="g20_155_" transform="translate(21.1426,4.7852)">
									<path id="path22_155_" fill="#E1E8ED" d="M51.9-739.1c0-0.9-0.7-1.4-1.4-1.4c-0.9,0-1.4,0.7-1.4,1.4c0,0.9,0.7,1.4,1.4,1.4
										C51.2-737.5,51.9-738.2,51.9-739.1"/>
								</g>
								<g id="g24_146_" transform="translate(28.6426,21.3569)">
									<path id="path26_146_" fill="#E1E8ED" d="M49.6-744.4c0,3.6-2.9,6.6-6.6,6.6c-3.6,0-6.6-2.9-6.6-6.6
										c0-3.6-0.7-11.3-0.7-11.3c0-0.9,0.7-1.4,1.4-1.4c0.9,0,1.4,0.7,1.4,1.4c0-0.9,0.7-1.4,1.4-1.4c0.9,0,1.4,0.7,1.4,1.4h2.9
										c0-0.9,0.7-1.4,1.4-1.4c0.9,0,1.4,0.7,1.4,1.4c0-0.9,0.7-1.4,1.4-1.4c0.9,0,1.4,0.7,1.4,1.4
										C50.3-755.6,49.6-748,49.6-744.4"/>
								</g>
								<g id="g28_105_" transform="translate(21,34)">
									<path id="path30_100_" fill="#DD2E44" d="M52-748.4c0-1.4-1-4-1.3-4c-0.4,0-1.3,2.6-1.3,4c0,1.4,1,2,1.3,2S52-747,52-748.4
										"/>
								</g>
								<g id="g32_84_" transform="translate(16.6348,4)">
									<path id="path34_81_" fill="#DD2E44" d="M53.4-738.7c0,1.7,1.1,5.4,1.6,5.4s1.6-3.7,1.6-5.4s-1.1-2-1.6-2
										C54.5-740.9,53.4-740.6,53.4-738.7"/>
								</g>
								<g id="g36_75_" transform="translate(26,14.5)">
									<path id="path38_75_" fill="#F4900C" d="M50.3-742.2c0-1-3.3-3-4.7-3s-4.7,2-4.7,3s3.3,3,4.7,3
										C47.1-739.1,50.3-741.2,50.3-742.2"/>
								</g>
								<g id="g40_77_" transform="translate(26,14.5)">
									<path id="path42_75_" fill="#FFAC33" d="M50.3-742.2c0-1-9.4-1-9.4,0s3.3,3,4.7,3C47.1-739.1,50.3-741.2,50.3-742.2"/>
								</g>
								<g id="g44_59_" transform="translate(14,18.5)">
									<path id="path46_59_" fill="#292F33" d="M54.1-743.5c0-0.6-0.4-1-1-1s-1,0.4-1,1s0.4,1,1,1S54.1-742.9,54.1-743.5"/>
								</g>
								<g id="g48_48_" transform="translate(27,18.5)">
									<path id="path50_48_" fill="#292F33" d="M50-743.5c0-0.6-0.4-1-1-1s-1,0.4-1,1s0.4,1,1,1S50-742.9,50-743.5"/>
								</g>
							</g>
						</g>
					</g>
				</g>
			</g>
		</g>
		<g id="g10_155_" transform="matrix(1.25,0,0,-1.25,0,47.5)">
			<g id="g12_179_">
				<g>
					<g>
						<g>
							<g id="g14_181_">
								<g id="g20_169_" transform="translate(27,28.0005)">
									<path id="path22_169_" fill="#292F33" d="M81.6-842c-2.4,0-4.3,1.1-5.4,3.3c-1.1-2.1-2.7-3.3-4.7-3.3
										c-0.4,0-0.7,0.3-0.7,0.7c0,0.4,0.3,0.7,0.7,0.7c1.9,0,3.3,1.3,4.1,4c0.1,0.3,0.3,0.4,0.7,0.4s0.6-0.1,0.7-0.4
										c0.9-2.7,2.4-4,4.7-4c0.4,0,0.7-0.3,0.7-0.7C82.3-841.7,82-842,81.6-842"/>
								</g>
								<g id="g24_156_" transform="translate(15.604,27.3462)">
									<path id="path26_156_" fill="#FFAC33" d="M85.2-841.7c2.3-2.3,0.3-4-2-6.3s-4-4.3-6.3-2s-2.3,6,0,8.3S83-839.4,85.2-841.7"
										/>
								</g>
								<g id="g28_114_" transform="translate(16.4351,26.0278)">
									<path id="path30_108_" fill="#BE1931" d="M84.9-841.3c1.1-1.1,0.1-3.7-2-5.9c-2.1-2.1-4.9-3.1-5.9-2
										c-1.1,1.1-0.1,3.7,2,5.9C81.2-841.1,83.9-840.3,84.9-841.3"/>
								</g>
								<g id="g32_90_" transform="translate(22.2988,27.3462)">
									<path id="path34_87_" fill="#FFAC33" d="M83.1-841.7c-2.3-2.3-0.3-4,2-6.3s4-4.3,6.3-2s2.3,6,0,8.3
										C89-839.4,85.4-839.4,83.1-841.7"/>
								</g>
								<g id="g36_81_" transform="translate(21.4688,26.0278)">
									<path id="path38_81_" fill="#BE1931" d="M83.3-841.3c-1.1-1.1-0.1-3.7,2-5.9c2.1-2.1,4.9-3.1,5.9-2c1.1,1.1,0.1,3.7-2,5.9
										C87-841.1,84.3-840.3,83.3-841.3"/>
								</g>
								<g id="g40_83_" transform="translate(23.4102,18.7793)">
									<path id="path42_81_" fill="#AA8DD8" d="M82.7-839c0.1,0.1,0.3,0.1,0.4,0.1c0.6,0,1.1-0.3,1.4-0.6c0.4-0.3,0.6-0.9,0.4-1.3
										c-0.1-0.9-0.9-1.6-2.3-1.4c-0.6,0-0.7-0.1-0.7-0.1c0-0.1,0.1-0.3,0.7-0.4c0.6,0,1.1-0.3,1.4-0.6c0.4-0.3,0.6-0.9,0.4-1.3
										c-0.1-0.9-0.9-1.6-2.3-1.4c-0.4,0-0.6,0-0.7-0.1l-0.1-0.1c0-0.1,0.1-0.3,0.7-0.4c0.4,0,0.6-0.4,0.6-0.7
										c0-0.4-0.4-0.6-0.7-0.6c-1.4,0.1-2,1-1.9,1.9c0.1,0.9,0.9,1.6,2.3,1.4c0.4,0,0.6,0,0.7,0.1l0.1,0.1c0,0.1-0.1,0.3-0.7,0.4
										c-1.4,0.1-2,1-1.9,1.9c0.1,0.9,0.9,1.6,2.3,1.4c0.4,0,0.6,0,0.7,0.1l0.1,0.1c0,0.1-0.1,0.3-0.7,0.4c-0.4,0-0.6,0.4-0.6,0.7
										C82.5-839.2,82.6-839.1,82.7-839"/>
								</g>
								<g id="g44_64_" transform="translate(16.2661,1.0146)">
									<path id="path46_64_" fill="#77B255" d="M85-833.3c-1.3-0.4-2.3,0.3-2.4,1c-0.3,0.7,0.3,1.7,1.6,2.1
										c0.6,0.1,0.7,0.4,0.7,0.4c0,0.1-0.3,0.1-0.9,0c-1.3-0.4-2.3,0.3-2.4,1c-0.3,0.7,0.3,1.7,1.6,2.1c0.6,0.1,0.7,0.4,0.7,0.4
										c0,0.1-0.3,0.1-0.9,0c-0.4-0.1-0.7,0.1-0.9,0.4c-0.1,0.4,0.1,0.7,0.4,0.9c1.3,0.4,2.3-0.3,2.4-1c0.3-0.7-0.3-1.7-1.6-2.1
										c-0.6-0.1-0.7-0.4-0.7-0.4c0-0.1,0.3-0.1,0.9,0c1.3,0.4,2.3-0.3,2.4-1c0.3-0.7-0.3-1.7-1.6-2.1c-0.6-0.1-0.7-0.4-0.7-0.4
										c0-0.1,0.3-0.1,0.9,0c0.4,0.1,0.7-0.1,0.9-0.4C85.5-832.9,85.4-833.1,85-833.3"/>
								</g>
								<g id="g48_53_" transform="translate(2,9.5)">
									<path id="path50_53_" fill="#5C913B" d="M89.6-835.9c0,0.6,0.4,1,1,1s1-0.4,1-1c0-0.6-0.4-1-1-1
										C90-837.1,89.6-836.5,89.6-835.9"/>
								</g>
								<g id="g52_51_" transform="translate(6,6)">
									<path id="path54_49_" fill="#9266CC" d="M88.3-834.9c0,0.7,0.6,1.3,1.3,1.3s1.3-0.6,1.3-1.3c0-0.7-0.6-1.3-1.3-1.3
										C88.8-836.3,88.3-835.6,88.3-834.9"/>
								</g>
								<g id="g56_36_" transform="translate(29,10)">
									<path id="path58_36_" fill="#9266CC" d="M80.8-836.2c0,0.7,0.6,1.3,1.3,1.3s1.3-0.6,1.3-1.3s-0.6-1.3-1.3-1.3
										C81.6-837.6,80.8-836.9,80.8-836.2"/>
								</g>
								<g id="g60_48_" transform="translate(25,5.5)">
									<path id="path62_41_" fill="#5C913B" d="M82.1-834.7c0,0.6,0.4,1,1,1s1-0.4,1-1c0-0.6-0.4-1-1-1
										C82.7-835.8,82.1-835.2,82.1-834.7"/>
								</g>
								<g id="g64_24_" transform="translate(17,17.5)">
									<path id="path66_24_" fill="#5C913B" d="M84.7-838.5c0,0.6,0.4,1,1,1s1-0.4,1-1s-0.4-1-1-1
										C85.1-839.5,84.7-839.1,84.7-838.5"/>
								</g>
								<g id="g68_24_" transform="translate(6,14)">
									<path id="path70_24_" fill="#FFCC4D" d="M88.3-837.4c0,0.7,0.6,1.3,1.3,1.3s1.3-0.6,1.3-1.3c0-0.7-0.6-1.3-1.3-1.3
										C88.8-838.9,88.3-838.2,88.3-837.4"/>
								</g>
								<g id="g72_22_" transform="translate(27,20.5)">
									<path id="path74_22_" fill="#FFCC4D" d="M81.6-839.5c0,0.6,0.4,1,1,1s1-0.4,1-1s-0.4-1-1-1S81.6-840.1,81.6-839.5"/>
								</g>
								<g id="g76_20_" transform="translate(12,22.5)">
									<path id="path78_20_" fill="#FFCC4D" d="M86.4-840.2c0,0.6,0.4,1,1,1s1-0.4,1-1c0-0.6-0.4-1-1-1
										C86.8-841.2,86.4-840.8,86.4-840.2"/>
								</g>
							</g>
						</g>
					</g>
				</g>
			</g>
		</g>
		<g id="g10_22_" transform="matrix(1.25,0,0,-1.25,0,47.5)">
			<g id="g12_49_">
				<g>
					<g>
						<g>
							<g id="g14_49_">
								<g id="g20_37_" transform="translate(12.9829,33.438)">
									<path id="path22_37_" fill="#FFAC33" d="M114.6-798.5c3.1,0.1,5.3-1.1,5.4-4.6c0.1-2.9-3.6-4.6-5.4-4.7
										c-1.7,0-0.9,1.3,0.4,1.6c1,0.3,2.9,1.6,2.4,3c-0.4,1.6-2.9,1.9-4.3-0.1c-0.6-0.9-2.4-0.6-2.7,0.3
										C109.7-801.5,111.1-798.7,114.6-798.5"/>
								</g>
								<g id="g24_28_" transform="translate(36.75,15.6162)">
									<path id="path26_28_" fill="#E1E8ED" d="M106.9-792.7c0,5.3-3,7.7-9.9,7.7c-0.7,0-1.4,0-2-0.1c-0.9,1.6-3.3,1.9-5.6,1.9
										c-2.9,0-6.7-4.1-6.7-7.3s2.4-3.3,5.3-3.3c0.1-2.1,0.9-3.9,2.1-4.9c0.1-0.7,1-3.9,2.7-3.9c0.9,0,1.4,1.1,1.7,2.3
										c0.7-0.1,1.6-0.1,2.6-0.1c1.1,0,2.3,0.1,3.1,0.3c0-1.1,0.4-2.4,1.4-2.4c1.6,0,2.9,3.4,3.3,4.4
										C106.2-797,106.9-795.2,106.9-792.7"/>
								</g>
								<g id="g28_37_" transform="translate(7,21.2139)">
									<path id="path30_28_" fill="#292F33" d="M116.4-794.6c0-0.6-0.4-1-1-1s-1,0.4-1,1c0,0.6,0.4,1,1,1S116.4-794.1,116.4-794.6
										"/>
								</g>
								<g id="g32_60_" transform="translate(18.5625,32.6611)">
									<path id="path34_19_" fill="#FFCC4D" d="M112.7-798.3c2.9-1,3.9-2.9,2.7-6.1c-0.9-2.7-5-3-6.9-2.3c-1.6,0.6-0.4,1.6,1,1.3
										c1.1-0.1,3.1,0.4,3.4,1.9c0.1,1.6-2,2.7-4,1.4c-0.9-0.6-3.9-0.3-3.7,0.7C105.7-799.3,109.5-797.2,112.7-798.3"/>
								</g>
							</g>
						</g>
					</g>
				</g>
			</g>
		</g>
		<g id="g10_153_" transform="matrix(1.25,0,0,-1.25,0,47.5)">
			<g id="g12_177_">
				<g>
					<g>
						<g>
							<g id="g14_179_">
								<g id="g20_163_" transform="translate(36,19)">
									<path id="path22_163_" fill="#FDCB58" d="M197.1-793.9c0-6.4-5.1-11.6-11.6-11.6c-6.4,0-11.6,5.1-11.6,11.6
										s5.1,11.6,11.6,11.6C192-782.4,197.1-787.6,197.1-793.9"/>
								</g>
								<g id="g24_154_" transform="translate(7,24)">
									<path id="path26_154_" fill="#664500" d="M206.4-795.4c-0.4,0-0.7,0.3-0.7,0.7c0,0.4,0.3,0.7,0.7,0.7c0.1,0,2.4,0,4.1,2.4
										c0.3,0.3,0.7,0.4,1,0.1s0.4-0.7,0.1-1C209.6-795.4,206.6-795.4,206.4-795.4"/>
								</g>
								<g id="g28_112_" transform="translate(31,24)">
									<path id="path30_106_" fill="#664500" d="M198.7-795.4c-0.1,0-3.1,0-5.3,3c-0.3,0.3-0.1,0.7,0.1,1c0.2,0.3,0.7,0.1,1-0.1
										c1.9-2.4,4.1-2.4,4.1-2.4c0.4,0,0.7-0.3,0.7-0.7C199.3-795,199.1-795.4,198.7-795.4"/>
								</g>
								<g id="g32_88_" transform="translate(31.5996,16.7998)">
									<path id="path34_85_" fill="#664500" d="M198.5-793.2c-0.1,0-1.3,1-3.1,1.6c0,0.1,0,0.1,0,0.3c0,0.3-0.1,0.4-0.3,0.7
										c1.3,0.3,2.3,0.4,2.3,0.4c0.4,0,0.7,0.3,0.7,0.7c0,0.4-0.3,0.7-0.7,0.7c-0.1,0-3.7,0-5.9-2.3c-0.1-0.1-0.3-0.4-0.1-0.7
										c0.1-0.3,0.3-0.4,0.6-0.4c3.1,0,5.7-1.9,5.7-1.9c0.1-0.1,0.3-0.1,0.4-0.1s0.4,0.1,0.6,0.3
										C198.8-793.8,198.8-793.4,198.5-793.2"/>
								</g>
								<g id="g36_80_" transform="translate(16.707,19.707)">
									<path id="path38_80_" fill="#664500" d="M203.3-794.1c-2.1,2.1-5.7,2.3-5.9,2.3c-0.4,0-0.7-0.3-0.7-0.7
										c0-0.4,0.3-0.7,0.7-0.7c0,0,1,0,2.3-0.4c-0.1-0.1-0.3-0.4-0.3-0.7c0-0.1,0-0.1,0-0.3c-1.9-0.6-3.1-1.6-3.1-1.6
										c-0.3-0.3-0.4-0.7-0.1-1c0.1-0.1,0.3-0.3,0.6-0.3c0.1,0,0.3,0,0.4,0.1c0,0,2.6,1.9,5.7,1.9c0.3,0,0.6,0.1,0.6,0.4
										C203.6-794.6,203.4-794.3,203.3-794.1"/>
								</g>
								<g id="g40_82_" transform="translate(19,7)">
									<path id="path42_80_" fill="#664500" d="M202.6-790c-0.1,0-0.4,0.1-0.6,0.3l-2.1,2.7l-1.6-2c-0.1-0.1-0.3-0.3-0.4-0.3
										s-0.4,0-0.6,0.1l-0.7,0.7c-0.3,0.3-0.3,0.7,0,1s0.7,0.3,1,0l0.1-0.1l1.6,2.1c0.1,0.1,0.3,0.3,0.6,0.3
										c0.1,0,0.4-0.1,0.6-0.3l2.1-2.7l2.1,2.7c0.1,0.1,0.3,0.3,0.6,0.3c0.1,0,0.4-0.1,0.6-0.3l1.6-2.1l0.1,0.1
										c0.3,0.3,0.7,0.3,1,0s0.3-0.7,0-1l-0.7-0.7c-0.1-0.1-0.3-0.1-0.6-0.1c-0.1,0-0.4,0.1-0.4,0.3l-1.6,2l-2.1-2.7
										C203-789.9,202.7-790,202.6-790"/>
								</g>
							</g>
						</g>
					</g>
				</g>
			</g>
		</g>
		<g id="g10_20_" transform="matrix(1.25,0,0,-1.25,0,47.5)">
			<g id="g12_47_">
				<g>
					<g>
						<g>
							<g id="g14_47_">
								<g id="g20_35_" transform="translate(36.8848,25.1665)">
									<path id="path22_35_" fill="#BE1931" d="M136.7-796.1c0,3.7-3,6.6-6.6,6.6c-2.3,0-4.1-1.1-5.4-2.7
										c-1.1,1.7-3.1,2.7-5.4,2.7c-3.7,0-6.6-3-6.6-6.6c0-0.6,0-1,0.1-1.6c0.9-5.7,7.3-11.7,11.9-13.4c4.6,1.7,10.9,7.7,11.9,13.4
										C136.7-797.1,136.7-796.5,136.7-796.1"/>
								</g>
							</g>
						</g>
					</g>
				</g>
			</g>
		</g>
		<g id="g10_152_" transform="matrix(1.25,0,0,-1.25,0,47.5)">
			<g id="g12_176_">
				<g>
					<g>
						<g>
							<g id="g14_178_">
								<g id="g20_162_" transform="translate(19,33)">
									<path id="path22_162_" fill="#F4900C" d="M172.6-798.6c4.9,0,8.7-2.7,9.9-1.3c0.1,0.3,0.1,0.4,0.1,0.7
										c0,1.3-4.6,3.4-10.1,3.4c-5.6,0-10.1-2-10.1-3.4c0-0.3,0-0.4,0.1-0.7C163.8-801.3,167.7-798.6,172.6-798.6"/>
								</g>
								<g id="g24_153_" transform="translate(19,34)">
									<path id="path26_153_" fill="#FFCC4D" d="M172.6-798.9c-4.1,0-7.1-1.3-8.3-1.7c-0.3-0.1-0.4-0.6-0.3-0.9s7.1-18.3,7.1-18.3
										s0.6-1.3,1.3-1.3c0.7,0,1.3,1.3,1.3,1.3l7.1,18.3c0,0,0.1,0.6-0.4,0.9C179.6-800,176.7-798.9,172.6-798.9"/>
								</g>
							</g>
						</g>
					</g>
				</g>
			</g>
			<g id="g28_111_">
				<g>
					<g>
						<g>
							<g>
								<g>
									<g>
										<g>
											<defs>
												<path id="SVGID_3_" d="M183.3-766.7c-0.3-0.1-0.4-0.6-0.3-0.9l0,0c0.1-0.3,7.1-18.3,7.1-18.3l0,0c0,0,0.7-1.3,1.3-1.3
													l0,0c0.7,0,1.3,1.3,1.3,1.3l0,0l7.1,18.3c0,0,0.1,0.6-0.4,0.9l0,0c-1.1,0.6-4.1,1.7-8.1,1.7l0,0
													C187.4-764.9,184.4-766.2,183.3-766.7"/>
											</defs>
											<clipPath id="SVGID_4_">
												<use xlink:href="#SVGID_3_"  overflow="visible"/>
											</clipPath>
											<g id="g30_3_" clip-path="url(#SVGID_4_)">
												<g id="g36_79_" transform="translate(19,6)">
													<path id="path38_79_" fill="#BE1931" d="M172.6-789.7c0-1.4-1.1-2.7-2.7-2.7s-2.7,1.1-2.7,2.7c0,1.4,1.1,2.7,2.7,2.7
														S172.6-788.3,172.6-789.7"/>
												</g>
												<g id="g40_81_" transform="translate(18,17)">
													<path id="path42_79_" fill="#BE1931" d="M172.8-793.3c0-1.4-1.1-2.7-2.7-2.7c-1.4,0-2.7,1.1-2.7,2.7
														c0,1.4,1.1,2.7,2.7,2.7C171.7-790.7,172.8-791.9,172.8-793.3"/>
												</g>
												<g id="g44_63_" transform="translate(21,29)">
													<path id="path46_63_" fill="#BE1931" d="M171.8-797.3c0-1.4-1.1-2.7-2.7-2.7c-1.4,0-2.7,1.1-2.7,2.7
														c0,1.6,1.1,2.7,2.7,2.7C170.7-794.6,171.8-795.9,171.8-797.3"/>
												</g>
												<g id="g48_52_" transform="translate(30,24)">
													<path id="path50_52_" fill="#BE1931" d="M169-795.6c0-1.4-1.1-2.7-2.7-2.7s-2.7,1.1-2.7,2.7c0,1.4,1.1,2.7,2.7,2.7
														C167.8-792.9,169-794.2,169-795.6"/>
												</g>
												<g id="g52_50_" transform="translate(28,12)">
													<path id="path54_48_" fill="#BE1931" d="M169.6-791.7c0-1.4-1.1-2.7-2.7-2.7s-2.7,1.1-2.7,2.7c0,1.4,1.1,2.7,2.7,2.7
														C168.4-789,169.6-790.3,169.6-791.7"/>
												</g>
												<g id="g56_35_" transform="translate(11,25)">
													<path id="path58_35_" fill="#BE1931" d="M175.1-796c0-1.4-1.1-2.7-2.7-2.7c-1.4,0-2.7,1.1-2.7,2.7
														c0,1.4,1.1,2.7,2.7,2.7S175.1-794.4,175.1-796"/>
												</g>
											</g>
										</g>
									</g>
								</g>
							</g>
						</g>
					</g>
				</g>
			</g>
		</g>
		<g id="g10_158_" transform="matrix(1.25,0,0,-1.25,0,47.5)">
			<g id="g12_182_">
				<g>
					<g>
						<g>
							<g id="g14_184_">
								<g id="g20_172_" transform="translate(19,33)">
									<path id="path22_172_" fill="#F4900C" d="M202.4-843.7c4.9,0,8.7-2.7,9.9-1.3c0.1,0.3,0.1,0.4,0.1,0.7
										c0,1.3-4.6,3.4-10.1,3.4c-5.6,0-10.1-2-10.1-3.4c0-0.3,0-0.4,0.1-0.7C193.7-846.4,197.6-843.7,202.4-843.7"/>
								</g>
								<g id="g24_159_" transform="translate(19,34)">
									<path id="path26_159_" fill="#FFCC4D" d="M202.4-844.2c-4.1,0-7.1-1.3-8.3-1.7c-0.3-0.1-0.4-0.6-0.3-0.9
										C194-847,201-865,201-865s0.6-1.3,1.3-1.3s1.3,1.3,1.3,1.3l7.1,18.3c0,0,0.1,0.6-0.4,0.9
										C209.4-845.2,206.6-844.2,202.4-844.2"/>
								</g>
							</g>
						</g>
					</g>
				</g>
			</g>
			<g id="g28_117_">
				<g>
					<g>
						<g>
							<g>
								<g>
									<g>
										<g>
											<defs>
												<path id="SVGID_5_" d="M213.3-811.9c-0.3-0.1-0.4-0.6-0.3-0.9l0,0c0.1-0.3,7.1-18.3,7.1-18.3l0,0c0,0,0.7-1.3,1.3-1.3
													l0,0c0.7,0,1.3,1.3,1.3,1.3l0,0l7.1,18.3c0,0,0.1,0.6-0.4,0.9l0,0c-1.1,0.6-4.1,1.7-8.1,1.7l0,0
													C217.3-810.2,214.3-811.3,213.3-811.9"/>
											</defs>
											<clipPath id="SVGID_6_">
												<use xlink:href="#SVGID_5_"  overflow="visible"/>
											</clipPath>
											<g id="g30_4_" clip-path="url(#SVGID_6_)">
												<g id="g36_83_" transform="translate(19,6)">
													<path id="path38_83_" fill="#BE1931" d="M202.4-834.9c0-1.4-1.1-2.7-2.7-2.7c-1.4,0-2.7,1.1-2.7,2.7
														c0,1.6,1.1,2.7,2.7,2.7S202.4-833.4,202.4-834.9"/>
												</g>
												<g id="g40_84_" transform="translate(18,17)">
													<path id="path42_82_" fill="#BE1931" d="M202.8-838.6c0-1.4-1.1-2.7-2.7-2.7c-1.4,0-2.7,1.1-2.7,2.7
														c0,1.4,1.1,2.7,2.7,2.7C201.6-835.9,202.8-837,202.8-838.6"/>
												</g>
												<g id="g44_65_" transform="translate(21,29)">
													<path id="path46_65_" fill="#BE1931" d="M201.8-842.4c0-1.4-1.1-2.7-2.7-2.7c-1.4,0-2.7,1.1-2.7,2.7
														c0,1.4,1.1,2.7,2.7,2.7C200.6-839.7,201.8-841,201.8-842.4"/>
												</g>
												<g id="g48_54_" transform="translate(30,24)">
													<path id="path50_54_" fill="#BE1931" d="M198.8-840.9c0-1.4-1.1-2.7-2.7-2.7s-2.7,1.1-2.7,2.7c0,1.4,1.1,2.7,2.7,2.7
														C197.7-838.2,198.8-839.3,198.8-840.9"/>
												</g>
												<g id="g52_52_" transform="translate(28,12)">
													<path id="path54_50_" fill="#BE1931" d="M199.6-836.9c0-1.4-1.1-2.7-2.7-2.7s-2.7,1.1-2.7,2.7c0,1.4,1.1,2.7,2.7,2.7
														C198.4-834.2,199.6-835.4,199.6-836.9"/>
												</g>
												<g id="g56_37_" transform="translate(11,25)">
													<path id="path58_37_" fill="#BE1931" d="M205.1-841.2c0-1.4-1.1-2.7-2.7-2.7c-1.4,0-2.7,1.1-2.7,2.7
														c0,1.4,1.1,2.7,2.7,2.7C203.8-838.4,205.1-839.6,205.1-841.2"/>
												</g>
											</g>
										</g>
									</g>
								</g>
							</g>
						</g>
					</g>
				</g>
			</g>
		</g>
	</g>
</g>
</svg>
