<?xml version="1.0" encoding="utf-8"?>
<!-- Generator: Adobe Illustrator 16.0.0, SVG Export Plug-In . SVG Version: 6.00 Build 0)  -->
<!DOCTYPE svg PUBLIC "-//W3C//DTD SVG 1.1//EN" "http://www.w3.org/Graphics/SVG/1.1/DTD/svg11.dtd">
<svg version="1.1" id="s6" xmlns="http://www.w3.org/2000/svg" xmlns:xlink="http://www.w3.org/1999/xlink" x="0px" y="0px"
	 width="393.1px" height="700px" viewBox="0 0 393.1 700" enable-background="new 0 0 393.1 700" xml:space="preserve">
<polyline fill="#283344" points="0,700 0,0 393.1,0 393.1,700 "/>
<g id="tt1">
	<text transform="matrix(1 0 0 1 103.0679 444.5771)" fill="#FFFFFF" font-family="'FiraSans-Regular'" font-size="26">When you want </text>
</g>
<g id="tt2">
	<text transform="matrix(1 0 0 1 63.0903 475.7773)" fill="#FFFFFF" font-family="'FiraSans-Regular'" font-size="26">someone to read your </text>
</g>
<g id="tt3">
	<text transform="matrix(1 0 0 1 77.417 506.9775)" fill="#FFFFFF" font-family="'FiraSans-Regular'" font-size="26">message, give them </text>
</g>
<g id="tt4">
	<text transform="matrix(1 0 0 1 117.0962 538.1777)" fill="#FFFFFF" font-family="'FiraSans-Regular'" font-size="26">the emoji key</text>
</g>
<g id="msg">
	<path id="slide_5_bubble_white_text_bg_2_" fill="#E5E5E5" d="M157.402,352.4c9.6,0,17.5-7.899,17.5-17.5V313
		c0-9.601-7.9-17.4-17.5-17.4H54c-9.6,0-17.5,7.9-17.5,17.5V335c0,0.5,0,1.1,0.1,1.7L13,352.3"/>
	<text transform="matrix(1 0 0 1 59.98 334.832)" fill="#4C4C4E" font-family="'FiraSans-Regular'" font-size="32">What?</text>
</g>
<g id="thekey">
	<path id="onboarding_slide_6_mais_bubble" fill="#005189" d="M379.9,437.6l-23.5-16.1v-25.7c0-8.2-6.7-15-15-15H116.399
		c-8.199,0-15,6.7-15,15v26.9c0,8.2,6.701,15,15,15H341.4c0.6,0,1.197,0,1.897-0.103L379.9,437.6L379.9,437.6z"/>
	<text transform="matrix(1 0 0 1 126.0723 419.9785)" fill="#FFFFFF" font-family="'FiraSans-Regular'" font-size="32">Here’s the key</text>
</g>
<g id="deli_2" opacity="0.5">
	<path fill="#FFFFFF" d="M304.5,448.7c0,3.5-2.1,4.397-4.3,4.397h-2.4v-8.6h2.103C302.3,444.3,304.5,445,304.5,448.7z M299.6,445.5
		v6.1h0.803c1.197,0,2.397-0.6,2.397-3.1c0-2.6-1.1-3-2.397-3H299.6z"/>
	<path fill="#FFFFFF" d="M311.9,450.1H307.8c0.103,1.4,0.8,1.7,1.7,1.7c0.6,0,1.1-0.1,1.7-0.6l0.6,0.897c-0.6,0.5-1.5,0.9-2.5,0.9
		c-2,0-3.1-1.4-3.1-3.5c0-2,1-3.5,2.897-3.5c1.803,0,2.9,1.2,2.9,3.4C312.1,449.7,311.9,450,311.9,450.1z M310.5,449
		c0-1.1-0.3-1.7-1.2-1.7c-0.8,0-1.2,0.5-1.2,1.7H310.5L310.5,449z"/>
	<path fill="#FFFFFF" d="M314.1,451.4V443.6l1.7-0.1v7.9c0,0.3,0.103,0.5,0.3,0.5c0.103,0,0.303,0,0.303,0l0.3,1.1
		c-0.3,0.1-0.603,0.3-1,0.3C314.7,453.1,314.1,452.5,314.1,451.4z"/>
	<path fill="#FFFFFF" d="M320.2,444c0,0.5-0.3,1-1,1s-1-0.3-1-1c0-0.5,0.3-1,1-1C319.8,443,320.2,443.4,320.2,444z M320.1,453H318.4
		v-6.6h1.697L320.1,453L320.1,453z"/>
	<path fill="#FFFFFF" d="M325.7,453h-1.8l-2.103-6.6h1.7l1.4,5.3l1.5-5.3h1.697L325.7,453z"/>
	<path fill="#FFFFFF" d="M334.8,450.1h-4.1c0.1,1.4,0.8,1.7,1.7,1.7c0.6,0,1.1-0.1,1.697-0.6l0.603,0.897
		c-0.603,0.5-1.5,0.9-2.5,0.9c-2,0-3.103-1.4-3.103-3.5c0-2,1-3.5,2.9-3.5c1.8,0,2.9,1.2,2.9,3.4C334.8,449.7,334.8,450,334.8,450.1
		z M333.2,449c0-1.1-0.3-1.7-1.2-1.7c-0.8,0-1.2,0.5-1.2,1.7H333.2L333.2,449z"/>
	<path fill="#FFFFFF" d="M340.8,446.2l-0.3,1.5c-0.3,0-0.3-0.103-0.6-0.103c-0.803,0-1.2,0.603-1.5,1.7v3.5h-1.5v-6.6h1.397
		l0.103,1.2c0.3-1,1-1.5,1.697-1.5C340.4,446.1,340.6,446.1,340.8,446.2z"/>
	<path fill="#FFFFFF" d="M347.7,450.1H343.6c0.103,1.4,0.803,1.7,1.7,1.7c0.603,0,1.103-0.1,1.7-0.6l0.6,0.897
		c-0.6,0.5-1.5,0.9-2.5,0.9c-2,0-3.1-1.4-3.1-3.5c0-2,1-3.5,2.9-3.5c1.897,0,2.897,1.2,2.897,3.4C347.7,449.7,347.7,450,347.7,450.1
		z M346.2,449c0-1.1-0.3-1.7-1.2-1.7c-0.8,0-1.2,0.5-1.2,1.7H346.2L346.2,449z"/>
	<path fill="#FFFFFF" d="M355.4,443.6v9.303H354l-0.1-0.9c-0.303,0.6-1,1-1.803,1c-1.697,0-2.5-1.4-2.5-3.5c0-2,1-3.5,2.603-3.5
		c0.6,0,1.2,0.3,1.7,0.8v-3.399L355.4,443.6z M353.8,451.1v-3c-0.3-0.5-0.8-0.8-1.2-0.8c-0.897,0-1.397,0.8-1.397,2.3
		c0,1.7,0.5,2.303,1.2,2.303C353,451.9,353.4,451.6,353.8,451.1z"/>
</g>
<g id="panno">
	<path id="onboarding_slide_6_mais_bubble_1_" fill="#005189" d="M379.9,524.6l-23.5-16.1v-25.7c0-8.2-6.7-15-15-15h-67.339
		c-8.199,0-15,6.7-15,15v26.9c0,8.2,6.701,15,15,15H341.4c0.6,0,1.197,0,1.897-0.103L379.9,524.6L379.9,524.6z"/>
	<g id="onboarding_slide_6_mais">
		<path fill="#5C913B" d="M306.8,480.123c-1.699,1.7-6.699,8.3-4.199,14.1c2.5,5.803,5.9,2.2,7.5-2.5c0.802-2.5,0.802-5.8-0.8-10.8
			C308.4,478.523,306.8,480.123,306.8,480.123z"/>
		<path fill="#5C913B" d="M326.101,499.423c-1.698,1.7-8.3,6.7-14.102,4.2c-5.8-2.5-2.198-5.9,2.5-7.5c2.5-0.8,5.802-0.8,10.802,0.8
			C327.7,497.823,326.101,499.423,326.101,499.423z"/>
		<path fill="#F4900C" d="M323.7,485.423c0,0-0.102-1.7-0.8-2.3c-0.4-0.5-2-0.5-2-0.5c-1.7,0-20.802,2.5-24.103,19.1
			c-0.601,3,0.102,4.7,0.801,5.7c0,0.103,0,0.103,0,0.103c0.102,0.101,0.302,0.301,0.4,0.397c0.1,0.2,0.299,0.3,0.398,0.4h0.102
			c1.1,0.8,2.799,1.6,5.898,1C321.101,506.123,323.7,487.123,323.7,485.423z"/>
		<g>
			<g>
				<g>
					<g>
						<g>
							<g>
								<g>
									<g>
										<g>
											<defs>
												<path id="SVGID_1_" d="M323.7,485.423c0,0-0.102-1.7-0.8-2.3c-0.4-0.5-2-0.5-2-0.5c-1.7,0-20.802,2.5-24.103,19.1
													c-0.601,3,0.102,4.7,0.801,5.7c0,0.103,0,0.103,0,0.103c0.102,0.101,0.302,0.301,0.4,0.397c0.1,0.2,0.299,0.3,0.398,0.4
													h0.102c1.1,0.8,2.799,1.6,5.898,1C321.101,506.123,323.7,487.123,323.7,485.423z"/>
											</defs>
											<clipPath id="SVGID_2_">
												<use xlink:href="#SVGID_1_"  overflow="visible"/>
											</clipPath>
											<path clip-path="url(#SVGID_2_)" fill="#F7B82D" d="M316.2,489.523c-0.398,0.396-1.2,0.396-1.602,0l-1.6-1.602
												c-0.398-0.397-0.398-1.2,0-1.6l0,0c0.4-0.4,1.2-0.4,1.602,0l1.602,1.6C316.601,488.423,316.601,489.123,316.2,489.523
												L316.2,489.523z"/>
										</g>
									</g>
								</g>
							</g>
						</g>
					</g>
				</g>
			</g>
			<g>
				<g>
					<g>
						<g>
							<g>
								<g>
									<g>
										<g>
											<defs>
												<path id="SVGID_3_" d="M323.7,485.423c0,0-0.102-1.7-0.8-2.3c-0.4-0.5-2-0.5-2-0.5c-1.7,0-20.802,2.5-24.103,19.1
													c-0.601,3,0.102,4.7,0.801,5.7c0,0.103,0,0.103,0,0.103c0.102,0.101,0.302,0.301,0.4,0.397c0.1,0.2,0.299,0.3,0.398,0.4
													h0.102c1.1,0.8,2.799,1.6,5.898,1C321.101,506.123,323.7,487.123,323.7,485.423z"/>
											</defs>
											<clipPath id="SVGID_4_">
												<use xlink:href="#SVGID_3_"  overflow="visible"/>
											</clipPath>
											<path clip-path="url(#SVGID_4_)" fill="#F7B82D" d="M308.101,489.523c-0.398,0.396-1.198,0.396-1.6,0l-1.601-1.603
												c-0.399-0.397-0.399-1.2,0-1.6l0,0c0.397-0.4,1.198-0.4,1.601,0l1.601,1.6
												C308.501,488.423,308.501,489.123,308.101,489.523L308.101,489.523z"/>
										</g>
									</g>
								</g>
							</g>
						</g>
					</g>
				</g>
			</g>
			<g>
				<g>
					<g>
						<g>
							<g>
								<g>
									<g>
										<g>
											<defs>
												<path id="SVGID_5_" d="M323.7,485.423c0,0-0.102-1.7-0.8-2.3c-0.4-0.5-2-0.5-2-0.5c-1.7,0-20.802,2.5-24.103,19.1
													c-0.601,3,0.102,4.7,0.801,5.7c0,0.103,0,0.103,0,0.103c0.102,0.101,0.302,0.301,0.4,0.397c0.1,0.2,0.299,0.3,0.398,0.4
													h0.102c1.1,0.8,2.799,1.6,5.898,1C321.101,506.123,323.7,487.123,323.7,485.423z"/>
											</defs>
											<clipPath id="SVGID_6_">
												<use xlink:href="#SVGID_5_"  overflow="visible"/>
											</clipPath>
											<path clip-path="url(#SVGID_6_)" fill="#F7B82D" d="M310.5,487.123c-0.398,0.4-1.198,0.4-1.6,0l-1.603-1.6
												c-0.397-0.4-0.397-1.2,0-1.604l0,0c0.399-0.396,1.201-0.396,1.603,0l1.6,1.604C311,485.923,311,486.723,310.5,487.123
												L310.5,487.123z"/>
										</g>
									</g>
								</g>
							</g>
						</g>
					</g>
				</g>
			</g>
			<g>
				<g>
					<g>
						<g>
							<g>
								<g>
									<g>
										<g>
											<defs>
												<path id="SVGID_7_" d="M323.7,485.423c0,0-0.102-1.7-0.8-2.3c-0.4-0.5-2-0.5-2-0.5c-1.7,0-20.802,2.5-24.103,19.1
													c-0.601,3,0.102,4.7,0.801,5.7c0,0.103,0,0.103,0,0.103c0.102,0.101,0.302,0.301,0.4,0.397c0.1,0.2,0.299,0.3,0.398,0.4
													h0.102c1.1,0.8,2.799,1.6,5.898,1C321.101,506.123,323.7,487.123,323.7,485.423z"/>
											</defs>
											<clipPath id="SVGID_8_">
												<use xlink:href="#SVGID_7_"  overflow="visible"/>
											</clipPath>
											<path clip-path="url(#SVGID_8_)" fill="#F7B82D" d="M305.7,492.023c-0.4,0.396-1.199,0.396-1.602,0l-1.6-1.604
												c-0.4-0.396-0.4-1.199,0-1.6l0,0c0.398-0.4,1.198-0.4,1.6,0l1.602,1.6C306.101,490.823,306.101,491.523,305.7,492.023
												L305.7,492.023z"/>
										</g>
									</g>
								</g>
							</g>
						</g>
					</g>
				</g>
			</g>
			<g>
				<g>
					<g>
						<g>
							<g>
								<g>
									<g>
										<g>
											<defs>
												<path id="SVGID_9_" d="M323.7,485.423c0,0-0.102-1.7-0.8-2.3c-0.4-0.5-2-0.5-2-0.5c-1.7,0-20.802,2.5-24.103,19.1
													c-0.601,3,0.102,4.7,0.801,5.7c0,0.103,0,0.103,0,0.103c0.102,0.101,0.302,0.301,0.4,0.397c0.1,0.2,0.299,0.3,0.398,0.4
													h0.102c1.1,0.8,2.799,1.6,5.898,1C321.101,506.123,323.7,487.123,323.7,485.423z"/>
											</defs>
											<clipPath id="SVGID_10_">
												<use xlink:href="#SVGID_9_"  overflow="visible"/>
											</clipPath>
											<path clip-path="url(#SVGID_10_)" fill="#F7B82D" d="M318.601,487.123c-0.398,0.4-1.198,0.4-1.602,0l-1.6-1.6
												c-0.4-0.4-0.4-1.2,0-1.604l0,0c0.398-0.396,1.198-0.396,1.6,0l1.602,1.604C319,485.923,319,486.723,318.601,487.123
												L318.601,487.123z"/>
										</g>
									</g>
								</g>
							</g>
						</g>
					</g>
				</g>
			</g>
			<g>
				<g>
					<g>
						<g>
							<g>
								<g>
									<g>
										<g>
											<defs>
												<path id="SVGID_11_" d="M323.7,485.423c0,0-0.102-1.7-0.8-2.3c-0.4-0.5-2-0.5-2-0.5c-1.7,0-20.802,2.5-24.103,19.1
													c-0.601,3,0.102,4.7,0.801,5.7c0,0.103,0,0.103,0,0.103c0.102,0.101,0.302,0.301,0.4,0.397c0.1,0.2,0.299,0.3,0.398,0.4
													h0.102c1.1,0.8,2.799,1.6,5.898,1C321.101,506.123,323.7,487.123,323.7,485.423z"/>
											</defs>
											<clipPath id="SVGID_12_">
												<use xlink:href="#SVGID_11_"  overflow="visible"/>
											</clipPath>
											<path clip-path="url(#SVGID_12_)" fill="#F7B82D" d="M321,484.723c-0.398,0.4-1.198,0.4-1.6,0l-1.602-1.6
												c-0.398-0.4-0.398-1.2,0-1.6l0,0c0.398-0.4,1.198-0.4,1.602,0l1.6,1.6C321.5,483.523,321.5,484.323,321,484.723
												L321,484.723z"/>
										</g>
									</g>
								</g>
							</g>
						</g>
					</g>
				</g>
			</g>
			<g>
				<g>
					<g>
						<g>
							<g>
								<g>
									<g>
										<g>
											<defs>
												<path id="SVGID_13_" d="M323.7,485.423c0,0-0.102-1.7-0.8-2.3c-0.4-0.5-2-0.5-2-0.5c-1.7,0-20.802,2.5-24.103,19.1
													c-0.601,3,0.102,4.7,0.801,5.7c0,0.103,0,0.103,0,0.103c0.102,0.101,0.302,0.301,0.4,0.397c0.1,0.2,0.299,0.3,0.398,0.4
													h0.102c1.1,0.8,2.799,1.6,5.898,1C321.101,506.123,323.7,487.123,323.7,485.423z"/>
											</defs>
											<clipPath id="SVGID_14_">
												<use xlink:href="#SVGID_13_"  overflow="visible"/>
											</clipPath>
											<path clip-path="url(#SVGID_14_)" fill="#F7B82D" d="M313.7,492.023c-0.398,0.396-1.2,0.396-1.602,0l-1.601-1.603
												c-0.398-0.397-0.398-1.2,0-1.6l0,0c0.4-0.4,1.2-0.4,1.602,0l1.602,1.6C314.2,490.823,314.2,491.523,313.7,492.023
												L313.7,492.023z"/>
										</g>
									</g>
								</g>
							</g>
						</g>
					</g>
				</g>
			</g>
			<g>
				<g>
					<g>
						<g>
							<g>
								<g>
									<g>
										<g>
											<defs>
												<path id="SVGID_15_" d="M323.7,485.423c0,0-0.102-1.7-0.8-2.3c-0.4-0.5-2-0.5-2-0.5c-1.7,0-20.802,2.5-24.103,19.1
													c-0.601,3,0.102,4.7,0.801,5.7c0,0.103,0,0.103,0,0.103c0.102,0.101,0.302,0.301,0.4,0.397c0.1,0.2,0.299,0.3,0.398,0.4
													h0.102c1.1,0.8,2.799,1.6,5.898,1C321.101,506.123,323.7,487.123,323.7,485.423z"/>
											</defs>
											<clipPath id="SVGID_16_">
												<use xlink:href="#SVGID_15_"  overflow="visible"/>
											</clipPath>
											<path clip-path="url(#SVGID_16_)" fill="#F7B82D" d="M311.301,494.423c-0.398,0.4-1.2,0.4-1.602,0l-1.602-1.6
												c-0.398-0.4-0.398-1.2,0-1.603l0,0c0.399-0.397,1.2-0.397,1.602,0l1.602,1.603
												C311.801,493.223,311.801,493.923,311.301,494.423L311.301,494.423z"/>
										</g>
									</g>
								</g>
							</g>
						</g>
					</g>
				</g>
			</g>
			<g>
				<g>
					<g>
						<g>
							<g>
								<g>
									<g>
										<g>
											<defs>
												<path id="SVGID_17_" d="M323.7,485.423c0,0-0.102-1.7-0.8-2.3c-0.4-0.5-2-0.5-2-0.5c-1.7,0-20.802,2.5-24.103,19.1
													c-0.601,3,0.102,4.7,0.801,5.7c0,0.103,0,0.103,0,0.103c0.102,0.101,0.302,0.301,0.4,0.397c0.1,0.2,0.299,0.3,0.398,0.4
													h0.102c1.1,0.8,2.799,1.6,5.898,1C321.101,506.123,323.7,487.123,323.7,485.423z"/>
											</defs>
											<clipPath id="SVGID_18_">
												<use xlink:href="#SVGID_17_"  overflow="visible"/>
											</clipPath>
											<path clip-path="url(#SVGID_18_)" fill="#F7B82D" d="M306.501,499.223c-0.399,0.4-1.201,0.4-1.601,0l-1.603-1.6
												c-0.397-0.4-0.397-1.2,0-1.6l0,0c0.399-0.4,1.201-0.4,1.603,0l1.601,1.6C306.9,498.123,306.9,498.823,306.501,499.223
												L306.501,499.223z"/>
										</g>
									</g>
								</g>
							</g>
						</g>
					</g>
				</g>
			</g>
			<g>
				<g>
					<g>
						<g>
							<g>
								<g>
									<g>
										<g>
											<defs>
												<path id="SVGID_19_" d="M323.7,485.423c0,0-0.102-1.7-0.8-2.3c-0.4-0.5-2-0.5-2-0.5c-1.7,0-20.802,2.5-24.103,19.1
													c-0.601,3,0.102,4.7,0.801,5.7c0,0.103,0,0.103,0,0.103c0.102,0.101,0.302,0.301,0.4,0.397c0.1,0.2,0.299,0.3,0.398,0.4
													h0.102c1.1,0.8,2.799,1.6,5.898,1C321.101,506.123,323.7,487.123,323.7,485.423z"/>
											</defs>
											<clipPath id="SVGID_20_">
												<use xlink:href="#SVGID_19_"  overflow="visible"/>
											</clipPath>
											<path clip-path="url(#SVGID_20_)" fill="#F7B82D" d="M308.9,496.823c-0.399,0.397-1.2,0.397-1.603,0l-1.601-1.603
												c-0.399-0.397-0.399-1.197,0-1.601l0,0c0.398-0.399,1.2-0.399,1.601,0l1.603,1.601
												C309.301,495.623,309.301,496.423,308.9,496.823L308.9,496.823z"/>
										</g>
									</g>
								</g>
							</g>
						</g>
					</g>
				</g>
			</g>
		</g>
		<path fill="#77B255" d="M319.301,502.723c-7.102-2.396-15.102,0.7-19.398,3.604c2.897-4.301,6-12.301,3.601-19.4
			c-0.897-2.8-5.601-5.6-8.398-2.8c-0.899,0.899-1.899,1.899,0,1.899c1.898,0,4.697,2.801,3.697,5.601
			c-0.799,2.5-6.896,8.7-4.197,15.399c-0.303,0.101-0.5,0.301-0.699,0.5l-0.7,0.697c-0.899,0.9-0.899,2.4,0,3.303l0.7,0.697
			c0.896,0.9,2.396,0.9,3.3,0l0.7-0.697c0.102-0.103,0.2-0.303,0.3-0.399c7,3.8,13.7-2.8,16.398-3.7
			c2.802-0.896,5.602,1.9,5.602,3.7c0,1.899,0.898,0.899,1.898,0C324.9,508.323,322.101,503.623,319.301,502.723z"/>
	</g>
</g>
<g id="deli_3" opacity="0.5">
	<path fill="#FFFFFF" d="M304.5,535.578c0,3.5-2.1,4.397-4.3,4.397h-2.4v-8.6h2.103C302.3,531.178,304.5,531.878,304.5,535.578z
		 M299.6,532.378v6.1h0.803c1.197,0,2.397-0.6,2.397-3.1c0-2.6-1.1-3-2.397-3H299.6z"/>
	<path fill="#FFFFFF" d="M311.9,536.979H307.8c0.103,1.399,0.8,1.699,1.7,1.699c0.6,0,1.1-0.1,1.7-0.6l0.6,0.897
		c-0.6,0.5-1.5,0.9-2.5,0.9c-2,0-3.1-1.4-3.1-3.5c0-2,1-3.5,2.897-3.5c1.803,0,2.9,1.2,2.9,3.4
		C312.1,536.578,311.9,536.878,311.9,536.979z M310.5,535.878c0-1.1-0.3-1.7-1.2-1.7c-0.8,0-1.2,0.5-1.2,1.7H310.5L310.5,535.878z"
		/>
	<path fill="#FFFFFF" d="M314.1,538.278v-7.803l1.7-0.1v7.9c0,0.3,0.103,0.5,0.3,0.5c0.103,0,0.303,0,0.303,0l0.3,1.1
		c-0.3,0.1-0.603,0.3-1,0.3C314.7,539.979,314.1,539.378,314.1,538.278z"/>
	<path fill="#FFFFFF" d="M320.2,530.878c0,0.5-0.3,1-1,1s-1-0.3-1-1c0-0.5,0.3-1,1-1C319.8,529.878,320.2,530.278,320.2,530.878z
		 M320.1,539.878H318.4v-6.6h1.697L320.1,539.878L320.1,539.878z"/>
	<path fill="#FFFFFF" d="M325.7,539.878h-1.8l-2.103-6.6h1.7l1.4,5.3l1.5-5.3h1.697L325.7,539.878z"/>
	<path fill="#FFFFFF" d="M334.8,536.979h-4.1c0.1,1.399,0.8,1.699,1.7,1.699c0.6,0,1.1-0.1,1.697-0.6l0.603,0.897
		c-0.603,0.5-1.5,0.9-2.5,0.9c-2,0-3.103-1.4-3.103-3.5c0-2,1-3.5,2.9-3.5c1.8,0,2.9,1.2,2.9,3.4
		C334.8,536.578,334.8,536.878,334.8,536.979z M333.2,535.878c0-1.1-0.3-1.7-1.2-1.7c-0.8,0-1.2,0.5-1.2,1.7H333.2L333.2,535.878z"
		/>
	<path fill="#FFFFFF" d="M340.8,533.078l-0.3,1.5c-0.3,0-0.3-0.103-0.6-0.103c-0.803,0-1.2,0.603-1.5,1.7v3.5h-1.5v-6.6h1.397
		l0.103,1.2c0.3-1,1-1.5,1.697-1.5C340.4,532.979,340.6,532.979,340.8,533.078z"/>
	<path fill="#FFFFFF" d="M347.7,536.979H343.6c0.103,1.399,0.803,1.699,1.7,1.699c0.603,0,1.103-0.1,1.7-0.6l0.6,0.897
		c-0.6,0.5-1.5,0.9-2.5,0.9c-2,0-3.1-1.4-3.1-3.5c0-2,1-3.5,2.9-3.5c1.897,0,2.897,1.2,2.897,3.4
		C347.7,536.578,347.7,536.878,347.7,536.979z M346.2,535.878c0-1.1-0.3-1.7-1.2-1.7c-0.8,0-1.2,0.5-1.2,1.7H346.2L346.2,535.878z"
		/>
	<path fill="#FFFFFF" d="M355.4,530.479v9.302H354l-0.1-0.9c-0.303,0.601-1,1-1.803,1c-1.697,0-2.5-1.399-2.5-3.5
		c0-2,1-3.5,2.603-3.5c0.6,0,1.2,0.3,1.7,0.8v-3.397L355.4,530.479z M353.8,537.979v-3c-0.3-0.5-0.8-0.801-1.2-0.801
		c-0.897,0-1.397,0.801-1.397,2.301c0,1.699,0.5,2.302,1.2,2.302C353,538.778,353.4,538.479,353.8,537.979z"/>
</g>
<g id="good">
	<path id="onboarding_slide_6_smile_bubble" fill="#E5E5E5" d="M167.2,558.7H54.1c-8.2,0-15,6.7-15,15V600.1l-23.6,15.2h36.7
		c0.6,0.103,1.2,0.103,1.9,0.103h113.1c8.199,0,15-6.7,15-15v-26.9C182.2,565.4,175.399,558.7,167.2,558.7z"/>
	<text transform="matrix(1 0 0 1 63.9795 597.9785)" fill="#4C4C4E" font-family="'FiraSans-Regular'" font-size="32">Got it!</text>
</g>
<g id="bubble_g">
	<path id="bubble_trig" fill="#005189" d="M356.6,242.3v-3.7v-13.7V98c0-9.6-7.897-17.5-17.5-17.5H54c-9.6,0-17.5,7.9-17.5,17.5v141
		c0,9.6,7.9,17.5,17.5,17.5h277.7h7.2h39.8L356.6,242.3z"/>
	<g id="g3">
		<g id="g10_15_" transform="matrix(1.25,0,0,-1.25,0,47.5)">
			<g id="g12_18_">
				<g>
					<g>
						<g>
							<g id="g14_18_">
								<g id="g20_18_" transform="translate(12.9829,33.438)">
									<path id="path22_18_" fill="#FFAC33" d="M240.585-145.723c3.468,0.158,5.832-1.261,5.99-5.201
										c0.157-3.311-3.941-5.202-5.99-5.202c-1.891,0-0.946,1.418,0.472,1.734c1.104,0.315,3.312,1.734,2.68,3.31
										c-0.472,1.734-3.309,2.049-4.727-0.158c-0.631-0.946-2.68-0.631-2.995,0.316
										C235.225-149.19,236.644-146.038,240.585-145.723"/>
								</g>
								<g id="g24_16_" transform="translate(36.75,15.6162)">
									<path id="path26_16_" fill="#E1E8ED" d="M234.734-141.333c0,5.832-3.309,8.511-11.034,8.511c-0.787,0-1.576,0-2.206-0.158
										c-0.946,1.734-3.626,2.049-6.305,2.049c-3.309,0-7.408-4.571-7.408-8.196c0-3.626,2.679-3.626,5.832-3.626
										c0.157-2.364,0.945-4.413,2.364-5.516c0.157-0.788,1.102-4.414,2.995-4.414c0.945,0,1.575,1.261,1.891,2.522
										c0.788-0.158,1.734-0.158,2.837-0.158c1.263,0,2.523,0.158,3.468,0.315c0-1.261,0.473-2.68,1.577-2.68
										c1.734,0,3.309,3.783,3.626,4.886C233.947-146.219,234.734-144.17,234.734-141.333"/>
								</g>
								<g id="g28_16_" transform="translate(7,21.2139)">
									<path id="path30_14_" fill="#292F33" d="M241.866-142.836c0-0.63-0.473-1.104-1.104-1.104c-0.63,0-1.102,0.473-1.102,1.104
										c0,0.63,0.473,1.104,1.102,1.104C241.393-141.733,241.866-142.363,241.866-142.836"/>
								</g>
								<g id="g32_13_" transform="translate(18.5625,32.6611)">
									<path id="path34_12_" fill="#FFCC4D" d="M239.072-145.698c3.309-1.104,4.413-3.31,2.995-6.778
										c-0.945-2.995-5.517-3.31-7.724-2.522c-1.734,0.63-0.472,1.734,1.104,1.419c1.261-0.157,3.468,0.473,3.783,2.049
										c0.159,1.734-2.205,2.995-4.412,1.577c-0.945-0.631-4.413-0.316-4.098,0.788
										C231.348-146.801,235.604-144.437,239.072-145.698"/>
								</g>
							</g>
						</g>
					</g>
				</g>
			</g>
		</g>
		<g id="g10_11_" transform="matrix(1.25,0,0,-1.25,0,47.5)">
			<g id="g12_14_">
				<g>
					<g>
						<g>
							<g id="g14_14_">
								<g id="g20_14_" transform="translate(34.7988,36.9946)">
									<path id="path22_14_" fill="#99AAB5" d="M205.919-145.152c-0.318,0.159-6.044-3.023-7.477-6.84
										c-0.955-2.227-1.272-4.613-1.272-6.044c-1.113,0.636-2.227,0.954-3.341,0.954c-0.955,0-2.067-0.318-3.341-0.954
										c0,1.591-0.317,3.818-1.273,6.044c-1.431,3.818-7.158,7.159-7.477,6.84c-0.319-0.159,3.341-12.248,5.25-15.907
										c-1.75-1.909-3.341-4.454-3.341-6.84c0-2.386,1.272-3.818,3.022-4.454c1.909-0.637,3.817,0.636,6.841,0.636
										s4.93-1.432,6.841-0.636c1.748,0.636,3.022,2.068,3.022,4.454c0,2.386-1.432,4.772-3.341,6.84
										C202.739-157.4,206.239-145.311,205.919-145.152"/>
								</g>
								<g id="g24_12_" transform="translate(13.6919,19.0781)">
									<path id="path26_12_" fill="#F4ABBA" d="M210.95-140.941c-0.161,1.114-0.477,2.705-1.114,4.136
										c-1.112,3.022-4.455,5.567-4.612,5.567c-0.32-0.159,1.909-7.794,3.659-11.294
										C209.517-141.896,210.153-141.418,210.95-140.941"/>
								</g>
								<g id="g28_12_" transform="translate(27.0303,16.9063)">
									<path id="path30_10_" fill="#F4ABBA" d="M207.853-140.315c1.59,3.5,3.816,11.294,3.658,11.294
										c-0.318,0.159-3.341-2.386-4.613-5.568c-0.636-1.591-0.955-3.022-1.113-4.136
										C206.262-139.202,207.057-139.679,207.853-140.315"/>
								</g>
								<g id="g32_9_" transform="translate(26,7)">
									<path id="path34_9_" fill="#CCD6DD" d="M208.038-137.895c0-2.068-2.385-3.818-5.248-3.818c-2.863,0-5.25,1.75-5.25,3.818
										c0,2.068,2.387,3.818,5.25,3.818C205.812-134.078,208.038-135.987,208.038-137.895"/>
								</g>
								<g id="g36_10_" transform="translate(22,6.4219)">
									<path id="path38_10_" fill="#FFFFFF" d="M209.017-137.759c0-2.068-0.159-2.227-2.227-2.227
										c-2.068,0-2.227,0.159-2.227,2.227C204.403-136.964,209.017-136.964,209.017-137.759"/>
								</g>
								<g id="g40_10_" transform="translate(15,12.6719)">
									<path id="path42_10_" fill="#292F33" d="M210.608-139.317c0-0.636-0.477-1.114-1.113-1.114
										c-0.637,0-1.113,0.477-1.113,1.114c0,0.636,0.477,1.113,1.113,1.113S210.608-138.681,210.608-139.317"/>
								</g>
								<g id="g44_10_" transform="translate(26,12.6719)">
									<path id="path46_10_" fill="#292F33" d="M208.038-139.317c0-0.636-0.477-1.114-1.113-1.114s-1.113,0.477-1.113,1.114
										c0,0.636,0.477,1.113,1.113,1.113C207.402-138.204,208.038-138.681,208.038-139.317"/>
								</g>
								<g id="g48_9_" transform="translate(22,11.1719)">
									<path id="path50_9_" fill="#F4ABBA" d="M209.017-139.09c0-1.272-1.432-2.227-2.227-2.227c-0.795,0-2.227,0.954-2.227,2.227
										C204.403-137.658,209.017-137.658,209.017-139.09"/>
								</g>
							</g>
						</g>
					</g>
				</g>
			</g>
		</g>
		<g id="g10_16_" transform="matrix(1.25,0,0,-1.25,0,47.5)">
			<g id="g12_19_">
				<g>
					<g>
						<g>
							<g id="g14_19_">
								<g id="g20_19_" transform="translate(35.751,15)">
									<path id="path22_19_" fill="#77B255" d="M176.969-140.598c-2.375,0-8.459-2.523-11.277-5.194v8.756
										c0,0.445-0.298,0.742-0.743,0.742c-0.445,0-0.741-0.297-0.741-0.742v-8.756c-2.673,2.523-8.755,5.194-11.427,5.194
										c-0.594,0,7.717-9.794,11.427-9.052v-0.297c0-0.445,0.297-0.742,0.741-0.742c0.445,0,0.743,0.297,0.743,0.742v0.297
										C169.401-150.392,177.563-140.598,176.969-140.598"/>
								</g>
								<g id="g24_17_" transform="translate(26,23.5835)">
									<path id="path26_17_" fill="#EA596E" d="M179.82-142.973c0-4.452-1.189-6.678-4.898-6.678c-3.71,0-4.898,2.226-4.898,6.678
										c0,4.452,3.562,9.497,4.898,9.497C176.108-133.476,179.82-138.521,179.82-142.973"/>
								</g>
								<g id="g28_17_" transform="translate(23.7949,35)">
									<path id="path30_15_" fill="#F4ABBA" d="M180.382-146.352c-0.297,0-2.82-10.24-3.413-13.653
										c-0.593,3.562-3.116,13.653-3.562,13.653c-0.741,0-4.155-6.381-4.155-9.349c0-2.968,4.155-5.639,7.716-5.639
										c3.711,0,7.717,2.82,7.717,5.639C184.687-152.882,181.274-146.352,180.382-146.352"/>
								</g>
							</g>
						</g>
					</g>
				</g>
			</g>
		</g>
		<g id="g10_6_" transform="matrix(1.25,0,0,-1.25,0,47.5)">
			<g id="g12_9_">
				<g>
					<g>
						<g>
							<g id="g14_9_">
								<g id="g20_9_" transform="translate(36.8848,25.1665)">
									<path id="path22_9_" fill="#BE1931" d="M120.528-142.22c0,4.037-3.261,7.297-7.297,7.297c-2.485,0-4.503-1.242-5.9-2.95
										c-1.242,1.863-3.416,2.95-5.9,2.95c-4.036,0-7.296-3.26-7.296-7.297c0-0.621,0-1.087,0.155-1.708
										c0.931-6.21,8.073-12.886,13.041-14.748c5.123,1.862,11.954,8.383,13.041,14.748
										C120.528-143.306,120.528-142.685,120.528-142.22"/>
								</g>
							</g>
						</g>
					</g>
				</g>
			</g>
		</g>
		<g id="g10_8_" transform="matrix(1.25,0,0,-1.25,0,47.5)">
			<g id="g12_11_">
				<g>
					<g>
						<g>
							<g id="g14_11_">
								<g id="g20_11_" transform="translate(19,33)">
									<path id="path22_11_" fill="#F4900C" d="M96.384-146.465c5.218,0,9.243-2.832,10.436-1.342
										c0.149,0.298,0.149,0.448,0.149,0.745c0,1.342-4.92,3.578-10.585,3.578c-5.963,0-10.585-2.087-10.585-3.578
										c0-0.298,0-0.447,0.149-0.745C87.141-149.298,91.315-146.465,96.384-146.465"/>
								</g>
								<g id="g24_9_" transform="translate(19,34)">
									<path id="path26_9_" fill="#FFCC4D" d="M96.384-146.869c-4.323,0-7.454-1.342-8.796-1.789
										c-0.298-0.149-0.447-0.596-0.298-0.894c0.149-0.149,7.604-19.232,7.604-19.232s0.596-1.342,1.342-1.342
										c0.745,0,1.342,1.342,1.342,1.342l7.454,19.232c0,0,0.149,0.596-0.448,0.894
										C103.689-147.913,100.708-146.869,96.384-146.869"/>
								</g>
							</g>
						</g>
					</g>
				</g>
			</g>
			<g id="g28_9_">
				<g>
					<g>
						<g>
							<g>
								<g>
									<g>
										<g>
											<g>
												<g>
													<g>
														<g>
															<g>
																<g>
																	<g>
																		<defs>
																			<path id="SVGID_21_" d="M106.737-114.658c-0.298-0.149-0.447-0.596-0.298-0.894l0,0
																				c0.149-0.298,7.454-19.232,7.454-19.232l0,0c0,0,0.745-1.342,1.342-1.342l0,0c0.745,0,1.342,1.342,1.342,1.342
																				l0,0l7.454,19.232c0,0,0.149,0.596-0.448,0.894l0,0c-1.192,0.596-4.323,1.789-8.498,1.789l0,0
																				C111.061-112.869,107.781-114.062,106.737-114.658"/>
																		</defs>
																		<clipPath id="SVGID_22_">
																			<use xlink:href="#SVGID_21_"  overflow="visible"/>
																		</clipPath>
																		<g id="g30_2_" clip-path="url(#SVGID_22_)">
																			<g id="g36_7_" transform="translate(19,6)">
																				<path id="path38_7_" fill="#BE1931" d="M96.384-138.548c0-1.491-1.193-2.832-2.833-2.832
																					c-1.49,0-2.832,1.192-2.832,2.832c0,1.64,1.193,2.833,2.832,2.833
																					C95.191-135.715,96.384-137.057,96.384-138.548"/>
																			</g>
																			<g id="g40_8_" transform="translate(18,17)">
																				<path id="path42_8_" fill="#BE1931" d="M96.639-141.945c0-1.49-1.193-2.832-2.832-2.832
																					c-1.491,0-2.833,1.192-2.833,2.832c0,1.491,1.193,2.833,2.833,2.833
																					C95.446-139.112,96.639-140.156,96.639-141.945"/>
																			</g>
																			<g id="g44_8_" transform="translate(21,29)">
																				<path id="path46_8_" fill="#BE1931" d="M95.726-145.298c0-1.491-1.193-2.833-2.833-2.833
																					c-1.491,0-2.832,1.193-2.832,2.833c0,1.491,1.193,2.832,2.832,2.832
																					C94.532-142.466,95.726-143.807,95.726-145.298"/>
																			</g>
																			<g id="g48_7_" transform="translate(30,24)">
																				<path id="path50_7_" fill="#BE1931" d="M93.136-143.876c0-1.491-1.193-2.833-2.832-2.833
																					c-1.64,0-2.833,1.193-2.833,2.833c0,1.491,1.193,2.833,2.833,2.833
																					C91.943-141.043,93.136-142.236,93.136-143.876"/>
																			</g>
																			<g id="g52_6_" transform="translate(28,12)">
																				<path id="path54_6_" fill="#BE1931" d="M93.795-140.374c0-1.491-1.193-2.832-2.832-2.832
																					c-1.64,0-2.833,1.193-2.833,2.832c0,1.491,1.193,2.832,2.833,2.832
																					C92.602-137.541,93.795-138.734,93.795-140.374"/>
																			</g>
																			<g id="g56_4_" transform="translate(11,25)">
																				<path id="path58_4_" fill="#BE1931" d="M98.719-144.13c0-1.491-1.193-2.833-2.833-2.833
																					c-1.491,0-2.832,1.193-2.832,2.833c0,1.491,1.192,2.833,2.832,2.833
																					C97.377-141.298,98.719-142.491,98.719-144.13"/>
																			</g>
																		</g>
																	</g>
																</g>
															</g>
														</g>
													</g>
												</g>
											</g>
										</g>
									</g>
								</g>
							</g>
						</g>
					</g>
				</g>
			</g>
		</g>
		<g id="g10_19_" transform="matrix(1.25,0,0,-1.25,0,47.5)">
			<g id="g12_22_">
				<g>
					<g>
						<g>
							<g id="g14_22_">
								<g id="g20_22_" transform="translate(21.1426,4.7852)">
									<path id="path22_22_" fill="#E1E8ED" d="M66.702-136.587c0-0.951-0.793-1.585-1.585-1.585
										c-0.952,0-1.586,0.793-1.586,1.585c0,0.952,0.793,1.586,1.586,1.586C65.909-134.684,66.702-135.477,66.702-136.587"/>
								</g>
								<g id="g24_19_" transform="translate(28.6426,21.3569)">
									<path id="path26_19_" fill="#E1E8ED" d="M65.068-140.519c0,3.964-3.329,7.452-7.451,7.452c-3.964,0-7.452-3.33-7.452-7.452
										c0-3.964-0.792-12.684-0.792-12.684c0-0.951,0.792-1.585,1.586-1.585c0.95,0,1.585,0.793,1.585,1.585
										c0-0.951,0.793-1.585,1.585-1.585c0.951,0,1.585,0.793,1.585,1.585h3.33c0-0.951,0.793-1.585,1.586-1.585
										c0.951,0,1.585,0.793,1.585,1.585c0-0.951,0.793-1.585,1.586-1.585c0.951,0,1.585,0.793,1.585,1.585
										C65.86-153.045,65.068-144.483,65.068-140.519"/>
								</g>
								<g id="g28_20_" transform="translate(21,34)">
									<path id="path30_18_" fill="#DD2E44" d="M66.777-143.423c0-1.585-1.11-4.439-1.427-4.439c-0.476,0-1.427,2.854-1.427,4.439
										c0,1.585,1.11,2.22,1.427,2.22C65.667-141.204,66.777-141.838,66.777-143.423"/>
								</g>
								<g id="g32_16_" transform="translate(16.6348,4)">
									<path id="path34_15_" fill="#DD2E44" d="M67.868-136.095c0,1.903,1.268,6.025,1.744,6.025c0.476,0,1.744-4.122,1.744-6.025
										c0-1.902-1.268-2.219-1.744-2.219C69.136-138.632,67.868-138.314,67.868-136.095"/>
								</g>
								<g id="g36_13_" transform="translate(26,14.5)">
									<path id="path38_13_" fill="#F4900C" d="M65.423-138.826c0-1.11-3.646-3.329-5.232-3.329c-1.585,0-5.232,2.219-5.232,3.329
										c0,1.109,3.647,3.329,5.232,3.329C61.936-135.338,65.423-137.717,65.423-138.826"/>
								</g>
								<g id="g40_13_" transform="translate(26,14.5)">
									<path id="path42_13_" fill="#FFAC33" d="M65.423-138.826c0-1.11-10.464-1.11-10.464,0c0,1.109,3.647,3.329,5.232,3.329
										C61.936-135.338,65.423-137.717,65.423-138.826"/>
								</g>
								<g id="g44_13_" transform="translate(14,18.5)">
									<path id="path46_13_" fill="#292F33" d="M68.228-139.814c0-0.634-0.476-1.109-1.11-1.109s-1.109,0.476-1.109,1.109
										c0,0.635,0.476,1.11,1.109,1.11C67.911-138.704,68.228-139.18,68.228-139.814"/>
								</g>
								<g id="g48_12_" transform="translate(27,18.5)">
									<path id="path50_12_" fill="#292F33" d="M65.216-139.814c0-0.634-0.475-1.109-1.11-1.109c-0.634,0-1.109,0.476-1.109,1.109
										c0,0.635,0.476,1.11,1.109,1.11C64.899-138.704,65.216-139.18,65.216-139.814"/>
								</g>
							</g>
						</g>
					</g>
				</g>
			</g>
		</g>
		<g id="g10_17_" transform="matrix(1.25,0,0,-1.25,0,47.5)">
			<g id="g12_20_">
				<g>
					<g>
						<g>
							<g id="g14_20_">
								<g id="g20_20_" transform="translate(18,19)">
									<path id="path22_20_" fill="#E1E8ED" d="M38.155-141.838c0-3.757-2.602-6.791-5.781-6.791c-3.179,0-5.78,3.034-5.78,6.791
										c0,3.757,2.601,6.792,5.78,6.792C35.554-135.046,38.155-138.08,38.155-141.838"/>
								</g>
								<g id="g24_18_" transform="translate(37,19)">
									<path id="path26_18_" fill="#E1E8ED" d="M32.449-141.838c0-3.757-2.601-6.791-5.78-6.791c-3.179,0-5.78,3.034-5.78,6.791
										c0,3.757,2.601,6.792,5.78,6.792C29.848-135.046,32.449-138.08,32.449-141.838"/>
								</g>
								<g id="g28_18_" transform="translate(9,15)">
									<path id="path30_16_" fill="#292F33" d="M41.085-140.583c0-1.156-0.866-2.023-2.023-2.023
										c-1.157,0-2.023,0.867-2.023,2.023c0,1.156,0.866,2.023,2.023,2.023C40.074-138.56,41.085-139.427,41.085-140.583"/>
								</g>
								<g id="g32_14_" transform="translate(28,15)">
									<path id="path34_13_" fill="#292F33" d="M35.236-140.583c0-1.156-0.868-2.023-2.023-2.023
										c-1.156,0-2.023,0.867-2.023,2.023c0,1.156,0.868,2.023,2.023,2.023C34.224-138.56,35.236-139.427,35.236-140.583"/>
								</g>
							</g>
						</g>
					</g>
				</g>
			</g>
		</g>
		<g id="g10_10_" transform="matrix(1.25,0,0,-1.25,0,47.5)">
			<g id="g12_13_">
				<g>
					<g>
						<g>
							<g id="g14_13_">
								<g id="g20_13_" transform="translate(34.7988,36.9946)">
									<path id="path22_13_" fill="#99AAB5" d="M178.43-87.427c-0.327,0.163-6.193-3.096-7.659-7.007
										c-0.978-2.281-1.304-4.725-1.304-6.192c-1.141,0.652-2.282,0.978-3.423,0.978c-0.978,0-2.119-0.326-3.422-0.978
										c0,1.63-0.327,3.911-1.303,6.192c-1.467,3.911-7.334,7.334-7.66,7.007c-0.326-0.163,3.423-12.548,5.377-16.295
										c-1.792-1.956-3.422-4.564-3.422-7.008c0-2.445,1.305-3.911,3.097-4.563c1.955-0.652,3.911,0.652,7.005,0.652
										c3.098,0,5.052-1.466,7.006-0.652c1.794,0.652,3.098,2.119,3.098,4.563c0,2.444-1.467,4.889-3.423,7.008
										C175.172-99.975,178.757-87.753,178.43-87.427"/>
								</g>
								<g id="g24_10_" transform="translate(13.6919,19.0781)">
									<path id="path26_10_" fill="#F4ABBA" d="M183.065-83.552c-0.163,1.14-0.489,2.77-1.141,4.237
										c-1.141,3.096-4.562,5.704-4.725,5.704c-0.327-0.164,1.955-7.985,3.748-11.57C181.6-84.53,182.249-84.041,183.065-83.552"
										/>
								</g>
								<g id="g28_10_" transform="translate(27.0303,16.9063)">
									<path id="path30_8_" fill="#F4ABBA" d="M180.22-82.964c1.627,3.585,3.911,11.57,3.748,11.57
										c-0.327,0.163-3.423-2.445-4.726-5.704c-0.652-1.63-0.98-3.096-1.141-4.237C178.591-81.824,179.405-82.312,180.22-82.964"
										/>
								</g>
								<g id="g32_5_" transform="translate(26,7)">
									<path id="path34_6_" fill="#CCD6DD" d="M180.386-80.89c0-2.118-2.445-3.911-5.378-3.911c-2.933,0-5.377,1.793-5.377,3.911
										c0,2.119,2.445,3.911,5.377,3.911C178.105-76.979,180.386-78.772,180.386-80.89"/>
								</g>
								<g id="g36_9_" transform="translate(22,6.4219)">
									<path id="path38_9_" fill="#FFFFFF" d="M181.29-80.765c0-2.118-0.164-2.281-2.282-2.281c-2.118,0-2.28,0.163-2.28,2.281
										C176.563-79.95,181.29-79.95,181.29-80.765"/>
								</g>
								<g id="g40_9_" transform="translate(15,12.6719)">
									<path id="path42_9_" fill="#292F33" d="M182.748-82.208c0-0.652-0.487-1.141-1.14-1.141c-0.652,0-1.141,0.489-1.141,1.141
										c0,0.652,0.488,1.141,1.141,1.141C182.261-81.067,182.748-81.556,182.748-82.208"/>
								</g>
								<g id="g44_9_" transform="translate(26,12.6719)">
									<path id="path46_9_" fill="#292F33" d="M180.386-82.208c0-0.652-0.49-1.141-1.141-1.141c-0.65,0-1.139,0.489-1.139,1.141
										c0,0.652,0.489,1.141,1.139,1.141C179.734-81.067,180.386-81.556,180.386-82.208"/>
								</g>
								<g id="g48_8_" transform="translate(22,11.1719)">
									<path id="path50_8_" fill="#F4ABBA" d="M181.29-81.849c0-1.303-1.466-2.281-2.282-2.281c-0.813,0-2.28,0.978-2.28,2.281
										C176.563-80.382,181.29-80.382,181.29-81.849"/>
								</g>
							</g>
						</g>
					</g>
				</g>
			</g>
		</g>
		<g id="g10_28_" transform="matrix(1.25,0,0,-1.25,0,47.5)">
			<g id="g12_29_">
				<g>
					<g>
						<g>
							<g id="g14_29_">
								<g id="g20_29_" transform="translate(36.8848,25.1665)">
									<path id="path22_29_" fill="#BE1931" d="M120.027-87.913c0,4.059-3.279,7.337-7.337,7.337
										c-2.498,0-4.527-1.248-5.932-2.966c-1.248,1.873-3.434,2.966-5.931,2.966c-4.059,0-7.337-3.278-7.337-7.337
										c0-0.624,0-1.093,0.156-1.717c0.936-6.244,8.117-12.956,13.112-14.829c5.152,1.873,12.02,8.43,13.113,14.829
										C120.027-89.006,120.027-88.381,120.027-87.913"/>
								</g>
							</g>
						</g>
					</g>
				</g>
			</g>
		</g>
		<g id="g10_13_" transform="matrix(1.25,0,0,-1.25,0,47.5)">
			<g id="g12_16_">
				<g>
					<g>
						<g>
							<g id="g14_16_">
								<g id="g20_16_" transform="translate(35.751,15)">
									<path id="path22_16_" fill="#77B255" d="M91.89-82.364c-2.476,0-8.821-2.631-11.762-5.417v9.131
										c0,0.464-0.309,0.774-0.774,0.774c-0.464,0-0.774-0.309-0.774-0.774v-9.131c-2.785,2.631-9.13,5.417-11.916,5.417
										c-0.619,0,8.047-10.214,11.916-9.44v-0.309c0-0.465,0.31-0.774,0.774-0.774s0.774,0.309,0.774,0.774v0.309
										C83.997-92.579,92.354-82.364,91.89-82.364"/>
								</g>
								<g id="g24_14_" transform="translate(26,23.5835)">
									<path id="path26_14_" fill="#EA596E" d="M94.288-84.473c0-4.643-1.238-6.964-5.107-6.964c-3.869,0-5.107,2.321-5.107,6.964
										s3.715,9.904,5.107,9.904C90.419-74.723,94.288-79.83,94.288-84.473"/>
								</g>
								<g id="g28_14_" transform="translate(23.7949,35)">
									<path id="path30_12_" fill="#F4ABBA" d="M94.938-87.507c-0.31,0-2.941-10.679-3.559-14.238
										c-0.62,3.714-3.25,14.238-3.714,14.238c-0.774,0-4.333-6.655-4.333-9.75s4.333-5.882,8.047-5.882
										c3.869,0,8.047,2.941,8.047,5.882C99.425-94.316,95.711-87.507,94.938-87.507"/>
								</g>
							</g>
						</g>
					</g>
				</g>
			</g>
		</g>
		<g id="g10_12_" transform="matrix(1.25,0,0,-1.25,0,47.5)">
			<g id="g12_15_">
				<g>
					<g>
						<g>
							<g id="g14_15_">
								<g id="g20_15_" transform="translate(34.7988,36.9946)">
									<path id="path22_15_" fill="#99AAB5" d="M62.515-85.445c-0.293,0.147-5.569-2.784-6.888-6.302
										c-0.879-2.052-1.172-4.25-1.172-5.569c-1.026,0.587-2.052,0.88-3.078,0.88c-0.879,0-1.905-0.293-3.077-0.88
										c0,1.466-0.293,3.518-1.173,5.569c-1.319,3.518-6.595,6.595-6.888,6.302c-0.293-0.146,3.078-11.284,4.836-14.655
										c-1.612-1.759-3.078-4.103-3.078-6.302c0-2.198,1.172-3.517,2.785-4.104c1.759-0.586,3.517,0.586,6.302,0.586
										c2.784,0,4.543-1.319,6.302-0.586c1.613,0.586,2.785,1.905,2.785,4.104s-1.32,4.397-3.078,6.302
										C59.584-96.729,62.808-85.738,62.515-85.445"/>
								</g>
								<g id="g24_13_" transform="translate(13.6919,19.0781)">
									<path id="path26_13_" fill="#F4ABBA" d="M68.81-80.156c-0.146,1.025-0.439,2.491-1.026,3.811
										c-1.026,2.784-4.103,5.129-4.25,5.129c-0.293-0.146,1.759-7.181,3.371-10.405C67.491-81.035,68.077-80.596,68.81-80.156"/>
								</g>
								<g id="g28_13_" transform="translate(27.0303,16.9063)">
									<path id="path30_11_" fill="#F4ABBA" d="M64.908-79.408c1.466,3.224,3.517,10.405,3.371,10.405
										c-0.293,0.147-3.078-2.198-4.25-5.129c-0.586-1.466-0.879-2.784-1.026-3.811C63.588-78.383,64.321-78.822,64.908-79.408"/>
								</g>
								<g id="g32_11_" transform="translate(26,7)">
									<path id="path34_10_" fill="#CCD6DD" d="M65.161-76.546c0-1.905-2.199-3.518-4.836-3.518c-2.638,0-4.836,1.612-4.836,3.518
										c0,1.905,2.198,3.517,4.836,3.517C63.109-73.029,65.161-74.641,65.161-76.546"/>
								</g>
								<g id="g36_11_" transform="translate(22,6.4219)">
									<path id="path38_11_" fill="#FFFFFF" d="M66.376-76.375c0-1.905-0.146-2.052-2.052-2.052c-1.905,0-2.052,0.146-2.052,2.052
										C62.272-75.643,66.376-75.643,66.376-76.375"/>
								</g>
								<g id="g40_11_" transform="translate(15,12.6719)">
									<path id="path42_11_" fill="#292F33" d="M68.393-78.302c0-0.586-0.439-1.026-1.025-1.026s-1.027,0.44-1.027,1.026
										s0.44,1.025,1.027,1.025C67.954-77.277,68.393-77.716,68.393-78.302"/>
								</g>
								<g id="g44_11_" transform="translate(26,12.6719)">
									<path id="path46_11_" fill="#292F33" d="M65.161-78.302c0-0.586-0.44-1.026-1.026-1.026c-0.586,0-1.026,0.44-1.026,1.026
										s0.44,1.025,1.026,1.025C64.574-77.277,65.161-77.716,65.161-78.302"/>
								</g>
								<g id="g48_10_" transform="translate(22,11.1719)">
									<path id="path50_10_" fill="#F4ABBA" d="M66.376-77.828c0-1.172-1.319-2.052-2.052-2.052c-0.732,0-2.052,0.879-2.052,2.052
										C62.272-76.509,66.376-76.509,66.376-77.828"/>
								</g>
							</g>
						</g>
					</g>
				</g>
			</g>
		</g>
		<g id="g10_14_" transform="matrix(1.25,0,0,-1.25,0,47.5)">
			<g id="g12_17_">
				<g>
					<g>
						<g>
							<g id="g14_17_">
								<g id="g20_17_" transform="translate(36,19)">
									<path id="path22_17_" fill="#FFCC4D" d="M34.307-81.532c0-6.733-5.387-12.27-12.27-12.27
										c-6.884,0-12.271,5.387-12.271,12.27c0,6.734,5.387,12.271,12.271,12.271C28.771-69.561,34.307-74.948,34.307-81.532"/>
								</g>
								<g id="g24_15_" transform="translate(29.457,19.2031)">
									<path id="path26_15_" fill="#664500" d="M35.998-81.581c0,0.15-1.048,2.395-3.143,2.395c-2.095,0-3.142-2.245-3.142-2.395
										c0-0.149,0-0.3,0.149-0.449c0.15-0.15,0.3-0.15,0.449,0c0,0,0.898,0.599,2.693,0.599c1.796,0,2.544-0.599,2.694-0.599h0.15
										c0.15,0,0.15,0,0.15,0.15C35.998-81.88,35.998-81.73,35.998-81.581"/>
								</g>
								<g id="g28_15_" transform="translate(17.457,19.2031)">
									<path id="path30_13_" fill="#664500" d="M39.468-81.581c0,0.15-1.047,2.395-3.143,2.395c-2.095,0-3.142-2.245-3.142-2.395
										c0-0.149,0-0.3,0.15-0.449c0.149-0.15,0.299-0.15,0.448,0c0,0,0.898,0.599,2.694,0.599c1.796,0,2.544-0.599,2.693-0.599
										h0.149c0.15,0,0.15,0,0.15,0.15C39.468-81.88,39.468-81.73,39.468-81.581"/>
								</g>
								<g id="g32_12_" transform="translate(32,20.9995)">
									<path id="path34_11_" fill="#664500" d="M35.464-82.185c-0.299,0-0.599,0.15-0.599,0.449
										c-1.196,3.143-4.489,3.891-4.489,3.891c-0.449,0.149-0.598,0.448-0.598,0.898c0.15,0.449,0.449,0.599,0.898,0.599
										c0.149,0,3.891-0.898,5.537-4.639c0.15-0.299,0-0.748-0.449-0.897C35.614-82.185,35.464-82.185,35.464-82.185"/>
								</g>
								<g id="g36_12_" transform="translate(5.9995,20.9995)">
									<path id="path38_12_" fill="#664500" d="M42.609-82.185c-0.149,0-0.149,0-0.299,0c-0.299,0.15-0.598,0.598-0.449,0.898
										c1.496,3.891,5.388,4.639,5.537,4.639c0.449,0.15,0.748-0.149,0.898-0.599c0.149-0.449-0.15-0.748-0.598-0.898
										c-0.15,0-3.143-0.748-4.489-3.891C43.208-82.036,42.909-82.185,42.609-82.185"/>
								</g>
								<g id="g40_12_" transform="translate(19,15)">
									<path id="path42_12_" fill="#664500" d="M39.037-80.375c-2.544,0-4.34,0.299-6.435,0.748c-0.449,0.15-1.347,0-1.347-1.346
										c0-2.843,3.292-6.435,7.782-6.435c4.489,0,7.781,3.591,7.781,6.435c0,1.346-0.898,1.496-1.347,1.346
										C43.377-80.076,41.581-80.375,39.037-80.375"/>
								</g>
								<g id="g44_12_" transform="translate(10,14)">
									<path id="path46_12_" fill="#FFFFFF" d="M41.602-80.124c0,0,2.095-0.748,6.435-0.748c4.19,0,6.434,0.748,6.434,0.748
										s-1.347-2.843-6.434-2.843C43.099-82.966,41.602-80.124,41.602-80.124"/>
								</g>
								<g id="g48_11_" transform="translate(11.8472,8.7705)">
									<path id="path50_11_" fill="#5DADEC" d="M41.023-78.829c-0.449-1.945-2.395-3.143-4.34-2.544
										c-1.945,0.449-3.142,2.395-2.544,4.34c0.449,1.945,4.489,6.285,5.238,5.985C40.125-71.048,41.622-76.734,41.023-78.829"/>
								</g>
								<g id="g52_7_" transform="translate(26.1328,8.7705)">
									<path id="path54_7_" fill="#5DADEC" d="M36.891-78.829c0.449-1.945,2.394-3.143,4.339-2.544
										c1.945,0.449,3.143,2.395,2.544,4.34c-0.599,1.945-4.489,6.285-5.237,5.985C37.939-71.048,36.443-76.734,36.891-78.829"/>
								</g>
							</g>
						</g>
					</g>
				</g>
			</g>
		</g>
	</g>
	<g id="deli_1" opacity="0.5">
		<path fill="#FFFFFF" d="M304.5,268.533c0,3.5-2.1,4.4-4.3,4.4h-2.4v-8.6h2.103C302.3,264.133,304.5,264.833,304.5,268.533z
			 M299.6,265.333v6.1h0.803c1.197,0,2.397-0.6,2.397-3.1c0-2.6-1.1-3-2.397-3H299.6z"/>
		<path fill="#FFFFFF" d="M311.9,269.934H307.8c0.103,1.4,0.8,1.7,1.7,1.7c0.6,0,1.1-0.1,1.7-0.6l0.6,0.9c-0.6,0.5-1.5,0.9-2.5,0.9
			c-2,0-3.1-1.4-3.1-3.5c0-2,1-3.5,2.897-3.5c1.803,0,2.9,1.2,2.9,3.4C312.1,269.533,311.9,269.833,311.9,269.934z M310.5,268.833
			c0-1.1-0.3-1.7-1.2-1.7c-0.8,0-1.2,0.5-1.2,1.7H310.5L310.5,268.833z"/>
		<path fill="#FFFFFF" d="M314.1,271.233v-7.8l1.7-0.1v7.9c0,0.3,0.103,0.5,0.3,0.5c0.103,0,0.303,0,0.303,0l0.3,1.1
			c-0.3,0.1-0.603,0.3-1,0.3C314.7,272.934,314.1,272.333,314.1,271.233z"/>
		<path fill="#FFFFFF" d="M320.2,263.833c0,0.5-0.3,1-1,1s-1-0.3-1-1c0-0.5,0.3-1,1-1C319.8,262.833,320.2,263.233,320.2,263.833z
			 M320.1,272.833H318.4v-6.6h1.697L320.1,272.833L320.1,272.833z"/>
		<path fill="#FFFFFF" d="M325.7,272.833h-1.8l-2.103-6.6h1.7l1.4,5.3l1.5-5.3h1.697L325.7,272.833z"/>
		<path fill="#FFFFFF" d="M334.8,269.934h-4.1c0.1,1.4,0.8,1.7,1.7,1.7c0.6,0,1.1-0.1,1.697-0.6l0.603,0.9
			c-0.603,0.5-1.5,0.9-2.5,0.9c-2,0-3.103-1.4-3.103-3.5c0-2,1-3.5,2.9-3.5c1.8,0,2.9,1.2,2.9,3.4
			C334.8,269.533,334.8,269.833,334.8,269.934z M333.2,268.833c0-1.1-0.3-1.7-1.2-1.7c-0.8,0-1.2,0.5-1.2,1.7H333.2L333.2,268.833z"
			/>
		<path fill="#FFFFFF" d="M340.8,266.033l-0.3,1.5c-0.3,0-0.3-0.1-0.6-0.1c-0.803,0-1.2,0.6-1.5,1.7v3.5h-1.5v-6.6h1.397l0.103,1.2
			c0.3-1,1-1.5,1.697-1.5C340.4,265.934,340.6,265.934,340.8,266.033z"/>
		<path fill="#FFFFFF" d="M347.7,269.934H343.6c0.103,1.4,0.803,1.7,1.7,1.7c0.603,0,1.103-0.1,1.7-0.6l0.6,0.9
			c-0.6,0.5-1.5,0.9-2.5,0.9c-2,0-3.1-1.4-3.1-3.5c0-2,1-3.5,2.9-3.5c1.897,0,2.897,1.2,2.897,3.4
			C347.7,269.533,347.7,269.833,347.7,269.934z M346.2,268.833c0-1.1-0.3-1.7-1.2-1.7c-0.8,0-1.2,0.5-1.2,1.7H346.2L346.2,268.833z"
			/>
		<path fill="#FFFFFF" d="M355.4,263.434v9.3H354l-0.1-0.9c-0.303,0.6-1,1-1.803,1c-1.697,0-2.5-1.4-2.5-3.5c0-2,1-3.5,2.603-3.5
			c0.6,0,1.2,0.3,1.7,0.8v-3.4L355.4,263.434z M353.8,270.934v-3c-0.3-0.5-0.8-0.8-1.2-0.8c-0.897,0-1.397,0.8-1.397,2.3
			c0,1.7,0.5,2.3,1.2,2.3C353,271.733,353.4,271.434,353.8,270.934z"/>
	</g>
</g>
</svg>
