<?xml version="1.0" encoding="utf-8"?>
<!-- Generator: Adobe Illustrator 18.0.0, SVG Export Plug-In . SVG Version: 6.00 Build 0)  -->
<!DOCTYPE svg PUBLIC "-//W3C//DTD SVG 1.1//EN" "http://www.w3.org/Graphics/SVG/1.1/DTD/svg11.dtd">
<svg version="1.1" id="Layer_1" xmlns="http://www.w3.org/2000/svg" xmlns:xlink="http://www.w3.org/1999/xlink" x="0px" y="0px"
	 viewBox="0 0 316 316" enable-background="new 0 0 316 316" xml:space="preserve">
<g>
	<path fill="#B3B3B3" d="M0,0v314.8h314.8V0H0z M158.9,235.9c-14.2,0-27.6-3.6-39.2-10l-45,14.3l14.6-43.2
		c-7.4-12.1-11.6-26.4-11.6-41.6c0-44.5,36.3-80.6,81.2-80.6c44.8,0,81.2,36.1,81.2,80.6C240.1,199.8,203.8,235.9,158.9,235.9z"/>
	<path fill="#B3B3B3" d="M158.9,87.6c-37.6,0-68.3,30.4-68.3,67.7c0,14.8,4.8,28.5,13,39.7l-8.5,25.2l26.2-8.4
		c10.8,7.1,23.7,11.2,37.5,11.2c37.6,0,68.3-30.4,68.3-67.7C227.2,118,196.5,87.6,158.9,87.6z M198.8,183.3c-1.7,4.6-9.8,9-13.4,9.4
		c-3.6,0.3-3.6,3-23.9-4.9c-20.2-7.9-33-28.5-34-29.8c-1-1.3-8.1-10.7-8.1-20.4c0-9.7,5.1-14.5,7-16.5c1.8-2,4-2.5,5.3-2.5
		c1.3,0,2.7,0.2,3.8,0.2c1.2,0,2.8-0.7,4.5,3.3c1.7,4,5.6,13.7,6.1,14.7c0.5,1,0.8,2.1,0.2,3.5c-0.7,1.3-1,2.1-2,3.3
		c-1,1.2-2.1,2.6-3,3.5c-1,1-2,2-0.9,4c1.2,2,5.2,8.5,11.1,13.7c7.6,6.7,14,8.8,16,9.8c2,1,3.1,0.8,4.3-0.5c1.2-1.3,5-5.8,6.3-7.7
		c1.3-2,2.6-1.7,4.5-1c1.8,0.7,11.6,5.4,13.6,6.4c2,1,3.3,1.5,3.8,2.3C200.4,174.7,200.4,178.6,198.8,183.3z"/>
</g>
</svg>
