<?xml version="1.0" encoding="utf-8"?>
<!-- Generator: Adobe Illustrator 18.0.0, SVG Export Plug-In . SVG Version: 6.00 Build 0)  -->
<!DOCTYPE svg PUBLIC "-//W3C//DTD SVG 1.1//EN" "http://www.w3.org/Graphics/SVG/1.1/DTD/svg11.dtd">
<svg version="1.1" id="Layer_1" xmlns="http://www.w3.org/2000/svg" xmlns:xlink="http://www.w3.org/1999/xlink" x="0px" y="0px"
	 viewBox="0 0 316 316" enable-background="new 0 0 316 316" xml:space="preserve">
<g>
	<path fill="#B3B3B3" d="M200.3,108.4L94.6,150.5l27.5,10.5c2,0.8,3.5,2.4,4,4.4l3.5,13.2c0.2-1.5,0.9-3,2-4L200.3,108.4z"/>
	<path fill="#B3B3B3" d="M130.8,183.1l5,18.8l10.7-7.7l-14-9.5C131.8,184.3,131.2,183.7,130.8,183.1z"/>
	<path fill="#B3B3B3" d="M0,0v314.8h314.8V0H0z M235.4,90.6c0,0.3-0.1,0.5-0.1,0.7l-25.7,134.7c-0.4,2.2-1.9,4-3.9,4.8
		c-0.8,0.3-1.7,0.5-2.5,0.5c-1.3,0-2.6-0.4-3.7-1.1L157.9,202l-22.3,16c-1.7,1.3-4,1.6-6,0.8c-2-0.7-3.6-2.4-4.1-4.5L114.3,172
		l-40-15.3c-2.5-1-4.2-3.4-4.2-6.1c0-2.7,1.6-5.1,4.1-6.1L226.3,84c0.7-0.3,1.4-0.5,2.2-0.5c0.3,0,0.5,0,0.8,0
		c1.5,0.1,3,0.7,4.2,1.9c0.1,0.1,0.2,0.2,0.3,0.4c1,1.1,1.5,2.5,1.6,3.8C235.5,89.9,235.4,90.2,235.4,90.6z"/>
	<path fill="#B3B3B3" d="M161.4,188.6c0.1,0,0.1,0.1,0.2,0.1l37,25.1l20-104.8l-72.2,69.4L161.4,188.6z"/>
	<path fill="#B3B3B3" d="M129.6,178.6l-3.5-13.2c-0.5-2-2-3.7-4-4.4l-27.5-10.5l105.7-42.1l-68.8,66.2
		C130.4,175.7,129.7,177.1,129.6,178.6z M135.7,201.9l-5-18.8c0.4,0.6,1,1.2,1.7,1.6l14,9.5L135.7,201.9z M198.6,213.8l-37-25.1
		c-0.1,0-0.1-0.1-0.2-0.1l-15-10.2l72.2-69.4L198.6,213.8z"/>
</g>
</svg>
