<?xml version="1.0" encoding="utf-8"?>
<!-- Generator: Adobe Illustrator 18.0.0, SVG Export Plug-In . SVG Version: 6.00 Build 0)  -->
<!DOCTYPE svg PUBLIC "-//W3C//DTD SVG 1.1//EN" "http://www.w3.org/Graphics/SVG/1.1/DTD/svg11.dtd">
<svg version="1.1" id="Layer_1" xmlns="http://www.w3.org/2000/svg" xmlns:xlink="http://www.w3.org/1999/xlink" x="0px" y="0px"
	 viewBox="0 0 316 316" enable-background="new 0 0 316 316" xml:space="preserve">
<g>
	<path fill="#B3B3B3" d="M131.2,177.4c-18.7-0.2-34.6,11.8-34.6,25.8c0,14.2,13.5,26.1,32.2,26.1c26.3,0,35.5-11.1,35.5-25.3
		c0-1.7-0.2-3.4-0.6-5c-2.1-8-10.2-12.5-20.4-19.5C139.6,178.2,135.6,177.5,131.2,177.4z"/>
	<path fill="#B3B3B3" d="M0,0v316h316V0H0z M170.1,116.3c0,10.3-5.7,18.6-13.8,24.9c-7.9,6.1-9.4,8.7-9.4,13.9
		c0,4.5,9.4,11.1,13.7,14.3c15,11.3,18.1,18.4,18.1,32.5c0,17.6-19,35.1-49.8,35.1c-27.1,0-49.9-11-49.9-28.6
		c0-17.9,18.9-36.5,46-36.5c3,0,5.7-0.1,8.4-0.1c-3.7-3.6-6.7-6.7-6.7-12.1c0-3.2,1-6.3,2.5-9.1c-1.5,0.1-3,0.2-4.5,0.2
		c-22.2,0-35.2-15.6-35.2-35.2c0-19.2,19.7-36.6,43.3-36.6c12.2,0,46.6,0,46.6,0l-10.4,10.9h-12.2
		C165.5,94.9,170.1,105.1,170.1,116.3z M237,113.4h-21.5v21.5h-10.7v-21.5h-21.5v-10.7h21.5V81.2h10.7v21.5H237V113.4z"/>
	<path fill="#B3B3B3" d="M125.9,86.6c-12.5-0.4-21,12.2-18.8,28.7c2.2,16.5,14.1,28,26.6,28.4c12.5,0.4,19.8-10.2,17.6-26.7
		C149.2,100.5,138.5,87,125.9,86.6z"/>
</g>
</svg>
