<?xml version="1.0" encoding="UTF-8" standalone="no"?>
<svg
   xmlns:dc="http://purl.org/dc/elements/1.1/"
   xmlns:cc="http://creativecommons.org/ns#"
   xmlns:rdf="http://www.w3.org/1999/02/22-rdf-syntax-ns#"
   xmlns:svg="http://www.w3.org/2000/svg"
   xmlns="http://www.w3.org/2000/svg"
   xmlns:sodipodi="http://sodipodi.sourceforge.net/DTD/sodipodi-0.dtd"
   xmlns:inkscape="http://www.inkscape.org/namespaces/inkscape"
   viewBox="0 0 226.43469 264"
   height="264"
   width="226.43469"
   xml:space="preserve"
   version="1.1"
   id="svg2"
   inkscape:version="0.91 r"
   sodipodi:docname="favicon.svg"><sodipodi:namedview
     pagecolor="#ffffff"
     bordercolor="#666666"
     borderopacity="1"
     objecttolerance="10"
     gridtolerance="10"
     guidetolerance="10"
     inkscape:pageopacity="0"
     inkscape:pageshadow="2"
     inkscape:window-width="640"
     inkscape:window-height="480"
     id="namedview38"
     showgrid="false"
     fit-margin-top="2"
     fit-margin-left="2"
     fit-margin-right="2"
     fit-margin-bottom="2"
     inkscape:zoom="1.6257216"
     inkscape:cx="102.41707"
     inkscape:cy="89.699958"
     inkscape:current-layer="svg2" /><metadata
     id="metadata8"><rdf:RDF><cc:Work
         rdf:about=""><dc:format>image/svg+xml</dc:format><dc:type
           rdf:resource="http://purl.org/dc/dcmitype/StillImage" /><dc:title></dc:title></cc:Work></rdf:RDF></metadata><defs
     id="defs6"><clipPath
       id="clipPath16"
       clipPathUnits="userSpaceOnUse"><path
         id="path18"
         d="M 0,16 16,16 16,0 0,0 0,16 Z"
         inkscape:connector-curvature="0" /></clipPath></defs><g
     transform="matrix(17.333308,0,0,-17.333308,-25.445747,270.66435)"
     id="g10"><g
       id="g12"><g
         clip-path="url(#clipPath16)"
         id="g14"><g
           transform="translate(13.2532,3.7521)"
           id="g20"><path
             id="path22"
             style="fill:#5c913b;fill-opacity:1;fill-rule:nonzero;stroke:none"
             d="M 0,0 -4.183,4.242 0.063,8.43 0.582,8.941 1.163,9.515 c -0.317,0.32 -0.663,0.62 -1.046,0.887 -3.399,2.367 -8.073,1.53 -10.441,-1.869 -2.367,-3.399 -1.53,-8.074 1.869,-10.441 3.01,-2.096 7.017,-1.676 9.54,0.808 L 0.511,-0.518 0,0 Z"
             inkscape:connector-curvature="0" /></g><g
           transform="translate(9.0698,7.9939)"
           id="g24"><path
             id="path26"
             style="fill:#ffe8b6;fill-opacity:1;fill-rule:nonzero;stroke:none"
             d="M 0,0 4.247,4.188 4.765,4.699 C 4.483,4.985 4.175,5.252 3.834,5.489 0.805,7.598 -3.36,6.853 -5.469,3.824 c -2.11,-3.028 -1.364,-7.193 1.664,-9.303 2.682,-1.867 6.252,-1.493 8.5,0.719 L 4.183,-4.242 0,0 Z"
             inkscape:connector-curvature="0" /></g><g
           transform="translate(13.3165,12.1821)"
           id="g28"><path
             id="path30"
             style="fill:#dd2e44;fill-opacity:1;fill-rule:nonzero;stroke:none"
             d="m 0,0 c -0.251,0.254 -0.526,0.492 -0.829,0.703 -2.699,1.879 -6.41,1.215 -8.289,-1.483 -1.88,-2.699 -1.215,-6.41 1.483,-8.289 2.389,-1.664 5.569,-1.331 7.572,0.639 L -4.247,-4.188 0,0 Z"
             inkscape:connector-curvature="0" /></g><g
           transform="translate(5.7276,9.9497)"
           id="g32"><path
             id="path34"
             style="fill:#000000;fill-opacity:1;fill-rule:nonzero;stroke:none"
             d="M 0,0 C -0.217,-0.085 -0.428,-0.066 -0.47,0.042 -0.513,0.151 -0.372,0.308 -0.154,0.393 0.063,0.478 0.273,0.46 0.316,0.351 0.358,0.242 0.217,0.085 0,0"
             inkscape:connector-curvature="0" /></g><g
           transform="translate(7.565,8.1557)"
           id="g36"><path
             id="path38"
             style="fill:#000000;fill-opacity:1;fill-rule:nonzero;stroke:none"
             d="M 0,0 C -0.217,-0.085 -0.428,-0.066 -0.47,0.042 -0.513,0.151 -0.372,0.308 -0.154,0.393 0.063,0.478 0.273,0.46 0.316,0.351 0.358,0.242 0.217,0.085 0,0"
             inkscape:connector-curvature="0" /></g><g
           transform="translate(8.197,5.309)"
           id="g40"><path
             id="path42"
             style="fill:#000000;fill-opacity:1;fill-rule:nonzero;stroke:none"
             d="m 0,0 c -0.116,-0.203 -0.291,-0.32 -0.392,-0.263 -0.101,0.058 -0.09,0.269 0.026,0.472 0.115,0.203 0.291,0.32 0.391,0.262 C 0.128,0.414 0.116,0.203 0,0"
             inkscape:connector-curvature="0" /></g><g
           transform="translate(5.5616,8.1733)"
           id="g44"><path
             id="path46"
             style="fill:#000000;fill-opacity:1;fill-rule:nonzero;stroke:none"
             d="m 0,0 c -0.116,-0.203 -0.291,-0.32 -0.392,-0.263 -0.101,0.058 -0.09,0.269 0.026,0.472 0.116,0.203 0.291,0.32 0.391,0.262 C 0.128,0.414 0.116,0.203 0,0"
             inkscape:connector-curvature="0" /></g><g
           transform="translate(5.6234,5.3801)"
           id="g48"><path
             id="path50"
             style="fill:#000000;fill-opacity:1;fill-rule:nonzero;stroke:none"
             d="M 0,0 C -0.222,-0.072 -0.43,-0.042 -0.466,0.069 -0.503,0.18 -0.352,0.328 -0.131,0.401 0.092,0.473 0.3,0.442 0.336,0.332 0.373,0.22 0.222,0.072 0,0"
             inkscape:connector-curvature="0" /></g><g
           transform="translate(8.2979,3.2839)"
           id="g52"><path
             id="path54"
             style="fill:#000000;fill-opacity:1;fill-rule:nonzero;stroke:none"
             d="m 0,0 c -0.022,-0.232 -0.133,-0.411 -0.248,-0.401 -0.117,0.011 -0.194,0.208 -0.172,0.441 0.021,0.232 0.133,0.411 0.249,0.4 C -0.054,0.43 0.022,0.233 0,0"
             inkscape:connector-curvature="0" /></g><g
           transform="translate(7.0799,6.719)"
           id="g56"><path
             id="path58"
             style="fill:#000000;fill-opacity:1;fill-rule:nonzero;stroke:none"
             d="m 0,0 c -0.007,-0.234 -0.106,-0.419 -0.222,-0.416 -0.117,0.003 -0.206,0.194 -0.199,0.428 0.006,0.233 0.106,0.419 0.222,0.416 C -0.082,0.425 0.007,0.234 0,0"
             inkscape:connector-curvature="0" /></g><g
           transform="translate(9.8116,4.0067)"
           id="g60"><path
             id="path62"
             style="fill:#000000;fill-opacity:1;fill-rule:nonzero;stroke:none"
             d="M 0,0 C -0.222,-0.072 -0.43,-0.042 -0.467,0.069 -0.503,0.18 -0.353,0.328 -0.131,0.401 0.091,0.473 0.3,0.442 0.336,0.332 0.373,0.22 0.222,0.072 0,0"
             inkscape:connector-curvature="0" /></g><g
           transform="translate(9.8033,10.3001)"
           id="g64"><path
             id="path66"
             style="fill:#000000;fill-opacity:1;fill-rule:nonzero;stroke:none"
             d="M 0,0 C 0.116,0.203 0.291,0.32 0.392,0.263 0.493,0.205 0.482,-0.006 0.366,-0.209 0.251,-0.412 0.075,-0.529 -0.025,-0.471 -0.128,-0.414 -0.116,-0.203 0,0"
             inkscape:connector-curvature="0" /></g><g
           transform="translate(9.7024,12.3252)"
           id="g68"><path
             id="path70"
             style="fill:#000000;fill-opacity:1;fill-rule:nonzero;stroke:none"
             d="M 0,0 C 0.022,0.232 0.133,0.411 0.248,0.401 0.365,0.39 0.442,0.193 0.42,-0.04 0.399,-0.272 0.287,-0.451 0.171,-0.44 0.054,-0.43 -0.022,-0.233 0,0"
             inkscape:connector-curvature="0" /></g><g
           transform="translate(8.1886,11.6024)"
           id="g72"><path
             id="path74"
             style="fill:#000000;fill-opacity:1;fill-rule:nonzero;stroke:none"
             d="M 0,0 C 0.222,0.072 0.43,0.042 0.467,-0.069 0.503,-0.18 0.353,-0.328 0.131,-0.401 -0.091,-0.473 -0.3,-0.442 -0.336,-0.332 -0.373,-0.22 -0.222,-0.072 0,0"
             inkscape:connector-curvature="0" /></g></g></g></g></svg>